<svg width="175" height="26" viewBox="0 0 175 26" fill="none" xmlns="http://www.w3.org/2000/svg">
<path d="M31.8472 0.883789H9.3734L11.0031 5.51159H0.0322266L6.76384 15.1743L0.0322266 24.8477H17.7986L16.1689 20.2306H31.8472V0.883789Z" fill="#DC3542"/>
<path d="M10.9708 5.51172H0L6.73161 15.1851L0 24.8692H17.777L16.1473 20.2414L10.9708 5.51172Z" fill="url(#paint0_linear_3_179)"/>
<path fill-rule="evenodd" clip-rule="evenodd" d="M148.931 0H153.731V4.38545H148.931V0ZM149 24.8624V6.87169H153.662V24.8624H149ZM40.03 24.8624V0.69062H49.8023C50.8613 0.69062 51.8627 0.771192 52.8065 0.932338C53.7504 1.09348 54.6137 1.35822 55.3964 1.72655C56.1791 2.09488 56.8467 2.57832 57.3992 3.17686C57.9517 3.75238 58.3776 4.46602 58.6768 5.31779C58.9991 6.14653 59.1603 7.12492 59.1603 8.25293C59.1603 9.1047 59.0452 9.87589 58.815 10.5665C58.6078 11.2571 58.297 11.8787 57.8826 12.4312C57.4913 12.9837 57.0193 13.4671 56.4668 13.8815C55.9374 14.2729 55.3503 14.6182 54.7057 14.9174L60.0926 24.8624H54.6712L50.1822 15.8498H49.8023H44.8989V24.8624H40.03ZM49.5261 4.31639H44.8989V12.3967H49.5261C50.0556 12.3967 50.5505 12.3621 51.0109 12.2931C51.4944 12.201 51.9318 12.0629 52.3231 11.8787C52.7145 11.6945 53.0483 11.4528 53.3245 11.1535C53.6008 10.8543 53.8079 10.4744 53.9461 10.014C54.1072 9.5536 54.1878 9.00111 54.1878 8.35653C54.1878 7.57382 54.0727 6.92924 53.8425 6.42278C53.6123 5.89331 53.29 5.47893 52.8756 5.17966C52.4612 4.85737 51.9663 4.63868 51.3908 4.52357C50.8152 4.38545 50.1937 4.31639 49.5261 4.31639ZM78.0057 17.1965H66.4378C66.4838 18.0483 66.6219 18.7619 66.8521 19.3374C67.1054 19.9129 67.4392 20.3849 67.8535 20.7532C68.2909 21.0985 68.8089 21.3517 69.4074 21.5129C70.006 21.651 70.6736 21.7201 71.4102 21.7201C72.4462 21.7201 73.4361 21.6165 74.3799 21.4093C75.3468 21.1791 76.2446 20.8913 77.0733 20.546L77.7294 23.7574C77.1309 24.0336 76.4633 24.2754 75.7266 24.4826C74.99 24.6897 74.1842 24.8509 73.3094 24.966C72.4577 25.1041 71.5484 25.1732 70.5815 25.1732C67.6579 25.1732 65.4479 24.425 63.9515 22.9287C62.4782 21.4323 61.7415 19.2108 61.7415 16.2641V15.1246C61.7415 13.6743 61.9372 12.4082 62.3286 11.3262C62.7429 10.2212 63.3184 9.31189 64.0551 8.59824C64.8148 7.86158 65.7126 7.30908 66.7485 6.94075C67.7845 6.57242 68.947 6.38825 70.2362 6.38825C72.7915 6.38825 74.7252 7.09039 76.0374 8.49465C77.3496 9.89892 78.0057 12.0283 78.0057 14.8829V17.1965ZM70.029 9.63418C69.4995 9.63418 69.0161 9.71475 68.5787 9.87589C68.1643 10.014 67.8075 10.2557 67.5082 10.601C67.209 10.9464 66.9672 11.4183 66.7831 12.0168C66.5989 12.5923 66.4838 13.3175 66.4378 14.1923H73.4821C73.4591 13.3175 73.367 12.5923 73.2059 12.0168C73.0447 11.4183 72.826 10.9464 72.5498 10.601C72.2735 10.2557 71.9167 10.014 71.4793 9.87589C71.0649 9.71475 70.5815 9.63418 70.029 9.63418ZM81.305 20.3734L80.6489 23.7574C81.2014 24.0336 81.823 24.2754 82.5136 24.4826C83.2042 24.6897 83.9409 24.8509 84.7236 24.966C85.5293 25.1041 86.3811 25.1732 87.2789 25.1732C88.9594 25.1732 90.3752 24.943 91.5262 24.4826C92.6773 24.0221 93.5405 23.3545 94.1161 22.4797C94.7146 21.605 95.0139 20.5345 95.0139 19.2684C95.0139 18.5777 94.9333 17.9792 94.7721 17.4727C94.634 16.9663 94.4268 16.5289 94.1506 16.1606C93.8743 15.7922 93.5636 15.4814 93.2183 15.2282C92.8729 14.975 92.4931 14.7678 92.0787 14.6067C91.6874 14.4225 91.273 14.2844 90.8356 14.1923C90.4212 14.0772 90.0069 13.9966 89.5925 13.9506C89.1781 13.8815 88.7868 13.8124 88.4184 13.7434C87.7969 13.6513 87.2789 13.5477 86.8645 13.4326C86.4502 13.3175 86.1279 13.1909 85.8977 13.0528C85.6674 12.8916 85.5063 12.719 85.4142 12.5348C85.3221 12.3276 85.2761 12.0859 85.2761 11.8096C85.2761 11.3953 85.3912 11.0615 85.6214 10.8082C85.8516 10.532 86.2084 10.3248 86.6919 10.1867C87.1753 10.0485 87.8199 9.97949 88.6256 9.97949C89.6385 9.97949 90.5594 10.0831 91.3881 10.2903C92.2399 10.4744 92.9996 10.7392 93.6672 11.0845L94.3578 7.70044C93.5751 7.3321 92.7003 7.04434 91.7334 6.83716C90.7665 6.62997 89.6961 6.52638 88.522 6.52638C87.394 6.52638 86.3581 6.64148 85.4142 6.87169C84.4934 7.07887 83.6992 7.41268 83.0316 7.87309C82.364 8.31049 81.846 8.89751 81.4777 9.63418C81.1093 10.3478 80.9252 11.1996 80.9252 12.1895C80.9252 12.8571 80.9942 13.4441 81.1324 13.9506C81.2935 14.457 81.5122 14.8944 81.7885 15.2627C82.0647 15.6311 82.3755 15.9419 82.7208 16.1951C83.0661 16.4483 83.4459 16.667 83.8603 16.8512C84.2747 17.0123 84.6891 17.1504 85.1034 17.2656C85.5178 17.3576 85.9322 17.4382 86.3466 17.5073C86.7609 17.5763 87.1408 17.6339 87.4861 17.6799C88.1076 17.772 88.6256 17.8871 89.04 18.0252C89.4544 18.1403 89.7767 18.2785 90.0069 18.4396C90.2371 18.6008 90.3982 18.7849 90.4903 18.9921C90.5824 19.1993 90.6284 19.441 90.6284 19.7173C90.6284 20.0165 90.5709 20.2928 90.4558 20.546C90.3407 20.7762 90.145 20.9834 89.8687 21.1676C89.6155 21.3517 89.2587 21.4899 88.7983 21.5819C88.3609 21.674 87.8084 21.7201 87.1408 21.7201C86.1279 21.7201 85.138 21.605 84.1711 21.3748C83.2042 21.1215 82.2489 20.7877 81.305 20.3734ZM113.286 17.1965H101.718C101.764 18.0483 101.902 18.7619 102.132 19.3374C102.386 19.9129 102.719 20.3849 103.134 20.7532C103.571 21.0985 104.089 21.3517 104.688 21.5129C105.286 21.651 105.954 21.7201 106.691 21.7201C107.727 21.7201 108.716 21.6165 109.66 21.4093C110.627 21.1791 111.525 20.8913 112.354 20.546L113.01 23.7574C112.411 24.0336 111.744 24.2754 111.007 24.4826C110.27 24.6897 109.465 24.8509 108.59 24.966C107.738 25.1041 106.829 25.1732 105.862 25.1732C102.938 25.1732 100.728 24.425 99.2318 22.9287C97.7585 21.4323 97.0219 19.2108 97.0219 16.2641V15.1246C97.0219 13.6743 97.2175 12.4082 97.6089 11.3262C98.0233 10.2212 98.5988 9.31189 99.3354 8.59824C100.095 7.86158 100.993 7.30908 102.029 6.94075C103.065 6.57242 104.227 6.38825 105.517 6.38825C108.072 6.38825 110.006 7.09039 111.318 8.49465C112.63 9.89892 113.286 12.0283 113.286 14.8829V17.1965ZM105.309 9.63418C104.78 9.63418 104.296 9.71475 103.859 9.87589C103.445 10.014 103.088 10.2557 102.789 10.601C102.489 10.9464 102.248 11.4183 102.063 12.0168C101.879 12.5923 101.764 13.3175 101.718 14.1923H108.762C108.739 13.3175 108.647 12.5923 108.486 12.0168C108.325 11.4183 108.106 10.9464 107.83 10.601C107.554 10.2557 107.197 10.014 106.76 9.87589C106.345 9.71475 105.862 9.63418 105.309 9.63418ZM140.007 24.8624L146.43 6.87169H141.63L137.659 20.4079L133.688 6.87169H128.75L135.138 24.8624H140.007ZM160.72 24.3444C162.009 25.012 163.551 25.3458 165.347 25.3458C166.682 25.3458 167.879 25.1617 168.938 24.7933C169.997 24.402 170.906 23.838 171.666 23.1013C172.426 22.3646 173.001 21.4438 173.393 20.3388C173.807 19.2108 174.014 17.8986 174.014 16.4023V15.2973C174.014 13.3175 173.68 11.6715 173.013 10.3593C172.345 9.02413 171.367 8.03424 170.078 7.38966C168.812 6.72205 167.281 6.38825 165.485 6.38825C164.15 6.38825 162.953 6.57242 161.894 6.94075C160.835 7.30908 159.925 7.87309 159.166 8.63278C158.406 9.36944 157.819 10.2903 157.405 11.3953C157.013 12.5003 156.818 13.8009 156.818 15.2973V16.4368C156.818 18.4166 157.151 20.0626 157.819 21.3748C158.487 22.6869 159.454 23.6768 160.72 24.3444ZM166.694 21.6165C166.302 21.7086 165.876 21.7546 165.416 21.7546C164.956 21.7546 164.53 21.7086 164.138 21.6165C163.747 21.5014 163.39 21.3172 163.068 21.064C162.769 20.8107 162.504 20.4769 162.274 20.0626C162.043 19.6482 161.871 19.1417 161.756 18.5432C161.641 17.9216 161.583 17.1965 161.583 16.3677V15.3318C161.583 14.5031 161.641 13.7894 161.756 13.1909C161.871 12.5693 162.043 12.0629 162.274 11.6715C162.504 11.2571 162.769 10.9233 163.068 10.6701C163.39 10.4169 163.747 10.2442 164.138 10.1521C164.53 10.037 164.956 9.97949 165.416 9.97949C165.876 9.97949 166.302 10.037 166.694 10.1521C167.085 10.2442 167.43 10.4169 167.73 10.6701C168.052 10.9233 168.328 11.2571 168.558 11.6715C168.788 12.0629 168.961 12.5693 169.076 13.1909C169.191 13.7894 169.249 14.5031 169.249 15.3318V16.3677C169.249 17.1965 169.191 17.9216 169.076 18.5432C168.961 19.1417 168.788 19.6482 168.558 20.0626C168.328 20.4769 168.052 20.8107 167.73 21.064C167.43 21.3172 167.085 21.5014 166.694 21.6165ZM123.846 6.9753C124.454 6.75817 125.113 6.64344 125.824 6.6311L127.404 11.0806L127.403 11.0845C127.104 10.9694 126.804 10.8888 126.505 10.8428C126.206 10.7737 125.872 10.7392 125.504 10.7392C124.928 10.7392 124.387 10.8313 123.881 11.0154C123.374 11.1766 122.925 11.4528 122.534 11.8442C122.166 12.2355 121.878 12.7535 121.671 13.3981C121.463 14.0427 121.36 14.8254 121.36 15.7462V24.8624H116.698V6.87171H120.773L121.084 9.94497C121.36 9.18529 121.728 8.56373 122.189 8.08029C122.672 7.57384 123.225 7.20551 123.846 6.9753Z" fill="#DC3542"/>
<defs>
<linearGradient id="paint0_linear_3_179" x1="3.66318" y1="17.1011" x2="14.5875" y2="13.1478" gradientUnits="userSpaceOnUse">
<stop offset="0.25" stop-color="#DC3542"/>
<stop offset="1" stop-color="#A82C34"/>
</linearGradient>
</defs>
</svg>
