<svg width="133" height="28" viewBox="0 0 133 28" fill="none" xmlns="http://www.w3.org/2000/svg">
<g clip-path="url(#clip0_167_3447)">
<path d="M130.537 0H2.46296C1.10271 0 0 1.13964 0 2.54545V25.4545C0 26.8604 1.10271 28 2.46296 28H130.537C131.897 28 133 26.8604 133 25.4545V2.54545C133 1.13964 131.897 0 130.537 0Z" fill="#0089FA" fill-opacity="0.15"/>
<path fill-rule="evenodd" clip-rule="evenodd" d="M12.3749 8H17.9999C18.8271 8 19.4998 8.67274 19.4998 9.49998V10.25C19.4998 10.6632 19.1638 11 18.7498 11H17.2499V11.7499C16.993 11.7499 16.7422 11.7758 16.4999 11.825V9.49998C16.4999 9.22698 16.5734 8.97048 16.7016 8.74999H12.3749C11.7547 8.74999 11.25 9.25473 11.25 9.87497V15.4999H13.4999C13.4999 15.7567 13.5257 16.0075 13.5749 16.2499H9.74999V16.9999C9.74999 17.4131 10.086 17.7498 10.5 17.7498H14.2496C14.4629 18.0338 14.7156 18.2865 14.9995 18.4998H10.5C9.67274 18.4998 9 17.8271 9 16.9999V16.2499C9 15.8366 9.33599 15.4999 9.74999 15.4999H10.5V9.87497C10.5 8.84149 11.3407 8 12.3749 8ZM17.9999 8.74999C17.5859 8.74999 17.2499 9.08673 17.2499 9.49998V10.25H18.7498V9.49998C18.7498 9.08673 18.4138 8.74999 17.9999 8.74999Z" fill="#0078D7"/>
<path d="M19.4998 15.4998C19.4998 16.7423 18.4925 17.7496 17.2499 17.7496C16.0072 17.7496 14.9999 16.7423 14.9999 15.4998C14.9999 14.2572 16.0072 13.2499 17.2499 13.2499C18.4925 13.2499 19.4998 14.2572 19.4998 15.4998ZM18.7498 18.0982C18.3086 18.3535 17.7963 18.4996 17.2499 18.4996C16.7034 18.4996 16.1911 18.3535 15.7499 18.0982V19.8122C15.7499 19.9577 15.9083 20.0477 16.0333 19.9733L17.2499 19.2495L18.4665 19.9733C18.5915 20.0477 18.7498 19.9577 18.7498 19.8122V18.0982Z" fill="#0078D7"/>
<path d="M125.101 16.5757H120.645C120.662 17.2783 120.851 17.8207 121.212 18.2028C121.574 18.5849 122.071 18.776 122.704 18.776C123.415 18.776 124.068 18.5418 124.664 18.0734V19.0225C124.109 19.4252 123.376 19.6265 122.464 19.6265C121.572 19.6265 120.871 19.3409 120.362 18.7698C119.852 18.1946 119.598 17.3872 119.598 16.3477C119.598 15.3657 119.875 14.5665 120.43 13.9502C120.988 13.3297 121.681 13.0195 122.507 13.0195C123.333 13.0195 123.971 13.2866 124.423 13.8208C124.875 14.3549 125.101 15.0965 125.101 16.0457V16.5757ZM124.066 15.719C124.062 15.1356 123.92 14.6815 123.641 14.357C123.365 14.0324 122.981 13.8701 122.488 13.8701C122.012 13.8701 121.607 14.0406 121.274 14.3816C120.941 14.7226 120.736 15.1684 120.658 15.719H124.066Z" fill="#0078D7"/>
<path d="M118.932 14.1907C118.756 14.0551 118.501 13.9873 118.168 13.9873C117.737 13.9873 117.375 14.1907 117.083 14.5974C116.796 15.0042 116.652 15.5589 116.652 16.2615V19.4787H115.641V13.1676H116.652V14.468H116.677C116.82 14.0243 117.04 13.6791 117.336 13.4326C117.632 13.182 117.963 13.0566 118.328 13.0566C118.591 13.0566 118.793 13.0854 118.932 13.1429V14.1907Z" fill="#0078D7"/>
<path d="M113.737 19.4786H112.726V18.4925H112.701C112.261 19.2485 111.614 19.6265 110.76 19.6265C110.131 19.6265 109.638 19.4601 109.281 19.1273C108.927 18.7945 108.75 18.3528 108.75 17.8022C108.75 16.623 109.445 15.9368 110.834 15.7437L112.726 15.4787C112.726 14.4063 112.292 13.8701 111.425 13.8701C110.665 13.8701 109.979 14.1289 109.367 14.6466V13.6112C109.987 13.2168 110.702 13.0195 111.512 13.0195C112.995 13.0195 113.737 13.8043 113.737 15.3739V19.4786ZM112.726 16.286L111.203 16.4956C110.735 16.5613 110.382 16.6784 110.143 16.8469C109.905 17.0112 109.786 17.305 109.786 17.7282C109.786 18.0364 109.895 18.2891 110.113 18.4863C110.334 18.6794 110.628 18.776 110.994 18.776C111.495 18.776 111.908 18.6014 112.233 18.2521C112.561 17.8987 112.726 17.4529 112.726 16.9147V16.286Z" fill="#0078D7"/>
<path d="M108.048 13.168L106.156 19.4791H105.108L103.808 14.9615C103.758 14.7889 103.725 14.5937 103.709 14.376H103.684C103.672 14.5239 103.629 14.7149 103.555 14.9491L102.144 19.4791H101.133L99.2222 13.168H100.282L101.589 17.9136C101.63 18.0575 101.659 18.2465 101.675 18.4807H101.724C101.737 18.2999 101.774 18.1068 101.835 17.9013L103.29 13.168H104.214L105.521 17.926C105.562 18.078 105.593 18.267 105.613 18.493H105.663C105.671 18.3327 105.706 18.1437 105.768 17.926L107.049 13.168H108.048Z" fill="#0078D7"/>
<path d="M98.7476 19.4158C98.5093 19.5473 98.195 19.613 97.8046 19.613C96.6994 19.613 96.1467 18.9967 96.1467 17.764V14.0291H95.062V13.1663H96.1467V11.6255L97.1575 11.2988V13.1663H98.7476V14.0291H97.1575V17.5853C97.1575 18.0085 97.2294 18.3105 97.3732 18.4913C97.517 18.6721 97.7553 18.7625 98.0882 18.7625C98.3429 18.7625 98.5627 18.6926 98.7476 18.5529V19.4158Z" fill="#0078D7"/>
<path d="M94.9818 11.0231C94.7846 10.9122 94.5606 10.8567 94.31 10.8567C93.6033 10.8567 93.2499 11.3025 93.2499 12.1941V13.1679H94.7291V14.0307H93.2499V19.479H92.2453V14.0307H91.1667V13.1679H92.2453V12.1448C92.2453 11.4833 92.4364 10.9615 92.8185 10.5793C93.2006 10.1931 93.6772 10 94.2484 10C94.5565 10 94.801 10.037 94.9818 10.1109V11.0231Z" fill="#0078D7"/>
<path d="M87.1054 19.6265C86.1727 19.6265 85.427 19.3327 84.8682 18.7452C84.3135 18.1535 84.0361 17.3708 84.0361 16.397C84.0361 15.3369 84.3258 14.509 84.9051 13.9132C85.4845 13.3174 86.2672 13.0195 87.2533 13.0195C88.1943 13.0195 88.9277 13.3092 89.4536 13.8885C89.9836 14.4679 90.2487 15.2712 90.2487 16.2984C90.2487 17.305 89.9631 18.1124 89.392 18.7205C88.825 19.3245 88.0628 19.6265 87.1054 19.6265ZM87.1794 13.8701C86.5302 13.8701 86.0166 14.0919 85.6386 14.5357C85.2606 14.9753 85.0716 15.5834 85.0716 16.36C85.0716 17.1078 85.2626 17.6974 85.6447 18.1288C86.0269 18.5603 86.5384 18.776 87.1794 18.776C87.8327 18.776 88.334 18.5644 88.6832 18.1412C89.0366 17.718 89.2132 17.116 89.2132 16.3353C89.2132 15.5465 89.0366 14.9383 88.6832 14.511C88.334 14.0837 87.8327 13.8701 87.1794 13.8701Z" fill="#0078D7"/>
<path d="M78.7231 19.2505V18.1658C79.2737 18.5726 79.8798 18.776 80.5413 18.776C81.4288 18.776 81.8726 18.4801 81.8726 17.8885C81.8726 17.72 81.8335 17.5783 81.7554 17.4632C81.6815 17.3441 81.5788 17.2393 81.4473 17.1489C81.3199 17.0585 81.1679 16.9784 80.9912 16.9085C80.8186 16.8346 80.6317 16.7586 80.4304 16.6805C80.151 16.5695 79.9044 16.4586 79.6908 16.3477C79.4812 16.2326 79.3045 16.1053 79.1607 15.9656C79.021 15.8217 78.9142 15.6594 78.8402 15.4787C78.7704 15.2979 78.7355 15.0863 78.7355 14.8438C78.7355 14.548 78.8033 14.2871 78.9389 14.0611C79.0744 13.831 79.2552 13.64 79.4812 13.4879C79.7072 13.3318 79.964 13.2147 80.2516 13.1366C80.5433 13.0586 80.8433 13.0195 81.1515 13.0195C81.6979 13.0195 82.1869 13.114 82.6183 13.303V14.3261C82.154 14.0221 81.6199 13.8701 81.0159 13.8701C80.8269 13.8701 80.6563 13.8927 80.5043 13.9379C80.3523 13.9789 80.2208 14.0385 80.1099 14.1166C80.003 14.1947 79.9188 14.2892 79.8572 14.4001C79.7997 14.5069 79.7709 14.6261 79.7709 14.7576C79.7709 14.9219 79.7997 15.0596 79.8572 15.1705C79.9188 15.2814 80.0071 15.38 80.1222 15.4663C80.2372 15.5526 80.3769 15.6307 80.5413 15.7005C80.7056 15.7704 80.8926 15.8464 81.1021 15.9286C81.3815 16.0354 81.6322 16.1463 81.8541 16.2614C82.0759 16.3723 82.2649 16.4997 82.4211 16.6435C82.5772 16.7832 82.6964 16.9455 82.7785 17.1304C82.8648 17.3153 82.908 17.5351 82.908 17.7899C82.908 18.1021 82.8381 18.3733 82.6984 18.6034C82.5628 18.8335 82.38 19.0246 82.1499 19.1766C81.9198 19.3286 81.6548 19.4416 81.3548 19.5156C81.0549 19.5895 80.7406 19.6265 80.4119 19.6265C79.7627 19.6265 79.1998 19.5012 78.7231 19.2505Z" fill="#0078D7"/>
<path d="M73.5954 19.4782H72.5847V18.4058H72.56C72.0916 19.2194 71.3684 19.6261 70.3905 19.6261C69.5975 19.6261 68.9627 19.3447 68.4861 18.7818C68.0136 18.2148 67.7773 17.4443 67.7773 16.4706C67.7773 15.4269 68.0403 14.5908 68.5662 13.9621C69.0922 13.3335 69.7927 13.0192 70.6679 13.0192C71.5349 13.0192 72.1656 13.3602 72.56 14.0422H72.5847V10.1348H73.5954V19.4782ZM72.5847 16.6246V15.694C72.5847 15.1845 72.4162 14.7531 72.0793 14.3997C71.7423 14.0464 71.315 13.8697 70.7973 13.8697C70.181 13.8697 69.6962 14.0957 69.3428 14.5476C68.9894 14.9996 68.8128 15.6241 68.8128 16.4213C68.8128 17.1485 68.9812 17.7237 69.3181 18.147C69.6592 18.5661 70.1153 18.7756 70.6864 18.7756C71.2493 18.7756 71.7054 18.5722 72.0546 18.1654C72.408 17.7587 72.5847 17.2451 72.5847 16.6246Z" fill="#0078D7"/>
<path d="M66.6742 16.5757H62.2182C62.2346 17.2783 62.4236 17.8207 62.7852 18.2028C63.1468 18.5849 63.6439 18.776 64.2767 18.776C64.9875 18.776 65.6408 18.5418 66.2366 18.0734V19.0225C65.6819 19.4252 64.9485 19.6265 64.0363 19.6265C63.1447 19.6265 62.4441 19.3409 61.9346 18.7698C61.4252 18.1946 61.1704 17.3872 61.1704 16.3477C61.1704 15.3657 61.4478 14.5665 62.0024 13.9502C62.5612 13.3297 63.2536 13.0195 64.0795 13.0195C64.9053 13.0195 65.5442 13.2866 65.9962 13.8208C66.4482 14.3549 66.6742 15.0965 66.6742 16.0457V16.5757ZM65.6387 15.719C65.6346 15.1356 65.4929 14.6815 65.2135 14.357C64.9382 14.0324 64.554 13.8701 64.061 13.8701C63.5843 13.8701 63.1796 14.0406 62.8468 14.3816C62.514 14.7226 62.3086 15.1684 62.2305 15.719H65.6387Z" fill="#0078D7"/>
<path d="M59.0627 11.5667C58.8819 11.5667 58.7279 11.505 58.6005 11.3818C58.4731 11.2585 58.4094 11.1024 58.4094 10.9134C58.4094 10.7244 58.4731 10.5682 58.6005 10.445C58.7279 10.3176 58.8819 10.2539 59.0627 10.2539C59.2476 10.2539 59.4038 10.3176 59.5311 10.445C59.6626 10.5682 59.7284 10.7244 59.7284 10.9134C59.7284 11.0942 59.6626 11.2482 59.5311 11.3756C59.4038 11.503 59.2476 11.5667 59.0627 11.5667ZM59.5558 19.4803H58.545V13.1691H59.5558V19.4803Z" fill="#0078D7"/>
<path d="M57.7066 11.0231C57.5094 10.9122 57.2855 10.8567 57.0348 10.8567C56.3281 10.8567 55.9748 11.3025 55.9748 12.1941V13.1679H57.4539V14.0307H55.9748V19.479H54.9702V14.0307H53.8916V13.1679H54.9702V12.1448C54.9702 11.4833 55.1612 10.9615 55.5433 10.5793C55.9255 10.1931 56.4021 10 56.9732 10C57.2814 10 57.5258 10.037 57.7066 10.1109V11.0231Z" fill="#0078D7"/>
<path d="M52.0488 11.5667C51.868 11.5667 51.7139 11.505 51.5866 11.3818C51.4592 11.2585 51.3955 11.1024 51.3955 10.9134C51.3955 10.7244 51.4592 10.5682 51.5866 10.445C51.7139 10.3176 51.868 10.2539 52.0488 10.2539C52.2337 10.2539 52.3898 10.3176 52.5172 10.445C52.6487 10.5682 52.7144 10.7244 52.7144 10.9134C52.7144 11.0942 52.6487 11.2482 52.5172 11.3756C52.3898 11.503 52.2337 11.5667 52.0488 11.5667ZM52.5419 19.4803H51.5311V13.1691H52.5419V19.4803Z" fill="#0078D7"/>
<path d="M50.1812 19.4158C49.9429 19.5473 49.6286 19.613 49.2382 19.613C48.133 19.613 47.5803 18.9967 47.5803 17.764V14.0291H46.4956V13.1663H47.5803V11.6255L48.5911 11.2988V13.1663H50.1812V14.0291H48.5911V17.5853C48.5911 18.0085 48.663 18.3105 48.8068 18.4913C48.9506 18.6721 49.1889 18.7625 49.5217 18.7625C49.7765 18.7625 49.9963 18.6926 50.1812 18.5529V19.4158Z" fill="#0078D7"/>
<path d="M46.1569 14.1907C45.9802 14.0551 45.7255 13.9873 45.3926 13.9873C44.9612 13.9873 44.5996 14.1907 44.3079 14.5974C44.0203 15.0042 43.8765 15.5589 43.8765 16.2615V19.4787H42.8657V13.1676H43.8765V14.468H43.9011C44.045 14.0243 44.2648 13.6791 44.5606 13.4326C44.8564 13.182 45.1872 13.0566 45.5529 13.0566C45.8159 13.0566 46.0172 13.0854 46.1569 13.1429V14.1907Z" fill="#0078D7"/>
<path d="M41.3309 16.5757H36.8749C36.8913 17.2783 37.0803 17.8207 37.4419 18.2028C37.8035 18.5849 38.3007 18.776 38.9334 18.776C39.6442 18.776 40.2975 18.5418 40.8933 18.0734V19.0225C40.3386 19.4252 39.6052 19.6265 38.693 19.6265C37.8014 19.6265 37.1009 19.3409 36.5914 18.7698C36.0819 18.1946 35.8271 17.3872 35.8271 16.3477C35.8271 15.3657 36.1045 14.5665 36.6592 13.9502C37.218 13.3297 37.9103 13.0195 38.7362 13.0195C39.5621 13.0195 40.201 13.2866 40.653 13.8208C41.1049 14.3549 41.3309 15.0965 41.3309 16.0457V16.5757ZM40.2955 15.719C40.2914 15.1356 40.1496 14.6815 39.8702 14.357C39.5949 14.0324 39.2108 13.8701 38.7177 13.8701C38.2411 13.8701 37.8364 14.0406 37.5035 14.3816C37.1707 14.7226 36.9653 15.1684 36.8872 15.719H40.2955Z" fill="#0078D7"/>
<path d="M34.5946 19.1084C33.9413 19.4535 33.1278 19.6261 32.154 19.6261C30.8967 19.6261 29.8901 19.2214 29.134 18.4119C28.378 17.6025 28 16.5404 28 15.2255C28 13.8121 28.4253 12.6699 29.2758 11.7988C30.1263 10.9277 31.2049 10.4922 32.5115 10.4922C33.3497 10.4922 34.0441 10.6134 34.5946 10.8558V11.959C33.9619 11.6057 33.2634 11.429 32.4992 11.429C31.4843 11.429 30.6605 11.768 30.0277 12.4459C29.3991 13.1239 29.0847 14.0299 29.0847 15.1639C29.0847 16.2404 29.3785 17.0992 29.9661 17.7401C30.5577 18.377 31.3322 18.6954 32.2896 18.6954C33.1771 18.6954 33.9455 18.4982 34.5946 18.1038V19.1084Z" fill="#0078D7"/>
</g>
<defs>
<clipPath id="clip0_167_3447">
<rect width="133" height="28" fill="white"/>
</clipPath>
</defs>
</svg>
