<?xml version="1.0" encoding="utf-8"?>
<!-- Generator: Adobe Illustrator 15.1.0, SVG Export Plug-In . SVG Version: 6.00 Build 0)  -->
<!DOCTYPE svg PUBLIC "-//W3C//DTD SVG 1.1//EN" "http://www.w3.org/Graphics/SVG/1.1/DTD/svg11.dtd">
<svg version="1.1" id="Vrstva_1" xmlns="http://www.w3.org/2000/svg" xmlns:xlink="http://www.w3.org/1999/xlink" x="0px" y="0px"
	 width="72px" height="120px" viewBox="0 0 72 120" enable-background="new 0 0 72 120" xml:space="preserve">
<path fill="#B1B3B4" d="M52.786,117.506c0.127-0.028,0.245-0.069,0.358-0.123c0.114-0.054,0.215-0.123,0.303-0.206
	c0.089-0.081,0.156-0.174,0.207-0.277l0.017,0.016c-0.088,0.706-0.233,1.22-0.44,1.547c-0.207,0.324-0.497,0.486-0.866,0.486
	c-0.278,0-0.497-0.08-0.653-0.237c-0.156-0.156-0.246-0.374-0.267-0.652h-0.68c0,0.133,0.023,0.285,0.073,0.452
	c0.048,0.168,0.133,0.324,0.255,0.473c0.122,0.145,0.286,0.271,0.493,0.374c0.209,0.104,0.476,0.153,0.794,0.153
	c0.311,0,0.572-0.061,0.792-0.184c0.219-0.124,0.401-0.285,0.548-0.479c0.147-0.196,0.263-0.413,0.346-0.649
	c0.082-0.237,0.146-0.469,0.188-0.695c0.046-0.228,0.07-0.435,0.082-0.623c0.011-0.188,0.015-0.33,0.015-0.429
	c0-0.145-0.008-0.31-0.02-0.491c-0.013-0.184-0.041-0.366-0.089-0.552c-0.046-0.188-0.11-0.367-0.193-0.546
	c-0.082-0.178-0.194-0.337-0.336-0.476c-0.142-0.138-0.315-0.25-0.522-0.332c-0.205-0.083-0.451-0.124-0.741-0.124
	c-0.288,0-0.54,0.051-0.757,0.149c-0.217,0.102-0.398,0.238-0.546,0.411c-0.147,0.172-0.259,0.371-0.332,0.594
	c-0.076,0.226-0.113,0.462-0.113,0.709c0,0.272,0.042,0.518,0.125,0.734c0.082,0.215,0.199,0.398,0.352,0.548
	c0.151,0.15,0.332,0.265,0.541,0.349c0.209,0.082,0.439,0.124,0.691,0.124C52.536,117.549,52.66,117.533,52.786,117.506
	 M52.149,116.899c-0.13-0.027-0.251-0.08-0.361-0.158c-0.111-0.081-0.202-0.199-0.273-0.354c-0.073-0.154-0.108-0.362-0.108-0.626
	c0-0.364,0.093-0.659,0.286-0.884c0.188-0.225,0.445-0.336,0.764-0.336c0.195,0,0.364,0.031,0.503,0.092
	c0.138,0.063,0.254,0.146,0.341,0.255c0.089,0.108,0.151,0.231,0.193,0.372c0.043,0.14,0.061,0.286,0.061,0.44
	c0,0.268-0.035,0.482-0.111,0.646c-0.074,0.161-0.165,0.288-0.274,0.375c-0.107,0.088-0.224,0.146-0.343,0.174
	c-0.121,0.028-0.227,0.044-0.313,0.044C52.397,116.939,52.277,116.924,52.149,116.899 M48.932,113.931h-0.532
	c-0.057,0.223-0.124,0.398-0.198,0.529c-0.075,0.131-0.169,0.231-0.281,0.302c-0.113,0.07-0.252,0.118-0.412,0.144
	c-0.158,0.025-0.348,0.048-0.57,0.061v0.542h1.266v3.857h0.729V113.931z M44.948,118.323c-0.185,0.385-0.472,0.578-0.863,0.578
	c-0.393,0-0.678-0.193-0.862-0.578c-0.181-0.387-0.274-0.921-0.274-1.602s0.094-1.214,0.274-1.602
	c0.185-0.387,0.47-0.578,0.862-0.578c0.392,0,0.679,0.191,0.863,0.578c0.182,0.388,0.272,0.921,0.272,1.602
	S45.13,117.937,44.948,118.323 M45.875,115.809c-0.05-0.324-0.141-0.624-0.276-0.903c-0.133-0.279-0.319-0.511-0.563-0.696
	c-0.242-0.186-0.56-0.278-0.951-0.278c-0.393,0-0.709,0.093-0.95,0.278c-0.243,0.186-0.434,0.417-0.568,0.696
	c-0.137,0.279-0.229,0.579-0.274,0.903c-0.047,0.326-0.071,0.628-0.071,0.913c0,0.284,0.024,0.587,0.071,0.913
	c0.046,0.323,0.138,0.624,0.274,0.904c0.135,0.276,0.325,0.51,0.568,0.695c0.241,0.185,0.558,0.276,0.95,0.276
	c0.392,0,0.709-0.092,0.951-0.276c0.243-0.186,0.43-0.419,0.563-0.695c0.136-0.28,0.227-0.581,0.276-0.904
	c0.049-0.326,0.074-0.629,0.074-0.913C45.949,116.437,45.924,116.135,45.875,115.809 M38.735,115.879
	c0.006-0.093,0.018-0.215,0.036-0.367c0.017-0.152,0.063-0.3,0.134-0.445c0.072-0.144,0.181-0.266,0.325-0.37
	c0.145-0.103,0.346-0.154,0.604-0.154c0.2,0,0.369,0.031,0.506,0.092c0.136,0.063,0.247,0.14,0.333,0.237
	c0.085,0.094,0.145,0.199,0.181,0.314c0.038,0.117,0.055,0.229,0.055,0.337c0,0.182-0.024,0.332-0.074,0.453
	c-0.049,0.122-0.117,0.229-0.209,0.32c-0.09,0.092-0.195,0.18-0.317,0.257c-0.12,0.077-0.252,0.156-0.397,0.238l-0.717,0.418
	c-0.184,0.108-0.347,0.228-0.499,0.358c-0.153,0.133-0.287,0.285-0.398,0.458c-0.114,0.172-0.204,0.368-0.268,0.586
	c-0.064,0.22-0.102,0.471-0.111,0.754h3.719v-0.643h-2.954c0.006-0.051,0.023-0.115,0.054-0.191
	c0.031-0.079,0.081-0.164,0.147-0.256c0.065-0.094,0.16-0.188,0.276-0.29c0.121-0.101,0.273-0.201,0.458-0.305l0.564-0.311
	c0.2-0.107,0.391-0.218,0.569-0.329c0.176-0.109,0.33-0.235,0.462-0.375c0.133-0.138,0.236-0.298,0.31-0.478
	c0.074-0.182,0.113-0.392,0.113-0.634c0-0.253-0.044-0.479-0.133-0.68c-0.087-0.203-0.208-0.372-0.363-0.512
	c-0.154-0.138-0.335-0.247-0.541-0.32c-0.207-0.075-0.429-0.112-0.665-0.112c-0.098,0-0.212,0.007-0.343,0.024
	c-0.133,0.014-0.269,0.044-0.407,0.088c-0.138,0.044-0.276,0.11-0.408,0.196c-0.136,0.09-0.256,0.204-0.365,0.35
	c-0.107,0.143-0.192,0.32-0.257,0.531c-0.066,0.214-0.099,0.464-0.099,0.759H38.735z M37.792,116.946h-4.297v0.563h4.297V116.946z
	 M32.049,113.931h-0.534c-0.057,0.223-0.123,0.398-0.197,0.529c-0.075,0.131-0.169,0.231-0.282,0.302
	c-0.114,0.07-0.25,0.118-0.41,0.144c-0.16,0.025-0.35,0.048-0.572,0.061v0.542h1.268v3.857h0.727V113.931z M27.829,113.931h-0.534
	c-0.057,0.223-0.122,0.398-0.196,0.529c-0.075,0.131-0.169,0.231-0.284,0.302c-0.112,0.07-0.249,0.118-0.409,0.144
	c-0.16,0.025-0.352,0.048-0.572,0.061v0.542h1.268v3.857h0.727V113.931z M23.843,118.323c-0.183,0.385-0.471,0.578-0.862,0.578
	s-0.679-0.193-0.861-0.578c-0.184-0.387-0.275-0.921-0.275-1.602s0.092-1.214,0.275-1.602c0.182-0.387,0.47-0.578,0.861-0.578
	s0.679,0.191,0.862,0.578c0.184,0.388,0.275,0.921,0.275,1.602S24.027,117.937,23.843,118.323 M24.771,115.809
	c-0.049-0.324-0.141-0.624-0.274-0.903c-0.134-0.279-0.323-0.511-0.564-0.696c-0.243-0.186-0.56-0.278-0.951-0.278
	s-0.709,0.093-0.95,0.278c-0.242,0.186-0.432,0.417-0.569,0.696c-0.136,0.279-0.228,0.579-0.274,0.903
	c-0.046,0.326-0.07,0.628-0.07,0.913c0,0.284,0.023,0.587,0.07,0.913c0.047,0.323,0.139,0.624,0.274,0.904
	c0.137,0.276,0.327,0.51,0.569,0.695c0.241,0.185,0.559,0.276,0.95,0.276s0.708-0.092,0.951-0.276
	c0.242-0.186,0.43-0.419,0.564-0.695c0.133-0.28,0.226-0.581,0.274-0.904c0.048-0.326,0.073-0.629,0.073-0.913
	C24.845,116.437,24.82,116.135,24.771,115.809 M17.632,115.879c0.005-0.093,0.017-0.215,0.035-0.367
	c0.019-0.152,0.064-0.3,0.136-0.445c0.072-0.144,0.181-0.266,0.325-0.37c0.145-0.103,0.344-0.154,0.603-0.154
	c0.201,0,0.37,0.031,0.505,0.092c0.137,0.063,0.249,0.14,0.334,0.237c0.085,0.094,0.145,0.199,0.181,0.314
	c0.037,0.117,0.055,0.229,0.055,0.337c0,0.182-0.024,0.332-0.073,0.453c-0.049,0.122-0.119,0.229-0.209,0.32
	c-0.09,0.092-0.196,0.18-0.317,0.257s-0.254,0.156-0.398,0.238l-0.72,0.418c-0.179,0.108-0.346,0.228-0.498,0.358
	c-0.152,0.133-0.285,0.285-0.397,0.458c-0.114,0.172-0.203,0.368-0.268,0.586c-0.064,0.22-0.102,0.471-0.111,0.754h3.718v-0.643
	h-2.953c0.005-0.051,0.022-0.115,0.053-0.191c0.032-0.079,0.081-0.164,0.147-0.256c0.067-0.094,0.16-0.188,0.279-0.29
	c0.117-0.101,0.27-0.201,0.455-0.305l0.564-0.311c0.201-0.107,0.39-0.218,0.568-0.329c0.177-0.109,0.333-0.235,0.464-0.375
	c0.13-0.138,0.233-0.298,0.309-0.478c0.074-0.182,0.112-0.392,0.112-0.634c0-0.253-0.043-0.479-0.131-0.68
	c-0.089-0.203-0.209-0.372-0.363-0.512c-0.155-0.138-0.337-0.247-0.542-0.32c-0.206-0.075-0.427-0.112-0.664-0.112
	c-0.098,0-0.212,0.007-0.344,0.024c-0.131,0.014-0.267,0.044-0.405,0.088c-0.14,0.044-0.276,0.11-0.411,0.196
	c-0.133,0.09-0.253,0.204-0.362,0.35c-0.108,0.143-0.194,0.32-0.259,0.531c-0.064,0.214-0.096,0.464-0.096,0.759H17.632z"/>
<path fill="#B1B3B4" d="M72,104.655h-0.836l-0.688,1.092h0.519L72,104.655z M71.149,106.288h-0.681v4.042h0.681V106.288z
	 M69.31,107.578c0-0.287-0.045-0.522-0.132-0.708c-0.088-0.183-0.2-0.325-0.341-0.428c-0.139-0.104-0.291-0.175-0.459-0.214
	c-0.168-0.037-0.329-0.058-0.484-0.058c-0.176,0-0.33,0.024-0.464,0.077c-0.132,0.053-0.25,0.115-0.35,0.188
	c-0.102,0.07-0.187,0.146-0.252,0.227c-0.067,0.08-0.118,0.145-0.155,0.196h-0.016v-0.57h-0.641v4.042h0.679v-2.203
	c0-0.272,0.037-0.498,0.113-0.672c0.073-0.174,0.165-0.313,0.273-0.414c0.109-0.101,0.225-0.17,0.348-0.205
	c0.124-0.036,0.234-0.055,0.334-0.055c0.328,0,0.557,0.089,0.68,0.269c0.123,0.177,0.185,0.441,0.185,0.79v2.49h0.682V107.578z
	 M65.428,106.852v-0.563h-0.648v-1.13h-0.682v1.13H63.55v0.563h0.548v2.668c0,0.122,0.013,0.236,0.034,0.342
	c0.025,0.107,0.065,0.198,0.125,0.274c0.06,0.078,0.144,0.139,0.248,0.183c0.106,0.044,0.243,0.065,0.414,0.065
	c0.036,0,0.099-0.007,0.188-0.02c0.091-0.011,0.198-0.024,0.32-0.034v-0.533h-0.239c-0.035,0-0.077-0.001-0.124-0.006
	c-0.046-0.002-0.092-0.012-0.135-0.033c-0.043-0.02-0.08-0.053-0.109-0.096c-0.026-0.045-0.041-0.105-0.041-0.183v-2.628H65.428z
	 M63.017,107.578c0-0.287-0.045-0.522-0.132-0.708c-0.087-0.183-0.2-0.325-0.34-0.428c-0.139-0.104-0.292-0.175-0.459-0.214
	c-0.169-0.037-0.33-0.058-0.486-0.058c-0.173,0-0.328,0.024-0.461,0.077c-0.135,0.053-0.252,0.115-0.353,0.188
	c-0.1,0.07-0.185,0.146-0.252,0.227c-0.066,0.08-0.117,0.145-0.154,0.196h-0.015v-0.57h-0.642v4.042h0.681v-2.203
	c0-0.272,0.037-0.498,0.112-0.672c0.074-0.174,0.165-0.313,0.273-0.414c0.108-0.101,0.226-0.17,0.349-0.205
	c0.124-0.036,0.232-0.055,0.332-0.055c0.329,0,0.557,0.089,0.68,0.269c0.124,0.177,0.186,0.441,0.186,0.79v2.49h0.681V107.578z
	 M58.254,109.062c-0.006,0.079-0.032,0.163-0.081,0.252c-0.048,0.09-0.117,0.176-0.207,0.26c-0.092,0.083-0.2,0.15-0.326,0.204
	c-0.125,0.054-0.27,0.081-0.429,0.081c-0.391,0-0.685-0.115-0.883-0.347c-0.194-0.232-0.29-0.561-0.29-0.983h2.95
	c0-0.355-0.034-0.678-0.107-0.97c-0.072-0.291-0.181-0.539-0.325-0.746c-0.144-0.205-0.324-0.363-0.541-0.477
	c-0.216-0.108-0.472-0.165-0.765-0.165c-0.335,0-0.627,0.058-0.87,0.175c-0.244,0.114-0.446,0.275-0.604,0.479
	s-0.272,0.442-0.352,0.716c-0.076,0.271-0.114,0.566-0.114,0.88c0,0.294,0.041,0.565,0.123,0.812c0.082,0.248,0.2,0.462,0.354,0.642
	c0.155,0.183,0.346,0.323,0.569,0.422c0.224,0.101,0.479,0.151,0.761,0.151c0.16,0,0.299-0.008,0.418-0.026
	c0.118-0.02,0.221-0.041,0.304-0.065c0.086-0.026,0.157-0.056,0.218-0.089c0.059-0.034,0.111-0.065,0.158-0.099
	c0.129-0.083,0.236-0.177,0.325-0.283c0.086-0.111,0.159-0.217,0.216-0.323c0.058-0.105,0.099-0.203,0.129-0.294
	c0.026-0.089,0.043-0.158,0.049-0.205H58.254z M56.038,107.988c0-0.154,0.027-0.305,0.087-0.453c0.061-0.147,0.14-0.274,0.239-0.386
	c0.1-0.11,0.219-0.199,0.356-0.268c0.136-0.066,0.281-0.101,0.436-0.101c0.207,0,0.38,0.034,0.519,0.101
	c0.14,0.068,0.252,0.157,0.34,0.268c0.089,0.111,0.151,0.238,0.194,0.386c0.039,0.148,0.066,0.299,0.077,0.453H56.038z
	 M54.56,104.781h-0.681v5.549h0.681V104.781z M52.396,109.062c-0.005,0.079-0.032,0.163-0.081,0.252
	c-0.05,0.09-0.119,0.176-0.211,0.26c-0.088,0.083-0.195,0.15-0.323,0.204c-0.126,0.054-0.269,0.081-0.429,0.081
	c-0.393,0-0.687-0.115-0.881-0.347c-0.197-0.232-0.294-0.561-0.294-0.983h2.953c0-0.355-0.037-0.678-0.109-0.97
	c-0.071-0.291-0.181-0.539-0.323-0.746c-0.146-0.205-0.325-0.363-0.541-0.477c-0.218-0.108-0.471-0.165-0.766-0.165
	c-0.335,0-0.625,0.058-0.869,0.175c-0.246,0.114-0.446,0.275-0.604,0.479s-0.275,0.442-0.352,0.716
	c-0.078,0.271-0.115,0.566-0.115,0.88c0,0.294,0.039,0.565,0.121,0.812c0.084,0.248,0.203,0.462,0.357,0.642
	c0.154,0.183,0.342,0.323,0.567,0.422c0.224,0.101,0.479,0.151,0.761,0.151c0.159,0,0.299-0.008,0.418-0.026
	c0.119-0.02,0.221-0.041,0.306-0.065c0.086-0.026,0.158-0.056,0.216-0.089c0.059-0.034,0.113-0.065,0.16-0.099
	c0.128-0.083,0.237-0.177,0.323-0.283c0.088-0.111,0.159-0.217,0.218-0.323c0.056-0.105,0.099-0.203,0.126-0.294
	c0.029-0.089,0.047-0.158,0.051-0.205H52.396z M50.177,107.988c0-0.154,0.029-0.305,0.088-0.453c0.06-0.147,0.14-0.274,0.239-0.386
	c0.102-0.11,0.219-0.199,0.357-0.268c0.136-0.066,0.283-0.101,0.438-0.101c0.203,0,0.377,0.034,0.516,0.101
	c0.14,0.068,0.254,0.157,0.342,0.268c0.087,0.111,0.152,0.238,0.191,0.386c0.043,0.148,0.067,0.299,0.078,0.453H50.177z
	 M49.04,107.648c-0.015-0.176-0.053-0.35-0.111-0.526c-0.061-0.177-0.15-0.334-0.273-0.477c-0.118-0.141-0.271-0.255-0.459-0.342
	c-0.184-0.088-0.408-0.133-0.672-0.133c-0.334,0-0.626,0.058-0.868,0.175c-0.246,0.114-0.448,0.275-0.605,0.479
	c-0.156,0.203-0.273,0.442-0.351,0.716c-0.077,0.271-0.115,0.566-0.115,0.88c0,0.294,0.042,0.565,0.123,0.812
	c0.084,0.248,0.2,0.462,0.355,0.642c0.155,0.183,0.345,0.323,0.569,0.422c0.225,0.101,0.478,0.151,0.762,0.151
	c0.292,0,0.543-0.051,0.743-0.151c0.205-0.099,0.37-0.229,0.497-0.383c0.126-0.154,0.221-0.321,0.285-0.503
	c0.064-0.18,0.105-0.349,0.12-0.508h-0.656c-0.058,0.309-0.176,0.546-0.353,0.71c-0.178,0.166-0.382,0.247-0.613,0.247
	c-0.233,0-0.42-0.046-0.565-0.144c-0.145-0.095-0.258-0.219-0.337-0.371c-0.08-0.152-0.134-0.318-0.161-0.501
	c-0.028-0.183-0.043-0.363-0.043-0.538c0-0.18,0.018-0.361,0.054-0.541c0.036-0.182,0.099-0.344,0.186-0.491
	c0.089-0.146,0.2-0.265,0.344-0.355c0.144-0.088,0.318-0.136,0.53-0.136c0.289,0,0.511,0.076,0.665,0.229s0.253,0.365,0.294,0.639
	H49.04z M43.931,108.251l1.368-1.963h-0.834l-0.937,1.421l-0.934-1.421H41.72l1.352,1.963l-1.421,2.079h0.857l0.975-1.522
	l1.005,1.522h0.866L43.931,108.251z M40.831,109.062c-0.005,0.079-0.033,0.163-0.082,0.252c-0.048,0.09-0.118,0.176-0.21,0.26
	c-0.088,0.083-0.195,0.15-0.322,0.204c-0.129,0.054-0.27,0.081-0.431,0.081c-0.393,0-0.686-0.115-0.881-0.347
	c-0.195-0.232-0.293-0.561-0.293-0.983h2.953c0-0.355-0.037-0.678-0.11-0.97c-0.071-0.291-0.178-0.539-0.322-0.746
	c-0.146-0.205-0.325-0.363-0.541-0.477c-0.217-0.108-0.472-0.165-0.766-0.165c-0.335,0-0.626,0.058-0.869,0.175
	c-0.247,0.114-0.447,0.275-0.604,0.479s-0.273,0.442-0.352,0.716c-0.076,0.271-0.116,0.566-0.116,0.88
	c0,0.294,0.042,0.565,0.125,0.812c0.08,0.248,0.2,0.462,0.354,0.642c0.155,0.183,0.343,0.323,0.568,0.422
	c0.226,0.101,0.479,0.151,0.762,0.151c0.158,0,0.3-0.008,0.417-0.026c0.119-0.02,0.221-0.041,0.306-0.065
	c0.086-0.026,0.157-0.056,0.216-0.089c0.059-0.034,0.113-0.065,0.16-0.099c0.127-0.083,0.236-0.177,0.324-0.283
	c0.088-0.111,0.16-0.217,0.216-0.323c0.056-0.105,0.1-0.203,0.127-0.294c0.029-0.089,0.045-0.158,0.05-0.205H40.831z
	 M38.612,107.988c0-0.154,0.029-0.305,0.088-0.453c0.06-0.147,0.14-0.274,0.239-0.386c0.102-0.11,0.22-0.199,0.356-0.268
	c0.138-0.066,0.283-0.101,0.438-0.101c0.205,0,0.378,0.034,0.519,0.101c0.138,0.068,0.251,0.157,0.34,0.268
	c0.087,0.111,0.152,0.238,0.191,0.386c0.043,0.148,0.067,0.299,0.077,0.453H38.612z M34.113,108.714l0.549,1.616h0.819l-2.009-5.549
	h-0.851l-2.087,5.549h0.772l0.581-1.616H34.113z M32.119,108.051l0.889-2.443h0.016l0.819,2.443H32.119z M29.034,108.714
	l0.549,1.616h0.82l-2.011-5.549h-0.851l-2.086,5.549h0.773l0.58-1.616H29.034z M27.04,108.051l0.89-2.443h0.015l0.82,2.443H27.04z
	 M23.957,108.714l0.548,1.616h0.819l-2.009-5.549h-0.85l-2.088,5.549h0.773l0.58-1.616H23.957z M21.961,108.051l0.89-2.443h0.015
	l0.819,2.443H21.961z M15.012,107.84c0.015-0.173,0.06-0.341,0.136-0.499c0.074-0.156,0.186-0.287,0.333-0.397
	c0.146-0.107,0.351-0.162,0.614-0.162c0.248,0,0.444,0.06,0.588,0.175c0.144,0.116,0.254,0.262,0.329,0.437
	c0.074,0.175,0.122,0.363,0.142,0.56c0.021,0.199,0.032,0.38,0.032,0.546c0,0.268-0.038,0.49-0.112,0.664
	c-0.076,0.175-0.168,0.315-0.278,0.419c-0.111,0.103-0.232,0.174-0.359,0.216c-0.128,0.041-0.247,0.062-0.355,0.062
	c-0.187,0-0.348-0.039-0.484-0.12c-0.136-0.078-0.25-0.189-0.341-0.329c-0.089-0.138-0.157-0.303-0.201-0.494
	c-0.043-0.189-0.065-0.396-0.065-0.618C14.989,108.168,14.996,108.016,15.012,107.84 M17.834,106.288h-0.642v0.594
	c-0.042-0.061-0.096-0.132-0.158-0.216c-0.065-0.081-0.146-0.16-0.24-0.23c-0.096-0.072-0.209-0.135-0.344-0.188
	c-0.134-0.053-0.293-0.077-0.479-0.077c-0.268,0-0.506,0.053-0.715,0.156c-0.208,0.103-0.385,0.244-0.529,0.429
	c-0.145,0.183-0.254,0.396-0.329,0.64c-0.075,0.245-0.112,0.511-0.112,0.794c0,0.242,0.029,0.496,0.085,0.761
	s0.153,0.509,0.291,0.731c0.136,0.221,0.317,0.402,0.544,0.548c0.227,0.146,0.513,0.217,0.858,0.217
	c0.273,0,0.498-0.056,0.677-0.162c0.177-0.108,0.315-0.243,0.412-0.411v0.226c0,0.124-0.007,0.264-0.023,0.42
	c-0.015,0.158-0.059,0.309-0.13,0.449c-0.073,0.143-0.186,0.26-0.34,0.355s-0.374,0.143-0.658,0.143
	c-0.041,0-0.105-0.003-0.192-0.012c-0.088-0.007-0.182-0.029-0.278-0.07c-0.099-0.036-0.188-0.101-0.271-0.188
	c-0.083-0.088-0.139-0.213-0.17-0.372h-0.68c0.031,0.268,0.106,0.482,0.228,0.642c0.121,0.159,0.259,0.281,0.413,0.363
	c0.155,0.083,0.314,0.138,0.48,0.162c0.164,0.026,0.305,0.04,0.424,0.04c0.31,0,0.572-0.038,0.789-0.113
	c0.216-0.073,0.394-0.17,0.533-0.285c0.14-0.116,0.246-0.249,0.32-0.398c0.075-0.15,0.132-0.3,0.167-0.452s0.056-0.298,0.061-0.432
	c0.006-0.138,0.009-0.255,0.009-0.354V106.288z M13.551,107.578c0-0.287-0.044-0.522-0.132-0.708
	c-0.086-0.183-0.2-0.325-0.339-0.428c-0.139-0.104-0.292-0.175-0.461-0.214c-0.167-0.037-0.328-0.058-0.482-0.058
	c-0.175,0-0.331,0.024-0.463,0.077c-0.134,0.053-0.252,0.115-0.353,0.188c-0.101,0.07-0.183,0.146-0.25,0.227
	s-0.119,0.145-0.155,0.196h-0.016v-0.57h-0.642v4.042h0.68v-2.203c0-0.272,0.037-0.498,0.112-0.672
	c0.074-0.174,0.166-0.313,0.273-0.414c0.109-0.101,0.225-0.17,0.349-0.205c0.124-0.036,0.234-0.055,0.332-0.055
	c0.331,0,0.558,0.089,0.681,0.269c0.123,0.177,0.186,0.441,0.186,0.79v2.49h0.68V107.578z M9.315,106.288H8.635v4.042h0.681V106.288
	z M9.315,104.781H8.635v0.772h0.681V104.781z M8.032,106.852v-0.563h-0.65v-1.13h-0.68v1.13H6.152v0.563h0.549v2.668
	c0,0.122,0.012,0.236,0.035,0.342c0.022,0.107,0.064,0.198,0.124,0.274c0.06,0.078,0.141,0.139,0.247,0.183
	c0.107,0.044,0.245,0.065,0.414,0.065c0.036,0,0.1-0.007,0.189-0.02c0.09-0.011,0.197-0.024,0.321-0.034v-0.533h-0.24
	c-0.036,0-0.078-0.001-0.123-0.006c-0.047-0.002-0.092-0.012-0.136-0.033c-0.044-0.02-0.08-0.053-0.108-0.096
	c-0.029-0.045-0.043-0.105-0.043-0.183v-2.628H8.032z M2.929,107.517c0.011-0.076,0.028-0.16,0.055-0.252
	c0.025-0.09,0.071-0.174,0.136-0.255c0.063-0.081,0.153-0.146,0.27-0.197c0.116-0.05,0.272-0.078,0.467-0.078
	c0.635,0,0.951,0.221,0.951,0.658c0,0.104-0.01,0.186-0.031,0.244s-0.05,0.106-0.085,0.138c-0.036,0.034-0.074,0.06-0.116,0.07
	c-0.042,0.013-0.082,0.022-0.125,0.027l-1.12,0.139c-0.284,0.038-0.506,0.105-0.669,0.209c-0.162,0.103-0.285,0.221-0.367,0.348
	c-0.083,0.129-0.136,0.26-0.158,0.39c-0.023,0.132-0.035,0.24-0.035,0.322c0,0.175,0.031,0.333,0.092,0.475
	c0.062,0.144,0.15,0.265,0.262,0.367c0.114,0.104,0.249,0.184,0.403,0.24c0.155,0.057,0.324,0.085,0.51,0.085
	c0.196,0,0.37-0.02,0.522-0.063c0.152-0.041,0.288-0.094,0.406-0.159c0.118-0.063,0.22-0.134,0.305-0.212
	c0.085-0.076,0.161-0.152,0.228-0.224c0.006,0.077,0.018,0.152,0.039,0.228c0.022,0.074,0.056,0.142,0.105,0.197
	c0.048,0.058,0.119,0.104,0.212,0.141c0.092,0.034,0.213,0.053,0.363,0.053c0.077,0,0.144-0.009,0.2-0.028
	c0.058-0.017,0.114-0.032,0.17-0.049v-0.494c-0.041,0.011-0.082,0.018-0.121,0.022c-0.038,0.006-0.072,0.008-0.104,0.008
	c-0.149,0-0.224-0.079-0.224-0.239v-2.326c0-0.17-0.03-0.317-0.089-0.442c-0.059-0.124-0.135-0.227-0.228-0.313
	c-0.092-0.085-0.196-0.15-0.309-0.199c-0.113-0.048-0.227-0.087-0.34-0.112c-0.114-0.025-0.218-0.042-0.313-0.052
	c-0.096-0.007-0.169-0.011-0.221-0.011c-0.247,0-0.472,0.024-0.676,0.074c-0.204,0.05-0.377,0.127-0.522,0.236
	c-0.145,0.108-0.257,0.246-0.34,0.418c-0.083,0.169-0.126,0.374-0.131,0.617H2.929z M4.792,108.932c0,0.134-0.036,0.258-0.108,0.374
	c-0.072,0.116-0.166,0.216-0.282,0.302s-0.25,0.152-0.398,0.201c-0.15,0.048-0.305,0.075-0.464,0.075
	c-0.258,0-0.445-0.063-0.561-0.188c-0.116-0.123-0.174-0.296-0.174-0.519c0-0.127,0.029-0.232,0.089-0.313
	c0.059-0.081,0.132-0.142,0.22-0.188c0.087-0.048,0.182-0.082,0.283-0.106c0.1-0.022,0.192-0.04,0.274-0.05
	c0.212-0.025,0.382-0.052,0.515-0.073c0.132-0.021,0.238-0.045,0.321-0.063c0.082-0.018,0.144-0.036,0.185-0.059
	c0.042-0.02,0.075-0.039,0.101-0.062V108.932z M0.68,107.981c0-0.146,0.024-0.283,0.073-0.415c0.049-0.131,0.119-0.247,0.208-0.348
	c0.09-0.102,0.199-0.18,0.325-0.235c0.126-0.057,0.269-0.084,0.43-0.084h0.254v-0.706c-0.025-0.01-0.052-0.017-0.077-0.019
	c-0.026-0.003-0.06-0.004-0.101-0.004c-0.258,0-0.477,0.071-0.661,0.217c-0.182,0.146-0.341,0.335-0.475,0.571H0.642v-0.671H0v4.042
	h0.68V107.981z"/>
<path fill="#B1B3B4" d="M63.399,100.253c-0.184,0.387-0.471,0.579-0.862,0.579c-0.393,0-0.679-0.192-0.862-0.579
	c-0.183-0.388-0.273-0.92-0.273-1.603c0-0.679,0.091-1.213,0.273-1.6c0.184-0.387,0.47-0.578,0.862-0.578
	c0.392,0,0.679,0.191,0.862,0.578c0.183,0.387,0.273,0.921,0.273,1.6C63.673,99.333,63.582,99.865,63.399,100.253 M64.327,97.739
	c-0.05-0.324-0.141-0.624-0.274-0.904c-0.136-0.277-0.322-0.509-0.565-0.696c-0.242-0.185-0.559-0.279-0.95-0.279
	c-0.393,0-0.709,0.095-0.95,0.279c-0.242,0.188-0.432,0.419-0.569,0.696c-0.136,0.28-0.228,0.58-0.274,0.904
	c-0.046,0.323-0.069,0.628-0.069,0.911c0,0.285,0.023,0.589,0.069,0.915c0.047,0.323,0.139,0.624,0.274,0.904
	c0.138,0.276,0.327,0.507,0.569,0.695c0.241,0.185,0.558,0.276,0.95,0.276c0.392,0,0.708-0.092,0.95-0.276
	c0.243-0.188,0.43-0.419,0.565-0.695c0.134-0.28,0.225-0.581,0.274-0.904c0.049-0.326,0.073-0.63,0.073-0.915
	C64.4,98.367,64.376,98.063,64.327,97.739 M59.179,100.253c-0.185,0.387-0.472,0.579-0.863,0.579c-0.391,0-0.679-0.192-0.86-0.579
	c-0.183-0.388-0.274-0.92-0.274-1.603c0-0.679,0.092-1.213,0.274-1.6c0.182-0.387,0.47-0.578,0.86-0.578
	c0.392,0,0.679,0.191,0.863,0.578c0.183,0.387,0.273,0.921,0.273,1.6C59.452,99.333,59.361,99.865,59.179,100.253 M60.106,97.739
	c-0.049-0.324-0.141-0.624-0.275-0.904c-0.135-0.277-0.322-0.509-0.563-0.696c-0.242-0.185-0.561-0.279-0.952-0.279
	c-0.391,0-0.708,0.095-0.949,0.279c-0.242,0.188-0.433,0.419-0.568,0.696c-0.137,0.28-0.229,0.58-0.275,0.904
	c-0.047,0.323-0.068,0.628-0.068,0.911c0,0.285,0.021,0.589,0.068,0.915c0.047,0.323,0.139,0.624,0.275,0.904
	c0.136,0.276,0.326,0.507,0.568,0.695c0.241,0.185,0.559,0.276,0.949,0.276c0.392,0,0.71-0.092,0.952-0.276
	c0.241-0.188,0.429-0.419,0.563-0.695c0.135-0.28,0.227-0.581,0.275-0.904c0.048-0.326,0.073-0.63,0.073-0.915
	C60.18,98.367,60.154,98.063,60.106,97.739 M54.72,95.859h-0.532c-0.056,0.222-0.122,0.399-0.196,0.531
	c-0.073,0.131-0.17,0.231-0.283,0.301c-0.112,0.069-0.249,0.118-0.408,0.144c-0.16,0.026-0.352,0.046-0.573,0.062v0.541h1.269v3.857
	h0.725V95.859z M46.21,96.386h1.523c0.154,0,0.3,0.018,0.434,0.047c0.134,0.03,0.251,0.082,0.346,0.154
	c0.1,0.073,0.177,0.168,0.233,0.287c0.057,0.118,0.086,0.265,0.086,0.439c0,0.187-0.027,0.343-0.083,0.472
	c-0.053,0.13-0.13,0.234-0.231,0.311c-0.1,0.078-0.218,0.131-0.355,0.166c-0.136,0.033-0.29,0.05-0.459,0.05H46.21V96.386z
	 M46.21,98.954h1.749c0.297,0,0.552-0.051,0.764-0.148c0.213-0.097,0.382-0.228,0.512-0.386c0.126-0.159,0.224-0.336,0.281-0.53
	c0.059-0.193,0.089-0.388,0.089-0.583c0-0.223-0.037-0.428-0.111-0.619c-0.076-0.189-0.183-0.354-0.326-0.493
	c-0.141-0.14-0.313-0.249-0.518-0.328c-0.204-0.082-0.435-0.121-0.69-0.121h-2.497v5.55h0.748V98.954z M43.667,99.422
	c-0.086,0.275-0.215,0.514-0.382,0.714c-0.168,0.2-0.371,0.358-0.611,0.471c-0.238,0.115-0.509,0.172-0.808,0.172
	c-0.303,0-0.574-0.057-0.812-0.172c-0.235-0.112-0.44-0.271-0.607-0.471s-0.295-0.438-0.383-0.714
	c-0.087-0.276-0.132-0.578-0.132-0.902s0.045-0.624,0.132-0.899c0.088-0.275,0.216-0.515,0.383-0.716s0.372-0.358,0.607-0.472
	c0.237-0.112,0.509-0.169,0.812-0.169c0.299,0,0.569,0.057,0.808,0.169c0.24,0.113,0.443,0.271,0.611,0.472
	c0.167,0.201,0.296,0.44,0.382,0.716c0.087,0.275,0.133,0.575,0.133,0.899S43.754,99.146,43.667,99.422 M44.516,97.885
	c-0.04-0.22-0.102-0.439-0.188-0.656c-0.085-0.215-0.194-0.421-0.333-0.618c-0.136-0.195-0.306-0.37-0.505-0.521
	c-0.201-0.154-0.436-0.273-0.704-0.359c-0.267-0.088-0.573-0.133-0.92-0.133c-0.345,0-0.651,0.045-0.92,0.133
	c-0.268,0.086-0.502,0.205-0.703,0.359c-0.201,0.15-0.37,0.325-0.507,0.521c-0.136,0.197-0.247,0.403-0.333,0.618
	c-0.085,0.217-0.146,0.437-0.185,0.656c-0.039,0.224-0.06,0.435-0.06,0.635c0,0.202,0.021,0.413,0.06,0.634
	c0.039,0.222,0.1,0.441,0.185,0.657c0.086,0.218,0.197,0.425,0.333,0.618c0.137,0.197,0.306,0.37,0.507,0.522
	s0.436,0.271,0.703,0.361c0.269,0.087,0.575,0.129,0.92,0.129c0.347,0,0.653-0.042,0.92-0.129c0.269-0.09,0.503-0.209,0.704-0.361
	c0.199-0.152,0.369-0.325,0.505-0.522c0.139-0.193,0.248-0.4,0.333-0.618c0.086-0.216,0.147-0.436,0.188-0.657
	c0.037-0.221,0.056-0.432,0.056-0.634C44.571,98.319,44.553,98.108,44.516,97.885 M34.63,96.41h1.878v4.885h0.751V96.41h1.879
	v-0.665H34.63V96.41z M31.578,98.041h-2.899v-2.296h-0.75v5.55h0.75v-2.589h2.899v2.589h0.749v-5.55h-0.749V98.041z M27.04,97.415
	c-0.027-0.232-0.093-0.457-0.201-0.677c-0.108-0.219-0.256-0.412-0.445-0.58c-0.188-0.167-0.419-0.303-0.691-0.406
	c-0.273-0.102-0.588-0.154-0.944-0.154c-0.401,0-0.763,0.071-1.084,0.214c-0.323,0.142-0.595,0.339-0.816,0.595
	c-0.222,0.255-0.392,0.559-0.511,0.912c-0.119,0.354-0.178,0.742-0.178,1.172c0,0.536,0.071,0.991,0.212,1.364
	c0.142,0.373,0.33,0.678,0.565,0.911c0.233,0.235,0.501,0.406,0.8,0.514c0.298,0.109,0.605,0.162,0.919,0.162
	c0.067,0,0.166-0.004,0.301-0.015c0.134-0.01,0.282-0.038,0.445-0.086c0.162-0.046,0.331-0.114,0.506-0.209
	c0.175-0.092,0.341-0.218,0.499-0.382c0.157-0.162,0.296-0.363,0.417-0.607c0.121-0.242,0.208-0.538,0.259-0.888h-0.728
	c-0.062,0.323-0.157,0.586-0.286,0.784c-0.128,0.2-0.269,0.354-0.421,0.46c-0.152,0.107-0.306,0.181-0.459,0.22
	c-0.154,0.039-0.294,0.06-0.417,0.06c-0.345,0-0.635-0.062-0.871-0.179c-0.234-0.118-0.423-0.28-0.566-0.487
	c-0.145-0.206-0.249-0.449-0.31-0.735c-0.062-0.281-0.093-0.586-0.093-0.911c0-0.364,0.047-0.686,0.144-0.963
	c0.094-0.276,0.225-0.505,0.39-0.688c0.165-0.182,0.357-0.319,0.576-0.411c0.22-0.095,0.456-0.14,0.707-0.14
	c0.135,0,0.281,0.012,0.442,0.041c0.159,0.03,0.313,0.085,0.459,0.168c0.147,0.08,0.279,0.199,0.397,0.351
	c0.12,0.152,0.205,0.351,0.256,0.592H27.04z M21.513,100.631h-3.348v-1.854h3.039V98.11h-3.039v-1.7h3.293v-0.665h-4.042v5.55h4.097
	V100.631z M16.651,100.631h-3.417l3.417-4.237v-0.648h-4.113v0.665h3.146l-3.401,4.26v0.625h4.368V100.631z M11.811,97.415
	c-0.026-0.232-0.092-0.457-0.201-0.677c-0.108-0.219-0.256-0.412-0.444-0.58c-0.188-0.167-0.419-0.303-0.693-0.406
	c-0.273-0.102-0.587-0.154-0.942-0.154c-0.403,0-0.765,0.071-1.087,0.214c-0.322,0.142-0.593,0.339-0.814,0.595
	c-0.223,0.255-0.393,0.559-0.51,0.912c-0.119,0.354-0.178,0.742-0.178,1.172c0,0.536,0.071,0.991,0.213,1.364
	c0.141,0.373,0.329,0.678,0.563,0.911c0.235,0.235,0.501,0.406,0.799,0.514c0.299,0.109,0.606,0.162,0.92,0.162
	c0.068,0,0.169-0.004,0.303-0.015c0.133-0.01,0.282-0.038,0.444-0.086c0.163-0.046,0.331-0.114,0.506-0.209
	c0.175-0.092,0.342-0.218,0.499-0.382c0.157-0.162,0.296-0.363,0.417-0.607c0.122-0.242,0.207-0.538,0.259-0.888h-0.727
	c-0.061,0.323-0.157,0.586-0.286,0.784c-0.129,0.2-0.27,0.354-0.422,0.46c-0.151,0.107-0.305,0.181-0.459,0.22
	c-0.154,0.039-0.293,0.06-0.417,0.06c-0.346,0-0.635-0.062-0.869-0.179c-0.235-0.118-0.424-0.28-0.568-0.487
	c-0.145-0.206-0.248-0.449-0.31-0.735c-0.062-0.281-0.093-0.586-0.093-0.911c0-0.364,0.048-0.686,0.143-0.963
	c0.096-0.276,0.226-0.505,0.391-0.688c0.165-0.182,0.357-0.319,0.575-0.411c0.219-0.095,0.456-0.14,0.708-0.14
	c0.133,0,0.281,0.012,0.439,0.041c0.16,0.03,0.314,0.085,0.459,0.168c0.148,0.08,0.281,0.199,0.399,0.351
	c0.118,0.152,0.204,0.351,0.255,0.592H11.811z"/>
<path fill="#B1B3B4" d="M50.137,86.585h-0.834l-0.688,1.092h0.516L50.137,86.585z M49.286,88.218h-0.679v4.042h0.679V88.218z
	 M47.447,89.51c0-0.29-0.043-0.525-0.131-0.709c-0.086-0.182-0.201-0.326-0.34-0.429c-0.141-0.104-0.293-0.176-0.461-0.212
	c-0.166-0.04-0.328-0.06-0.482-0.06c-0.175,0-0.329,0.025-0.464,0.077c-0.134,0.053-0.251,0.116-0.353,0.188
	c-0.1,0.071-0.184,0.147-0.251,0.229c-0.066,0.079-0.118,0.144-0.154,0.195h-0.016v-0.571h-0.643v4.042h0.682v-2.202
	c0-0.272,0.039-0.498,0.112-0.673c0.074-0.174,0.166-0.313,0.274-0.413c0.108-0.102,0.224-0.171,0.348-0.205
	c0.124-0.037,0.234-0.055,0.332-0.055c0.331,0,0.557,0.089,0.68,0.267c0.126,0.179,0.188,0.442,0.188,0.792v2.489h0.679V89.51z
	 M41.126,86.585h-0.611l0.766,1.092h0.703l0.765-1.092h-0.617l-0.505,0.72L41.126,86.585z M42.685,90.992
	c-0.004,0.078-0.03,0.16-0.08,0.252c-0.049,0.089-0.118,0.176-0.208,0.259c-0.091,0.084-0.198,0.152-0.325,0.205
	c-0.126,0.054-0.269,0.079-0.428,0.079c-0.393,0-0.687-0.113-0.882-0.346c-0.195-0.231-0.295-0.561-0.295-0.982h2.954
	c0-0.355-0.038-0.679-0.109-0.97c-0.07-0.292-0.181-0.541-0.324-0.746c-0.145-0.206-0.325-0.364-0.54-0.477
	c-0.217-0.108-0.471-0.166-0.767-0.166c-0.334,0-0.624,0.06-0.869,0.175c-0.244,0.115-0.446,0.275-0.603,0.479
	c-0.157,0.203-0.276,0.442-0.353,0.715c-0.078,0.273-0.115,0.565-0.115,0.881c0,0.294,0.039,0.565,0.122,0.812
	c0.084,0.247,0.202,0.462,0.357,0.642c0.155,0.182,0.343,0.322,0.567,0.422c0.223,0.1,0.479,0.149,0.761,0.149
	c0.16,0,0.299-0.007,0.418-0.024c0.118-0.02,0.22-0.042,0.307-0.065c0.084-0.028,0.157-0.058,0.216-0.089
	c0.059-0.035,0.112-0.067,0.159-0.1c0.128-0.082,0.236-0.177,0.323-0.283c0.088-0.11,0.159-0.217,0.218-0.323
	c0.057-0.105,0.099-0.203,0.127-0.292c0.029-0.091,0.045-0.159,0.05-0.206H42.685z M40.467,89.918c0-0.153,0.031-0.305,0.089-0.453
	c0.059-0.146,0.14-0.275,0.241-0.386c0.101-0.11,0.217-0.199,0.354-0.267c0.137-0.066,0.284-0.101,0.439-0.101
	c0.205,0,0.377,0.034,0.517,0.101c0.139,0.067,0.253,0.156,0.341,0.267c0.085,0.11,0.152,0.239,0.191,0.386
	c0.042,0.148,0.068,0.3,0.079,0.453H40.467z M39.006,89.51c0-0.29-0.043-0.525-0.131-0.709c-0.088-0.182-0.199-0.326-0.34-0.429
	c-0.142-0.104-0.294-0.176-0.459-0.212c-0.169-0.04-0.329-0.06-0.485-0.06c-0.175,0-0.329,0.025-0.464,0.077
	c-0.134,0.053-0.25,0.116-0.352,0.188c-0.1,0.071-0.184,0.147-0.249,0.229c-0.068,0.079-0.119,0.144-0.156,0.195h-0.016v-0.571
	h-0.641v4.042h0.679v-2.202c0-0.272,0.038-0.498,0.113-0.673c0.074-0.174,0.166-0.313,0.274-0.413
	c0.108-0.102,0.223-0.171,0.347-0.205c0.125-0.037,0.235-0.055,0.333-0.055c0.329,0,0.557,0.089,0.682,0.267
	c0.123,0.179,0.184,0.442,0.184,0.792v2.489h0.681V89.51z M34.244,90.992c-0.004,0.078-0.032,0.16-0.08,0.252
	c-0.049,0.089-0.118,0.176-0.208,0.259c-0.092,0.084-0.2,0.152-0.325,0.205c-0.127,0.054-0.27,0.079-0.429,0.079
	c-0.392,0-0.685-0.113-0.882-0.346c-0.195-0.231-0.294-0.561-0.294-0.982h2.954c0-0.355-0.038-0.679-0.109-0.97
	c-0.071-0.292-0.18-0.541-0.324-0.746c-0.145-0.206-0.325-0.364-0.542-0.477c-0.217-0.108-0.472-0.166-0.766-0.166
	c-0.334,0-0.625,0.06-0.87,0.175c-0.244,0.115-0.445,0.275-0.603,0.479c-0.157,0.203-0.273,0.442-0.351,0.715
	c-0.077,0.273-0.117,0.565-0.117,0.881c0,0.294,0.042,0.565,0.125,0.812c0.083,0.247,0.201,0.462,0.356,0.642
	c0.155,0.182,0.344,0.322,0.568,0.422c0.224,0.1,0.477,0.149,0.761,0.149c0.16,0,0.299-0.007,0.417-0.024
	c0.118-0.02,0.219-0.042,0.305-0.065c0.085-0.028,0.157-0.058,0.217-0.089c0.06-0.035,0.112-0.067,0.158-0.1
	c0.128-0.082,0.237-0.177,0.326-0.283c0.087-0.11,0.159-0.217,0.215-0.323c0.058-0.105,0.1-0.203,0.129-0.292
	c0.027-0.091,0.044-0.159,0.049-0.206H34.244z M32.025,89.918c0-0.153,0.031-0.305,0.089-0.453c0.059-0.146,0.139-0.275,0.24-0.386
	c0.101-0.11,0.219-0.199,0.355-0.267c0.137-0.066,0.282-0.101,0.437-0.101c0.207,0,0.379,0.034,0.519,0.101
	c0.14,0.067,0.252,0.156,0.34,0.267c0.087,0.11,0.152,0.239,0.194,0.386c0.041,0.148,0.065,0.3,0.077,0.453H32.025z M30.89,89.577
	c-0.017-0.174-0.053-0.349-0.113-0.524c-0.059-0.176-0.148-0.335-0.27-0.477c-0.122-0.14-0.275-0.257-0.461-0.344
	c-0.185-0.086-0.409-0.132-0.673-0.132c-0.335,0-0.625,0.06-0.87,0.175c-0.244,0.115-0.445,0.275-0.602,0.479
	c-0.159,0.203-0.275,0.442-0.354,0.715c-0.077,0.273-0.115,0.565-0.115,0.881c0,0.294,0.041,0.565,0.124,0.812
	c0.082,0.247,0.2,0.462,0.355,0.642c0.154,0.182,0.344,0.322,0.568,0.422c0.225,0.1,0.478,0.149,0.761,0.149
	c0.293,0,0.542-0.05,0.746-0.149s0.369-0.229,0.494-0.384c0.127-0.152,0.222-0.32,0.286-0.502c0.065-0.18,0.104-0.35,0.121-0.51
	h-0.658c-0.056,0.31-0.173,0.546-0.351,0.712c-0.178,0.165-0.383,0.245-0.616,0.245c-0.231,0-0.42-0.046-0.563-0.143
	c-0.145-0.094-0.256-0.218-0.336-0.369c-0.079-0.152-0.134-0.321-0.163-0.503c-0.028-0.184-0.042-0.362-0.042-0.538
	c0-0.18,0.019-0.36,0.054-0.541c0.036-0.18,0.097-0.345,0.185-0.491c0.088-0.145,0.203-0.266,0.344-0.354
	c0.142-0.09,0.318-0.137,0.53-0.137c0.289,0,0.51,0.075,0.665,0.228s0.251,0.366,0.293,0.638H30.89z M26.073,90.385
	c-0.087,0.277-0.215,0.516-0.382,0.717c-0.168,0.199-0.371,0.356-0.61,0.471c-0.24,0.112-0.509,0.172-0.809,0.172
	c-0.303,0-0.574-0.06-0.811-0.172c-0.238-0.114-0.44-0.271-0.607-0.471c-0.168-0.201-0.295-0.439-0.382-0.717
	c-0.089-0.274-0.132-0.575-0.132-0.899c0-0.325,0.043-0.625,0.132-0.9c0.087-0.275,0.214-0.514,0.382-0.716
	c0.167-0.201,0.369-0.357,0.607-0.472c0.236-0.113,0.507-0.17,0.811-0.17c0.3,0,0.569,0.057,0.809,0.17
	c0.239,0.114,0.441,0.271,0.61,0.472c0.167,0.202,0.295,0.44,0.382,0.716c0.088,0.275,0.132,0.575,0.132,0.9
	C26.205,89.81,26.161,90.11,26.073,90.385 M26.92,88.851c-0.038-0.222-0.102-0.439-0.186-0.656c-0.085-0.216-0.195-0.422-0.333-0.62
	c-0.136-0.194-0.304-0.368-0.506-0.521c-0.201-0.152-0.435-0.271-0.704-0.357c-0.268-0.089-0.574-0.134-0.92-0.134
	c-0.345,0-0.651,0.045-0.92,0.134c-0.267,0.087-0.502,0.205-0.703,0.357c-0.201,0.152-0.37,0.326-0.505,0.521
	c-0.137,0.198-0.249,0.404-0.334,0.62c-0.084,0.217-0.146,0.435-0.185,0.656c-0.038,0.223-0.059,0.434-0.059,0.635
	c0,0.202,0.021,0.413,0.059,0.633c0.039,0.222,0.101,0.44,0.185,0.657c0.085,0.217,0.197,0.423,0.334,0.618
	c0.135,0.198,0.304,0.37,0.505,0.522c0.201,0.151,0.436,0.273,0.703,0.359c0.269,0.088,0.575,0.132,0.92,0.132
	c0.346,0,0.652-0.044,0.92-0.132c0.269-0.086,0.502-0.208,0.704-0.359c0.202-0.152,0.37-0.324,0.506-0.522
	c0.138-0.195,0.248-0.401,0.333-0.618c0.084-0.217,0.148-0.436,0.186-0.657c0.039-0.22,0.057-0.431,0.057-0.633
	C26.977,89.284,26.959,89.073,26.92,88.851"/>
<path fill="#B1B3B4" d="M48.281,24.554l-1.256,4.008h2.58l-1.268-4.008H48.281z M35.73,24.554l-1.257,4.008h2.58l-1.268-4.008H35.73
	z M23.177,24.554l-1.258,4.008H24.5l-1.267-4.008H23.177z M17.096,33.378l4.423-12.913h1.687v0.008l0.008-0.008H24.9l4.433,12.913
	h-3.316l-0.791-2.509h-4.034l-0.781,2.509H17.096z M29.648,33.378l4.425-12.913h1.685v0.008l0.01-0.008h1.686l4.432,12.913H38.57
	l-0.792-2.509h-4.032l-0.781,2.509H29.648z M42.201,33.378l4.424-12.913h1.685v0.008l0.01-0.008h1.687l4.432,12.913h-3.316
	l-0.79-2.509h-4.034l-0.781,2.509H42.201z M12.965,49.615h45.371V4.247H12.965V49.615z M23.028,53.063h1.063l-1.054,2.234v0.29h1.71
	v-0.449h-1.082l1.059-2.246v-0.279h-1.696V53.063z M25.637,55.137v-0.864h0.911v-0.45h-0.911v-0.761h1.086v-0.45h-1.662v2.974h1.666
	v-0.449H25.637z M27.573,54.542v-0.887c0-0.215,0.036-0.374,0.107-0.479c0.072-0.104,0.181-0.157,0.325-0.157
	c0.158,0,0.271,0.038,0.339,0.115c0.067,0.075,0.101,0.21,0.101,0.401h0.56l0.005-0.013c0.005-0.319-0.079-0.559-0.254-0.717
	c-0.174-0.157-0.423-0.236-0.75-0.236c-0.309,0-0.554,0.094-0.736,0.285c-0.183,0.191-0.272,0.459-0.272,0.806v0.882
	c0,0.347,0.092,0.615,0.281,0.804c0.187,0.188,0.442,0.283,0.761,0.283c0.312,0,0.552-0.079,0.721-0.239
	c0.167-0.158,0.249-0.396,0.243-0.715L29,54.663h-0.557c0,0.193-0.032,0.329-0.095,0.405c-0.063,0.075-0.166,0.112-0.309,0.112
	c-0.157,0-0.273-0.052-0.351-0.156C27.611,54.919,27.573,54.759,27.573,54.542 M35.566,54.913v-1.127h0.299v-0.409h-0.299v-0.551
	h-0.577v0.551h-0.268v0.409h0.268v1.13c0,0.247,0.05,0.427,0.15,0.542c0.1,0.114,0.244,0.172,0.433,0.172
	c0.062,0,0.119-0.005,0.168-0.013c0.051-0.01,0.102-0.022,0.157-0.042l-0.046-0.424c-0.025,0.007-0.047,0.013-0.065,0.017
	c-0.017,0.004-0.041,0.005-0.067,0.005c-0.047,0-0.086-0.02-0.112-0.059C35.579,55.073,35.566,55.006,35.566,54.913 M38.634,53.982
	c0.029-0.061,0.066-0.108,0.117-0.144c0.047-0.034,0.104-0.051,0.172-0.051c0.12,0,0.202,0.063,0.246,0.187
	c0.046,0.124,0.068,0.297,0.068,0.52v0.042c0,0.21-0.021,0.37-0.066,0.478c-0.043,0.11-0.125,0.164-0.246,0.164
	c-0.069,0-0.127-0.014-0.177-0.042c-0.048-0.028-0.085-0.07-0.114-0.125V53.982z M38.634,53.572v-1.173H38.06v3.188h0.493
	l0.038-0.247c0.057,0.094,0.124,0.166,0.203,0.217c0.077,0.049,0.172,0.074,0.277,0.074c0.241,0,0.427-0.099,0.552-0.296
	c0.128-0.198,0.191-0.462,0.191-0.798v-0.042c0-0.354-0.063-0.635-0.191-0.844c-0.125-0.211-0.311-0.314-0.553-0.314
	c-0.094,0-0.175,0.02-0.248,0.061C38.751,53.437,38.688,53.497,38.634,53.572 M41.655,52.398h-0.577v3.188h0.577V52.398z
	 M42.051,52.839h0.576V52.4h-0.576V52.839z M42.629,53.376h-0.575v2.209h0.575V53.376z M57.272,52.959
	c-0.063,0.071-0.095,0.162-0.095,0.276v0.118c0,0.114,0.032,0.208,0.095,0.277c0.063,0.071,0.146,0.105,0.251,0.105
	c0.104,0,0.184-0.026,0.242-0.078c0.058-0.051,0.085-0.126,0.082-0.227l-0.003-0.006h-0.143c0,0.065-0.017,0.112-0.044,0.139
	c-0.031,0.028-0.074,0.043-0.135,0.043c-0.063,0-0.109-0.025-0.144-0.07c-0.033-0.046-0.05-0.108-0.05-0.185v-0.119
	c0-0.076,0.017-0.137,0.05-0.182c0.034-0.047,0.081-0.071,0.144-0.071c0.061,0,0.104,0.015,0.135,0.043
	c0.03,0.029,0.045,0.075,0.045,0.138h0.145l0.002-0.006c0.002-0.098-0.024-0.174-0.084-0.226c-0.059-0.052-0.139-0.079-0.242-0.079
	C57.419,52.852,57.335,52.888,57.272,52.959 M56.955,53.293c0-0.172,0.055-0.319,0.169-0.439c0.112-0.119,0.251-0.178,0.412-0.178
	s0.301,0.06,0.413,0.178c0.114,0.12,0.171,0.267,0.171,0.439c0,0.175-0.057,0.322-0.171,0.442c-0.112,0.12-0.252,0.18-0.413,0.18
	s-0.3-0.06-0.412-0.18C57.01,53.615,56.955,53.468,56.955,53.293 M57.04,52.769c-0.137,0.142-0.206,0.317-0.206,0.524
	c0,0.209,0.069,0.385,0.206,0.528c0.135,0.143,0.303,0.214,0.496,0.214c0.195,0,0.361-0.072,0.497-0.214s0.205-0.319,0.205-0.528
	c0-0.208-0.069-0.383-0.205-0.524c-0.136-0.142-0.302-0.214-0.497-0.214C57.343,52.554,57.175,52.626,57.04,52.769 M55.416,54.494
	c0-0.212,0.026-0.382,0.075-0.512c0.051-0.129,0.132-0.194,0.244-0.194c0.06,0,0.114,0.018,0.164,0.053
	c0.048,0.037,0.089,0.085,0.118,0.147v1.016c-0.029,0.057-0.07,0.1-0.118,0.129c-0.048,0.029-0.104,0.044-0.166,0.044
	c-0.113,0-0.194-0.057-0.245-0.171c-0.048-0.114-0.072-0.271-0.072-0.471V54.494z M55.04,53.653
	c-0.13,0.213-0.194,0.494-0.194,0.841v0.042c0,0.33,0.064,0.595,0.194,0.794c0.128,0.2,0.309,0.299,0.546,0.299
	c0.101,0,0.188-0.025,0.267-0.074c0.079-0.051,0.149-0.123,0.208-0.219l0.042,0.25h0.492v-3.188h-0.577v1.179
	c-0.054-0.077-0.118-0.137-0.188-0.18c-0.071-0.042-0.152-0.062-0.241-0.062C55.352,53.335,55.168,53.44,55.04,53.653
	 M54.238,53.376h-0.536v2.209h0.573v-1.524c0.024-0.061,0.056-0.108,0.099-0.142c0.043-0.035,0.096-0.052,0.162-0.052l0.194,0.006
	l0.06-0.515c-0.023-0.007-0.046-0.012-0.067-0.017c-0.022-0.004-0.046-0.007-0.072-0.007c-0.086,0-0.162,0.029-0.227,0.092
	c-0.065,0.063-0.119,0.149-0.164,0.261L54.238,53.376z M52.266,54.945c0-0.095,0.021-0.174,0.065-0.237
	c0.045-0.063,0.115-0.095,0.212-0.095h0.252v0.348c-0.021,0.067-0.063,0.124-0.122,0.17c-0.06,0.047-0.128,0.071-0.205,0.071
	c-0.062,0-0.11-0.024-0.146-0.072C52.285,55.083,52.266,55.022,52.266,54.945 M51.905,54.466c-0.143,0.119-0.213,0.286-0.213,0.502
	c0,0.205,0.054,0.367,0.163,0.485c0.106,0.118,0.261,0.176,0.464,0.176c0.115,0,0.214-0.035,0.294-0.106
	c0.079-0.072,0.144-0.162,0.192-0.271c0.006,0.06,0.017,0.119,0.032,0.175c0.014,0.058,0.03,0.11,0.054,0.159h0.571
	c-0.03-0.092-0.055-0.185-0.07-0.278c-0.014-0.092-0.021-0.19-0.021-0.294v-0.906c0-0.249-0.072-0.439-0.217-0.572
	c-0.146-0.135-0.334-0.2-0.565-0.2c-0.25,0-0.447,0.065-0.6,0.2c-0.15,0.133-0.223,0.295-0.215,0.486l0.004,0.012l0.557,0.001
	c0-0.088,0.019-0.156,0.055-0.204c0.035-0.048,0.09-0.072,0.161-0.072c0.08,0,0.141,0.03,0.182,0.089
	c0.041,0.06,0.062,0.144,0.062,0.254v0.184h-0.252C52.26,54.287,52.049,54.346,51.905,54.466 M49.03,53.376l0.464,2.209h0.483
	l0.321-1.167h0.013l0.322,1.167h0.478l0.466-2.209h-0.555l-0.195,1.231h-0.014l-0.323-1.231h-0.374l-0.318,1.237h-0.012
	l-0.203-1.237H49.03z M47.68,54.489l0.248-0.944h0.012l0.249,0.944H47.68z M47.563,54.942h0.744l0.169,0.644h0.603l-0.843-2.974
	h-0.598l-0.843,2.974h0.6L47.563,54.942z M47.063,65.171l0.697-0.72l-0.011-0.018h-0.865l-0.494,0.737H47.063z M47.157,65.567
	h-0.776v4.021h0.776V65.567z M45.17,55.92l0.762-2.543h-0.619L44.98,54.7H44.97v-0.006l-0.279-1.318h-0.619l0.669,2.225
	l-0.059,0.169c-0.019,0.075-0.052,0.136-0.094,0.182c-0.045,0.047-0.11,0.07-0.194,0.07c-0.015,0-0.028-0.001-0.042-0.003
	c-0.015-0.004-0.028-0.007-0.046-0.009l-0.066,0.422c0.064,0.017,0.114,0.029,0.152,0.036c0.034,0.009,0.077,0.012,0.122,0.012
	c0.193,0,0.337-0.054,0.433-0.161C45.04,56.212,45.113,56.079,45.17,55.92 M43.814,65.567h-0.777v4.023h0.777v-2.564l0.016-0.003
	l1.279,2.567h0.778v-4.023h-0.778v2.566l-0.018,0.003L43.814,65.567z M43.098,53.376h-0.269v0.409h0.269v1.13
	c0,0.247,0.049,0.427,0.15,0.542c0.099,0.114,0.243,0.172,0.43,0.172c0.064,0,0.121-0.005,0.169-0.013
	c0.05-0.01,0.104-0.022,0.157-0.042L43.96,55.15c-0.026,0.007-0.049,0.013-0.065,0.017c-0.019,0.004-0.042,0.005-0.068,0.005
	c-0.048,0-0.084-0.02-0.112-0.059c-0.028-0.039-0.041-0.106-0.041-0.2v-1.127h0.3v-0.409h-0.3v-0.551h-0.575V53.376z M42.824,65.567
	h-2.647v0.611h0.921v3.412h0.781v-3.412h0.945V65.567z M40.681,53.376h-0.576v2.209h0.576V53.376z M40.681,52.398h-0.576v0.439
	h0.576V52.398z M37.964,65.567h-0.781v4.023h0.781v-2.564l0.016-0.003l1.277,2.567h0.778v-4.023h-0.778v2.566l-0.018,0.003
	L37.964,65.567z M36.68,55.13c-0.037-0.048-0.055-0.108-0.055-0.185c0-0.095,0.022-0.174,0.065-0.237
	c0.043-0.063,0.115-0.095,0.212-0.095h0.251v0.348c-0.021,0.067-0.062,0.124-0.123,0.17c-0.059,0.047-0.128,0.071-0.203,0.071
	C36.767,55.203,36.717,55.179,36.68,55.13 M36.678,55.629c0.117,0,0.212-0.035,0.293-0.106c0.079-0.072,0.144-0.162,0.194-0.271
	c0.006,0.06,0.016,0.119,0.03,0.175c0.014,0.058,0.031,0.11,0.053,0.159h0.574c-0.033-0.092-0.055-0.185-0.069-0.278
	c-0.015-0.092-0.022-0.19-0.022-0.294v-0.906c0-0.249-0.071-0.439-0.217-0.572c-0.144-0.135-0.335-0.2-0.567-0.2
	c-0.247,0-0.447,0.065-0.598,0.2c-0.151,0.133-0.223,0.295-0.215,0.486l0.005,0.012l0.554,0.001c0-0.088,0.019-0.156,0.057-0.204
	c0.037-0.048,0.089-0.072,0.162-0.072c0.079,0,0.141,0.03,0.18,0.089c0.041,0.06,0.062,0.144,0.062,0.254v0.184h-0.251
	c-0.283,0-0.496,0.059-0.638,0.179c-0.142,0.119-0.214,0.286-0.214,0.502c0,0.205,0.054,0.367,0.164,0.485
	C36.321,55.571,36.476,55.629,36.678,55.629 M36.853,65.567h-2.245v4.023h2.25v-0.608h-1.472v-1.17h1.23v-0.606h-1.23v-1.027h1.467
	V65.567z M33.648,55.629c0.285,0,0.515-0.073,0.688-0.218c0.172-0.147,0.259-0.347,0.259-0.602c0-0.247-0.073-0.441-0.222-0.588
	c-0.147-0.146-0.365-0.267-0.653-0.362c-0.169-0.078-0.288-0.15-0.357-0.214c-0.069-0.067-0.104-0.149-0.104-0.25
	c0-0.109,0.032-0.2,0.093-0.273c0.06-0.072,0.146-0.109,0.256-0.109c0.128,0,0.226,0.04,0.296,0.12
	c0.068,0.079,0.104,0.197,0.104,0.351h0.559l0.005-0.012c0.004-0.276-0.08-0.495-0.255-0.659c-0.177-0.162-0.409-0.244-0.697-0.244
	c-0.272,0-0.497,0.077-0.673,0.229c-0.175,0.154-0.263,0.353-0.263,0.596c0,0.246,0.077,0.437,0.23,0.572
	c0.155,0.137,0.384,0.259,0.688,0.366c0.157,0.066,0.265,0.132,0.327,0.201s0.091,0.162,0.091,0.28c0,0.113-0.032,0.205-0.093,0.272
	c-0.062,0.068-0.154,0.102-0.278,0.102c-0.148,0-0.26-0.041-0.335-0.122c-0.076-0.082-0.113-0.216-0.113-0.403h-0.563l-0.003,0.013
	c-0.007,0.321,0.09,0.561,0.291,0.718C33.125,55.55,33.366,55.629,33.648,55.629 M32.81,65.567h-0.78v4.023h2.28v-0.608h-1.5V65.567
	z M31.701,65.567h-2.247v4.023h2.251v-0.608h-1.473v-1.17h1.231v-0.606h-1.231v-1.027h1.469V65.567z M29.9,52.612h-0.576v2.974H29.9
	v-1.24h0.958v1.24h0.575v-2.974h-0.575v1.284H29.9V52.612z M26.788,65.895c-0.247,0.261-0.369,0.622-0.369,1.089v1.194
	c0,0.469,0.127,0.833,0.381,1.088c0.253,0.256,0.597,0.382,1.03,0.382c0.422,0,0.747-0.104,0.974-0.32
	c0.228-0.216,0.338-0.536,0.331-0.971l-0.006-0.017h-0.754c0,0.264-0.042,0.445-0.127,0.546c-0.086,0.104-0.224,0.154-0.417,0.154
	c-0.211,0-0.369-0.07-0.475-0.211c-0.105-0.142-0.157-0.357-0.157-0.651v-1.198c0-0.29,0.048-0.507,0.147-0.648
	c0.097-0.142,0.243-0.212,0.438-0.212c0.214,0,0.367,0.053,0.457,0.155c0.092,0.104,0.137,0.284,0.137,0.542h0.758L29.14,66.8
	c0.008-0.434-0.106-0.758-0.341-0.971c-0.237-0.212-0.575-0.321-1.016-0.321C27.365,65.508,27.034,65.64,26.788,65.895
	 M24.37,67.563l-1.025,2.027h0.906l0.588-1.454h0.017l0.591,1.454h0.943l-1.067-2.027l1-1.996H25.42l-0.572,1.425H24.83
	l-0.563-1.425h-0.9L24.37,67.563z M23.249,65.567h-2.247v4.023h2.252v-0.608h-1.472v-1.17h1.229v-0.606h-1.229v-1.027h1.467V65.567z
	 M21.074,52.854c-0.181,0.191-0.272,0.459-0.272,0.806v0.882c0,0.347,0.093,0.615,0.282,0.804c0.188,0.188,0.441,0.283,0.761,0.283
	c0.313,0,0.554-0.079,0.721-0.239c0.168-0.158,0.25-0.396,0.244-0.715l-0.004-0.013h-0.557c0,0.193-0.032,0.329-0.094,0.405
	c-0.063,0.075-0.166,0.112-0.31,0.112c-0.156,0-0.273-0.052-0.351-0.156c-0.077-0.105-0.116-0.266-0.116-0.482v-0.887
	c0-0.215,0.036-0.374,0.108-0.479c0.073-0.104,0.181-0.157,0.325-0.157c0.158,0,0.271,0.038,0.338,0.115
	c0.068,0.075,0.102,0.21,0.102,0.401h0.559l0.004-0.013c0.005-0.319-0.079-0.559-0.253-0.717c-0.175-0.157-0.424-0.236-0.75-0.236
	C21.502,52.569,21.257,52.663,21.074,52.854 M13.122,66.306c-0.293,0.312-0.441,0.739-0.441,1.282c0,0.5,0.126,0.914,0.38,1.245
	c0.254,0.332,0.672,0.528,1.254,0.59l0.105-1.053c-0.309-0.021-0.53-0.097-0.663-0.226c-0.134-0.132-0.199-0.308-0.199-0.528
	c0-0.224,0.063-0.399,0.19-0.526c0.125-0.127,0.309-0.19,0.543-0.19c0.215,0,0.43,0.072,0.648,0.219
	c0.158,0.109,0.46,0.4,0.904,0.879c0.549,0.591,0.991,0.99,1.324,1.188c0.333,0.202,0.686,0.321,1.058,0.364v-3.712h-0.984v2.103
	c-0.095-0.056-0.193-0.129-0.293-0.218c-0.102-0.088-0.304-0.301-0.611-0.633c-0.306-0.336-0.542-0.567-0.704-0.693
	c-0.246-0.195-0.482-0.336-0.706-0.426c-0.226-0.089-0.462-0.133-0.71-0.133C13.78,65.838,13.416,65.994,13.122,66.306
	 M13.559,63.101c0-0.127,0.041-0.241,0.122-0.343c0.081-0.099,0.243-0.18,0.486-0.243c0.242-0.067,0.688-0.099,1.336-0.099
	c0.647,0,1.106,0.035,1.379,0.108c0.209,0.056,0.357,0.133,0.438,0.233c0.082,0.102,0.122,0.216,0.122,0.343
	s-0.041,0.241-0.121,0.342c-0.08,0.099-0.24,0.181-0.484,0.245c-0.243,0.066-0.687,0.099-1.334,0.099
	c-0.648,0-1.11-0.037-1.383-0.11c-0.211-0.054-0.358-0.132-0.439-0.231C13.599,63.345,13.559,63.228,13.559,63.101 M12.681,63.101
	c0,0.535,0.188,0.95,0.564,1.25c0.458,0.363,1.206,0.544,2.245,0.544c1.061,0,1.797-0.164,2.211-0.493
	c0.412-0.33,0.619-0.762,0.619-1.301c0-0.534-0.188-0.95-0.565-1.251c-0.458-0.361-1.208-0.543-2.252-0.543
	c-1.048,0-1.798,0.18-2.25,0.539C12.871,62.146,12.681,62.566,12.681,63.101 M18.227,57.658h-5.546v0.859
	c0.337,0.121,0.631,0.342,0.884,0.667c0.251,0.325,0.423,0.625,0.514,0.9h0.961c-0.174-0.524-0.441-0.981-0.804-1.367h3.991V57.658z
	 M13.559,54.206c0-0.205,0.093-0.387,0.282-0.544c0.188-0.156,0.454-0.235,0.794-0.235c0.312,0,0.548,0.07,0.708,0.208
	c0.161,0.141,0.242,0.313,0.242,0.515c0,0.21-0.084,0.387-0.251,0.528c-0.166,0.14-0.429,0.21-0.785,0.21
	c-0.352,0-0.604-0.064-0.759-0.194C13.635,54.564,13.559,54.402,13.559,54.206 M13.331,52.779c-0.433,0.358-0.65,0.818-0.65,1.378
	c0,0.516,0.171,0.939,0.514,1.272c0.343,0.332,0.794,0.499,1.354,0.499c0.538,0,0.973-0.157,1.31-0.473
	c0.334-0.315,0.502-0.691,0.502-1.125c0-0.4-0.155-0.732-0.463-1c0.632,0.043,1.049,0.142,1.251,0.295
	c0.2,0.152,0.301,0.338,0.301,0.557c0,0.173-0.051,0.313-0.151,0.418c-0.1,0.105-0.255,0.171-0.463,0.196l0.113,1.025
	c0.456-0.075,0.8-0.246,1.029-0.513c0.23-0.266,0.346-0.615,0.346-1.048c0-0.6-0.224-1.086-0.67-1.46
	c-0.448-0.375-1.177-0.563-2.186-0.563C14.476,52.239,13.763,52.419,13.331,52.779 M61.054,72.278h-50.82V1.517h50.82V72.278z
	 M61.57,72.795v-0.517V1.515V1h-0.517h-50.82H9.717v0.515v70.763v0.517h0.517h50.82H61.57z"/>
</svg>
