<?xml version="1.0" encoding="utf-8"?>
<!-- Generator: Adobe Illustrator 15.1.0, SVG Export Plug-In . SVG Version: 6.00 Build 0)  -->
<!DOCTYPE svg PUBLIC "-//W3C//DTD SVG 1.1//EN" "http://www.w3.org/Graphics/SVG/1.1/DTD/svg11.dtd">
<svg version="1.1" id="Vrstva_1" xmlns="http://www.w3.org/2000/svg" xmlns:xlink="http://www.w3.org/1999/xlink" x="0px" y="0px"
	 width="99px" height="120px" viewBox="0 0 99 120" enable-background="new 0 0 99 120" xml:space="preserve">
<path fill="#B1B3B4" d="M64.297,117.315v-4.014h-0.676v2.21c0,0.148-0.018,0.301-0.054,0.456c-0.036,0.156-0.096,0.299-0.181,0.431
	c-0.084,0.132-0.197,0.238-0.337,0.322c-0.141,0.085-0.319,0.127-0.534,0.127c-0.107,0-0.208-0.016-0.303-0.047
	c-0.095-0.029-0.178-0.08-0.246-0.148c-0.07-0.069-0.125-0.161-0.165-0.272c-0.041-0.114-0.062-0.251-0.062-0.415v-2.663h-0.675
	v2.886c0,0.241,0.038,0.44,0.118,0.599c0.08,0.159,0.184,0.287,0.311,0.385c0.128,0.096,0.271,0.164,0.423,0.202
	c0.153,0.038,0.305,0.059,0.453,0.059c0.321,0,0.578-0.061,0.771-0.182c0.192-0.12,0.36-0.298,0.505-0.534l0.014,0.017v0.583H64.297
	z M58.923,114.798l1.535-1.496h-0.859l-1.728,1.696v-3.194h-0.652v5.512h0.652v-1.52l0.562-0.506l1.251,2.025h0.866L58.923,114.798z
	 M56.298,114.445c0-0.051-0.013-0.146-0.037-0.28c-0.027-0.136-0.091-0.276-0.192-0.424c-0.103-0.144-0.256-0.274-0.46-0.386
	c-0.206-0.114-0.486-0.17-0.845-0.17c-0.2,0-0.391,0.025-0.572,0.077c-0.183,0.051-0.344,0.129-0.484,0.234
	s-0.253,0.237-0.338,0.399c-0.084,0.16-0.126,0.352-0.126,0.571c0,0.276,0.085,0.49,0.254,0.641
	c0.167,0.151,0.393,0.262,0.676,0.335l0.781,0.192c0.287,0.07,0.492,0.146,0.615,0.222c0.122,0.077,0.183,0.194,0.183,0.353
	c0,0.113-0.024,0.208-0.075,0.288c-0.052,0.079-0.119,0.145-0.204,0.196c-0.085,0.051-0.181,0.089-0.292,0.114
	c-0.108,0.026-0.227,0.039-0.349,0.039c-0.24,0-0.431-0.029-0.568-0.085s-0.242-0.125-0.314-0.207
	c-0.071-0.082-0.118-0.171-0.142-0.268c-0.023-0.098-0.037-0.186-0.043-0.263h-0.653c0.006,0.082,0.016,0.173,0.028,0.273
	c0.013,0.1,0.038,0.202,0.075,0.307c0.04,0.104,0.097,0.206,0.174,0.304c0.077,0.097,0.178,0.185,0.304,0.265
	c0.124,0.079,0.281,0.142,0.468,0.188s0.414,0.07,0.679,0.07c0.226,0,0.437-0.031,0.631-0.094c0.194-0.061,0.361-0.147,0.502-0.26
	c0.142-0.113,0.253-0.251,0.334-0.416c0.082-0.162,0.122-0.35,0.122-0.56c0-0.271-0.082-0.489-0.249-0.655
	c-0.166-0.168-0.459-0.302-0.879-0.404l-0.675-0.168c-0.134-0.03-0.245-0.063-0.338-0.094c-0.093-0.028-0.166-0.063-0.224-0.104
	c-0.056-0.037-0.098-0.083-0.126-0.137c-0.029-0.055-0.042-0.122-0.042-0.204c0-0.123,0.031-0.222,0.096-0.3
	c0.063-0.075,0.14-0.134,0.227-0.172c0.086-0.039,0.176-0.063,0.266-0.077c0.09-0.013,0.159-0.019,0.21-0.019
	c0.215,0,0.384,0.022,0.507,0.068s0.218,0.105,0.284,0.174s0.109,0.143,0.131,0.222c0.02,0.079,0.03,0.149,0.03,0.212H56.298z
	 M51.83,116.057c-0.005,0.078-0.031,0.16-0.08,0.25s-0.119,0.176-0.207,0.257c-0.09,0.081-0.197,0.149-0.322,0.202
	c-0.126,0.054-0.268,0.082-0.426,0.082c-0.39,0-0.681-0.115-0.876-0.346c-0.194-0.23-0.292-0.555-0.292-0.975h2.933
	c0-0.354-0.036-0.675-0.107-0.963c-0.071-0.29-0.179-0.537-0.323-0.741c-0.142-0.205-0.321-0.362-0.536-0.473
	s-0.469-0.165-0.761-0.165c-0.332,0-0.62,0.058-0.863,0.174c-0.243,0.115-0.442,0.273-0.599,0.475
	c-0.156,0.202-0.272,0.439-0.349,0.712c-0.077,0.27-0.114,0.562-0.114,0.873c0,0.292,0.04,0.562,0.122,0.806
	c0.082,0.246,0.199,0.46,0.353,0.638c0.154,0.18,0.342,0.319,0.564,0.419c0.223,0.1,0.474,0.15,0.757,0.15
	c0.158,0,0.296-0.01,0.414-0.028c0.116-0.018,0.217-0.039,0.302-0.065c0.085-0.025,0.156-0.055,0.216-0.088
	c0.06-0.034,0.111-0.064,0.158-0.096c0.127-0.081,0.233-0.176,0.322-0.285c0.087-0.106,0.158-0.213,0.215-0.317
	c0.056-0.104,0.098-0.202,0.126-0.292c0.028-0.089,0.045-0.157,0.05-0.203H51.83z M49.627,114.99c0-0.154,0.03-0.303,0.089-0.449
	c0.058-0.146,0.137-0.273,0.237-0.384c0.1-0.109,0.217-0.198,0.354-0.266c0.135-0.066,0.279-0.1,0.433-0.1
	c0.206,0,0.377,0.033,0.515,0.1c0.139,0.067,0.251,0.156,0.338,0.266c0.086,0.11,0.151,0.238,0.19,0.384
	c0.042,0.146,0.067,0.295,0.078,0.449H49.627z M45.466,110.185H44.86l0.759,1.083h0.715l0.76-1.083H46.48l-0.507,0.713
	L45.466,110.185z M48.231,113.463c-0.027-0.23-0.093-0.454-0.2-0.673c-0.107-0.218-0.254-0.409-0.442-0.574
	c-0.186-0.168-0.415-0.302-0.686-0.404c-0.271-0.102-0.584-0.154-0.938-0.154c-0.399,0-0.759,0.071-1.077,0.213
	c-0.321,0.141-0.59,0.337-0.811,0.591c-0.22,0.253-0.39,0.555-0.506,0.905c-0.118,0.351-0.178,0.738-0.178,1.163
	c0,0.532,0.071,0.984,0.213,1.355c0.141,0.37,0.326,0.672,0.559,0.905c0.233,0.233,0.498,0.403,0.794,0.51
	c0.297,0.107,0.602,0.162,0.913,0.162c0.068,0,0.167-0.006,0.299-0.016c0.134-0.011,0.281-0.039,0.442-0.085
	c0.162-0.046,0.329-0.115,0.502-0.207c0.174-0.093,0.34-0.219,0.496-0.379c0.157-0.163,0.294-0.363,0.415-0.604
	c0.12-0.24,0.206-0.534,0.257-0.882h-0.723c-0.062,0.321-0.156,0.581-0.284,0.778c-0.128,0.196-0.268,0.349-0.418,0.457
	c-0.151,0.108-0.303,0.18-0.456,0.219c-0.154,0.038-0.292,0.057-0.414,0.057c-0.343,0-0.632-0.058-0.864-0.176
	c-0.233-0.118-0.421-0.279-0.564-0.483c-0.143-0.205-0.245-0.448-0.307-0.729c-0.06-0.281-0.092-0.584-0.092-0.906
	c0-0.363,0.047-0.682,0.142-0.955c0.094-0.274,0.223-0.501,0.387-0.684c0.164-0.182,0.355-0.319,0.572-0.409
	c0.218-0.094,0.451-0.139,0.702-0.139c0.134,0,0.279,0.013,0.438,0.042c0.158,0.027,0.311,0.082,0.456,0.165
	c0.146,0.081,0.278,0.197,0.396,0.349c0.119,0.151,0.202,0.347,0.253,0.588H48.231z M38.988,116.57h-0.016l-1.043-3.269h-0.783
	l1.465,4.014h0.723l1.527-4.014h-0.736L38.988,116.57z"/>
<path fill="#B1B3B4" d="M90.162,106.496c0.126-0.027,0.244-0.069,0.356-0.123c0.113-0.054,0.214-0.121,0.3-0.202
	c0.087-0.083,0.157-0.174,0.208-0.276l0.015,0.015c-0.088,0.701-0.233,1.213-0.438,1.535c-0.205,0.322-0.491,0.482-0.86,0.482
	c-0.276,0-0.491-0.076-0.647-0.232c-0.157-0.156-0.244-0.373-0.267-0.649h-0.675c0,0.133,0.024,0.283,0.072,0.449
	c0.049,0.166,0.134,0.322,0.254,0.468c0.121,0.146,0.285,0.271,0.492,0.373s0.47,0.153,0.786,0.153c0.307,0,0.568-0.062,0.787-0.185
	c0.217-0.122,0.399-0.281,0.545-0.475c0.146-0.195,0.259-0.41,0.342-0.646c0.081-0.234,0.146-0.466,0.188-0.689
	c0.044-0.227,0.07-0.432,0.081-0.619c0.01-0.187,0.016-0.329,0.016-0.425c0-0.143-0.008-0.307-0.02-0.487
	c-0.013-0.183-0.043-0.366-0.089-0.549c-0.046-0.186-0.109-0.365-0.192-0.542c-0.08-0.177-0.191-0.334-0.332-0.473
	c-0.142-0.139-0.314-0.248-0.52-0.329c-0.204-0.082-0.45-0.123-0.737-0.123c-0.285,0-0.536,0.05-0.751,0.148
	c-0.216,0.101-0.396,0.236-0.542,0.407c-0.146,0.172-0.256,0.369-0.329,0.591c-0.075,0.224-0.112,0.457-0.112,0.703
	c0,0.271,0.041,0.515,0.123,0.729s0.198,0.396,0.35,0.545c0.151,0.147,0.33,0.263,0.537,0.346c0.207,0.082,0.437,0.122,0.688,0.122
	C89.912,106.538,90.037,106.524,90.162,106.496 M89.528,105.895c-0.128-0.026-0.246-0.079-0.357-0.159
	c-0.109-0.078-0.199-0.195-0.271-0.349s-0.108-0.36-0.108-0.621c0-0.364,0.096-0.656,0.285-0.88
	c0.189-0.222,0.441-0.334,0.761-0.334c0.192,0,0.36,0.032,0.499,0.092c0.137,0.063,0.25,0.147,0.336,0.254
	c0.087,0.107,0.151,0.23,0.191,0.369c0.042,0.138,0.063,0.283,0.063,0.438c0,0.265-0.037,0.478-0.113,0.64
	c-0.073,0.161-0.164,0.285-0.271,0.372c-0.108,0.087-0.223,0.146-0.342,0.172c-0.121,0.029-0.225,0.043-0.312,0.043
	C89.776,105.932,89.656,105.919,89.528,105.895 M86.258,102.946h-0.528c-0.057,0.221-0.122,0.396-0.196,0.525
	c-0.075,0.131-0.168,0.23-0.28,0.301c-0.112,0.068-0.248,0.114-0.406,0.142c-0.159,0.024-0.349,0.045-0.567,0.061v0.537h1.258v3.83
	h0.721V102.946z M82.225,107.306c-0.183,0.385-0.467,0.577-0.856,0.577s-0.674-0.192-0.855-0.577
	c-0.182-0.384-0.272-0.913-0.272-1.589s0.091-1.205,0.272-1.589s0.466-0.576,0.855-0.576s0.674,0.192,0.856,0.576
	c0.182,0.384,0.272,0.913,0.272,1.589S82.406,106.922,82.225,107.306 M83.146,104.812c-0.049-0.323-0.139-0.622-0.272-0.897
	c-0.133-0.277-0.319-0.509-0.56-0.691c-0.241-0.185-0.556-0.276-0.945-0.276s-0.703,0.092-0.944,0.276
	c-0.24,0.183-0.429,0.414-0.563,0.691c-0.137,0.275-0.227,0.574-0.273,0.897c-0.047,0.322-0.068,0.624-0.068,0.905
	c0,0.282,0.021,0.584,0.068,0.906s0.137,0.622,0.273,0.897c0.134,0.277,0.322,0.507,0.563,0.691
	c0.241,0.185,0.555,0.276,0.944,0.276s0.704-0.092,0.945-0.276c0.24-0.185,0.427-0.414,0.56-0.691
	c0.134-0.275,0.224-0.575,0.272-0.897s0.072-0.624,0.072-0.906C83.218,105.436,83.194,105.134,83.146,104.812 M75.979,104.881
	c0.005-0.092,0.018-0.213,0.035-0.364s0.062-0.299,0.135-0.442c0.071-0.143,0.178-0.265,0.321-0.368
	c0.144-0.103,0.343-0.154,0.599-0.154c0.2,0,0.368,0.032,0.503,0.092c0.136,0.063,0.245,0.14,0.33,0.235
	c0.085,0.095,0.146,0.199,0.182,0.314c0.034,0.116,0.054,0.227,0.054,0.334c0,0.18-0.026,0.329-0.073,0.448
	c-0.05,0.12-0.118,0.229-0.208,0.319c-0.09,0.092-0.195,0.177-0.314,0.255c-0.121,0.075-0.252,0.155-0.396,0.235l-0.715,0.416
	c-0.178,0.107-0.343,0.226-0.494,0.356c-0.151,0.132-0.282,0.281-0.396,0.453c-0.112,0.171-0.2,0.366-0.265,0.583
	c-0.064,0.218-0.102,0.467-0.111,0.748h3.692v-0.636h-2.933c0.005-0.052,0.023-0.115,0.054-0.193
	c0.031-0.075,0.079-0.16,0.146-0.252c0.067-0.094,0.158-0.188,0.276-0.289c0.118-0.1,0.27-0.201,0.454-0.304l0.56-0.306
	c0.2-0.108,0.388-0.216,0.565-0.327c0.176-0.11,0.329-0.233,0.459-0.372c0.132-0.138,0.234-0.296,0.308-0.476
	c0.074-0.179,0.111-0.39,0.111-0.629c0-0.25-0.044-0.476-0.13-0.676c-0.088-0.2-0.207-0.368-0.362-0.506
	c-0.153-0.139-0.331-0.245-0.536-0.32c-0.206-0.073-0.426-0.11-0.66-0.11c-0.098,0-0.211,0.007-0.343,0.023
	c-0.13,0.015-0.264,0.044-0.402,0.087c-0.137,0.044-0.273,0.11-0.407,0.196c-0.134,0.088-0.253,0.201-0.36,0.346
	c-0.106,0.144-0.193,0.32-0.257,0.529c-0.065,0.209-0.096,0.461-0.096,0.753H75.979z M74.967,105.939h-4.269v0.561h4.269V105.939z
	 M67.788,103.722h2.288v-0.661h-2.794l-0.407,2.895l0.584,0.03c0.127-0.164,0.277-0.289,0.449-0.379
	c0.171-0.09,0.354-0.135,0.549-0.135c0.169,0,0.326,0.026,0.472,0.078c0.146,0.051,0.272,0.126,0.38,0.229
	c0.108,0.103,0.192,0.229,0.254,0.377c0.062,0.147,0.092,0.318,0.092,0.513c0,0.17-0.027,0.331-0.08,0.48
	c-0.054,0.151-0.13,0.282-0.226,0.393c-0.099,0.109-0.218,0.198-0.357,0.264c-0.141,0.066-0.298,0.101-0.473,0.101
	c-0.307,0-0.565-0.071-0.775-0.215c-0.211-0.144-0.333-0.374-0.369-0.69h-0.697c0.03,0.301,0.105,0.548,0.226,0.741
	c0.121,0.191,0.264,0.344,0.43,0.455c0.166,0.113,0.345,0.19,0.534,0.23c0.189,0.041,0.372,0.062,0.553,0.062
	c0.419,0,0.758-0.07,1.017-0.21c0.26-0.141,0.457-0.312,0.595-0.512c0.138-0.199,0.229-0.407,0.276-0.625
	c0.047-0.219,0.068-0.4,0.068-0.549c0-0.277-0.051-0.522-0.153-0.737c-0.103-0.216-0.236-0.396-0.402-0.541
	s-0.356-0.257-0.567-0.334c-0.212-0.077-0.43-0.115-0.649-0.115c-0.245,0-0.451,0.034-0.617,0.104
	c-0.167,0.068-0.309,0.147-0.426,0.235L67.788,103.722z M64.918,102.946h-0.529c-0.057,0.221-0.122,0.396-0.195,0.525
	c-0.075,0.131-0.169,0.23-0.28,0.301c-0.113,0.068-0.249,0.114-0.407,0.142c-0.158,0.024-0.349,0.045-0.568,0.061v0.537h1.259v3.83
	h0.722V102.946z M60.884,107.306c-0.181,0.385-0.467,0.577-0.855,0.577c-0.39,0-0.675-0.192-0.855-0.577
	c-0.183-0.384-0.273-0.913-0.273-1.589s0.091-1.205,0.273-1.589c0.181-0.384,0.466-0.576,0.855-0.576
	c0.389,0,0.675,0.192,0.855,0.576c0.183,0.384,0.273,0.913,0.273,1.589S61.066,106.922,60.884,107.306 M61.806,104.812
	c-0.049-0.323-0.141-0.622-0.272-0.897c-0.133-0.277-0.32-0.509-0.562-0.691c-0.24-0.185-0.555-0.276-0.943-0.276
	c-0.39,0-0.703,0.092-0.943,0.276c-0.241,0.183-0.43,0.414-0.564,0.691c-0.136,0.275-0.227,0.574-0.273,0.897
	c-0.045,0.322-0.068,0.624-0.068,0.905c0,0.282,0.023,0.584,0.068,0.906c0.047,0.322,0.138,0.622,0.273,0.897
	c0.135,0.277,0.323,0.507,0.564,0.691c0.24,0.185,0.554,0.276,0.943,0.276c0.389,0,0.703-0.092,0.943-0.276
	c0.241-0.185,0.429-0.414,0.562-0.691c0.132-0.275,0.224-0.575,0.272-0.897c0.048-0.322,0.072-0.624,0.072-0.906
	C61.878,105.436,61.854,105.134,61.806,104.812 M54.639,104.881c0.006-0.092,0.018-0.213,0.035-0.364s0.063-0.299,0.135-0.442
	c0.071-0.143,0.179-0.265,0.322-0.368c0.144-0.103,0.344-0.154,0.6-0.154c0.198,0,0.367,0.032,0.502,0.092
	c0.135,0.063,0.246,0.14,0.33,0.235c0.085,0.095,0.145,0.199,0.181,0.314c0.035,0.116,0.054,0.227,0.054,0.334
	c0,0.18-0.024,0.329-0.073,0.448c-0.049,0.12-0.117,0.229-0.207,0.319c-0.09,0.092-0.194,0.177-0.314,0.255
	c-0.121,0.075-0.252,0.155-0.396,0.235l-0.713,0.416c-0.18,0.107-0.344,0.226-0.495,0.356c-0.152,0.132-0.284,0.281-0.396,0.453
	c-0.114,0.171-0.203,0.366-0.266,0.583c-0.063,0.218-0.101,0.467-0.111,0.748h3.691v-0.636h-2.932
	c0.004-0.052,0.024-0.115,0.053-0.193c0.032-0.075,0.081-0.16,0.146-0.252c0.068-0.094,0.16-0.188,0.277-0.289
	c0.117-0.1,0.268-0.201,0.452-0.304l0.561-0.306c0.199-0.108,0.388-0.216,0.564-0.327c0.176-0.11,0.329-0.233,0.461-0.372
	c0.13-0.138,0.232-0.296,0.307-0.476c0.074-0.179,0.11-0.39,0.11-0.629c0-0.25-0.041-0.476-0.129-0.676s-0.207-0.368-0.361-0.506
	c-0.153-0.139-0.333-0.245-0.536-0.32c-0.206-0.073-0.426-0.11-0.662-0.11c-0.097,0-0.211,0.007-0.342,0.023
	c-0.129,0.015-0.265,0.044-0.402,0.087c-0.138,0.044-0.273,0.11-0.406,0.196c-0.134,0.088-0.254,0.201-0.36,0.346
	c-0.108,0.144-0.194,0.32-0.258,0.529c-0.064,0.209-0.096,0.461-0.096,0.753H54.639z M50.149,102.831v3.484
	c0,0.303-0.043,0.551-0.131,0.745c-0.087,0.195-0.2,0.348-0.338,0.46c-0.137,0.113-0.293,0.192-0.467,0.239
	c-0.175,0.045-0.346,0.069-0.514,0.069c-0.17,0-0.336-0.024-0.502-0.069c-0.167-0.047-0.316-0.128-0.45-0.247
	c-0.133-0.116-0.24-0.272-0.322-0.468c-0.082-0.194-0.124-0.441-0.124-0.744v-3.47h-0.744v3.677c0,0.256,0.041,0.503,0.123,0.741
	s0.208,0.448,0.38,0.634c0.171,0.183,0.392,0.33,0.66,0.439c0.269,0.111,0.587,0.166,0.956,0.166c0.379,0,0.708-0.055,0.986-0.166
	c0.279-0.109,0.508-0.259,0.691-0.449c0.182-0.188,0.316-0.409,0.407-0.663c0.09-0.253,0.134-0.52,0.134-0.802v-3.577H50.149z
	 M42.158,106.408l0.868-0.83l1.926,2.764h0.968l-2.357-3.284l2.295-2.227H44.83l-2.672,2.672v-2.672h-0.745v5.511h0.745V106.408z
	 M39.633,106.481c-0.087,0.273-0.214,0.511-0.38,0.71s-0.368,0.355-0.606,0.468c-0.239,0.112-0.506,0.17-0.803,0.17
	c-0.301,0-0.571-0.058-0.805-0.17c-0.236-0.112-0.438-0.269-0.603-0.468c-0.167-0.199-0.293-0.437-0.38-0.71
	c-0.087-0.273-0.132-0.572-0.132-0.895s0.044-0.62,0.132-0.895c0.087-0.273,0.213-0.511,0.38-0.71
	c0.165-0.2,0.366-0.355,0.603-0.468c0.233-0.113,0.503-0.17,0.805-0.17c0.297,0,0.564,0.057,0.803,0.17
	c0.238,0.112,0.439,0.268,0.606,0.468c0.167,0.199,0.293,0.437,0.38,0.71c0.087,0.274,0.13,0.572,0.13,0.895
	S39.72,106.208,39.633,106.481 M40.474,104.957c-0.04-0.22-0.1-0.438-0.185-0.653c-0.083-0.214-0.194-0.419-0.329-0.613
	c-0.136-0.194-0.305-0.366-0.503-0.518c-0.2-0.151-0.432-0.271-0.699-0.358c-0.265-0.086-0.57-0.129-0.913-0.129
	s-0.646,0.043-0.914,0.129c-0.266,0.088-0.499,0.207-0.698,0.358c-0.2,0.151-0.366,0.323-0.502,0.518
	c-0.135,0.194-0.247,0.399-0.329,0.613c-0.085,0.216-0.146,0.434-0.185,0.653c-0.038,0.22-0.057,0.43-0.057,0.63
	c0,0.198,0.019,0.41,0.057,0.629c0.039,0.22,0.1,0.438,0.185,0.652c0.083,0.217,0.194,0.42,0.329,0.615
	c0.136,0.193,0.303,0.367,0.502,0.518c0.199,0.15,0.433,0.27,0.698,0.356c0.268,0.087,0.571,0.131,0.914,0.131
	s0.648-0.044,0.913-0.131c0.268-0.087,0.499-0.206,0.699-0.356c0.199-0.15,0.368-0.324,0.503-0.518
	c0.135-0.195,0.246-0.398,0.329-0.615c0.085-0.214,0.146-0.433,0.185-0.652c0.039-0.219,0.057-0.431,0.057-0.629
	C40.531,105.387,40.512,105.177,40.474,104.957 M30.889,105.978h1.804c0.221,0,0.396,0.03,0.525,0.09
	c0.13,0.058,0.23,0.135,0.3,0.229c0.069,0.095,0.112,0.201,0.129,0.318c0.019,0.117,0.028,0.233,0.028,0.345
	c0,0.052,0.001,0.138,0.003,0.258c0.002,0.12,0.008,0.25,0.019,0.388c0.012,0.139,0.024,0.276,0.043,0.411s0.04,0.244,0.065,0.325
	h0.913v-0.123c-0.056-0.029-0.102-0.062-0.138-0.096c-0.036-0.032-0.064-0.07-0.085-0.114c-0.02-0.044-0.034-0.093-0.041-0.146
	c-0.008-0.054-0.013-0.119-0.013-0.197l-0.044-0.998c-0.012-0.188-0.035-0.343-0.075-0.463c-0.038-0.121-0.088-0.219-0.148-0.292
	c-0.062-0.075-0.132-0.132-0.208-0.173c-0.078-0.041-0.153-0.077-0.231-0.108c0.087-0.05,0.178-0.11,0.27-0.179
	c0.091-0.07,0.174-0.154,0.249-0.255c0.074-0.098,0.134-0.22,0.18-0.364c0.045-0.144,0.07-0.316,0.07-0.521
	c0-0.292-0.052-0.533-0.158-0.726c-0.104-0.191-0.241-0.343-0.411-0.452c-0.168-0.11-0.362-0.188-0.581-0.235
	c-0.216-0.046-0.437-0.068-0.663-0.068h-2.549v5.511h0.745V105.978z M30.889,103.469h1.857c0.092,0,0.195,0.007,0.312,0.021
	c0.115,0.016,0.222,0.054,0.322,0.115c0.099,0.063,0.184,0.155,0.252,0.277c0.069,0.122,0.104,0.292,0.104,0.506
	c0,0.204-0.034,0.37-0.099,0.492c-0.066,0.123-0.152,0.22-0.257,0.288c-0.104,0.068-0.224,0.114-0.357,0.139
	c-0.134,0.021-0.27,0.033-0.407,0.033h-1.727V103.469z M26.782,108.342v-5.511h-1.059l-1.566,4.659h-0.015l-1.574-4.659h-1.066
	v5.511h0.721v-3.254c0-0.041-0.001-0.112-0.003-0.211c-0.002-0.1-0.003-0.214-0.003-0.342s-0.001-0.263-0.004-0.407
	c-0.003-0.144-0.004-0.279-0.004-0.406h0.015l1.55,4.62h0.738l1.55-4.628h0.017c0,0.128-0.002,0.264-0.005,0.407
	c-0.002,0.143-0.003,0.28-0.003,0.414c0,0.128-0.001,0.242-0.003,0.342c-0.002,0.099-0.005,0.17-0.005,0.211v3.254H26.782z
	 M17.663,101.383c-0.133,0.134-0.199,0.305-0.199,0.512s0.066,0.378,0.199,0.512c0.134,0.135,0.302,0.201,0.506,0.201
	c0.206,0,0.375-0.066,0.508-0.201c0.132-0.134,0.199-0.305,0.199-0.512s-0.066-0.378-0.199-0.512
	c-0.134-0.135-0.302-0.202-0.508-0.202C17.965,101.181,17.796,101.248,17.663,101.383 M17.886,101.615
	c0.076-0.074,0.171-0.112,0.283-0.112c0.114,0,0.208,0.038,0.285,0.112c0.077,0.076,0.116,0.169,0.116,0.279
	s-0.04,0.204-0.116,0.279c-0.077,0.074-0.171,0.112-0.285,0.112c-0.112,0-0.207-0.038-0.283-0.112
	c-0.077-0.075-0.116-0.169-0.116-0.279S17.809,101.691,17.886,101.615 M19.597,102.831v3.484c0,0.303-0.043,0.551-0.129,0.745
	c-0.087,0.195-0.2,0.348-0.338,0.46c-0.139,0.113-0.294,0.192-0.469,0.239c-0.173,0.045-0.346,0.069-0.514,0.069
	c-0.169,0-0.336-0.024-0.502-0.069c-0.167-0.047-0.315-0.128-0.449-0.247c-0.134-0.116-0.241-0.272-0.323-0.468
	c-0.082-0.194-0.122-0.441-0.122-0.744v-3.47h-0.745v3.677c0,0.256,0.041,0.503,0.122,0.741c0.083,0.238,0.209,0.448,0.38,0.634
	c0.171,0.183,0.392,0.33,0.66,0.439c0.27,0.111,0.587,0.166,0.957,0.166c0.378,0,0.708-0.055,0.985-0.166
	c0.279-0.109,0.51-0.259,0.691-0.449c0.182-0.188,0.317-0.409,0.408-0.663c0.088-0.253,0.133-0.52,0.133-0.802v-3.577H19.597z
	 M10.479,108.342h2.203c0.45,0,0.826-0.089,1.128-0.269c0.301-0.178,0.543-0.407,0.725-0.683c0.181-0.276,0.311-0.582,0.384-0.918
	c0.073-0.335,0.112-0.656,0.112-0.963c0-0.399-0.054-0.763-0.162-1.09c-0.107-0.328-0.261-0.608-0.459-0.845
	c-0.2-0.234-0.443-0.419-0.73-0.549c-0.286-0.13-0.608-0.195-0.967-0.195h-2.233V108.342z M11.223,103.469h1.39
	c0.506,0,0.908,0.173,1.204,0.521s0.445,0.871,0.445,1.567c0,0.701-0.144,1.235-0.434,1.601s-0.677,0.549-1.162,0.549h-1.443
	V103.469z"/>
<path fill="#B1B3B4" d="M80.93,99.369v-4.016h-0.674v2.212c0,0.148-0.02,0.301-0.054,0.457c-0.036,0.155-0.097,0.299-0.181,0.431
	c-0.085,0.129-0.197,0.235-0.338,0.32c-0.142,0.085-0.318,0.128-0.533,0.128c-0.108,0-0.209-0.016-0.304-0.046
	c-0.094-0.031-0.177-0.082-0.246-0.15c-0.069-0.069-0.124-0.159-0.164-0.273c-0.042-0.111-0.062-0.25-0.062-0.414v-2.664h-0.676
	v2.887c0,0.24,0.039,0.44,0.119,0.599c0.079,0.159,0.183,0.287,0.311,0.384c0.128,0.098,0.269,0.166,0.421,0.204
	c0.155,0.038,0.307,0.057,0.455,0.057c0.321,0,0.578-0.06,0.771-0.18c0.191-0.12,0.359-0.297,0.503-0.533l0.016,0.015v0.584H80.93z
	 M76.662,93.857h-0.675v5.511h0.675V93.857z M74.958,99.369v-4.016h-0.676v2.212c0,0.148-0.018,0.301-0.054,0.457
	c-0.034,0.155-0.095,0.299-0.179,0.431c-0.085,0.129-0.197,0.235-0.339,0.32c-0.141,0.085-0.317,0.128-0.533,0.128
	c-0.107,0-0.209-0.016-0.303-0.046c-0.096-0.031-0.177-0.082-0.247-0.15c-0.068-0.069-0.123-0.159-0.163-0.273
	c-0.042-0.111-0.063-0.25-0.063-0.414v-2.664h-0.676v2.887c0,0.24,0.04,0.44,0.119,0.599c0.08,0.159,0.184,0.287,0.312,0.384
	c0.127,0.098,0.269,0.166,0.421,0.204c0.153,0.038,0.305,0.057,0.454,0.057c0.322,0,0.579-0.06,0.771-0.18
	c0.193-0.12,0.36-0.297,0.504-0.533l0.015,0.015v0.584H74.958z M71.044,95.916v-0.563h-0.646v-1.12h-0.675v1.12h-0.545v0.563h0.545
	v2.647c0,0.122,0.012,0.237,0.034,0.342c0.023,0.104,0.065,0.195,0.123,0.272c0.059,0.076,0.141,0.137,0.245,0.18
	c0.105,0.045,0.242,0.065,0.411,0.065c0.036,0,0.099-0.007,0.188-0.019c0.09-0.013,0.195-0.025,0.318-0.035v-0.53h-0.238
	c-0.035,0-0.077-0.001-0.122-0.004c-0.047-0.002-0.092-0.014-0.135-0.033c-0.044-0.021-0.079-0.053-0.107-0.097
	c-0.029-0.043-0.043-0.104-0.043-0.181v-2.608H71.044z M68.558,95.354h-0.676v4.016h0.676V95.354z M68.558,93.857h-0.676v0.768
	h0.676V93.857z M67.206,95.916v-0.563h-0.645v-1.12h-0.676v1.12H65.34v0.563h0.546v2.647c0,0.122,0.012,0.237,0.034,0.342
	s0.063,0.195,0.122,0.272c0.06,0.076,0.142,0.137,0.246,0.18c0.104,0.045,0.241,0.065,0.411,0.065c0.035,0,0.1-0.007,0.188-0.019
	c0.09-0.013,0.195-0.025,0.319-0.035v-0.53h-0.239c-0.036,0-0.075-0.001-0.122-0.004c-0.045-0.002-0.091-0.014-0.134-0.033
	c-0.044-0.021-0.08-0.053-0.107-0.097c-0.028-0.043-0.042-0.104-0.042-0.181v-2.608H67.206z M62.585,95.354h-0.676v4.016h0.676
	V95.354z M62.585,93.857h-0.676v0.768h0.676V93.857z M60.88,93.857h-0.675v5.511h0.675V93.857z M58.655,98.11
	c-0.006,0.076-0.032,0.16-0.081,0.249c-0.049,0.09-0.117,0.175-0.207,0.258c-0.09,0.082-0.196,0.149-0.322,0.203
	s-0.268,0.081-0.426,0.081c-0.39,0-0.682-0.116-0.876-0.345c-0.194-0.231-0.292-0.557-0.292-0.977h2.933
	c0-0.353-0.035-0.673-0.107-0.963c-0.07-0.288-0.179-0.536-0.322-0.741c-0.143-0.203-0.322-0.362-0.537-0.472
	s-0.469-0.165-0.761-0.165c-0.331,0-0.62,0.058-0.863,0.172c-0.243,0.116-0.442,0.274-0.599,0.477s-0.271,0.438-0.349,0.71
	s-0.115,0.563-0.115,0.876c0,0.292,0.04,0.56,0.123,0.806c0.081,0.245,0.199,0.457,0.353,0.638c0.153,0.179,0.342,0.317,0.565,0.417
	c0.222,0.101,0.473,0.149,0.756,0.149c0.158,0,0.297-0.008,0.414-0.025s0.219-0.04,0.303-0.065c0.085-0.025,0.155-0.055,0.216-0.089
	c0.059-0.033,0.11-0.064,0.157-0.096c0.127-0.082,0.235-0.177,0.321-0.284c0.087-0.107,0.159-0.213,0.216-0.318
	c0.056-0.105,0.1-0.201,0.126-0.291c0.029-0.091,0.045-0.158,0.05-0.204H58.655z M56.451,97.043c0-0.153,0.03-0.304,0.089-0.449
	c0.059-0.146,0.138-0.273,0.238-0.383c0.1-0.111,0.218-0.2,0.354-0.266c0.135-0.065,0.28-0.1,0.434-0.1
	c0.205,0,0.376,0.034,0.515,0.1c0.138,0.065,0.25,0.154,0.337,0.266c0.087,0.109,0.151,0.236,0.192,0.383
	c0.04,0.146,0.066,0.296,0.076,0.449H56.451z M55.262,95.916v-0.563h-0.645v-1.12h-0.675v1.12h-0.546v0.563h0.546v2.647
	c0,0.122,0.012,0.237,0.033,0.342c0.023,0.104,0.065,0.195,0.124,0.272c0.058,0.076,0.141,0.137,0.245,0.18
	c0.104,0.045,0.242,0.065,0.411,0.065c0.035,0,0.099-0.007,0.188-0.019c0.09-0.013,0.196-0.025,0.318-0.035v-0.53h-0.237
	c-0.036,0-0.077-0.001-0.124-0.004c-0.045-0.002-0.09-0.014-0.134-0.033c-0.044-0.021-0.079-0.053-0.107-0.097
	c-0.028-0.043-0.042-0.104-0.042-0.181v-2.608H55.262z M52.774,95.354h-0.676v4.016h0.676V95.354z M52.774,93.857h-0.676v0.768
	h0.676V93.857z M49.159,93.734h-0.606l0.76,1.082h0.698l0.761-1.082h-0.614l-0.499,0.715L49.159,93.734z M51.278,95.906v-0.553
	h-3.11v0.563h2.234l-2.417,2.923v0.53h3.362v-0.561h-2.464L51.278,95.906z M46.457,97.036c0-0.145,0.024-0.281,0.073-0.411
	c0.048-0.131,0.118-0.245,0.207-0.345c0.09-0.101,0.197-0.18,0.322-0.235c0.125-0.056,0.268-0.085,0.427-0.085h0.253v-0.698
	c-0.027-0.01-0.051-0.016-0.078-0.019c-0.024-0.002-0.058-0.004-0.1-0.004c-0.254,0-0.473,0.071-0.656,0.215
	c-0.182,0.143-0.338,0.333-0.472,0.568h-0.015v-0.669h-0.638v4.016h0.676V97.036z M44.753,93.857h-0.676v2.065h-0.014
	c-0.042-0.056-0.093-0.125-0.155-0.204s-0.139-0.155-0.234-0.227c-0.094-0.07-0.207-0.131-0.337-0.18
	c-0.131-0.049-0.289-0.073-0.473-0.073c-0.265,0-0.502,0.051-0.709,0.153c-0.208,0.103-0.383,0.245-0.525,0.427
	c-0.144,0.182-0.253,0.395-0.327,0.636c-0.076,0.243-0.112,0.507-0.112,0.788c0,0.24,0.028,0.492,0.084,0.756
	c0.057,0.264,0.152,0.506,0.288,0.725c0.136,0.221,0.316,0.402,0.541,0.546c0.226,0.143,0.509,0.214,0.853,0.214
	c0.097,0,0.198-0.008,0.303-0.025c0.104-0.018,0.208-0.053,0.308-0.104c0.1-0.052,0.194-0.12,0.287-0.204
	c0.092-0.085,0.175-0.195,0.246-0.334h0.016v0.553h0.636V93.857z M41.913,96.897c0.016-0.173,0.06-0.339,0.135-0.495
	c0.073-0.156,0.184-0.288,0.331-0.396c0.146-0.107,0.349-0.161,0.609-0.161c0.247,0,0.441,0.058,0.584,0.174
	c0.143,0.114,0.252,0.259,0.326,0.433c0.075,0.175,0.122,0.36,0.142,0.557c0.02,0.197,0.031,0.377,0.031,0.54
	c0,0.268-0.037,0.487-0.112,0.662c-0.074,0.173-0.166,0.312-0.275,0.414c-0.111,0.103-0.23,0.175-0.357,0.214
	c-0.129,0.041-0.245,0.063-0.354,0.063c-0.184,0-0.344-0.04-0.479-0.119c-0.136-0.079-0.249-0.188-0.338-0.326
	c-0.09-0.139-0.156-0.303-0.2-0.492c-0.043-0.189-0.064-0.393-0.064-0.614C41.891,97.222,41.897,97.072,41.913,96.897 M37.752,98.11
	c-0.005,0.076-0.031,0.16-0.081,0.249c-0.049,0.09-0.119,0.175-0.207,0.258c-0.089,0.082-0.196,0.149-0.322,0.203
	c-0.126,0.054-0.268,0.081-0.426,0.081c-0.39,0-0.682-0.116-0.876-0.345c-0.194-0.231-0.292-0.557-0.292-0.977h2.932
	c0-0.353-0.036-0.673-0.107-0.963c-0.072-0.288-0.179-0.536-0.323-0.741c-0.142-0.203-0.321-0.362-0.536-0.472
	s-0.469-0.165-0.761-0.165c-0.332,0-0.62,0.058-0.863,0.172c-0.243,0.116-0.443,0.274-0.599,0.477
	c-0.156,0.202-0.272,0.438-0.349,0.71s-0.116,0.563-0.116,0.876c0,0.292,0.042,0.56,0.124,0.806
	c0.082,0.245,0.199,0.457,0.353,0.638c0.154,0.179,0.342,0.317,0.564,0.417c0.223,0.101,0.475,0.149,0.757,0.149
	c0.158,0,0.297-0.008,0.415-0.025c0.116-0.018,0.217-0.04,0.302-0.065s0.156-0.055,0.215-0.089c0.059-0.033,0.111-0.064,0.158-0.096
	c0.126-0.082,0.233-0.177,0.321-0.284s0.159-0.213,0.215-0.318c0.057-0.105,0.099-0.201,0.126-0.291
	c0.029-0.091,0.045-0.158,0.05-0.204H37.752z M35.549,97.043c0-0.153,0.03-0.304,0.088-0.449c0.059-0.146,0.138-0.273,0.238-0.383
	c0.1-0.111,0.218-0.2,0.354-0.266c0.133-0.065,0.279-0.1,0.433-0.1c0.206,0,0.377,0.034,0.515,0.1
	c0.139,0.065,0.25,0.154,0.337,0.266c0.086,0.109,0.151,0.236,0.191,0.383c0.042,0.146,0.067,0.296,0.078,0.449H35.549z
	 M28.625,99.369H29.3v-2.188c0-0.271,0.037-0.495,0.111-0.668c0.075-0.175,0.166-0.312,0.273-0.412
	c0.107-0.099,0.221-0.166,0.346-0.202c0.122-0.035,0.231-0.054,0.329-0.054c0.123,0,0.226,0.023,0.307,0.07
	c0.082,0.044,0.147,0.104,0.196,0.176s0.081,0.152,0.1,0.241c0.018,0.09,0.026,0.176,0.026,0.258v2.778h0.676v-2.448
	c0-0.134,0.023-0.266,0.068-0.396c0.047-0.132,0.111-0.245,0.192-0.346c0.083-0.1,0.182-0.182,0.297-0.242
	c0.114-0.062,0.244-0.092,0.387-0.092c0.287,0,0.481,0.086,0.587,0.256c0.104,0.173,0.157,0.396,0.157,0.673v2.595h0.674v-2.778
	c0-0.283-0.044-0.511-0.134-0.688c-0.089-0.176-0.198-0.313-0.326-0.411c-0.128-0.097-0.264-0.163-0.407-0.198
	c-0.143-0.036-0.27-0.055-0.377-0.055c-0.154,0-0.29,0.016-0.406,0.05c-0.117,0.033-0.222,0.079-0.315,0.135
	c-0.092,0.056-0.179,0.124-0.261,0.207c-0.082,0.081-0.164,0.169-0.245,0.261c-0.032-0.052-0.07-0.114-0.117-0.192
	c-0.045-0.075-0.109-0.147-0.192-0.214c-0.081-0.066-0.183-0.124-0.307-0.173c-0.122-0.049-0.272-0.073-0.452-0.073
	c-0.179,0-0.336,0.025-0.471,0.076c-0.136,0.053-0.253,0.113-0.349,0.186c-0.098,0.071-0.179,0.146-0.242,0.227
	c-0.065,0.078-0.115,0.145-0.15,0.195h-0.016v-0.569h-0.637V99.369z M27.719,96.497c0-0.051-0.013-0.144-0.04-0.279
	c-0.024-0.136-0.088-0.276-0.19-0.422c-0.103-0.146-0.257-0.274-0.461-0.389c-0.205-0.111-0.486-0.168-0.844-0.168
	c-0.2,0-0.391,0.025-0.571,0.076c-0.183,0.053-0.343,0.129-0.484,0.234c-0.142,0.105-0.253,0.238-0.338,0.399
	c-0.084,0.161-0.125,0.352-0.125,0.572c0,0.276,0.083,0.49,0.252,0.642c0.169,0.15,0.395,0.262,0.675,0.332l0.784,0.192
	c0.286,0.073,0.491,0.146,0.614,0.224c0.123,0.076,0.184,0.195,0.184,0.354c0,0.111-0.024,0.208-0.076,0.287
	s-0.12,0.146-0.204,0.196c-0.085,0.052-0.183,0.089-0.292,0.114s-0.227,0.039-0.349,0.039c-0.241,0-0.431-0.028-0.569-0.085
	c-0.139-0.057-0.243-0.126-0.314-0.207c-0.074-0.082-0.119-0.172-0.143-0.27c-0.022-0.097-0.038-0.184-0.042-0.261h-0.653
	c0.005,0.083,0.014,0.174,0.028,0.273c0.011,0.101,0.037,0.202,0.075,0.308c0.039,0.104,0.097,0.205,0.173,0.302
	c0.077,0.098,0.177,0.187,0.304,0.266c0.125,0.079,0.28,0.142,0.468,0.188c0.187,0.046,0.414,0.068,0.679,0.068
	c0.225,0,0.435-0.029,0.63-0.091c0.193-0.062,0.362-0.147,0.502-0.262c0.14-0.111,0.251-0.251,0.333-0.414
	c0.083-0.164,0.123-0.351,0.123-0.561c0-0.271-0.083-0.49-0.249-0.657c-0.167-0.165-0.459-0.3-0.879-0.402l-0.674-0.169
	c-0.134-0.03-0.247-0.061-0.339-0.092c-0.092-0.031-0.167-0.065-0.223-0.104s-0.099-0.085-0.125-0.139
	c-0.029-0.054-0.043-0.121-0.043-0.203c0-0.122,0.031-0.223,0.096-0.299c0.064-0.077,0.14-0.136,0.226-0.173
	c0.087-0.038,0.176-0.064,0.266-0.077c0.089-0.012,0.16-0.02,0.211-0.02c0.214,0,0.384,0.023,0.506,0.069
	c0.124,0.046,0.219,0.104,0.285,0.173c0.065,0.069,0.109,0.144,0.129,0.223c0.021,0.08,0.031,0.149,0.031,0.21H27.719z
	 M20.58,97.596v0.545c0,0.128,0.022,0.271,0.066,0.43c0.043,0.159,0.122,0.309,0.238,0.45c0.114,0.141,0.272,0.258,0.475,0.353
	c0.203,0.094,0.464,0.142,0.788,0.142c0.184,0,0.37-0.023,0.56-0.072s0.36-0.136,0.515-0.262c0.154-0.124,0.277-0.293,0.373-0.502
	c0.094-0.21,0.142-0.477,0.142-0.8v-4.021h-0.744v4.068c0,0.134-0.014,0.258-0.043,0.377c-0.026,0.117-0.074,0.219-0.142,0.303
	c-0.066,0.083-0.156,0.15-0.269,0.199c-0.111,0.05-0.254,0.072-0.429,0.072c-0.262,0-0.464-0.066-0.61-0.198
	c-0.146-0.133-0.22-0.365-0.22-0.699v-0.384H20.58z"/>
<path fill="#B1B3B4" d="M27.879,11.942c-0.706,1.348-1.809,4.519,0.518,5.969C30.138,16.484,29.113,13.903,27.879,11.942
	 M51.49,9.758C48.98,2.433,40.066,0.366,33.537,5.49c-1.56,1.224-2.615,2.145-4.07,4.003c2.427,2.852,2.714,5.111,2.31,6.495
	c-1.104,3.786-9.179,2.087-7.149-4.19c0.221-0.686,0.589-1.327,1.074-2.125c-1.16-1.323-2.837-2.549-4.951-3.48
	c-1.431-0.63-2.954-0.913-4.094-0.984C9.082,4.742,3.798,13.93,4.514,24.773c0.888,13.452,12.819,27.718,27.832,33.097
	c3.976-1.374,11.78-5.824,16.243-12.245c-0.108-0.65-13.548-0.13-14.741-0.063c-2.65,0.151-3.133,0.836-3.466,0.335
	c-0.459-1.492-0.738-9.474,0.059-13.814c0.106-0.581-0.04-0.832-0.541-0.856c-2.731-0.142-3.313-0.086-5.063-0.128
	c-1.15-0.027-0.897-0.819-0.065-1.567c5.312-4.784,12.847-7.683,16.624-14.504c0.783-1.412,15.531,11.473,17.657,15.068
	c0.38,0.641-0.426,1.139-1.035,1.18c-1.975,0.129-2.1,0.433-4.87,0.497c-0.736,0.018-1.075,0.326-1.07,1.059
	c0.023,3.594,0.174,3.679,0.134,6.166c-0.02,1.322-3.28,0.749-4.247,0.735c-4.26-0.063-4.662,0.475-6.35,0.282
	c-0.672-0.338-0.842-0.82-0.891-1.235c-0.149-1.259,0.244-1.19-0.124-5.377c-0.033-0.369-0.307-0.799-0.117-1.524
	c0.258-0.977-0.369-1.361-0.712-1.601l3.202,0.236c0.244,0.125,0.505,0.41,0.526,0.634c0.356,3.786-0.766,5.685-0.818,6.958
	c-0.101,0.583,2.612,0.262,3.037,0.251l2.445,0.035l2.64,0.122c-0.001-0.08-1.589-3.904-1.589-6.566
	c0-1.209,0.149-1.779,1.549-1.708c1.62,0.08,3.272-0.1,5.799-0.224c0.208-0.009-0.113-0.616-0.513-0.965
	c-3.433-2.992-9.898-9.409-12.559-12.199c-3.188,3.197-10.375,9.135-14.741,12.406c-0.583,0.437-0.19,0.799,0.613,0.822
	c1.133,0.032,2.43-0.098,3.364-0.002c0.585,0.058,0.519,0.938,0.445,1.416c-0.241,1.552-1.418,13.39,0.138,13.227
	c3.057,0.217,15.139-0.29,18.918-0.375c-0.956,4.901-9.449,12.775-18.038,14.682C-8.701,46.867-7.189,7.96,16.48,4.841
	c1.841-0.243,6.493-0.77,10.94,2.604c4.062-4.291,8.473-5.281,14.35-4.853c4.464,0.325,11.108,2.815,13.189,6.868L51.49,9.758z"/>
<path fill="#B1B3B4" d="M92.12,66.625v-9.571h1.731v9.71c0,0.629,0.142,1.089,0.422,1.388c0.28,0.297,0.707,0.445,1.286,0.445
	c0.58,0,1.006-0.148,1.284-0.445c0.279-0.299,0.415-0.759,0.415-1.388v-9.71H99v9.571c0,1.263-0.274,2.184-0.825,2.764
	c-0.553,0.583-1.423,0.872-2.615,0.872s-2.062-0.289-2.613-0.872C92.394,68.809,92.12,67.888,92.12,66.625 M82.716,70.099V57.054
	h1.752v6.182l3.083-6.182h1.824l-3.111,6.2l3.111,6.845h-1.886l-3.021-6.702v6.702H82.716z M71.971,63.584
	c0-2.388,0.291-4.102,0.869-5.143c0.583-1.039,1.528-1.558,2.843-1.558c1.313,0,2.255,0.514,2.831,1.549
	c0.575,1.034,0.866,2.751,0.866,5.151c0,2.391-0.291,4.1-0.866,5.13c-0.576,1.03-1.519,1.547-2.831,1.547
	c-1.314,0-2.26-0.517-2.843-1.547C72.262,67.684,71.971,65.975,71.971,63.584 M73.75,63.55c0,1.847,0.149,3.148,0.451,3.908
	c0.299,0.758,0.799,1.14,1.5,1.14c0.696,0,1.187-0.359,1.475-1.083c0.282-0.719,0.425-2.042,0.425-3.965
	c0-1.878-0.146-3.184-0.436-3.925c-0.292-0.739-0.786-1.107-1.482-1.107c-0.702,0-1.199,0.374-1.489,1.118
	C73.896,60.38,73.75,61.686,73.75,63.55 M64.693,63.728v6.371h-1.759V57.054h2.129c1.408,0,2.414,0.262,3.012,0.786
	c0.599,0.525,0.897,1.398,0.897,2.617c0,0.964-0.204,1.718-0.615,2.257c-0.412,0.536-1.025,0.856-1.839,0.958l3.097,6.426h-1.884
	l-2.982-6.371H64.693z M64.693,62.727h0.547c0.714,0,1.22-0.168,1.513-0.5c0.296-0.332,0.442-0.924,0.442-1.769
	c0-0.701-0.141-1.19-0.425-1.461c-0.284-0.272-0.811-0.406-1.582-0.406h-0.495V62.727z M83.397,51.435l1.115-13.045h1.594
	l1.768,9.035l1.813-9.035h1.536l1.136,13.045h-1.626l-0.528-9.15l-1.741,9.15h-1.189l-1.742-9.15l-0.527,9.15H83.397z M73.351,47.96
	V38.39h1.731v9.711c0,0.629,0.141,1.089,0.422,1.388c0.28,0.295,0.707,0.445,1.286,0.445c0.581,0,1.007-0.15,1.284-0.445
	c0.277-0.299,0.415-0.758,0.415-1.388V38.39h1.742v9.571c0,1.263-0.275,2.185-0.826,2.765c-0.554,0.582-1.423,0.873-2.615,0.873
	s-2.063-0.291-2.613-0.873C73.624,50.145,73.351,49.224,73.351,47.96 M62.935,51.435V38.39h2.322c1.776,0,3.025,0.489,3.749,1.462
	c0.724,0.972,1.087,2.656,1.087,5.054c0,2.4-0.363,4.086-1.087,5.066c-0.724,0.975-1.973,1.463-3.749,1.463H62.935z M64.713,49.754
	h0.911c0.988,0,1.684-0.357,2.086-1.072c0.403-0.714,0.604-1.98,0.604-3.794c0-1.812-0.198-3.076-0.599-3.786
	c-0.398-0.709-1.098-1.065-2.092-1.065h-0.911V49.754z"/>
<path fill="#B1B3B4" d="M76.01,36.239c0,0.23,0.078,0.423,0.233,0.58c0.152,0.159,0.337,0.236,0.547,0.236
	c0.211,0,0.395-0.077,0.547-0.236c0.156-0.156,0.231-0.345,0.231-0.564s-0.075-0.408-0.226-0.566
	c-0.153-0.157-0.337-0.234-0.553-0.234c-0.21,0-0.395,0.075-0.547,0.231C76.088,35.837,76.01,36.022,76.01,36.239 M75.452,36.232
	c0-0.359,0.132-0.667,0.393-0.926c0.263-0.261,0.571-0.39,0.931-0.39c0.361,0,0.675,0.131,0.933,0.392
	c0.262,0.263,0.39,0.579,0.39,0.953c0,0.376-0.128,0.695-0.39,0.956c-0.258,0.259-0.568,0.39-0.925,0.39
	c-0.37,0-0.683-0.13-0.941-0.395C75.582,36.952,75.452,36.623,75.452,36.232"/>
</svg>
