<?xml version="1.0" encoding="utf-8"?>
<!-- Generator: Adobe Illustrator 15.1.0, SVG Export Plug-In . SVG Version: 6.00 Build 0)  -->
<!DOCTYPE svg PUBLIC "-//W3C//DTD SVG 1.1//EN" "http://www.w3.org/Graphics/SVG/1.1/DTD/svg11.dtd">
<svg version="1.1" id="Vrstva_1" xmlns="http://www.w3.org/2000/svg" xmlns:xlink="http://www.w3.org/1999/xlink" x="0px" y="0px"
	 width="93px" height="120px" viewBox="0 0 93 120" enable-background="new 0 0 93 120" xml:space="preserve">
<path fill="#B1B3B4" d="M55.207,25.557c0.181-0.795,0.521-1.463,1.022-2.004c0.588-0.639,1.296-0.957,2.114-0.957
	c0.821,0,1.382,0.318,1.68,0.957c0.253,0.542,0.29,1.209,0.108,2.004c-0.182,0.795-0.523,1.463-1.022,2.004
	c-0.59,0.638-1.295,0.958-2.115,0.958c-0.819,0-1.38-0.319-1.679-0.958C55.063,27.02,55.026,26.353,55.207,25.557 M56.986,25.557
	c-0.231,1.012-0.119,1.519,0.337,1.519s0.799-0.506,1.031-1.519c0.229-1.012,0.117-1.519-0.34-1.519
	C57.56,24.039,57.217,24.545,56.986,25.557"/>
<path fill="#B1B3B4" d="M52.49,22.698l0.839,3.025c-0.021-0.095,0.005-0.314,0.037-0.513c0.018-0.125,0.152-0.712,0.152-0.712
	l0.466-1.8h1.793l-1.456,5.732H52.53l-0.842-3.025c0.022,0.094-0.004,0.315-0.034,0.513c-0.021,0.125-0.154,0.71-0.154,0.71
	l-0.465,1.802h-1.793l1.456-5.732H52.49z"/>
<path fill="#B1B3B4" d="M41.841,26.77l0.475-2.035h1.662l-0.522,2.481c-0.262,1.207-1.528,1.521-2.375,1.507
	c-1.374-0.021-1.767-1.061-1.654-1.512l0.582-2.47l1.663-0.006l-0.487,2.035c-0.022,0.115,0.115,0.252,0.295,0.252
	C41.661,27.021,41.803,26.927,41.841,26.77"/>
<polygon fill="#B1B3B4" points="36.237,22.698 42.145,22.7 41.725,24.42 39.13,24.42 38.162,28.43 36.201,28.43 37.134,24.429 
	35.819,24.429 "/>
<polygon fill="#B1B3B4" points="42.813,22.7 45.74,22.7 46.042,25.842 47.347,22.701 49.41,22.701 46.569,28.433 44.715,28.433 
	44.021,24.419 42.428,24.419 "/>
<path fill="#B1B3B4" d="M66.949,24.253l-0.663,2.63c0.658,0,1.015-0.225,1.285-1.702C67.684,24.572,67.437,24.253,66.949,24.253
	 M63.518,26.238c0.3,0.456,0.5,1.005,0.717,1.526l1.287-5.066h1.798c1.604,0,2.306,1.152,1.964,2.72
	c-0.473,2.158-1.369,3.012-3.333,3.012l-1.403,0.001h-1.949c-0.247-0.713-0.523-1.403-0.711-2.045l-0.439,2.029h-1.88l1.448-5.716
	h2.134c0.509,0,1.608,0.438,1.681,1.777C64.895,25.63,63.944,26.246,63.518,26.238 M62.396,24.25
	c-0.039,0.254-0.108,0.527-0.175,0.786h0.319c0.142,0.003,0.468-0.181,0.468-0.443c0-0.07-0.046-0.346-0.296-0.343H62.396z"/>
<path fill="#B1B3B4" d="M55.408,16.551c1.649-3.534,5.093-6.061,9.25-6.061c5.724,0,10.361,4.635,10.361,10.352
	c0,2.543-1.04,4.745-2.563,6.547c-0.07,0.087-0.149,0.089-0.214,0.04c-0.063-0.051-0.066-0.138-0.011-0.207l0.011-0.011
	c1.422-1.692,2.159-3.988,2.159-6.369c0-5.376-4.361-9.732-9.743-9.732c-3.911,0-7.427,2.242-8.976,5.567
	c-0.042,0.074-0.137,0.116-0.21,0.077C55.406,16.72,55.367,16.63,55.408,16.551"/>
<path fill="#B1B3B4" d="M69.227,37.794l-0.055,0.709l0.119,0.008c0.598,0.182,0.862,0.683,0.799,1.495l-0.007,0.095l0.632,0.048
	l0.097-1.255l4.393,0.334l0.074-0.974L69.227,37.794z M73.452,45.471c0.494-0.161,0.826-0.542,0.982-1.13
	c0.157-0.587,0.058-1.084-0.294-1.468c-0.391-0.433-1.137-0.791-2.23-1.081c-1.094-0.289-1.922-0.349-2.476-0.167
	c-0.493,0.16-0.825,0.542-0.982,1.13c-0.156,0.588-0.057,1.084,0.292,1.468c0.392,0.433,1.142,0.79,2.234,1.079
	C72.071,45.593,72.898,45.652,73.452,45.471 M69.451,43.704c-0.311-0.199-0.42-0.458-0.337-0.772
	c0.085-0.315,0.309-0.486,0.677-0.512c0.37-0.017,0.999,0.086,1.867,0.317c0.872,0.231,1.462,0.45,1.764,0.645
	c0.317,0.208,0.433,0.47,0.349,0.784c-0.081,0.314-0.313,0.484-0.693,0.509c-0.357,0.02-0.979-0.083-1.85-0.314
	C70.359,44.129,69.76,43.909,69.451,43.704 M71.374,50.407c0.516-0.066,0.912-0.382,1.173-0.931
	c0.263-0.547,0.257-1.053-0.017-1.497c-0.305-0.497-0.974-0.984-1.994-1.471c-1.021-0.486-1.822-0.696-2.4-0.62
	c-0.516,0.067-0.913,0.38-1.175,0.931c-0.262,0.547-0.257,1.053,0.017,1.497c0.306,0.496,0.975,0.984,1.995,1.471
	C69.993,50.272,70.795,50.483,71.374,50.407 M67.767,47.933c-0.268-0.251-0.327-0.527-0.187-0.821
	c0.14-0.292,0.391-0.421,0.759-0.377c0.365,0.05,0.963,0.268,1.776,0.654s1.352,0.711,1.613,0.958
	c0.274,0.263,0.341,0.541,0.202,0.835c-0.142,0.293-0.4,0.417-0.777,0.371c-0.356-0.046-0.947-0.261-1.76-0.647
	C68.582,48.519,68.032,48.192,67.767,47.933 M67.274,53.722l-1.208-2.586l2.021,1.474L67.274,53.722z M68.719,53.068l1.1,0.803
	l0.546-0.747l-1.102-0.803l0.391-0.532l-0.631-0.46l-0.387,0.532l-3.173-2.312l-0.586,0.802l1.884,3.972l0.679,0.496L68.719,53.068z
	 M62.388,53.294l-0.518,0.485l0.082,0.089c0.315,0.537,0.171,1.084-0.424,1.639l-0.07,0.065l0.436,0.462l0.918-0.86l3.015,3.211
	l0.711-0.667L62.388,53.294z M57.765,62.466c-0.352-0.251-0.738-0.814-1.16-1.686c-0.414-0.855-0.609-1.493-0.584-1.915
	c0.011-0.33,0.171-0.568,0.473-0.713c0.301-0.147,0.588-0.124,0.862,0.068c0.338,0.246,0.717,0.794,1.133,1.65
	c0.42,0.872,0.624,1.524,0.61,1.95c-0.016,0.34-0.176,0.58-0.478,0.725C58.32,62.692,58.033,62.668,57.765,62.466 M59.996,61.843
	c0.063-0.592-0.139-1.388-0.618-2.375c-0.477-0.986-0.975-1.64-1.485-1.964c-0.513-0.313-1.088-0.321-1.721-0.016
	c-0.632,0.306-0.983,0.76-1.049,1.354c-0.068,0.604,0.136,1.4,0.612,2.387c0.479,0.986,0.976,1.641,1.49,1.955
	c0.508,0.325,1.084,0.332,1.716,0.023C59.576,62.903,59.928,62.447,59.996,61.843 M50.767,63.914
	c0.119,0.506,0.332,0.879,0.639,1.132c0.4,0.328,0.933,0.413,1.601,0.257c1.309-0.307,1.827-1.061,1.548-2.255
	c-0.097-0.408-0.266-0.712-0.515-0.906c-0.249-0.197-0.605-0.325-1.068-0.385l-0.697-0.083c-0.354-0.04-0.609-0.119-0.78-0.247
	c-0.176-0.117-0.29-0.3-0.35-0.55c-0.135-0.576,0.064-0.921,0.599-1.047c0.56-0.132,0.901,0.087,1.037,0.663l0.029,0.124
	l0.951-0.224l-0.031-0.133c-0.245-1.042-0.928-1.436-2.053-1.171c-0.569,0.134-0.985,0.389-1.25,0.759
	c-0.265,0.371-0.333,0.826-0.208,1.36c0.101,0.426,0.28,0.744,0.534,0.957c0.252,0.213,0.615,0.34,1.093,0.385l0.704,0.071
	c0.318,0.033,0.554,0.107,0.713,0.221c0.188,0.132,0.321,0.347,0.388,0.64c0.058,0.24,0.029,0.46-0.084,0.653
	c-0.127,0.213-0.328,0.359-0.612,0.424c-0.651,0.153-1.063-0.137-1.235-0.862l-0.034-0.149l-0.951,0.225L50.767,63.914z
	 M49.326,65.791l-0.486-6.097l-0.976,0.078l0.486,6.095L49.326,65.791z M42.503,65.756l2.706-6.073l-0.757-0.092l-2.706,6.072
	L42.503,65.756z M26.263,52.533c-0.292,0.05-0.538-0.058-0.726-0.323c-0.316-0.438-0.115-0.908,0.598-1.417
	c0.703-0.502,1.213-0.541,1.528-0.102c0.159,0.222,0.186,0.467,0.068,0.73c-0.101,0.241-0.305,0.471-0.605,0.684
	C26.784,52.35,26.498,52.492,26.263,52.533 M23.166,53.86c0.434,0.605,0.995,0.847,1.692,0.717c0.563-0.096,1.261-0.447,2.105-1.048
	c0.787-0.563,1.295-1.063,1.521-1.498c0.268-0.539,0.194-1.097-0.218-1.675c-0.722-1.011-1.689-1.079-2.896-0.218
	c-0.474,0.34-0.758,0.721-0.848,1.143c-0.083,0.397-0.004,0.771,0.25,1.127c0.324,0.452,0.728,0.649,1.209,0.588l0.002,0.03
	c-0.502,0.359-0.904,0.593-1.203,0.69c-0.468,0.157-0.829,0.066-1.062-0.262c-0.13-0.182-0.159-0.37-0.078-0.566
	c0.063-0.16,0.174-0.302,0.342-0.421l-0.569-0.795C22.612,52.245,22.532,52.974,23.166,53.86 M20.167,45.181
	c0.29-0.316,0.899-0.63,1.816-0.941c0.902-0.306,1.559-0.419,1.973-0.343c0.326,0.052,0.544,0.241,0.651,0.556
	c0.108,0.317,0.049,0.6-0.175,0.847c-0.284,0.304-0.877,0.614-1.777,0.917c-0.917,0.312-1.592,0.431-2.013,0.367
	c-0.335-0.058-0.554-0.247-0.661-0.564C19.873,45.705,19.932,45.423,20.167,45.181 M20.509,47.47
	c0.581,0.139,1.396,0.032,2.436-0.318c1.04-0.352,1.75-0.765,2.135-1.229c0.375-0.472,0.453-1.04,0.227-1.705
	c-0.226-0.665-0.634-1.07-1.215-1.208c-0.592-0.144-1.407-0.039-2.447,0.313c-1.039,0.353-1.75,0.765-2.124,1.234
	c-0.385,0.466-0.464,1.034-0.238,1.7C19.509,46.922,19.917,47.327,20.509,47.47 M19.547,38.146
	c-0.519,0.063-0.914,0.232-1.199,0.508c-0.371,0.364-0.514,0.882-0.431,1.563c0.161,1.334,0.855,1.932,2.073,1.785
	c0.417-0.05,0.737-0.185,0.961-0.409c0.222-0.226,0.389-0.565,0.497-1.018l0.16-0.684c0.079-0.347,0.187-0.592,0.333-0.748
	c0.135-0.163,0.332-0.255,0.587-0.287c0.587-0.072,0.909,0.165,0.975,0.709c0.07,0.57-0.187,0.886-0.773,0.957l-0.127,0.015
	l0.118,0.969l0.136-0.016c1.064-0.129,1.531-0.764,1.391-1.913c-0.069-0.577-0.278-1.017-0.617-1.322
	c-0.34-0.304-0.787-0.422-1.331-0.356c-0.434,0.052-0.771,0.197-1.011,0.424c-0.239,0.229-0.405,0.576-0.503,1.045l-0.151,0.691
	c-0.065,0.311-0.166,0.539-0.296,0.683c-0.152,0.172-0.381,0.279-0.678,0.315c-0.247,0.03-0.461-0.022-0.641-0.155
	c-0.199-0.147-0.32-0.366-0.356-0.655c-0.08-0.663,0.252-1.04,0.994-1.13l0.153-0.02l-0.118-0.968L19.547,38.146z M17.824,36.601
	l6.119,0.111l0.019-0.975l-6.119-0.112L17.824,36.601z M26.297,56.674c-0.097,0.511,0.078,0.986,0.518,1.406
	c0.439,0.419,0.921,0.573,1.428,0.454c0.566-0.135,1.242-0.616,2.024-1.432c0.781-0.818,1.232-1.512,1.341-2.083
	c0.098-0.511-0.077-0.987-0.517-1.407c-0.438-0.419-0.922-0.574-1.428-0.453c-0.566,0.133-1.241,0.616-2.023,1.431
	C26.857,55.408,26.406,56.103,26.297,56.674 M29.779,54.028c0.324-0.176,0.604-0.146,0.839,0.079
	c0.235,0.225,0.278,0.502,0.122,0.84c-0.163,0.329-0.558,0.83-1.181,1.479c-0.621,0.65-1.097,1.061-1.414,1.231
	c-0.336,0.179-0.623,0.153-0.858-0.072c-0.234-0.225-0.272-0.509-0.109-0.851c0.157-0.326,0.545-0.819,1.167-1.468
	C28.967,54.617,29.45,54.2,29.779,54.028 M30.364,60.207c0,0.52,0.26,0.954,0.772,1.283c0.511,0.331,1.013,0.389,1.488,0.176
	c0.531-0.238,1.102-0.839,1.716-1.789c0.613-0.949,0.925-1.716,0.924-2.299c-0.001-0.52-0.261-0.953-0.772-1.283
	c-0.512-0.329-1.013-0.388-1.489-0.174c-0.532,0.237-1.103,0.837-1.717,1.788C30.673,58.858,30.361,59.625,30.364,60.207
	 M33.282,56.952c0.284-0.234,0.563-0.257,0.838-0.081c0.273,0.177,0.368,0.441,0.278,0.8c-0.097,0.356-0.39,0.921-0.879,1.677
	c-0.488,0.754-0.878,1.248-1.157,1.475c-0.296,0.237-0.582,0.268-0.855,0.091c-0.273-0.176-0.364-0.448-0.269-0.814
	c0.092-0.349,0.381-0.908,0.87-1.662C32.597,57.682,32.991,57.182,33.282,56.952 M39.001,58.543l-0.662-0.264l-0.044,0.112
	c-0.354,0.514-0.91,0.615-1.666,0.313l-0.088-0.035l-0.235,0.589l1.172,0.466l-1.632,4.089l0.908,0.36L39.001,58.543z
	 M11.708,36.184c0-19.126,15.518-34.629,34.662-34.629l-0.002,15.708c-10.458,0-18.938,8.471-18.938,18.92
	c0,10.449,8.479,18.918,18.938,18.918c10.458,0,18.937-8.469,18.937-18.918l15.726,0.001c0,19.125-15.52,34.628-34.66,34.628
	C27.226,70.813,11.708,55.309,11.708,36.184"/>
<polygon fill="#B1B3B4" points="33.693,40.326 33.693,37.523 34.452,37.523 34.452,37.089 32.404,37.089 32.404,37.523 
	33.176,37.523 33.176,40.326 "/>
<path fill="#B1B3B4" d="M35.541,36.326h-0.435v0.49h0.435V36.326z M36.294,36.326h-0.435v0.49h0.435V36.326z M34.706,39.369
	c0,0.68,0.332,1.021,0.994,1.021c0.659,0,0.989-0.341,0.989-1.021v-2.279h-0.518v2.321c0,0.393-0.159,0.589-0.472,0.589
	c-0.318,0-0.478-0.196-0.478-0.589v-2.321h-0.516V39.369z"/>
<polygon fill="#B1B3B4" points="38.31,40.326 39.126,37.089 38.577,37.089 37.996,39.673 37.987,39.673 37.437,37.089 
	36.888,37.089 37.651,40.326 "/>
<polygon fill="#B1B3B4" points="40.945,40.326 40.945,37.851 41.889,40.326 42.525,40.326 42.525,37.089 42.034,37.089 42.034,39.5 
	41.09,37.089 40.456,37.089 40.456,40.326 "/>
<path fill="#B1B3B4" d="M43.663,39.763c-0.108-0.199-0.163-0.556-0.163-1.069c0-0.503,0.055-0.853,0.163-1.048
	c0.082-0.153,0.214-0.229,0.391-0.229c0.178,0,0.308,0.077,0.395,0.229c0.104,0.196,0.159,0.545,0.159,1.048
	c0,0.513-0.054,0.871-0.159,1.069C44.362,39.923,44.232,40,44.054,40C43.877,40,43.745,39.923,43.663,39.763 M44.871,39.981
	c0.168-0.268,0.255-0.693,0.255-1.274c0-0.581-0.087-1.006-0.255-1.278c-0.173-0.267-0.446-0.405-0.817-0.405
	c-0.372,0-0.645,0.138-0.812,0.405c-0.172,0.272-0.258,0.698-0.258,1.278c0,0.581,0.086,1.006,0.258,1.274
	c0.167,0.272,0.44,0.408,0.812,0.408C44.425,40.39,44.698,40.254,44.871,39.981"/>
<path fill="#B1B3B4" d="M46.101,37.479h0.44c0.327,0,0.489,0.176,0.489,0.526c0,0.163-0.044,0.289-0.136,0.385
	c-0.09,0.096-0.218,0.14-0.38,0.14h-0.414V37.479z M46.101,40.325v-1.405h0.422c0.173,0,0.295,0.042,0.364,0.118
	c0.067,0.078,0.104,0.209,0.107,0.391c0.015,0.372,0.02,0.575,0.024,0.611c0.013,0.141,0.046,0.237,0.086,0.285h0.585
	c-0.095-0.063-0.149-0.159-0.154-0.28c-0.008-0.286-0.013-0.503-0.018-0.657c-0.014-0.408-0.186-0.63-0.508-0.662v-0.01
	c0.172-0.027,0.309-0.113,0.404-0.262c0.09-0.141,0.135-0.317,0.135-0.531c0-0.284-0.081-0.503-0.24-0.644
	c-0.142-0.126-0.335-0.189-0.581-0.189h-1.143v3.236H46.101z"/>
<path fill="#B1B3B4" d="M48.94,40.325c0.469,0,0.787-0.148,0.953-0.448c0.128-0.231,0.192-0.621,0.192-1.169
	c0-0.549-0.064-0.939-0.192-1.17c-0.166-0.3-0.484-0.448-0.953-0.448H48.02v3.235H48.94z M48.963,37.478
	c0.224,0,0.383,0.091,0.473,0.272c0.085,0.181,0.133,0.5,0.133,0.958c0,0.462-0.048,0.784-0.142,0.97
	c-0.091,0.172-0.245,0.258-0.464,0.258h-0.425v-2.458H48.963z"/>
<path fill="#B1B3B4" d="M53.106,39.219c0,0.522-0.158,0.78-0.48,0.78c-0.199,0-0.341-0.086-0.417-0.264
	c-0.091-0.194-0.137-0.54-0.137-1.042c0-0.5,0.046-0.844,0.137-1.03c0.076-0.163,0.218-0.244,0.417-0.249
	c0.31-0.005,0.463,0.204,0.463,0.63V38.1h0.516v-0.06c0-0.675-0.325-1.016-0.973-1.016c-0.399,0-0.684,0.137-0.845,0.408
	c-0.155,0.254-0.232,0.681-0.232,1.275c0,0.593,0.077,1.02,0.232,1.274c0.159,0.271,0.44,0.407,0.839,0.407
	c0.354,0,0.618-0.118,0.786-0.358c0.14-0.199,0.214-0.466,0.214-0.797v-0.069h-0.52V39.219z"/>
<polygon fill="#B1B3B4" points="55.774,40.326 55.774,39.89 54.505,39.89 54.505,38.856 55.667,38.856 55.667,38.421 54.505,38.421 
	54.505,37.523 55.74,37.523 55.74,37.089 53.989,37.089 53.989,40.326 "/>
<path fill="#B1B3B4" d="M56.688,37.479h0.441c0.326,0,0.49,0.176,0.49,0.526c0,0.163-0.046,0.289-0.137,0.385
	s-0.219,0.14-0.382,0.14h-0.413V37.479z M56.688,40.326v-1.406h0.424c0.172,0,0.294,0.042,0.361,0.118
	c0.069,0.078,0.104,0.209,0.109,0.391c0.014,0.372,0.019,0.575,0.021,0.611c0.016,0.141,0.047,0.237,0.088,0.286h0.585
	c-0.096-0.063-0.151-0.16-0.153-0.281c-0.011-0.286-0.015-0.502-0.02-0.657c-0.014-0.408-0.186-0.63-0.508-0.662v-0.01
	c0.173-0.027,0.309-0.113,0.404-0.262c0.09-0.141,0.135-0.317,0.135-0.531c0-0.285-0.083-0.503-0.239-0.645
	c-0.143-0.126-0.336-0.189-0.582-0.189H56.17v3.237H56.688z"/>
<polygon fill="#B1B3B4" points="59.574,40.326 59.574,37.523 60.331,37.523 60.331,37.089 58.284,37.089 58.284,37.523 
	59.056,37.523 59.056,40.326 "/>
<path fill="#B1B3B4" d="M43.378,44.356v-1.705h-1.034v0.389h0.544c0,0.36-0.041,0.614-0.123,0.762
	c-0.082,0.151-0.222,0.228-0.417,0.228c-0.187,0-0.313-0.087-0.392-0.263c-0.086-0.195-0.132-0.544-0.132-1.043
	c0-0.493,0.051-0.833,0.147-1.029c0.08-0.167,0.221-0.249,0.417-0.249c0.159,0,0.281,0.058,0.358,0.171
	c0.063,0.097,0.096,0.214,0.096,0.355v0.076h0.489V41.99c0-0.224-0.054-0.414-0.168-0.577c-0.168-0.24-0.426-0.357-0.78-0.357
	c-0.373,0-0.645,0.135-0.817,0.402c-0.173,0.272-0.259,0.699-0.259,1.278c0,0.59,0.073,1.017,0.218,1.274
	c0.15,0.272,0.399,0.408,0.749,0.408c0.186,0,0.335-0.036,0.449-0.108c0.1-0.069,0.191-0.177,0.263-0.332v0.376H43.378z"/>
<path fill="#B1B3B4" d="M44.304,44.356v-1.637c0-0.149,0.041-0.273,0.118-0.358c0.073-0.078,0.164-0.118,0.269-0.118
	c0.199,0,0.299,0.145,0.299,0.44v1.673h0.489v-1.637c0-0.149,0.042-0.273,0.123-0.358c0.073-0.078,0.163-0.118,0.269-0.118
	c0.194,0,0.294,0.145,0.294,0.44v1.673h0.49V42.5c0-0.43-0.2-0.647-0.594-0.647c-0.263,0-0.467,0.123-0.617,0.372
	c-0.085-0.249-0.275-0.372-0.566-0.372c-0.258,0-0.454,0.118-0.585,0.35h-0.015v-0.287h-0.463v2.44H44.304z"/>
<path fill="#B1B3B4" d="M47.693,42.484c0.068-0.16,0.186-0.241,0.362-0.241c0.141,0,0.242,0.063,0.301,0.195
	c0.054,0.132,0.08,0.359,0.08,0.69c0,0.303-0.026,0.52-0.076,0.656c-0.063,0.164-0.176,0.246-0.335,0.246
	c-0.16,0-0.268-0.077-0.332-0.236c-0.055-0.131-0.082-0.345-0.082-0.629C47.611,42.841,47.639,42.615,47.693,42.484 M47.611,44.356
	v-0.3h0.009c0.098,0.24,0.277,0.363,0.535,0.363c0.532,0,0.8-0.439,0.8-1.314c0-0.49-0.077-0.835-0.235-1.034
	c-0.122-0.144-0.295-0.217-0.523-0.217c-0.274,0-0.462,0.118-0.558,0.35v-1.084h-0.489v3.237H47.611z"/>
<polygon fill="#B1B3B4" points="49.882,44.356 49.882,42.851 50.833,42.851 50.833,44.356 51.351,44.356 51.351,41.119 
	50.833,41.119 50.833,42.416 49.882,42.416 49.882,41.119 49.362,41.119 49.362,44.356 "/>
<path fill="#B1B3B4" d="M46.373,0.703L46.373,0.703l-0.003,0.001h-0.008V0.703c-9.808,0.001-18.69,3.975-25.122,10.398
	c-6.426,6.419-10.404,15.288-10.404,25.08h0.001v0.003v0.008h-0.001c0.001,9.789,3.977,18.655,10.402,25.073
	c6.432,6.425,15.317,10.399,25.127,10.399h0.005h0.008c9.807,0,18.69-3.975,25.12-10.396c6.426-6.421,10.403-15.29,10.405-25.08
	H81.9v-0.003v-0.008h0.002c-0.002-9.788-3.978-18.655-10.404-25.073C65.068,4.678,56.182,0.703,46.373,0.703 M46.369,0h0.003v0.001
	c9.991,0.001,19.041,4.05,25.588,10.593c6.553,6.546,10.606,15.592,10.608,25.582h0.003v0.008v0.003h-0.003
	c0,9.992-4.058,19.041-10.61,25.589c-6.549,6.54-15.595,10.586-25.582,10.591v0.002h-0.008h-0.005v-0.002
	c-9.99,0-19.039-4.051-25.589-10.595c-6.552-6.546-10.606-15.592-10.609-25.581h-0.001v-0.008v-0.003h0.001
	c0.001-9.994,4.058-19.042,10.611-25.589C27.327,4.051,36.373,0.003,46.361,0.001V0H46.369z"/>
<path fill="#B1B3B4" d="M92.823,118.511v-0.595h-0.807v-3.571h-0.572l-2.52,3.493v0.673h2.402v1.34h0.689v-1.34H92.823z
	 M91.312,115.418h0.016v2.498h-1.77L91.312,115.418z M87.422,118.795c-0.184,0.392-0.476,0.586-0.87,0.586
	c-0.399,0-0.689-0.194-0.875-0.586c-0.187-0.394-0.278-0.933-0.278-1.622s0.092-1.23,0.278-1.621
	c0.186-0.392,0.476-0.587,0.875-0.587c0.395,0,0.687,0.195,0.87,0.587c0.188,0.391,0.279,0.932,0.279,1.621
	S87.609,118.401,87.422,118.795 M88.363,116.248c-0.05-0.328-0.142-0.634-0.277-0.916c-0.137-0.281-0.326-0.517-0.573-0.704
	c-0.244-0.188-0.566-0.283-0.961-0.283c-0.399,0-0.72,0.096-0.964,0.283c-0.247,0.188-0.438,0.423-0.576,0.704
	c-0.138,0.282-0.23,0.588-0.278,0.916c-0.047,0.329-0.071,0.638-0.071,0.925c0,0.288,0.024,0.594,0.071,0.924
	c0.048,0.33,0.141,0.634,0.278,0.916c0.139,0.282,0.329,0.518,0.576,0.705c0.244,0.188,0.564,0.282,0.964,0.282
	c0.395,0,0.717-0.094,0.961-0.282c0.247-0.188,0.437-0.423,0.573-0.705c0.136-0.282,0.228-0.586,0.277-0.916
	s0.074-0.636,0.074-0.924C88.438,116.886,88.413,116.577,88.363,116.248 M83.07,118.795c-0.187,0.392-0.479,0.586-0.873,0.586
	c-0.399,0-0.688-0.194-0.875-0.586c-0.184-0.394-0.278-0.933-0.278-1.622s0.095-1.23,0.278-1.621
	c0.187-0.392,0.476-0.587,0.875-0.587c0.395,0,0.687,0.195,0.873,0.587c0.185,0.391,0.276,0.932,0.276,1.621
	S83.255,118.401,83.07,118.795 M84.009,116.248c-0.05-0.328-0.142-0.634-0.277-0.916c-0.137-0.281-0.326-0.517-0.571-0.704
	c-0.246-0.188-0.568-0.283-0.963-0.283c-0.399,0-0.72,0.096-0.964,0.283c-0.247,0.188-0.438,0.423-0.576,0.704
	c-0.138,0.282-0.23,0.588-0.278,0.916c-0.047,0.329-0.071,0.638-0.071,0.925c0,0.288,0.024,0.594,0.071,0.924
	c0.048,0.33,0.141,0.634,0.278,0.916c0.139,0.282,0.329,0.518,0.576,0.705c0.244,0.188,0.564,0.282,0.964,0.282
	c0.395,0,0.717-0.094,0.963-0.282c0.245-0.188,0.435-0.423,0.571-0.705c0.136-0.282,0.228-0.586,0.277-0.916
	s0.075-0.636,0.075-0.924C84.084,116.886,84.059,116.577,84.009,116.248 M76.699,116.319c0.004-0.095,0.017-0.218,0.035-0.372
	c0.018-0.154,0.064-0.304,0.137-0.451c0.072-0.145,0.183-0.271,0.329-0.375s0.348-0.156,0.61-0.156c0.204,0,0.375,0.03,0.514,0.094
	c0.138,0.063,0.25,0.142,0.337,0.238c0.086,0.097,0.147,0.204,0.183,0.321c0.037,0.117,0.055,0.231,0.055,0.341
	c0,0.183-0.023,0.334-0.073,0.458c-0.05,0.122-0.121,0.229-0.212,0.325c-0.091,0.094-0.197,0.18-0.32,0.259
	c-0.123,0.078-0.258,0.158-0.403,0.241l-0.729,0.423c-0.182,0.111-0.351,0.232-0.504,0.365c-0.154,0.133-0.29,0.287-0.403,0.462
	c-0.115,0.174-0.205,0.373-0.271,0.594c-0.066,0.224-0.104,0.478-0.114,0.765h3.768v-0.649h-2.991
	c0.005-0.052,0.022-0.117,0.055-0.195c0.03-0.078,0.08-0.166,0.147-0.259c0.068-0.094,0.163-0.192,0.284-0.294
	c0.118-0.103,0.272-0.204,0.46-0.309l0.572-0.313c0.204-0.111,0.396-0.221,0.575-0.333c0.18-0.113,0.337-0.239,0.471-0.381
	c0.132-0.141,0.236-0.302,0.313-0.484c0.075-0.183,0.113-0.397,0.113-0.644c0-0.254-0.044-0.485-0.133-0.688
	c-0.09-0.204-0.212-0.378-0.368-0.518c-0.156-0.142-0.341-0.249-0.55-0.325c-0.207-0.076-0.432-0.114-0.673-0.114
	c-0.1,0-0.214,0.009-0.349,0.024c-0.132,0.017-0.27,0.045-0.41,0.09c-0.142,0.044-0.279,0.111-0.417,0.199
	c-0.135,0.089-0.256,0.207-0.367,0.353c-0.109,0.147-0.197,0.326-0.263,0.541c-0.063,0.214-0.097,0.47-0.097,0.768H76.699z
	 M72.963,119.851v-4.095h-0.689v2.256c0,0.151-0.019,0.306-0.055,0.465s-0.098,0.306-0.183,0.438
	c-0.087,0.135-0.202,0.243-0.346,0.329c-0.144,0.088-0.324,0.129-0.545,0.129c-0.108,0-0.212-0.014-0.308-0.046
	c-0.098-0.031-0.181-0.083-0.252-0.152c-0.071-0.071-0.126-0.163-0.167-0.278c-0.043-0.115-0.063-0.255-0.063-0.424v-2.716h-0.689
	v2.943c0,0.246,0.039,0.45,0.123,0.611c0.079,0.161,0.185,0.293,0.315,0.391c0.13,0.1,0.273,0.17,0.431,0.209
	c0.156,0.038,0.311,0.058,0.463,0.058c0.328,0,0.591-0.061,0.786-0.184c0.197-0.122,0.367-0.304,0.514-0.544l0.016,0.016v0.595
	H72.963z M67.482,117.283l1.565-1.527H68.17l-1.761,1.729v-3.257h-0.667v5.622h0.667V118.3l0.571-0.517l1.276,2.067h0.884
	L67.482,117.283z M61.251,118.586c0.075,0.259,0.191,0.491,0.349,0.692c0.156,0.204,0.354,0.368,0.592,0.494
	c0.237,0.126,0.521,0.188,0.85,0.188s0.612-0.063,0.85-0.188c0.238-0.126,0.436-0.29,0.592-0.494
	c0.157-0.201,0.271-0.434,0.349-0.692c0.075-0.259,0.112-0.52,0.112-0.787c0-0.266-0.037-0.527-0.112-0.786
	c-0.077-0.259-0.191-0.49-0.349-0.693c-0.156-0.204-0.354-0.367-0.592-0.493c-0.237-0.126-0.521-0.188-0.85-0.188
	s-0.612,0.062-0.85,0.188c-0.238,0.126-0.436,0.289-0.592,0.493c-0.157,0.203-0.273,0.435-0.349,0.693s-0.112,0.521-0.112,0.786
	C61.139,118.066,61.176,118.327,61.251,118.586 M61.898,117.325c0.031-0.18,0.089-0.351,0.176-0.512
	c0.085-0.162,0.207-0.3,0.364-0.413c0.156-0.111,0.356-0.168,0.603-0.168c0.245,0,0.446,0.057,0.603,0.168
	c0.157,0.113,0.279,0.251,0.364,0.413c0.087,0.161,0.145,0.332,0.176,0.512c0.032,0.181,0.048,0.337,0.048,0.474
	s-0.016,0.295-0.048,0.474c-0.031,0.181-0.089,0.352-0.176,0.513c-0.085,0.162-0.207,0.299-0.364,0.411
	c-0.156,0.113-0.357,0.169-0.603,0.169c-0.246,0-0.446-0.056-0.603-0.169c-0.157-0.112-0.279-0.249-0.364-0.411
	c-0.087-0.161-0.145-0.332-0.176-0.513c-0.032-0.179-0.048-0.337-0.048-0.474S61.866,117.506,61.898,117.325 M59.548,117.471
	c0-0.146,0.025-0.286,0.075-0.42c0.05-0.132,0.119-0.25,0.211-0.352c0.093-0.103,0.201-0.182,0.328-0.239s0.274-0.086,0.436-0.086
	h0.259v-0.713c-0.026-0.011-0.052-0.018-0.078-0.021c-0.026-0.002-0.061-0.002-0.102-0.002c-0.262,0-0.484,0.072-0.671,0.218
	c-0.184,0.147-0.345,0.34-0.48,0.579h-0.017v-0.68h-0.65v4.095h0.689V117.471z M55.631,114.229h-0.688v2.106h-0.016
	c-0.042-0.059-0.094-0.127-0.158-0.208c-0.062-0.08-0.141-0.157-0.237-0.229c-0.097-0.074-0.211-0.136-0.345-0.186
	c-0.132-0.05-0.293-0.073-0.48-0.073c-0.273,0-0.513,0.052-0.724,0.156c-0.213,0.104-0.392,0.249-0.538,0.435
	c-0.146,0.185-0.257,0.402-0.333,0.65s-0.113,0.515-0.113,0.802c0,0.244,0.027,0.503,0.087,0.771
	c0.057,0.271,0.154,0.516,0.292,0.74c0.139,0.224,0.324,0.41,0.553,0.555c0.23,0.147,0.52,0.22,0.869,0.22
	c0.1,0,0.204-0.008,0.311-0.027c0.106-0.018,0.211-0.052,0.313-0.104c0.101-0.052,0.199-0.122,0.292-0.209
	c0.095-0.085,0.178-0.199,0.251-0.339h0.017v0.563h0.647V114.229z M52.736,117.329c0.016-0.177,0.06-0.345,0.135-0.505
	c0.076-0.161,0.189-0.294,0.339-0.402c0.148-0.11,0.355-0.166,0.621-0.166c0.251,0,0.45,0.061,0.596,0.177
	c0.146,0.117,0.257,0.265,0.334,0.442c0.074,0.178,0.123,0.366,0.145,0.568c0.021,0.2,0.03,0.386,0.03,0.552
	c0,0.272-0.037,0.496-0.113,0.674s-0.169,0.317-0.282,0.422c-0.112,0.104-0.232,0.179-0.363,0.22
	c-0.131,0.042-0.252,0.062-0.36,0.062c-0.189,0-0.352-0.039-0.49-0.119c-0.139-0.082-0.253-0.192-0.343-0.333
	c-0.093-0.142-0.16-0.31-0.204-0.503c-0.045-0.192-0.068-0.4-0.068-0.626C52.711,117.66,52.72,117.506,52.736,117.329
	 M47.758,118.586c0.076,0.259,0.192,0.491,0.349,0.692c0.156,0.204,0.354,0.368,0.592,0.494c0.236,0.126,0.521,0.188,0.849,0.188
	c0.33,0,0.612-0.063,0.852-0.188c0.236-0.126,0.434-0.29,0.59-0.494c0.157-0.201,0.274-0.434,0.349-0.692
	c0.075-0.259,0.114-0.52,0.114-0.787c0-0.266-0.039-0.527-0.114-0.786c-0.074-0.259-0.191-0.49-0.349-0.693
	c-0.156-0.204-0.354-0.367-0.59-0.493c-0.239-0.126-0.521-0.188-0.852-0.188c-0.327,0-0.612,0.062-0.849,0.188
	c-0.238,0.126-0.436,0.289-0.592,0.493c-0.156,0.203-0.272,0.435-0.349,0.693s-0.113,0.521-0.113,0.786
	C47.645,118.066,47.682,118.327,47.758,118.586 M48.404,117.325c0.032-0.18,0.089-0.351,0.177-0.512
	c0.086-0.162,0.206-0.3,0.363-0.413c0.156-0.111,0.358-0.168,0.603-0.168c0.247,0,0.448,0.057,0.605,0.168
	c0.154,0.113,0.276,0.251,0.363,0.413c0.085,0.161,0.145,0.332,0.175,0.512c0.031,0.181,0.048,0.337,0.048,0.474
	s-0.017,0.295-0.048,0.474c-0.03,0.181-0.09,0.352-0.175,0.513c-0.087,0.162-0.209,0.299-0.363,0.411
	c-0.157,0.113-0.358,0.169-0.605,0.169c-0.244,0-0.446-0.056-0.603-0.169c-0.157-0.112-0.277-0.249-0.363-0.411
	c-0.088-0.161-0.145-0.332-0.177-0.513c-0.032-0.179-0.046-0.337-0.046-0.474S48.372,117.506,48.404,117.325 M41.227,118.586
	c0.076,0.259,0.192,0.491,0.349,0.692c0.157,0.204,0.354,0.368,0.59,0.494c0.238,0.126,0.521,0.188,0.851,0.188
	c0.328,0,0.611-0.063,0.849-0.188c0.237-0.126,0.435-0.29,0.592-0.494c0.157-0.201,0.272-0.434,0.348-0.692
	c0.077-0.259,0.114-0.52,0.114-0.787c0-0.266-0.037-0.527-0.114-0.786c-0.075-0.259-0.191-0.49-0.348-0.693
	c-0.157-0.204-0.354-0.367-0.592-0.493c-0.238-0.126-0.521-0.188-0.849-0.188c-0.329,0-0.612,0.062-0.851,0.188
	c-0.237,0.126-0.434,0.289-0.59,0.493c-0.157,0.203-0.273,0.435-0.349,0.693c-0.076,0.259-0.114,0.521-0.114,0.786
	C41.113,118.066,41.151,118.327,41.227,118.586 M41.874,117.325c0.03-0.18,0.089-0.351,0.176-0.512
	c0.086-0.162,0.206-0.3,0.363-0.413c0.157-0.111,0.358-0.168,0.604-0.168s0.446,0.057,0.603,0.168
	c0.157,0.113,0.278,0.251,0.364,0.413c0.087,0.161,0.145,0.332,0.176,0.512c0.03,0.181,0.046,0.337,0.046,0.474
	s-0.016,0.295-0.046,0.474c-0.031,0.181-0.089,0.352-0.176,0.513c-0.086,0.162-0.208,0.299-0.364,0.411
	c-0.156,0.113-0.357,0.169-0.603,0.169s-0.447-0.056-0.604-0.169c-0.157-0.112-0.277-0.249-0.363-0.411
	c-0.087-0.161-0.146-0.332-0.176-0.513c-0.032-0.179-0.048-0.337-0.048-0.474S41.842,117.506,41.874,117.325 M40.331,117.063
	c0-0.292-0.045-0.53-0.134-0.717c-0.089-0.184-0.203-0.329-0.344-0.434c-0.141-0.104-0.296-0.177-0.466-0.217
	c-0.17-0.038-0.333-0.057-0.49-0.057c-0.177,0-0.334,0.024-0.469,0.077c-0.136,0.052-0.255,0.115-0.357,0.188
	c-0.102,0.072-0.187,0.149-0.254,0.23c-0.068,0.081-0.121,0.147-0.157,0.2h-0.016v-0.579h-0.65v4.095h0.688v-2.23
	c0-0.278,0.038-0.506,0.115-0.683c0.075-0.177,0.167-0.316,0.277-0.419c0.11-0.102,0.227-0.171,0.354-0.207
	c0.125-0.037,0.237-0.056,0.336-0.056c0.334,0,0.563,0.09,0.689,0.271c0.125,0.179,0.188,0.447,0.188,0.802v2.521h0.689V117.063z
	 M35.506,114.104h-0.845l-0.697,1.104h0.524L35.506,114.104z M33.251,117.001c0.011-0.079,0.029-0.164,0.055-0.254
	c0.027-0.093,0.072-0.179,0.138-0.261c0.065-0.079,0.156-0.146,0.274-0.197c0.116-0.054,0.274-0.081,0.472-0.081
	c0.643,0,0.963,0.223,0.963,0.667c0,0.104-0.009,0.188-0.03,0.246c-0.022,0.061-0.05,0.108-0.086,0.141
	c-0.038,0.034-0.076,0.06-0.118,0.071c-0.043,0.013-0.084,0.023-0.125,0.028l-1.136,0.14c-0.287,0.037-0.513,0.107-0.677,0.212
	c-0.165,0.104-0.289,0.223-0.373,0.354c-0.083,0.13-0.136,0.261-0.16,0.395c-0.023,0.133-0.036,0.241-0.036,0.324
	c0,0.178,0.032,0.339,0.095,0.481c0.062,0.145,0.15,0.269,0.266,0.373c0.114,0.104,0.25,0.185,0.407,0.241
	c0.157,0.06,0.33,0.087,0.517,0.087c0.199,0,0.375-0.02,0.528-0.062c0.154-0.043,0.292-0.096,0.412-0.16
	c0.121-0.066,0.224-0.138,0.309-0.216c0.087-0.078,0.165-0.154,0.232-0.228c0.005,0.078,0.019,0.155,0.039,0.232
	c0.021,0.074,0.056,0.141,0.106,0.199c0.05,0.057,0.122,0.104,0.215,0.14c0.093,0.037,0.216,0.055,0.368,0.055
	c0.079,0,0.146-0.008,0.204-0.026c0.057-0.019,0.115-0.035,0.171-0.052v-0.501c-0.042,0.011-0.081,0.018-0.12,0.022
	c-0.041,0.006-0.076,0.009-0.106,0.009c-0.152,0-0.227-0.081-0.227-0.242v-2.357c0-0.172-0.03-0.321-0.091-0.446
	c-0.06-0.127-0.136-0.231-0.231-0.316c-0.093-0.087-0.198-0.154-0.312-0.204c-0.116-0.05-0.231-0.088-0.345-0.114
	c-0.115-0.026-0.221-0.043-0.317-0.05c-0.097-0.01-0.171-0.012-0.224-0.012c-0.25,0-0.479,0.023-0.685,0.073
	s-0.383,0.131-0.529,0.24c-0.146,0.108-0.261,0.249-0.344,0.422c-0.084,0.173-0.129,0.382-0.134,0.627H33.251z M35.138,118.434
	c0,0.136-0.037,0.263-0.11,0.38c-0.073,0.116-0.167,0.219-0.285,0.305c-0.118,0.087-0.251,0.154-0.403,0.204
	c-0.152,0.049-0.309,0.075-0.47,0.075c-0.262,0-0.45-0.064-0.567-0.188c-0.118-0.125-0.176-0.301-0.176-0.526
	c0-0.129,0.03-0.234,0.09-0.315c0.06-0.08,0.135-0.145,0.224-0.192c0.088-0.047,0.184-0.081,0.286-0.106
	c0.102-0.022,0.194-0.04,0.278-0.05c0.213-0.026,0.387-0.05,0.52-0.075c0.134-0.022,0.242-0.044,0.326-0.062
	c0.084-0.018,0.146-0.039,0.188-0.061c0.041-0.02,0.076-0.04,0.101-0.062V118.434z M30.354,119.091h-0.016l-1.064-3.335h-0.8
	l1.496,4.095h0.736l1.559-4.095h-0.752L30.354,119.091z M24.563,118.586c0.075,0.259,0.192,0.491,0.348,0.692
	c0.156,0.204,0.354,0.368,0.591,0.494c0.238,0.126,0.521,0.188,0.85,0.188c0.329,0,0.612-0.063,0.85-0.188
	c0.237-0.126,0.435-0.29,0.591-0.494c0.157-0.201,0.273-0.434,0.348-0.692c0.076-0.259,0.115-0.52,0.115-0.787
	c0-0.266-0.039-0.527-0.115-0.786c-0.075-0.259-0.191-0.49-0.348-0.693c-0.156-0.204-0.354-0.367-0.591-0.493
	c-0.238-0.126-0.521-0.188-0.85-0.188c-0.328,0-0.612,0.062-0.85,0.188c-0.237,0.126-0.435,0.289-0.591,0.493
	c-0.156,0.203-0.272,0.435-0.348,0.693c-0.077,0.259-0.115,0.521-0.115,0.786C24.448,118.066,24.486,118.327,24.563,118.586
	 M25.208,117.325c0.032-0.18,0.092-0.351,0.176-0.512c0.087-0.162,0.208-0.3,0.365-0.413c0.157-0.111,0.357-0.168,0.603-0.168
	c0.245,0,0.447,0.057,0.604,0.168c0.157,0.113,0.278,0.251,0.363,0.413c0.086,0.161,0.146,0.332,0.176,0.512
	c0.032,0.181,0.047,0.337,0.047,0.474s-0.016,0.295-0.047,0.474c-0.031,0.181-0.09,0.352-0.176,0.513
	c-0.085,0.162-0.206,0.299-0.363,0.411c-0.157,0.113-0.358,0.169-0.604,0.169c-0.246,0-0.446-0.056-0.603-0.169
	c-0.156-0.112-0.278-0.249-0.365-0.411c-0.084-0.161-0.144-0.332-0.176-0.513c-0.03-0.179-0.045-0.337-0.045-0.474
	S25.177,117.506,25.208,117.325 M22.679,117.283l1.567-1.527h-0.877l-1.763,1.729v-3.257H20.94v5.622h0.666V118.3l0.573-0.517
	l1.275,2.067h0.886L22.679,117.283z M18.552,116.326v-0.57h-0.69v-0.509c0-0.169,0.03-0.29,0.09-0.365
	c0.061-0.075,0.167-0.114,0.318-0.114c0.042,0,0.089,0.002,0.141,0.005c0.051,0.002,0.098,0.007,0.141,0.012v-0.619
	c-0.058-0.005-0.112-0.009-0.162-0.011c-0.048-0.004-0.1-0.005-0.152-0.005c-0.34,0-0.603,0.072-0.787,0.217
	c-0.186,0.143-0.278,0.37-0.278,0.685v0.705H16.61v0.57h0.563v3.524h0.689v-3.524H18.552z M19.899,115.756h-0.689v4.095h0.689
	V115.756z M19.899,114.229h-0.689v0.783h0.689V114.229z M15.976,115.756h-0.689v4.095h0.689V115.756z M15.976,114.229h-0.689v0.783
	h0.689V114.229z M14.598,116.326v-0.57h-0.659v-1.144H13.25v1.144h-0.556v0.57h0.556v2.703c0,0.125,0.013,0.241,0.035,0.349
	c0.023,0.107,0.066,0.198,0.125,0.278c0.06,0.078,0.144,0.14,0.25,0.183c0.107,0.045,0.247,0.067,0.419,0.067
	c0.036,0,0.101-0.008,0.192-0.021c0.091-0.013,0.2-0.024,0.326-0.035v-0.54h-0.243c-0.037,0-0.079-0.001-0.125-0.004
	c-0.047-0.002-0.094-0.014-0.138-0.035c-0.045-0.021-0.081-0.054-0.109-0.098c-0.029-0.045-0.044-0.106-0.044-0.185v-2.663H14.598z
	 M10.956,117.471c0-0.146,0.024-0.286,0.074-0.42c0.05-0.132,0.121-0.25,0.212-0.352c0.091-0.103,0.2-0.182,0.329-0.239
	c0.127-0.058,0.272-0.086,0.434-0.086h0.259v-0.713c-0.027-0.011-0.052-0.018-0.078-0.021c-0.027-0.002-0.061-0.002-0.102-0.002
	c-0.261,0-0.485,0.072-0.67,0.218c-0.186,0.147-0.346,0.34-0.482,0.579h-0.015v-0.68h-0.65v4.095h0.69V117.471z M8.607,118.566
	c-0.005,0.078-0.033,0.164-0.083,0.254c-0.05,0.092-0.12,0.18-0.211,0.264c-0.091,0.083-0.2,0.152-0.329,0.206
	c-0.127,0.055-0.272,0.082-0.434,0.082c-0.397,0-0.695-0.116-0.894-0.353c-0.198-0.234-0.297-0.565-0.297-0.994H9.35
	c0-0.36-0.036-0.687-0.109-0.982c-0.073-0.294-0.183-0.546-0.33-0.754c-0.146-0.21-0.328-0.371-0.548-0.482
	c-0.219-0.113-0.478-0.168-0.775-0.168c-0.339,0-0.633,0.057-0.881,0.176c-0.247,0.117-0.451,0.279-0.611,0.486
	c-0.159,0.204-0.278,0.446-0.356,0.724c-0.079,0.277-0.117,0.574-0.117,0.892c0,0.3,0.041,0.572,0.125,0.821
	c0.083,0.252,0.204,0.469,0.361,0.65c0.156,0.184,0.349,0.326,0.575,0.429c0.227,0.101,0.485,0.151,0.771,0.151
	c0.163,0,0.304-0.008,0.423-0.027c0.12-0.018,0.224-0.04,0.31-0.066s0.159-0.056,0.22-0.09c0.059-0.033,0.112-0.066,0.16-0.098
	c0.13-0.083,0.239-0.18,0.328-0.289c0.088-0.109,0.162-0.219,0.22-0.325c0.057-0.108,0.101-0.207,0.129-0.299
	c0.029-0.091,0.046-0.16,0.051-0.207H8.607z M6.359,117.479c0-0.157,0.03-0.31,0.09-0.458c0.06-0.149,0.141-0.28,0.243-0.393
	c0.102-0.111,0.223-0.202,0.359-0.271c0.139-0.066,0.287-0.102,0.444-0.102c0.208,0,0.383,0.035,0.523,0.102
	c0.141,0.068,0.256,0.159,0.345,0.271c0.089,0.112,0.154,0.243,0.196,0.393c0.042,0.148,0.067,0.301,0.079,0.458H6.359z
	 M4.934,115.92c-0.027-0.234-0.093-0.463-0.204-0.685c-0.109-0.224-0.259-0.419-0.449-0.588c-0.191-0.169-0.424-0.307-0.701-0.411
	s-0.596-0.157-0.955-0.157c-0.408,0-0.775,0.071-1.101,0.216c-0.327,0.144-0.602,0.345-0.826,0.604
	c-0.225,0.258-0.397,0.565-0.516,0.923C0.061,116.18,0,116.574,0,117.008c0,0.543,0.071,1.004,0.216,1.383
	c0.144,0.378,0.333,0.687,0.571,0.924c0.238,0.238,0.508,0.411,0.811,0.521C1.9,119.945,2.211,120,2.53,120
	c0.067,0,0.169-0.005,0.306-0.017c0.134-0.01,0.285-0.038,0.449-0.085c0.166-0.048,0.335-0.117,0.513-0.212s0.346-0.223,0.505-0.388
	s0.3-0.369,0.422-0.616c0.123-0.244,0.21-0.544,0.263-0.899H4.252c-0.063,0.33-0.16,0.594-0.29,0.795
	c-0.131,0.202-0.273,0.356-0.428,0.467c-0.153,0.109-0.309,0.184-0.465,0.222c-0.156,0.04-0.297,0.06-0.423,0.06
	c-0.35,0-0.644-0.061-0.881-0.18c-0.238-0.119-0.43-0.285-0.576-0.493c-0.145-0.209-0.25-0.457-0.313-0.744
	c-0.062-0.287-0.094-0.596-0.094-0.924c0-0.37,0.048-0.696,0.145-0.976c0.097-0.278,0.229-0.512,0.396-0.697
	c0.166-0.185,0.361-0.324,0.583-0.418c0.221-0.095,0.46-0.142,0.717-0.142c0.135,0,0.284,0.014,0.446,0.043
	c0.162,0.028,0.317,0.086,0.465,0.169c0.149,0.083,0.284,0.201,0.403,0.355c0.121,0.154,0.207,0.354,0.259,0.6H4.934z"/>
<path fill="#B1B3B4" d="M81.862,99.761h-0.845l-0.697,1.104h0.524L81.862,99.761z M81.001,101.413h-0.688v4.097h0.688V101.413z
	 M79.122,99.887h-0.688v2.107h-0.017c-0.04-0.06-0.093-0.129-0.157-0.209c-0.062-0.081-0.142-0.157-0.237-0.23
	c-0.097-0.073-0.211-0.135-0.345-0.186c-0.134-0.05-0.294-0.073-0.48-0.073c-0.273,0-0.515,0.053-0.727,0.157
	c-0.211,0.104-0.389,0.249-0.536,0.434c-0.145,0.186-0.256,0.403-0.332,0.65c-0.076,0.248-0.113,0.515-0.113,0.802
	c0,0.246,0.027,0.503,0.085,0.771c0.059,0.27,0.156,0.518,0.294,0.74c0.139,0.226,0.323,0.411,0.553,0.557
	c0.23,0.146,0.52,0.22,0.869,0.22c0.1,0,0.201-0.01,0.311-0.027c0.106-0.018,0.211-0.054,0.311-0.105
	c0.103-0.053,0.202-0.121,0.295-0.209c0.094-0.086,0.178-0.199,0.251-0.34h0.015v0.564h0.65V99.887z M76.225,102.986
	c0.017-0.177,0.062-0.345,0.137-0.505c0.076-0.159,0.188-0.293,0.338-0.402c0.149-0.11,0.355-0.165,0.622-0.165
	c0.251,0,0.449,0.059,0.595,0.177c0.147,0.117,0.258,0.265,0.335,0.441c0.074,0.178,0.123,0.368,0.144,0.569
	c0.02,0.199,0.032,0.385,0.032,0.551c0,0.273-0.04,0.496-0.114,0.674c-0.076,0.178-0.171,0.319-0.282,0.423
	c-0.111,0.104-0.232,0.178-0.364,0.221c-0.131,0.04-0.251,0.062-0.359,0.062c-0.189,0-0.352-0.04-0.49-0.121
	s-0.253-0.192-0.346-0.332c-0.09-0.142-0.159-0.309-0.203-0.502c-0.045-0.193-0.066-0.402-0.066-0.628
	C76.201,103.319,76.209,103.165,76.225,102.986 M74.157,104.225c-0.005,0.078-0.032,0.163-0.082,0.254
	c-0.05,0.092-0.119,0.179-0.212,0.263c-0.091,0.083-0.199,0.153-0.329,0.208c-0.127,0.055-0.271,0.082-0.433,0.082
	c-0.397,0-0.695-0.116-0.894-0.354c-0.199-0.234-0.298-0.564-0.298-0.993h2.991c0-0.36-0.037-0.688-0.109-0.983
	c-0.072-0.295-0.184-0.546-0.328-0.755c-0.147-0.209-0.33-0.37-0.549-0.483c-0.221-0.111-0.478-0.167-0.775-0.167
	c-0.34,0-0.633,0.059-0.881,0.176c-0.248,0.118-0.452,0.28-0.611,0.486c-0.158,0.205-0.278,0.447-0.355,0.724
	c-0.079,0.278-0.117,0.574-0.117,0.894c0,0.298,0.04,0.571,0.124,0.821c0.084,0.251,0.204,0.469,0.361,0.65
	c0.156,0.184,0.348,0.326,0.575,0.428c0.227,0.1,0.484,0.152,0.771,0.152c0.161,0,0.301-0.01,0.422-0.027s0.223-0.042,0.31-0.067
	s0.16-0.055,0.22-0.09c0.06-0.034,0.114-0.067,0.161-0.098c0.13-0.083,0.24-0.181,0.328-0.29c0.089-0.109,0.161-0.218,0.221-0.325
	c0.057-0.106,0.1-0.206,0.128-0.298c0.028-0.091,0.046-0.16,0.051-0.207H74.157z M71.91,103.137c0-0.157,0.03-0.311,0.09-0.458
	c0.06-0.149,0.141-0.279,0.242-0.394c0.103-0.111,0.222-0.201,0.36-0.269c0.138-0.068,0.287-0.103,0.441-0.103
	c0.209,0,0.385,0.034,0.526,0.103c0.141,0.067,0.256,0.157,0.345,0.269c0.088,0.114,0.154,0.244,0.194,0.394
	c0.043,0.147,0.069,0.301,0.08,0.458H71.91z M69.302,99.761h-0.619l0.776,1.104h0.712l0.775-1.104H70.32l-0.508,0.729L69.302,99.761
	z M69.544,103.128c0-0.146,0.026-0.285,0.076-0.419c0.049-0.133,0.118-0.25,0.211-0.353c0.092-0.102,0.201-0.182,0.328-0.238
	c0.129-0.058,0.273-0.087,0.435-0.087h0.259v-0.712c-0.027-0.01-0.052-0.018-0.079-0.02c-0.025-0.003-0.06-0.004-0.1-0.004
	c-0.261,0-0.485,0.072-0.672,0.219c-0.184,0.146-0.344,0.34-0.48,0.579h-0.016v-0.681h-0.649v4.097h0.688V103.128z M68.087,101.984
	v-0.571H67.43v-1.143h-0.688v1.143h-0.556v0.571h0.556v2.703c0,0.125,0.013,0.241,0.036,0.349c0.022,0.106,0.065,0.199,0.125,0.277
	s0.144,0.14,0.25,0.184s0.247,0.066,0.42,0.066c0.035,0,0.1-0.007,0.191-0.019c0.091-0.013,0.199-0.026,0.323-0.035v-0.54h-0.24
	c-0.037,0-0.08-0.003-0.125-0.005c-0.048-0.003-0.095-0.015-0.138-0.036c-0.045-0.02-0.082-0.052-0.111-0.097
	c-0.027-0.044-0.043-0.107-0.043-0.185v-2.663H68.087z M65.659,102.58c0-0.053-0.012-0.147-0.037-0.285
	c-0.026-0.139-0.092-0.282-0.196-0.432c-0.104-0.148-0.261-0.28-0.471-0.396c-0.209-0.115-0.495-0.172-0.861-0.172
	c-0.202,0-0.396,0.026-0.583,0.078c-0.187,0.053-0.35,0.132-0.492,0.239c-0.145,0.106-0.259,0.243-0.347,0.406
	c-0.085,0.164-0.128,0.359-0.128,0.584c0,0.281,0.087,0.501,0.259,0.655c0.173,0.151,0.402,0.267,0.689,0.339l0.798,0.196
	c0.292,0.072,0.501,0.149,0.627,0.227c0.126,0.078,0.188,0.199,0.188,0.36c0,0.115-0.026,0.214-0.078,0.294
	c-0.053,0.081-0.121,0.147-0.208,0.2c-0.084,0.052-0.184,0.092-0.297,0.117c-0.112,0.027-0.231,0.039-0.356,0.039
	c-0.246,0-0.439-0.028-0.579-0.086c-0.142-0.058-0.249-0.128-0.322-0.211c-0.072-0.084-0.121-0.176-0.144-0.275
	c-0.024-0.1-0.038-0.188-0.045-0.266h-0.664c0.005,0.083,0.014,0.176,0.027,0.277c0.013,0.103,0.039,0.207,0.077,0.313
	c0.04,0.108,0.1,0.21,0.177,0.31c0.079,0.1,0.182,0.188,0.31,0.27c0.128,0.082,0.287,0.146,0.477,0.192
	c0.192,0.048,0.423,0.071,0.694,0.071c0.23,0,0.443-0.031,0.642-0.095s0.369-0.152,0.513-0.267c0.145-0.114,0.258-0.256,0.342-0.422
	c0.083-0.169,0.125-0.358,0.125-0.572c0-0.276-0.085-0.499-0.256-0.669c-0.168-0.17-0.467-0.306-0.896-0.412l-0.688-0.172
	c-0.136-0.032-0.25-0.063-0.344-0.094c-0.095-0.031-0.17-0.067-0.228-0.105c-0.058-0.04-0.1-0.087-0.13-0.141
	c-0.027-0.057-0.043-0.125-0.043-0.208c0-0.126,0.034-0.228,0.098-0.306c0.065-0.079,0.143-0.136,0.231-0.176
	c0.09-0.039,0.18-0.065,0.271-0.078c0.092-0.015,0.163-0.02,0.215-0.02c0.22,0,0.393,0.022,0.519,0.07
	c0.124,0.046,0.221,0.105,0.288,0.177c0.067,0.069,0.113,0.145,0.134,0.227c0.021,0.079,0.031,0.151,0.031,0.215H65.659z
	 M58.193,104.244c0.077,0.258,0.191,0.49,0.349,0.693c0.156,0.204,0.354,0.368,0.592,0.492c0.237,0.126,0.521,0.188,0.85,0.188
	s0.612-0.063,0.85-0.188c0.237-0.124,0.435-0.288,0.591-0.492c0.156-0.203,0.272-0.436,0.349-0.693s0.114-0.521,0.114-0.786
	c0-0.268-0.038-0.529-0.114-0.788s-0.192-0.488-0.349-0.692s-0.354-0.368-0.591-0.494s-0.521-0.188-0.85-0.188
	s-0.612,0.062-0.85,0.188c-0.238,0.126-0.436,0.29-0.592,0.494c-0.157,0.204-0.271,0.434-0.349,0.692
	c-0.075,0.259-0.113,0.521-0.113,0.788C58.08,103.724,58.118,103.986,58.193,104.244 M58.84,102.983
	c0.03-0.181,0.09-0.352,0.176-0.513s0.208-0.299,0.365-0.412c0.156-0.112,0.355-0.167,0.603-0.167c0.244,0,0.446,0.055,0.603,0.167
	c0.157,0.113,0.277,0.251,0.363,0.412c0.087,0.161,0.147,0.332,0.177,0.513c0.032,0.181,0.048,0.338,0.048,0.475
	c0,0.135-0.016,0.294-0.048,0.474c-0.029,0.179-0.09,0.351-0.177,0.512c-0.086,0.162-0.206,0.3-0.363,0.411
	c-0.156,0.112-0.358,0.17-0.603,0.17c-0.247,0-0.446-0.058-0.603-0.17c-0.157-0.111-0.279-0.249-0.365-0.411
	c-0.086-0.161-0.146-0.333-0.176-0.512c-0.032-0.18-0.047-0.339-0.047-0.474C58.793,103.321,58.808,103.164,58.84,102.983
	 M56.49,103.128c0-0.146,0.025-0.285,0.075-0.419c0.05-0.133,0.119-0.25,0.211-0.353c0.091-0.102,0.2-0.182,0.328-0.238
	c0.129-0.058,0.273-0.087,0.435-0.087h0.259v-0.712c-0.026-0.01-0.052-0.018-0.077-0.02c-0.027-0.003-0.061-0.004-0.102-0.004
	c-0.263,0-0.485,0.072-0.671,0.219c-0.185,0.146-0.347,0.34-0.481,0.579H56.45v-0.681h-0.649v4.097h0.689V103.128z M51.986,103.102
	c0.022-0.201,0.07-0.392,0.147-0.569c0.074-0.177,0.185-0.324,0.332-0.441c0.146-0.118,0.344-0.177,0.593-0.177
	c0.269,0,0.475,0.055,0.624,0.165c0.148,0.109,0.262,0.243,0.338,0.402c0.074,0.16,0.12,0.328,0.137,0.505
	c0.015,0.179,0.023,0.333,0.023,0.462c0,0.226-0.023,0.435-0.068,0.628c-0.042,0.193-0.111,0.36-0.201,0.502
	c-0.093,0.14-0.207,0.251-0.347,0.332c-0.138,0.081-0.3,0.121-0.489,0.121c-0.108,0-0.229-0.021-0.359-0.062
	c-0.132-0.043-0.253-0.116-0.364-0.221c-0.111-0.104-0.206-0.245-0.282-0.423s-0.112-0.4-0.112-0.674
	C51.957,103.486,51.966,103.301,51.986,103.102 M51.298,107.13h0.688v-2.052h0.017c0.088,0.146,0.223,0.274,0.403,0.384
	c0.181,0.11,0.408,0.165,0.686,0.165c0.35,0,0.64-0.074,0.869-0.22s0.413-0.331,0.553-0.557c0.138-0.223,0.235-0.471,0.293-0.74
	c0.059-0.269,0.087-0.525,0.087-0.771c0-0.287-0.038-0.554-0.114-0.802c-0.076-0.247-0.187-0.465-0.333-0.65
	c-0.146-0.185-0.324-0.33-0.535-0.434c-0.212-0.104-0.453-0.157-0.726-0.157c-0.188,0-0.348,0.023-0.482,0.073
	c-0.132,0.051-0.247,0.112-0.343,0.186c-0.098,0.073-0.177,0.149-0.24,0.23c-0.063,0.08-0.114,0.149-0.156,0.209h-0.016v-0.581
	h-0.65V107.13z M44.701,104.244c0.075,0.258,0.192,0.49,0.349,0.693c0.157,0.204,0.354,0.368,0.59,0.492
	c0.239,0.126,0.521,0.188,0.851,0.188c0.328,0,0.611-0.063,0.849-0.188c0.237-0.124,0.435-0.288,0.591-0.492
	c0.157-0.203,0.273-0.436,0.348-0.693c0.077-0.258,0.115-0.521,0.115-0.786c0-0.268-0.038-0.529-0.115-0.788
	c-0.074-0.259-0.19-0.488-0.348-0.692c-0.156-0.204-0.354-0.368-0.591-0.494c-0.238-0.126-0.521-0.188-0.849-0.188
	c-0.33,0-0.612,0.062-0.851,0.188c-0.236,0.126-0.434,0.29-0.59,0.494c-0.156,0.204-0.273,0.434-0.349,0.692
	c-0.077,0.259-0.114,0.521-0.114,0.788C44.587,103.724,44.624,103.986,44.701,104.244 M45.347,102.983
	c0.03-0.181,0.09-0.352,0.176-0.513c0.085-0.161,0.207-0.299,0.363-0.412c0.157-0.112,0.358-0.167,0.604-0.167
	s0.446,0.055,0.603,0.167c0.156,0.113,0.277,0.251,0.364,0.412c0.086,0.161,0.145,0.332,0.177,0.513
	c0.029,0.181,0.045,0.338,0.045,0.475c0,0.135-0.016,0.294-0.045,0.474c-0.032,0.179-0.091,0.351-0.177,0.512
	c-0.087,0.162-0.208,0.3-0.364,0.411c-0.157,0.112-0.357,0.17-0.603,0.17s-0.447-0.058-0.604-0.17
	c-0.157-0.111-0.278-0.249-0.363-0.411c-0.086-0.161-0.146-0.333-0.176-0.512c-0.032-0.18-0.047-0.339-0.047-0.474
	C45.3,103.321,45.315,103.164,45.347,102.983 M43.804,102.721c0-0.293-0.045-0.53-0.134-0.717c-0.088-0.185-0.203-0.328-0.344-0.434
	c-0.141-0.104-0.296-0.177-0.467-0.216c-0.169-0.039-0.333-0.059-0.489-0.059c-0.167,0-0.313,0.021-0.438,0.066
	c-0.125,0.044-0.236,0.1-0.333,0.169c-0.096,0.067-0.18,0.14-0.25,0.219c-0.07,0.077-0.128,0.148-0.176,0.212h-0.016v-2.075h-0.689
	v5.623h0.689v-2.232c0-0.256,0.033-0.472,0.098-0.646c0.065-0.175,0.152-0.315,0.262-0.423c0.11-0.106,0.232-0.184,0.369-0.227
	c0.135-0.045,0.273-0.067,0.414-0.067c0.162,0,0.297,0.022,0.403,0.067c0.107,0.043,0.191,0.104,0.25,0.184
	c0.061,0.078,0.102,0.173,0.126,0.287c0.023,0.111,0.035,0.237,0.035,0.378v2.68h0.689V102.721z M40.076,99.761h-0.845l-0.697,1.104
	h0.524L40.076,99.761z M39.215,101.413h-0.688v4.097h0.688V101.413z M37.272,102.721c0-0.293-0.044-0.53-0.133-0.717
	c-0.088-0.185-0.204-0.328-0.345-0.434c-0.141-0.104-0.296-0.177-0.467-0.216c-0.168-0.039-0.332-0.059-0.488-0.059
	c-0.177,0-0.334,0.026-0.47,0.078c-0.136,0.053-0.255,0.114-0.356,0.188c-0.102,0.074-0.187,0.151-0.255,0.23
	c-0.067,0.082-0.12,0.149-0.156,0.202h-0.016v-0.581h-0.65v4.097h0.69v-2.232c0-0.277,0.038-0.504,0.113-0.681
	c0.076-0.178,0.168-0.318,0.278-0.42c0.109-0.103,0.228-0.171,0.352-0.208c0.125-0.037,0.237-0.055,0.337-0.055
	c0.334,0,0.563,0.09,0.688,0.27c0.125,0.182,0.188,0.448,0.188,0.803v2.523h0.689V102.721z M33.263,101.984v-0.571h-0.657v-1.143
	h-0.69v1.143H31.36v0.571h0.555v2.703c0,0.125,0.012,0.241,0.035,0.349c0.024,0.106,0.066,0.199,0.126,0.277
	c0.06,0.078,0.144,0.14,0.25,0.184c0.107,0.044,0.247,0.066,0.419,0.066c0.036,0,0.1-0.007,0.192-0.019
	c0.091-0.013,0.199-0.026,0.324-0.035v-0.54H33.02c-0.037,0-0.078-0.003-0.125-0.005c-0.047-0.003-0.092-0.015-0.138-0.036
	c-0.043-0.02-0.08-0.052-0.109-0.097c-0.029-0.044-0.043-0.107-0.043-0.185v-2.663H33.263z M27.284,104.244
	c0.075,0.258,0.192,0.49,0.349,0.693c0.157,0.204,0.354,0.368,0.59,0.492c0.239,0.126,0.521,0.188,0.851,0.188
	c0.328,0,0.611-0.063,0.849-0.188c0.237-0.124,0.435-0.288,0.592-0.492c0.156-0.203,0.272-0.436,0.347-0.693
	c0.077-0.258,0.115-0.521,0.115-0.786c0-0.268-0.038-0.529-0.115-0.788c-0.075-0.259-0.19-0.488-0.347-0.692
	c-0.157-0.204-0.355-0.368-0.592-0.494c-0.238-0.126-0.521-0.188-0.849-0.188c-0.329,0-0.612,0.062-0.851,0.188
	c-0.237,0.126-0.434,0.29-0.59,0.494c-0.156,0.204-0.273,0.434-0.349,0.692c-0.077,0.259-0.115,0.521-0.115,0.788
	C27.169,103.724,27.208,103.986,27.284,104.244 M27.931,102.983c0.03-0.181,0.09-0.352,0.176-0.513
	c0.086-0.161,0.207-0.299,0.363-0.412c0.156-0.112,0.358-0.167,0.604-0.167s0.446,0.055,0.603,0.167
	c0.157,0.113,0.278,0.251,0.364,0.412s0.145,0.332,0.176,0.513c0.031,0.181,0.046,0.338,0.046,0.475
	c0,0.135-0.015,0.294-0.046,0.474c-0.032,0.179-0.09,0.351-0.176,0.512c-0.086,0.162-0.208,0.3-0.364,0.411
	c-0.157,0.112-0.357,0.17-0.603,0.17s-0.447-0.058-0.604-0.17c-0.157-0.111-0.277-0.249-0.363-0.411
	c-0.086-0.161-0.146-0.333-0.176-0.512c-0.032-0.18-0.047-0.339-0.047-0.474C27.883,103.321,27.899,103.164,27.931,102.983
	 M25.119,104.749h-0.016l-1.065-3.336h-0.799l1.496,4.097h0.737l1.557-4.097h-0.751L25.119,104.749z M22.651,101.413h-0.688v4.097
	h0.688V101.413z M22.651,99.887h-0.688v0.783h0.688V99.887z M18.962,99.761h-0.618l0.775,1.104h0.714l0.775-1.104H19.98
	l-0.508,0.729L18.962,99.761z M21.125,101.978v-0.564h-3.171v0.571h2.279l-2.467,2.985v0.54h3.43v-0.572h-2.514L21.125,101.978z
	 M12.112,102.658c0.009-0.078,0.028-0.164,0.055-0.254c0.025-0.092,0.072-0.178,0.137-0.259s0.156-0.147,0.273-0.199
	c0.118-0.052,0.276-0.079,0.474-0.079c0.643,0,0.963,0.222,0.963,0.665c0,0.104-0.011,0.188-0.031,0.247
	c-0.021,0.062-0.05,0.106-0.086,0.141c-0.037,0.035-0.076,0.059-0.117,0.07c-0.042,0.015-0.084,0.023-0.127,0.028l-1.134,0.141
	c-0.288,0.038-0.512,0.107-0.678,0.212c-0.165,0.104-0.288,0.222-0.372,0.353c-0.083,0.131-0.137,0.263-0.16,0.396
	c-0.023,0.132-0.036,0.239-0.036,0.323c0,0.178,0.032,0.339,0.094,0.481c0.063,0.145,0.152,0.269,0.266,0.373
	c0.115,0.104,0.252,0.185,0.408,0.241c0.156,0.06,0.328,0.088,0.516,0.088c0.198,0,0.375-0.021,0.529-0.063
	c0.154-0.041,0.292-0.096,0.411-0.16c0.12-0.066,0.224-0.138,0.31-0.216c0.086-0.078,0.163-0.154,0.231-0.228
	c0.004,0.079,0.018,0.156,0.039,0.232c0.022,0.076,0.058,0.143,0.105,0.199c0.05,0.058,0.122,0.104,0.216,0.141
	c0.094,0.036,0.216,0.054,0.368,0.054c0.078,0,0.146-0.007,0.203-0.025c0.058-0.02,0.116-0.036,0.173-0.051v-0.502
	c-0.041,0.012-0.083,0.019-0.122,0.023c-0.039,0.005-0.074,0.008-0.106,0.008c-0.152,0-0.227-0.081-0.227-0.243v-2.356
	c0-0.173-0.03-0.321-0.089-0.445c-0.06-0.127-0.138-0.233-0.231-0.318c-0.094-0.086-0.198-0.154-0.314-0.204
	c-0.114-0.05-0.229-0.088-0.343-0.114c-0.116-0.025-0.221-0.042-0.319-0.05c-0.096-0.008-0.169-0.012-0.222-0.012
	c-0.25,0-0.48,0.023-0.686,0.073c-0.206,0.051-0.382,0.131-0.528,0.24c-0.147,0.109-0.262,0.25-0.345,0.422
	c-0.084,0.174-0.127,0.383-0.134,0.627H12.112z M13.999,104.092c0,0.136-0.037,0.262-0.109,0.379
	c-0.073,0.118-0.169,0.22-0.287,0.307c-0.116,0.085-0.251,0.154-0.402,0.204c-0.152,0.047-0.309,0.073-0.47,0.073
	c-0.261,0-0.451-0.063-0.568-0.188c-0.117-0.126-0.176-0.301-0.176-0.525c0-0.129,0.03-0.236,0.091-0.316
	c0.06-0.081,0.134-0.146,0.223-0.192s0.184-0.081,0.286-0.105c0.101-0.022,0.195-0.041,0.277-0.052
	c0.215-0.025,0.388-0.051,0.521-0.073c0.133-0.023,0.242-0.045,0.326-0.063c0.083-0.019,0.145-0.039,0.187-0.06
	c0.042-0.021,0.075-0.042,0.102-0.062V104.092z"/>
<path fill="#B1B3B4" d="M85.744,92.261h-0.688v4.096h0.688V92.261z M85.744,90.733h-0.688v0.783h0.688V90.733z M84.366,92.832
	v-0.571h-0.657v-1.144h-0.691v1.144h-0.555v0.571h0.555v2.702c0,0.125,0.013,0.241,0.036,0.349s0.064,0.2,0.126,0.278
	c0.059,0.078,0.143,0.138,0.25,0.183c0.106,0.045,0.246,0.067,0.419,0.067c0.037,0,0.101-0.008,0.192-0.021
	c0.09-0.013,0.199-0.024,0.325-0.034v-0.541h-0.242c-0.038,0-0.08-0.001-0.127-0.003c-0.047-0.003-0.093-0.015-0.137-0.036
	c-0.045-0.021-0.081-0.054-0.11-0.098c-0.027-0.045-0.041-0.106-0.041-0.185v-2.662H84.366z M81.938,93.427
	c0-0.052-0.015-0.146-0.04-0.285c-0.026-0.14-0.091-0.281-0.195-0.431c-0.104-0.148-0.261-0.281-0.47-0.396
	c-0.209-0.115-0.496-0.172-0.861-0.172c-0.204,0-0.398,0.024-0.584,0.077c-0.186,0.052-0.35,0.132-0.493,0.239
	c-0.143,0.107-0.259,0.243-0.344,0.407c-0.088,0.164-0.13,0.359-0.13,0.584c0,0.281,0.087,0.499,0.259,0.653
	c0.171,0.153,0.401,0.268,0.689,0.341l0.797,0.195c0.293,0.072,0.502,0.149,0.627,0.227c0.126,0.079,0.189,0.198,0.189,0.361
	c0,0.113-0.027,0.213-0.079,0.293c-0.053,0.082-0.122,0.148-0.208,0.2c-0.086,0.053-0.185,0.092-0.298,0.116
	c-0.112,0.027-0.231,0.041-0.355,0.041c-0.246,0-0.439-0.029-0.58-0.086c-0.141-0.06-0.247-0.129-0.32-0.211
	c-0.074-0.084-0.121-0.176-0.146-0.275c-0.023-0.1-0.037-0.188-0.042-0.266h-0.667c0.006,0.083,0.014,0.176,0.028,0.277
	c0.013,0.101,0.038,0.207,0.077,0.313c0.04,0.106,0.099,0.209,0.177,0.309s0.183,0.189,0.31,0.271
	c0.127,0.08,0.286,0.146,0.478,0.192c0.19,0.047,0.421,0.069,0.693,0.069c0.23,0,0.444-0.029,0.641-0.094
	c0.199-0.063,0.37-0.151,0.514-0.266c0.144-0.116,0.258-0.256,0.341-0.422c0.083-0.169,0.126-0.358,0.126-0.572
	c0-0.276-0.086-0.501-0.255-0.67c-0.17-0.17-0.469-0.307-0.897-0.411l-0.689-0.172c-0.135-0.032-0.249-0.064-0.344-0.095
	c-0.094-0.031-0.169-0.066-0.226-0.104c-0.06-0.04-0.102-0.087-0.131-0.142c-0.029-0.056-0.042-0.124-0.042-0.207
	c0-0.126,0.033-0.229,0.097-0.307c0.065-0.078,0.143-0.137,0.23-0.177c0.089-0.039,0.181-0.063,0.271-0.077
	c0.092-0.014,0.163-0.02,0.215-0.02c0.221,0,0.392,0.022,0.517,0.069c0.127,0.048,0.222,0.107,0.29,0.177
	c0.069,0.07,0.112,0.146,0.133,0.227c0.021,0.081,0.031,0.152,0.031,0.216H81.938z M74.471,95.092
	c0.076,0.258,0.192,0.49,0.349,0.691c0.156,0.204,0.354,0.368,0.591,0.494s0.52,0.188,0.85,0.188s0.612-0.063,0.851-0.188
	c0.236-0.126,0.434-0.29,0.59-0.494c0.158-0.201,0.274-0.434,0.349-0.691c0.076-0.26,0.114-0.521,0.114-0.788
	c0-0.266-0.038-0.527-0.114-0.786c-0.074-0.259-0.19-0.49-0.349-0.693c-0.156-0.204-0.354-0.367-0.59-0.493
	c-0.238-0.126-0.521-0.188-0.851-0.188s-0.612,0.062-0.85,0.188s-0.435,0.289-0.591,0.493c-0.156,0.203-0.272,0.435-0.349,0.693
	s-0.114,0.521-0.114,0.786C74.356,94.571,74.395,94.832,74.471,95.092 M75.116,93.831c0.032-0.181,0.09-0.352,0.177-0.513
	c0.086-0.162,0.207-0.299,0.364-0.413c0.156-0.111,0.358-0.167,0.603-0.167c0.245,0,0.447,0.056,0.603,0.167
	c0.157,0.114,0.278,0.251,0.365,0.413c0.086,0.161,0.144,0.332,0.176,0.513c0.031,0.18,0.048,0.337,0.048,0.473
	c0,0.137-0.017,0.295-0.048,0.474c-0.032,0.181-0.09,0.352-0.176,0.513c-0.087,0.162-0.208,0.299-0.365,0.412
	c-0.155,0.112-0.357,0.168-0.603,0.168c-0.244,0-0.446-0.056-0.603-0.168c-0.157-0.113-0.278-0.25-0.364-0.412
	c-0.087-0.161-0.145-0.332-0.177-0.513c-0.031-0.179-0.048-0.337-0.048-0.474C75.068,94.168,75.085,94.011,75.116,93.831
	 M72.586,93.787l1.566-1.526h-0.877l-1.762,1.73v-3.258H70.85v5.623h0.664v-1.552l0.573-0.516l1.275,2.067h0.885L72.586,93.787z
	 M67.089,93.506c0.011-0.079,0.03-0.164,0.055-0.254c0.027-0.093,0.072-0.179,0.138-0.259c0.065-0.081,0.157-0.147,0.274-0.199
	c0.118-0.053,0.275-0.08,0.475-0.08c0.641,0,0.964,0.222,0.964,0.666c0,0.104-0.013,0.188-0.032,0.247
	c-0.021,0.061-0.05,0.106-0.087,0.14c-0.035,0.034-0.075,0.06-0.117,0.071c-0.042,0.013-0.085,0.023-0.125,0.028l-1.137,0.14
	c-0.287,0.037-0.513,0.107-0.676,0.212c-0.164,0.104-0.29,0.223-0.373,0.354c-0.083,0.129-0.138,0.261-0.16,0.396
	c-0.024,0.132-0.034,0.24-0.034,0.323c0,0.178,0.029,0.339,0.093,0.481c0.063,0.145,0.151,0.269,0.266,0.373
	c0.116,0.104,0.251,0.185,0.408,0.242c0.156,0.059,0.328,0.086,0.518,0.086c0.197,0,0.373-0.02,0.528-0.062
	c0.152-0.043,0.29-0.096,0.411-0.16c0.119-0.066,0.223-0.138,0.309-0.216s0.163-0.154,0.231-0.228
	c0.004,0.078,0.018,0.155,0.039,0.232c0.02,0.074,0.056,0.143,0.105,0.199s0.122,0.104,0.215,0.14
	c0.095,0.037,0.218,0.055,0.367,0.055c0.08,0,0.147-0.008,0.204-0.026c0.058-0.019,0.115-0.035,0.174-0.051v-0.502
	c-0.043,0.011-0.083,0.019-0.121,0.024c-0.039,0.004-0.075,0.007-0.107,0.007c-0.151,0-0.227-0.081-0.227-0.242v-2.357
	c0-0.172-0.029-0.32-0.09-0.445c-0.061-0.127-0.137-0.232-0.231-0.317c-0.094-0.086-0.199-0.154-0.313-0.204
	s-0.229-0.088-0.344-0.114c-0.114-0.026-0.221-0.043-0.318-0.05c-0.095-0.01-0.171-0.012-0.223-0.012
	c-0.25,0-0.479,0.023-0.686,0.073c-0.204,0.05-0.381,0.128-0.528,0.24c-0.146,0.108-0.261,0.249-0.344,0.422
	c-0.085,0.174-0.13,0.382-0.135,0.627H67.089z M68.977,94.938c0,0.136-0.035,0.263-0.11,0.38c-0.072,0.116-0.167,0.219-0.285,0.305
	c-0.116,0.087-0.252,0.156-0.403,0.206c-0.149,0.047-0.307,0.073-0.471,0.073c-0.26,0-0.448-0.064-0.566-0.188
	c-0.116-0.125-0.176-0.301-0.176-0.526c0-0.129,0.029-0.234,0.09-0.315c0.06-0.08,0.135-0.145,0.224-0.192
	c0.088-0.047,0.183-0.081,0.284-0.106c0.103-0.022,0.194-0.039,0.279-0.05c0.213-0.026,0.388-0.052,0.521-0.074
	c0.133-0.023,0.241-0.044,0.325-0.063c0.083-0.018,0.145-0.039,0.188-0.061c0.042-0.02,0.076-0.04,0.102-0.062V94.938z
	 M65.446,92.261h-0.689v4.619c0,0.116-0.009,0.206-0.025,0.275c-0.015,0.067-0.04,0.118-0.077,0.151
	c-0.036,0.035-0.089,0.055-0.156,0.063c-0.067,0.008-0.152,0.012-0.25,0.012h-0.142v0.596C64.205,97.993,64.302,98,64.396,98
	c0.257,0,0.455-0.038,0.595-0.112c0.143-0.077,0.247-0.168,0.314-0.274s0.108-0.221,0.121-0.341s0.021-0.224,0.021-0.314V92.261z
	 M65.446,90.733h-0.689v0.783h0.689V90.733z M62.173,90.608h-0.848l-0.696,1.104h0.525L62.173,90.608z M61.312,92.261h-0.689v4.096
	h0.689V92.261z M59.369,93.567c0-0.292-0.046-0.53-0.135-0.717c-0.089-0.184-0.202-0.329-0.344-0.435
	c-0.142-0.103-0.297-0.176-0.466-0.216c-0.169-0.038-0.333-0.057-0.489-0.057c-0.178,0-0.335,0.024-0.47,0.077
	c-0.137,0.052-0.255,0.115-0.356,0.188c-0.102,0.072-0.188,0.15-0.255,0.23c-0.067,0.082-0.12,0.148-0.156,0.201h-0.016v-0.58h-0.65
	v4.096h0.688v-2.231c0-0.277,0.039-0.506,0.113-0.683c0.076-0.177,0.17-0.316,0.279-0.419c0.109-0.102,0.227-0.171,0.353-0.207
	c0.126-0.037,0.237-0.056,0.337-0.056c0.333,0,0.563,0.09,0.688,0.271c0.125,0.18,0.188,0.448,0.188,0.803v2.522h0.689V93.567z
	 M54.466,95.071c-0.005,0.079-0.033,0.164-0.083,0.254c-0.049,0.092-0.118,0.18-0.211,0.264c-0.092,0.083-0.2,0.152-0.327,0.207
	c-0.13,0.056-0.274,0.083-0.436,0.083c-0.397,0-0.695-0.118-0.894-0.354s-0.298-0.566-0.298-0.995h2.991
	c0-0.36-0.036-0.687-0.109-0.982c-0.072-0.294-0.183-0.546-0.327-0.754c-0.147-0.21-0.33-0.37-0.55-0.483
	c-0.219-0.112-0.478-0.167-0.774-0.167c-0.34,0-0.634,0.057-0.882,0.176c-0.248,0.118-0.452,0.279-0.611,0.486
	c-0.158,0.204-0.277,0.446-0.355,0.724s-0.117,0.574-0.117,0.893c0,0.296,0.041,0.571,0.125,0.822
	c0.084,0.25,0.203,0.467,0.36,0.648c0.156,0.184,0.349,0.326,0.576,0.429c0.227,0.101,0.483,0.151,0.771,0.151
	c0.161,0,0.303-0.008,0.422-0.027c0.121-0.018,0.224-0.04,0.309-0.066c0.087-0.025,0.159-0.056,0.221-0.09
	c0.06-0.033,0.113-0.066,0.16-0.098c0.13-0.083,0.241-0.18,0.329-0.289c0.089-0.109,0.161-0.219,0.22-0.325
	c0.057-0.108,0.101-0.206,0.128-0.299c0.029-0.091,0.046-0.159,0.051-0.207H54.466z M52.218,93.983c0-0.156,0.031-0.31,0.09-0.458
	c0.061-0.149,0.142-0.278,0.243-0.393c0.103-0.111,0.223-0.201,0.361-0.27c0.138-0.067,0.284-0.103,0.441-0.103
	c0.21,0,0.384,0.035,0.525,0.103c0.142,0.068,0.255,0.158,0.344,0.27c0.089,0.114,0.154,0.243,0.196,0.393
	c0.042,0.148,0.067,0.302,0.078,0.458H52.218z M50.973,92.824v-0.563h-3.171v0.571h2.279l-2.468,2.983v0.541h3.43v-0.573h-2.514
	L50.973,92.824z M47.488,90.608h-0.846l-0.697,1.104h0.525L47.488,90.608z M46.627,92.261h-0.689v4.096h0.689V92.261z
	 M43.518,90.608h-0.619l0.775,1.104h0.713l0.775-1.104h-0.627l-0.509,0.729L43.518,90.608z M43.76,93.976
	c0-0.146,0.024-0.286,0.074-0.42c0.05-0.132,0.121-0.249,0.212-0.352c0.091-0.102,0.202-0.182,0.329-0.238
	c0.127-0.059,0.273-0.087,0.435-0.087h0.257v-0.713c-0.025-0.01-0.052-0.018-0.078-0.021c-0.027-0.002-0.06-0.002-0.102-0.002
	c-0.261,0-0.483,0.072-0.67,0.218c-0.185,0.147-0.346,0.34-0.48,0.579h-0.016v-0.68h-0.65v4.096h0.688V93.976z M39.767,96.356
	v-4.096h-0.689v2.256c0,0.151-0.018,0.306-0.055,0.465c-0.038,0.16-0.099,0.307-0.185,0.438c-0.087,0.135-0.201,0.243-0.345,0.33
	c-0.143,0.087-0.324,0.13-0.544,0.13c-0.11,0-0.213-0.016-0.309-0.048c-0.097-0.031-0.18-0.082-0.25-0.152
	c-0.07-0.07-0.127-0.163-0.169-0.278s-0.063-0.255-0.063-0.424v-2.716h-0.689v2.943c0,0.246,0.041,0.45,0.122,0.611
	c0.082,0.161,0.187,0.293,0.317,0.392c0.131,0.1,0.274,0.169,0.432,0.208c0.156,0.038,0.31,0.058,0.461,0.058
	c0.329,0,0.591-0.061,0.787-0.184c0.196-0.122,0.367-0.304,0.513-0.543l0.016,0.015v0.596H39.767z M35.773,92.832v-0.571h-0.658
	v-1.144h-0.689v1.144H33.87v0.571h0.557v2.702c0,0.125,0.012,0.241,0.035,0.349c0.023,0.107,0.065,0.2,0.125,0.278
	c0.059,0.078,0.144,0.138,0.25,0.183c0.106,0.045,0.247,0.067,0.418,0.067c0.037,0,0.101-0.008,0.192-0.021s0.199-0.024,0.326-0.034
	v-0.541H35.53c-0.036,0-0.079-0.001-0.125-0.003c-0.048-0.003-0.093-0.015-0.137-0.036c-0.045-0.021-0.081-0.054-0.11-0.098
	c-0.029-0.045-0.043-0.106-0.043-0.185v-2.662H35.773z M32.781,90.608h-0.846l-0.696,1.104h0.523L32.781,90.608z M30.526,93.506
	c0.011-0.079,0.029-0.164,0.054-0.254c0.027-0.093,0.071-0.179,0.137-0.259c0.066-0.081,0.157-0.147,0.275-0.199
	c0.117-0.053,0.274-0.08,0.474-0.08c0.642,0,0.962,0.222,0.962,0.666c0,0.104-0.01,0.188-0.03,0.247
	c-0.022,0.061-0.05,0.106-0.086,0.14c-0.036,0.034-0.077,0.06-0.118,0.071c-0.042,0.013-0.084,0.023-0.125,0.028l-1.136,0.14
	c-0.287,0.037-0.513,0.107-0.677,0.212c-0.166,0.104-0.289,0.223-0.372,0.354c-0.083,0.129-0.137,0.261-0.161,0.396
	c-0.023,0.132-0.036,0.24-0.036,0.323c0,0.178,0.032,0.339,0.095,0.481c0.063,0.145,0.151,0.269,0.267,0.373
	c0.114,0.104,0.25,0.185,0.407,0.242c0.157,0.059,0.329,0.086,0.516,0.086c0.199,0,0.375-0.02,0.53-0.062
	c0.153-0.043,0.291-0.096,0.411-0.16c0.12-0.066,0.224-0.138,0.31-0.216c0.085-0.078,0.163-0.154,0.231-0.228
	c0.005,0.078,0.018,0.155,0.039,0.232c0.021,0.074,0.056,0.143,0.105,0.199s0.122,0.104,0.215,0.14
	c0.095,0.037,0.216,0.055,0.368,0.055c0.08,0,0.146-0.008,0.204-0.026c0.058-0.019,0.115-0.035,0.173-0.051v-0.502
	c-0.042,0.011-0.083,0.019-0.122,0.024c-0.04,0.004-0.075,0.007-0.105,0.007c-0.152,0-0.228-0.081-0.228-0.242v-2.357
	c0-0.172-0.03-0.32-0.089-0.445c-0.061-0.127-0.138-0.232-0.232-0.317c-0.094-0.086-0.198-0.154-0.313-0.204
	c-0.115-0.05-0.231-0.088-0.345-0.114c-0.116-0.026-0.222-0.043-0.317-0.05c-0.098-0.01-0.172-0.012-0.224-0.012
	c-0.25,0-0.479,0.023-0.686,0.073s-0.382,0.128-0.528,0.24c-0.146,0.108-0.261,0.249-0.344,0.422
	c-0.084,0.174-0.128,0.382-0.134,0.627H30.526z M32.413,94.938c0,0.136-0.036,0.263-0.109,0.38
	c-0.073,0.116-0.168,0.219-0.286,0.305c-0.117,0.087-0.251,0.156-0.403,0.206c-0.152,0.047-0.309,0.073-0.47,0.073
	c-0.261,0-0.45-0.064-0.567-0.188c-0.118-0.125-0.176-0.301-0.176-0.526c0-0.129,0.03-0.234,0.09-0.315
	c0.059-0.08,0.135-0.145,0.224-0.192c0.088-0.047,0.183-0.081,0.285-0.106c0.102-0.022,0.195-0.039,0.278-0.05
	c0.214-0.026,0.387-0.052,0.521-0.074c0.133-0.023,0.241-0.044,0.326-0.063c0.083-0.018,0.145-0.039,0.188-0.061
	c0.042-0.02,0.075-0.04,0.101-0.062V94.938z M27.753,93.787l1.566-1.526h-0.876l-1.763,1.73v-3.258h-0.666v5.623h0.666v-1.552
	l0.572-0.516l1.276,2.067h0.886L27.753,93.787z M23.627,92.832v-0.571h-0.69v-0.509c0-0.169,0.03-0.29,0.089-0.365
	c0.061-0.075,0.167-0.114,0.317-0.114c0.043,0,0.088,0.002,0.141,0.005c0.053,0.002,0.1,0.007,0.143,0.012V90.67
	c-0.058-0.005-0.112-0.009-0.162-0.012s-0.1-0.004-0.152-0.004c-0.34,0-0.603,0.072-0.787,0.215
	c-0.187,0.145-0.279,0.372-0.279,0.686v0.706h-0.563v0.571h0.563v3.524h0.689v-3.524H23.627z M24.974,92.261h-0.689v4.096h0.689
	V92.261z M24.974,90.733h-0.689v0.783h0.689V90.733z M21.05,92.261h-0.689v4.096h0.689V92.261z M21.05,90.733h-0.689v0.783h0.689
	V90.733z M19.673,92.832v-0.571h-0.659v-1.144h-0.688v1.144h-0.557v0.571h0.557v2.702c0,0.125,0.012,0.241,0.035,0.349
	c0.023,0.107,0.066,0.2,0.125,0.278c0.059,0.078,0.144,0.138,0.25,0.183c0.107,0.045,0.247,0.067,0.419,0.067
	c0.037,0,0.101-0.008,0.192-0.021s0.199-0.024,0.326-0.034v-0.541H19.43c-0.037,0-0.079-0.001-0.125-0.003
	c-0.047-0.003-0.094-0.015-0.137-0.036c-0.045-0.021-0.082-0.054-0.11-0.098c-0.029-0.045-0.043-0.106-0.043-0.185v-2.662H19.673z
	 M16.031,93.976c0-0.146,0.024-0.286,0.074-0.42c0.05-0.132,0.121-0.249,0.211-0.352c0.091-0.102,0.2-0.182,0.328-0.238
	c0.128-0.059,0.273-0.087,0.435-0.087h0.259v-0.713c-0.026-0.01-0.052-0.018-0.079-0.021c-0.025-0.002-0.059-0.002-0.1-0.002
	c-0.262,0-0.485,0.072-0.67,0.218c-0.186,0.147-0.346,0.34-0.482,0.579h-0.016v-0.68h-0.65v4.096h0.69V93.976z M13.682,95.071
	c-0.005,0.079-0.033,0.164-0.083,0.254c-0.05,0.092-0.121,0.18-0.212,0.264c-0.091,0.083-0.201,0.152-0.329,0.207
	c-0.128,0.056-0.272,0.083-0.434,0.083c-0.397,0-0.695-0.118-0.893-0.354s-0.298-0.566-0.298-0.995h2.992
	c0-0.36-0.037-0.687-0.109-0.982c-0.073-0.294-0.184-0.546-0.33-0.754c-0.146-0.21-0.329-0.37-0.548-0.483
	c-0.219-0.112-0.477-0.167-0.775-0.167c-0.339,0-0.633,0.057-0.881,0.176c-0.248,0.118-0.452,0.279-0.611,0.486
	c-0.159,0.204-0.278,0.446-0.356,0.724c-0.079,0.277-0.118,0.574-0.118,0.893c0,0.296,0.042,0.571,0.125,0.822
	c0.083,0.25,0.204,0.467,0.36,0.648c0.157,0.184,0.349,0.326,0.575,0.429c0.227,0.101,0.484,0.151,0.771,0.151
	c0.162,0,0.303-0.008,0.423-0.027c0.12-0.018,0.224-0.04,0.31-0.066c0.086-0.025,0.159-0.056,0.218-0.09
	c0.061-0.033,0.115-0.066,0.162-0.098c0.13-0.083,0.239-0.18,0.329-0.289c0.088-0.109,0.161-0.219,0.219-0.325
	c0.057-0.108,0.1-0.206,0.129-0.299c0.029-0.091,0.046-0.159,0.051-0.207H13.682z M11.434,93.983c0-0.156,0.03-0.31,0.09-0.458
	c0.059-0.149,0.141-0.278,0.243-0.393c0.102-0.111,0.221-0.201,0.36-0.27c0.138-0.067,0.287-0.103,0.443-0.103
	c0.208,0,0.383,0.035,0.524,0.103c0.141,0.068,0.256,0.158,0.345,0.27c0.089,0.114,0.154,0.243,0.196,0.393
	c0.042,0.148,0.068,0.302,0.079,0.458H11.434z M10.205,93.639c-0.016-0.179-0.054-0.355-0.113-0.532
	c-0.061-0.178-0.152-0.338-0.275-0.482c-0.123-0.144-0.278-0.259-0.466-0.349c-0.187-0.089-0.414-0.132-0.68-0.132
	c-0.34,0-0.633,0.057-0.881,0.176c-0.249,0.118-0.452,0.279-0.611,0.486c-0.159,0.204-0.278,0.446-0.357,0.724
	c-0.078,0.277-0.117,0.574-0.117,0.893c0,0.296,0.042,0.571,0.125,0.822c0.084,0.25,0.204,0.467,0.36,0.648
	c0.157,0.184,0.348,0.326,0.576,0.429c0.227,0.101,0.485,0.151,0.771,0.151c0.297,0,0.549-0.051,0.756-0.151
	c0.207-0.103,0.373-0.231,0.501-0.389c0.128-0.156,0.224-0.326,0.29-0.508c0.065-0.185,0.105-0.355,0.122-0.518H9.538
	c-0.057,0.313-0.176,0.554-0.356,0.72c-0.18,0.169-0.387,0.252-0.623,0.252c-0.235,0-0.425-0.048-0.571-0.146
	c-0.146-0.097-0.26-0.222-0.34-0.376c-0.082-0.154-0.136-0.323-0.166-0.509C7.454,94.663,7.44,94.48,7.44,94.304
	c0-0.182,0.018-0.365,0.055-0.547c0.036-0.184,0.099-0.349,0.187-0.498c0.09-0.149,0.205-0.27,0.349-0.36
	c0.143-0.091,0.323-0.138,0.537-0.138c0.292,0,0.516,0.078,0.673,0.232c0.156,0.154,0.256,0.367,0.297,0.646H10.205z"/>
<path fill="#B1B3B4" d="M68.452,81.455h-0.846l-0.696,1.104h0.524L68.452,81.455z M68.374,85.919
	c-0.005,0.078-0.032,0.163-0.082,0.254c-0.05,0.093-0.119,0.181-0.212,0.263c-0.092,0.084-0.202,0.152-0.329,0.207
	s-0.273,0.083-0.435,0.083c-0.396,0-0.693-0.118-0.893-0.353c-0.198-0.235-0.297-0.565-0.297-0.995h2.991
	c0-0.359-0.037-0.688-0.109-0.982c-0.074-0.295-0.184-0.547-0.328-0.756c-0.147-0.21-0.33-0.369-0.549-0.48
	c-0.221-0.114-0.479-0.17-0.775-0.17c-0.34,0-0.634,0.06-0.882,0.177c-0.248,0.118-0.451,0.279-0.609,0.485
	c-0.16,0.207-0.279,0.447-0.357,0.726c-0.078,0.276-0.116,0.574-0.116,0.892c0,0.298,0.04,0.572,0.124,0.822
	c0.082,0.251,0.203,0.467,0.36,0.65c0.156,0.182,0.349,0.324,0.576,0.426c0.227,0.103,0.484,0.154,0.771,0.154
	c0.161,0,0.301-0.01,0.422-0.028s0.224-0.04,0.31-0.066c0.087-0.026,0.16-0.057,0.22-0.09c0.06-0.035,0.114-0.066,0.159-0.098
	c0.132-0.083,0.242-0.181,0.33-0.291c0.089-0.108,0.161-0.217,0.218-0.323c0.06-0.107,0.103-0.207,0.131-0.298
	c0.028-0.092,0.045-0.16,0.051-0.208H68.374z M66.127,84.83c0-0.157,0.028-0.31,0.09-0.458c0.06-0.149,0.141-0.279,0.242-0.392
	c0.103-0.111,0.223-0.202,0.361-0.271c0.138-0.067,0.284-0.103,0.441-0.103c0.208,0,0.384,0.035,0.525,0.103
	c0.141,0.068,0.256,0.159,0.345,0.271c0.088,0.112,0.152,0.242,0.195,0.392c0.042,0.148,0.068,0.301,0.078,0.458H66.127z
	 M64.553,81.58h-0.689v5.623h0.689V81.58z M62.281,85.919c-0.004,0.078-0.031,0.163-0.081,0.254
	c-0.05,0.093-0.121,0.181-0.213,0.263c-0.091,0.084-0.2,0.152-0.328,0.207c-0.129,0.055-0.273,0.083-0.435,0.083
	c-0.396,0-0.695-0.118-0.893-0.353c-0.199-0.235-0.299-0.565-0.299-0.995h2.992c0-0.359-0.036-0.688-0.109-0.982
	c-0.073-0.295-0.183-0.547-0.329-0.756c-0.146-0.21-0.328-0.369-0.549-0.48c-0.218-0.114-0.477-0.17-0.774-0.17
	c-0.34,0-0.633,0.06-0.882,0.177c-0.246,0.118-0.45,0.279-0.609,0.485c-0.159,0.207-0.279,0.447-0.356,0.726
	c-0.079,0.276-0.118,0.574-0.118,0.892c0,0.298,0.041,0.572,0.126,0.822c0.083,0.251,0.203,0.467,0.36,0.65
	c0.156,0.182,0.349,0.324,0.574,0.426c0.228,0.103,0.484,0.154,0.771,0.154c0.163,0,0.304-0.01,0.422-0.028
	c0.121-0.019,0.225-0.04,0.312-0.066c0.085-0.026,0.158-0.057,0.219-0.09c0.061-0.035,0.113-0.066,0.16-0.098
	c0.131-0.083,0.24-0.181,0.329-0.291c0.089-0.108,0.162-0.217,0.22-0.323c0.057-0.107,0.101-0.207,0.128-0.298
	c0.029-0.092,0.047-0.16,0.052-0.208H62.281z M60.033,84.83c0-0.157,0.031-0.31,0.09-0.458c0.06-0.149,0.142-0.279,0.243-0.392
	c0.103-0.111,0.223-0.202,0.36-0.271c0.139-0.067,0.287-0.103,0.443-0.103c0.208,0,0.382,0.035,0.524,0.103
	c0.14,0.068,0.256,0.159,0.344,0.271c0.089,0.112,0.154,0.242,0.196,0.392c0.043,0.148,0.067,0.301,0.079,0.458H60.033z
	 M58.82,83.679v-0.571h-0.659v-1.145h-0.688v1.145h-0.556v0.571h0.556v2.702c0,0.124,0.012,0.242,0.036,0.349
	c0.023,0.106,0.064,0.199,0.124,0.278c0.061,0.077,0.145,0.14,0.252,0.184c0.107,0.045,0.246,0.066,0.419,0.066
	c0.036,0,0.1-0.006,0.19-0.02c0.093-0.014,0.201-0.026,0.326-0.035v-0.541h-0.243c-0.036,0-0.077,0-0.124-0.003
	c-0.048-0.002-0.093-0.016-0.138-0.035c-0.044-0.021-0.081-0.055-0.109-0.099c-0.029-0.044-0.045-0.105-0.045-0.184v-2.663H58.82z
	 M56.284,83.107h-0.689v4.096h0.689V83.107z M56.284,81.58h-0.689v0.784h0.689V81.58z M52.594,81.455h-0.617l0.775,1.104h0.712
	l0.774-1.104h-0.625l-0.509,0.728L52.594,81.455z M54.756,83.672v-0.564h-3.172v0.571h2.279l-2.467,2.983v0.541h3.431v-0.572h-2.515
	L54.756,83.672z M49.838,84.821c0-0.146,0.024-0.286,0.074-0.417c0.05-0.135,0.12-0.252,0.212-0.353
	c0.09-0.103,0.201-0.183,0.329-0.24c0.127-0.057,0.272-0.085,0.435-0.085h0.258v-0.712c-0.025-0.012-0.053-0.018-0.077-0.021
	c-0.027-0.002-0.063-0.004-0.103-0.004c-0.261,0-0.484,0.072-0.669,0.22c-0.188,0.146-0.347,0.34-0.481,0.58h-0.017v-0.682h-0.65
	v4.096h0.689V84.821z M48.1,81.58h-0.688v2.107h-0.017c-0.041-0.059-0.094-0.127-0.156-0.208c-0.063-0.082-0.143-0.159-0.24-0.231
	c-0.096-0.072-0.211-0.134-0.344-0.184c-0.133-0.05-0.294-0.075-0.482-0.075c-0.271,0-0.513,0.053-0.724,0.157
	c-0.211,0.104-0.39,0.249-0.536,0.436c-0.147,0.185-0.258,0.4-0.333,0.649c-0.077,0.247-0.114,0.516-0.114,0.803
	c0,0.245,0.029,0.503,0.086,0.771c0.057,0.27,0.155,0.517,0.294,0.741c0.139,0.223,0.322,0.41,0.551,0.555
	c0.23,0.146,0.521,0.221,0.87,0.221c0.098,0,0.202-0.01,0.309-0.028c0.106-0.019,0.211-0.054,0.313-0.105
	c0.102-0.053,0.201-0.122,0.294-0.208c0.093-0.086,0.177-0.199,0.25-0.34h0.016v0.563h0.65V81.58z M45.201,84.681
	c0.016-0.177,0.063-0.345,0.138-0.503c0.076-0.159,0.188-0.295,0.336-0.404c0.149-0.108,0.356-0.166,0.624-0.166
	c0.25,0,0.448,0.06,0.594,0.176c0.147,0.119,0.258,0.268,0.333,0.444c0.076,0.178,0.124,0.367,0.146,0.566
	c0.021,0.202,0.03,0.386,0.03,0.553c0,0.272-0.037,0.496-0.112,0.675c-0.075,0.178-0.17,0.317-0.282,0.422
	c-0.113,0.104-0.233,0.178-0.364,0.219c-0.13,0.042-0.25,0.063-0.36,0.063c-0.188,0-0.351-0.04-0.489-0.121
	c-0.139-0.081-0.254-0.191-0.345-0.333c-0.091-0.142-0.159-0.31-0.203-0.502c-0.045-0.193-0.067-0.401-0.067-0.627
	C45.178,85.013,45.186,84.859,45.201,84.681 M40.958,85.919c-0.007,0.078-0.033,0.163-0.083,0.254
	c-0.05,0.093-0.12,0.181-0.211,0.263c-0.091,0.084-0.201,0.152-0.329,0.207c-0.127,0.055-0.272,0.083-0.434,0.083
	c-0.397,0-0.695-0.118-0.893-0.353c-0.199-0.235-0.298-0.565-0.298-0.995h2.991c0-0.359-0.036-0.688-0.109-0.982
	c-0.073-0.295-0.184-0.547-0.33-0.756c-0.146-0.21-0.329-0.369-0.548-0.48c-0.22-0.114-0.478-0.17-0.775-0.17
	c-0.341,0-0.634,0.06-0.881,0.177c-0.248,0.118-0.452,0.279-0.612,0.485c-0.159,0.207-0.278,0.447-0.356,0.726
	c-0.079,0.276-0.118,0.574-0.118,0.892c0,0.298,0.041,0.572,0.125,0.822c0.083,0.251,0.204,0.467,0.361,0.65
	c0.155,0.182,0.347,0.324,0.575,0.426c0.227,0.103,0.484,0.154,0.771,0.154c0.162,0,0.303-0.01,0.423-0.028
	c0.12-0.019,0.224-0.04,0.31-0.066s0.159-0.057,0.219-0.09c0.061-0.035,0.114-0.066,0.16-0.098c0.131-0.083,0.241-0.181,0.329-0.291
	c0.089-0.108,0.162-0.217,0.22-0.323c0.057-0.107,0.1-0.207,0.129-0.298c0.029-0.092,0.046-0.16,0.051-0.208H40.958z M38.71,84.83
	c0-0.157,0.03-0.31,0.09-0.458c0.06-0.149,0.141-0.279,0.243-0.392c0.102-0.111,0.221-0.202,0.359-0.271
	c0.139-0.067,0.287-0.103,0.442-0.103c0.209,0,0.384,0.035,0.525,0.103c0.141,0.068,0.257,0.159,0.345,0.271
	c0.089,0.112,0.154,0.242,0.196,0.392c0.041,0.148,0.067,0.301,0.078,0.458H38.71z M31.646,87.203h0.688v-2.232
	c0-0.276,0.038-0.504,0.115-0.682c0.075-0.177,0.167-0.315,0.276-0.418c0.111-0.102,0.228-0.171,0.354-0.206
	c0.125-0.038,0.237-0.058,0.337-0.058c0.125,0,0.229,0.024,0.312,0.071c0.083,0.048,0.151,0.107,0.201,0.181
	s0.083,0.155,0.102,0.247c0.018,0.091,0.026,0.178,0.026,0.262v2.835h0.689v-2.498c0-0.137,0.024-0.271,0.071-0.403
	c0.047-0.134,0.113-0.25,0.197-0.353c0.083-0.102,0.183-0.185,0.301-0.246c0.116-0.063,0.249-0.096,0.395-0.096
	c0.293,0,0.493,0.088,0.599,0.264c0.107,0.175,0.16,0.403,0.16,0.685v2.647h0.691v-2.835c0-0.288-0.046-0.521-0.138-0.701
	c-0.091-0.179-0.203-0.319-0.333-0.419c-0.131-0.1-0.269-0.167-0.415-0.204c-0.146-0.036-0.274-0.055-0.384-0.055
	c-0.156,0-0.294,0.019-0.415,0.052c-0.12,0.033-0.227,0.08-0.321,0.138c-0.094,0.057-0.184,0.127-0.267,0.211
	c-0.083,0.083-0.167,0.173-0.25,0.266c-0.031-0.053-0.07-0.117-0.118-0.194c-0.046-0.079-0.112-0.152-0.195-0.221
	c-0.083-0.066-0.188-0.126-0.313-0.176c-0.126-0.05-0.28-0.075-0.463-0.075c-0.182,0-0.343,0.027-0.481,0.08
	c-0.139,0.052-0.258,0.113-0.356,0.186c-0.1,0.075-0.182,0.151-0.247,0.233c-0.065,0.079-0.116,0.146-0.153,0.199h-0.016v-0.58
	h-0.65V87.203z M30.721,84.274c0-0.052-0.012-0.147-0.039-0.287c-0.025-0.138-0.091-0.281-0.196-0.43
	c-0.104-0.149-0.261-0.279-0.47-0.396c-0.209-0.114-0.495-0.173-0.861-0.173c-0.203,0-0.397,0.027-0.583,0.08
	c-0.186,0.052-0.35,0.13-0.493,0.237c-0.144,0.106-0.259,0.243-0.345,0.408c-0.086,0.163-0.129,0.358-0.129,0.583
	c0,0.283,0.087,0.499,0.259,0.654c0.172,0.154,0.402,0.267,0.689,0.341l0.798,0.194c0.293,0.074,0.502,0.149,0.627,0.228
	s0.188,0.199,0.188,0.36c0,0.114-0.026,0.213-0.079,0.292c-0.052,0.083-0.122,0.149-0.208,0.202
	c-0.084,0.052-0.184,0.09-0.296,0.117c-0.113,0.025-0.232,0.039-0.357,0.039c-0.246,0-0.438-0.029-0.58-0.086
	c-0.141-0.058-0.247-0.127-0.32-0.212c-0.073-0.084-0.122-0.174-0.145-0.273c-0.024-0.1-0.038-0.188-0.044-0.268h-0.666
	c0.006,0.085,0.015,0.177,0.028,0.279c0.013,0.102,0.039,0.206,0.078,0.313c0.041,0.106,0.099,0.21,0.177,0.308
	c0.078,0.101,0.181,0.19,0.309,0.271c0.127,0.081,0.287,0.146,0.478,0.192c0.191,0.047,0.422,0.071,0.693,0.071
	c0.23,0,0.444-0.032,0.642-0.095c0.199-0.062,0.369-0.152,0.513-0.266c0.145-0.115,0.257-0.257,0.342-0.424
	c0.083-0.166,0.125-0.357,0.125-0.57c0-0.278-0.085-0.501-0.255-0.672c-0.168-0.169-0.467-0.306-0.896-0.41l-0.689-0.173
	c-0.137-0.031-0.25-0.062-0.344-0.094c-0.095-0.03-0.169-0.066-0.227-0.105c-0.058-0.039-0.101-0.086-0.13-0.141
	c-0.028-0.055-0.043-0.124-0.043-0.208c0-0.124,0.033-0.227,0.098-0.305c0.065-0.078,0.142-0.138,0.232-0.176
	c0.088-0.04,0.178-0.066,0.269-0.079c0.092-0.012,0.163-0.02,0.216-0.02c0.219,0,0.392,0.022,0.517,0.07s0.221,0.105,0.289,0.176
	c0.068,0.071,0.113,0.146,0.134,0.228c0.021,0.081,0.032,0.153,0.032,0.216H30.721z M23.439,85.395v0.556
	c0,0.13,0.021,0.276,0.066,0.438c0.044,0.161,0.125,0.315,0.243,0.458c0.116,0.144,0.278,0.264,0.484,0.361
	c0.207,0.096,0.474,0.144,0.804,0.144c0.188,0,0.377-0.025,0.57-0.075c0.193-0.05,0.369-0.138,0.525-0.266
	c0.156-0.127,0.283-0.299,0.38-0.513c0.096-0.214,0.145-0.486,0.145-0.815V81.58h-0.759v4.15c0,0.137-0.015,0.265-0.044,0.383
	c-0.028,0.121-0.077,0.225-0.145,0.312c-0.067,0.085-0.159,0.152-0.273,0.202s-0.261,0.075-0.438,0.075
	c-0.266,0-0.474-0.067-0.624-0.204c-0.147-0.135-0.222-0.373-0.222-0.713v-0.391H23.439z"/>
</svg>
