<?xml version="1.0" encoding="utf-8"?>
<!-- Generator: Adobe Illustrator 15.1.0, SVG Export Plug-In . SVG Version: 6.00 Build 0)  -->
<!DOCTYPE svg PUBLIC "-//W3C//DTD SVG 1.1//EN" "http://www.w3.org/Graphics/SVG/1.1/DTD/svg11.dtd">
<svg version="1.1" id="Vrstva_1" xmlns="http://www.w3.org/2000/svg" xmlns:xlink="http://www.w3.org/1999/xlink" x="0px" y="0px"
	 width="93px" height="120px" viewBox="0 0 93 120" enable-background="new 0 0 93 120" xml:space="preserve">
<path fill="#B1B3B4" d="M74.108,116.344c0.006-0.093,0.017-0.215,0.034-0.368s0.064-0.302,0.138-0.448
	c0.071-0.146,0.181-0.268,0.325-0.371c0.146-0.104,0.349-0.156,0.606-0.156c0.202,0,0.373,0.031,0.511,0.092
	c0.137,0.064,0.248,0.142,0.333,0.238c0.086,0.097,0.146,0.202,0.185,0.318c0.036,0.117,0.054,0.229,0.054,0.339
	c0,0.182-0.026,0.333-0.075,0.455c-0.048,0.122-0.118,0.229-0.209,0.323c-0.091,0.094-0.197,0.176-0.318,0.256
	c-0.122,0.076-0.256,0.158-0.4,0.24l-0.723,0.42c-0.183,0.108-0.349,0.23-0.502,0.36c-0.153,0.135-0.286,0.287-0.4,0.459
	c-0.116,0.175-0.204,0.372-0.269,0.592c-0.064,0.222-0.103,0.474-0.113,0.759h3.74v-0.646h-2.972
	c0.007-0.052,0.025-0.118,0.056-0.193c0.031-0.077,0.081-0.165,0.148-0.26c0.068-0.091,0.16-0.188,0.28-0.289
	c0.118-0.102,0.272-0.202,0.458-0.307l0.567-0.313c0.201-0.108,0.393-0.216,0.573-0.329c0.177-0.111,0.333-0.236,0.465-0.377
	c0.133-0.14,0.236-0.303,0.312-0.48c0.074-0.183,0.112-0.396,0.112-0.639c0-0.255-0.043-0.483-0.132-0.686
	c-0.088-0.201-0.209-0.373-0.366-0.512c-0.156-0.142-0.336-0.247-0.543-0.323c-0.207-0.075-0.432-0.113-0.67-0.113
	c-0.099,0-0.214,0.008-0.345,0.023c-0.133,0.015-0.27,0.045-0.41,0.09c-0.139,0.045-0.276,0.111-0.411,0.198
	c-0.136,0.088-0.257,0.205-0.365,0.351c-0.108,0.144-0.196,0.323-0.26,0.535c-0.066,0.214-0.099,0.467-0.099,0.762H74.108z
	 M71.55,114.385h-0.535c-0.058,0.225-0.124,0.4-0.198,0.533c-0.076,0.132-0.171,0.233-0.283,0.304
	c-0.115,0.07-0.252,0.117-0.413,0.144c-0.16,0.026-0.353,0.048-0.575,0.062v0.544h1.275v3.881h0.729V114.385z M67.465,118.801
	c-0.184,0.388-0.472,0.584-0.867,0.584c-0.395,0-0.683-0.196-0.867-0.584c-0.184-0.387-0.274-0.924-0.274-1.609
	c0-0.683,0.091-1.221,0.274-1.609c0.185-0.389,0.473-0.582,0.867-0.582c0.396,0,0.684,0.193,0.867,0.582s0.276,0.927,0.276,1.609
	C67.741,117.877,67.648,118.414,67.465,118.801 M68.398,116.275c-0.05-0.328-0.142-0.629-0.277-0.91
	c-0.134-0.28-0.323-0.514-0.566-0.7c-0.244-0.188-0.562-0.28-0.957-0.28c-0.395,0-0.713,0.093-0.956,0.28
	c-0.244,0.187-0.436,0.42-0.571,0.7c-0.138,0.281-0.229,0.582-0.276,0.91c-0.047,0.327-0.069,0.631-0.069,0.916
	s0.022,0.591,0.069,0.919c0.047,0.325,0.139,0.629,0.276,0.91c0.136,0.277,0.327,0.513,0.571,0.698
	c0.243,0.187,0.562,0.281,0.956,0.281c0.396,0,0.713-0.095,0.957-0.281c0.243-0.186,0.433-0.421,0.566-0.698
	c0.136-0.281,0.228-0.585,0.277-0.91c0.049-0.328,0.072-0.634,0.072-0.919S68.447,116.603,68.398,116.275 M61.139,116.344
	c0.005-0.093,0.019-0.215,0.036-0.368s0.063-0.302,0.136-0.448c0.072-0.146,0.181-0.268,0.327-0.371
	c0.145-0.104,0.347-0.156,0.604-0.156c0.203,0,0.374,0.031,0.511,0.092c0.136,0.064,0.248,0.142,0.334,0.238
	c0.087,0.097,0.146,0.202,0.183,0.318c0.037,0.117,0.055,0.229,0.055,0.339c0,0.182-0.024,0.333-0.074,0.455
	c-0.049,0.122-0.119,0.229-0.21,0.323c-0.091,0.094-0.197,0.176-0.318,0.256c-0.122,0.076-0.256,0.158-0.4,0.24l-0.723,0.42
	c-0.182,0.108-0.35,0.23-0.503,0.36c-0.152,0.135-0.285,0.287-0.399,0.459c-0.114,0.175-0.203,0.372-0.27,0.592
	c-0.063,0.222-0.101,0.474-0.112,0.759h3.74v-0.646h-2.97c0.005-0.052,0.023-0.118,0.054-0.193c0.032-0.077,0.082-0.165,0.148-0.26
	c0.067-0.091,0.16-0.188,0.28-0.289c0.117-0.102,0.271-0.202,0.458-0.307l0.568-0.313c0.201-0.108,0.393-0.216,0.571-0.329
	c0.18-0.111,0.333-0.236,0.467-0.377c0.133-0.14,0.236-0.303,0.311-0.48c0.076-0.183,0.112-0.396,0.112-0.639
	c0-0.255-0.044-0.483-0.131-0.686c-0.089-0.201-0.21-0.373-0.365-0.512c-0.157-0.142-0.338-0.247-0.545-0.323
	c-0.207-0.075-0.431-0.113-0.67-0.113c-0.098,0-0.213,0.008-0.346,0.023c-0.131,0.015-0.269,0.045-0.408,0.09
	c-0.139,0.045-0.276,0.111-0.412,0.198c-0.133,0.088-0.256,0.205-0.365,0.351c-0.108,0.144-0.195,0.323-0.26,0.535
	c-0.065,0.214-0.097,0.467-0.097,0.762H61.139z M57.432,114.268h-0.685v5.584h0.685V114.268z M53.015,117.021
	c0.01-0.08,0.027-0.162,0.055-0.255c0.024-0.089,0.07-0.176,0.137-0.254c0.063-0.083,0.155-0.147,0.271-0.2
	c0.116-0.052,0.273-0.077,0.471-0.077c0.638,0,0.956,0.221,0.956,0.661c0,0.104-0.011,0.185-0.03,0.246
	c-0.021,0.059-0.05,0.105-0.086,0.139c-0.036,0.034-0.076,0.056-0.116,0.07c-0.042,0.014-0.083,0.021-0.126,0.025l-1.126,0.143
	c-0.286,0.037-0.509,0.105-0.674,0.209c-0.163,0.104-0.285,0.219-0.369,0.349c-0.083,0.132-0.136,0.262-0.158,0.394
	c-0.023,0.132-0.036,0.24-0.036,0.322c0,0.178,0.032,0.337,0.094,0.479c0.063,0.144,0.15,0.266,0.265,0.369s0.249,0.184,0.404,0.241
	c0.155,0.056,0.326,0.086,0.514,0.086c0.196,0,0.371-0.021,0.524-0.063c0.153-0.04,0.289-0.094,0.409-0.16
	c0.117-0.063,0.221-0.136,0.306-0.212c0.086-0.08,0.161-0.153,0.229-0.226c0.006,0.077,0.018,0.155,0.04,0.229
	c0.02,0.074,0.056,0.141,0.104,0.198c0.049,0.059,0.12,0.104,0.214,0.141c0.093,0.035,0.214,0.054,0.365,0.054
	c0.077,0,0.145-0.009,0.201-0.027c0.059-0.018,0.114-0.034,0.172-0.05v-0.497c-0.041,0.009-0.082,0.019-0.121,0.023
	c-0.038,0.004-0.073,0.007-0.104,0.007c-0.149,0-0.225-0.08-0.225-0.24v-2.342c0-0.17-0.03-0.318-0.09-0.442
	c-0.059-0.125-0.138-0.229-0.229-0.313c-0.094-0.088-0.197-0.156-0.313-0.203c-0.112-0.049-0.227-0.088-0.341-0.112
	c-0.114-0.026-0.219-0.045-0.314-0.053c-0.097-0.008-0.169-0.012-0.222-0.012c-0.248,0-0.476,0.025-0.681,0.075
	c-0.205,0.048-0.381,0.127-0.524,0.236c-0.146,0.108-0.259,0.249-0.342,0.421c-0.084,0.17-0.128,0.377-0.133,0.622H53.015z
	 M54.888,118.442c0,0.137-0.036,0.262-0.108,0.38c-0.072,0.114-0.167,0.217-0.283,0.302c-0.117,0.085-0.251,0.152-0.4,0.202
	c-0.151,0.05-0.307,0.073-0.467,0.073c-0.26,0-0.448-0.063-0.563-0.185c-0.117-0.127-0.175-0.299-0.175-0.522
	c0-0.13,0.028-0.233,0.09-0.313c0.059-0.082,0.132-0.146,0.22-0.19c0.088-0.048,0.184-0.083,0.285-0.106
	c0.1-0.023,0.192-0.04,0.275-0.05c0.213-0.025,0.385-0.052,0.518-0.072c0.132-0.026,0.24-0.045,0.322-0.064
	c0.083-0.019,0.146-0.037,0.187-0.059c0.042-0.019,0.075-0.042,0.101-0.061V118.442z M51.397,117.083
	c0-0.29-0.045-0.528-0.133-0.712c-0.089-0.184-0.201-0.327-0.342-0.431c-0.14-0.104-0.295-0.175-0.463-0.215
	c-0.168-0.039-0.331-0.059-0.487-0.059c-0.175,0-0.33,0.028-0.465,0.08s-0.254,0.112-0.354,0.184c-0.1,0.076-0.185,0.151-0.252,0.23
	c-0.067,0.08-0.12,0.146-0.155,0.199h-0.018v-0.575h-0.644v4.066h0.683v-2.218c0-0.273,0.039-0.499,0.115-0.676
	c0.074-0.177,0.166-0.316,0.275-0.417c0.108-0.099,0.226-0.167,0.35-0.205c0.123-0.035,0.235-0.055,0.334-0.055
	c0.332,0,0.561,0.09,0.684,0.27c0.125,0.179,0.188,0.443,0.188,0.796v2.505h0.685V117.083z M43.642,118.596
	c0.075,0.256,0.189,0.485,0.345,0.688c0.155,0.202,0.351,0.366,0.587,0.49c0.237,0.125,0.518,0.187,0.844,0.187
	s0.607-0.062,0.843-0.187c0.236-0.124,0.431-0.288,0.586-0.49s0.271-0.432,0.347-0.688c0.073-0.257,0.113-0.519,0.113-0.782
	c0-0.265-0.04-0.525-0.113-0.779c-0.075-0.258-0.191-0.485-0.347-0.69c-0.155-0.201-0.351-0.365-0.586-0.488
	c-0.236-0.124-0.517-0.188-0.843-0.188s-0.607,0.064-0.844,0.188c-0.237,0.123-0.432,0.287-0.587,0.488
	c-0.156,0.205-0.27,0.433-0.345,0.69c-0.076,0.254-0.113,0.515-0.113,0.779C43.528,118.077,43.566,118.339,43.642,118.596
	 M44.282,117.342c0.032-0.176,0.089-0.348,0.175-0.509c0.085-0.16,0.206-0.297,0.362-0.407s0.354-0.167,0.599-0.167
	c0.243,0,0.443,0.057,0.6,0.167c0.155,0.11,0.275,0.247,0.36,0.407c0.085,0.161,0.145,0.333,0.174,0.509
	c0.032,0.183,0.047,0.337,0.047,0.472c0,0.134-0.016,0.292-0.047,0.471c-0.029,0.18-0.089,0.35-0.174,0.509
	c-0.085,0.161-0.205,0.297-0.36,0.408c-0.157,0.113-0.357,0.167-0.6,0.167c-0.244,0-0.443-0.054-0.599-0.167
	c-0.156-0.111-0.277-0.247-0.362-0.408c-0.086-0.159-0.144-0.329-0.175-0.509c-0.03-0.179-0.046-0.337-0.046-0.471
	C44.236,117.679,44.252,117.524,44.282,117.342 M42.736,115.785h-0.684v4.066h0.684V115.785z M42.736,114.268h-0.684v0.779h0.684
	V114.268z M41.366,116.353v-0.567h-0.652v-1.136h-0.685v1.136h-0.552v0.567h0.552v2.682c0,0.125,0.012,0.239,0.036,0.346
	c0.023,0.105,0.063,0.2,0.125,0.275c0.06,0.079,0.142,0.14,0.249,0.185c0.106,0.044,0.244,0.065,0.416,0.065
	c0.037,0,0.101-0.007,0.191-0.019c0.089-0.015,0.197-0.025,0.321-0.035v-0.537h-0.241c-0.037,0-0.076,0-0.124-0.002
	c-0.046-0.005-0.092-0.018-0.136-0.036c-0.045-0.021-0.081-0.054-0.109-0.097c-0.028-0.045-0.042-0.105-0.042-0.184v-2.644H41.366z
	 M36.157,117.021c0.011-0.08,0.028-0.162,0.054-0.255c0.026-0.089,0.072-0.176,0.137-0.254c0.063-0.083,0.155-0.147,0.272-0.2
	c0.117-0.052,0.273-0.077,0.47-0.077c0.639,0,0.957,0.221,0.957,0.661c0,0.104-0.01,0.185-0.032,0.246
	c-0.021,0.059-0.05,0.105-0.085,0.139c-0.037,0.034-0.075,0.056-0.116,0.07c-0.042,0.014-0.083,0.021-0.125,0.025l-1.128,0.143
	c-0.284,0.037-0.509,0.105-0.673,0.209c-0.163,0.104-0.286,0.219-0.369,0.349c-0.083,0.132-0.136,0.262-0.159,0.394
	c-0.023,0.132-0.035,0.24-0.035,0.322c0,0.178,0.031,0.337,0.093,0.479c0.063,0.144,0.151,0.266,0.265,0.369
	c0.113,0.104,0.249,0.184,0.404,0.241c0.155,0.056,0.325,0.086,0.512,0.086c0.197,0,0.373-0.021,0.525-0.063
	c0.153-0.04,0.289-0.094,0.409-0.16c0.118-0.063,0.22-0.136,0.307-0.212c0.086-0.08,0.163-0.153,0.228-0.226
	c0.006,0.077,0.02,0.155,0.041,0.229c0.021,0.074,0.055,0.141,0.105,0.198c0.048,0.059,0.121,0.104,0.214,0.141
	c0.092,0.035,0.215,0.054,0.366,0.054c0.076,0,0.145-0.009,0.202-0.027c0.057-0.018,0.114-0.034,0.17-0.05v-0.497
	c-0.042,0.009-0.08,0.019-0.12,0.023c-0.039,0.004-0.074,0.007-0.105,0.007c-0.149,0-0.226-0.08-0.226-0.24v-2.342
	c0-0.17-0.028-0.318-0.089-0.442c-0.059-0.125-0.136-0.229-0.229-0.313c-0.093-0.088-0.196-0.156-0.311-0.203
	c-0.114-0.049-0.229-0.088-0.342-0.112c-0.114-0.026-0.219-0.045-0.314-0.053c-0.097-0.008-0.171-0.012-0.223-0.012
	c-0.248,0-0.475,0.025-0.679,0.075c-0.205,0.048-0.381,0.127-0.525,0.236c-0.146,0.108-0.259,0.249-0.343,0.421
	c-0.082,0.17-0.126,0.377-0.13,0.622H36.157z M38.032,118.442c0,0.137-0.037,0.262-0.11,0.38c-0.072,0.114-0.167,0.217-0.283,0.302
	c-0.118,0.085-0.251,0.152-0.4,0.202c-0.151,0.05-0.307,0.073-0.466,0.073c-0.261,0-0.448-0.063-0.564-0.185
	c-0.117-0.127-0.174-0.299-0.174-0.522c0-0.13,0.028-0.233,0.089-0.313c0.059-0.082,0.132-0.146,0.222-0.19
	c0.088-0.048,0.183-0.083,0.284-0.106c0.102-0.023,0.193-0.04,0.276-0.05c0.212-0.025,0.385-0.052,0.516-0.072
	c0.133-0.026,0.24-0.045,0.324-0.064c0.082-0.019,0.145-0.037,0.186-0.059c0.042-0.019,0.075-0.042,0.102-0.061V118.442z
	 M34.54,117.083c0-0.29-0.043-0.528-0.13-0.712c-0.09-0.184-0.203-0.327-0.343-0.431c-0.14-0.104-0.294-0.175-0.463-0.215
	c-0.168-0.039-0.331-0.059-0.485-0.059c-0.178,0-0.332,0.028-0.466,0.08c-0.135,0.052-0.253,0.112-0.354,0.184
	c-0.101,0.076-0.186,0.151-0.254,0.23c-0.067,0.08-0.119,0.146-0.155,0.199h-0.015v-0.575h-0.646v4.066h0.685v-2.218
	c0-0.273,0.039-0.499,0.113-0.676c0.076-0.177,0.167-0.316,0.277-0.417c0.108-0.099,0.225-0.167,0.35-0.205
	c0.124-0.035,0.234-0.055,0.333-0.055c0.332,0,0.56,0.09,0.685,0.27c0.124,0.179,0.187,0.443,0.187,0.796v2.505h0.683V117.083z
	 M29.221,117.488c0-0.146,0.026-0.285,0.076-0.417c0.048-0.132,0.118-0.247,0.209-0.349c0.091-0.102,0.199-0.182,0.325-0.238
	c0.128-0.056,0.272-0.085,0.432-0.085h0.257v-0.707c-0.026-0.011-0.052-0.019-0.078-0.021c-0.025-0.001-0.06-0.004-0.1-0.004
	c-0.26,0-0.482,0.073-0.666,0.219c-0.184,0.144-0.342,0.337-0.479,0.575h-0.015v-0.676h-0.646v4.066h0.683V117.488z M26.89,118.577
	c-0.006,0.075-0.033,0.16-0.083,0.252c-0.049,0.092-0.119,0.177-0.21,0.259c-0.09,0.085-0.199,0.153-0.326,0.207
	c-0.127,0.055-0.271,0.083-0.431,0.083c-0.395,0-0.69-0.118-0.887-0.352c-0.196-0.233-0.294-0.561-0.294-0.987h2.97
	c0-0.357-0.036-0.684-0.108-0.976c-0.073-0.292-0.183-0.544-0.328-0.751c-0.145-0.205-0.328-0.365-0.544-0.478
	c-0.218-0.111-0.474-0.168-0.769-0.168c-0.338,0-0.629,0.059-0.875,0.177c-0.245,0.115-0.448,0.275-0.607,0.48
	c-0.158,0.205-0.276,0.445-0.354,0.719c-0.078,0.275-0.117,0.572-0.117,0.888c0,0.295,0.042,0.568,0.125,0.815
	c0.083,0.25,0.203,0.464,0.358,0.646c0.156,0.181,0.344,0.322,0.57,0.424c0.225,0.101,0.482,0.152,0.766,0.152
	c0.16,0,0.301-0.012,0.42-0.027c0.119-0.019,0.222-0.04,0.308-0.066c0.085-0.026,0.158-0.057,0.217-0.09
	c0.06-0.035,0.113-0.066,0.16-0.096c0.13-0.085,0.238-0.183,0.326-0.29c0.087-0.108,0.161-0.215,0.218-0.32
	c0.057-0.106,0.099-0.206,0.128-0.297c0.028-0.09,0.046-0.158,0.051-0.205H26.89z M24.658,117.495c0-0.155,0.03-0.308,0.088-0.455
	c0.059-0.148,0.141-0.277,0.242-0.388c0.101-0.114,0.22-0.201,0.357-0.269c0.138-0.066,0.285-0.103,0.44-0.103
	c0.207,0,0.38,0.036,0.52,0.103c0.141,0.067,0.255,0.154,0.343,0.269c0.088,0.11,0.153,0.239,0.194,0.388
	c0.042,0.147,0.067,0.3,0.08,0.455H24.658z M23.454,116.353v-0.567H22.8v-1.136h-0.685v1.136h-0.552v0.567h0.552v2.682
	c0,0.125,0.012,0.239,0.035,0.346c0.022,0.105,0.064,0.2,0.124,0.275c0.06,0.079,0.142,0.14,0.25,0.185
	c0.106,0.044,0.245,0.065,0.415,0.065c0.037,0,0.1-0.007,0.19-0.019c0.091-0.015,0.2-0.025,0.325-0.035v-0.537h-0.242
	c-0.037,0-0.078,0-0.125-0.002c-0.047-0.005-0.091-0.018-0.136-0.036c-0.043-0.021-0.081-0.054-0.109-0.097
	c-0.028-0.045-0.042-0.105-0.042-0.184v-2.644H23.454z M20.949,117.083c0-0.29-0.043-0.528-0.132-0.712s-0.203-0.327-0.343-0.431
	c-0.139-0.104-0.293-0.175-0.462-0.215c-0.168-0.039-0.33-0.059-0.486-0.059c-0.176,0-0.331,0.028-0.467,0.08
	c-0.134,0.052-0.252,0.112-0.354,0.184c-0.101,0.076-0.186,0.151-0.253,0.23c-0.067,0.08-0.119,0.146-0.155,0.199h-0.015v-0.575
	h-0.645v4.066h0.685v-2.218c0-0.273,0.036-0.499,0.112-0.676c0.074-0.177,0.167-0.316,0.276-0.417
	c0.108-0.099,0.226-0.167,0.35-0.205c0.125-0.035,0.237-0.055,0.334-0.055c0.332,0,0.56,0.09,0.684,0.27
	c0.126,0.179,0.187,0.443,0.187,0.796v2.505h0.685V117.083z M16.431,114.268h-0.753v5.584h0.753V114.268z"/>
<path fill="#B1B3B4" d="M89.037,110.01h-0.016l-1.08-3.313h-0.777l1.508,4.175c-0.082,0.212-0.149,0.38-0.201,0.502
	c-0.052,0.121-0.102,0.217-0.149,0.283c-0.046,0.068-0.097,0.11-0.154,0.13c-0.059,0.016-0.13,0.025-0.219,0.025
	c-0.093,0-0.174-0.007-0.244-0.023c-0.07-0.015-0.125-0.031-0.167-0.045v0.619c0.057,0.018,0.105,0.031,0.148,0.045
	c0.041,0.013,0.087,0.019,0.14,0.019c0.217,0,0.393-0.014,0.527-0.037c0.135-0.028,0.255-0.099,0.359-0.215
	c0.104-0.117,0.206-0.289,0.31-0.521c0.104-0.23,0.236-0.554,0.397-0.968c0.264-0.669,0.515-1.334,0.749-1.995
	c0.236-0.66,0.474-1.324,0.713-1.994h-0.754L89.037,110.01z M86.915,107.265v-0.567h-0.653v-1.136h-0.685v1.136h-0.552v0.567h0.552
	v2.682c0,0.125,0.012,0.241,0.035,0.347c0.022,0.106,0.065,0.197,0.124,0.275c0.062,0.078,0.143,0.139,0.248,0.184
	c0.106,0.043,0.247,0.066,0.416,0.066c0.037,0,0.102-0.007,0.19-0.021c0.091-0.012,0.2-0.023,0.324-0.033v-0.537h-0.241
	c-0.037,0-0.079,0-0.125-0.002c-0.045-0.005-0.092-0.014-0.135-0.035c-0.045-0.021-0.081-0.055-0.108-0.1
	c-0.03-0.042-0.044-0.104-0.044-0.181v-2.645H86.915z M84.396,106.697h-0.685v4.066h0.685V106.697z M84.396,105.183h-0.685v0.777
	h0.685V105.183z M82.67,105.183h-0.684v5.581h0.684V105.183z M78.253,107.933c0.012-0.076,0.029-0.161,0.055-0.252
	c0.025-0.09,0.071-0.175,0.135-0.258c0.065-0.077,0.156-0.146,0.273-0.198c0.117-0.051,0.273-0.077,0.471-0.077
	c0.639,0,0.956,0.221,0.956,0.662c0,0.104-0.01,0.184-0.031,0.245c-0.021,0.059-0.05,0.106-0.085,0.139
	c-0.036,0.033-0.075,0.06-0.117,0.071c-0.041,0.011-0.082,0.021-0.125,0.025l-1.127,0.142c-0.285,0.035-0.509,0.105-0.673,0.209
	c-0.162,0.104-0.286,0.223-0.369,0.35c-0.083,0.129-0.136,0.261-0.158,0.394c-0.023,0.132-0.035,0.239-0.035,0.323
	c0,0.176,0.03,0.334,0.093,0.478s0.15,0.266,0.265,0.367c0.113,0.104,0.249,0.187,0.404,0.243c0.154,0.056,0.326,0.085,0.513,0.085
	c0.197,0,0.372-0.021,0.525-0.062c0.153-0.042,0.288-0.095,0.408-0.161c0.118-0.063,0.221-0.133,0.307-0.213
	c0.086-0.076,0.162-0.151,0.229-0.225c0.006,0.077,0.02,0.153,0.039,0.229c0.022,0.076,0.056,0.142,0.105,0.198
	c0.049,0.056,0.121,0.104,0.215,0.141c0.092,0.036,0.215,0.055,0.365,0.055c0.076,0,0.145-0.01,0.201-0.028
	c0.058-0.019,0.114-0.035,0.171-0.05v-0.497c-0.041,0.009-0.081,0.017-0.12,0.021c-0.038,0.008-0.073,0.009-0.104,0.009
	c-0.151,0-0.226-0.08-0.226-0.242v-2.34c0-0.169-0.03-0.317-0.089-0.442c-0.06-0.125-0.138-0.229-0.229-0.315
	c-0.094-0.085-0.197-0.151-0.311-0.2c-0.115-0.05-0.229-0.087-0.344-0.113c-0.113-0.026-0.218-0.043-0.314-0.053
	c-0.096-0.006-0.17-0.011-0.222-0.011c-0.25,0-0.476,0.025-0.679,0.074c-0.206,0.05-0.381,0.128-0.525,0.238
	c-0.147,0.108-0.26,0.247-0.342,0.42c-0.084,0.169-0.128,0.377-0.134,0.62H78.253z M80.127,109.357c0,0.135-0.036,0.26-0.108,0.374
	c-0.072,0.119-0.168,0.22-0.284,0.305c-0.116,0.087-0.25,0.153-0.4,0.202c-0.15,0.05-0.306,0.076-0.466,0.076
	c-0.26,0-0.447-0.063-0.565-0.188c-0.115-0.125-0.175-0.297-0.175-0.521c0-0.13,0.031-0.233,0.092-0.315
	c0.059-0.08,0.132-0.144,0.22-0.191c0.088-0.044,0.185-0.08,0.285-0.104c0.1-0.023,0.193-0.04,0.274-0.051
	c0.214-0.024,0.385-0.05,0.519-0.074c0.132-0.023,0.239-0.042,0.321-0.061c0.084-0.019,0.146-0.038,0.188-0.059
	c0.041-0.021,0.073-0.04,0.101-0.062V109.357z M76.621,110.764v-4.066h-0.686v2.238c0,0.151-0.017,0.305-0.054,0.462
	c-0.037,0.16-0.098,0.304-0.183,0.436c-0.086,0.135-0.199,0.243-0.341,0.328c-0.145,0.085-0.324,0.127-0.542,0.127
	c-0.109,0-0.211-0.014-0.307-0.045c-0.098-0.03-0.18-0.082-0.248-0.153c-0.07-0.067-0.128-0.16-0.168-0.275
	c-0.041-0.113-0.063-0.252-0.063-0.42v-2.697h-0.685v2.925c0,0.242,0.041,0.444,0.12,0.604c0.081,0.16,0.186,0.29,0.314,0.389
	c0.131,0.1,0.273,0.167,0.429,0.208c0.156,0.038,0.308,0.057,0.458,0.057c0.328,0,0.588-0.059,0.782-0.183
	c0.195-0.122,0.364-0.303,0.51-0.539l0.015,0.014v0.592H76.621z M70.035,109.614l0.583,0.45c-0.238,0.117-0.514,0.179-0.824,0.179
	c-0.307,0-0.577-0.059-0.816-0.172c-0.239-0.112-0.442-0.273-0.61-0.474c-0.17-0.203-0.297-0.442-0.385-0.721
	c-0.089-0.275-0.134-0.578-0.134-0.904s0.045-0.627,0.134-0.905c0.088-0.278,0.215-0.519,0.385-0.721
	c0.168-0.201,0.371-0.358,0.61-0.475c0.239-0.112,0.51-0.171,0.816-0.171c0.3,0,0.57,0.059,0.812,0.171
	c0.242,0.116,0.446,0.273,0.615,0.475c0.168,0.202,0.296,0.442,0.386,0.721c0.087,0.278,0.131,0.579,0.131,0.905
	c0,0.357-0.053,0.685-0.158,0.984c-0.106,0.297-0.26,0.544-0.455,0.739l-0.71-0.551L70.035,109.614z M72.469,110.747l-0.763-0.589
	c0.146-0.15,0.271-0.315,0.374-0.494c0.104-0.18,0.187-0.365,0.252-0.557c0.065-0.19,0.112-0.384,0.14-0.58
	c0.029-0.194,0.043-0.379,0.043-0.555c0-0.204-0.019-0.415-0.059-0.64c-0.039-0.221-0.1-0.44-0.187-0.659
	c-0.084-0.217-0.197-0.424-0.333-0.622c-0.138-0.198-0.307-0.372-0.51-0.525c-0.201-0.153-0.438-0.273-0.708-0.36
	c-0.27-0.09-0.577-0.132-0.925-0.132s-0.656,0.042-0.925,0.132c-0.271,0.087-0.506,0.207-0.708,0.36
	c-0.201,0.153-0.372,0.327-0.511,0.525c-0.136,0.198-0.247,0.405-0.333,0.622c-0.086,0.219-0.148,0.438-0.188,0.659
	c-0.038,0.225-0.057,0.436-0.057,0.64c0,0.202,0.019,0.414,0.057,0.639c0.039,0.221,0.102,0.442,0.188,0.659
	s0.197,0.424,0.333,0.622c0.139,0.197,0.31,0.372,0.511,0.525c0.202,0.152,0.437,0.273,0.708,0.36
	c0.269,0.089,0.577,0.134,0.925,0.134c0.296,0,0.563-0.032,0.804-0.099c0.242-0.063,0.453-0.158,0.634-0.275l0.856,0.66
	L72.469,110.747z M64.428,108.066c-0.016-0.177-0.053-0.354-0.111-0.53c-0.061-0.174-0.151-0.335-0.272-0.479
	c-0.123-0.141-0.276-0.257-0.462-0.346c-0.188-0.087-0.413-0.132-0.677-0.132c-0.337,0-0.629,0.059-0.875,0.177
	c-0.246,0.115-0.449,0.274-0.606,0.48c-0.159,0.205-0.276,0.445-0.353,0.721c-0.08,0.273-0.119,0.568-0.119,0.884
	c0,0.296,0.041,0.57,0.125,0.817c0.082,0.25,0.203,0.464,0.358,0.646s0.347,0.323,0.571,0.424c0.225,0.102,0.48,0.151,0.765,0.151
	c0.296,0,0.547-0.05,0.75-0.151c0.206-0.101,0.373-0.23,0.499-0.387c0.127-0.152,0.224-0.322,0.287-0.504
	c0.065-0.181,0.104-0.354,0.12-0.513h-0.66c-0.058,0.311-0.175,0.55-0.354,0.716c-0.178,0.165-0.385,0.247-0.616,0.247
	c-0.235,0-0.425-0.047-0.568-0.144c-0.145-0.095-0.259-0.22-0.338-0.373c-0.081-0.152-0.136-0.322-0.164-0.504
	c-0.028-0.186-0.043-0.364-0.043-0.542c0-0.181,0.019-0.362,0.055-0.544s0.099-0.347,0.188-0.495
	c0.087-0.146,0.202-0.266,0.346-0.355c0.142-0.092,0.319-0.137,0.531-0.137c0.292,0,0.515,0.075,0.67,0.229
	c0.154,0.153,0.254,0.367,0.295,0.644H64.428z M63.922,105.055h-0.838l-0.691,1.099h0.519L63.922,105.055z M59.936,105.055h-0.841
	l-0.691,1.099h0.521L59.936,105.055z M60.308,107.856c0-0.052-0.014-0.148-0.038-0.285c-0.027-0.137-0.091-0.277-0.194-0.427
	c-0.104-0.148-0.26-0.28-0.468-0.393c-0.207-0.116-0.492-0.172-0.855-0.172c-0.203,0-0.395,0.025-0.578,0.077
	c-0.185,0.052-0.348,0.132-0.49,0.238c-0.143,0.105-0.257,0.24-0.343,0.405c-0.085,0.162-0.127,0.355-0.127,0.577
	c0,0.28,0.085,0.497,0.256,0.649c0.17,0.153,0.399,0.268,0.686,0.34l0.791,0.193c0.292,0.073,0.499,0.148,0.623,0.226
	c0.124,0.078,0.187,0.196,0.187,0.356c0,0.115-0.026,0.212-0.077,0.292c-0.053,0.083-0.122,0.146-0.207,0.197
	c-0.085,0.053-0.184,0.093-0.295,0.119c-0.111,0.024-0.23,0.037-0.354,0.037c-0.243,0-0.436-0.026-0.575-0.085
	c-0.14-0.056-0.247-0.127-0.318-0.209c-0.072-0.083-0.121-0.175-0.144-0.271c-0.023-0.1-0.039-0.188-0.044-0.265H57.08
	c0.005,0.08,0.015,0.175,0.029,0.273c0.011,0.102,0.038,0.206,0.076,0.313c0.038,0.105,0.097,0.209,0.176,0.308
	c0.077,0.099,0.18,0.188,0.307,0.269c0.126,0.08,0.286,0.144,0.475,0.188c0.189,0.047,0.419,0.071,0.688,0.071
	c0.229,0,0.441-0.031,0.639-0.093c0.196-0.063,0.365-0.15,0.509-0.263c0.143-0.116,0.255-0.255,0.339-0.422
	c0.082-0.165,0.124-0.356,0.124-0.568c0-0.273-0.085-0.495-0.253-0.665c-0.168-0.167-0.466-0.303-0.891-0.406l-0.684-0.173
	c-0.136-0.03-0.249-0.061-0.343-0.092c-0.093-0.03-0.169-0.066-0.227-0.106c-0.057-0.037-0.099-0.085-0.127-0.139
	c-0.029-0.055-0.043-0.124-0.043-0.205c0-0.127,0.032-0.227,0.098-0.304c0.064-0.077,0.141-0.137,0.228-0.177
	c0.089-0.038,0.179-0.063,0.271-0.078c0.091-0.012,0.16-0.019,0.213-0.019c0.219,0,0.389,0.023,0.513,0.07
	c0.126,0.045,0.221,0.106,0.288,0.175c0.067,0.071,0.111,0.146,0.133,0.226c0.021,0.081,0.029,0.151,0.029,0.215H60.308z
	 M52.894,109.508c0.075,0.258,0.191,0.486,0.347,0.688c0.155,0.203,0.352,0.365,0.586,0.49c0.236,0.122,0.518,0.186,0.844,0.186
	c0.328,0,0.608-0.063,0.844-0.186c0.236-0.125,0.433-0.287,0.587-0.49c0.156-0.202,0.272-0.431,0.348-0.688
	c0.073-0.257,0.111-0.518,0.111-0.782c0-0.263-0.038-0.522-0.111-0.782c-0.075-0.257-0.191-0.485-0.348-0.685
	c-0.154-0.203-0.351-0.366-0.587-0.493c-0.235-0.122-0.516-0.186-0.844-0.186c-0.326,0-0.607,0.063-0.844,0.186
	c-0.234,0.127-0.431,0.29-0.586,0.493c-0.155,0.199-0.271,0.428-0.347,0.685c-0.075,0.26-0.111,0.52-0.111,0.782
	C52.782,108.99,52.818,109.251,52.894,109.508 M53.535,108.257c0.031-0.179,0.089-0.349,0.175-0.509
	c0.086-0.162,0.206-0.296,0.362-0.41c0.154-0.11,0.354-0.167,0.598-0.167c0.244,0,0.442,0.057,0.599,0.167
	c0.156,0.114,0.277,0.248,0.362,0.41c0.086,0.16,0.144,0.33,0.175,0.509c0.03,0.177,0.047,0.334,0.047,0.469
	c0,0.138-0.017,0.292-0.047,0.472c-0.031,0.179-0.089,0.349-0.175,0.51c-0.085,0.159-0.206,0.296-0.362,0.406
	c-0.156,0.113-0.354,0.168-0.599,0.168c-0.243,0-0.443-0.055-0.598-0.168c-0.156-0.11-0.276-0.247-0.362-0.406
	c-0.086-0.161-0.144-0.331-0.175-0.51c-0.031-0.18-0.047-0.334-0.047-0.472C53.488,108.591,53.504,108.434,53.535,108.257
	 M51.023,108.212l1.556-1.515h-0.872l-1.748,1.718v-3.232h-0.662v5.581h0.662v-1.541l0.568-0.511l1.267,2.052h0.879L51.023,108.212z
	 M45.565,107.933c0.011-0.076,0.029-0.161,0.054-0.252c0.027-0.09,0.072-0.175,0.137-0.258c0.065-0.077,0.156-0.146,0.272-0.198
	c0.117-0.051,0.273-0.077,0.471-0.077c0.637,0,0.956,0.221,0.956,0.662c0,0.104-0.012,0.184-0.031,0.245
	c-0.021,0.059-0.049,0.106-0.086,0.139c-0.035,0.033-0.075,0.06-0.116,0.071c-0.041,0.011-0.084,0.021-0.124,0.025l-1.128,0.142
	c-0.285,0.035-0.509,0.105-0.672,0.209c-0.164,0.104-0.287,0.223-0.37,0.35c-0.083,0.129-0.136,0.261-0.159,0.394
	c-0.024,0.132-0.034,0.239-0.034,0.323c0,0.176,0.029,0.334,0.092,0.478c0.062,0.144,0.151,0.266,0.265,0.367
	c0.114,0.104,0.248,0.187,0.404,0.243c0.156,0.056,0.327,0.085,0.514,0.085c0.197,0,0.371-0.021,0.524-0.062
	c0.152-0.042,0.289-0.095,0.407-0.161c0.12-0.063,0.224-0.133,0.31-0.213c0.084-0.076,0.161-0.151,0.229-0.225
	c0.004,0.077,0.019,0.153,0.039,0.229c0.02,0.076,0.055,0.142,0.104,0.198c0.05,0.056,0.12,0.104,0.213,0.141
	c0.095,0.036,0.218,0.055,0.366,0.055c0.078,0,0.145-0.01,0.203-0.028c0.057-0.019,0.113-0.035,0.17-0.05v-0.497
	c-0.041,0.009-0.082,0.017-0.119,0.021c-0.039,0.008-0.074,0.009-0.105,0.009c-0.152,0-0.226-0.08-0.226-0.242v-2.34
	c0-0.169-0.03-0.317-0.089-0.442c-0.062-0.125-0.138-0.229-0.229-0.315c-0.095-0.085-0.198-0.151-0.313-0.2
	c-0.114-0.05-0.228-0.087-0.342-0.113s-0.218-0.043-0.315-0.053c-0.095-0.006-0.169-0.011-0.221-0.011
	c-0.249,0-0.475,0.025-0.681,0.074c-0.204,0.05-0.378,0.128-0.524,0.238c-0.145,0.108-0.259,0.247-0.342,0.42
	c-0.083,0.169-0.127,0.377-0.132,0.62H45.565z M47.439,109.357c0,0.135-0.036,0.26-0.109,0.374c-0.072,0.119-0.166,0.22-0.283,0.305
	c-0.118,0.087-0.25,0.153-0.4,0.202c-0.149,0.05-0.307,0.076-0.467,0.076c-0.258,0-0.447-0.063-0.563-0.188
	s-0.174-0.297-0.174-0.521c0-0.13,0.029-0.233,0.088-0.315c0.061-0.08,0.134-0.144,0.223-0.191c0.088-0.044,0.181-0.08,0.283-0.104
	s0.193-0.04,0.277-0.051c0.212-0.024,0.385-0.05,0.517-0.074c0.132-0.023,0.239-0.042,0.322-0.061s0.146-0.038,0.187-0.059
	c0.041-0.021,0.076-0.04,0.102-0.062V109.357z M40.853,108.969v0.551c0,0.13,0.022,0.273,0.067,0.435
	c0.044,0.162,0.124,0.313,0.24,0.456c0.117,0.142,0.278,0.263,0.482,0.358c0.205,0.095,0.47,0.144,0.798,0.144
	c0.187,0,0.375-0.025,0.568-0.075c0.191-0.05,0.365-0.137,0.521-0.264c0.156-0.128,0.282-0.298,0.377-0.509
	c0.096-0.214,0.144-0.483,0.144-0.809v-4.073h-0.754v4.118c0,0.137-0.014,0.264-0.042,0.382c-0.029,0.118-0.076,0.222-0.145,0.306
	c-0.067,0.088-0.158,0.154-0.271,0.203c-0.116,0.05-0.259,0.075-0.436,0.075c-0.264,0-0.47-0.068-0.619-0.202
	c-0.147-0.135-0.221-0.373-0.221-0.707v-0.389H40.853z M35.349,107.933c0.01-0.076,0.027-0.161,0.054-0.252
	c0.025-0.09,0.071-0.175,0.137-0.258c0.063-0.077,0.156-0.146,0.271-0.198c0.117-0.051,0.273-0.077,0.47-0.077
	c0.639,0,0.957,0.221,0.957,0.662c0,0.104-0.011,0.184-0.031,0.245c-0.021,0.059-0.049,0.106-0.086,0.139
	c-0.036,0.033-0.074,0.06-0.115,0.071c-0.042,0.011-0.083,0.021-0.126,0.025l-1.126,0.142c-0.285,0.035-0.508,0.105-0.674,0.209
	c-0.162,0.104-0.285,0.223-0.369,0.35c-0.083,0.129-0.137,0.261-0.159,0.394c-0.022,0.132-0.035,0.239-0.035,0.323
	c0,0.176,0.032,0.334,0.093,0.478c0.063,0.144,0.151,0.266,0.265,0.367c0.114,0.104,0.249,0.187,0.404,0.243
	c0.156,0.056,0.326,0.085,0.514,0.085c0.196,0,0.371-0.021,0.524-0.062c0.153-0.042,0.29-0.095,0.409-0.161
	c0.119-0.063,0.222-0.133,0.306-0.213c0.086-0.076,0.163-0.151,0.23-0.225c0.006,0.077,0.017,0.153,0.04,0.229
	c0.02,0.076,0.056,0.142,0.105,0.198c0.049,0.056,0.119,0.104,0.213,0.141c0.093,0.036,0.214,0.055,0.365,0.055
	c0.078,0,0.145-0.01,0.201-0.028c0.058-0.019,0.116-0.035,0.172-0.05v-0.497c-0.042,0.009-0.083,0.017-0.121,0.021
	c-0.04,0.008-0.074,0.009-0.105,0.009c-0.149,0-0.225-0.08-0.225-0.242v-2.34c0-0.169-0.029-0.317-0.09-0.442
	c-0.059-0.125-0.137-0.229-0.229-0.315c-0.092-0.085-0.197-0.151-0.311-0.2c-0.113-0.05-0.228-0.087-0.342-0.113
	s-0.219-0.043-0.314-0.053c-0.097-0.006-0.169-0.011-0.221-0.011c-0.249,0-0.476,0.025-0.681,0.074
	c-0.206,0.05-0.379,0.128-0.525,0.238c-0.146,0.108-0.259,0.247-0.342,0.42c-0.084,0.169-0.127,0.377-0.132,0.62H35.349z
	 M37.222,109.357c0,0.135-0.037,0.26-0.108,0.374c-0.073,0.119-0.167,0.22-0.284,0.305c-0.117,0.087-0.251,0.153-0.401,0.202
	c-0.151,0.05-0.306,0.076-0.466,0.076c-0.259,0-0.448-0.063-0.563-0.188c-0.117-0.125-0.176-0.297-0.176-0.521
	c0-0.13,0.03-0.233,0.09-0.315c0.059-0.08,0.133-0.144,0.221-0.191c0.087-0.044,0.183-0.08,0.284-0.104
	c0.1-0.023,0.193-0.04,0.275-0.051c0.213-0.024,0.385-0.05,0.518-0.074c0.133-0.023,0.24-0.042,0.322-0.061
	c0.083-0.019,0.145-0.038,0.186-0.059c0.042-0.021,0.077-0.04,0.102-0.062V109.357z M33.926,107.259v-0.562h-3.149v0.567h2.262
	l-2.449,2.962v0.537h3.406v-0.567H31.5L33.926,107.259z M29.937,107.856c0-0.052-0.013-0.148-0.04-0.285
	c-0.025-0.137-0.089-0.277-0.193-0.427c-0.104-0.148-0.26-0.28-0.467-0.393c-0.207-0.116-0.492-0.172-0.855-0.172
	c-0.201,0-0.395,0.025-0.578,0.077c-0.184,0.052-0.348,0.132-0.49,0.238c-0.143,0.105-0.255,0.24-0.341,0.405
	c-0.086,0.162-0.129,0.355-0.129,0.577c0,0.28,0.085,0.497,0.257,0.649c0.17,0.153,0.399,0.268,0.683,0.34l0.793,0.193
	c0.29,0.073,0.498,0.148,0.622,0.226c0.125,0.078,0.187,0.196,0.187,0.356c0,0.115-0.026,0.212-0.078,0.292
	c-0.051,0.083-0.12,0.146-0.206,0.197c-0.085,0.053-0.184,0.093-0.294,0.119c-0.114,0.024-0.23,0.037-0.355,0.037
	c-0.244,0-0.435-0.026-0.575-0.085c-0.142-0.056-0.248-0.127-0.319-0.209c-0.073-0.083-0.121-0.175-0.144-0.271
	c-0.024-0.1-0.038-0.188-0.042-0.265h-0.661c0.004,0.08,0.012,0.175,0.027,0.273c0.013,0.102,0.038,0.206,0.078,0.313
	c0.039,0.105,0.096,0.209,0.174,0.308s0.18,0.188,0.308,0.269c0.127,0.08,0.285,0.144,0.474,0.188
	c0.189,0.047,0.418,0.071,0.689,0.071c0.228,0,0.441-0.031,0.636-0.093c0.198-0.063,0.367-0.15,0.511-0.263
	c0.141-0.116,0.254-0.255,0.337-0.422c0.083-0.165,0.125-0.356,0.125-0.568c0-0.273-0.085-0.495-0.252-0.665
	c-0.17-0.167-0.467-0.303-0.891-0.406l-0.686-0.173c-0.133-0.03-0.249-0.061-0.34-0.092c-0.094-0.03-0.169-0.066-0.226-0.106
	c-0.057-0.037-0.1-0.085-0.127-0.139c-0.029-0.055-0.043-0.124-0.043-0.205c0-0.127,0.032-0.227,0.098-0.304
	c0.063-0.077,0.141-0.137,0.229-0.177c0.088-0.038,0.178-0.063,0.269-0.078c0.089-0.012,0.162-0.019,0.213-0.019
	c0.218,0,0.39,0.023,0.514,0.07c0.125,0.045,0.219,0.106,0.288,0.175c0.067,0.071,0.112,0.146,0.132,0.226
	c0.021,0.081,0.032,0.151,0.032,0.215H29.937z M24.931,105.274h-0.709v0.791h0.709V105.274z M26.151,107.259v-0.562h-3.15v0.567
	h2.263l-2.451,2.962v0.537h3.407v-0.567h-2.495L26.151,107.259z M20.645,110.01H20.63l-1.082-3.313h-0.776l1.508,4.175
	c-0.083,0.212-0.151,0.38-0.202,0.502c-0.052,0.121-0.101,0.217-0.148,0.283c-0.047,0.068-0.099,0.11-0.155,0.13
	c-0.057,0.016-0.13,0.025-0.217,0.025c-0.095,0-0.176-0.007-0.245-0.023c-0.071-0.015-0.127-0.031-0.168-0.045v0.619
	c0.058,0.018,0.107,0.031,0.148,0.045c0.042,0.013,0.088,0.019,0.14,0.019c0.218,0,0.394-0.014,0.529-0.037
	c0.134-0.028,0.253-0.099,0.357-0.215c0.104-0.117,0.208-0.289,0.312-0.521c0.104-0.23,0.236-0.554,0.396-0.968
	c0.264-0.669,0.514-1.334,0.75-1.995c0.235-0.66,0.473-1.324,0.711-1.994h-0.755L20.645,110.01z M15.856,107.614h0.015l0.825,3.149
	h0.707l1.182-4.066h-0.683l-0.825,3.195h-0.016l-0.793-3.195h-0.761l-0.786,3.195h-0.016l-0.777-3.195h-0.747l1.174,4.066h0.707
	L15.856,107.614z M12.551,106.697h-0.684v4.588c0,0.112-0.008,0.205-0.023,0.271c-0.016,0.068-0.042,0.12-0.078,0.153
	c-0.037,0.033-0.089,0.054-0.157,0.062c-0.066,0.009-0.148,0.012-0.248,0.012h-0.14v0.591c0.099,0.017,0.194,0.023,0.289,0.023
	c0.253,0,0.45-0.037,0.59-0.113c0.14-0.075,0.244-0.164,0.31-0.273c0.068-0.105,0.109-0.218,0.121-0.337
	c0.013-0.119,0.02-0.223,0.02-0.311V106.697z M12.551,105.183h-0.684v0.777h0.684V105.183z M8.134,107.933
	c0.012-0.076,0.029-0.161,0.056-0.252c0.025-0.09,0.07-0.175,0.135-0.258c0.064-0.077,0.155-0.146,0.273-0.198
	c0.117-0.051,0.272-0.077,0.47-0.077c0.637,0,0.956,0.221,0.956,0.662c0,0.104-0.01,0.184-0.032,0.245
	c-0.02,0.059-0.049,0.106-0.084,0.139c-0.037,0.033-0.075,0.06-0.118,0.071c-0.041,0.011-0.083,0.021-0.124,0.025l-1.127,0.142
	c-0.285,0.035-0.51,0.105-0.672,0.209c-0.163,0.104-0.288,0.223-0.369,0.35c-0.084,0.129-0.137,0.261-0.159,0.394
	c-0.024,0.132-0.035,0.239-0.035,0.323c0,0.176,0.029,0.334,0.093,0.478c0.063,0.144,0.151,0.266,0.264,0.367
	c0.114,0.104,0.249,0.187,0.404,0.243c0.156,0.056,0.326,0.085,0.514,0.085c0.197,0,0.372-0.021,0.525-0.062
	c0.153-0.042,0.287-0.095,0.408-0.161c0.119-0.063,0.221-0.133,0.308-0.213c0.086-0.076,0.162-0.151,0.228-0.225
	c0.006,0.077,0.019,0.153,0.039,0.229c0.021,0.076,0.055,0.142,0.105,0.198c0.049,0.056,0.121,0.104,0.214,0.141
	c0.093,0.036,0.216,0.055,0.365,0.055c0.078,0,0.146-0.01,0.203-0.028s0.113-0.035,0.171-0.05v-0.497
	c-0.042,0.009-0.081,0.017-0.12,0.021c-0.039,0.008-0.074,0.009-0.105,0.009c-0.151,0-0.226-0.08-0.226-0.242v-2.34
	c0-0.169-0.029-0.317-0.09-0.442c-0.06-0.125-0.135-0.229-0.229-0.315c-0.094-0.085-0.198-0.151-0.311-0.2
	c-0.116-0.05-0.229-0.087-0.343-0.113c-0.113-0.026-0.218-0.043-0.314-0.053c-0.095-0.006-0.171-0.011-0.221-0.011
	c-0.25,0-0.476,0.025-0.68,0.074c-0.205,0.05-0.38,0.128-0.526,0.238c-0.146,0.108-0.258,0.247-0.342,0.42
	c-0.082,0.169-0.126,0.377-0.132,0.62H8.134z M10.01,109.357c0,0.135-0.037,0.26-0.109,0.374c-0.074,0.119-0.168,0.22-0.285,0.305
	c-0.116,0.087-0.25,0.153-0.401,0.202c-0.149,0.05-0.305,0.076-0.465,0.076c-0.26,0-0.447-0.063-0.565-0.188
	c-0.115-0.125-0.174-0.297-0.174-0.521c0-0.13,0.029-0.233,0.089-0.315c0.06-0.08,0.133-0.144,0.221-0.191
	c0.088-0.044,0.184-0.08,0.284-0.104c0.101-0.023,0.193-0.04,0.275-0.051c0.212-0.024,0.385-0.05,0.519-0.074
	c0.13-0.023,0.238-0.042,0.321-0.061s0.146-0.038,0.188-0.059c0.04-0.021,0.074-0.04,0.102-0.062V109.357z M5.702,109.689H5.686
	l-2.792-4.507H2v5.581h0.732v-4.51h0.015l2.838,4.51h0.848v-5.581H5.702V109.689z"/>
<path fill="#B1B3B4" d="M61.342,98.847c0.01-0.079,0.028-0.162,0.054-0.254c0.027-0.09,0.072-0.178,0.137-0.257
	c0.065-0.08,0.155-0.146,0.272-0.197c0.116-0.053,0.273-0.079,0.471-0.079c0.636,0,0.957,0.223,0.957,0.663
	c0,0.104-0.012,0.184-0.031,0.244c-0.021,0.059-0.05,0.106-0.087,0.14c-0.035,0.032-0.074,0.057-0.116,0.07
	c-0.042,0.012-0.084,0.021-0.125,0.026l-1.127,0.139c-0.286,0.038-0.51,0.108-0.673,0.212s-0.287,0.219-0.369,0.349
	s-0.136,0.262-0.158,0.394c-0.024,0.132-0.036,0.24-0.036,0.323c0,0.176,0.031,0.337,0.093,0.478
	c0.064,0.142,0.151,0.266,0.265,0.371c0.115,0.104,0.249,0.183,0.404,0.239c0.156,0.057,0.327,0.085,0.515,0.085
	c0.195,0,0.37-0.019,0.523-0.062c0.152-0.042,0.289-0.094,0.407-0.159c0.121-0.066,0.224-0.138,0.31-0.213
	c0.085-0.08,0.161-0.155,0.229-0.227c0.005,0.078,0.018,0.153,0.038,0.229c0.021,0.075,0.056,0.141,0.105,0.197
	c0.05,0.059,0.119,0.104,0.213,0.14c0.095,0.037,0.216,0.054,0.367,0.054c0.077,0,0.145-0.008,0.202-0.026
	c0.056-0.016,0.113-0.035,0.171-0.049v-0.5c-0.043,0.013-0.083,0.019-0.121,0.023c-0.039,0.008-0.073,0.01-0.105,0.01
	c-0.15,0-0.226-0.079-0.226-0.243v-2.339c0-0.17-0.029-0.318-0.089-0.443c-0.061-0.125-0.137-0.229-0.229-0.315
	c-0.094-0.085-0.197-0.152-0.313-0.202c-0.113-0.048-0.228-0.088-0.342-0.111c-0.113-0.028-0.219-0.045-0.315-0.052
	c-0.095-0.007-0.17-0.012-0.222-0.012c-0.248,0-0.475,0.026-0.681,0.076c-0.203,0.046-0.378,0.127-0.524,0.234
	c-0.145,0.108-0.259,0.251-0.342,0.42c-0.082,0.172-0.127,0.38-0.131,0.624H61.342z M63.216,100.268
	c0,0.137-0.036,0.262-0.109,0.378c-0.072,0.117-0.166,0.218-0.283,0.303c-0.118,0.085-0.25,0.153-0.4,0.203
	c-0.15,0.049-0.307,0.073-0.468,0.073c-0.258,0-0.446-0.062-0.563-0.187c-0.116-0.125-0.174-0.299-0.174-0.521
	c0-0.13,0.029-0.235,0.088-0.314c0.063-0.082,0.135-0.146,0.224-0.189c0.088-0.047,0.181-0.083,0.281-0.106
	c0.103-0.023,0.193-0.041,0.277-0.05c0.212-0.028,0.386-0.052,0.518-0.075s0.238-0.044,0.322-0.062
	c0.083-0.019,0.146-0.037,0.187-0.059c0.042-0.021,0.075-0.043,0.102-0.062V100.268z M59.725,98.908
	c0-0.289-0.044-0.527-0.133-0.711c-0.088-0.185-0.203-0.328-0.343-0.432c-0.139-0.104-0.293-0.175-0.462-0.215
	c-0.168-0.04-0.329-0.059-0.485-0.059c-0.177,0-0.332,0.026-0.468,0.078c-0.133,0.052-0.252,0.112-0.353,0.187
	c-0.102,0.072-0.186,0.15-0.253,0.23s-0.118,0.146-0.155,0.197h-0.016V97.61h-0.645v4.066h0.684V99.46
	c0-0.276,0.036-0.499,0.112-0.677c0.075-0.177,0.167-0.315,0.275-0.417c0.108-0.1,0.227-0.167,0.35-0.205
	c0.125-0.035,0.237-0.054,0.335-0.054c0.331,0,0.561,0.09,0.686,0.269c0.124,0.179,0.185,0.442,0.185,0.796v2.505h0.686V98.908z
	 M52.695,98.847c0.01-0.079,0.029-0.162,0.055-0.254c0.025-0.09,0.071-0.178,0.137-0.257c0.063-0.08,0.155-0.146,0.271-0.197
	c0.118-0.053,0.274-0.079,0.472-0.079c0.638,0,0.956,0.223,0.956,0.663c0,0.104-0.012,0.184-0.031,0.244
	c-0.021,0.059-0.05,0.106-0.086,0.14c-0.035,0.032-0.074,0.057-0.116,0.07c-0.042,0.012-0.084,0.021-0.123,0.026L53.1,99.342
	c-0.285,0.038-0.509,0.108-0.672,0.212c-0.164,0.104-0.287,0.219-0.371,0.349c-0.082,0.13-0.135,0.262-0.158,0.394
	c-0.022,0.132-0.035,0.24-0.035,0.323c0,0.176,0.031,0.337,0.093,0.478c0.063,0.142,0.15,0.266,0.267,0.371
	c0.112,0.104,0.248,0.183,0.403,0.239c0.156,0.057,0.325,0.085,0.513,0.085c0.197,0,0.371-0.019,0.524-0.062
	c0.153-0.042,0.289-0.094,0.409-0.159c0.118-0.066,0.221-0.138,0.307-0.213c0.085-0.08,0.162-0.155,0.229-0.227
	c0.006,0.078,0.018,0.153,0.04,0.229c0.02,0.075,0.056,0.141,0.104,0.197c0.049,0.059,0.121,0.104,0.214,0.14
	c0.093,0.037,0.214,0.054,0.365,0.054c0.077,0,0.145-0.008,0.202-0.026c0.059-0.016,0.115-0.035,0.171-0.049v-0.5
	c-0.041,0.013-0.081,0.019-0.121,0.023c-0.037,0.008-0.073,0.01-0.104,0.01c-0.15,0-0.225-0.079-0.225-0.243v-2.339
	c0-0.17-0.03-0.318-0.09-0.443c-0.059-0.125-0.138-0.229-0.229-0.315c-0.094-0.085-0.197-0.152-0.313-0.202
	c-0.113-0.048-0.228-0.088-0.34-0.111c-0.116-0.028-0.221-0.045-0.316-0.052c-0.097-0.007-0.169-0.012-0.222-0.012
	c-0.248,0-0.476,0.026-0.681,0.076c-0.205,0.046-0.379,0.127-0.524,0.234c-0.146,0.108-0.259,0.251-0.343,0.42
	c-0.083,0.172-0.126,0.38-0.132,0.624H52.695z M54.568,100.268c0,0.137-0.035,0.262-0.108,0.378
	c-0.071,0.117-0.167,0.218-0.283,0.303c-0.117,0.085-0.25,0.153-0.399,0.203c-0.15,0.049-0.308,0.073-0.468,0.073
	c-0.26,0-0.448-0.062-0.563-0.187c-0.117-0.125-0.175-0.299-0.175-0.521c0-0.13,0.028-0.235,0.089-0.314
	c0.06-0.082,0.132-0.146,0.221-0.189c0.088-0.047,0.183-0.083,0.284-0.106s0.193-0.041,0.277-0.05
	c0.212-0.028,0.384-0.052,0.515-0.075c0.134-0.023,0.241-0.044,0.325-0.062c0.081-0.019,0.144-0.037,0.185-0.059
	c0.042-0.021,0.076-0.043,0.101-0.062V100.268z M51.078,98.908c0-0.289-0.043-0.527-0.132-0.711
	c-0.09-0.185-0.202-0.328-0.343-0.432c-0.139-0.104-0.294-0.175-0.463-0.215c-0.168-0.04-0.33-0.059-0.484-0.059
	c-0.178,0-0.332,0.026-0.468,0.078c-0.134,0.052-0.253,0.112-0.353,0.187c-0.102,0.072-0.186,0.15-0.254,0.23
	c-0.066,0.08-0.119,0.146-0.156,0.197h-0.014V97.61h-0.646v4.066h0.684V99.46c0-0.276,0.039-0.499,0.114-0.677
	c0.073-0.177,0.167-0.315,0.275-0.417c0.108-0.1,0.226-0.167,0.35-0.205c0.126-0.035,0.235-0.054,0.335-0.054
	c0.332,0,0.56,0.09,0.683,0.269c0.125,0.179,0.188,0.442,0.188,0.796v2.505h0.685V98.908z M46.951,98.168V97.61H43.8v0.567h2.263
	l-2.451,2.962v0.537h3.407v-0.567h-2.497L46.951,98.168z M41.444,100.922h-0.015l-1.082-3.312h-0.776l1.508,4.174
	c-0.083,0.213-0.151,0.38-0.203,0.503c-0.052,0.12-0.1,0.214-0.147,0.282c-0.047,0.068-0.1,0.111-0.156,0.13
	c-0.057,0.019-0.129,0.026-0.217,0.026c-0.094,0-0.175-0.008-0.245-0.024c-0.071-0.014-0.127-0.03-0.168-0.047v0.625
	c0.056,0.014,0.105,0.027,0.147,0.042c0.042,0.012,0.089,0.019,0.14,0.019c0.218,0,0.395-0.012,0.53-0.039
	c0.133-0.024,0.253-0.098,0.357-0.213c0.104-0.118,0.207-0.293,0.311-0.521c0.104-0.23,0.236-0.553,0.397-0.968
	c0.264-0.669,0.513-1.333,0.75-1.995c0.234-0.663,0.472-1.327,0.711-1.993h-0.755L41.444,100.922z M39.174,98.168V97.61h-3.15v0.567
	h2.263l-2.448,2.962v0.537h3.404v-0.567h-2.495L39.174,98.168z M34.291,99.313c0-0.146,0.024-0.285,0.073-0.417
	s0.12-0.25,0.209-0.349c0.092-0.102,0.2-0.182,0.328-0.238s0.271-0.087,0.433-0.087h0.257v-0.707
	c-0.027-0.009-0.052-0.017-0.079-0.019c-0.024-0.003-0.059-0.005-0.101-0.005c-0.26,0-0.48,0.073-0.665,0.22
	c-0.184,0.144-0.344,0.337-0.479,0.574h-0.015V97.61h-0.646v4.066h0.684V99.313z M29.245,96.738h1.533
	c0.155,0,0.3,0.017,0.436,0.048c0.133,0.029,0.251,0.082,0.35,0.154c0.097,0.073,0.175,0.167,0.232,0.288
	c0.057,0.12,0.086,0.269,0.086,0.443c0,0.186-0.028,0.343-0.082,0.476c-0.054,0.127-0.131,0.23-0.232,0.311
	c-0.102,0.076-0.221,0.132-0.356,0.165c-0.138,0.035-0.293,0.052-0.464,0.052h-1.501V96.738z M29.245,99.32h1.757
	c0.301,0,0.559-0.049,0.771-0.148c0.212-0.099,0.383-0.227,0.512-0.389c0.131-0.16,0.224-0.337,0.284-0.532
	c0.06-0.193,0.09-0.391,0.09-0.587c0-0.224-0.038-0.432-0.113-0.621c-0.074-0.191-0.184-0.358-0.326-0.498
	c-0.143-0.141-0.317-0.25-0.521-0.332c-0.205-0.08-0.436-0.12-0.696-0.12h-2.511v5.584h0.754V99.32z"/>
<path fill="#B1B3B4" d="M65.291,18.885c-4.889-4.889-11.642-7.913-19.104-7.913c-7.46,0-14.214,3.024-19.104,7.913
	c-4.89,4.889-7.914,11.644-7.914,19.104c0,7.461,3.024,14.217,7.914,19.104c4.89,4.889,11.644,7.915,19.104,7.915
	c7.462,0,14.215-3.026,19.104-7.915c4.891-4.889,7.916-11.643,7.916-19.104C73.207,30.528,70.182,23.774,65.291,18.885
	 M46.187,10.129c7.694,0,14.658,3.119,19.701,8.16c5.042,5.042,8.16,12.006,8.16,19.7s-3.118,14.658-8.16,19.7
	c-5.043,5.041-12.007,8.16-19.701,8.16s-14.657-3.119-19.7-8.16c-5.041-5.042-8.159-12.006-8.159-19.7s3.118-14.658,8.159-19.7
	C31.53,13.248,38.493,10.129,46.187,10.129 M72.455,11.722C65.731,5,56.445,0.842,46.187,0.842S26.644,5,19.92,11.722
	C13.198,18.444,9.04,27.732,9.04,37.989c0,10.258,4.158,19.545,10.88,26.267c6.723,6.723,16.008,10.882,26.267,10.882
	s19.544-4.159,26.268-10.882c6.722-6.722,10.879-16.008,10.879-26.267C83.334,27.732,79.177,18.444,72.455,11.722 M46.187,0
	C56.678,0,66.175,4.252,73.05,11.127c6.875,6.875,11.127,16.372,11.127,26.862c0,10.49-4.252,19.989-11.127,26.862
	c-6.875,6.874-16.372,11.127-26.863,11.127c-10.489,0-19.988-4.253-26.861-11.127C12.45,57.978,8.199,48.479,8.199,37.989
	c0-10.49,4.251-19.987,11.126-26.862C26.199,4.252,35.698,0,46.187,0"/>
<path fill="#B1B3B4" d="M79.39,49.259l-5.004-1.236l0.253-1.018l4.153,1.025l0.624-2.532l0.853,0.21L79.39,49.259z M76.51,50.894
	l-2.058-0.055l1.528,1.371L76.51,50.894z M79.137,49.865l-0.426,1.061l-1.265-0.018l-0.774,1.928l0.938,0.837l-0.415,1.034
	l-4.069-3.814l0.414-1.031L79.137,49.865z M74.614,58.775l-4.46-2.667l0.525-0.875l4.068-0.047l-2.978-1.779l0.501-0.837
	l4.461,2.666l-0.541,0.906l-3.982,0.058l2.907,1.739L74.614,58.775z M69.448,60.776c0.447,0.384,0.872,0.575,1.278,0.569
	c0.409-0.009,0.75-0.171,1.021-0.486c0.276-0.316,0.387-0.675,0.333-1.075c-0.052-0.399-0.306-0.796-0.762-1.189
	c-0.449-0.391-0.87-0.581-1.263-0.578c-0.394,0.006-0.732,0.172-1.014,0.5c-0.283,0.329-0.399,0.689-0.348,1.082
	C68.746,59.99,68.997,60.384,69.448,60.776 M68.769,61.616c-0.401-0.348-0.684-0.696-0.853-1.053
	c-0.121-0.262-0.198-0.539-0.223-0.832c-0.025-0.291,0.005-0.562,0.086-0.812c0.108-0.337,0.301-0.663,0.579-0.983
	c0.5-0.579,1.079-0.887,1.74-0.923c0.66-0.037,1.311,0.221,1.949,0.775c0.636,0.549,0.98,1.151,1.041,1.807
	c0.059,0.653-0.16,1.271-0.659,1.846c-0.506,0.585-1.087,0.896-1.74,0.933C70.032,62.411,69.395,62.157,68.769,61.616
	 M69.252,64.551l-3.554-3.792l0.766-0.719l3.553,3.793L69.252,64.551z M66.68,66.617l-2.665-3.394l-1.215,0.95l-0.542-0.691
	l3.248-2.549l0.543,0.691l-1.208,0.949l2.665,3.396L66.68,66.617z M62.98,66.646l-1.59-1.309l0.363,2.021L62.98,66.646z
	 M65.684,67.455l-0.989,0.573l-0.986-0.794l-1.795,1.045l0.221,1.233l-0.962,0.561l-0.857-5.513l0.959-0.557L65.684,67.455z
	 M56.683,71.763l-1.876-4.849l0.953-0.366l3.236,2.471l-1.252-3.239l0.908-0.351l1.873,4.848l-0.98,0.381l-3.176-2.407l1.223,3.162
	L56.683,71.763z M51.896,69.775l0.759-0.164c0.492-0.105,0.794-0.19,0.91-0.259c0.112-0.067,0.191-0.16,0.239-0.277
	s0.055-0.25,0.023-0.403c-0.037-0.172-0.112-0.299-0.227-0.384c-0.114-0.086-0.257-0.125-0.43-0.117
	c-0.085,0.006-0.337,0.054-0.752,0.146l-0.8,0.17L51.896,69.775z M51.499,72.929l-1.091-5.081l2.159-0.465
	c0.544-0.114,0.947-0.155,1.213-0.114c0.266,0.036,0.498,0.154,0.696,0.357c0.197,0.202,0.327,0.452,0.394,0.752
	c0.08,0.382,0.035,0.722-0.133,1.02c-0.171,0.295-0.474,0.523-0.906,0.684c0.251,0.082,0.464,0.185,0.643,0.309
	c0.176,0.124,0.43,0.356,0.76,0.699l0.834,0.858l-1.227,0.263l-0.979-0.946c-0.35-0.338-0.583-0.548-0.701-0.631
	c-0.12-0.08-0.238-0.129-0.354-0.144c-0.119-0.017-0.294,0.002-0.53,0.054l-0.207,0.045l0.456,2.12L51.499,72.929z M46.576,73.362
	L46.2,68.18l3.844-0.278l0.063,0.877l-2.796,0.202l0.082,1.15l2.603-0.188l0.063,0.871l-2.603,0.189l0.104,1.41l2.895-0.21
	l0.063,0.875L46.576,73.362z M42.86,73.137l0.443-4.294l-1.535-0.159l0.091-0.874l4.107,0.425l-0.089,0.873l-1.531-0.157
	l-0.442,4.295L42.86,73.137z M36.167,71.784l1.333-5.022l0.989,0.261l1.164,3.899l0.892-3.353l0.941,0.249l-1.333,5.024
	l-1.019-0.271l-1.154-3.812l-0.87,3.274L36.167,71.784z M34.095,71.129l1.766-4.886l0.987,0.355l-1.766,4.889L34.095,71.129z
	 M29.187,68.85l1.021-1.936l-0.276-3.549l1.088,0.575l0.122,2.39l2.019-1.258l1.067,0.565l-3.099,1.774l-1.019,1.927L29.187,68.85z
	 M24.69,65.796l2.592-3.452l-1.234-0.925l0.529-0.704l3.303,2.476l-0.528,0.705l-1.231-0.923l-2.589,3.454L24.69,65.796z
	 M22.205,63.635l3.468-3.87l0.781,0.701l-3.469,3.87L22.205,63.635z M19.192,60.331l3.823-3.458l0.704,0.778l-3.173,2.87
	l1.751,1.936l-0.651,0.586L19.192,60.331z M19.353,57.08l1.195-1.676l-1.991,0.502L19.353,57.08z M18.735,59.833l-0.641-0.944
	l0.722-1.04l-1.165-1.719l-1.218,0.307l-0.625-0.92l5.439-1.24l0.622,0.918L18.735,59.833z M18.661,49.058l0.411,0.964l-2.587,1.106
	c-0.41,0.175-0.671,0.302-0.785,0.376c-0.177,0.125-0.291,0.291-0.343,0.497c-0.053,0.205-0.021,0.442,0.093,0.713
	c0.118,0.274,0.261,0.457,0.434,0.549c0.17,0.09,0.344,0.115,0.519,0.074c0.176-0.042,0.451-0.144,0.831-0.306l2.643-1.128
	l0.413,0.965L17.78,53.94c-0.576,0.245-0.992,0.393-1.251,0.441c-0.258,0.049-0.499,0.04-0.723-0.031
	c-0.222-0.073-0.433-0.204-0.629-0.397c-0.197-0.191-0.375-0.479-0.537-0.858c-0.195-0.456-0.291-0.824-0.285-1.106
	c0.005-0.281,0.063-0.525,0.172-0.733c0.11-0.208,0.248-0.374,0.414-0.497c0.246-0.18,0.637-0.383,1.172-0.613L18.661,49.058z
	 M14.326,48.523c0.186,0.092,0.397,0.144,0.631,0.154c0.232,0.01,0.492-0.021,0.773-0.091c0.582-0.146,0.985-0.385,1.208-0.714
	c0.222-0.33,0.283-0.701,0.177-1.114c-0.104-0.417-0.332-0.714-0.686-0.9c-0.353-0.186-0.82-0.206-1.402-0.059
	c-0.588,0.148-0.995,0.387-1.223,0.72c-0.228,0.33-0.292,0.692-0.193,1.087c0.038,0.147,0.098,0.281,0.178,0.398
	c0.082-0.24,0.135-0.477,0.158-0.709l0.652,0.141C14.57,47.797,14.479,48.162,14.326,48.523 M76.685,37.802l-0.925,0.081
	l-0.305-3.485c0.353,0.007,0.693,0.091,1.021,0.253c0.33,0.161,0.777,0.499,1.342,1.008c0.456,0.413,0.764,0.663,0.923,0.75
	c0.217,0.119,0.425,0.169,0.625,0.152c0.222-0.02,0.388-0.094,0.496-0.225c0.11-0.129,0.153-0.298,0.136-0.509
	c-0.02-0.207-0.096-0.367-0.231-0.479s-0.35-0.165-0.642-0.158l0.012-0.999c0.553,0.011,0.963,0.161,1.229,0.452
	c0.265,0.291,0.419,0.669,0.46,1.136c0.046,0.512-0.058,0.927-0.308,1.244c-0.252,0.315-0.582,0.492-0.993,0.528
	c-0.231,0.02-0.458-0.003-0.678-0.068c-0.221-0.064-0.451-0.178-0.697-0.339c-0.165-0.107-0.404-0.305-0.72-0.593
	c-0.314-0.289-0.524-0.472-0.627-0.546c-0.1-0.075-0.199-0.136-0.292-0.18L76.685,37.802z M75.3,33.098l-0.191-0.979l3.693-0.717
	c-0.403-0.293-0.734-0.666-0.988-1.121l0.892-0.173c0.131,0.238,0.343,0.487,0.635,0.741c0.292,0.255,0.605,0.406,0.938,0.458
	l0.154,0.795L75.3,33.098z M78.298,26.96c-0.038-0.113-0.109-0.204-0.216-0.268c-0.104-0.064-0.258-0.089-0.463-0.073
	c-0.265,0.019-0.687,0.127-1.265,0.326c-0.577,0.199-0.965,0.365-1.161,0.497c-0.194,0.133-0.313,0.254-0.356,0.37
	c-0.04,0.113-0.041,0.227-0.001,0.34c0.038,0.115,0.109,0.204,0.214,0.268c0.103,0.065,0.257,0.09,0.463,0.075
	c0.265-0.019,0.686-0.127,1.261-0.326c0.58-0.199,0.967-0.365,1.164-0.497c0.193-0.132,0.313-0.255,0.355-0.37
	C78.334,27.188,78.338,27.074,78.298,26.96 M79.08,26.69c0.166,0.478,0.123,0.91-0.126,1.294c-0.29,0.458-0.904,0.849-1.839,1.171
	c-0.931,0.321-1.656,0.39-2.176,0.208c-0.428-0.151-0.722-0.463-0.887-0.942c-0.164-0.478-0.114-0.928,0.152-1.349
	c0.27-0.42,0.876-0.792,1.819-1.119c0.929-0.318,1.649-0.387,2.169-0.205C78.62,25.9,78.917,26.214,79.08,26.69 M74.257,25.828
	l-0.817,0.435l-1.644-3.089c0.327-0.13,0.674-0.187,1.039-0.166c0.367,0.019,0.91,0.155,1.629,0.404
	c0.581,0.202,0.963,0.311,1.143,0.331c0.246,0.024,0.458-0.01,0.637-0.105c0.195-0.104,0.318-0.237,0.368-0.398
	c0.05-0.163,0.024-0.336-0.074-0.522c-0.099-0.185-0.23-0.301-0.399-0.351c-0.169-0.049-0.387-0.015-0.652,0.104l-0.379-0.923
	c0.512-0.205,0.948-0.227,1.306-0.063c0.358,0.163,0.648,0.453,0.866,0.867c0.242,0.454,0.31,0.875,0.202,1.264
	s-0.342,0.681-0.707,0.875c-0.206,0.109-0.423,0.177-0.65,0.202c-0.225,0.026-0.484,0.012-0.772-0.04
	c-0.194-0.035-0.492-0.123-0.896-0.264c-0.402-0.144-0.665-0.229-0.788-0.26c-0.123-0.029-0.236-0.047-0.342-0.05L74.257,25.828z
	 M73,15.324l1.137-0.287l0.704,0.868l-1.441-0.09L73,15.324z M71.351,18.99l0.389,0.995c-0.537,0.238-1.03,0.3-1.474,0.191
	c-0.442-0.108-0.84-0.38-1.191-0.814c-0.436-0.539-0.609-1.128-0.522-1.771c0.087-0.643,0.449-1.223,1.085-1.738
	c0.674-0.545,1.339-0.793,1.993-0.749c0.653,0.047,1.209,0.353,1.668,0.921c0.401,0.493,0.582,1.014,0.539,1.561
	c-0.024,0.324-0.16,0.663-0.41,1.018l-0.849-0.654c0.172-0.217,0.257-0.451,0.255-0.702c-0.001-0.25-0.09-0.484-0.265-0.7
	c-0.243-0.3-0.549-0.457-0.915-0.469c-0.367-0.012-0.791,0.176-1.272,0.567c-0.513,0.415-0.803,0.801-0.87,1.162
	c-0.068,0.359,0.016,0.688,0.255,0.981c0.176,0.217,0.396,0.349,0.661,0.393C70.69,19.226,70.999,19.162,71.351,18.99 M68.87,11.107
	l1.058-0.5l0.857,0.721l-1.432,0.184L68.87,11.107z M65.123,12.938l0.847,0.58c-0.173,0.303-0.239,0.577-0.198,0.822
	c0.04,0.244,0.182,0.468,0.428,0.674c0.259,0.217,0.501,0.327,0.725,0.327c0.223,0,0.396-0.072,0.521-0.22
	c0.079-0.094,0.118-0.198,0.118-0.31c0.001-0.114-0.047-0.252-0.146-0.416c-0.065-0.112-0.233-0.35-0.498-0.715
	c-0.342-0.47-0.533-0.855-0.577-1.157c-0.06-0.424,0.041-0.795,0.307-1.111c0.171-0.204,0.388-0.345,0.65-0.426
	c0.264-0.08,0.544-0.075,0.837,0.013c0.294,0.092,0.594,0.264,0.901,0.521c0.501,0.421,0.785,0.845,0.854,1.278
	c0.069,0.432-0.044,0.836-0.339,1.214l-0.834-0.641c0.136-0.234,0.188-0.443,0.148-0.629c-0.04-0.185-0.17-0.372-0.397-0.563
	c-0.232-0.197-0.457-0.303-0.671-0.316c-0.137-0.011-0.248,0.036-0.335,0.139c-0.079,0.095-0.107,0.208-0.084,0.342
	c0.03,0.171,0.203,0.467,0.518,0.888c0.313,0.422,0.523,0.761,0.628,1.016c0.104,0.258,0.139,0.515,0.1,0.776
	c-0.039,0.261-0.162,0.516-0.373,0.769c-0.192,0.229-0.437,0.389-0.729,0.482c-0.294,0.093-0.599,0.091-0.911-0.007
	c-0.314-0.098-0.646-0.293-0.991-0.584c-0.505-0.422-0.795-0.863-0.869-1.323S64.801,13.428,65.123,12.938 M61.702,9.615
	c-0.313,0.5-0.434,0.952-0.365,1.354c0.071,0.403,0.284,0.714,0.64,0.936c0.354,0.222,0.726,0.277,1.115,0.163
	c0.386-0.115,0.74-0.427,1.06-0.938c0.317-0.505,0.442-0.953,0.377-1.34c-0.067-0.389-0.284-0.696-0.651-0.927
	c-0.368-0.229-0.743-0.288-1.127-0.177C62.37,8.797,62.021,9.106,61.702,9.615 M60.764,9.071c0.283-0.45,0.584-0.786,0.911-1.007
	c0.241-0.162,0.503-0.279,0.79-0.349c0.284-0.069,0.558-0.083,0.818-0.04c0.349,0.054,0.7,0.196,1.061,0.42
	c0.651,0.407,1.046,0.933,1.185,1.582c0.138,0.647-0.018,1.33-0.467,2.049c-0.445,0.713-0.988,1.15-1.628,1.31
	c-0.639,0.16-1.284,0.037-1.93-0.367c-0.657-0.411-1.055-0.938-1.191-1.58C60.174,10.446,60.326,9.773,60.764,9.071 M54.838,9.461
	l1.867-4.863l0.981,0.377l-0.828,2.158l2.81-1.397l1.32,0.507l-2.557,1.19l0.79,3.71l-1.27-0.489l-0.46-2.793l-1.108,0.506
	l-0.564,1.469L54.838,9.461z M52.834,6.79l-0.37-2.028l-1.028,1.781L52.834,6.79z M54.384,9.154l-1.127-0.199l-0.242-1.244
	L50.964,7.35l-0.628,1.09l-1.098-0.193l2.9-4.775l1.096,0.193L54.384,9.154z M47.777,3.009l1.049,0.02l-0.059,3.295
	c-0.006,0.43-0.051,0.761-0.131,0.993c-0.105,0.3-0.295,0.542-0.566,0.719c-0.27,0.18-0.625,0.265-1.063,0.257
	c-0.514-0.008-0.907-0.159-1.179-0.453c-0.272-0.292-0.406-0.716-0.397-1.272l0.993-0.097c0.007,0.298,0.047,0.51,0.119,0.634
	c0.112,0.188,0.283,0.285,0.513,0.29c0.236,0.004,0.402-0.059,0.502-0.192c0.099-0.132,0.152-0.409,0.16-0.831L47.777,3.009z
	 M41.317,6.447l-1.043-1.778l-0.356,2.025L41.317,6.447z M43.581,8.14l-1.126,0.199l-0.654-1.087l-2.05,0.361l-0.218,1.241
	l-1.098,0.192l1.093-5.48l1.094-0.192L43.581,8.14z M34.371,10.405l-0.293-0.901l1.557-4.058l-2.307,0.75l-0.272-0.837l3.625-1.178
	l0.252,0.777l-1.628,4.222l2.817-0.916l0.272,0.835L34.371,10.405z M29.507,11.056l0.866-0.554c0.21,0.279,0.436,0.448,0.679,0.504
	c0.238,0.059,0.502,0.016,0.787-0.13c0.301-0.154,0.497-0.333,0.584-0.539c0.088-0.207,0.09-0.394,0.001-0.565
	c-0.055-0.109-0.135-0.185-0.239-0.23c-0.104-0.046-0.25-0.055-0.439-0.029c-0.128,0.017-0.414,0.077-0.853,0.178
	c-0.567,0.132-0.996,0.158-1.291,0.08c-0.415-0.11-0.715-0.348-0.902-0.716c-0.121-0.236-0.166-0.491-0.138-0.766
	c0.029-0.274,0.144-0.528,0.34-0.764c0.198-0.236,0.474-0.444,0.831-0.626c0.583-0.297,1.085-0.393,1.51-0.288
	c0.424,0.106,0.752,0.368,0.985,0.788l-0.916,0.518c-0.162-0.218-0.337-0.345-0.521-0.382c-0.185-0.037-0.41,0.01-0.672,0.146
	c-0.272,0.138-0.458,0.302-0.555,0.493c-0.063,0.122-0.063,0.244-0.002,0.363c0.057,0.109,0.151,0.18,0.284,0.209
	c0.167,0.04,0.508-0.002,1.019-0.128c0.51-0.124,0.904-0.184,1.182-0.181c0.276,0.003,0.526,0.074,0.751,0.209
	c0.226,0.138,0.414,0.353,0.562,0.646c0.136,0.266,0.189,0.552,0.159,0.859c-0.029,0.307-0.149,0.586-0.362,0.837
	c-0.213,0.25-0.521,0.479-0.924,0.684c-0.585,0.299-1.106,0.393-1.559,0.282S29.831,11.544,29.507,11.056 M26.549,15.258
	l-0.544-0.776l0.302-4.336l-1.986,1.392l-0.505-0.722l3.122-2.186l0.469,0.669l-0.323,4.514l2.428-1.701l0.503,0.721L26.549,15.258z
	 M24.565,17.358l-1.578-1.524l-3.493-0.722l0.857-0.887l2.333,0.549l-0.648-2.293l0.842-0.872l0.845,3.477l1.57,1.517L24.565,17.358
	z M20.07,23.261l-5.044-1.795l0.586-0.902l3.428,1.29l-2.483-2.747l0.682-1.047l3.547,1.214l-2.615-2.651l0.577-0.888l3.678,3.898
	l-0.606,0.935l-3.83-1.251l2.702,2.988L20.07,23.261z M14.191,23.65l0.444-0.95l2.987,1.393c0.39,0.182,0.675,0.357,0.853,0.523
	c0.231,0.22,0.375,0.491,0.428,0.811c0.053,0.321-0.013,0.679-0.198,1.076c-0.218,0.465-0.515,0.764-0.894,0.893
	c-0.375,0.129-0.817,0.079-1.323-0.156l0.316-0.945c0.275,0.114,0.485,0.164,0.629,0.148c0.217-0.024,0.375-0.142,0.472-0.351
	c0.099-0.212,0.108-0.391,0.029-0.537c-0.081-0.144-0.312-0.305-0.694-0.484L14.191,23.65z M15.452,29.364l-2.047,0.228l1.705,1.15
	L15.452,29.364z M17.921,27.982l-0.278,1.111l-1.258,0.154l-0.503,2.02l1.044,0.702l-0.27,1.083l-4.562-3.229l0.269-1.078
	L17.921,27.982z M24.265,9.034l0.714-0.502l0.501,0.715l-0.715,0.502L24.265,9.034z M16.266,37.681l-5.189-0.454l0.091-1.02
	l3.649-1.82l-3.464-0.302l0.084-0.974l5.188,0.454l-0.092,1.052l-3.566,1.795l3.383,0.296L16.266,37.681z M13.958,49.486
	c-0.117,0.293-0.191,0.602-0.222,0.922l-0.813-0.193c0.006-0.166,0.033-0.332,0.076-0.498c0.008-0.036,0.1-0.3,0.275-0.789
	c-0.226-0.296-0.391-0.642-0.491-1.043c-0.195-0.774-0.12-1.439,0.226-1.993c0.345-0.552,0.93-0.934,1.755-1.141
	c0.823-0.206,1.519-0.149,2.085,0.176c0.569,0.325,0.948,0.865,1.138,1.619c0.188,0.747,0.107,1.397-0.238,1.95
	c-0.349,0.553-0.932,0.933-1.756,1.14c-0.436,0.11-0.833,0.145-1.193,0.108C14.526,49.712,14.244,49.627,13.958,49.486"/>
<path fill="#B1B3B4" d="M46.841,46.145c-2.754-1.669-7.086-0.75-7.048,1.523c0.542,0.095,1.098,0.147,1.666,0.147
	C43.447,47.815,45.296,47.2,46.841,46.145 M41.454,22.882c10.769,0,19.573,6.625,19.573,14.799c0.096,3.667-2.246,7.15-5.659,9.816
	c-0.992-0.078-2.058-0.718-3.303-1.78c-0.786-0.672-1.636-1.364-2.55-2.276c1.109-1.653,1.76-3.662,1.76-5.829
	c0-5.634-4.395-10.203-9.816-10.203s-9.817,4.569-9.817,10.203c0,3.869,2.072,7.235,5.126,8.966
	c4.031-4.905,8.298-5.287,12.369-2.611l0.009-0.011c1.093,0.779,1.96,1.554,3.008,2.6c0.295,0.294,0.636,0.596,0.979,0.941
	c0.605,0.535,1.016,0.885,1.425,1.027c0.011-0.002,0.021-0.004,0.033-0.007c1.456,0.669,3.099,0.575,4.901-0.423
	c2.308-1.448,3.533-3.407,4.179-5.642c2.02,0.047,4.072,0.061,6.092,0.106c-0.648,1.346-1.333,2.726-1.983,4.072v5.363
	c-1.485,0.047-3.563-0.006-4.424,0.073c-3.504,2.637-8.041,1.544-11.426-1.077c-0.296-0.288-0.582-0.565-0.861-0.837
	c-3.109,1.506-6.548,2.377-9.683,2.328c-10.492,0-19.432-6.626-19.432-14.8C21.954,29.508,30.684,22.882,41.454,22.882
	 M57.058,27.47c0-0.812-0.016-1.673-0.016-2.485c3.505,1.088,7.1,1.128,10.793-0.052c-0.017,5.379-0.036,10.758-0.054,16.137h-4.547
	c-0.827,3.652-4.272,5.92-6.177,6.269c-0.018-0.123-0.052-0.26-0.07-0.383C63.592,41.44,63.927,33.274,57.058,27.47"/>
</svg>
