<?xml version="1.0" encoding="utf-8"?>
<!-- Generator: Adobe Illustrator 15.1.0, SVG Export Plug-In . SVG Version: 6.00 Build 0)  -->
<!DOCTYPE svg PUBLIC "-//W3C//DTD SVG 1.1//EN" "http://www.w3.org/Graphics/SVG/1.1/DTD/svg11.dtd">
<svg version="1.1" id="Vrstva_1" xmlns="http://www.w3.org/2000/svg" xmlns:xlink="http://www.w3.org/1999/xlink" x="0px" y="0px"
	 width="70px" height="120px" viewBox="0 0 70 120" enable-background="new 0 0 70 120" xml:space="preserve">
<path fill="#B1B3B4" d="M58.207,119.85V115.7h-0.698v2.285c0,0.154-0.019,0.31-0.056,0.472c-0.036,0.162-0.1,0.311-0.186,0.442
	c-0.087,0.137-0.205,0.247-0.35,0.335c-0.146,0.087-0.33,0.13-0.552,0.13c-0.111,0-0.214-0.015-0.313-0.046
	c-0.098-0.032-0.183-0.084-0.254-0.155c-0.07-0.071-0.128-0.166-0.172-0.282c-0.04-0.115-0.062-0.258-0.062-0.428V115.7h-0.697
	v2.982c0,0.249,0.041,0.455,0.123,0.619c0.081,0.164,0.187,0.296,0.321,0.396c0.131,0.101,0.276,0.171,0.436,0.211
	c0.158,0.039,0.314,0.058,0.468,0.058c0.333,0,0.6-0.061,0.796-0.185c0.2-0.125,0.373-0.308,0.52-0.552l0.018,0.016v0.604H58.207z
	 M52.654,117.246l1.587-1.546h-0.889l-1.786,1.753v-3.299h-0.674v5.695h0.674v-1.571l0.58-0.524l1.291,2.096h0.897L52.654,117.246z
	 M49.94,116.883c0-0.053-0.013-0.149-0.039-0.29c-0.027-0.14-0.094-0.285-0.198-0.437c-0.105-0.15-0.266-0.285-0.478-0.4
	c-0.211-0.116-0.501-0.175-0.873-0.175c-0.206,0-0.403,0.025-0.59,0.078c-0.188,0.053-0.354,0.135-0.498,0.243
	c-0.147,0.108-0.264,0.246-0.352,0.413c-0.086,0.165-0.13,0.363-0.13,0.591c0,0.284,0.087,0.506,0.262,0.662
	c0.173,0.156,0.407,0.271,0.698,0.345l0.81,0.198c0.296,0.075,0.508,0.152,0.635,0.231c0.127,0.078,0.19,0.199,0.19,0.364
	c0,0.116-0.026,0.216-0.079,0.297c-0.054,0.082-0.123,0.149-0.211,0.202c-0.088,0.054-0.188,0.093-0.303,0.119
	c-0.112,0.026-0.232,0.039-0.359,0.039c-0.249,0-0.444-0.028-0.587-0.085c-0.144-0.06-0.253-0.131-0.326-0.215
	c-0.075-0.085-0.122-0.178-0.147-0.278c-0.022-0.101-0.039-0.19-0.043-0.269h-0.673c0.004,0.084,0.014,0.177,0.026,0.28
	c0.013,0.102,0.04,0.209,0.079,0.317c0.04,0.109,0.101,0.213,0.179,0.313c0.078,0.102,0.184,0.193,0.313,0.273
	c0.13,0.082,0.291,0.147,0.483,0.194c0.194,0.048,0.428,0.07,0.702,0.07c0.233,0,0.449-0.029,0.651-0.094
	c0.2-0.064,0.373-0.154,0.519-0.27c0.146-0.116,0.262-0.26,0.344-0.428c0.088-0.17,0.13-0.363,0.13-0.58
	c0-0.279-0.086-0.506-0.259-0.679c-0.172-0.171-0.476-0.31-0.909-0.415l-0.697-0.175c-0.138-0.033-0.253-0.063-0.349-0.096
	s-0.172-0.067-0.23-0.106c-0.058-0.041-0.103-0.088-0.131-0.144c-0.03-0.057-0.045-0.125-0.045-0.21
	c0-0.127,0.034-0.231,0.101-0.311s0.145-0.138,0.234-0.179c0.089-0.038,0.18-0.064,0.273-0.078c0.093-0.013,0.165-0.021,0.218-0.021
	c0.223,0,0.397,0.024,0.523,0.072c0.127,0.047,0.226,0.107,0.294,0.179s0.114,0.146,0.135,0.229
	c0.021,0.081,0.032,0.154,0.032,0.219H49.94z M45.88,117.025c0-0.298-0.046-0.538-0.138-0.726c-0.089-0.188-0.204-0.335-0.347-0.442
	c-0.143-0.104-0.301-0.177-0.473-0.217c-0.173-0.04-0.338-0.06-0.497-0.06c-0.179,0-0.337,0.025-0.475,0.078
	s-0.259,0.118-0.362,0.191s-0.188,0.152-0.258,0.234c-0.067,0.082-0.12,0.149-0.158,0.202h-0.015V115.7h-0.659v4.149h0.697v-2.261
	c0-0.281,0.039-0.511,0.116-0.691c0.077-0.179,0.171-0.32,0.28-0.424c0.112-0.104,0.23-0.173,0.358-0.21
	c0.127-0.038,0.241-0.056,0.342-0.056c0.338,0,0.569,0.092,0.696,0.272c0.129,0.184,0.19,0.455,0.19,0.813v2.556h0.7V117.025z
	 M40.913,118.549c-0.005,0.078-0.034,0.165-0.084,0.258c-0.051,0.092-0.123,0.181-0.215,0.265c-0.092,0.085-0.203,0.156-0.333,0.211
	c-0.13,0.056-0.275,0.082-0.44,0.082c-0.401,0-0.703-0.118-0.903-0.356c-0.201-0.237-0.302-0.574-0.302-1.007h3.03
	c0-0.365-0.037-0.696-0.111-0.995s-0.185-0.555-0.334-0.766c-0.146-0.213-0.331-0.375-0.555-0.489
	c-0.222-0.113-0.484-0.17-0.784-0.17c-0.344,0-0.642,0.06-0.893,0.179c-0.252,0.12-0.459,0.283-0.62,0.492
	c-0.16,0.209-0.281,0.453-0.36,0.733c-0.079,0.281-0.12,0.582-0.12,0.905c0,0.3,0.044,0.578,0.127,0.832
	c0.085,0.255,0.207,0.474,0.366,0.658c0.158,0.186,0.354,0.329,0.582,0.433c0.23,0.102,0.491,0.153,0.78,0.153
	c0.167,0,0.309-0.008,0.43-0.026c0.122-0.019,0.228-0.041,0.313-0.067c0.088-0.025,0.161-0.057,0.221-0.091
	c0.063-0.035,0.117-0.068,0.164-0.1c0.133-0.085,0.242-0.183,0.333-0.294c0.091-0.109,0.165-0.221,0.223-0.329
	c0.057-0.108,0.104-0.208,0.131-0.302c0.029-0.092,0.047-0.162,0.052-0.209H40.913z M38.636,117.446
	c0-0.159,0.029-0.313,0.091-0.465c0.061-0.151,0.144-0.282,0.246-0.397c0.104-0.112,0.226-0.204,0.364-0.272
	c0.142-0.069,0.29-0.104,0.448-0.104c0.212,0,0.389,0.034,0.531,0.104c0.142,0.068,0.26,0.16,0.35,0.272
	c0.091,0.115,0.156,0.246,0.198,0.397c0.044,0.151,0.069,0.306,0.08,0.465H38.636z M35.771,119.079h-0.016l-1.079-3.379h-0.81
	l1.515,4.149h0.746l1.579-4.149h-0.762L35.771,119.079z M29.905,118.568c0.076,0.261,0.194,0.496,0.352,0.702
	c0.159,0.207,0.358,0.372,0.6,0.499c0.241,0.127,0.528,0.19,0.86,0.19c0.333,0,0.621-0.063,0.862-0.19
	c0.24-0.127,0.439-0.292,0.598-0.499c0.159-0.206,0.277-0.441,0.354-0.702c0.076-0.262,0.116-0.527,0.116-0.798
	c0-0.269-0.04-0.535-0.116-0.797c-0.077-0.263-0.194-0.497-0.354-0.702c-0.159-0.206-0.358-0.373-0.598-0.5
	c-0.241-0.128-0.529-0.19-0.862-0.19c-0.333,0-0.619,0.063-0.86,0.19c-0.242,0.127-0.44,0.294-0.6,0.5
	c-0.158,0.205-0.275,0.439-0.352,0.702c-0.078,0.262-0.116,0.528-0.116,0.797C29.789,118.041,29.828,118.307,29.905,118.568
	 M30.559,117.291c0.032-0.182,0.091-0.355,0.178-0.52c0.088-0.164,0.211-0.303,0.37-0.417c0.159-0.113,0.362-0.171,0.61-0.171
	c0.249,0,0.453,0.058,0.612,0.171c0.159,0.114,0.282,0.253,0.368,0.417c0.087,0.164,0.147,0.338,0.179,0.52
	c0.032,0.183,0.047,0.343,0.047,0.479c0,0.139-0.016,0.299-0.047,0.48c-0.031,0.182-0.091,0.356-0.179,0.52
	c-0.086,0.163-0.209,0.303-0.368,0.416c-0.159,0.114-0.363,0.171-0.612,0.171c-0.248,0-0.452-0.057-0.61-0.171
	c-0.159-0.113-0.282-0.253-0.37-0.416c-0.087-0.163-0.146-0.338-0.178-0.52c-0.031-0.182-0.047-0.342-0.047-0.48
	C30.512,117.634,30.528,117.474,30.559,117.291 M28.981,114.154h-0.698v5.695h0.698V114.154z M27.219,115.818
	c-0.011-0.159-0.038-0.342-0.083-0.551c-0.044-0.208-0.143-0.407-0.293-0.595c-0.151-0.189-0.371-0.348-0.662-0.477
	c-0.292-0.129-0.685-0.194-1.183-0.194c-0.343,0-0.64,0.051-0.888,0.152c-0.249,0.099-0.452,0.231-0.611,0.396
	s-0.275,0.352-0.35,0.564c-0.074,0.212-0.11,0.428-0.11,0.648c0,0.25,0.047,0.455,0.139,0.616c0.093,0.161,0.202,0.292,0.329,0.393
	c0.128,0.1,0.259,0.176,0.397,0.225c0.137,0.051,0.254,0.086,0.349,0.107l1.167,0.271c0.233,0.058,0.427,0.114,0.584,0.169
	c0.155,0.056,0.279,0.12,0.372,0.195c0.093,0.073,0.158,0.162,0.199,0.265c0.039,0.104,0.059,0.229,0.059,0.377
	c0,0.207-0.051,0.373-0.155,0.496c-0.103,0.124-0.23,0.221-0.38,0.29c-0.152,0.068-0.314,0.115-0.489,0.139
	c-0.174,0.023-0.33,0.036-0.468,0.036c-0.185,0-0.371-0.021-0.555-0.063c-0.185-0.044-0.354-0.116-0.503-0.22
	c-0.151-0.104-0.274-0.239-0.37-0.408c-0.094-0.17-0.142-0.384-0.142-0.644h-0.723c0,0.271,0.036,0.522,0.107,0.76
	c0.071,0.233,0.229,0.463,0.473,0.685c0.063,0.059,0.139,0.119,0.227,0.184c0.087,0.063,0.198,0.122,0.333,0.178
	c0.135,0.056,0.296,0.101,0.484,0.135c0.188,0.035,0.414,0.052,0.678,0.052c0.243,0,0.495-0.026,0.757-0.079
	s0.501-0.144,0.723-0.274c0.219-0.129,0.398-0.305,0.539-0.526c0.14-0.224,0.21-0.504,0.21-0.842c0-0.227-0.033-0.425-0.1-0.595
	c-0.066-0.169-0.156-0.315-0.27-0.441c-0.114-0.123-0.25-0.225-0.409-0.306c-0.159-0.077-0.33-0.14-0.516-0.181l-1.626-0.374
	c-0.085-0.021-0.167-0.048-0.246-0.079c-0.079-0.031-0.15-0.076-0.214-0.132c-0.063-0.054-0.114-0.123-0.155-0.205
	c-0.04-0.082-0.059-0.184-0.059-0.307c0-0.216,0.044-0.388,0.135-0.519c0.09-0.129,0.201-0.229,0.333-0.302
	c0.132-0.071,0.274-0.118,0.425-0.144c0.151-0.022,0.287-0.034,0.409-0.034c0.159,0,0.32,0.018,0.484,0.055
	c0.163,0.037,0.313,0.101,0.448,0.191c0.135,0.089,0.246,0.209,0.333,0.356c0.088,0.147,0.137,0.333,0.147,0.555H27.219z
	 M16.978,116.962c0.01-0.079,0.029-0.167,0.056-0.258c0.026-0.093,0.073-0.18,0.139-0.263c0.065-0.081,0.157-0.148,0.277-0.201
	s0.279-0.081,0.48-0.081c0.651,0,0.976,0.225,0.976,0.675c0,0.105-0.011,0.19-0.032,0.25c-0.021,0.062-0.051,0.108-0.088,0.143
	c-0.037,0.034-0.076,0.06-0.118,0.071c-0.043,0.014-0.085,0.024-0.128,0.029l-1.149,0.143c-0.292,0.036-0.52,0.108-0.687,0.214
	c-0.167,0.106-0.292,0.226-0.377,0.357c-0.084,0.131-0.139,0.266-0.162,0.399c-0.023,0.135-0.036,0.245-0.036,0.33
	c0,0.18,0.033,0.342,0.095,0.486c0.064,0.146,0.153,0.273,0.27,0.379c0.116,0.106,0.254,0.187,0.413,0.245
	c0.159,0.06,0.333,0.086,0.523,0.086c0.201,0,0.379-0.02,0.536-0.062c0.156-0.044,0.296-0.098,0.417-0.162
	c0.121-0.066,0.225-0.14,0.313-0.22c0.086-0.079,0.165-0.154,0.233-0.229c0.006,0.08,0.018,0.157,0.04,0.235
	c0.021,0.075,0.057,0.143,0.107,0.201c0.049,0.058,0.122,0.105,0.218,0.143c0.094,0.037,0.219,0.056,0.372,0.056
	c0.08,0,0.148-0.01,0.206-0.027c0.06-0.02,0.117-0.036,0.175-0.052v-0.508c-0.042,0.01-0.084,0.018-0.124,0.022
	c-0.039,0.008-0.074,0.01-0.107,0.01c-0.152,0-0.23-0.083-0.23-0.247v-2.389c0-0.173-0.03-0.324-0.09-0.451
	c-0.061-0.128-0.14-0.234-0.234-0.321c-0.095-0.086-0.201-0.156-0.318-0.206c-0.116-0.051-0.232-0.09-0.348-0.116
	c-0.118-0.026-0.224-0.043-0.322-0.051s-0.173-0.012-0.226-0.012c-0.254,0-0.485,0.024-0.694,0.075s-0.388,0.131-0.536,0.242
	s-0.264,0.254-0.349,0.429c-0.085,0.175-0.129,0.385-0.134,0.635H16.978z M18.889,118.413c0,0.139-0.037,0.266-0.111,0.385
	c-0.074,0.119-0.171,0.223-0.289,0.31c-0.12,0.087-0.256,0.157-0.409,0.207c-0.154,0.048-0.313,0.074-0.477,0.074
	c-0.265,0-0.457-0.063-0.575-0.19c-0.119-0.127-0.178-0.304-0.178-0.531c0-0.133,0.029-0.239,0.091-0.321
	c0.061-0.081,0.135-0.146,0.225-0.194c0.09-0.047,0.187-0.082,0.29-0.107c0.103-0.023,0.198-0.041,0.281-0.052
	c0.218-0.026,0.394-0.052,0.528-0.075c0.135-0.022,0.245-0.045,0.33-0.063c0.083-0.019,0.147-0.039,0.189-0.061
	c0.043-0.021,0.076-0.041,0.104-0.063V118.413z M15.327,117.025c0-0.298-0.046-0.538-0.136-0.726
	c-0.09-0.188-0.206-0.335-0.348-0.442c-0.143-0.104-0.3-0.177-0.472-0.217c-0.171-0.04-0.337-0.06-0.496-0.06
	c-0.18,0-0.339,0.025-0.476,0.078c-0.138,0.053-0.258,0.118-0.362,0.191c-0.102,0.073-0.188,0.152-0.257,0.234
	c-0.069,0.082-0.122,0.149-0.159,0.202h-0.016V115.7h-0.659v4.149h0.698v-2.261c0-0.281,0.039-0.511,0.115-0.691
	c0.077-0.179,0.17-0.32,0.282-0.424c0.111-0.104,0.23-0.173,0.357-0.21c0.127-0.038,0.24-0.056,0.341-0.056
	c0.339,0,0.572,0.092,0.698,0.272c0.127,0.184,0.191,0.455,0.191,0.813v2.556h0.698V117.025z"/>
<path fill="#B1B3B4" d="M56.537,105.936c-0.063-0.168-0.164-0.322-0.302-0.46c-0.136-0.138-0.315-0.252-0.535-0.342
	c-0.219-0.09-0.482-0.134-0.79-0.134c-0.332,0-0.607,0.054-0.825,0.159c-0.216,0.105-0.39,0.234-0.519,0.388
	s-0.221,0.318-0.27,0.501c-0.051,0.18-0.075,0.341-0.075,0.482c0,0.267,0.064,0.489,0.198,0.676
	c0.132,0.185,0.315,0.322,0.556,0.412c-0.298,0.121-0.528,0.291-0.694,0.512c-0.168,0.22-0.25,0.501-0.25,0.844
	c0,0.068,0.002,0.156,0.008,0.258c0.004,0.104,0.026,0.217,0.063,0.338s0.094,0.247,0.169,0.372
	c0.078,0.127,0.188,0.246,0.329,0.357c0.112,0.09,0.23,0.164,0.354,0.219c0.126,0.055,0.248,0.099,0.369,0.131
	c0.121,0.031,0.236,0.053,0.343,0.064c0.104,0.009,0.197,0.015,0.276,0.015c0.329,0,0.61-0.051,0.849-0.151s0.434-0.231,0.588-0.396
	c0.153-0.165,0.267-0.352,0.341-0.563c0.074-0.213,0.109-0.43,0.109-0.65c0-0.105-0.009-0.221-0.034-0.347
	c-0.022-0.123-0.071-0.248-0.139-0.371c-0.068-0.125-0.161-0.242-0.277-0.354c-0.117-0.11-0.271-0.205-0.461-0.286
	c0.064-0.03,0.138-0.071,0.219-0.123c0.082-0.049,0.159-0.118,0.233-0.209c0.073-0.09,0.138-0.202,0.188-0.337
	c0.05-0.135,0.074-0.302,0.074-0.504C56.633,106.271,56.601,106.104,56.537,105.936 M55.376,108.022
	c0.139,0.042,0.262,0.108,0.367,0.198c0.106,0.09,0.189,0.201,0.25,0.338c0.063,0.135,0.092,0.297,0.092,0.487
	c0,0.217-0.034,0.394-0.103,0.532c-0.068,0.138-0.158,0.244-0.266,0.32c-0.109,0.077-0.229,0.13-0.362,0.158
	c-0.131,0.029-0.261,0.044-0.388,0.044c-0.243,0-0.442-0.037-0.596-0.111c-0.155-0.074-0.272-0.165-0.361-0.277
	c-0.086-0.111-0.148-0.231-0.182-0.361c-0.034-0.129-0.052-0.249-0.052-0.361c0-0.126,0.021-0.251,0.067-0.376
	c0.046-0.124,0.115-0.235,0.209-0.333c0.097-0.097,0.216-0.176,0.363-0.234c0.144-0.058,0.314-0.087,0.51-0.087
	C55.085,107.959,55.235,107.98,55.376,108.022 M54.553,107.297c-0.114-0.04-0.219-0.097-0.312-0.171
	c-0.094-0.074-0.167-0.164-0.22-0.27c-0.053-0.106-0.079-0.227-0.079-0.357c0-0.09,0.015-0.186,0.039-0.286
	c0.028-0.101,0.074-0.194,0.144-0.281s0.164-0.16,0.286-0.217c0.121-0.06,0.275-0.089,0.459-0.089c0.207,0,0.376,0.026,0.51,0.083
	c0.131,0.058,0.236,0.126,0.317,0.207c0.078,0.082,0.134,0.172,0.166,0.27c0.031,0.099,0.048,0.189,0.048,0.273
	c0,0.254-0.091,0.467-0.271,0.641c-0.179,0.17-0.419,0.257-0.722,0.257C54.793,107.356,54.671,107.336,54.553,107.297 M51.166,105
	h-0.549c-0.057,0.228-0.124,0.409-0.201,0.543c-0.075,0.136-0.173,0.239-0.288,0.31c-0.118,0.072-0.258,0.12-0.421,0.146
	c-0.164,0.026-0.359,0.049-0.587,0.063v0.557h1.3v3.958h0.746V105z M46.997,109.505c-0.188,0.397-0.482,0.596-0.885,0.596
	c-0.4,0-0.697-0.198-0.885-0.596c-0.187-0.396-0.28-0.942-0.28-1.641c0-0.699,0.094-1.246,0.28-1.645
	c0.188-0.396,0.484-0.594,0.885-0.594c0.402,0,0.697,0.198,0.885,0.594c0.188,0.398,0.282,0.945,0.282,1.645
	C47.279,108.563,47.185,109.109,46.997,109.505 M47.949,106.928c-0.05-0.333-0.144-0.643-0.281-0.929
	c-0.137-0.284-0.332-0.523-0.579-0.714c-0.249-0.19-0.574-0.285-0.977-0.285c-0.4,0-0.728,0.095-0.976,0.285
	c-0.249,0.19-0.443,0.43-0.582,0.714c-0.142,0.286-0.234,0.596-0.282,0.929s-0.071,0.646-0.071,0.937
	c0,0.29,0.023,0.602,0.071,0.936c0.048,0.333,0.141,0.642,0.282,0.928c0.139,0.285,0.333,0.524,0.582,0.714
	c0.248,0.19,0.575,0.286,0.976,0.286c0.402,0,0.728-0.096,0.977-0.286c0.247-0.189,0.442-0.429,0.579-0.714
	c0.138-0.286,0.231-0.595,0.281-0.928c0.051-0.334,0.076-0.646,0.076-0.936C48.025,107.573,48,107.261,47.949,106.928
	 M40.543,106.999c0.006-0.095,0.017-0.221,0.036-0.377c0.018-0.156,0.064-0.309,0.14-0.456c0.073-0.148,0.185-0.275,0.332-0.381
	c0.148-0.106,0.354-0.159,0.619-0.159c0.206,0,0.38,0.032,0.52,0.096c0.141,0.063,0.254,0.143,0.342,0.241
	c0.086,0.098,0.149,0.206,0.188,0.326c0.035,0.119,0.056,0.233,0.056,0.344c0,0.187-0.026,0.341-0.078,0.467
	c-0.049,0.123-0.119,0.232-0.213,0.328c-0.093,0.095-0.201,0.181-0.325,0.262c-0.125,0.079-0.262,0.161-0.409,0.246l-0.737,0.429
	c-0.186,0.109-0.356,0.233-0.513,0.367c-0.155,0.136-0.291,0.292-0.408,0.47c-0.116,0.177-0.208,0.378-0.272,0.603
	c-0.066,0.225-0.104,0.483-0.116,0.772h3.816v-0.657h-3.031c0.007-0.054,0.024-0.12,0.056-0.198c0.03-0.08,0.082-0.168,0.151-0.262
	c0.069-0.096,0.163-0.195,0.286-0.299c0.121-0.102,0.278-0.206,0.466-0.313l0.581-0.318c0.206-0.11,0.4-0.223,0.583-0.336
	s0.341-0.243,0.476-0.387c0.135-0.142,0.241-0.307,0.317-0.49c0.077-0.187,0.115-0.402,0.115-0.65c0-0.26-0.046-0.492-0.135-0.699
	c-0.091-0.207-0.214-0.38-0.373-0.523c-0.158-0.143-0.343-0.252-0.554-0.329c-0.213-0.077-0.44-0.114-0.684-0.114
	c-0.101,0-0.219,0.007-0.354,0.023c-0.135,0.016-0.273,0.047-0.417,0.091c-0.143,0.046-0.282,0.113-0.419,0.204
	c-0.139,0.09-0.262,0.207-0.373,0.356c-0.112,0.148-0.202,0.329-0.267,0.545c-0.066,0.22-0.099,0.478-0.099,0.779H40.543z
	 M37.291,108.093h-4.412v0.579h4.412V108.093z M28.734,108.669c0.129-0.028,0.252-0.071,0.369-0.127
	c0.116-0.055,0.219-0.125,0.309-0.21c0.09-0.085,0.161-0.18,0.214-0.286l0.016,0.017c-0.09,0.724-0.24,1.254-0.452,1.586
	c-0.211,0.334-0.508,0.5-0.888,0.5c-0.286,0-0.51-0.081-0.67-0.242c-0.162-0.161-0.252-0.384-0.274-0.67h-0.697
	c0,0.137,0.024,0.292,0.075,0.464c0.05,0.172,0.138,0.333,0.262,0.484c0.125,0.15,0.292,0.279,0.507,0.385
	c0.214,0.104,0.485,0.158,0.813,0.158c0.317,0,0.588-0.063,0.812-0.189c0.226-0.127,0.414-0.292,0.564-0.493
	c0.151-0.201,0.269-0.423,0.353-0.665c0.085-0.245,0.149-0.481,0.195-0.715c0.044-0.231,0.072-0.445,0.084-0.639
	c0.009-0.193,0.014-0.34,0.014-0.44c0-0.147-0.006-0.316-0.019-0.504c-0.013-0.188-0.043-0.376-0.092-0.567
	c-0.046-0.19-0.112-0.376-0.198-0.56c-0.085-0.182-0.2-0.344-0.345-0.487c-0.146-0.144-0.325-0.256-0.536-0.342
	C28.94,105.041,28.685,105,28.39,105c-0.296,0-0.555,0.052-0.778,0.154c-0.222,0.103-0.409,0.243-0.559,0.42
	c-0.151,0.178-0.264,0.381-0.341,0.611c-0.077,0.23-0.116,0.473-0.116,0.727c0,0.28,0.042,0.531,0.127,0.753
	c0.085,0.223,0.205,0.41,0.362,0.563c0.155,0.154,0.341,0.271,0.555,0.357c0.214,0.085,0.451,0.126,0.711,0.126
	C28.477,108.712,28.605,108.697,28.734,108.669 M28.08,108.046c-0.132-0.027-0.255-0.081-0.368-0.162
	c-0.115-0.083-0.208-0.202-0.282-0.361c-0.074-0.158-0.111-0.373-0.111-0.644c0-0.375,0.097-0.678,0.293-0.907
	c0.196-0.23,0.458-0.346,0.786-0.346c0.201,0,0.373,0.032,0.516,0.096c0.143,0.063,0.26,0.151,0.349,0.262
	c0.09,0.111,0.156,0.236,0.198,0.381c0.042,0.143,0.064,0.294,0.064,0.452c0,0.273-0.04,0.497-0.116,0.663
	c-0.076,0.165-0.17,0.295-0.282,0.385c-0.11,0.09-0.229,0.147-0.354,0.179c-0.125,0.027-0.231,0.043-0.321,0.043
	C28.337,108.086,28.212,108.073,28.08,108.046 M24.942,109.505c-0.188,0.397-0.483,0.596-0.884,0.596
	c-0.402,0-0.698-0.198-0.885-0.596c-0.188-0.396-0.282-0.942-0.282-1.641c0-0.699,0.093-1.246,0.282-1.645
	c0.187-0.396,0.483-0.594,0.885-0.594c0.401,0,0.696,0.198,0.884,0.594c0.188,0.398,0.282,0.945,0.282,1.645
	C25.224,108.563,25.13,109.109,24.942,109.505 M25.895,106.928c-0.05-0.333-0.144-0.643-0.282-0.929
	c-0.137-0.284-0.331-0.523-0.58-0.714c-0.248-0.19-0.574-0.285-0.975-0.285c-0.402,0-0.727,0.095-0.976,0.285
	c-0.248,0.19-0.443,0.43-0.583,0.714c-0.14,0.286-0.234,0.596-0.282,0.929c-0.048,0.333-0.071,0.646-0.071,0.937
	c0,0.29,0.023,0.602,0.071,0.936c0.047,0.333,0.142,0.642,0.282,0.928c0.14,0.285,0.335,0.524,0.583,0.714
	c0.249,0.19,0.574,0.286,0.976,0.286c0.401,0,0.727-0.096,0.975-0.286c0.249-0.189,0.442-0.429,0.58-0.714
	c0.138-0.286,0.231-0.595,0.282-0.928c0.05-0.334,0.076-0.646,0.076-0.936C25.97,107.573,25.944,107.261,25.895,106.928
	 M20.531,109.505c-0.187,0.397-0.482,0.596-0.884,0.596c-0.402,0-0.697-0.198-0.885-0.596c-0.188-0.396-0.282-0.942-0.282-1.641
	c0-0.699,0.094-1.246,0.282-1.645c0.188-0.396,0.482-0.594,0.885-0.594c0.401,0,0.697,0.198,0.884,0.594
	c0.188,0.398,0.282,0.945,0.282,1.645C20.813,108.563,20.719,109.109,20.531,109.505 M21.484,106.928
	c-0.051-0.333-0.145-0.643-0.282-0.929c-0.138-0.284-0.33-0.523-0.579-0.714c-0.248-0.19-0.575-0.285-0.976-0.285
	c-0.402,0-0.727,0.095-0.976,0.285c-0.248,0.19-0.443,0.43-0.583,0.714c-0.14,0.286-0.234,0.596-0.282,0.929
	c-0.046,0.333-0.071,0.646-0.071,0.937c0,0.29,0.025,0.602,0.071,0.936c0.048,0.333,0.142,0.642,0.282,0.928
	c0.141,0.285,0.335,0.524,0.583,0.714c0.249,0.19,0.574,0.286,0.976,0.286c0.401,0,0.728-0.096,0.976-0.286
	c0.249-0.189,0.441-0.429,0.579-0.714c0.137-0.286,0.231-0.595,0.282-0.928c0.05-0.334,0.075-0.646,0.075-0.936
	C21.559,107.573,21.534,107.261,21.484,106.928 M14.077,106.999c0.005-0.095,0.018-0.221,0.036-0.377
	c0.019-0.156,0.066-0.309,0.14-0.456c0.074-0.148,0.185-0.275,0.333-0.381c0.148-0.106,0.354-0.159,0.618-0.159
	c0.207,0,0.381,0.032,0.52,0.096c0.14,0.063,0.255,0.143,0.343,0.241c0.086,0.098,0.148,0.206,0.185,0.326
	c0.037,0.119,0.056,0.233,0.056,0.344c0,0.187-0.024,0.341-0.075,0.467c-0.051,0.123-0.122,0.232-0.214,0.328
	c-0.093,0.095-0.201,0.181-0.325,0.262c-0.125,0.079-0.261,0.161-0.409,0.246l-0.739,0.429c-0.185,0.109-0.356,0.233-0.511,0.367
	c-0.156,0.136-0.293,0.292-0.409,0.47c-0.116,0.177-0.208,0.378-0.274,0.603c-0.066,0.225-0.104,0.483-0.114,0.772h3.815v-0.657
	h-3.03c0.004-0.054,0.023-0.12,0.055-0.198c0.032-0.08,0.083-0.168,0.151-0.262c0.069-0.096,0.165-0.195,0.287-0.299
	c0.121-0.102,0.277-0.206,0.467-0.313l0.579-0.318c0.207-0.11,0.401-0.223,0.584-0.336c0.182-0.113,0.34-0.243,0.476-0.387
	c0.134-0.142,0.241-0.307,0.318-0.49c0.077-0.187,0.114-0.402,0.114-0.65c0-0.26-0.044-0.492-0.134-0.699
	c-0.091-0.207-0.216-0.38-0.373-0.523c-0.159-0.143-0.345-0.252-0.556-0.329c-0.212-0.077-0.438-0.114-0.682-0.114
	c-0.101,0-0.217,0.007-0.354,0.023c-0.134,0.016-0.272,0.047-0.416,0.091c-0.143,0.046-0.283,0.113-0.42,0.204
	c-0.138,0.09-0.261,0.207-0.373,0.356c-0.111,0.148-0.2,0.329-0.266,0.545c-0.065,0.22-0.098,0.478-0.098,0.779H14.077z"/>
<path fill="#B1B3B4" d="M55.097,99.646l0.564,1.657h0.84l-2.063-5.695h-0.873l-2.142,5.695h0.792l0.597-1.657H55.097z
	 M53.051,98.966l0.911-2.508h0.017l0.842,2.508H53.051z M47.394,99.306l0.897-0.857l1.99,2.855h1l-2.436-3.395l2.372-2.301h-1.063
	l-2.762,2.761v-2.761h-0.77v5.695h0.77V99.306z M44.783,99.381c-0.089,0.283-0.221,0.527-0.392,0.733
	c-0.173,0.207-0.382,0.368-0.628,0.483c-0.245,0.117-0.521,0.176-0.829,0.176c-0.313,0-0.589-0.059-0.832-0.176
	c-0.242-0.115-0.451-0.276-0.623-0.483c-0.172-0.206-0.303-0.45-0.393-0.733s-0.136-0.591-0.136-0.925
	c0-0.333,0.046-0.642,0.136-0.923c0.09-0.284,0.221-0.529,0.393-0.735s0.381-0.368,0.623-0.482c0.243-0.117,0.52-0.176,0.832-0.176
	c0.308,0,0.584,0.059,0.829,0.176c0.246,0.114,0.455,0.276,0.628,0.482c0.171,0.206,0.303,0.451,0.392,0.735
	c0.09,0.281,0.135,0.59,0.135,0.923C44.918,98.79,44.873,99.098,44.783,99.381 M45.653,97.806c-0.041-0.227-0.103-0.452-0.191-0.673
	c-0.087-0.224-0.2-0.436-0.341-0.637s-0.313-0.378-0.52-0.534s-0.448-0.279-0.722-0.369c-0.274-0.09-0.591-0.135-0.945-0.135
	c-0.354,0-0.668,0.045-0.943,0.135s-0.516,0.213-0.721,0.369c-0.208,0.156-0.381,0.333-0.521,0.534
	c-0.14,0.201-0.254,0.413-0.341,0.637c-0.086,0.221-0.15,0.446-0.19,0.673c-0.04,0.228-0.06,0.444-0.06,0.65
	c0,0.208,0.02,0.424,0.06,0.651c0.04,0.227,0.104,0.452,0.19,0.673c0.087,0.224,0.201,0.436,0.341,0.636
	c0.141,0.201,0.313,0.379,0.521,0.535c0.205,0.155,0.445,0.28,0.721,0.368c0.275,0.091,0.59,0.136,0.943,0.136
	c0.354,0,0.671-0.045,0.945-0.136c0.273-0.088,0.516-0.213,0.722-0.368c0.206-0.156,0.379-0.334,0.52-0.535
	c0.141-0.2,0.254-0.412,0.341-0.636c0.089-0.221,0.15-0.446,0.191-0.673c0.039-0.228,0.059-0.443,0.059-0.651
	C45.712,98.25,45.692,98.033,45.653,97.806 M35.746,98.861h1.866c0.228,0,0.408,0.029,0.543,0.091
	c0.136,0.06,0.238,0.141,0.31,0.238c0.07,0.098,0.116,0.208,0.136,0.329c0.018,0.122,0.026,0.24,0.026,0.357
	c0,0.053,0.002,0.142,0.005,0.266s0.01,0.257,0.019,0.399c0.012,0.143,0.026,0.285,0.044,0.426c0.02,0.139,0.041,0.251,0.068,0.336
	h0.943v-0.126c-0.059-0.032-0.105-0.065-0.142-0.1c-0.037-0.035-0.067-0.074-0.088-0.118c-0.021-0.045-0.036-0.096-0.045-0.152
	c-0.007-0.056-0.01-0.123-0.01-0.2l-0.048-1.032c-0.012-0.195-0.037-0.355-0.077-0.48c-0.038-0.124-0.091-0.225-0.153-0.301
	c-0.063-0.076-0.135-0.137-0.216-0.179c-0.077-0.041-0.158-0.08-0.236-0.11c0.089-0.053,0.182-0.116,0.276-0.188
	c0.097-0.072,0.181-0.158,0.259-0.262c0.076-0.103,0.138-0.229,0.187-0.378c0.048-0.146,0.07-0.327,0.07-0.539
	c0-0.301-0.054-0.551-0.162-0.749c-0.107-0.199-0.25-0.354-0.425-0.468c-0.174-0.114-0.373-0.194-0.598-0.243
	c-0.225-0.046-0.455-0.07-0.687-0.07h-2.635v5.695h0.769V98.861z M35.746,96.268h1.922c0.096,0,0.201,0.007,0.32,0.022
	c0.119,0.017,0.229,0.056,0.334,0.12c0.104,0.063,0.19,0.159,0.261,0.284c0.072,0.127,0.108,0.302,0.108,0.522
	c0,0.213-0.034,0.383-0.104,0.51s-0.158,0.227-0.266,0.297c-0.109,0.073-0.231,0.118-0.369,0.144
	c-0.139,0.023-0.277,0.036-0.42,0.036h-1.787V96.268z M31.503,101.304v-5.695h-1.094l-1.618,4.816h-0.017l-1.627-4.816h-1.102v5.695
	h0.745v-3.362c0-0.042-0.001-0.116-0.003-0.219c-0.002-0.104-0.004-0.222-0.004-0.354c0-0.131,0-0.271-0.003-0.421
	c-0.002-0.147-0.004-0.287-0.004-0.419h0.015l1.603,4.774h0.762l1.603-4.783h0.016c0,0.132-0.001,0.273-0.003,0.42
	c-0.002,0.148-0.004,0.291-0.004,0.429c0,0.132-0.001,0.25-0.004,0.354c-0.003,0.103-0.004,0.177-0.004,0.219v3.362H31.503z
	 M24.228,99.381c-0.089,0.283-0.22,0.527-0.392,0.733c-0.171,0.207-0.381,0.368-0.627,0.483c-0.246,0.117-0.522,0.176-0.828,0.176
	c-0.313,0-0.591-0.059-0.833-0.176c-0.244-0.115-0.452-0.276-0.624-0.483c-0.171-0.206-0.303-0.45-0.392-0.733
	c-0.09-0.283-0.135-0.591-0.135-0.925c0-0.333,0.045-0.642,0.135-0.923c0.089-0.284,0.221-0.529,0.392-0.735
	s0.379-0.368,0.624-0.482c0.242-0.117,0.521-0.176,0.833-0.176c0.306,0,0.582,0.059,0.828,0.176
	c0.246,0.114,0.456,0.276,0.627,0.482c0.172,0.206,0.303,0.451,0.392,0.735c0.09,0.281,0.135,0.59,0.135,0.923
	C24.363,98.79,24.318,99.098,24.228,99.381 M25.097,97.806c-0.04-0.227-0.104-0.452-0.189-0.673
	c-0.088-0.224-0.202-0.436-0.342-0.637c-0.139-0.201-0.313-0.378-0.52-0.534c-0.206-0.156-0.446-0.279-0.721-0.369
	c-0.276-0.09-0.591-0.135-0.944-0.135c-0.355,0-0.67,0.045-0.944,0.135c-0.275,0.09-0.516,0.213-0.723,0.369
	c-0.207,0.156-0.379,0.333-0.519,0.534c-0.141,0.201-0.253,0.413-0.341,0.637c-0.088,0.221-0.151,0.446-0.191,0.673
	c-0.039,0.228-0.059,0.444-0.059,0.65c0,0.208,0.02,0.424,0.059,0.651c0.04,0.227,0.103,0.452,0.191,0.673
	c0.087,0.224,0.2,0.436,0.341,0.636c0.14,0.201,0.313,0.379,0.519,0.535c0.207,0.155,0.448,0.28,0.723,0.368
	c0.274,0.091,0.589,0.136,0.944,0.136c0.353,0,0.668-0.045,0.944-0.136c0.275-0.088,0.516-0.213,0.721-0.368
	c0.207-0.156,0.38-0.334,0.52-0.535c0.141-0.2,0.254-0.412,0.342-0.636c0.086-0.221,0.149-0.446,0.189-0.673
	c0.04-0.228,0.06-0.443,0.06-0.651C25.157,98.25,25.136,98.033,25.097,97.806 M14.208,101.304h2.277
	c0.465,0,0.854-0.093,1.166-0.277c0.313-0.185,0.563-0.419,0.75-0.705c0.188-0.286,0.32-0.602,0.397-0.95
	c0.076-0.345,0.115-0.678,0.115-0.994c0-0.413-0.055-0.788-0.167-1.127c-0.112-0.339-0.269-0.628-0.476-0.873
	c-0.207-0.242-0.458-0.431-0.754-0.567c-0.296-0.135-0.629-0.201-1-0.201h-2.308V101.304z M14.978,96.268h1.436
	c0.523,0,0.938,0.179,1.246,0.538c0.306,0.36,0.459,0.899,0.459,1.619c0,0.725-0.149,1.276-0.448,1.653
	c-0.299,0.379-0.699,0.567-1.201,0.567h-1.492V96.268z"/>
<path fill="#B1B3B4" d="M66.073,92.032v-4.148h-0.7v2.284c0,0.154-0.017,0.312-0.056,0.472c-0.035,0.161-0.098,0.31-0.185,0.444
	c-0.086,0.135-0.204,0.245-0.35,0.333s-0.328,0.132-0.552,0.132c-0.11,0-0.215-0.017-0.313-0.048
	c-0.099-0.032-0.183-0.084-0.255-0.155c-0.071-0.072-0.128-0.166-0.169-0.281c-0.044-0.116-0.064-0.26-0.064-0.428v-2.753h-0.698
	v2.981c0,0.248,0.041,0.456,0.124,0.618c0.081,0.164,0.188,0.298,0.321,0.397c0.131,0.102,0.277,0.17,0.436,0.21
	c0.158,0.041,0.315,0.061,0.469,0.061c0.332,0,0.598-0.063,0.797-0.187c0.198-0.125,0.37-0.308,0.52-0.552l0.016,0.017v0.603H66.073
	z M61.662,86.336h-0.697v5.696h0.697V86.336z M59.9,92.032v-4.148h-0.698v2.284c0,0.154-0.018,0.312-0.056,0.472
	c-0.035,0.161-0.098,0.31-0.187,0.444c-0.087,0.135-0.202,0.245-0.348,0.333c-0.146,0.088-0.331,0.132-0.552,0.132
	c-0.112,0-0.217-0.017-0.313-0.048c-0.099-0.032-0.183-0.084-0.254-0.155c-0.072-0.072-0.127-0.166-0.171-0.281
	c-0.042-0.116-0.062-0.26-0.062-0.428v-2.753h-0.7v2.981c0,0.248,0.041,0.456,0.122,0.618c0.083,0.164,0.19,0.298,0.322,0.397
	c0.133,0.102,0.278,0.17,0.437,0.21c0.159,0.041,0.313,0.061,0.468,0.061c0.334,0,0.6-0.063,0.798-0.187
	c0.197-0.125,0.372-0.308,0.519-0.552l0.017,0.017v0.603H59.9z M55.854,88.461v-0.577h-0.667v-1.159h-0.696v1.159h-0.565v0.577
	h0.565v2.738c0,0.126,0.012,0.244,0.034,0.354c0.022,0.108,0.066,0.202,0.126,0.281c0.063,0.079,0.146,0.142,0.255,0.187
	s0.25,0.067,0.425,0.067c0.037,0,0.102-0.007,0.193-0.02c0.094-0.015,0.204-0.026,0.33-0.036v-0.549h-0.246
	c-0.035,0-0.079-0.001-0.127-0.003s-0.094-0.014-0.139-0.036c-0.046-0.021-0.083-0.054-0.111-0.099
	c-0.029-0.045-0.044-0.108-0.044-0.187v-2.698H55.854z M53.283,87.884h-0.696v4.148h0.696V87.884z M53.283,86.336h-0.696v0.794
	h0.696V86.336z M51.887,88.461v-0.577h-0.665v-1.159h-0.698v1.159H49.96v0.577h0.563v2.738c0,0.126,0.013,0.244,0.035,0.354
	c0.025,0.108,0.066,0.202,0.129,0.281c0.061,0.079,0.144,0.142,0.252,0.187s0.25,0.067,0.426,0.067c0.036,0,0.102-0.007,0.195-0.02
	c0.091-0.015,0.2-0.026,0.326-0.036v-0.549h-0.244c-0.037,0-0.08-0.001-0.129-0.003c-0.047-0.002-0.093-0.014-0.139-0.036
	c-0.044-0.021-0.081-0.054-0.111-0.099c-0.027-0.045-0.042-0.108-0.042-0.187v-2.698H51.887z M47.112,87.884h-0.698v4.148h0.698
	V87.884z M47.112,86.336h-0.698v0.794h0.698V86.336z M45.351,86.336h-0.697v5.696h0.697V86.336z M43.051,90.731
	c-0.006,0.079-0.033,0.165-0.084,0.258c-0.05,0.092-0.121,0.181-0.215,0.266c-0.092,0.083-0.201,0.154-0.333,0.21
	c-0.129,0.056-0.275,0.084-0.438,0.084c-0.404,0-0.705-0.119-0.905-0.356c-0.2-0.239-0.302-0.576-0.302-1.009h3.03
	c0-0.364-0.037-0.697-0.11-0.996c-0.074-0.299-0.184-0.553-0.333-0.765c-0.149-0.213-0.333-0.375-0.556-0.488
	c-0.221-0.114-0.484-0.17-0.786-0.17c-0.344,0-0.641,0.06-0.892,0.177c-0.251,0.121-0.458,0.284-0.619,0.493
	c-0.162,0.209-0.282,0.453-0.36,0.733c-0.081,0.281-0.119,0.582-0.119,0.904c0,0.303,0.041,0.579,0.126,0.833
	c0.086,0.254,0.207,0.473,0.366,0.659c0.158,0.184,0.354,0.328,0.582,0.433c0.23,0.103,0.49,0.154,0.781,0.154
	c0.165,0,0.309-0.01,0.429-0.027c0.122-0.02,0.226-0.041,0.313-0.069c0.088-0.024,0.161-0.057,0.223-0.09
	c0.06-0.034,0.115-0.068,0.163-0.099c0.132-0.085,0.242-0.185,0.331-0.294c0.091-0.111,0.167-0.221,0.224-0.328
	c0.059-0.109,0.102-0.21,0.131-0.302c0.028-0.093,0.047-0.162,0.052-0.211H43.051z M40.773,89.628c0-0.158,0.031-0.313,0.091-0.464
	c0.061-0.151,0.143-0.282,0.246-0.396s0.227-0.205,0.365-0.274c0.139-0.068,0.291-0.104,0.449-0.104c0.209,0,0.388,0.035,0.53,0.104
	c0.144,0.069,0.26,0.16,0.35,0.274c0.089,0.114,0.156,0.245,0.197,0.396c0.043,0.15,0.07,0.306,0.08,0.464H40.773z M39.544,88.461
	v-0.577h-0.666v-1.159H38.18v1.159h-0.563v0.577h0.563v2.738c0,0.126,0.012,0.244,0.035,0.354c0.025,0.108,0.066,0.202,0.126,0.281
	c0.063,0.079,0.146,0.142,0.255,0.187c0.107,0.045,0.25,0.067,0.425,0.067c0.037,0,0.102-0.007,0.193-0.02
	c0.094-0.015,0.204-0.026,0.33-0.036v-0.549h-0.247c-0.035,0-0.079-0.001-0.125-0.003c-0.049-0.002-0.095-0.014-0.141-0.036
	c-0.044-0.021-0.079-0.054-0.109-0.099s-0.044-0.108-0.044-0.187v-2.698H39.544z M36.975,87.884h-0.699v4.148h0.699V87.884z
	 M36.975,86.336h-0.699v0.794h0.699V86.336z M33.237,86.209h-0.626l0.785,1.119h0.722l0.785-1.119h-0.634l-0.516,0.738
	L33.237,86.209z M35.427,88.454v-0.57h-3.213v0.577h2.309l-2.499,3.022v0.549h3.475v-0.579h-2.546L35.427,88.454z M30.444,89.62
	c0-0.148,0.024-0.29,0.075-0.423c0.05-0.137,0.122-0.256,0.214-0.357c0.093-0.104,0.204-0.186,0.333-0.243s0.276-0.088,0.441-0.088
	h0.261v-0.721c-0.026-0.011-0.053-0.017-0.079-0.021c-0.027-0.002-0.061-0.003-0.104-0.003c-0.265,0-0.49,0.072-0.679,0.222
	c-0.188,0.148-0.35,0.344-0.487,0.588h-0.016v-0.69h-0.659v4.148h0.698V89.62z M28.683,86.336h-0.698v2.134h-0.016
	c-0.042-0.058-0.095-0.127-0.159-0.211c-0.063-0.082-0.144-0.159-0.243-0.232c-0.097-0.075-0.214-0.138-0.349-0.188
	s-0.297-0.074-0.489-0.074c-0.274,0-0.519,0.053-0.733,0.158c-0.215,0.106-0.396,0.252-0.542,0.439
	c-0.149,0.188-0.261,0.407-0.338,0.659c-0.078,0.251-0.115,0.521-0.115,0.813c0,0.25,0.029,0.51,0.087,0.781
	c0.059,0.274,0.158,0.524,0.298,0.749c0.14,0.228,0.327,0.417,0.559,0.565c0.232,0.146,0.527,0.222,0.881,0.222
	c0.1,0,0.204-0.01,0.312-0.027c0.109-0.02,0.215-0.055,0.318-0.107c0.103-0.053,0.203-0.124,0.297-0.21
	c0.095-0.088,0.18-0.202,0.254-0.346h0.016v0.571h0.658V86.336z M25.748,89.478c0.016-0.18,0.063-0.351,0.139-0.512
	c0.077-0.16,0.191-0.298,0.342-0.409c0.151-0.109,0.36-0.167,0.631-0.167c0.253,0,0.454,0.062,0.603,0.179
	c0.148,0.12,0.26,0.271,0.336,0.449c0.078,0.181,0.125,0.371,0.148,0.575c0.021,0.203,0.031,0.39,0.031,0.559
	c0,0.276-0.039,0.503-0.115,0.684c-0.076,0.179-0.172,0.322-0.286,0.428c-0.114,0.105-0.236,0.18-0.369,0.221
	c-0.132,0.044-0.253,0.065-0.365,0.065c-0.191,0-0.355-0.04-0.496-0.123c-0.14-0.082-0.257-0.195-0.349-0.338
	s-0.162-0.313-0.206-0.508c-0.045-0.195-0.068-0.406-0.068-0.635C25.724,89.813,25.731,89.658,25.748,89.478 M21.448,90.731
	c-0.006,0.079-0.033,0.165-0.083,0.258c-0.051,0.092-0.122,0.181-0.214,0.266c-0.092,0.083-0.203,0.154-0.333,0.21
	s-0.276,0.084-0.44,0.084c-0.403,0-0.704-0.119-0.905-0.356c-0.202-0.239-0.301-0.576-0.301-1.009h3.031
	c0-0.364-0.038-0.697-0.112-0.996c-0.073-0.299-0.186-0.553-0.333-0.765c-0.147-0.213-0.333-0.375-0.555-0.488
	c-0.223-0.114-0.483-0.17-0.786-0.17c-0.344,0-0.641,0.06-0.892,0.177c-0.25,0.121-0.458,0.284-0.619,0.493
	s-0.282,0.453-0.361,0.733c-0.08,0.281-0.119,0.582-0.119,0.904c0,0.303,0.042,0.579,0.126,0.833
	c0.085,0.254,0.207,0.473,0.366,0.659c0.159,0.184,0.352,0.328,0.582,0.433c0.23,0.103,0.491,0.154,0.782,0.154
	c0.163,0,0.306-0.01,0.428-0.027c0.122-0.02,0.226-0.041,0.313-0.069c0.087-0.024,0.162-0.057,0.222-0.09
	c0.062-0.034,0.116-0.068,0.164-0.099c0.131-0.085,0.242-0.185,0.332-0.294c0.09-0.111,0.164-0.221,0.223-0.328
	c0.058-0.109,0.101-0.21,0.131-0.302c0.029-0.093,0.046-0.162,0.052-0.211H21.448z M19.171,89.628c0-0.158,0.031-0.313,0.091-0.464
	c0.06-0.151,0.143-0.282,0.247-0.396s0.223-0.205,0.364-0.274c0.14-0.068,0.29-0.104,0.448-0.104c0.212,0,0.389,0.035,0.532,0.104
	c0.143,0.069,0.26,0.16,0.35,0.274s0.157,0.245,0.198,0.396c0.042,0.15,0.069,0.306,0.081,0.464H19.171z M12.015,92.032h0.698
	v-2.262c0-0.28,0.039-0.51,0.116-0.69c0.076-0.18,0.17-0.321,0.281-0.424c0.112-0.103,0.23-0.172,0.358-0.209
	c0.127-0.037,0.239-0.058,0.34-0.058c0.127,0,0.233,0.024,0.318,0.071c0.083,0.048,0.151,0.109,0.202,0.185
	c0.051,0.072,0.084,0.157,0.104,0.25c0.018,0.093,0.027,0.18,0.027,0.266v2.871h0.698v-2.53c0-0.139,0.025-0.274,0.072-0.408
	c0.048-0.137,0.114-0.254,0.199-0.357c0.083-0.103,0.186-0.188,0.305-0.25c0.118-0.063,0.252-0.097,0.4-0.097
	c0.297,0,0.498,0.089,0.607,0.267c0.108,0.178,0.163,0.408,0.163,0.694v2.682h0.699v-2.871c0-0.292-0.047-0.527-0.139-0.71
	c-0.093-0.184-0.206-0.324-0.337-0.425c-0.133-0.102-0.272-0.169-0.421-0.207c-0.147-0.037-0.277-0.055-0.389-0.055
	c-0.157,0-0.297,0.016-0.419,0.052c-0.122,0.033-0.23,0.08-0.325,0.138c-0.096,0.059-0.186,0.129-0.271,0.215
	c-0.084,0.085-0.168,0.175-0.254,0.269c-0.032-0.053-0.071-0.118-0.118-0.197c-0.048-0.08-0.114-0.154-0.199-0.223
	c-0.084-0.068-0.19-0.129-0.316-0.179c-0.128-0.05-0.283-0.074-0.469-0.074c-0.185,0-0.348,0.026-0.487,0.079
	c-0.141,0.053-0.262,0.116-0.361,0.189c-0.101,0.075-0.185,0.153-0.25,0.234c-0.067,0.082-0.118,0.149-0.155,0.202h-0.017v-0.586
	h-0.659V92.032z M11.079,89.064c0-0.053-0.013-0.149-0.04-0.289c-0.026-0.14-0.092-0.285-0.198-0.437
	c-0.105-0.151-0.265-0.283-0.476-0.401c-0.211-0.115-0.502-0.173-0.873-0.173c-0.206,0-0.402,0.026-0.59,0.079
	c-0.187,0.053-0.354,0.133-0.5,0.241c-0.146,0.108-0.263,0.247-0.35,0.412c-0.086,0.167-0.131,0.364-0.131,0.593
	c0,0.284,0.087,0.505,0.262,0.661c0.175,0.157,0.408,0.271,0.698,0.345l0.809,0.199c0.296,0.075,0.508,0.15,0.635,0.229
	c0.126,0.08,0.19,0.201,0.19,0.365c0,0.116-0.027,0.216-0.08,0.297c-0.053,0.083-0.123,0.15-0.21,0.203s-0.188,0.093-0.301,0.119
	c-0.115,0.026-0.235,0.04-0.362,0.04c-0.249,0-0.444-0.029-0.587-0.088c-0.143-0.057-0.251-0.13-0.325-0.214
	c-0.074-0.085-0.124-0.178-0.146-0.278c-0.025-0.101-0.039-0.188-0.044-0.27H7.786c0.006,0.085,0.015,0.178,0.029,0.281
	c0.013,0.104,0.039,0.211,0.079,0.318c0.04,0.108,0.1,0.213,0.179,0.313c0.079,0.102,0.184,0.191,0.313,0.274
	c0.129,0.082,0.29,0.146,0.484,0.194c0.192,0.048,0.426,0.071,0.702,0.071c0.233,0,0.45-0.031,0.65-0.097
	c0.202-0.062,0.374-0.152,0.519-0.269c0.146-0.116,0.261-0.259,0.346-0.428c0.085-0.169,0.127-0.362,0.127-0.578
	c0-0.282-0.086-0.508-0.257-0.682c-0.172-0.17-0.475-0.31-0.909-0.415l-0.698-0.175c-0.138-0.031-0.253-0.062-0.348-0.095
	c-0.096-0.032-0.172-0.066-0.23-0.106c-0.06-0.039-0.103-0.088-0.132-0.144c-0.028-0.055-0.043-0.125-0.043-0.21
	c0-0.128,0.033-0.23,0.099-0.309c0.067-0.081,0.146-0.141,0.235-0.18c0.09-0.04,0.181-0.066,0.274-0.079
	c0.092-0.014,0.165-0.021,0.217-0.021c0.223,0,0.398,0.023,0.524,0.071c0.127,0.049,0.224,0.107,0.293,0.179
	c0.069,0.072,0.115,0.148,0.135,0.23c0.021,0.082,0.033,0.155,0.033,0.218H11.079z M3.701,90.199v0.563
	c0,0.133,0.022,0.28,0.068,0.444c0.045,0.164,0.127,0.319,0.246,0.465s0.282,0.267,0.492,0.364c0.209,0.099,0.479,0.146,0.813,0.146
	c0.191,0,0.383-0.024,0.579-0.075c0.196-0.05,0.373-0.139,0.532-0.269c0.159-0.129,0.286-0.303,0.385-0.52
	c0.097-0.217,0.146-0.493,0.146-0.825v-4.157H6.192v4.205c0,0.138-0.015,0.267-0.044,0.389c-0.028,0.121-0.078,0.226-0.146,0.314
	c-0.069,0.085-0.161,0.155-0.277,0.205C5.607,91.5,5.46,91.523,5.28,91.523c-0.27,0-0.48-0.067-0.632-0.205
	c-0.15-0.139-0.226-0.377-0.226-0.723v-0.396H3.701z"/>
<path fill="#B1B3B4" d="M52.438,55.258l-0.373,1.334h1.39l-0.389-1.334c-0.118-0.369-0.229-0.836-0.323-1.209h-0.016
	C52.635,54.422,52.541,54.897,52.438,55.258 M38.813,56.135c0,1.239,0.577,2.108,1.524,2.108c0.96,0,1.511-0.913,1.511-2.136
	c0-1.135-0.532-2.106-1.511-2.106C39.372,54,38.813,54.917,38.813,56.135 M34.021,54c-0.342,0-0.538,0.017-0.643,0.048v1.721h0.558
	c0.71,0,1.127-0.351,1.127-0.901C35.064,54.3,34.675,54,34.021,54 M29,39.895c0.228-0.576,0.05-0.339,0.038-0.91
	c-0.291-0.062-0.368,0.261-0.594,0.484c-0.172,0.173-0.438,0.405-0.579,0.584c-0.324,0.409-0.608,0.952-0.728,1.556
	c-0.124,0.625-0.381,1.223-0.472,1.813c-0.062,0.407-0.117,0.598-0.086,0.989c0.027,0.332,0.086,0.79,0.086,1.034
	c0.242-0.064,0.632-1.118,0.846-1.438c0.461-0.69,0.303-0.907,0.583-1.658c0.202-0.537,0.306-1.19,0.555-1.684
	C28.768,40.428,28.898,40.152,29,39.895 M36.75,39.759l1.389-0.304l0.772-0.333l0.439,0.28c0.245-0.095,0.326-0.045,0.538-0.125
	c0.221-0.074,0.284-0.269,0.428-0.256c1.243,0.108,2.97-0.006,4.657,0.173c1.354,0.145,2.744,0.241,4.512,0.397
	c-0.245-0.448-5-4.76-5.296-4.785C43.486,34.741,36.965,39.179,36.75,39.759 M43.117,33.867l-5.744-3.864l-0.039,0.462l-1.121,7.495
	l0.01,0.41l6.858-4.248L43.117,33.867z M39.497,27.034c-1.269-0.11-1.62-0.15-1.761,1.482c-0.03,0.331,4.94,3.528,5.45,4.473
	l0.353-0.111c0.121,0.228,0.3,0.494,0.658,0.524c0.023,0.003,1.294-0.729,1.461-0.807c0.543-0.261,1.16-0.316,1.248-0.826
	l0.072,0.132l4.817-2.739l0.021-0.233c-2.172-0.374-3.627-1.226-5.957-1.346C43.791,27.478,41.155,27.181,39.497,27.034
	 M47.13,26.259c1.709,0.366,3.046,1.084,4.914,1.405c-0.206-1.476-5.092-10.49-5.611-10.535c-0.258-0.023-3.246,3.461-3.568,3.935
	c-0.591,0.833-3.341,3.595-3.446,4.213l0.935,0.014l1.511,0.082C43.282,25.488,45.813,25.968,47.13,26.259 M55.817,48.636
	c-0.273,1.173-1.273,1.996-2.155,2.585c-0.657,0-0.501,0.241-1.208,0.216c-0.769-0.028-0.624-0.331-0.915-0.594
	c-0.361-0.324-0.328-0.522-0.443-1.071c-0.038-0.192,0.02-0.429,0.051-0.639c0.025-0.186-0.115-0.356-0.16-0.541h-0.127
	c-0.283,0-0.626,0.692-0.831,0.893c-0.355,0.355-0.456,0.521-0.706,0.976c-0.217,0.388-0.563,0.562-0.933,0.793
	c-0.202,0.128-0.306,0.232-0.492,0.367c-0.191,0.139-0.411,0.1-0.662,0.16c-0.272-0.183-0.968-0.853-1.108-1.176
	c-0.172-0.398-0.485-1.223-0.485-1.754v-0.905l-0.304-0.079c-0.043,0.151-0.578,0.797-0.715,1.001
	c-0.347,0.519-0.202,0.494-0.698,0.985c-0.306,0.304-0.415,0.681-0.709,0.97c-0.291,0.285-0.561,0.561-0.894,0.785l-0.864,0.056
	l-0.042-0.011c-0.138,0-0.669-0.551-0.865-0.604c0-0.703-0.291-1.693-0.215-2.412l0.154-1.464c-0.003-0.202-0.495-0.09-0.611-0.026
	c-0.076,0.042-0.317,0.302-0.396,0.381c-0.169,0.169-0.638,0.623-0.848,0.706c-0.693,0.275-0.444,0.241-1.206,0.077
	c-0.258-0.057-1.119-0.319-1.232-0.319c-0.488,0-0.987,0.861-1.127,1.286c-0.15,0.451-0.606,1.122-0.892,1.481
	c-0.077,0.095-1.215,0.813-1.442,0.969c-0.141,0.099-0.645,0.237-0.866,0.342c-0.099,0.047-0.778,0.358-0.805,0.358
	c-1.573,0-2.168-0.474-2.805-1.423c0.079-0.162,0.146-0.875,0.254-1.166c0.169-0.453,0.13-0.649,0.231-1.149
	c0.15-0.735,0.607-1.286,0.982-1.817c0.464-0.662,0.628-1.012,1.407-1.396c0.308-0.151,0.742-0.216,1.017-0.363
	c0.286-0.158,0.577-0.396,0.982-0.396h0.389c-0.215,0.92-0.093,0.674-0.962,1.02c-0.336,0.131-0.776,0.654-1.011,0.928
	c-0.146,0.171-0.39,1.174-0.452,1.488c-0.129,0.657,0.097,0.97,0.097,1.688c0.297,0.444,0.49,0.497,0.906,0.777
	c0.368-0.194,0.498-0.255,0.837-0.5c0.332-0.238,0.245-0.526,0.474-0.862c0.259-0.386,0.887-1.191,0.887-1.742v-0.128
	c0-0.291-0.011-0.72-0.114-0.919c-0.077-0.154-0.317-0.557-0.317-0.718V45.49c0-1.173,0.421-1.165,1.553-1.165l0.751,0.76
	c-0.019,0.528,0.255,0.706,0.496,1.054c0.084,0.118,0.685,0.688,0.822,0.688h0.646c0.499,0,1.09-0.856,1.392-1.155
	c0.189-0.187,1.153-1.171,1.368-1.171h0.345c0.354,0,0.96,0.031,1.136,0.202c0.065,0.063,0.503,0.723,0.503,0.787v0.604
	l-0.385,2.326l-0.003,0.257c0,0.275,0.167,0.492,0.172,0.776c0.737-0.016,1.332-1.93,1.719-2.509
	c0.39-0.584,1.219-2.145,2.034-2.145h0.302c0.248,0,1.017,0.346,1.107,0.531c0.324,0.643,0.271,0.427,0.271,1.364
	c0,0.674,0.135,0.833,0.227,1.412c0.065,0.414,0.069,1.034,0.164,1.433c0.434-0.291,1.338-1.789,1.688-2.318
	c0.549-0.834,0.694-1.904,2.063-1.904h0.216c0.272,0,0.758,0.38,0.888,0.578c0.201,0.302,0.377,0.607,0.407,1.057
	c0.056,0.828,0.146,1.845,0.216,2.673l0.259,0.027c0.313-0.196,0.59-0.415,0.735-0.797C55.094,48.511,55.544,48.225,55.817,48.636
	 M54.974,27.571l-0.008,0.117c-0.122,1.382-0.521,2.406-0.867,3.703c-0.233,0.888-0.308,3.009-0.384,3.896
	c-0.026,0.28-0.182,3.973,0.331,4.236c-0.3,0.973,1.01,3.134,0.908,4.282c-0.037,0.422-0.579,1.001-1.134,0.954l-0.231-0.021
	c-0.485-0.044-0.711-1.098-0.922-1.483c0.073-0.084,0.269-0.269,0.262-0.328l-0.317-4.582l0.051-0.348
	c0.187-2.137,0.15-3.992,0.547-6.26l0.242-1.73l-0.691-0.703l-7.692,4.757l2.308,2.17l0.079-0.091
	c-0.002,0.541,0.804,0.961,1.189,1.039c-0.146,0.496,0.056,0.687,0.543,0.514l0.571,0.708c-0.133,0.332,1.576,1.421,2.14,1.632
	l-0.015,0.706c-0.087,0.244-0.384,0.896-0.705,0.866l-6.709-0.721l-0.806-0.052l-0.022,0.23l-1.723-0.293
	c-0.248-0.021-0.676,0.125-0.833,0.188l-0.437,0.387l-0.08-0.09l0.158-0.33l-2.232,0.28l0.25,0.322
	c-0.65-0.313-0.793-0.21-1.482-0.004c-0.271,0.084-0.62,0.105-0.799,0.207c-0.354,0.208-0.232,0.595-0.354,0.076l-0.581,0.233
	l0.452,0.273l-1.677,0.162l-0.121-0.02c-0.729-0.065-1.185-0.904-1.142-1.619l0.093,0.108l2.434-2.089
	c-0.268-0.473-0.618-1.114-0.557-1.817l0.041-0.464l1.083-6.563c-0.02-0.135,0.102-0.351,0.122-0.574l0.03-0.348
	c-0.693-0.252-1.746-1.353-1.657-2.364c0.071-0.819,1.022-0.854,1.649-1.099c1.311-0.511,0.842-0.011,1.705-1.045
	c0.949-1.126,1.681-1.804,2.661-2.845c0.853-0.901,4.529-5.328,4.887-6.324l0.693,0.104c0.959,0.041,1.624,2.036,2.11,2.813
	c0.613,0.971,1.246,1.986,1.794,3.002c1.268,2.322,2.199,3.789,3.189,6.445c0.535-0.146,0.906-0.855,1.241-0.827
	C54.686,26.962,54.995,27.331,54.974,27.571 M30.159,38.555l-0.068,1.379l0.026,0.517c0,0.413-0.307,1.301-0.459,1.608
	c-0.07,0.139-0.139,0.209-0.191,0.326c-0.072,0.166-0.013,0.265-0.065,0.453c-0.074,0.263-0.153,0.519-0.228,0.763
	c-0.141,0.454-1.317,1.994-1.657,2.439c-0.232,0.304-0.914,0.774-0.938,1.131c-0.046,0.735-0.073,1.166-0.19,1.834
	c-0.125,0.713-0.071,1.16,0.028,1.817c0.07,0.466,0.292,1.265,0.292,1.733c0.039,0.027,0.726,0.749,0.85,0.873
	c0.315,0.314,0.568,0.523,0.788,0.936c-0.108,0.072-0.234,0.26-0.345,0.26h-0.431l-0.603-0.048
	c-0.309-0.203-0.658-0.583-0.845-0.919c-0.319-0.57-0.364-0.409-0.605-1.118c-0.183-0.537-0.301-0.592-0.438-1.286
	c-0.093-0.472-0.313-0.892-0.313-1.411v-0.215l0.104-0.816c-0.424,0.106-1.167,0.886-1.509,1.137
	c-0.315,0.23-0.461,0.346-0.844,0.492c-0.313,0.12-0.414,0.35-0.783,0.511c-0.587,0.25-1.22,0.713-1.801,0.829
	c-0.456,0.088-0.618,0.154-1.136,0.062c-0.321-0.056-0.89-0.172-1.104-0.188c-0.033-0.399-0.439-1.032-0.381-1.454
	c0.058-0.405,0.251-1.229,0.251-1.605c0.213-0.143,0.457-0.444,0.657-0.636c0.205-0.196,0.489-0.35,0.713-0.539
	c0.645-0.543,0.745-0.61,1.565-0.98c0.504-0.225,1.167-0.715,1.732-0.812c0.539-0.092,1.439,0.572,1.631,0.854
	c-0.091,0.135-0.302,0.391-0.518,0.391h-0.129c-0.162,0-0.49-0.119-0.604-0.175c-0.392,0.188-0.879,0.165-1.175,0.462
	c-0.283,0.291-0.551,0.513-0.841,0.798c-0.518,0.512-0.7,1.548-0.7,2.446c0.077,0.053,0.075,0.085,0.172,0.085h0.346
	c0.069,0,0.418-0.31,0.485-0.376c0.207-0.207,0.255-0.188,0.506-0.313c0.297-0.149,0.834-0.373,1.068-0.571
	c0.177-0.151,0.211-0.264,0.423-0.396c0.179-0.107,0.33-0.207,0.5-0.316c0.149-0.099,0.92-0.583,1.028-0.613
	c-0.023-0.098-0.043-0.1-0.043-0.214v-0.088c0-0.662,0.038-1.029,0.209-1.512c0.077-0.216,0.159-0.405,0.23-0.635
	c0.068-0.217-0.051-0.391-0.051-0.696v-0.129l0.014-0.991l-0.014-0.26c0-0.66,0.441-1.583,0.675-2.083
	c0.13-0.274,0.302-0.712,0.492-0.887c0.133-0.123,0.637-0.551,0.715-0.665c0.284-0.424,0.209-0.428,0.655-0.724
	c0.295-0.197,0.485-0.371,0.809-0.568c0.375-0.23,0.489-0.289,0.992-0.391c0.251-0.052,1.053,0.032,1.053,0.277V38.555z
	 M31.972,53.072c0.456-0.078,1.128-0.132,1.891-0.132c0.932,0,1.583,0.138,2.031,0.496c0.382,0.297,0.589,0.742,0.589,1.323
	c0,0.79-0.568,1.339-1.107,1.537v0.028c0.435,0.177,0.675,0.585,0.837,1.162c0.195,0.721,0.381,1.539,0.5,1.781h-1.452
	c-0.092-0.187-0.253-0.691-0.427-1.465c-0.182-0.791-0.448-0.995-1.038-1.006h-0.417v2.471h-1.407V53.072z M37.312,56.161
	c0-1.881,1.211-3.289,3.055-3.289c1.933,0,2.984,1.447,2.984,3.19c0,2.066-1.239,3.306-3.084,3.306
	C38.41,59.368,37.312,57.964,37.312,56.161 M44.421,52.988h1.408v2.777h0.019c0.144-0.243,0.287-0.468,0.44-0.691l1.414-2.085h1.752
	l-2.076,2.672l2.177,3.607h-1.648l-1.544-2.714l-0.533,0.665v2.049h-1.408V52.988z M49.946,59.267l1.917-6.279h1.863l1.954,6.279
	h-1.537l-0.487-1.61h-1.793l-0.45,1.61H49.946z M67.672,0H2.5v74.244h65.172V0z"/>
</svg>
