<?xml version="1.0" encoding="utf-8"?>
<!-- Generator: Adobe Illustrator 15.1.0, SVG Export Plug-In . SVG Version: 6.00 Build 0)  -->
<!DOCTYPE svg PUBLIC "-//W3C//DTD SVG 1.1//EN" "http://www.w3.org/Graphics/SVG/1.1/DTD/svg11.dtd">
<svg version="1.1" id="Vrstva_1" xmlns="http://www.w3.org/2000/svg" xmlns:xlink="http://www.w3.org/1999/xlink" x="0px" y="0px"
	 width="76px" height="120px" viewBox="0 0 76 120" enable-background="new 0 0 76 120" xml:space="preserve">
<path fill="#B1B3B4" d="M52.188,119.88v-4.119h-0.691v2.27c0,0.15-0.021,0.308-0.057,0.468s-0.1,0.309-0.186,0.441
	c-0.087,0.135-0.201,0.244-0.346,0.332c-0.145,0.086-0.327,0.129-0.547,0.129c-0.111,0-0.215-0.017-0.312-0.048
	c-0.098-0.03-0.181-0.081-0.253-0.152c-0.07-0.071-0.126-0.165-0.17-0.279c-0.041-0.117-0.061-0.258-0.061-0.425v-2.735h-0.694
	v2.962c0,0.248,0.041,0.451,0.121,0.613c0.082,0.165,0.188,0.296,0.32,0.396c0.131,0.099,0.275,0.168,0.433,0.208
	C49.904,119.98,50.06,120,50.211,120c0.332,0,0.596-0.063,0.793-0.187c0.196-0.122,0.368-0.306,0.516-0.547l0.015,0.015v0.599
	H52.188z M46.675,117.298l1.576-1.537h-0.884l-1.771,1.742v-3.277h-0.67v5.654h0.67v-1.559l0.576-0.521l1.282,2.079h0.893
	L46.675,117.298z M43.981,116.936c0-0.053-0.013-0.148-0.039-0.289c-0.025-0.136-0.093-0.282-0.197-0.433
	c-0.106-0.149-0.262-0.281-0.473-0.398c-0.209-0.114-0.499-0.175-0.865-0.175c-0.206,0-0.401,0.029-0.588,0.082
	c-0.186,0.053-0.351,0.134-0.496,0.241c-0.145,0.106-0.259,0.244-0.347,0.408c-0.087,0.164-0.129,0.36-0.129,0.587
	c0,0.284,0.086,0.501,0.258,0.656c0.175,0.155,0.404,0.27,0.693,0.344l0.805,0.198c0.293,0.071,0.504,0.148,0.631,0.227
	c0.126,0.079,0.188,0.2,0.188,0.362c0,0.117-0.025,0.216-0.078,0.297s-0.122,0.147-0.209,0.2c-0.086,0.053-0.186,0.09-0.299,0.119
	c-0.112,0.024-0.232,0.038-0.359,0.038c-0.245,0-0.439-0.028-0.582-0.086c-0.142-0.06-0.249-0.129-0.323-0.215
	c-0.073-0.083-0.122-0.174-0.146-0.274c-0.024-0.1-0.038-0.188-0.043-0.267h-0.67c0.005,0.083,0.015,0.177,0.027,0.278
	c0.014,0.103,0.04,0.208,0.08,0.315c0.038,0.107,0.099,0.212,0.176,0.313c0.079,0.098,0.183,0.188,0.312,0.27
	s0.288,0.146,0.48,0.194c0.192,0.047,0.425,0.071,0.697,0.071c0.23,0,0.445-0.034,0.646-0.097c0.199-0.061,0.372-0.151,0.516-0.267
	c0.145-0.114,0.259-0.258,0.343-0.425c0.085-0.169,0.127-0.36,0.127-0.575c0-0.279-0.085-0.503-0.256-0.673
	c-0.172-0.172-0.473-0.31-0.902-0.416l-0.693-0.172c-0.137-0.031-0.253-0.063-0.347-0.095s-0.171-0.067-0.229-0.105
	c-0.058-0.04-0.101-0.088-0.13-0.144c-0.028-0.055-0.044-0.123-0.044-0.207c0-0.127,0.033-0.229,0.099-0.308
	c0.066-0.079,0.144-0.139,0.232-0.177c0.09-0.041,0.181-0.067,0.271-0.078c0.093-0.015,0.166-0.022,0.218-0.022
	c0.22,0,0.393,0.026,0.52,0.072c0.125,0.047,0.223,0.107,0.293,0.177c0.065,0.071,0.111,0.147,0.132,0.229
	c0.021,0.08,0.032,0.154,0.032,0.217H43.981z M39.933,114.226H39.24v5.654h0.692V114.226z M34.723,118.608
	c0.077,0.26,0.193,0.491,0.351,0.696s0.355,0.372,0.595,0.497c0.238,0.127,0.523,0.188,0.854,0.188c0.332,0,0.617-0.061,0.854-0.188
	c0.24-0.125,0.438-0.292,0.595-0.497c0.158-0.205,0.273-0.437,0.351-0.696c0.075-0.258,0.113-0.523,0.113-0.793
	c0-0.268-0.038-0.529-0.113-0.789c-0.078-0.261-0.193-0.492-0.351-0.698c-0.157-0.205-0.355-0.369-0.595-0.495
	c-0.238-0.127-0.523-0.192-0.854-0.192c-0.331,0-0.616,0.065-0.854,0.192c-0.24,0.126-0.438,0.29-0.595,0.495
	c-0.158,0.206-0.274,0.438-0.351,0.698c-0.075,0.26-0.113,0.521-0.113,0.789C34.609,118.085,34.648,118.351,34.723,118.608
	 M35.374,117.341c0.03-0.182,0.09-0.354,0.176-0.516c0.087-0.163,0.209-0.301,0.367-0.413c0.158-0.114,0.359-0.172,0.605-0.172
	c0.247,0,0.449,0.058,0.606,0.172c0.158,0.112,0.28,0.25,0.368,0.413c0.086,0.162,0.145,0.334,0.177,0.516
	c0.032,0.181,0.047,0.342,0.047,0.475c0,0.139-0.016,0.296-0.047,0.478c-0.032,0.182-0.091,0.354-0.177,0.519
	c-0.087,0.161-0.21,0.3-0.368,0.412c-0.157,0.112-0.359,0.169-0.606,0.169c-0.246,0-0.448-0.057-0.605-0.169
	c-0.158-0.112-0.28-0.251-0.367-0.412c-0.086-0.165-0.146-0.337-0.176-0.519c-0.033-0.182-0.048-0.339-0.048-0.478
	C35.325,117.683,35.341,117.521,35.374,117.341 M30.915,114.877h1.551c0.158,0,0.306,0.018,0.44,0.049
	c0.138,0.033,0.255,0.086,0.354,0.159c0.1,0.072,0.181,0.17,0.238,0.289c0.057,0.122,0.087,0.271,0.087,0.451
	c0,0.188-0.029,0.349-0.084,0.479s-0.133,0.236-0.236,0.315c-0.103,0.078-0.223,0.133-0.362,0.169
	c-0.139,0.034-0.294,0.05-0.468,0.05h-1.521V114.877z M30.915,117.493h1.779c0.306,0,0.565-0.05,0.782-0.148
	c0.215-0.1,0.387-0.23,0.52-0.396c0.13-0.162,0.227-0.342,0.286-0.537c0.062-0.198,0.091-0.396,0.091-0.597
	c0-0.225-0.038-0.434-0.114-0.628c-0.076-0.195-0.187-0.365-0.332-0.506c-0.143-0.141-0.32-0.253-0.527-0.334
	c-0.208-0.081-0.443-0.122-0.706-0.122H30.15v5.654h0.765V117.493z M25.299,119.116h-0.016l-1.07-3.355h-0.805l1.503,4.119h0.741
	l1.568-4.119h-0.757L25.299,119.116z"/>
<path fill="#B1B3B4" d="M58.003,108.782c0.127-0.031,0.25-0.072,0.365-0.127s0.218-0.123,0.308-0.209
	c0.09-0.084,0.159-0.18,0.212-0.284l0.016,0.016c-0.088,0.719-0.239,1.243-0.448,1.576c-0.212,0.331-0.504,0.496-0.883,0.496
	c-0.283,0-0.505-0.081-0.665-0.241s-0.252-0.382-0.272-0.663h-0.693c0,0.133,0.024,0.288,0.075,0.461
	c0.051,0.169,0.137,0.328,0.26,0.479c0.123,0.147,0.293,0.276,0.506,0.382c0.212,0.104,0.48,0.157,0.806,0.157
	c0.315,0,0.584-0.064,0.808-0.188c0.224-0.127,0.408-0.291,0.56-0.489c0.149-0.2,0.268-0.42,0.35-0.661
	c0.085-0.241,0.149-0.478,0.193-0.709c0.045-0.231,0.072-0.441,0.083-0.635c0.011-0.191,0.016-0.337,0.016-0.437
	c0-0.146-0.007-0.315-0.02-0.499c-0.014-0.188-0.043-0.374-0.091-0.563c-0.047-0.19-0.113-0.375-0.196-0.556
	c-0.085-0.182-0.199-0.344-0.344-0.484c-0.145-0.144-0.32-0.256-0.531-0.339c-0.21-0.084-0.462-0.127-0.756-0.127
	s-0.552,0.052-0.771,0.153c-0.222,0.102-0.405,0.242-0.557,0.417c-0.148,0.177-0.262,0.38-0.339,0.606
	c-0.074,0.229-0.113,0.47-0.113,0.721c0,0.279,0.042,0.53,0.126,0.749c0.083,0.22,0.203,0.406,0.357,0.559
	c0.157,0.153,0.339,0.271,0.552,0.356c0.212,0.083,0.447,0.124,0.705,0.124C57.746,108.823,57.872,108.809,58.003,108.782
	 M57.352,108.162c-0.132-0.026-0.253-0.079-0.366-0.161c-0.112-0.081-0.206-0.202-0.28-0.359c-0.072-0.157-0.109-0.37-0.109-0.637
	c0-0.373,0.098-0.674,0.292-0.903s0.454-0.341,0.779-0.341c0.199,0,0.37,0.03,0.512,0.093c0.142,0.064,0.257,0.15,0.346,0.261
	c0.09,0.109,0.156,0.236,0.197,0.38c0.044,0.141,0.063,0.29,0.063,0.448c0,0.271-0.038,0.491-0.113,0.656
	c-0.077,0.167-0.171,0.293-0.28,0.384c-0.111,0.089-0.227,0.148-0.352,0.177c-0.122,0.029-0.229,0.043-0.318,0.043
	C57.606,108.202,57.482,108.188,57.352,108.162 M54.237,109.613c-0.187,0.394-0.48,0.589-0.88,0.589
	c-0.398,0-0.69-0.195-0.878-0.589c-0.185-0.394-0.279-0.938-0.279-1.631c0-0.694,0.095-1.235,0.279-1.632
	c0.188-0.395,0.479-0.59,0.878-0.59c0.399,0,0.693,0.195,0.88,0.59c0.186,0.396,0.279,0.938,0.279,1.632
	C54.517,108.675,54.423,109.22,54.237,109.613 M55.182,107.052c-0.05-0.331-0.144-0.638-0.279-0.922
	c-0.136-0.283-0.329-0.52-0.574-0.708c-0.247-0.188-0.571-0.284-0.971-0.284c-0.398,0-0.721,0.096-0.969,0.284
	c-0.245,0.188-0.438,0.425-0.578,0.708c-0.14,0.284-0.231,0.591-0.279,0.922c-0.047,0.332-0.07,0.64-0.07,0.931
	c0,0.286,0.023,0.597,0.07,0.929c0.048,0.332,0.14,0.637,0.279,0.921s0.333,0.521,0.578,0.709c0.248,0.188,0.57,0.284,0.969,0.284
	c0.399,0,0.724-0.096,0.971-0.284c0.245-0.188,0.438-0.425,0.574-0.709s0.229-0.589,0.279-0.921s0.074-0.643,0.074-0.929
	C55.256,107.691,55.231,107.384,55.182,107.052 M49.857,109.613c-0.187,0.394-0.479,0.589-0.879,0.589
	c-0.397,0-0.69-0.195-0.877-0.589s-0.279-0.938-0.279-1.631c0-0.694,0.093-1.235,0.279-1.632c0.187-0.395,0.479-0.59,0.877-0.59
	c0.399,0,0.692,0.195,0.879,0.59c0.186,0.396,0.28,0.938,0.28,1.632C50.138,108.675,50.043,109.22,49.857,109.613 M50.802,107.052
	c-0.049-0.331-0.144-0.638-0.278-0.922c-0.137-0.283-0.329-0.52-0.576-0.708c-0.245-0.188-0.569-0.284-0.969-0.284
	c-0.397,0-0.722,0.096-0.97,0.284c-0.245,0.188-0.438,0.425-0.577,0.708c-0.139,0.284-0.231,0.591-0.278,0.922
	c-0.049,0.332-0.072,0.64-0.072,0.931c0,0.286,0.023,0.597,0.072,0.929c0.047,0.332,0.14,0.637,0.278,0.921
	c0.14,0.284,0.332,0.521,0.577,0.709c0.248,0.188,0.572,0.284,0.97,0.284c0.399,0,0.724-0.096,0.969-0.284
	c0.247-0.188,0.439-0.425,0.576-0.709c0.135-0.284,0.229-0.589,0.278-0.921c0.05-0.332,0.076-0.643,0.076-0.929
	C50.878,107.691,50.852,107.384,50.802,107.052 M43.449,107.123c0.007-0.095,0.017-0.22,0.036-0.374
	c0.018-0.155,0.064-0.306,0.138-0.453c0.073-0.146,0.185-0.272,0.331-0.378c0.147-0.105,0.353-0.157,0.615-0.157
	c0.203,0,0.375,0.03,0.515,0.093c0.14,0.064,0.253,0.144,0.339,0.241s0.148,0.205,0.186,0.322c0.037,0.119,0.055,0.234,0.055,0.344
	c0,0.184-0.024,0.336-0.074,0.461c-0.05,0.124-0.12,0.231-0.213,0.326c-0.093,0.094-0.2,0.182-0.323,0.261
	c-0.123,0.078-0.259,0.16-0.406,0.243l-0.731,0.428c-0.185,0.109-0.354,0.23-0.509,0.365c-0.154,0.133-0.289,0.289-0.405,0.465
	c-0.115,0.174-0.206,0.375-0.271,0.599c-0.066,0.222-0.104,0.478-0.114,0.767h3.789v-0.654h-3.01
	c0.007-0.053,0.024-0.117,0.055-0.195c0.033-0.081,0.083-0.167,0.151-0.261c0.067-0.095,0.162-0.193,0.282-0.295
	c0.121-0.104,0.277-0.206,0.465-0.311l0.575-0.315c0.205-0.109,0.397-0.224,0.58-0.336c0.181-0.112,0.339-0.241,0.471-0.383
	c0.135-0.141,0.24-0.303,0.316-0.486c0.074-0.184,0.114-0.401,0.114-0.646c0-0.258-0.045-0.487-0.135-0.692
	c-0.088-0.205-0.213-0.379-0.37-0.521c-0.157-0.141-0.341-0.25-0.552-0.327c-0.209-0.076-0.436-0.114-0.676-0.114
	c-0.101,0-0.217,0.007-0.352,0.023c-0.135,0.018-0.271,0.046-0.413,0.091c-0.143,0.046-0.282,0.112-0.417,0.2
	c-0.138,0.092-0.26,0.208-0.371,0.356c-0.11,0.146-0.197,0.326-0.264,0.542c-0.066,0.217-0.1,0.473-0.1,0.772H43.449z
	 M36.968,107.809c0.01-0.079,0.028-0.165,0.055-0.258c0.025-0.091,0.071-0.177,0.137-0.258s0.158-0.15,0.275-0.202
	c0.119-0.054,0.277-0.077,0.477-0.077c0.646,0,0.969,0.222,0.969,0.669c0,0.104-0.012,0.188-0.031,0.248
	c-0.021,0.06-0.051,0.106-0.087,0.143c-0.037,0.034-0.077,0.058-0.117,0.069c-0.043,0.012-0.085,0.021-0.126,0.028l-1.142,0.142
	c-0.289,0.035-0.517,0.107-0.682,0.212c-0.165,0.104-0.289,0.225-0.374,0.354c-0.084,0.134-0.138,0.265-0.161,0.398
	c-0.024,0.134-0.036,0.243-0.036,0.327c0,0.179,0.032,0.341,0.094,0.484c0.063,0.146,0.152,0.27,0.269,0.375
	c0.114,0.104,0.251,0.186,0.409,0.243c0.157,0.057,0.331,0.088,0.519,0.088c0.2,0,0.377-0.021,0.532-0.064
	c0.155-0.04,0.294-0.095,0.414-0.16c0.12-0.066,0.223-0.138,0.31-0.217c0.087-0.079,0.165-0.155,0.233-0.229
	c0.006,0.078,0.018,0.157,0.039,0.231c0.021,0.076,0.058,0.144,0.108,0.2c0.047,0.059,0.122,0.105,0.215,0.143
	c0.095,0.036,0.218,0.056,0.37,0.056c0.08,0,0.147-0.01,0.204-0.027c0.059-0.019,0.116-0.035,0.174-0.052v-0.504
	c-0.04,0.01-0.081,0.02-0.122,0.024c-0.039,0.005-0.074,0.007-0.106,0.007c-0.151,0-0.229-0.081-0.229-0.243v-2.373
	c0-0.172-0.029-0.322-0.09-0.448c-0.062-0.124-0.139-0.231-0.233-0.317c-0.094-0.089-0.199-0.155-0.314-0.205
	c-0.114-0.051-0.231-0.089-0.346-0.115c-0.116-0.026-0.222-0.042-0.318-0.05c-0.098-0.01-0.173-0.014-0.226-0.014
	c-0.251,0-0.481,0.026-0.688,0.076s-0.386,0.131-0.531,0.24c-0.148,0.11-0.264,0.252-0.347,0.425
	c-0.084,0.172-0.129,0.385-0.134,0.631H36.968z M38.866,109.25c0,0.137-0.037,0.263-0.11,0.382s-0.17,0.22-0.287,0.306
	c-0.118,0.088-0.254,0.155-0.406,0.205c-0.153,0.05-0.311,0.076-0.472,0.076c-0.263,0-0.454-0.062-0.571-0.19
	c-0.12-0.125-0.178-0.301-0.178-0.525c0-0.134,0.03-0.238,0.091-0.319c0.06-0.081,0.134-0.146,0.223-0.193
	c0.09-0.049,0.187-0.084,0.289-0.105c0.103-0.026,0.196-0.043,0.279-0.053c0.216-0.026,0.39-0.05,0.523-0.076
	c0.134-0.021,0.244-0.043,0.327-0.063c0.083-0.019,0.147-0.038,0.189-0.057c0.043-0.023,0.076-0.043,0.103-0.064V109.25z
	 M33.053,106.066c-0.063-0.168-0.163-0.32-0.299-0.456c-0.136-0.137-0.313-0.251-0.532-0.339c-0.217-0.088-0.479-0.134-0.783-0.134
	c-0.332,0-0.604,0.052-0.819,0.158c-0.216,0.104-0.388,0.233-0.517,0.386c-0.129,0.153-0.219,0.317-0.269,0.497
	c-0.05,0.179-0.074,0.339-0.074,0.479c0,0.263,0.065,0.484,0.197,0.67c0.132,0.185,0.315,0.32,0.551,0.409
	c-0.293,0.121-0.523,0.291-0.689,0.508c-0.165,0.217-0.249,0.499-0.249,0.838c0,0.069,0.003,0.155,0.009,0.255
	c0.006,0.104,0.026,0.218,0.063,0.337c0.036,0.119,0.095,0.243,0.169,0.37c0.077,0.126,0.185,0.243,0.326,0.353
	c0.112,0.092,0.228,0.162,0.351,0.22c0.124,0.055,0.246,0.096,0.368,0.13c0.12,0.03,0.232,0.052,0.338,0.062
	c0.105,0.012,0.197,0.017,0.276,0.017c0.325,0,0.605-0.05,0.841-0.15c0.237-0.1,0.432-0.232,0.583-0.394
	c0.153-0.162,0.265-0.35,0.339-0.559c0.074-0.21,0.11-0.425,0.11-0.646c0-0.105-0.012-0.221-0.035-0.342
	c-0.025-0.124-0.07-0.248-0.139-0.372c-0.068-0.122-0.16-0.239-0.276-0.352c-0.116-0.109-0.268-0.202-0.456-0.281
	c0.062-0.031,0.134-0.073,0.216-0.124c0.08-0.048,0.159-0.117,0.232-0.207c0.074-0.089,0.136-0.201,0.185-0.335
	c0.05-0.134,0.076-0.301,0.076-0.501C33.148,106.4,33.117,106.236,33.053,106.066 M31.899,108.138
	c0.139,0.043,0.261,0.11,0.366,0.198c0.105,0.09,0.188,0.201,0.248,0.334c0.06,0.134,0.091,0.296,0.091,0.484
	c0,0.215-0.035,0.392-0.103,0.527c-0.068,0.139-0.156,0.244-0.264,0.32s-0.228,0.128-0.358,0.157
	c-0.132,0.028-0.26,0.043-0.387,0.043c-0.242,0-0.439-0.036-0.591-0.109c-0.153-0.075-0.272-0.165-0.359-0.276
	c-0.086-0.111-0.146-0.229-0.181-0.359c-0.034-0.128-0.051-0.247-0.051-0.357c0-0.127,0.022-0.25,0.067-0.375
	c0.044-0.122,0.113-0.231,0.209-0.329c0.094-0.098,0.214-0.177,0.358-0.233c0.145-0.058,0.314-0.086,0.509-0.086
	C31.612,108.076,31.76,108.097,31.899,108.138 M31.084,107.42c-0.116-0.041-0.22-0.099-0.312-0.172
	c-0.092-0.072-0.164-0.162-0.216-0.269c-0.053-0.104-0.079-0.222-0.079-0.353c0-0.091,0.012-0.184,0.04-0.284
	c0.025-0.101,0.072-0.192,0.142-0.278c0.068-0.089,0.162-0.161,0.283-0.218c0.122-0.058,0.273-0.086,0.457-0.086
	c0.204,0,0.374,0.025,0.503,0.083c0.133,0.055,0.237,0.122,0.315,0.203c0.08,0.081,0.134,0.172,0.166,0.268
	c0.031,0.098,0.047,0.188,0.047,0.271c0,0.253-0.089,0.466-0.268,0.636c-0.178,0.169-0.418,0.255-0.717,0.255
	C31.321,107.477,31.199,107.458,31.084,107.42 M27.961,109.613c-0.186,0.394-0.48,0.589-0.878,0.589s-0.692-0.195-0.878-0.589
	s-0.279-0.938-0.279-1.631c0-0.694,0.093-1.235,0.279-1.632c0.186-0.395,0.48-0.59,0.878-0.59s0.692,0.195,0.878,0.59
	c0.186,0.396,0.279,0.938,0.279,1.632C28.241,108.675,28.147,109.22,27.961,109.613 M28.906,107.052
	c-0.05-0.331-0.143-0.638-0.279-0.922c-0.138-0.283-0.33-0.52-0.577-0.708c-0.246-0.188-0.569-0.284-0.968-0.284
	s-0.722,0.096-0.969,0.284c-0.246,0.188-0.439,0.425-0.579,0.708c-0.14,0.284-0.232,0.591-0.279,0.922
	c-0.048,0.332-0.071,0.64-0.071,0.931c0,0.286,0.023,0.597,0.071,0.929c0.047,0.332,0.14,0.637,0.279,0.921
	c0.14,0.284,0.333,0.521,0.579,0.709c0.247,0.188,0.57,0.284,0.969,0.284s0.722-0.096,0.968-0.284
	c0.247-0.188,0.439-0.425,0.577-0.709c0.136-0.284,0.229-0.589,0.279-0.921c0.05-0.332,0.076-0.643,0.076-0.929
	C28.982,107.691,28.957,107.384,28.906,107.052 M23.582,109.613c-0.187,0.394-0.48,0.589-0.878,0.589s-0.691-0.195-0.878-0.589
	c-0.185-0.394-0.279-0.938-0.279-1.631c0-0.694,0.094-1.235,0.279-1.632c0.187-0.395,0.48-0.59,0.878-0.59s0.692,0.195,0.878,0.59
	c0.186,0.396,0.279,0.938,0.279,1.632C23.861,108.675,23.768,109.22,23.582,109.613 M24.527,107.052
	c-0.05-0.331-0.143-0.638-0.279-0.922c-0.137-0.283-0.328-0.52-0.575-0.708c-0.246-0.188-0.571-0.284-0.969-0.284
	s-0.722,0.096-0.969,0.284c-0.246,0.188-0.439,0.425-0.579,0.708c-0.14,0.284-0.233,0.591-0.279,0.922
	c-0.046,0.332-0.071,0.64-0.071,0.931c0,0.286,0.025,0.597,0.071,0.929s0.14,0.637,0.279,0.921s0.333,0.521,0.579,0.709
	c0.247,0.188,0.571,0.284,0.969,0.284s0.723-0.096,0.969-0.284c0.247-0.188,0.438-0.425,0.575-0.709
	c0.136-0.284,0.229-0.589,0.279-0.921c0.05-0.332,0.075-0.643,0.075-0.929C24.602,107.691,24.577,107.384,24.527,107.052
	 M17.175,107.123c0.005-0.095,0.017-0.22,0.036-0.374c0.018-0.155,0.064-0.306,0.137-0.453c0.074-0.146,0.184-0.272,0.332-0.378
	c0.146-0.105,0.351-0.157,0.613-0.157c0.206,0,0.377,0.03,0.516,0.093c0.139,0.064,0.253,0.144,0.34,0.241
	c0.086,0.098,0.147,0.205,0.184,0.322c0.038,0.119,0.055,0.234,0.055,0.344c0,0.184-0.024,0.336-0.074,0.461
	c-0.05,0.124-0.122,0.231-0.212,0.326c-0.092,0.094-0.199,0.182-0.324,0.261c-0.123,0.078-0.259,0.16-0.406,0.243l-0.733,0.428
	c-0.184,0.109-0.353,0.23-0.507,0.365c-0.155,0.133-0.291,0.289-0.406,0.465c-0.116,0.174-0.207,0.375-0.272,0.599
	c-0.067,0.222-0.104,0.478-0.115,0.767h3.789v-0.654H17.12c0.005-0.053,0.023-0.117,0.055-0.195
	c0.031-0.081,0.081-0.167,0.149-0.261c0.068-0.095,0.163-0.193,0.284-0.295c0.121-0.104,0.275-0.206,0.464-0.311l0.575-0.315
	c0.206-0.109,0.399-0.224,0.579-0.336c0.182-0.112,0.339-0.241,0.472-0.383c0.134-0.141,0.239-0.303,0.316-0.486
	c0.076-0.184,0.114-0.401,0.114-0.646c0-0.258-0.044-0.487-0.134-0.692c-0.091-0.205-0.212-0.379-0.37-0.521
	c-0.158-0.141-0.343-0.25-0.553-0.327c-0.209-0.076-0.435-0.114-0.677-0.114c-0.1,0-0.216,0.007-0.351,0.023
	c-0.134,0.018-0.271,0.046-0.413,0.091c-0.142,0.046-0.282,0.112-0.418,0.2c-0.137,0.092-0.26,0.208-0.371,0.356
	c-0.11,0.146-0.198,0.326-0.264,0.542c-0.064,0.217-0.098,0.473-0.098,0.772H17.175z"/>
<path fill="#B1B3B4" d="M63.885,99.822l0.56,1.646h0.835l-2.048-5.655h-0.867l-2.125,5.655h0.786l0.591-1.646H63.885z
	 M61.852,99.145l0.906-2.486h0.018l0.834,2.486H61.852z M59.562,101.469v-5.655h-1.088l-1.606,4.782h-0.017l-1.614-4.782h-1.094
	v5.655h0.74v-3.338c0-0.043-0.002-0.115-0.004-0.217c-0.004-0.104-0.005-0.221-0.005-0.352s-0.002-0.271-0.004-0.417
	c-0.003-0.146-0.004-0.287-0.004-0.419h0.017l1.591,4.742h0.757l1.591-4.748h0.015c0,0.131-0.002,0.269-0.005,0.417
	c-0.002,0.146-0.002,0.289-0.002,0.425c0,0.131-0.002,0.248-0.004,0.352c-0.003,0.102-0.004,0.174-0.004,0.217v3.338H59.562z
	 M49.338,99.045h1.851c0.226,0,0.405,0.028,0.54,0.091c0.133,0.06,0.235,0.139,0.308,0.233c0.069,0.098,0.114,0.208,0.133,0.329
	c0.02,0.12,0.028,0.236,0.028,0.354c0,0.052,0.001,0.141,0.003,0.265c0.003,0.122,0.01,0.256,0.02,0.396
	c0.011,0.141,0.025,0.281,0.044,0.422c0.018,0.139,0.04,0.251,0.066,0.334h0.938v-0.126c-0.059-0.031-0.105-0.064-0.143-0.098
	c-0.036-0.035-0.064-0.074-0.087-0.117c-0.021-0.045-0.034-0.095-0.044-0.15c-0.007-0.055-0.011-0.124-0.011-0.2l-0.048-1.023
	c-0.011-0.196-0.034-0.354-0.073-0.478c-0.041-0.124-0.091-0.225-0.154-0.301c-0.063-0.074-0.135-0.134-0.213-0.178
	c-0.079-0.04-0.157-0.078-0.235-0.109c0.089-0.052,0.181-0.114,0.273-0.186c0.096-0.069,0.181-0.158,0.257-0.261
	c0.076-0.1,0.139-0.224,0.186-0.372s0.069-0.326,0.069-0.537c0-0.298-0.053-0.547-0.16-0.742c-0.107-0.198-0.249-0.353-0.421-0.465
	c-0.174-0.114-0.371-0.194-0.595-0.241c-0.224-0.048-0.45-0.071-0.682-0.071h-2.614v5.655h0.764V99.045z M49.338,96.468h1.906
	c0.093,0,0.2,0.006,0.317,0.023c0.119,0.017,0.229,0.055,0.332,0.119c0.103,0.062,0.189,0.157,0.261,0.284
	c0.07,0.124,0.106,0.298,0.106,0.518c0,0.21-0.035,0.38-0.104,0.506c-0.067,0.124-0.156,0.225-0.264,0.294
	c-0.107,0.071-0.229,0.119-0.366,0.143c-0.138,0.024-0.276,0.036-0.418,0.036h-1.771V96.468z M47.172,95.813h-0.764v5.655h0.764
	V95.813z M42.319,98.901h2.772v-0.678h-2.772v-1.732h3.152v-0.678h-3.915v5.655h0.763V98.901z M37.192,99.822l0.56,1.646h0.834
	l-2.047-5.655h-0.866l-2.127,5.655h0.789l0.59-1.646H37.192z M35.16,99.145l0.907-2.486h0.015l0.836,2.486H35.16z M29.206,99.045
	h1.851c0.226,0,0.405,0.028,0.539,0.091c0.134,0.06,0.236,0.139,0.307,0.233c0.072,0.098,0.116,0.208,0.135,0.329
	c0.018,0.12,0.026,0.236,0.026,0.354c0,0.052,0.001,0.141,0.005,0.265c0.002,0.122,0.01,0.256,0.021,0.396
	c0.009,0.141,0.023,0.281,0.043,0.422c0.018,0.139,0.039,0.251,0.066,0.334h0.937v-0.126c-0.058-0.031-0.105-0.064-0.141-0.098
	c-0.037-0.035-0.066-0.074-0.087-0.117c-0.02-0.045-0.036-0.095-0.043-0.15c-0.008-0.055-0.012-0.124-0.012-0.2l-0.047-1.023
	c-0.01-0.196-0.036-0.354-0.075-0.478c-0.039-0.124-0.09-0.225-0.154-0.301c-0.063-0.074-0.133-0.134-0.212-0.178
	c-0.078-0.04-0.158-0.078-0.235-0.109c0.088-0.052,0.18-0.114,0.274-0.186c0.096-0.069,0.182-0.158,0.257-0.261
	c0.076-0.1,0.138-0.224,0.185-0.372c0.047-0.148,0.07-0.326,0.07-0.537c0-0.298-0.054-0.547-0.161-0.742
	c-0.107-0.198-0.248-0.353-0.421-0.465c-0.173-0.114-0.372-0.194-0.594-0.241c-0.223-0.048-0.451-0.071-0.681-0.071h-2.616v5.655
	h0.765V99.045z M29.206,96.468h1.906c0.095,0,0.202,0.006,0.318,0.023c0.118,0.017,0.228,0.055,0.331,0.119
	c0.103,0.062,0.19,0.157,0.262,0.284c0.07,0.124,0.106,0.298,0.106,0.518c0,0.21-0.034,0.38-0.103,0.506
	c-0.069,0.124-0.157,0.225-0.265,0.294c-0.107,0.071-0.229,0.119-0.366,0.143c-0.135,0.024-0.274,0.036-0.417,0.036h-1.772V96.468z
	 M23.842,96.468h1.386c0.425,0,0.727,0.07,0.906,0.212c0.178,0.143,0.267,0.349,0.267,0.615c0,0.346-0.104,0.585-0.314,0.716
	c-0.21,0.132-0.499,0.196-0.867,0.196h-1.378V96.468z M23.078,101.469h2.435c0.314,0,0.59-0.045,0.831-0.133
	c0.239-0.091,0.438-0.21,0.599-0.363c0.16-0.152,0.281-0.329,0.366-0.531c0.084-0.203,0.125-0.416,0.125-0.641
	c0-0.243-0.035-0.443-0.106-0.604c-0.07-0.16-0.159-0.291-0.263-0.394c-0.105-0.103-0.216-0.184-0.334-0.241
	c-0.118-0.057-0.224-0.105-0.32-0.141c0.158-0.074,0.286-0.16,0.383-0.255c0.098-0.099,0.173-0.198,0.228-0.305
	c0.055-0.104,0.093-0.212,0.114-0.318c0.021-0.108,0.031-0.211,0.031-0.304c0-0.193-0.035-0.377-0.103-0.546
	c-0.067-0.172-0.168-0.323-0.303-0.454c-0.132-0.132-0.301-0.236-0.5-0.313c-0.199-0.077-0.429-0.114-0.692-0.114h-2.489V101.469z
	 M23.842,98.832h1.503c0.158,0,0.316,0.01,0.473,0.033c0.158,0.024,0.3,0.072,0.425,0.144c0.126,0.069,0.229,0.167,0.307,0.291
	c0.08,0.122,0.118,0.284,0.118,0.484c0,0.313-0.1,0.566-0.298,0.752c-0.199,0.187-0.499,0.279-0.898,0.279h-1.63V98.832z
	 M21.266,99.561c-0.088,0.279-0.219,0.521-0.389,0.728c-0.171,0.205-0.378,0.365-0.623,0.479c-0.244,0.117-0.518,0.175-0.822,0.175
	c-0.31,0-0.586-0.058-0.827-0.175c-0.242-0.114-0.448-0.274-0.618-0.479c-0.171-0.206-0.301-0.448-0.391-0.728
	c-0.089-0.281-0.133-0.588-0.133-0.919c0-0.332,0.044-0.638,0.133-0.917c0.09-0.281,0.22-0.524,0.391-0.728
	c0.169-0.206,0.376-0.368,0.618-0.482c0.241-0.114,0.517-0.172,0.827-0.172c0.305,0,0.579,0.058,0.822,0.172
	c0.245,0.114,0.452,0.276,0.623,0.482c0.17,0.203,0.301,0.446,0.389,0.728c0.091,0.279,0.135,0.585,0.135,0.917
	C21.4,98.973,21.356,99.279,21.266,99.561 M22.128,97.995c-0.039-0.225-0.102-0.449-0.187-0.669c-0.087-0.22-0.201-0.43-0.341-0.631
	c-0.138-0.198-0.31-0.376-0.515-0.531c-0.204-0.155-0.444-0.277-0.716-0.365c-0.274-0.091-0.587-0.134-0.938-0.134
	c-0.352,0-0.665,0.043-0.937,0.134c-0.274,0.088-0.512,0.21-0.717,0.365s-0.377,0.333-0.516,0.531
	c-0.139,0.201-0.251,0.411-0.339,0.631c-0.087,0.22-0.15,0.444-0.19,0.669c-0.039,0.227-0.058,0.44-0.058,0.646
	c0,0.205,0.019,0.42,0.058,0.646c0.04,0.224,0.103,0.448,0.19,0.669c0.087,0.222,0.2,0.432,0.339,0.63
	c0.139,0.199,0.311,0.376,0.516,0.532c0.205,0.154,0.443,0.276,0.717,0.367c0.272,0.088,0.584,0.131,0.937,0.131
	c0.351,0,0.664-0.043,0.938-0.131c0.272-0.091,0.512-0.213,0.716-0.367c0.205-0.156,0.377-0.333,0.515-0.532
	c0.14-0.198,0.253-0.408,0.341-0.63c0.084-0.221,0.147-0.445,0.187-0.669c0.041-0.227,0.06-0.441,0.06-0.646
	C22.188,98.436,22.168,98.222,22.128,97.995 M11.319,101.469h2.26c0.462,0,0.849-0.09,1.158-0.276
	c0.31-0.184,0.558-0.415,0.745-0.699c0.186-0.284,0.317-0.597,0.394-0.942c0.076-0.344,0.114-0.673,0.114-0.988
	c0-0.411-0.055-0.783-0.166-1.119c-0.111-0.334-0.269-0.623-0.472-0.866c-0.206-0.239-0.455-0.428-0.749-0.563
	c-0.293-0.132-0.625-0.2-0.993-0.2h-2.292V101.469z M12.083,96.468h1.426c0.519,0,0.931,0.178,1.236,0.536
	c0.304,0.358,0.456,0.893,0.456,1.606c0,0.719-0.147,1.267-0.445,1.642c-0.296,0.375-0.693,0.563-1.192,0.563h-1.48V96.468z"/>
<path fill="#B1B3B4" d="M68.797,92.265v-4.119h-0.694v2.267c0,0.152-0.019,0.311-0.056,0.47c-0.036,0.16-0.098,0.306-0.185,0.442
	c-0.087,0.131-0.202,0.243-0.347,0.329s-0.326,0.131-0.548,0.131c-0.109,0-0.214-0.017-0.31-0.048
	c-0.099-0.033-0.183-0.083-0.253-0.154c-0.071-0.072-0.127-0.163-0.169-0.28c-0.043-0.114-0.063-0.258-0.063-0.425v-2.731h-0.693
	v2.958c0,0.249,0.041,0.454,0.122,0.616s0.187,0.293,0.32,0.395c0.129,0.1,0.275,0.169,0.432,0.207
	c0.157,0.04,0.313,0.062,0.465,0.062c0.331,0,0.595-0.063,0.791-0.186c0.198-0.124,0.369-0.306,0.518-0.549l0.016,0.017v0.6H68.797z
	 M64.417,86.608h-0.692v5.656h0.692V86.608z M62.668,92.265v-4.119h-0.692v2.267c0,0.152-0.019,0.311-0.055,0.47
	c-0.038,0.16-0.1,0.306-0.186,0.442c-0.088,0.131-0.202,0.243-0.347,0.329c-0.146,0.086-0.328,0.131-0.547,0.131
	c-0.111,0-0.216-0.017-0.312-0.048c-0.099-0.033-0.182-0.083-0.253-0.154c-0.069-0.072-0.127-0.163-0.169-0.28
	c-0.041-0.114-0.063-0.258-0.063-0.425v-2.731h-0.694v2.958c0,0.249,0.043,0.454,0.122,0.616c0.083,0.162,0.188,0.293,0.319,0.395
	c0.132,0.1,0.276,0.169,0.434,0.207c0.158,0.04,0.312,0.062,0.465,0.062c0.33,0,0.595-0.063,0.792-0.186
	c0.195-0.124,0.368-0.306,0.516-0.549l0.015,0.017v0.6H62.668z M58.651,88.72v-0.574h-0.662v-1.151h-0.693v1.151h-0.56v0.574h0.56
	v2.717c0,0.126,0.013,0.242,0.035,0.35c0.023,0.108,0.066,0.201,0.127,0.28c0.062,0.078,0.144,0.141,0.252,0.186
	s0.248,0.067,0.421,0.067c0.036,0,0.102-0.008,0.193-0.02c0.091-0.014,0.2-0.026,0.327-0.035V91.72h-0.245
	c-0.036,0-0.078,0-0.124-0.005c-0.049-0.002-0.095-0.015-0.139-0.033c-0.046-0.021-0.082-0.055-0.11-0.1
	c-0.029-0.044-0.044-0.105-0.044-0.185V88.72H58.651z M56.1,88.146h-0.694v4.119H56.1V88.146z M56.1,86.608h-0.694v0.789H56.1
	V86.608z M54.713,88.72v-0.574h-0.66v-1.151h-0.695v1.151H52.8v0.574h0.558v2.717c0,0.126,0.013,0.242,0.036,0.35
	c0.024,0.108,0.066,0.201,0.126,0.28c0.06,0.078,0.145,0.141,0.253,0.186c0.107,0.045,0.248,0.067,0.421,0.067
	c0.036,0,0.1-0.008,0.193-0.02c0.092-0.014,0.2-0.026,0.326-0.035V91.72h-0.244c-0.037,0-0.078,0-0.127-0.005
	c-0.047-0.002-0.091-0.015-0.137-0.033c-0.044-0.021-0.081-0.055-0.111-0.1c-0.028-0.044-0.041-0.105-0.041-0.185V88.72H54.713z
	 M49.971,88.146h-0.691v4.119h0.691V88.146z M49.971,86.608h-0.691v0.789h0.691V86.608z M48.223,86.608h-0.693v5.656h0.693V86.608z
	 M45.938,90.973c-0.004,0.076-0.032,0.162-0.082,0.256c-0.05,0.093-0.121,0.179-0.213,0.263c-0.091,0.086-0.202,0.154-0.331,0.209
	s-0.273,0.084-0.437,0.084c-0.398,0-0.698-0.119-0.898-0.355c-0.199-0.236-0.299-0.57-0.299-1h3.009c0-0.362-0.038-0.691-0.11-0.988
	c-0.074-0.299-0.184-0.552-0.331-0.761c-0.146-0.211-0.33-0.37-0.552-0.484c-0.22-0.112-0.479-0.17-0.779-0.17
	c-0.342,0-0.636,0.06-0.885,0.177c-0.25,0.119-0.455,0.281-0.615,0.488c-0.16,0.208-0.28,0.451-0.357,0.729
	c-0.08,0.279-0.12,0.58-0.12,0.9c0,0.298,0.042,0.572,0.127,0.825c0.084,0.253,0.205,0.47,0.362,0.654
	c0.157,0.184,0.351,0.326,0.578,0.43c0.229,0.103,0.487,0.154,0.775,0.154c0.164,0,0.305-0.011,0.426-0.028
	c0.121-0.019,0.225-0.04,0.312-0.066s0.16-0.058,0.221-0.091c0.061-0.036,0.114-0.067,0.161-0.099
	c0.131-0.086,0.241-0.183,0.331-0.293c0.089-0.109,0.163-0.218,0.22-0.324c0.058-0.107,0.103-0.208,0.131-0.301
	c0.029-0.091,0.046-0.16,0.052-0.208H45.938z M43.679,89.878c0-0.158,0.03-0.313,0.091-0.461c0.06-0.15,0.141-0.281,0.243-0.394
	c0.104-0.115,0.225-0.203,0.362-0.272c0.139-0.069,0.288-0.103,0.446-0.103c0.208,0,0.385,0.033,0.526,0.103
	c0.143,0.069,0.259,0.157,0.347,0.272c0.09,0.112,0.154,0.243,0.197,0.394c0.043,0.148,0.069,0.303,0.079,0.461H43.679z
	 M42.458,88.72v-0.574h-0.661v-1.151h-0.694v1.151h-0.559v0.574h0.559v2.717c0,0.126,0.012,0.242,0.035,0.35
	c0.024,0.108,0.066,0.201,0.126,0.28c0.063,0.078,0.146,0.141,0.253,0.186c0.108,0.045,0.248,0.067,0.422,0.067
	c0.036,0,0.101-0.008,0.19-0.02c0.094-0.014,0.202-0.026,0.329-0.035V91.72h-0.244c-0.037,0-0.078,0-0.126-0.005
	c-0.047-0.002-0.093-0.015-0.138-0.033c-0.045-0.021-0.081-0.055-0.11-0.1c-0.029-0.044-0.043-0.105-0.043-0.185V88.72H42.458z
	 M39.907,88.146h-0.694v4.119h0.694V88.146z M39.907,86.608h-0.694v0.789h0.694V86.608z M36.197,86.483h-0.622l0.78,1.11h0.715
	l0.779-1.11h-0.628l-0.512,0.73L36.197,86.483z M38.371,88.711v-0.565H35.18v0.574h2.292l-2.48,3v0.545h3.45v-0.575h-2.529
	L38.371,88.711z M33.423,89.868c0-0.146,0.025-0.287,0.075-0.42c0.05-0.135,0.12-0.253,0.212-0.354
	c0.092-0.103,0.203-0.184,0.332-0.241c0.127-0.057,0.273-0.086,0.437-0.086h0.259v-0.719c-0.025-0.01-0.053-0.016-0.078-0.019
	c-0.027-0.002-0.06-0.005-0.103-0.005c-0.262,0-0.487,0.073-0.673,0.222c-0.187,0.146-0.348,0.342-0.484,0.582h-0.016v-0.684h-0.654
	v4.119h0.692V89.868z M31.675,86.608h-0.692v2.118h-0.017c-0.042-0.057-0.094-0.126-0.158-0.208
	c-0.062-0.083-0.143-0.159-0.241-0.232c-0.096-0.072-0.212-0.137-0.345-0.188c-0.135-0.047-0.296-0.073-0.485-0.073
	c-0.272,0-0.516,0.053-0.728,0.157c-0.212,0.105-0.393,0.25-0.54,0.439c-0.148,0.184-0.259,0.403-0.334,0.654
	c-0.077,0.248-0.116,0.518-0.116,0.804c0,0.249,0.03,0.507,0.087,0.778c0.057,0.271,0.156,0.518,0.296,0.742
	c0.14,0.227,0.324,0.412,0.555,0.561c0.23,0.146,0.523,0.222,0.875,0.222c0.099,0,0.203-0.011,0.31-0.028
	c0.107-0.019,0.212-0.055,0.315-0.107c0.103-0.052,0.202-0.122,0.296-0.208c0.094-0.087,0.179-0.2,0.251-0.343h0.016v0.568h0.654
	V86.608z M28.761,89.728c0.016-0.18,0.062-0.347,0.139-0.509c0.075-0.16,0.188-0.294,0.338-0.406
	c0.15-0.109,0.358-0.164,0.627-0.164c0.252,0,0.45,0.06,0.597,0.177c0.148,0.118,0.259,0.267,0.335,0.446
	c0.077,0.179,0.124,0.37,0.147,0.57c0.02,0.203,0.029,0.386,0.029,0.556c0,0.272-0.037,0.499-0.113,0.678
	c-0.075,0.177-0.171,0.32-0.283,0.425c-0.115,0.105-0.235,0.179-0.368,0.22c-0.13,0.043-0.251,0.064-0.361,0.064
	c-0.19,0-0.353-0.043-0.492-0.124s-0.255-0.19-0.347-0.334c-0.092-0.141-0.16-0.311-0.204-0.504
	c-0.046-0.195-0.068-0.403-0.068-0.63C28.737,90.061,28.745,89.906,28.761,89.728 M24.492,90.973
	c-0.006,0.076-0.033,0.162-0.083,0.256c-0.05,0.093-0.121,0.179-0.212,0.263c-0.092,0.086-0.202,0.154-0.331,0.209
	s-0.274,0.084-0.437,0.084c-0.4,0-0.699-0.119-0.897-0.355c-0.201-0.236-0.3-0.57-0.3-1h3.008c0-0.362-0.037-0.691-0.109-0.988
	c-0.074-0.299-0.185-0.552-0.332-0.761c-0.146-0.211-0.33-0.37-0.551-0.484c-0.221-0.112-0.479-0.17-0.779-0.17
	c-0.342,0-0.637,0.06-0.885,0.177c-0.25,0.119-0.455,0.281-0.616,0.488c-0.16,0.208-0.279,0.451-0.358,0.729
	c-0.079,0.279-0.119,0.58-0.119,0.9c0,0.298,0.042,0.572,0.126,0.825c0.083,0.253,0.206,0.47,0.363,0.654
	c0.156,0.184,0.35,0.326,0.578,0.43c0.229,0.103,0.488,0.154,0.775,0.154c0.163,0,0.304-0.011,0.426-0.028
	c0.121-0.019,0.225-0.04,0.312-0.066c0.085-0.026,0.16-0.058,0.219-0.091c0.061-0.036,0.115-0.067,0.163-0.099
	c0.131-0.086,0.241-0.183,0.33-0.293c0.09-0.109,0.163-0.218,0.221-0.324c0.057-0.107,0.1-0.208,0.13-0.301
	c0.029-0.091,0.046-0.16,0.051-0.208H24.492z M22.232,89.878c0-0.158,0.03-0.313,0.09-0.461c0.061-0.15,0.142-0.281,0.244-0.394
	c0.103-0.115,0.224-0.203,0.362-0.272c0.14-0.069,0.289-0.103,0.445-0.103c0.21,0,0.386,0.033,0.527,0.103
	c0.142,0.069,0.259,0.157,0.347,0.272c0.09,0.112,0.155,0.243,0.197,0.394c0.042,0.148,0.068,0.303,0.081,0.461H22.232z
	 M15.127,92.265h0.693v-2.246c0-0.277,0.037-0.507,0.114-0.686c0.075-0.179,0.169-0.319,0.278-0.422
	c0.112-0.101,0.229-0.169,0.356-0.208c0.126-0.036,0.238-0.055,0.339-0.055c0.126,0,0.231,0.023,0.315,0.071s0.15,0.108,0.201,0.182
	c0.05,0.073,0.084,0.154,0.102,0.248c0.019,0.091,0.028,0.179,0.028,0.263v2.853h0.692v-2.514c0-0.136,0.025-0.271,0.072-0.406
	c0.047-0.133,0.113-0.25,0.198-0.353c0.082-0.104,0.184-0.187,0.303-0.249c0.117-0.063,0.251-0.095,0.396-0.095
	c0.295,0,0.495,0.088,0.603,0.263c0.107,0.176,0.161,0.405,0.161,0.689v2.664h0.694v-2.853c0-0.289-0.046-0.523-0.138-0.704
	c-0.091-0.182-0.204-0.322-0.334-0.422c-0.132-0.102-0.271-0.168-0.417-0.206c-0.147-0.036-0.276-0.055-0.385-0.055
	c-0.158,0-0.297,0.017-0.418,0.053c-0.122,0.033-0.229,0.081-0.323,0.138c-0.094,0.058-0.184,0.127-0.269,0.213
	c-0.082,0.084-0.167,0.172-0.252,0.267c-0.031-0.052-0.07-0.119-0.117-0.197c-0.048-0.079-0.113-0.152-0.198-0.22
	c-0.083-0.067-0.188-0.129-0.313-0.18c-0.128-0.047-0.282-0.073-0.465-0.073c-0.184,0-0.345,0.028-0.485,0.081
	s-0.259,0.114-0.358,0.186c-0.1,0.077-0.183,0.153-0.249,0.234c-0.065,0.081-0.117,0.148-0.154,0.2h-0.016v-0.581h-0.654V92.265z
	 M14.197,89.316c0-0.053-0.012-0.147-0.039-0.287c-0.025-0.138-0.092-0.283-0.197-0.434c-0.105-0.147-0.262-0.278-0.472-0.396
	c-0.21-0.115-0.499-0.175-0.866-0.175c-0.205,0-0.4,0.028-0.587,0.081c-0.185,0.053-0.352,0.131-0.495,0.239
	c-0.145,0.107-0.26,0.243-0.348,0.407c-0.086,0.167-0.13,0.362-0.13,0.59c0,0.281,0.087,0.501,0.26,0.656
	c0.174,0.155,0.405,0.27,0.693,0.341l0.804,0.198c0.294,0.074,0.504,0.15,0.629,0.229c0.127,0.078,0.19,0.2,0.19,0.362
	c0,0.114-0.027,0.213-0.08,0.294c-0.053,0.081-0.122,0.15-0.209,0.203c-0.085,0.052-0.185,0.091-0.298,0.117
	c-0.114,0.026-0.232,0.04-0.359,0.04c-0.248,0-0.44-0.03-0.583-0.088s-0.25-0.127-0.323-0.213c-0.073-0.083-0.122-0.177-0.145-0.276
	c-0.025-0.099-0.039-0.187-0.044-0.268h-0.67c0.006,0.086,0.015,0.179,0.027,0.281c0.013,0.104,0.04,0.208,0.079,0.315
	c0.041,0.107,0.1,0.21,0.178,0.31c0.079,0.102,0.183,0.192,0.31,0.273c0.129,0.081,0.289,0.146,0.481,0.192
	c0.192,0.045,0.423,0.071,0.697,0.071c0.232,0,0.447-0.032,0.646-0.095c0.201-0.064,0.371-0.153,0.515-0.271
	c0.146-0.114,0.259-0.255,0.344-0.425c0.085-0.166,0.125-0.357,0.125-0.572c0-0.279-0.085-0.504-0.255-0.676
	c-0.171-0.169-0.471-0.308-0.902-0.412l-0.693-0.175c-0.138-0.03-0.252-0.062-0.346-0.093c-0.096-0.031-0.171-0.067-0.228-0.107
	c-0.059-0.038-0.102-0.086-0.131-0.141c-0.027-0.055-0.043-0.125-0.043-0.211c0-0.123,0.033-0.227,0.098-0.305
	c0.067-0.079,0.144-0.139,0.233-0.177c0.09-0.04,0.179-0.066,0.271-0.081c0.092-0.013,0.164-0.019,0.216-0.019
	c0.222,0,0.395,0.023,0.521,0.07c0.125,0.048,0.222,0.105,0.29,0.178c0.069,0.07,0.115,0.146,0.135,0.229
	c0.021,0.081,0.032,0.152,0.032,0.215H14.197z M6.873,90.443v0.561c0,0.131,0.021,0.276,0.066,0.441
	c0.044,0.163,0.126,0.314,0.245,0.461c0.117,0.143,0.281,0.265,0.488,0.359c0.208,0.099,0.477,0.146,0.808,0.146
	c0.188,0,0.38-0.024,0.574-0.074s0.37-0.138,0.527-0.268c0.158-0.128,0.285-0.3,0.383-0.516c0.096-0.215,0.146-0.488,0.146-0.821
	v-4.125H9.346v4.174c0,0.139-0.016,0.265-0.044,0.386c-0.028,0.122-0.078,0.225-0.146,0.313c-0.069,0.086-0.16,0.152-0.276,0.203
	c-0.116,0.05-0.262,0.073-0.44,0.073c-0.267,0-0.477-0.066-0.627-0.203c-0.148-0.136-0.223-0.374-0.223-0.718v-0.394H6.873z"/>
<path fill="#B1B3B4" d="M69.458,54.163c0.224,0,0.397-0.076,0.528-0.224c0.13-0.149,0.193-0.387,0.193-0.714
	c0-0.524-0.076-0.9-0.228-1.124c-0.157-0.224-0.355-0.335-0.599-0.335c-0.222,0-0.398,0.089-0.532,0.267
	c-0.133,0.177-0.199,0.455-0.199,0.831c0,0.461,0.08,0.8,0.244,1.024C68.997,54.07,69.195,54.163,69.458,54.163 M62.805,62.727
	l-2.01,3.701c0.586,0.027,1.227,0.043,1.937,0.043c0.737,0,1.451-0.016,2.124-0.043L62.805,62.727z M65.968,56.29
	c0.157-0.287,0.234-0.845,0.234-1.679c0-1.014-0.073-1.77-0.221-2.261c-0.114-0.393-0.33-0.583-0.642-0.583
	c-0.253,0-0.451,0.125-0.587,0.382c-0.142,0.251-0.214,0.792-0.214,1.619c0,0.844,0.038,1.47,0.114,1.875
	c0.081,0.407,0.19,0.684,0.337,0.833c0.111,0.11,0.249,0.167,0.412,0.167C65.654,56.642,65.845,56.525,65.968,56.29 M61.892,56.29
	c0.157-0.287,0.235-0.845,0.235-1.679c0-1.014-0.075-1.77-0.223-2.261c-0.113-0.393-0.326-0.583-0.639-0.583
	c-0.252,0-0.448,0.125-0.591,0.382c-0.138,0.251-0.211,0.792-0.211,1.619c0,0.844,0.04,1.47,0.115,1.875
	c0.076,0.407,0.187,0.684,0.336,0.833c0.108,0.11,0.248,0.167,0.414,0.167C61.58,56.642,61.769,56.525,61.892,56.29 M41.774,5.777
	l-0.499,0.792c0.098,0.027,0.214,0.044,0.328,0.072c0.134,0.018,0.259,0.035,0.374,0.053L41.774,5.777z M21.78,37.91
	c0.205,0.03,0.454-0.059,0.73-0.249c0.198-0.131,0.349-0.273,0.444-0.435c0.098-0.152,0.142-0.292,0.142-0.427
	c0-0.124-0.053-0.274-0.15-0.417c-0.134-0.192-0.302-0.293-0.516-0.31c-0.213-0.018-0.461,0.071-0.739,0.256
	c-0.301,0.207-0.488,0.411-0.557,0.64c-0.055,0.197-0.011,0.402,0.131,0.614C21.399,37.779,21.574,37.894,21.78,37.91
	 M19.638,16.773c-0.115,0.214-0.124,0.418-0.042,0.613c0.08,0.187,0.273,0.364,0.567,0.516c0.215,0.107,0.418,0.17,0.595,0.177
	c0.188,0.011,0.331-0.016,0.455-0.086c0.114-0.063,0.214-0.18,0.291-0.339c0.108-0.206,0.116-0.4,0.029-0.595
	c-0.088-0.197-0.285-0.375-0.587-0.526c-0.319-0.167-0.604-0.221-0.845-0.167C19.906,16.4,19.756,16.543,19.638,16.773
	 M21.213,14.125c-0.045,0.063-0.109,0.159-0.205,0.301l0.845,0.633c0.364,0.265,0.605,0.435,0.746,0.523
	c0.063-0.072,0.125-0.143,0.188-0.223c0.151-0.205,0.232-0.373,0.249-0.524c0.018-0.151-0.009-0.303-0.097-0.471
	c-0.078-0.16-0.222-0.313-0.418-0.454c-0.249-0.177-0.488-0.258-0.719-0.221C21.596,13.717,21.399,13.867,21.213,14.125
	 M24.972,9.902c-0.187,0.161-0.283,0.338-0.276,0.552c0,0.204,0.107,0.435,0.321,0.691c0.151,0.188,0.31,0.322,0.478,0.402
	c0.163,0.079,0.311,0.113,0.447,0.096c0.132-0.017,0.266-0.079,0.408-0.204c0.168-0.143,0.257-0.32,0.249-0.532
	c0-0.214-0.114-0.454-0.328-0.721c-0.23-0.267-0.473-0.425-0.711-0.479C25.362,9.671,25.169,9.733,24.972,9.902 M34.714,5.404
	c-0.062,0.009-0.186,0.026-0.354,0.063l0.135,1.048c0.058,0.436,0.104,0.738,0.14,0.898c0.099,0,0.195-0.008,0.293-0.018
	c0.25-0.036,0.426-0.097,0.551-0.188c0.116-0.087,0.203-0.222,0.266-0.398c0.056-0.169,0.072-0.374,0.036-0.613
	c-0.043-0.312-0.16-0.536-0.337-0.676C35.285,5.396,35.035,5.36,34.714,5.404 M38.537,45.44c0.009-0.445,0.018-0.746,0.018-0.907
	c-0.097-0.018-0.195-0.035-0.294-0.035c-0.24-0.01-0.434,0.017-0.568,0.088c-0.133,0.062-0.241,0.18-0.329,0.338
	c-0.088,0.158-0.134,0.364-0.142,0.603c-0.018,0.313,0.054,0.551,0.212,0.72c0.143,0.152,0.372,0.232,0.684,0.251
	c0.073,0,0.188,0,0.367-0.01L38.537,45.44z M48.804,8.978c-0.136,0.195-0.223,0.381-0.257,0.561
	c-0.036,0.178-0.036,0.329,0.015,0.454c0.057,0.123,0.154,0.24,0.303,0.347c0.189,0.132,0.385,0.169,0.588,0.105
	c0.203-0.063,0.401-0.231,0.597-0.506c0.212-0.294,0.3-0.568,0.284-0.809c-0.011-0.194-0.124-0.374-0.337-0.525
	c-0.196-0.133-0.401-0.176-0.604-0.125C49.194,8.533,49.002,8.702,48.804,8.978 M39.63,51.718l-1.066,2.593
	c0.31,0.009,0.649,0.019,1.022,0.019c0.391,0,0.762-0.01,1.121-0.019L39.63,51.718z M24.376,53.583l-0.008,1.306l0.008,1.317v0.283
	c0.194,0.053,0.383,0.08,0.55,0.08c0.48,0,0.846-0.142,1.103-0.409c0.259-0.275,0.382-0.685,0.382-1.209
	c0-0.347-0.061-0.632-0.177-0.853c-0.114-0.223-0.275-0.382-0.481-0.491c-0.193-0.114-0.488-0.167-0.86-0.167l-0.517,0.009V53.583z
	 M24.395,50.551c-0.018,1.031-0.035,1.671-0.035,1.903l0.008,0.453h0.269c0.567,0,0.967-0.106,1.188-0.312
	c0.233-0.204,0.348-0.524,0.348-0.959c0-0.382-0.089-0.666-0.278-0.855c-0.185-0.175-0.498-0.266-0.922-0.266
	C24.812,50.515,24.625,50.524,24.395,50.551 M15.604,51.154c-0.402,0.481-0.596,1.228-0.596,2.223c0,0.721,0.107,1.335,0.329,1.832
	c0.213,0.498,0.498,0.853,0.835,1.077c0.339,0.223,0.772,0.329,1.315,0.329c0.674,0,1.217-0.25,1.62-0.747
	c0.398-0.499,0.604-1.255,0.604-2.277c0-1.067-0.232-1.894-0.694-2.462c-0.373-0.462-0.952-0.693-1.724-0.693
	C16.563,50.436,16.003,50.676,15.604,51.154 M7.203,50.587l-0.036,3.146c0,1.326,0.011,2.231,0.036,2.711
	c0.285,0.045,0.579,0.072,0.873,0.072c0.744,0,1.322-0.107,1.715-0.321c0.392-0.215,0.71-0.568,0.959-1.057
	c0.24-0.489,0.366-1.094,0.366-1.805c0-0.942-0.242-1.652-0.73-2.142c-0.427-0.435-1.128-0.658-2.099-0.658
	C8.083,50.533,7.719,50.551,7.203,50.587 M73.034,46.23H58.739l0.037-0.044l-0.779-0.194c-1.202-0.293-2.385-0.613-3.292-0.89
	c0.634-0.017,1.439-0.054,2.296-0.091c0.407-0.016,0.813-0.025,1.218-0.032c0.389,0,0.788,0,1.172,0.017h0.018l0.257,0.01
	l0.16-0.214c0.367-0.516,0.712-1.041,1.031-1.556c0.072-0.125,0.134-0.223,0.188-0.313c0.087-0.158,0.149-0.257,0.181-0.3
	l0.353-0.595l-0.694-0.133c-1.722-0.349-3.751-0.864-5.082-1.264c0.024-0.008,0.052-0.008,0.079-0.008
	c1.565-0.196,3.936-0.302,5.599-0.097c0.035,0.008,0.099,0.018,0.196,0.026c0.016,0,0.089,0.01,0.203,0.028l0.375,0.061l0.15-0.345
	c0.286-0.632,0.536-1.272,0.747-1.894c0.037-0.099,0.069-0.222,0.124-0.364c0.036-0.108,0.072-0.232,0.116-0.366l0.196-0.623
	l-0.647-0.016c-0.021-0.01-0.047-0.01-0.092-0.01h-0.09c-1.348-0.063-3.375-0.339-5.113-0.64c0.13-0.24,0.255-0.484,0.376-0.729
	c1.152-0.142,2.375-0.226,3.369-0.187c0.518,0.028,1.014,0.072,1.487,0.126c0.156,0.018,0.247,0.025,0.28,0.037
	c0.046,0.008,0.135,0.017,0.277,0.034l0.473,0.072l0.09-0.462c0.167-0.881,0.274-1.736,0.336-2.561
	c0.008-0.152,0.016-0.311,0.026-0.488c0.009-0.151,0.009-0.313,0.019-0.49v-0.009l0.008-0.569l-0.57,0.071
	c-0.14,0.019-0.302,0.037-0.462,0.054c-0.062,0.008-0.089,0.008-0.099,0.008c-0.052,0.008-0.098,0.008-0.098,0.008
	c-0.931,0.092-2.234,0.103-3.549,0.072c0.098-0.376,0.185-0.756,0.263-1.14c0.565-0.124,1.112-0.22,1.607-0.265
	c0.56-0.052,1.122-0.089,1.679-0.098h0.314h0.31l0.009,0.009l0.551,0.01l-0.055-0.552c-0.122-1.297-0.373-2.505-0.719-3.626
	c-0.068-0.223-0.141-0.436-0.214-0.64c-0.071-0.194-0.15-0.4-0.238-0.621h-0.01l-0.176-0.445l-0.445,0.167
	c-0.1,0.037-0.188,0.072-0.259,0.099c-0.126,0.044-0.214,0.081-0.265,0.098c-0.472,0.166-1.047,0.335-1.674,0.505
	c-0.022-0.503-0.061-1.002-0.116-1.497c0.889-0.345,1.841-0.871,2.614-1.301c0.594-0.328,1.086-0.595,1.271-0.65h0.019l0.025-0.008
	c0.118-0.045,0.248-0.123,0.383-0.249c0.481-0.435,1.397-1.644,2.108-2.942c0.736-1.352,1.261-2.826,0.943-3.768
	c-0.072-0.179-0.161-0.347-0.285-0.489c-0.907-1.005-4.399,0.106-7.985,1.244c-0.474,0.151-0.948,0.304-1.416,0.45
	C54.138,8.448,46.613,3.494,37.976,3.494c-12.3,0-22.327,10.034-22.327,22.338c0,9.07,5.458,16.911,13.262,20.398H3.043V1.743
	h69.991V46.23z M5.728,53.183c0-0.703-0.009-1.291-0.018-1.761c-0.019-0.479-0.043-0.746-0.071-0.816
	c-0.017-0.028-0.035-0.055-0.069-0.073c-0.046-0.026-0.293-0.069-0.74-0.124V49.98c0.505,0.02,1.092,0.03,1.75,0.03l2.491-0.03
	c0.907,0,1.591,0.117,2.063,0.348c0.461,0.223,0.835,0.577,1.11,1.051c0.276,0.47,0.417,1.041,0.417,1.714
	c0,0.862-0.212,1.609-0.646,2.231c-0.428,0.632-0.951,1.078-1.574,1.342c-0.613,0.259-1.28,0.392-1.982,0.392l-1.912-0.026
	c-0.302,0-0.765,0.009-1.378,0.035v-0.26c0.231-0.132,0.393-0.238,0.49-0.299C5.702,55.913,5.728,54.81,5.728,53.183 M4.405,60.266
	c1.108,0.026,2.071,0.037,2.88,0.037c1.173,0,2.4-0.011,3.688-0.037c0.845-0.016,1.564-0.024,2.143-0.024
	c0.417,0,0.807,0.008,1.179,0.024l0.1,0.151c-0.135,0.613-0.213,1.334-0.25,2.16h-0.798l-0.083-0.771
	c-0.018-0.25-0.061-0.4-0.123-0.456c-0.073-0.053-0.303-0.104-0.711-0.169c-0.411-0.051-0.987-0.088-1.734-0.088
	c-0.55,0-1.148,0.025-1.76,0.063c-0.07,0.817-0.106,1.396-0.106,1.731l0.017,1.548l-0.008,0.328
	c0.383,0.012,0.845,0.021,1.386,0.021c0.979,0,1.565-0.021,1.76-0.055c0.098-0.016,0.176-0.063,0.222-0.116
	c0.073-0.097,0.126-0.4,0.169-0.898h0.828c-0.029,0.42-0.037,0.836-0.037,1.264c0,0.392,0.008,1.015,0.037,1.876h-0.828
	c-0.043-0.623-0.106-0.985-0.178-1.094c-0.044-0.063-0.123-0.097-0.24-0.126c-0.3-0.063-0.933-0.088-1.866-0.088l-1.253,0.009
	l0.036,2.773c0.026,0.669,0.072,1.049,0.132,1.156c0.056,0.071,0.117,0.114,0.206,0.149c0.133,0.055,0.657,0.101,1.599,0.136v0.602
	c-1.021-0.033-1.981-0.052-2.869-0.052c-0.792,0-1.975,0.019-3.538,0.052V69.77c0.808-0.011,1.278-0.056,1.412-0.136
	c0.105-0.063,0.162-0.229,0.177-0.516c0.084-0.939,0.117-2.017,0.117-3.242c0-0.905-0.018-1.884-0.044-2.926
	c-0.027-1.037-0.088-1.634-0.158-1.795c-0.045-0.07-0.1-0.125-0.171-0.152c-0.106-0.052-0.549-0.095-1.332-0.133V60.266z
	 M14.448,56.215c-0.66-0.64-0.995-1.523-0.995-2.632c0-0.782,0.168-1.448,0.489-1.99c0.312-0.551,0.756-0.971,1.322-1.264
	c0.571-0.292,1.299-0.436,2.188-0.436c0.864,0,1.557,0.144,2.107,0.419c0.542,0.285,0.961,0.675,1.253,1.173
	c0.293,0.496,0.445,1.11,0.445,1.839c0,0.782-0.16,1.466-0.487,2.036c-0.323,0.578-0.776,1.023-1.362,1.333
	c-0.588,0.32-1.29,0.474-2.116,0.474C16.057,57.166,15.105,56.844,14.448,56.215 M15.274,60.259
	c1.316,0.043,2.322,0.061,3.014,0.061c1.199,0,2.285-0.018,3.254-0.061v0.602c-0.871,0.046-1.359,0.09-1.468,0.161
	c-0.115,0.063-0.188,0.213-0.222,0.443c-0.054,0.465-0.081,1.404-0.081,2.811c0,1.875,0.009,3.182,0.026,3.919
	c0.018,0.737,0.08,1.173,0.17,1.316c0.043,0.06,0.124,0.105,0.249,0.145c0.124,0.032,0.559,0.078,1.325,0.113v0.602l-1.129-0.014
	c-0.721-0.027-1.354-0.038-1.913-0.038l-3.227,0.052V69.77c0.882-0.035,1.379-0.089,1.495-0.171
	c0.115-0.069,0.187-0.265,0.214-0.567c0.044-0.63,0.061-1.815,0.061-3.546c0-0.657-0.01-1.625-0.035-2.882
	c-0.021-0.859-0.035-1.332-0.08-1.411c-0.037-0.091-0.099-0.152-0.197-0.189c-0.142-0.052-0.628-0.095-1.458-0.142V60.259z
	 M22.012,49.991l0.97,0.019l0.736,0.018c0.231,0,0.561-0.01,1.006-0.028c0.426-0.02,0.73-0.025,0.915-0.025
	c0.747,0,1.279,0.123,1.611,0.374c0.317,0.248,0.477,0.595,0.477,1.031c0,0.444-0.16,0.807-0.477,1.091
	c-0.323,0.285-0.768,0.48-1.355,0.605v0.045c0.605,0.054,1.023,0.15,1.264,0.265c0.24,0.125,0.437,0.312,0.587,0.569
	c0.14,0.25,0.222,0.542,0.222,0.873c0,0.399-0.124,0.779-0.365,1.136c-0.25,0.355-0.568,0.624-0.969,0.818
	c-0.408,0.188-0.968,0.275-1.697,0.275c-0.153,0-0.367,0-0.659-0.008c-0.267-0.009-0.488-0.018-0.657-0.018
	c-0.194,0-0.588,0.009-1.184,0.035v-0.24c0.188-0.114,0.34-0.212,0.437-0.311c0.044-0.461,0.062-1.494,0.062-3.077
	c0-1.155-0.018-1.964-0.053-2.443c-0.017-0.259-0.054-0.409-0.105-0.453c-0.071-0.073-0.331-0.108-0.767-0.135V49.991z M22.9,60.259
	c1.316,0.043,2.169,0.061,2.554,0.061l4.792-0.071c1.038,0,1.793,0.08,2.273,0.229c0.472,0.153,0.846,0.391,1.118,0.73
	c0.287,0.329,0.42,0.728,0.42,1.175c0,0.577-0.223,1.082-0.666,1.518c-0.437,0.436-1.21,0.827-2.304,1.157l2.037,2.319l1.583,1.769
	c0.302,0.294,0.525,0.461,0.675,0.524c0.141,0.063,0.381,0.088,0.721,0.099v0.55l-0.57,0.011c-1.617,0.008-2.659,0.027-3.129,0.041
	c-0.55-0.663-1.387-1.632-2.489-2.903l-1.962-2.259c0.053-0.081,0.106-0.171,0.141-0.259c0.258,0.027,0.445,0.037,0.571,0.037
	c0.586,0,1.173-0.179,1.741-0.544c0.576-0.355,0.861-0.871,0.861-1.536c0-0.586-0.222-1.039-0.676-1.361
	c-0.452-0.32-1.127-0.479-2.045-0.479c-0.284,0-0.674,0.018-1.165,0.051l-0.061,2.127l-0.091,2.694c0,0.611,0.037,1.395,0.1,2.344
	c0.052,0.714,0.097,1.115,0.151,1.201c0.034,0.062,0.104,0.114,0.212,0.149c0.133,0.064,0.569,0.109,1.298,0.136v0.602
	c-1.146-0.033-2.159-0.052-3.049-0.052c-0.941,0-1.955,0.019-3.041,0.052V69.77c0.739-0.056,1.157-0.099,1.272-0.136
	c0.072-0.035,0.125-0.078,0.149-0.141c0.065-0.116,0.108-0.506,0.136-1.165c0.036-1.03,0.043-1.84,0.043-2.437
	c0-0.79-0.007-1.804-0.034-3.038c-0.026-0.917-0.09-1.476-0.178-1.689c-0.027-0.063-0.08-0.107-0.15-0.142
	c-0.109-0.045-0.516-0.099-1.238-0.161V60.259z M36.137,46.577c-0.266-0.045-0.471-0.078-0.623-0.105l-0.924-0.117
	c-0.095-0.016-0.188-0.025-0.258-0.043l-0.008-0.028c0.045-0.116,0.079-0.274,0.124-0.47l0.124,0.017
	c-0.019,0.162-0.019,0.25-0.019,0.26c0.01,0.016,0.037,0.025,0.073,0.045c0.098,0.033,0.23,0.061,0.426,0.086
	c0.088,0.018,0.205,0.027,0.332,0.037c0.06-0.338,0.105-0.614,0.139-0.818c-0.123-0.027-0.229-0.045-0.336-0.062
	c-0.151-0.019-0.25-0.027-0.284-0.019c-0.019,0-0.037,0.019-0.045,0.035c-0.009,0.028-0.026,0.088-0.052,0.213l-0.142-0.025
	c0.036-0.188,0.052-0.304,0.062-0.363l0.043-0.374l0.144,0.016c-0.017,0.151-0.017,0.233-0.008,0.259
	c0.008,0.016,0.017,0.027,0.043,0.036c0.054,0.018,0.178,0.044,0.375,0.071c0.064,0.009,0.132,0.02,0.211,0.02
	c0.02-0.054,0.029-0.117,0.038-0.179c0.043-0.32,0.07-0.569,0.08-0.739l-0.33-0.052c-0.187-0.028-0.364-0.036-0.515-0.045
	c-0.045,0.097-0.09,0.214-0.133,0.337l-0.143-0.016c0.055-0.196,0.098-0.375,0.124-0.56c0.106,0.007,0.204,0.018,0.303,0.025
	c0.061,0.009,0.177,0.027,0.355,0.06c0.168,0.03,0.328,0.045,0.462,0.075c0.186,0.025,0.392,0.043,0.597,0.07l-0.021,0.088
	c-0.062,0.018-0.114,0.036-0.168,0.073c-0.055,0.169-0.115,0.531-0.185,1.094c-0.054,0.372-0.089,0.629-0.099,0.753
	c-0.01,0.063,0,0.108,0.017,0.125c0.018,0.029,0.099,0.045,0.24,0.083L36.137,46.577z M36.332,56.602
	c0.311-0.014,0.508-0.042,0.58-0.093c0.052-0.029,0.133-0.161,0.239-0.384c0.204-0.435,0.47-1.039,0.792-1.814l1.777-4.382h0.738
	l2.285,5.422c0.29,0.704,0.469,1.084,0.54,1.158c0.07,0.061,0.285,0.114,0.639,0.13v0.428c-0.547-0.026-1.063-0.035-1.552-0.035
	c-0.582,0-1.142,0.009-1.663,0.035v-0.428c0.408-0.016,0.638-0.037,0.693-0.063c0.062-0.034,0.099-0.079,0.099-0.159
	c0-0.063-0.073-0.284-0.218-0.647l-0.327-0.863c-0.418-0.01-0.888-0.019-1.395-0.019c-0.453,0-0.862,0.009-1.229,0.019l-0.22,0.576
	c-0.063,0.151-0.124,0.392-0.214,0.702c-0.017,0.074-0.026,0.134-0.026,0.197c0,0.072,0.026,0.134,0.096,0.16
	c0.064,0.034,0.293,0.072,0.702,0.097v0.428c-0.338-0.026-0.737-0.035-1.226-0.035c-0.462,0-0.834,0.009-1.112,0.035V56.602z
	 M36.953,60.259c0.776,0.016,1.521,0.027,2.26,0.027c0.863,0,1.69-0.011,2.489-0.027c0.345,0.611,0.701,1.217,1.076,1.814
	c0.255,0.435,1.41,2.248,3.467,5.446c2.165-3.288,3.689-5.706,4.549-7.26c0.767,0.027,1.494,0.033,2.187,0.033
	c0.81,0,1.59-0.005,2.337-0.033v0.602c-0.834,0.046-1.306,0.099-1.409,0.169c-0.108,0.071-0.181,0.294-0.218,0.669
	c-0.041,0.603-0.066,1.749-0.066,3.447c0,0.853,0.005,1.762,0.03,2.712c0.031,0.951,0.073,1.491,0.136,1.617
	c0.045,0.07,0.107,0.123,0.186,0.158c0.089,0.047,0.535,0.09,1.342,0.144v0.604c-1.03-0.034-1.952-0.062-2.762-0.062
	c-0.817,0-1.921,0.027-3.327,0.062v-0.604l0.562-0.019c0.455-0.008,0.73-0.061,0.836-0.142c0.114-0.078,0.186-0.283,0.214-0.62
	c0.037-0.339,0.053-1.139,0.053-2.401V62.24c-0.988,1.483-2.238,3.433-3.762,5.84c-0.622,0.987-1.107,1.797-1.468,2.428h-0.646
	c-0.474-0.827-1.121-1.876-1.923-3.139L39.79,62.24v0.978c0,2.713,0.018,4.585,0.055,5.607c0.018,0.41,0.096,0.668,0.222,0.767
	c0.132,0.089,0.603,0.159,1.42,0.186v0.604c-0.646-0.034-1.294-0.062-1.944-0.062c-0.97,0-1.824,0.027-2.589,0.062v-0.604
	l0.581-0.026c0.461-0.027,0.745-0.091,0.86-0.185c0.124-0.101,0.187-0.448,0.205-1.025c0.044-1.188,0.07-2.471,0.07-3.856
	c0-0.737-0.009-1.572-0.016-2.506c-0.019-0.571-0.063-0.919-0.135-1.041c-0.044-0.062-0.106-0.107-0.215-0.15
	c-0.096-0.037-0.542-0.08-1.351-0.126V60.259z M53.374,11.716c0.327,0.037,0.638,0.221,0.923,0.551
	c0.1,0.106,0.178,0.229,0.259,0.354c0.069,0.125,0.13,0.249,0.185,0.391l-0.007,0.028c-0.063,0.025-0.116,0.054-0.171,0.088
	c-0.078,0.053-0.176,0.126-0.29,0.213l-0.09-0.106c0.126-0.125,0.193-0.195,0.204-0.213c0.01-0.019,0.01-0.052,0.01-0.125
	c-0.01-0.071-0.026-0.152-0.073-0.24c-0.045-0.09-0.096-0.179-0.178-0.258c-0.174-0.205-0.381-0.312-0.604-0.32
	c-0.229-0.017-0.461,0.08-0.683,0.274c-0.24,0.205-0.374,0.455-0.4,0.729c-0.027,0.249,0.062,0.499,0.265,0.729
	c0.082,0.09,0.162,0.168,0.25,0.231c0.087,0.062,0.195,0.116,0.319,0.169v0.062c-0.061,0.008-0.124,0.028-0.177,0.054
	c-0.143-0.054-0.257-0.115-0.356-0.186c-0.104-0.081-0.203-0.17-0.312-0.293c-0.194-0.223-0.321-0.445-0.374-0.668
	c-0.052-0.222-0.041-0.435,0.021-0.639c0.067-0.203,0.202-0.392,0.379-0.543C52.742,11.767,53.032,11.671,53.374,11.716
	 M52.038,9.787l0.543-0.026c0.135-0.009,0.215-0.009,0.248,0c0.037,0.009,0.074,0.026,0.101,0.044
	c0.024,0.024,0.043,0.063,0.051,0.097c0,0.036-0.008,0.072-0.037,0.099c-0.024,0.025-0.051,0.043-0.077,0.043
	c-0.037,0.011-0.116-0.007-0.241-0.035l-0.463-0.107L52.038,9.787z M48.858,8.276c0.185-0.09,0.391-0.116,0.602-0.09
	c0.216,0.028,0.438,0.133,0.686,0.301c0.229,0.163,0.399,0.339,0.499,0.517c0.089,0.188,0.134,0.375,0.114,0.569
	c-0.017,0.188-0.089,0.381-0.229,0.588c-0.156,0.213-0.331,0.373-0.527,0.462c-0.194,0.098-0.408,0.133-0.629,0.107
	c-0.224-0.029-0.444-0.117-0.668-0.276c-0.336-0.241-0.543-0.507-0.595-0.81c-0.063-0.302,0.016-0.604,0.231-0.915
	C48.492,8.516,48.659,8.366,48.858,8.276 M42.432,46.01c0-0.036-0.036-0.214-0.1-0.542l-0.159-0.811
	c-0.037-0.149-0.073-0.318-0.127-0.515c-0.139,0.018-0.258,0.036-0.319,0.054c-0.213,0.045-0.382,0.099-0.515,0.161
	c-0.008,0.106-0.008,0.23-0.008,0.374l-0.151,0.036c-0.01-0.162-0.025-0.366-0.052-0.607c0.095-0.037,0.193-0.062,0.28-0.082
	l0.596-0.122l0.27-0.053c0.124-0.029,0.301-0.063,0.533-0.125l0.017,0.087c-0.053,0.043-0.106,0.09-0.149,0.133
	c0.043,0.303,0.106,0.614,0.178,0.942c0.055,0.251,0.107,0.491,0.158,0.721c0.037,0.16,0.063,0.247,0.081,0.269
	c0.009,0.016,0.017,0.024,0.044,0.024c0.021,0,0.097,0,0.241-0.018l0.034,0.136c-0.215,0.042-0.417,0.081-0.596,0.115
	c-0.177,0.043-0.346,0.079-0.496,0.116l-0.028-0.135c0.144-0.044,0.232-0.078,0.248-0.096C42.421,46.061,42.432,46.035,42.432,46.01
	 M40.161,46.329c-0.005-0.108-0.025-0.329-0.067-0.649c-0.055-0.434-0.091-0.747-0.117-0.913c-0.026-0.171-0.044-0.268-0.062-0.304
	c-0.008-0.011-0.027-0.017-0.053-0.025c-0.018-0.011-0.098-0.011-0.234,0l-0.015-0.143l0.194-0.018
	c0.125-0.011,0.24-0.018,0.34-0.036l0.558-0.081l0.017,0.143c-0.149,0.026-0.238,0.054-0.257,0.07
	c-0.018,0.02-0.018,0.065-0.018,0.136c0.011,0.149,0.047,0.425,0.089,0.827c0.018,0.16,0.055,0.382,0.092,0.675
	c0.025,0.193,0.041,0.302,0.052,0.319c0.01,0.025,0.025,0.036,0.042,0.045c0.03,0.01,0.109,0.01,0.259,0l0.021,0.141
	c-0.233,0.017-0.41,0.038-0.536,0.047c-0.204,0.026-0.398,0.052-0.567,0.085l-0.018-0.142c0.15-0.025,0.241-0.053,0.256-0.068
	C40.156,46.417,40.161,46.384,40.161,46.329 M38.99,46.23c0,0.161,0.009,0.25,0.019,0.269c0,0.016,0.008,0.027,0.017,0.027
	c0.019,0.006,0.099,0.027,0.25,0.051l-0.009,0.143c-0.169-0.008-0.363-0.027-0.577-0.027l-0.827-0.025
	c-0.303-0.011-0.536-0.054-0.685-0.136c-0.153-0.087-0.276-0.203-0.366-0.364c-0.08-0.158-0.124-0.354-0.116-0.578
	c0.01-0.292,0.088-0.54,0.241-0.744c0.15-0.205,0.338-0.347,0.543-0.427c0.212-0.081,0.434-0.117,0.658-0.108l0.638,0.028
	c0.105,0.008,0.26,0.008,0.462,0.008v0.091c-0.077,0.034-0.131,0.07-0.168,0.088c-0.026,0.205-0.045,0.569-0.062,1.112
	C38.999,45.875,38.99,46.072,38.99,46.23 M31.346,43.174c-0.204-0.099-0.401-0.196-0.579-0.275c-0.185-0.08-0.339-0.143-0.453-0.168
	c-0.036-0.01-0.062-0.01-0.07,0c-0.026,0.006-0.08,0.08-0.179,0.206l-0.052,0.069l-0.125-0.063c0.09-0.131,0.188-0.31,0.292-0.523
	c0.064,0.027,0.126,0.053,0.188,0.08l1.155,0.533c0.079,0.036,0.259,0.105,0.517,0.221l-0.055,0.117
	c-0.532,0.282-1.244,0.702-2.124,1.252l0.383,0.177c0.204,0.089,0.364,0.161,0.48,0.197c0.051,0.017,0.081,0.026,0.098,0.017
	c0.017-0.007,0.062-0.062,0.116-0.151l0.061-0.095l0.133,0.052c-0.034,0.069-0.08,0.16-0.124,0.256l-0.044,0.098
	c-0.026,0.036-0.044,0.09-0.062,0.141l-0.026,0.011c-0.214-0.106-0.402-0.206-0.578-0.276c-0.65-0.294-1.024-0.455-1.128-0.498
	l0.053-0.115C29.958,44.026,30.67,43.601,31.346,43.174 M33.577,43.92c0-0.017-0.008-0.035-0.026-0.045
	c-0.019-0.016-0.091-0.054-0.215-0.096l0.047-0.133c0.186,0.059,0.361,0.115,0.504,0.16c0.159,0.045,0.338,0.087,0.525,0.13
	l-0.043,0.142c-0.126-0.024-0.197-0.033-0.225-0.033c-0.008,0.009-0.026,0.017-0.034,0.027c-0.018,0.017-0.056,0.106-0.097,0.257
	c-0.072,0.233-0.126,0.408-0.162,0.544c-0.052,0.177-0.114,0.406-0.194,0.684c-0.054,0.212-0.08,0.337-0.071,0.39
	c0,0.018,0,0.027,0.008,0.036c0.02,0.017,0.08,0.052,0.206,0.097l-0.043,0.142c-0.216-0.079-0.365-0.123-0.427-0.142l-0.819-0.212
	c-0.178-0.054-0.302-0.105-0.373-0.169c-0.062-0.054-0.117-0.125-0.142-0.215c-0.027-0.088-0.018-0.185,0.009-0.284
	c0.036-0.132,0.105-0.24,0.212-0.312c0.097-0.078,0.257-0.121,0.461-0.151l-0.193-0.622l-0.153-0.469
	c-0.035-0.082-0.064-0.134-0.081-0.152c-0.025-0.017-0.062-0.044-0.114-0.054l0.034-0.133l0.088,0.027
	c0.278,0.079,0.455,0.123,0.537,0.143c0.05,0.174,0.13,0.432,0.237,0.782l0.186,0.595c-0.016,0.019-0.025,0.034-0.043,0.051
	c-0.036-0.018-0.072-0.025-0.09-0.033c-0.096-0.027-0.214-0.019-0.337,0.033c-0.115,0.055-0.197,0.162-0.24,0.314
	c-0.037,0.122-0.025,0.239,0.027,0.337c0.054,0.088,0.16,0.16,0.31,0.206c0.055,0.017,0.117,0.026,0.205,0.042l0.152-0.47
	l0.187-0.604c0.035-0.135,0.078-0.312,0.132-0.535C33.559,44.035,33.577,43.936,33.577,43.92 M29.765,53.929
	c0-0.552-0.01-1.262-0.027-2.124c-0.01-0.64-0.044-1.042-0.09-1.184c-0.017-0.044-0.045-0.078-0.08-0.098
	c-0.054-0.034-0.275-0.071-0.657-0.115v-0.417c0.701,0.026,1.146,0.036,1.351,0.036l2.525-0.047c0.549,0,0.951,0.056,1.199,0.163
	c0.25,0.106,0.454,0.277,0.596,0.507c0.142,0.24,0.224,0.516,0.224,0.826c0,0.409-0.116,0.757-0.357,1.068
	c-0.228,0.301-0.639,0.566-1.218,0.807l1.078,1.619l0.834,1.237c0.161,0.203,0.277,0.328,0.358,0.37
	c0.079,0.038,0.205,0.063,0.38,0.063v0.393l-0.302,0.009c-0.854,0-1.405,0.009-1.645,0.026c-0.296-0.471-0.737-1.148-1.315-2.035
	l-1.041-1.573c0.025-0.064,0.054-0.126,0.08-0.188c0.134,0.019,0.23,0.026,0.294,0.026c0.311,0,0.621-0.122,0.922-0.381
	c0.302-0.249,0.456-0.604,0.456-1.074c0-0.409-0.116-0.72-0.357-0.952c-0.24-0.223-0.594-0.339-1.076-0.339
	c-0.151,0-0.355,0.018-0.612,0.037l-0.035,1.494l-0.044,1.883c0,0.427,0.009,0.97,0.044,1.637c0.025,0.505,0.051,0.781,0.08,0.843
	c0.025,0.045,0.063,0.081,0.115,0.106c0.072,0.045,0.302,0.072,0.685,0.088v0.428c-0.605-0.026-1.139-0.035-1.609-0.035
	c-0.498,0-1.032,0.009-1.609,0.035v-0.428c0.39-0.024,0.614-0.063,0.675-0.088c0.037-0.025,0.062-0.053,0.08-0.096
	c0.037-0.08,0.062-0.357,0.072-0.82C29.755,54.916,29.765,54.348,29.765,53.929 M28.218,42.799l-0.233,0.137
	c-0.221,0.123-0.506,0.29-0.879,0.514l-0.24-0.134l0.044-0.069c0.09-0.039,0.267-0.117,0.533-0.259
	c0.418-0.214,0.658-0.345,0.721-0.392c0.035-0.033,0.088-0.106,0.151-0.212c0.132-0.23,0.222-0.39,0.267-0.498
	c0.017-0.054,0.026-0.089,0.017-0.116c-0.017-0.019-0.087-0.07-0.222-0.149l0.07-0.125c0.143,0.087,0.287,0.177,0.437,0.256
	c0.16,0.1,0.339,0.197,0.533,0.303l-0.071,0.117c-0.097-0.055-0.176-0.091-0.222-0.091c-0.037-0.008-0.064,0.01-0.088,0.036
	c-0.009,0.008-0.063,0.108-0.179,0.285l-0.061,0.098c-0.071,0.133-0.117,0.222-0.124,0.257c-0.01,0.068-0.01,0.239,0,0.524
	c0.015,0.278,0.026,0.481,0.043,0.605c0.019,0.125,0.044,0.222,0.071,0.274c0.019,0.018,0.037,0.036,0.062,0.056l0.073,0.034
	l-0.073,0.115c-0.175-0.07-0.355-0.124-0.532-0.177c-0.044-0.051-0.063-0.109-0.082-0.161c-0.024-0.08-0.035-0.212-0.035-0.408
	C28.188,43.422,28.199,43.147,28.218,42.799 M33.551,5.377c0.168-0.018,0.357-0.035,0.576-0.069l0.818-0.126
	c0.304-0.045,0.535-0.037,0.704,0.017c0.168,0.054,0.302,0.153,0.417,0.293c0.115,0.143,0.187,0.33,0.221,0.552
	c0.036,0.284,0,0.542-0.115,0.772c-0.116,0.223-0.266,0.4-0.455,0.516c-0.195,0.117-0.407,0.188-0.637,0.223l-0.642,0.081
	c-0.099,0.017-0.249,0.034-0.454,0.08l-0.009-0.088c0.07-0.056,0.117-0.099,0.144-0.126c-0.008-0.195-0.053-0.567-0.124-1.103
	c-0.036-0.228-0.063-0.425-0.087-0.585c-0.029-0.153-0.056-0.24-0.064-0.268c-0.008-0.007-0.017-0.017-0.026-0.017
	c-0.018-0.008-0.098-0.008-0.248-0.008L33.551,5.377z M24.358,10.915c-0.037-0.204-0.016-0.407,0.072-0.604
	c0.08-0.196,0.231-0.391,0.462-0.586c0.222-0.177,0.436-0.293,0.632-0.336c0.203-0.047,0.392-0.037,0.578,0.025
	c0.177,0.063,0.345,0.185,0.505,0.373c0.168,0.205,0.276,0.417,0.312,0.63c0.045,0.214,0.019,0.428-0.061,0.632
	c-0.083,0.214-0.23,0.401-0.434,0.578c-0.321,0.266-0.634,0.39-0.944,0.366c-0.302-0.019-0.579-0.171-0.817-0.464
	C24.492,11.334,24.395,11.128,24.358,10.915 M20.378,14.952c0.106-0.133,0.221-0.285,0.354-0.461l0.48-0.686
	c0.178-0.239,0.346-0.408,0.497-0.488c0.151-0.081,0.321-0.117,0.507-0.099c0.177,0.019,0.365,0.099,0.544,0.23
	c0.239,0.171,0.39,0.374,0.479,0.615c0.08,0.241,0.098,0.471,0.052,0.685c-0.052,0.222-0.141,0.427-0.283,0.622l-0.383,0.507
	c-0.062,0.079-0.15,0.214-0.268,0.381l-0.061-0.052c0.009-0.09,0.009-0.151,0.009-0.188c-0.152-0.133-0.445-0.355-0.879-0.674
	c-0.196-0.144-0.355-0.259-0.489-0.339c-0.125-0.089-0.205-0.143-0.232-0.143c-0.008-0.009-0.017-0.009-0.034,0
	c-0.008,0.008-0.073,0.072-0.179,0.178L20.378,14.952z M19.293,17.36c0-0.212,0.072-0.453,0.204-0.72
	c0.132-0.256,0.275-0.445,0.442-0.559c0.172-0.125,0.348-0.188,0.544-0.196c0.195-0.017,0.401,0.037,0.613,0.142
	c0.24,0.126,0.418,0.278,0.532,0.454c0.125,0.188,0.188,0.39,0.196,0.612c0,0.223-0.061,0.455-0.186,0.703
	c-0.186,0.365-0.426,0.604-0.71,0.701c-0.294,0.1-0.605,0.063-0.943-0.104c-0.23-0.117-0.4-0.268-0.516-0.445
	C19.354,17.77,19.302,17.573,19.293,17.36 M17.578,23.093c0.06-0.265,0.106-0.47,0.144-0.62l0.157-0.917
	c0.026-0.089,0.045-0.177,0.061-0.258l0.03-0.009c0.116,0.054,0.264,0.098,0.469,0.151l-0.026,0.133
	c-0.16-0.028-0.25-0.037-0.265-0.037c-0.011,0.009-0.029,0.028-0.045,0.071c-0.037,0.089-0.072,0.223-0.109,0.419
	c-0.015,0.089-0.034,0.194-0.054,0.319c0.34,0.081,0.607,0.142,0.811,0.187c0.026-0.115,0.053-0.23,0.07-0.329
	c0.037-0.151,0.045-0.247,0.045-0.285c0-0.018-0.017-0.035-0.045-0.043c-0.017-0.009-0.08-0.037-0.204-0.063l0.027-0.142
	c0.186,0.037,0.31,0.063,0.365,0.08l0.373,0.062l-0.027,0.144c-0.141-0.019-0.232-0.027-0.249-0.019
	c-0.017,0-0.034,0.019-0.043,0.036c-0.019,0.054-0.054,0.177-0.088,0.373c-0.009,0.055-0.02,0.134-0.029,0.214
	c0.054,0.009,0.117,0.026,0.177,0.036c0.313,0.063,0.561,0.107,0.731,0.125l0.07-0.329c0.037-0.188,0.055-0.355,0.07-0.516
	c-0.097-0.045-0.214-0.099-0.335-0.142l0.025-0.143c0.196,0.063,0.375,0.117,0.553,0.16c0,0.097-0.019,0.196-0.037,0.285
	c-0.008,0.062-0.036,0.186-0.08,0.365c-0.035,0.159-0.061,0.319-0.088,0.452c-0.044,0.188-0.07,0.383-0.107,0.586l-0.088-0.018
	c-0.018-0.061-0.036-0.124-0.063-0.178c-0.168-0.053-0.525-0.133-1.075-0.239c-0.383-0.071-0.632-0.115-0.758-0.133
	c-0.061-0.01-0.104-0.01-0.131,0.007c-0.017,0.017-0.045,0.1-0.087,0.24L17.578,23.093z M17.809,28.791
	c-0.045,0.01-0.099,0.019-0.16,0.027l-0.018-0.017c-0.009-0.241-0.026-0.453-0.045-0.642c-0.078-0.701-0.124-1.11-0.133-1.226
	l0.118-0.008c0.727,0.425,1.446,0.834,2.159,1.208c-0.018-0.231-0.037-0.444-0.053-0.64c-0.018-0.206-0.046-0.362-0.071-0.479
	c-0.018-0.037-0.026-0.055-0.037-0.062c-0.027-0.019-0.114-0.027-0.265-0.052l-0.089-0.011l-0.02-0.142
	c0.171,0.016,0.366,0.009,0.605,0c0.011,0.062,0.018,0.133,0.026,0.195l0.114,1.271c0.011,0.089,0.029,0.276,0.073,0.56
	l-0.133,0.011c-0.506-0.323-1.227-0.729-2.15-1.211l0.035,0.418c0.029,0.222,0.054,0.391,0.072,0.507
	c0.008,0.054,0.027,0.089,0.044,0.098c0.018,0.02,0.08,0.02,0.186,0.028l0.117,0.007l0.018,0.135
	c-0.081,0.008-0.179,0.019-0.286,0.019L17.809,28.791z M17.896,30.364c-0.034-0.142-0.054-0.283-0.062-0.426
	c-0.01-0.15-0.01-0.293,0.008-0.444l0.02-0.019c0.072,0.01,0.124,0.01,0.186,0c0.099-0.008,0.214-0.025,0.356-0.051l0.034,0.132
	c-0.168,0.054-0.257,0.079-0.277,0.088c-0.014,0.018-0.033,0.054-0.06,0.115c-0.027,0.064-0.045,0.143-0.054,0.241
	c0,0.098,0.017,0.204,0.045,0.312c0.06,0.265,0.195,0.454,0.392,0.568c0.204,0.116,0.442,0.133,0.736,0.062
	c0.311-0.079,0.543-0.231,0.685-0.47c0.142-0.215,0.168-0.471,0.099-0.774c-0.027-0.115-0.074-0.213-0.117-0.311
	c-0.053-0.098-0.124-0.195-0.212-0.301l0.025-0.056c0.063,0.018,0.124,0.027,0.187,0.037c0.098,0.106,0.178,0.222,0.23,0.329
	c0.063,0.106,0.106,0.239,0.145,0.391c0.069,0.293,0.079,0.542,0.033,0.765c-0.052,0.221-0.16,0.408-0.31,0.569
	c-0.161,0.151-0.357,0.249-0.587,0.31c-0.348,0.09-0.649,0.036-0.923-0.15C18.2,31.093,18.003,30.792,17.896,30.364 M22.217,38.293
	c-0.212,0.019-0.417-0.027-0.605-0.133c-0.185-0.097-0.364-0.277-0.523-0.526c-0.168-0.237-0.257-0.452-0.286-0.656
	c-0.017-0.205,0.009-0.391,0.099-0.561c0.08-0.179,0.222-0.329,0.425-0.472c0.216-0.142,0.438-0.23,0.65-0.249
	c0.223-0.017,0.436,0.027,0.632,0.135c0.195,0.106,0.372,0.265,0.523,0.496c0.234,0.347,0.321,0.658,0.266,0.96
	c-0.052,0.305-0.229,0.563-0.539,0.765C22.633,38.203,22.422,38.283,22.217,38.293 M25.3,40.141c0.011,0.09,0.073,0.207,0.186,0.339
	c0.172,0.214,0.278,0.366,0.312,0.456c0.045,0.096,0.054,0.195,0.038,0.299c-0.03,0.099-0.081,0.198-0.161,0.296
	c-0.142,0.158-0.319,0.238-0.525,0.248c-0.212,0.009-0.435-0.098-0.685-0.31c-0.088-0.091-0.168-0.17-0.23-0.249
	c-0.061-0.089-0.116-0.179-0.161-0.278l0.019-0.042c0.054-0.037,0.106-0.081,0.152-0.118c0.044-0.034,0.114-0.104,0.213-0.202
	l0.115,0.098c-0.115,0.134-0.178,0.213-0.178,0.23c-0.009,0.045,0,0.109,0.036,0.197c0.045,0.087,0.097,0.178,0.186,0.248
	c0.116,0.105,0.232,0.15,0.339,0.161c0.116,0,0.214-0.044,0.293-0.135c0.045-0.052,0.071-0.115,0.089-0.178
	c0.01-0.061,0-0.122-0.037-0.183c-0.026-0.056-0.107-0.17-0.24-0.33c-0.113-0.152-0.194-0.25-0.222-0.319
	c-0.053-0.108-0.069-0.206-0.053-0.313c0.018-0.106,0.072-0.203,0.169-0.311c0.159-0.177,0.356-0.266,0.596-0.259
	c0.239,0,0.48,0.117,0.72,0.321c0.097,0.099,0.187,0.195,0.258,0.293c0.062,0.091,0.124,0.206,0.169,0.337
	c-0.063,0.044-0.125,0.09-0.169,0.127c-0.071,0.062-0.152,0.148-0.258,0.255l-0.106-0.097c0.106-0.124,0.168-0.195,0.186-0.231
	c0.008-0.027,0.008-0.071,0-0.142c-0.007-0.069-0.037-0.151-0.08-0.232c-0.044-0.081-0.106-0.149-0.168-0.212
	c-0.125-0.11-0.241-0.161-0.375-0.161c-0.124,0-0.232,0.045-0.32,0.142C25.337,39.966,25.3,40.053,25.3,40.141 M23.524,40.283
	c0,0.029,0.026,0.074,0.079,0.135l0.054,0.071l-0.098,0.097l-0.125-0.141c-0.08-0.088-0.142-0.162-0.186-0.214
	c-0.07-0.063-0.176-0.178-0.329-0.328c-0.078-0.082-0.142-0.143-0.178-0.178c-0.132-0.152-0.222-0.269-0.256-0.366
	c-0.045-0.098-0.045-0.194-0.026-0.284c0.026-0.09,0.079-0.17,0.16-0.249c0.159-0.142,0.336-0.214,0.541-0.197
	c0.208,0.011,0.384,0.099,0.533,0.268c0.026,0.018,0.044,0.044,0.063,0.07c0.018,0.027,0.036,0.055,0.051,0.09
	c-0.007,0.045-0.026,0.088-0.043,0.126h-0.054c-0.018-0.018-0.025-0.038-0.035-0.055c-0.018-0.02-0.027-0.035-0.036-0.045
	c-0.08-0.089-0.168-0.123-0.273-0.123c-0.108,0-0.215,0.043-0.314,0.143c-0.115,0.105-0.176,0.211-0.186,0.319
	c0,0.107,0.043,0.214,0.143,0.32c0.035,0.045,0.087,0.088,0.16,0.134c0.259-0.232,0.479-0.426,0.658-0.589
	c0.052-0.053,0.238-0.239,0.55-0.541c0.125-0.116,0.196-0.184,0.206-0.212c0.016-0.02,0.016-0.036,0.008-0.052
	c-0.008-0.029-0.063-0.1-0.168-0.231l0.105-0.099c0.125,0.149,0.242,0.273,0.331,0.382c0.043,0.042,0.188,0.186,0.436,0.434
	l-0.108,0.099c-0.096-0.088-0.159-0.131-0.176-0.143h-0.045c-0.035,0.019-0.125,0.091-0.275,0.222
	c-0.151,0.136-0.303,0.268-0.445,0.399c-0.258,0.248-0.445,0.428-0.553,0.534C23.587,40.196,23.533,40.258,23.524,40.283
	 M20.111,35.77c-0.011,0.018,0.017,0.106,0.07,0.249l-0.124,0.054c-0.089-0.196-0.169-0.383-0.248-0.55
	c-0.082-0.163-0.152-0.313-0.224-0.464l0.125-0.052c0.079,0.132,0.124,0.213,0.151,0.224c0.017,0.007,0.044,0.007,0.077,0
	c0.047-0.02,0.235-0.099,0.553-0.243l-0.578-0.335l0.197-0.101l0.577,0.348l0.498-0.223c0.132-0.062,0.293-0.142,0.481-0.238
	c-0.062-0.134-0.1-0.232-0.134-0.303c-0.088-0.187-0.179-0.347-0.267-0.463c-0.106,0.02-0.232,0.045-0.374,0.082l-0.06-0.144
	c0.159-0.044,0.347-0.107,0.568-0.187c0.063,0.089,0.116,0.17,0.151,0.259l0.249,0.55l0.115,0.25
	c0.054,0.114,0.133,0.273,0.24,0.488l-0.08,0.035c-0.055-0.044-0.106-0.079-0.169-0.116c-0.276,0.116-0.515,0.223-0.711,0.312
	l0.349,0.196l-0.197,0.089l-0.337-0.197l-0.524,0.25c-0.212,0.097-0.331,0.159-0.355,0.186
	C20.111,35.742,20.111,35.752,20.111,35.77 M19.133,33.62c-0.011,0.025,0,0.113,0.035,0.256l-0.133,0.043
	c-0.07-0.258-0.133-0.452-0.186-0.602l-0.314-0.873c-0.035-0.088-0.059-0.177-0.078-0.259l0.019-0.014
	c0.122-0.012,0.284-0.055,0.478-0.108L19,32.186c-0.15,0.063-0.239,0.099-0.239,0.109c-0.01,0.007-0.02,0.035-0.01,0.079
	c0.01,0.096,0.045,0.239,0.107,0.417c0.035,0.089,0.07,0.195,0.123,0.312c0.329-0.097,0.598-0.177,0.792-0.249
	c-0.036-0.116-0.062-0.224-0.097-0.322c-0.056-0.15-0.089-0.238-0.108-0.265c-0.007-0.02-0.036-0.02-0.062-0.02
	c-0.017,0-0.088,0.02-0.203,0.047l-0.055-0.135c0.188-0.063,0.303-0.096,0.357-0.115l0.355-0.132l0.052,0.132
	c-0.143,0.063-0.213,0.099-0.232,0.115c-0.007,0.012-0.015,0.026-0.015,0.054c0.008,0.054,0.045,0.177,0.104,0.364
	c0.027,0.062,0.054,0.125,0.082,0.205c0.062-0.018,0.116-0.037,0.178-0.054c0.302-0.108,0.535-0.197,0.693-0.259l-0.107-0.319
	c-0.051-0.178-0.124-0.347-0.194-0.489c-0.106,0.01-0.224,0.027-0.357,0.043l-0.044-0.133c0.197-0.043,0.374-0.089,0.553-0.143
	c0.043,0.09,0.079,0.188,0.105,0.275c0.026,0.055,0.064,0.169,0.115,0.348c0.054,0.16,0.099,0.31,0.152,0.445
	c0.06,0.177,0.124,0.364,0.204,0.558l-0.088,0.027c-0.045-0.044-0.088-0.087-0.144-0.124c-0.175,0.036-0.523,0.143-1.056,0.328
	c-0.364,0.126-0.606,0.214-0.722,0.259C19.177,33.573,19.143,33.601,19.133,33.62 M19.194,24.25l-0.667-0.028
	c-0.247-0.008-0.47-0.008-0.655-0.008c-0.108,0-0.18,0-0.195,0.019c-0.02,0.009-0.028,0.018-0.038,0.035
	c0,0.017-0.017,0.097-0.025,0.231h-0.142c0.008-0.124,0.018-0.248,0.018-0.364c0.007-0.17,0.007-0.321,0.007-0.454h0.142
	c0,0.133,0.01,0.205,0.019,0.23c0.01,0.019,0.01,0.026,0.027,0.035c0.007,0.009,0.017,0.018,0.038,0.028
	c0.023,0.007,0.113,0.007,0.256,0.017l0.674,0.026l0.676,0.028c0.187,0.008,0.364,0.008,0.551,0.008l0.018,0.026
	c-0.027,0.134-0.043,0.233-0.054,0.285c-0.328,0.276-0.746,0.613-1.244,1.006c-0.257,0.193-0.462,0.355-0.64,0.478l0.658,0.026
	c0.179,0,0.392,0.011,0.649,0.011c0.188,0.008,0.294,0,0.321-0.011c0.01-0.008,0.018-0.015,0.025-0.026
	c0.018-0.017,0.026-0.097,0.046-0.239h0.141c-0.019,0.188-0.026,0.32-0.026,0.39v0.427l-0.143-0.008
	c0-0.133-0.009-0.214-0.018-0.241c-0.007-0.016-0.025-0.026-0.044-0.033c-0.027-0.02-0.125-0.028-0.284-0.036
	c-0.268-0.02-0.472-0.027-0.614-0.037l-0.711-0.018c-0.187-0.009-0.302,0-0.329,0.009c-0.018,0.008-0.026,0.018-0.035,0.026
	c-0.017,0.028-0.034,0.107-0.056,0.259l-0.141-0.009c0.018-0.177,0.027-0.301,0.027-0.392v-0.32c0.337-0.248,0.71-0.533,1.109-0.843
	C18.803,24.577,19.026,24.401,19.194,24.25 M18.422,19.982v0.082c0.008,0.016,0.017,0.034,0.036,0.043
	c0.028,0.019,0.15,0.054,0.354,0.115l0.659,0.197l0.489,0.142c0.276,0.081,0.434,0.134,0.479,0.152
	c0.135,0.053,0.241,0.141,0.332,0.25c0.087,0.106,0.159,0.239,0.211,0.408c0.035,0.114,0.035,0.23,0.009,0.328
	c-0.009,0.028-0.027,0.071-0.053,0.108c-0.073-0.029-0.125-0.045-0.152-0.045c-0.027-0.009-0.071-0.026-0.142-0.035l-0.009-0.045
	c0.097-0.045,0.15-0.115,0.177-0.204c0.009-0.036,0.009-0.081-0.009-0.107c-0.017-0.027-0.079-0.063-0.196-0.108
	c-0.168-0.052-0.382-0.124-0.646-0.194l-1.254-0.355c-0.212-0.063-0.339-0.099-0.38-0.099c-0.029,0-0.055,0.009-0.063,0.019
	c-0.018,0.017-0.056,0.106-0.115,0.266l-0.136-0.037c0.074-0.212,0.125-0.391,0.163-0.522c0.052-0.188,0.106-0.383,0.151-0.578
	l0.14,0.035C18.458,19.832,18.438,19.894,18.422,19.982 M22.892,11.965c0.25,0.24,0.462,0.442,0.65,0.603
	c0.052,0.053,0.248,0.224,0.576,0.507c0.135,0.116,0.212,0.18,0.233,0.188c0.025,0.007,0.034,0.007,0.052,0.007
	c0.026-0.015,0.098-0.08,0.221-0.195l0.107,0.099c-0.142,0.143-0.257,0.267-0.347,0.366c-0.043,0.043-0.177,0.202-0.408,0.46
	l-0.108-0.089c0.09-0.106,0.125-0.169,0.133-0.194c0-0.009,0-0.027-0.008-0.045c-0.008-0.027-0.098-0.106-0.24-0.249
	c-0.152-0.142-0.294-0.277-0.436-0.41c-0.267-0.239-0.46-0.408-0.586-0.505c-0.115-0.1-0.185-0.143-0.214-0.143
	c-0.026,0-0.061,0.025-0.125,0.08l-0.072,0.072l-0.105-0.099l0.135-0.134c0.079-0.087,0.15-0.158,0.196-0.203
	c0.061-0.071,0.16-0.196,0.299-0.355c0.072-0.089,0.125-0.151,0.162-0.197c0.134-0.141,0.249-0.24,0.345-0.291
	c0.091-0.046,0.179-0.054,0.277-0.046c0.087,0.02,0.175,0.063,0.266,0.143c0.152,0.143,0.232,0.31,0.241,0.516
	c0.008,0.202-0.073,0.391-0.223,0.558c-0.018,0.028-0.045,0.046-0.063,0.063c-0.026,0.027-0.053,0.047-0.089,0.072
	c-0.045-0.017-0.088-0.025-0.124-0.035l-0.008-0.063c0.017-0.009,0.036-0.027,0.054-0.037c0.016-0.017,0.033-0.026,0.045-0.042
	c0.076-0.082,0.106-0.178,0.097-0.285c-0.01-0.106-0.063-0.205-0.169-0.302c-0.115-0.098-0.229-0.152-0.338-0.143
	c-0.107,0-0.205,0.054-0.301,0.16C22.972,11.838,22.937,11.893,22.892,11.965 M29.229,7.058c-0.007,0.036-0.007,0.088,0.01,0.17
	c0.026,0.124,0.123,0.479,0.285,1.065l0.283,0.978l-0.274,0.17l-1.458-1.122l0.097,1.005c0.038,0.319,0.073,0.605,0.099,0.872
	l-0.204,0.123c-0.09-0.106-0.393-0.417-0.889-0.94l-0.562-0.587c-0.06-0.054-0.097-0.09-0.123-0.09c-0.027,0-0.091,0.02-0.188,0.063
	L26.227,8.65c0.168-0.092,0.311-0.179,0.435-0.25c0.124-0.081,0.276-0.169,0.436-0.275l0.08,0.115
	C27.07,8.311,27.018,8.356,27,8.383C26.99,8.4,26.99,8.428,27.009,8.454c0.016,0.034,0.14,0.178,0.372,0.418l0.613,0.656
	l-0.089-0.985c-0.033-0.39-0.061-0.675-0.089-0.852l0.124-0.081l1.513,1.146l-0.304-1.048c-0.063-0.222-0.114-0.374-0.159-0.443
	c-0.018-0.027-0.044-0.046-0.07-0.046c-0.027,0-0.098,0.036-0.215,0.108L28.636,7.2c0.186-0.098,0.302-0.168,0.345-0.194
	c0.063-0.037,0.161-0.099,0.304-0.196l0.078,0.125C29.285,6.986,29.24,7.032,29.229,7.058 M30.582,6.56
	c-0.018,0.027-0.018,0.063,0,0.116c0.036,0.096,0.105,0.302,0.231,0.612c0.167,0.411,0.284,0.687,0.355,0.846
	c0.061,0.16,0.105,0.249,0.142,0.277c0.008,0.006,0.026,0.018,0.053,0.018c0.019,0,0.098-0.018,0.222-0.063l0.054,0.133L31.453,8.57
	c-0.116,0.034-0.224,0.08-0.312,0.114l-0.523,0.223l-0.054-0.135c0.142-0.06,0.211-0.104,0.231-0.132
	c0.009-0.017,0-0.07-0.021-0.133c-0.051-0.142-0.149-0.399-0.301-0.775c-0.053-0.142-0.142-0.354-0.255-0.621
	c-0.081-0.187-0.125-0.294-0.135-0.302c-0.018-0.018-0.033-0.027-0.052-0.027c-0.026-0.011-0.106,0.017-0.249,0.061l-0.056-0.132
	c0.215-0.081,0.386-0.143,0.5-0.188c0.194-0.08,0.374-0.15,0.524-0.221l0.055,0.125C30.67,6.498,30.59,6.542,30.582,6.56
	 M33.383,7.69c-0.011-0.106-0.02-0.223-0.029-0.357l0.135-0.045c0.035,0.197,0.07,0.383,0.125,0.561
	c-0.099,0.046-0.188,0.071-0.277,0.107C33.274,7.974,33.159,8,32.98,8.056c-0.168,0.042-0.31,0.086-0.451,0.131
	c-0.179,0.054-0.366,0.115-0.561,0.179l-0.027-0.081c0.044-0.045,0.09-0.088,0.125-0.143c-0.025-0.178-0.125-0.533-0.294-1.067
	c-0.106-0.374-0.186-0.613-0.229-0.727c-0.019-0.063-0.045-0.101-0.072-0.106c-0.027-0.011-0.107,0-0.249,0.026l-0.044-0.134
	c0.257-0.071,0.462-0.124,0.605-0.168l0.888-0.285c0.096-0.025,0.177-0.053,0.256-0.062l0.02,0.009
	c0.008,0.125,0.045,0.285,0.088,0.488L32.91,6.152C32.855,6,32.822,5.912,32.812,5.903c-0.008-0.008-0.035-0.008-0.08,0
	c-0.098,0-0.24,0.034-0.419,0.089c-0.097,0.024-0.194,0.07-0.318,0.107c0.088,0.337,0.159,0.602,0.221,0.807
	c0.116-0.026,0.222-0.063,0.33-0.089c0.151-0.045,0.24-0.079,0.266-0.096c0.018-0.009,0.018-0.037,0.018-0.063
	c0.01-0.018-0.008-0.089-0.033-0.205l0.138-0.043c0.045,0.186,0.082,0.302,0.099,0.354l0.116,0.364l-0.133,0.037
	c-0.053-0.132-0.09-0.213-0.106-0.229c-0.008-0.01-0.025-0.02-0.055-0.02c-0.051,0.009-0.177,0.036-0.362,0.099
	c-0.063,0.018-0.134,0.044-0.203,0.071c0.008,0.062,0.024,0.115,0.043,0.179c0.097,0.309,0.178,0.541,0.231,0.7l0.329-0.089
	C33.07,7.823,33.229,7.761,33.383,7.69 M37.337,7.05c0.233,0.008,0.444,0.018,0.638,0.018c0.206,0,0.366-0.01,0.482-0.028
	c0.035-0.008,0.053-0.018,0.071-0.034c0.008-0.02,0.036-0.099,0.071-0.251l0.017-0.087h0.143c-0.029,0.158-0.045,0.355-0.054,0.596
	c-0.071,0.007-0.134,0.007-0.206,0.007l-1.26-0.018c-0.09,0-0.275,0-0.561,0.01V7.128c0.372-0.469,0.844-1.145,1.421-2.008
	l-0.418-0.008c-0.223,0-0.391,0.008-0.516,0.019c-0.053,0.007-0.088,0.016-0.097,0.027c-0.02,0.017-0.027,0.079-0.047,0.186
	l-0.016,0.116h-0.134V5.174l0.008-0.106c0-0.045-0.008-0.098-0.008-0.161l0.018-0.018c0.24,0.018,0.453,0.026,0.642,0.026
	c0.702,0,1.11-0.008,1.226-0.008v0.126C38.253,5.707,37.781,6.383,37.337,7.05 M39.452,5.146c-0.009-0.026-0.018-0.034-0.035-0.042
	c-0.025-0.018-0.105-0.036-0.25-0.056l0.008-0.141c0.232,0.028,0.402,0.045,0.526,0.054c0.214,0.009,0.398,0.017,0.581,0.025
	L40.271,5.13c-0.16-0.011-0.24,0-0.268,0.016c-0.015,0.011-0.035,0.045-0.044,0.099c-0.019,0.107-0.034,0.329-0.062,0.659
	c-0.026,0.435-0.045,0.738-0.053,0.914c-0.01,0.169-0.01,0.276,0.008,0.311c0,0.009,0.019,0.028,0.035,0.037
	c0.027,0.01,0.101,0.027,0.233,0.043L40.11,7.352l-0.195-0.026c-0.124-0.01-0.238-0.019-0.338-0.027l-0.568-0.028l0.008-0.143
	c0.158,0,0.25-0.007,0.264-0.016c0.021-0.018,0.039-0.062,0.049-0.134c0.014-0.152,0.043-0.427,0.068-0.826
	c0.01-0.16,0.027-0.382,0.046-0.676C39.452,5.271,39.452,5.165,39.452,5.146 M40.919,7.208c-0.011,0.028,0,0.045,0.02,0.063
	c0.025,0.017,0.096,0.036,0.228,0.072l-0.024,0.142c-0.107-0.026-0.238-0.054-0.4-0.08c-0.15-0.027-0.276-0.045-0.372-0.054
	L40.396,7.2c0.106,0.008,0.177,0.008,0.203,0c0.019-0.008,0.055-0.044,0.097-0.115c0.089-0.133,0.213-0.313,0.367-0.552l0.845-1.342
	l0.239,0.045l0.435,1.919c0.063,0.25,0.099,0.392,0.115,0.409c0.021,0.026,0.087,0.063,0.205,0.088l-0.024,0.133
	c-0.181-0.034-0.349-0.071-0.507-0.097c-0.197-0.037-0.375-0.062-0.555-0.09l0.028-0.132c0.134,0.018,0.202,0.018,0.229,0.018
	c0.021-0.008,0.037-0.026,0.037-0.044c0.012-0.027,0-0.097-0.027-0.232l-0.061-0.301c-0.135-0.026-0.296-0.053-0.463-0.089
	c-0.145-0.025-0.278-0.045-0.402-0.063l-0.104,0.18c-0.025,0.042-0.072,0.115-0.114,0.211C40.927,7.174,40.919,7.192,40.919,7.208
	 M47.114,17.277c-0.382,0.065-0.77,0.143-1.166,0.234c-2.264,0.514-4.782,1.466-7.651,3.183c-0.747-0.313-1.725,0.203-2.763,0.755
	c-0.58,0.303-1.184,0.622-1.708,0.773c-1.201,0.338-2.996,3.048-4.215,5.236c-0.39,0.701-0.726,1.36-0.96,1.858
	c-0.281,0.586-0.417,1.04-0.362,1.225c0.036,0.135,0.114,0.241,0.24,0.312c0.328,0.176,0.782-0.115,1.458-0.568
	c0.772-0.507,1.937-1.271,3.111-1.795l0.007-0.01c0.295-0.132,0.854-0.169,1.405-0.195c0.685-0.046,1.371-0.088,1.833-0.347
	c0.23-0.134,0.436-0.259,0.612-0.391c0.01,0,0.027-0.009,0.073-0.045c2.623,0.135,4.382,0.482,5.357,1.308
	c0.954,0.799,1.202,2.133,0.875,4.283c-0.228,1.457-0.354,3.191-0.281,5.123c-1.887,0.963-4.025,1.51-6.29,1.51
	c-7.582,0-13.759-6.098-13.759-13.592c0-7.494,6.177-13.601,13.759-13.601C40.849,12.533,44.587,14.375,47.114,17.277 M43.826,7.849
	c0.143,0.053,0.237,0.098,0.313,0.115c0.194,0.062,0.372,0.107,0.521,0.116C44.716,8,44.784,7.895,44.857,7.761l0.144,0.044
	c-0.081,0.151-0.162,0.329-0.25,0.551c-0.108-0.017-0.205-0.037-0.293-0.063l-0.581-0.195l-0.254-0.089
	c-0.12-0.045-0.295-0.097-0.519-0.161l0.026-0.08c0.063-0.008,0.134-0.028,0.197-0.045c0.108-0.283,0.214-0.586,0.321-0.898
	c0.077-0.248,0.15-0.487,0.213-0.701c0.052-0.16,0.07-0.258,0.07-0.284c0-0.01-0.011-0.027-0.024-0.037
	c-0.019-0.018-0.094-0.052-0.224-0.106l0.042-0.133c0.206,0.07,0.393,0.133,0.57,0.195c0.169,0.054,0.338,0.107,0.487,0.152
	l-0.043,0.133C44.591,6,44.499,5.992,44.474,6c-0.016,0-0.037,0.017-0.044,0.045c-0.02,0.027-0.079,0.203-0.186,0.515l-0.268,0.784
	C43.933,7.485,43.877,7.653,43.826,7.849 M47.8,7.343c0-0.018-0.012-0.027-0.025-0.044c-0.01-0.011-0.085-0.045-0.206-0.107
	l0.055-0.134c0.114,0.054,0.218,0.106,0.336,0.15c0.152,0.063,0.292,0.125,0.417,0.17l-0.053,0.134
	C48.199,7.467,48.127,7.44,48.1,7.44c-0.015,0-0.026,0.01-0.04,0.01c-0.012,0.009-0.028,0.017-0.037,0.026
	c-0.02,0.025-0.055,0.107-0.107,0.239l-0.276,0.613l-0.264,0.632c-0.073,0.168-0.144,0.338-0.207,0.507l-0.024,0.009
	c-0.116-0.071-0.197-0.125-0.251-0.152c-0.141-0.409-0.301-0.914-0.488-1.53c-0.099-0.302-0.169-0.559-0.222-0.763l-0.259,0.604
	C45.852,7.805,45.774,8,45.686,8.231c-0.073,0.18-0.108,0.276-0.108,0.311c0,0.008,0,0.028,0.009,0.036
	c0.018,0.018,0.09,0.063,0.213,0.124l-0.054,0.133c-0.168-0.08-0.285-0.133-0.354-0.167c-0.063-0.027-0.197-0.072-0.39-0.152
	l0.052-0.133c0.123,0.054,0.202,0.071,0.229,0.071c0.019,0,0.037-0.008,0.056-0.025c0.016-0.018,0.063-0.109,0.134-0.251
	c0.105-0.248,0.191-0.436,0.248-0.56l0.276-0.658c0.067-0.177,0.104-0.275,0.104-0.31c0-0.018,0-0.037-0.017-0.045
	c-0.009-0.027-0.088-0.072-0.213-0.143l0.053-0.124c0.16,0.072,0.284,0.124,0.357,0.16c0.087,0.035,0.185,0.08,0.299,0.115
	c0.107,0.409,0.24,0.854,0.393,1.333c0.097,0.33,0.185,0.596,0.267,0.809l0.259-0.613c0.095-0.229,0.176-0.435,0.249-0.604
	C47.779,7.431,47.8,7.37,47.8,7.343 M51.525,11.548c-0.01-0.091-0.073-0.197-0.197-0.337c-0.172-0.207-0.285-0.347-0.322-0.446
	c-0.041-0.098-0.051-0.196-0.033-0.302c0.019-0.098,0.07-0.194,0.149-0.294c0.143-0.159,0.314-0.248,0.526-0.257
	c0.204-0.017,0.437,0.09,0.683,0.302c0.1,0.08,0.18,0.168,0.242,0.249c0.061,0.08,0.114,0.169,0.159,0.268l-0.01,0.034
	c-0.063,0.045-0.115,0.09-0.161,0.125c-0.042,0.037-0.104,0.107-0.203,0.213l-0.114-0.099c0.114-0.133,0.166-0.211,0.178-0.239
	c0.009-0.034-0.012-0.106-0.052-0.196c-0.039-0.089-0.1-0.168-0.181-0.24c-0.126-0.097-0.23-0.151-0.348-0.151
	c-0.113,0-0.211,0.045-0.281,0.133c-0.055,0.054-0.081,0.115-0.09,0.177c-0.01,0.065,0,0.125,0.035,0.187
	c0.024,0.064,0.118,0.17,0.247,0.329c0.117,0.142,0.196,0.25,0.233,0.312c0.052,0.107,0.073,0.212,0.052,0.311
	c-0.017,0.106-0.068,0.211-0.159,0.32c-0.162,0.178-0.354,0.268-0.597,0.268c-0.239,0-0.479-0.108-0.716-0.311
	c-0.108-0.099-0.197-0.188-0.268-0.286c-0.065-0.098-0.126-0.205-0.18-0.338c0.063-0.043,0.126-0.089,0.168-0.135
	c0.072-0.062,0.149-0.142,0.248-0.256l0.118,0.098c-0.118,0.125-0.169,0.204-0.187,0.231c-0.009,0.026-0.009,0.079,0,0.15
	c0.018,0.072,0.045,0.143,0.09,0.224c0.041,0.08,0.104,0.15,0.177,0.213c0.114,0.107,0.239,0.15,0.362,0.15
	c0.133,0,0.241-0.043,0.32-0.142C51.488,11.725,51.525,11.636,51.525,11.548 M55.122,13.636c0-0.025-0.043-0.108-0.124-0.231
	l0.124-0.08c0.128,0.194,0.222,0.346,0.295,0.442c0.114,0.179,0.233,0.33,0.337,0.463l-0.115,0.081
	c-0.097-0.117-0.16-0.187-0.176-0.187c-0.027-0.009-0.063,0-0.108,0.027c-0.097,0.054-0.285,0.178-0.551,0.364
	c-0.356,0.248-0.604,0.426-0.746,0.534c-0.143,0.096-0.223,0.167-0.241,0.195c0,0.018-0.008,0.036,0,0.053
	c0.011,0.026,0.044,0.098,0.118,0.212l-0.118,0.081l-0.115-0.168c-0.062-0.106-0.133-0.196-0.184-0.277l-0.34-0.461l0.114-0.079
	c0.099,0.125,0.16,0.187,0.188,0.194c0.026,0,0.07-0.007,0.134-0.052c0.124-0.071,0.358-0.231,0.684-0.463
	c0.126-0.089,0.311-0.221,0.551-0.388c0.159-0.117,0.248-0.188,0.259-0.206C55.122,13.671,55.122,13.653,55.122,13.636
	 M52.483,44.854v0.017c-0.069,0.293,0.088,0.517,0.444,0.677c0.115,0.043,0.285,0.115,0.508,0.185
	c0.763,0.259,2.099,0.65,3.54,1.023c-0.13,0.141-0.258,0.275-0.395,0.418c-0.273,0.302-0.568,0.595-0.87,0.889
	c-0.149,0.008-0.348,0.034-0.579,0.054c-0.275,0.034-0.498,0.063-0.685,0.079c-1.156,0.143-2.026,0.321-2.126,0.357v0.006
	c-0.077,0.037-0.148,0.091-0.203,0.163v0.007c-0.229,0.33-0.144,0.579,0.24,0.764c0.038,0.019,0.108,0.045,0.207,0.08
	c0.221,0.082,0.596,0.205,1.065,0.348c-0.019,0.008-0.029,0.028-0.045,0.035c-0.269,0.224-0.523,0.427-0.767,0.616
	c-1.233,0.948-2.596,1.863-4.094,2.745c-0.604-0.977-1.15-1.957-1.628-2.925c-0.543-1.093-0.993-2.186-1.377-3.251
	c-1.974-5.495-2.026-10.491-1.492-13.895c0.389-2.524,0.041-4.142-1.201-5.2c-1.203-1.004-3.192-1.405-6.136-1.538l-0.159-0.008
	l-0.135,0.088c-0.015,0.01-0.033,0.027-0.061,0.045c-0.018,0.016-0.035,0.036-0.053,0.044c-0.018,0.008-0.018,0.018-0.1,0.071
	c-0.167,0.114-0.335,0.222-0.521,0.33c-0.267,0.149-0.835,0.186-1.414,0.212c-0.64,0.044-1.28,0.08-1.75,0.293l-0.011,0.009v-0.009
	c-1.092,0.498-2.131,1.156-2.905,1.664c0.195-0.393,0.425-0.837,0.694-1.317c1.119-2.017,2.728-4.507,3.617-4.764
	c0.631-0.179,1.272-0.516,1.902-0.843c0.889-0.473,1.714-0.908,1.992-0.678l0.275,0.233l0.294-0.187
	c2.89-1.753,5.375-2.703,7.609-3.218c2.229-0.507,4.22-0.571,6.097-0.544h0.008h0.011c1.627,0.026,4.478-0.89,7.279-1.777
	c3.28-1.039,6.472-2.053,6.949-1.528c0.037,0.043,0.073,0.096,0.089,0.159c0.224,0.622-0.248,1.823-0.878,2.969
	c-0.649,1.199-1.466,2.303-1.895,2.685c-0.035,0.027-0.035,0.034-0.044,0.043c-0.319,0.09-0.836,0.374-1.465,0.729
	c-0.838,0.462-1.887,1.04-2.767,1.352c-1.083,0.373-3.457,1.733-4.958,2.702c-0.399,0.259-0.747,0.498-0.995,0.685
	c-0.447,0.329-0.631,0.649-0.499,0.931v0.011c0.009,0.017,0.026,0.034,0.033,0.054v0.009l0.019,0.025l0.027,0.017
	c0,0,0,0.011,0.009,0.011l0.008,0.017c0.144,0.132,0.408,0.178,0.777,0.14c0.228-0.016,0.547-0.061,0.922-0.123
	c1.92-0.311,5.487-1.075,7.395-1.751c0.029-0.008,0.055-0.018,0.082-0.026c0.016,0.043,0.034,0.088,0.054,0.134
	c0.07,0.212,0.143,0.409,0.205,0.603c0.281,0.899,0.496,1.867,0.623,2.882h-0.109c-0.55,0.007-1.146,0.042-1.752,0.096
	c-1.999,0.197-4.762,1.103-6.203,1.663c-0.312,0.125-0.558,0.232-0.729,0.302c-0.419,0.194-0.604,0.463-0.509,0.746
	c0.026,0.099,0.09,0.178,0.162,0.241l0.009,0.01h0.01c0.091,0.063,0.302,0.115,0.604,0.15c0.273,0.028,0.583,0.054,0.915,0.081
	c1.922,0.142,5.556,0.311,7.603,0.116h0.004c0.063-0.011,0.084-0.011,0.099-0.011l0.011-0.009c0,0.116-0.011,0.24-0.018,0.375
	c-0.045,0.656-0.127,1.323-0.241,1.98c-0.052,0-0.089-0.008-0.105-0.008c-0.516-0.063-1.039-0.108-1.574-0.133
	c-1.77-0.081-4.258,0.239-5.855,0.569c-0.482,0.096-0.89,0.203-1.175,0.292c-0.507,0.161-0.783,0.409-0.765,0.73
	c0.007,0.052,0.018,0.105,0.045,0.159v0.009c0.079,0.186,0.31,0.33,0.667,0.445c0.224,0.062,0.532,0.142,0.907,0.223
	c1.751,0.399,4.933,0.922,7.003,1.076c-0.01,0.025-0.027,0.06-0.033,0.096c-0.172,0.49-0.359,0.988-0.572,1.476
	c-0.019,0-0.035,0-0.051-0.01c-1.745-0.22-4.207-0.104-5.833,0.091c-0.499,0.061-0.924,0.133-1.235,0.204
	c-0.524,0.125-0.835,0.347-0.835,0.666c0,0.055,0.007,0.106,0.025,0.161v0.009c0.056,0.178,0.229,0.329,0.501,0.444
	c0.158,0.07,0.372,0.15,0.632,0.239c1.133,0.384,3.249,0.952,5.16,1.362c-0.259,0.425-0.539,0.853-0.835,1.278
	c-0.312-0.008-0.641-0.008-0.968-0.008c-0.427,0.008-0.847,0.019-1.245,0.037c-2.275,0.106-4.393,0.559-4.472,0.809L52.483,44.854z
	 M55.33,56.562l0.819-0.801c0.674-0.655,1.108-1.159,1.306-1.504c0.195-0.346,0.295-0.681,0.295-1.006s-0.08-0.57-0.239-0.742
	c-0.159-0.173-0.375-0.261-0.655-0.261c-0.203,0-0.381,0.047-0.537,0.136c-0.154,0.09-0.251,0.18-0.289,0.267
	c-0.015,0.042-0.07,0.267-0.17,0.676h-0.333c0.086-0.532,0.141-1,0.161-1.402c0.208-0.205,0.43-0.354,0.666-0.447
	c0.233-0.091,0.498-0.14,0.796-0.14c0.524,0,0.939,0.144,1.244,0.429c0.306,0.285,0.459,0.651,0.459,1.103
	c0,0.364-0.12,0.731-0.36,1.097c-0.236,0.365-0.897,1.039-1.985,2.016l0.025,0.054h0.937c0.688,0,1.222-0.018,1.598-0.054
	l0.047,0.054c-0.029,0.227-0.042,0.398-0.042,0.512c0,0.117,0.013,0.259,0.042,0.422l-0.047,0.039
	c-0.516-0.025-1.107-0.039-1.773-0.039c-0.496,0-1.148,0.013-1.963,0.039V56.562z M62.88,55.846
	c-0.154,0.421-0.373,0.729-0.648,0.93c-0.277,0.198-0.609,0.3-0.993,0.3c-0.374,0-0.699-0.095-0.969-0.28
	c-0.271-0.187-0.473-0.455-0.599-0.812c-0.128-0.353-0.194-0.92-0.194-1.695c0-0.771,0.077-1.356,0.231-1.758
	c0.149-0.402,0.37-0.699,0.658-0.898c0.287-0.196,0.63-0.298,1.022-0.298c0.394,0,0.713,0.086,0.962,0.255
	c0.249,0.169,0.44,0.435,0.568,0.8c0.13,0.363,0.195,0.92,0.195,1.666C63.114,54.832,63.037,55.426,62.88,55.846 M66.957,55.846
	c-0.157,0.421-0.374,0.729-0.653,0.93c-0.275,0.198-0.604,0.3-0.992,0.3c-0.374,0-0.695-0.095-0.97-0.28
	c-0.268-0.187-0.468-0.455-0.595-0.812c-0.13-0.353-0.196-0.92-0.196-1.695c0-0.771,0.077-1.356,0.23-1.758
	c0.152-0.402,0.374-0.699,0.66-0.898c0.291-0.196,0.632-0.298,1.024-0.298c0.391,0,0.711,0.086,0.959,0.255
	c0.251,0.169,0.441,0.435,0.569,0.8c0.132,0.363,0.195,0.92,0.195,1.666C67.189,54.832,67.111,55.426,66.957,55.846 M56.535,69.714
	c0.599-0.025,0.971-0.067,1.104-0.131c0.098-0.054,0.25-0.233,0.452-0.552c0.392-0.623,0.889-1.491,1.497-2.604l3.382-6.25h1.405
	l4.322,7.74c0.568,1.006,0.905,1.558,1.039,1.653c0.133,0.1,0.535,0.163,1.209,0.198v0.602c-1.041-0.033-2.017-0.052-2.943-0.052
	c-1.101,0-2.152,0.019-3.147,0.052V69.77c0.759-0.026,1.199-0.062,1.317-0.099c0.115-0.045,0.177-0.115,0.177-0.223
	c0-0.087-0.134-0.398-0.408-0.934l-0.621-1.233c-0.793-0.009-1.68-0.009-2.649-0.009c-0.854,0-1.626,0-2.321,0.009l-0.413,0.825
	c-0.121,0.231-0.26,0.57-0.424,1.012c-0.042,0.1-0.06,0.198-0.06,0.28c0,0.104,0.06,0.185,0.187,0.228
	c0.123,0.045,0.569,0.088,1.342,0.144v0.602c-0.622-0.033-1.405-0.052-2.327-0.052c-0.89,0-1.591,0.019-2.119,0.052V69.714z
	 M70.152,54.208c-0.299,0.313-0.508,0.497-0.628,0.554c-0.165,0.082-0.365,0.121-0.602,0.121c-0.382,0-0.69-0.135-0.929-0.413
	c-0.24-0.275-0.358-0.657-0.358-1.147c0-0.588,0.17-1.065,0.512-1.435c0.346-0.366,0.776-0.552,1.298-0.552
	c0.36,0,0.677,0.089,0.947,0.264c0.273,0.176,0.484,0.421,0.633,0.746c0.146,0.319,0.219,0.753,0.219,1.301
	c0,0.751-0.118,1.365-0.361,1.848c-0.24,0.483-0.592,0.875-1.052,1.175c-0.459,0.304-0.986,0.47-1.586,0.5l-0.339-0.266l0.097-0.152
	c0.159,0.019,0.273,0.028,0.339,0.028c0.294,0,0.582-0.093,0.857-0.279c0.275-0.186,0.493-0.445,0.646-0.784
	C70.003,55.377,70.104,54.875,70.152,54.208 M74.773,0H1.3v73.475h73.474V0z"/>
</svg>
