<?xml version="1.0" encoding="utf-8"?>
<!-- Generator: Adobe Illustrator 15.1.0, SVG Export Plug-In . SVG Version: 6.00 Build 0)  -->
<!DOCTYPE svg PUBLIC "-//W3C//DTD SVG 1.1//EN" "http://www.w3.org/Graphics/SVG/1.1/DTD/svg11.dtd">
<svg version="1.1" id="Vrstva_1" xmlns="http://www.w3.org/2000/svg" xmlns:xlink="http://www.w3.org/1999/xlink" x="0px" y="0px"
	 width="90px" height="120px" viewBox="0 0 90 120" enable-background="new 0 0 90 120" xml:space="preserve">
<path fill="#B2B3B5" d="M42.566,72.958c0.481-0.675,0.645-1.642,0.645-2.522c0-0.88-0.164-1.848-0.645-2.522
	c-0.367-0.514-0.922-0.855-1.735-0.855s-1.369,0.342-1.735,0.855c-0.481,0.675-0.645,1.643-0.645,2.522
	c0,0.881,0.164,1.848,0.645,2.522c0.367,0.514,0.922,0.857,1.735,0.857S42.199,73.472,42.566,72.958 M42.897,67.633
	c0.54,0.739,0.742,1.789,0.742,2.803s-0.202,2.063-0.742,2.804c-0.443,0.606-1.108,1.004-2.067,1.004s-1.624-0.397-2.066-1.004
	c-0.541-0.74-0.742-1.79-0.742-2.804s0.202-2.063,0.742-2.803c0.443-0.607,1.107-1.005,2.066-1.005S42.454,67.025,42.897,67.633"/>
<path fill="#B2B3B5" d="M52.581,73.277c0.338-0.284,0.549-0.712,0.549-1.31c0-0.584-0.208-0.983-0.534-1.245
	c-0.403-0.322-0.992-0.443-1.604-0.443s-1.201,0.121-1.604,0.443c-0.328,0.262-0.534,0.661-0.534,1.245
	c0,0.598,0.21,1.025,0.549,1.31c0.397,0.337,0.974,0.483,1.589,0.483C51.606,73.761,52.184,73.615,52.581,73.277 M52.796,69.588
	c-0.174,0.191-0.396,0.342-0.645,0.439c0.371,0.106,0.679,0.294,0.909,0.551c0.313,0.348,0.485,0.821,0.485,1.39
	c0,0.726-0.262,1.259-0.683,1.623c-0.474,0.409-1.147,0.598-1.871,0.598c-0.725,0-1.398-0.188-1.871-0.598
	c-0.422-0.364-0.684-0.897-0.684-1.623c0-0.568,0.172-1.042,0.485-1.39c0.231-0.257,0.54-0.444,0.909-0.551
	c-0.248-0.098-0.469-0.248-0.646-0.439c-0.255-0.28-0.413-0.646-0.413-1.068c0-0.639,0.223-1.099,0.586-1.409
	c0.406-0.347,0.986-0.499,1.633-0.499c0.645,0,1.226,0.152,1.632,0.499c0.364,0.311,0.585,0.771,0.585,1.409
	C53.209,68.942,53.052,69.308,52.796,69.588 M52.32,69.461c0.283-0.215,0.473-0.523,0.473-0.941c0-0.511-0.176-0.862-0.451-1.09
	c-0.342-0.284-0.84-0.392-1.35-0.392s-1.01,0.107-1.351,0.392c-0.275,0.228-0.452,0.579-0.452,1.09c0,0.419,0.19,0.729,0.473,0.943
	c0.355,0.267,0.857,0.39,1.33,0.39C51.46,69.853,51.963,69.729,52.32,69.461"/>
<path fill="#B2B3B5" d="M33.234,73.671l1.892-2.12c0.674-0.728,0.674-0.728,0.946-1.076c0.446-0.599,0.63-1.055,0.63-1.608
	c0-1.163-0.956-2.099-2.164-2.099c-0.717,0-1.457,0.369-1.848,0.924c-0.229,0.326-0.305,0.599-0.327,1.218h0.479
	c0.022-0.446,0.077-0.675,0.228-0.925c0.272-0.468,0.849-0.771,1.446-0.771c0.946,0,1.707,0.718,1.707,1.62
	c0,0.642-0.304,1.185-1.239,2.207l-2.772,3.066h4.457v-0.436H33.234z"/>
<polygon fill="#B2B3B5" points="46.029,67.206 46.029,74.105 46.498,74.105 46.498,66.767 44.45,66.767 44.462,67.206 "/>
<path fill="#B2B3B5" d="M73.577,60.256v-2.614h-0.32v2.614c0,0.572,0.156,1.017,0.472,1.334s0.758,0.476,1.33,0.476
	s1.018-0.158,1.335-0.476c0.315-0.317,0.475-0.762,0.475-1.334v-2.614h-0.327v2.614c0,0.473-0.131,0.841-0.391,1.104
	c-0.26,0.262-0.624,0.394-1.092,0.394c-0.463,0-0.825-0.132-1.088-0.394C73.707,61.097,73.577,60.729,73.577,60.256 M71.775,58.259
	l0.14-0.289c-0.177-0.109-0.38-0.198-0.609-0.265c-0.229-0.068-0.456-0.102-0.686-0.102c-0.447,0-0.806,0.099-1.076,0.293
	c-0.271,0.194-0.405,0.454-0.405,0.775c0,0.26,0.063,0.469,0.19,0.628c0.127,0.16,0.282,0.28,0.464,0.363
	c0.183,0.084,0.424,0.17,0.726,0.257c0.271,0.083,0.484,0.159,0.644,0.227c0.159,0.067,0.291,0.166,0.397,0.293
	c0.107,0.126,0.16,0.289,0.16,0.487c0,0.248-0.108,0.448-0.327,0.597c-0.218,0.147-0.513,0.223-0.882,0.223
	c-0.26,0-0.521-0.055-0.784-0.165c-0.263-0.108-0.487-0.257-0.674-0.443l-0.156,0.28c0.202,0.198,0.446,0.355,0.733,0.472
	c0.285,0.118,0.58,0.176,0.881,0.176c0.469,0,0.844-0.106,1.128-0.315c0.283-0.212,0.425-0.491,0.425-0.839
	c0-0.265-0.065-0.48-0.195-0.644c-0.13-0.163-0.287-0.288-0.473-0.375c-0.185-0.086-0.428-0.172-0.729-0.26
	c-0.271-0.084-0.483-0.159-0.636-0.227c-0.154-0.067-0.283-0.163-0.391-0.284c-0.107-0.123-0.16-0.281-0.16-0.472
	c0-0.224,0.104-0.402,0.31-0.535c0.204-0.132,0.477-0.199,0.814-0.199c0.188,0,0.389,0.032,0.604,0.094
	C71.426,58.071,71.612,58.155,71.775,58.259 M68.123,57.642l-1.552,2.427l-1.584-2.427h-0.343l1.763,2.818v1.575h0.329v-1.575
	l1.739-2.818H68.123z M60.137,62.034h0.311v-3.892l2.91,3.892h0.353v-4.393h-0.32v3.894l-2.894-3.894h-0.359V62.034z M55.549,57.947
	h3.05l-3.127,3.807v0.28h3.549v-0.313h-3.151l3.129-3.798v-0.282h-3.44L55.549,57.947z M54.831,57.642l-1.552,2.427l-1.584-2.427
	h-0.343l1.763,2.818v1.575h0.328v-1.575l1.739-2.818H54.831z M48.795,61.707h-1.896v-2.333h1.896c0.523,0,0.932,0.1,1.221,0.301
	c0.287,0.201,0.432,0.484,0.432,0.854c0,0.379-0.145,0.672-0.432,0.876C49.727,61.612,49.318,61.712,48.795,61.707 M48.795,59.055
	h-1.896V56.9h1.896c0.436,0,0.775,0.095,1.018,0.282c0.24,0.187,0.363,0.45,0.363,0.788c0,0.349-0.123,0.616-0.363,0.804
	C49.57,58.961,49.23,59.055,48.795,59.055 M48.801,56.582h-2.23v5.452h2.247c0.619,0,1.099-0.127,1.442-0.386
	c0.344-0.258,0.515-0.617,0.515-1.081c0-0.384-0.115-0.698-0.346-0.939c-0.231-0.242-0.559-0.389-0.979-0.442
	c0.334-0.061,0.592-0.202,0.775-0.419c0.186-0.219,0.278-0.498,0.278-0.835c0-0.426-0.15-0.757-0.45-0.995
	C49.756,56.7,49.337,56.582,48.801,56.582 M40.626,57.923c0.353,0,0.683,0.085,0.987,0.257c0.304,0.171,0.543,0.404,0.721,0.694
	c0.177,0.292,0.266,0.608,0.266,0.951c0,0.349-0.089,0.67-0.266,0.964c-0.177,0.293-0.417,0.528-0.721,0.702
	c-0.304,0.175-0.634,0.262-0.987,0.262c-0.354,0-0.681-0.087-0.983-0.262c-0.302-0.174-0.542-0.408-0.72-0.702
	c-0.18-0.294-0.27-0.616-0.27-0.964c0-0.343,0.09-0.659,0.27-0.951c0.179-0.291,0.418-0.523,0.72-0.694
	C39.946,58.009,40.273,57.923,40.626,57.923 M40.626,57.604c-0.416,0-0.799,0.099-1.149,0.297c-0.353,0.197-0.63,0.466-0.836,0.807
	c-0.206,0.341-0.308,0.714-0.308,1.119c0,0.406,0.102,0.781,0.308,1.124c0.206,0.342,0.483,0.614,0.836,0.815
	c0.351,0.2,0.733,0.3,1.149,0.3s0.801-0.1,1.154-0.3c0.354-0.201,0.634-0.474,0.838-0.815c0.206-0.343,0.309-0.718,0.309-1.124
	c0-0.404-0.104-0.777-0.309-1.119c-0.204-0.341-0.485-0.61-0.838-0.807C41.428,57.702,41.042,57.604,40.626,57.604 M33.418,62.034
	h0.32V59.99h2.926v2.044h0.327v-4.393h-0.327v2.037h-2.926v-2.037h-0.32V62.034z M30.431,56.996l0.328,0.054l0.991-0.804
	l-0.32-0.155L30.431,56.996z M29.237,62.034h2.989v-0.313h-2.668v-1.777h2.309v-0.306h-2.309v-1.692h2.583v-0.305h-2.903V62.034z
	 M26.32,59.585l1.802-1.943h-0.398l-2.589,2.762v-2.762h-0.32v4.393h0.32v-1.177l0.952-1.022l1.77,2.199h0.397L26.32,59.585z
	 M23.215,58.259l0.141-0.289c-0.177-0.109-0.38-0.198-0.609-0.265c-0.229-0.068-0.458-0.102-0.686-0.102
	c-0.448,0-0.807,0.099-1.077,0.293c-0.271,0.194-0.406,0.454-0.406,0.775c0,0.26,0.064,0.469,0.19,0.628
	c0.128,0.16,0.284,0.28,0.466,0.363c0.182,0.084,0.423,0.17,0.725,0.257c0.271,0.083,0.485,0.159,0.644,0.227
	c0.159,0.067,0.292,0.166,0.397,0.293c0.107,0.126,0.161,0.289,0.161,0.487c0,0.248-0.11,0.448-0.328,0.597
	c-0.219,0.147-0.512,0.223-0.881,0.223c-0.261,0-0.522-0.055-0.784-0.165c-0.264-0.108-0.488-0.257-0.675-0.443l-0.156,0.28
	c0.202,0.198,0.447,0.355,0.733,0.472c0.286,0.118,0.58,0.176,0.881,0.176c0.468,0,0.843-0.106,1.127-0.315
	c0.283-0.212,0.425-0.491,0.425-0.839c0-0.265-0.065-0.48-0.195-0.644c-0.13-0.163-0.288-0.288-0.472-0.375
	c-0.185-0.086-0.427-0.172-0.73-0.26c-0.27-0.084-0.481-0.159-0.635-0.227c-0.154-0.067-0.283-0.163-0.39-0.284
	c-0.107-0.123-0.16-0.281-0.16-0.472c0-0.224,0.103-0.402,0.309-0.535c0.204-0.132,0.476-0.199,0.815-0.199
	c0.187,0,0.389,0.032,0.604,0.094C22.865,58.071,23.054,58.155,23.215,58.259 M16.671,62.034h2.987v-0.313h-2.667v-1.777H19.3
	v-0.306h-2.309v-1.692h2.583v-0.305h-2.902V62.034z M13.464,55.755l-0.624-0.663H12.49l0.78,0.913h0.39l0.78-0.913h-0.352
	L13.464,55.755z M15.212,57.534l0.194-0.25c-0.26-0.234-0.555-0.417-0.885-0.546c-0.33-0.129-0.674-0.195-1.034-0.195
	c-0.51,0-0.979,0.125-1.412,0.37c-0.431,0.248-0.773,0.583-1.025,1.006c-0.252,0.424-0.378,0.886-0.378,1.386
	c0,0.498,0.125,0.96,0.378,1.384s0.594,0.759,1.025,1.005c0.432,0.248,0.902,0.371,1.412,0.371c0.359,0,0.707-0.067,1.041-0.202
	c0.336-0.136,0.632-0.324,0.886-0.563l-0.203-0.227c-0.234,0.215-0.499,0.378-0.792,0.495c-0.294,0.118-0.602,0.177-0.925,0.177
	c-0.453,0-0.87-0.111-1.251-0.332c-0.383-0.222-0.687-0.519-0.91-0.894C11.111,60.146,11,59.738,11,59.296s0.111-0.85,0.334-1.225
	c0.223-0.375,0.527-0.67,0.91-0.889c0.381-0.218,0.799-0.329,1.251-0.329c0.323,0,0.632,0.061,0.928,0.179
	C14.721,57.153,14.983,57.32,15.212,57.534"/>
<path fill="#B2B3B5" d="M68.467,46.04l-1.954,3.184l-1.994-3.184h-0.75l2.38,3.978v2.103h0.73v-2.124l2.338-3.957H68.467z
	 M58.963,46.671h1.995v5.45h0.729v-5.45h1.995V46.04h-4.72V46.671z M52.666,52.121h0.708v-4.967l3.679,4.967h0.73V46.04h-0.708
	v4.976l-3.68-4.976h-0.729V52.121z M48.301,46.801l1.385,3.153h-2.769L48.301,46.801z M51.422,52.121l-2.724-6.081h-0.751
	l-2.735,6.081h0.762l0.674-1.555h3.304l0.688,1.555H51.422z M37.757,52.121h0.675v-5.074l2.221,4.431h0.418l2.22-4.431v5.074h0.676
	V46.04h-0.88l-2.221,4.428l-2.23-4.428h-0.88V52.121z M33.391,46.801l1.385,3.153h-2.767L33.391,46.801z M36.513,52.121
	l-2.724-6.081h-0.75l-2.735,6.081h0.762l0.676-1.555h3.303l0.686,1.555H36.513z M28.329,52.121h0.729v-6.082h-0.729V52.121z
	 M22.912,51.455h-2.294v-6.167h2.262c0.573,0,1.097,0.137,1.572,0.409c0.475,0.271,0.853,0.643,1.131,1.114
	c0.279,0.473,0.418,0.995,0.418,1.567s-0.137,1.092-0.413,1.561c-0.276,0.467-0.648,0.838-1.121,1.11
	C23.997,51.32,23.477,51.455,22.912,51.455 M22.891,44.623h-3.014v7.498h2.993c0.723,0,1.38-0.164,1.973-0.494
	c0.593-0.329,1.061-0.779,1.399-1.351c0.339-0.571,0.509-1.204,0.509-1.898c0-0.693-0.17-1.329-0.509-1.904
	c-0.338-0.575-0.804-1.028-1.395-1.356C24.259,44.787,23.606,44.623,22.891,44.623"/>
<path fill="#FFFFFF" d="M61.237,13.647L43.771,33.01L26.302,13.647l6.849-8.701h21.454L61.237,13.647z M57.524,0.379H29.852
	l-9.933,12.968l23.851,26.34l23.85-26.34L57.524,0.379z"/>
<path fill="#B2B3B5" d="M43.77,32.445l16.975-18.818l-6.327-8.301H33.335l-6.537,8.305L43.77,32.445z M61.519,13.901L44.051,33.263
	l-0.281,0.312l-0.282-0.312L26.021,13.901l-0.213-0.237l0.197-0.25l6.848-8.701l0.115-0.145h0.183l20.615,0.299l0.118,0.05
	l1.003-0.01l0.161-0.024l0.115,0.149l6.373,8.386l0.19,0.251L61.519,13.901z M29.853,0h27.671h0.184l0.113,0.146l10.098,12.968
	l0.194,0.25L67.9,13.6L44.049,39.94L43.77,40.25l-0.281-0.309L19.64,13.6l-0.212-0.233l0.191-0.25L29.553,0.15L29.667,0H29.853z
	 M57.439,0.401l-0.784,0.003l-0.366-0.025l-26.25,0.379l-9.627,12.569L43.77,39.125l23.357-25.797L57.439,0.401z"/>
<polygon fill="#FFFFFF" points="29.853,0.379 19.919,13.347 43.77,39.687 43.77,33.01 26.303,13.647 33.151,4.947 "/>
<path fill="#B2B3B5" d="M29.852,0.379l3.299,4.567l20.996,0.026l2.878-4.626L29.852,0.379z M57.443,0.379L67.62,13.347l-23.85,26.34
	V33.01l17.467-19.362l-6.656-8.646L57.443,0.379z"/>
<path fill="#B2B3B5" d="M68.574,119.85v-4.148h-0.699v2.283c0,0.154-0.019,0.313-0.056,0.474c-0.036,0.161-0.098,0.309-0.186,0.443
	c-0.087,0.135-0.204,0.247-0.35,0.333c-0.146,0.087-0.328,0.132-0.551,0.132c-0.111,0-0.216-0.017-0.313-0.048
	c-0.099-0.032-0.183-0.084-0.255-0.155c-0.071-0.071-0.128-0.165-0.17-0.28c-0.043-0.117-0.063-0.261-0.063-0.429v-2.753h-0.698
	v2.982c0,0.248,0.041,0.455,0.123,0.618c0.081,0.164,0.188,0.297,0.321,0.398c0.132,0.1,0.277,0.169,0.437,0.209
	c0.158,0.04,0.314,0.06,0.469,0.06c0.332,0,0.598-0.063,0.796-0.187c0.199-0.124,0.372-0.308,0.521-0.552l0.017,0.017v0.603H68.574z
	 M63.021,117.248l1.587-1.547h-0.889l-1.785,1.752v-3.3H61.26v5.696h0.674v-1.57l0.578-0.524l1.294,2.095h0.896L63.021,117.248z
	 M60.307,116.883c0-0.054-0.014-0.149-0.039-0.29c-0.027-0.14-0.093-0.285-0.198-0.436c-0.106-0.151-0.265-0.284-0.477-0.401
	c-0.212-0.115-0.502-0.175-0.873-0.175c-0.205,0-0.403,0.027-0.591,0.08s-0.354,0.133-0.499,0.241s-0.263,0.246-0.35,0.412
	c-0.088,0.168-0.131,0.364-0.131,0.593c0,0.285,0.088,0.506,0.263,0.662c0.173,0.156,0.405,0.271,0.697,0.345l0.809,0.198
	c0.297,0.075,0.509,0.151,0.636,0.229c0.127,0.08,0.19,0.202,0.19,0.366c0,0.115-0.027,0.215-0.08,0.298
	c-0.053,0.081-0.123,0.148-0.21,0.201c-0.088,0.053-0.188,0.092-0.302,0.12c-0.113,0.025-0.234,0.039-0.36,0.039
	c-0.249,0-0.445-0.029-0.588-0.087c-0.143-0.059-0.251-0.13-0.324-0.215c-0.074-0.085-0.124-0.178-0.146-0.278
	c-0.025-0.1-0.04-0.189-0.045-0.27h-0.674c0.006,0.085,0.015,0.179,0.028,0.282c0.014,0.103,0.039,0.209,0.078,0.317
	c0.041,0.108,0.1,0.213,0.179,0.313c0.08,0.101,0.185,0.191,0.313,0.274c0.13,0.081,0.291,0.146,0.484,0.195
	c0.193,0.046,0.427,0.07,0.702,0.07c0.232,0,0.449-0.031,0.65-0.096c0.2-0.063,0.374-0.153,0.52-0.27
	c0.145-0.116,0.261-0.258,0.346-0.429c0.084-0.168,0.127-0.361,0.127-0.578c0-0.281-0.087-0.507-0.259-0.68
	c-0.171-0.171-0.474-0.31-0.908-0.415l-0.698-0.176c-0.138-0.031-0.253-0.063-0.35-0.095c-0.095-0.032-0.171-0.067-0.229-0.106
	c-0.06-0.04-0.103-0.088-0.132-0.143c-0.028-0.056-0.043-0.126-0.043-0.211c0-0.127,0.033-0.23,0.099-0.309
	c0.066-0.081,0.144-0.14,0.233-0.179c0.09-0.041,0.183-0.066,0.274-0.08c0.093-0.013,0.165-0.02,0.218-0.02
	c0.223,0,0.396,0.022,0.524,0.071c0.127,0.048,0.224,0.107,0.293,0.179c0.069,0.07,0.113,0.147,0.136,0.229
	c0.021,0.083,0.03,0.155,0.03,0.219H60.307z M55.689,118.549c-0.005,0.079-0.033,0.165-0.083,0.257
	c-0.051,0.094-0.122,0.183-0.215,0.267c-0.092,0.084-0.203,0.154-0.333,0.21s-0.275,0.084-0.439,0.084
	c-0.402,0-0.704-0.119-0.905-0.357c-0.2-0.239-0.301-0.573-0.301-1.008h3.03c0-0.364-0.037-0.696-0.111-0.995
	c-0.073-0.298-0.185-0.554-0.333-0.767c-0.148-0.211-0.333-0.373-0.556-0.487c-0.221-0.114-0.483-0.171-0.785-0.171
	c-0.344,0-0.642,0.061-0.893,0.179c-0.251,0.119-0.457,0.283-0.618,0.492c-0.162,0.209-0.282,0.453-0.361,0.733
	c-0.08,0.28-0.119,0.583-0.119,0.905c0,0.301,0.042,0.578,0.127,0.833c0.085,0.253,0.206,0.473,0.365,0.658
	c0.159,0.185,0.354,0.329,0.584,0.433c0.229,0.103,0.489,0.154,0.78,0.154c0.165,0,0.308-0.01,0.428-0.028
	c0.122-0.018,0.227-0.04,0.313-0.067c0.088-0.025,0.162-0.057,0.224-0.091c0.061-0.034,0.114-0.067,0.162-0.099
	c0.132-0.085,0.242-0.184,0.332-0.294s0.165-0.221,0.224-0.329c0.058-0.108,0.102-0.209,0.13-0.302
	c0.029-0.092,0.047-0.162,0.052-0.21H55.689z M53.413,117.446c0-0.159,0.03-0.314,0.091-0.464c0.061-0.151,0.143-0.283,0.246-0.396
	c0.104-0.115,0.226-0.206,0.364-0.274c0.141-0.069,0.291-0.104,0.449-0.104c0.211,0,0.388,0.035,0.53,0.104
	c0.144,0.068,0.26,0.159,0.35,0.274c0.09,0.113,0.156,0.245,0.198,0.396c0.043,0.149,0.069,0.305,0.08,0.464H53.413z
	 M49.113,112.479h-0.627l0.786,1.119h0.737l0.785-1.119H50.16l-0.523,0.737L49.113,112.479z M51.969,115.867
	c-0.026-0.238-0.095-0.47-0.206-0.694s-0.263-0.422-0.456-0.595s-0.43-0.312-0.71-0.417c-0.28-0.104-0.603-0.158-0.968-0.158
	c-0.413,0-0.785,0.072-1.115,0.219c-0.33,0.145-0.609,0.348-0.836,0.61c-0.229,0.262-0.403,0.573-0.523,0.937
	c-0.122,0.361-0.184,0.763-0.184,1.201c0,0.55,0.072,1.017,0.219,1.4c0.146,0.383,0.338,0.695,0.578,0.936
	c0.242,0.241,0.516,0.417,0.821,0.528c0.307,0.11,0.622,0.166,0.944,0.166c0.068,0,0.172-0.005,0.311-0.016
	c0.137-0.011,0.289-0.04,0.455-0.086c0.168-0.049,0.34-0.12,0.52-0.215c0.18-0.097,0.351-0.227,0.512-0.393
	c0.161-0.168,0.305-0.374,0.429-0.623c0.124-0.248,0.213-0.553,0.266-0.913h-0.746c-0.063,0.334-0.161,0.602-0.293,0.807
	c-0.133,0.203-0.276,0.36-0.433,0.471c-0.155,0.111-0.313,0.188-0.472,0.227s-0.302,0.06-0.429,0.06
	c-0.354,0-0.652-0.061-0.893-0.183c-0.24-0.121-0.436-0.288-0.583-0.5c-0.147-0.211-0.253-0.463-0.317-0.754
	c-0.063-0.29-0.095-0.602-0.095-0.936c0-0.376,0.049-0.706,0.146-0.988c0.099-0.282,0.231-0.519,0.401-0.705
	c0.168-0.188,0.365-0.33,0.59-0.425s0.467-0.143,0.727-0.143c0.137,0,0.289,0.015,0.452,0.043c0.163,0.029,0.321,0.086,0.472,0.171
	c0.151,0.085,0.287,0.204,0.408,0.36c0.122,0.156,0.209,0.358,0.262,0.607H51.969z M42.418,119.081h-0.016l-1.08-3.38h-0.809
	l1.515,4.148h0.746l1.578-4.148h-0.762L42.418,119.081z M37.641,115.208c-0.063-0.168-0.164-0.322-0.301-0.46
	c-0.137-0.137-0.315-0.251-0.535-0.342c-0.219-0.089-0.483-0.134-0.79-0.134c-0.333,0-0.608,0.054-0.824,0.159
	c-0.218,0.105-0.391,0.235-0.521,0.388c-0.129,0.154-0.219,0.32-0.27,0.501c-0.05,0.18-0.075,0.341-0.075,0.483
	c0,0.265,0.066,0.489,0.198,0.675c0.133,0.185,0.318,0.322,0.555,0.412c-0.295,0.122-0.526,0.292-0.694,0.512
	c-0.166,0.22-0.25,0.501-0.25,0.845c0,0.068,0.002,0.155,0.009,0.257c0.004,0.104,0.025,0.217,0.063,0.338
	c0.037,0.122,0.095,0.246,0.171,0.373c0.076,0.126,0.186,0.246,0.329,0.356c0.112,0.09,0.229,0.164,0.353,0.22
	c0.125,0.055,0.248,0.099,0.369,0.13c0.122,0.032,0.235,0.053,0.341,0.063c0.106,0.011,0.198,0.016,0.278,0.016
	c0.328,0,0.61-0.05,0.848-0.15c0.239-0.101,0.435-0.232,0.587-0.396c0.154-0.163,0.268-0.352,0.342-0.563
	c0.074-0.212,0.111-0.428,0.111-0.65c0-0.105-0.012-0.222-0.036-0.346c-0.025-0.124-0.07-0.248-0.139-0.373
	c-0.069-0.124-0.161-0.24-0.278-0.353c-0.116-0.111-0.27-0.206-0.459-0.285c0.063-0.031,0.136-0.073,0.218-0.124
	c0.081-0.049,0.16-0.119,0.233-0.209s0.137-0.203,0.186-0.337c0.05-0.136,0.076-0.303,0.076-0.505
	C37.737,115.544,37.705,115.378,37.641,115.208 M36.479,117.295c0.14,0.043,0.263,0.109,0.369,0.199s0.188,0.201,0.25,0.337
	c0.061,0.135,0.091,0.297,0.091,0.487c0,0.217-0.034,0.394-0.103,0.532c-0.069,0.138-0.158,0.245-0.266,0.321
	s-0.229,0.129-0.36,0.158c-0.133,0.028-0.262,0.043-0.389,0.043c-0.244,0-0.442-0.036-0.594-0.11
	c-0.154-0.074-0.274-0.166-0.362-0.278c-0.087-0.11-0.148-0.231-0.183-0.36c-0.034-0.129-0.052-0.25-0.052-0.36
	c0-0.127,0.022-0.253,0.068-0.377c0.044-0.125,0.114-0.235,0.21-0.334c0.095-0.098,0.215-0.176,0.361-0.233
	c0.145-0.058,0.316-0.088,0.512-0.088C36.189,117.231,36.338,117.253,36.479,117.295 M35.658,116.569
	c-0.117-0.04-0.222-0.098-0.314-0.171c-0.093-0.074-0.165-0.164-0.218-0.27c-0.053-0.105-0.079-0.226-0.079-0.357
	c0-0.089,0.012-0.185,0.039-0.285c0.026-0.101,0.074-0.194,0.143-0.281c0.069-0.088,0.164-0.16,0.286-0.219
	c0.122-0.058,0.274-0.087,0.46-0.087c0.206,0,0.375,0.026,0.507,0.084c0.133,0.056,0.239,0.124,0.318,0.205
	c0.08,0.083,0.135,0.173,0.166,0.27c0.032,0.099,0.048,0.189,0.048,0.274c0,0.254-0.09,0.467-0.27,0.639
	c-0.18,0.172-0.421,0.258-0.723,0.258C35.896,116.629,35.774,116.609,35.658,116.569 M32.271,114.272h-0.548
	c-0.058,0.229-0.125,0.409-0.202,0.543c-0.077,0.136-0.173,0.239-0.291,0.311c-0.115,0.071-0.256,0.119-0.419,0.146
	c-0.165,0.025-0.361,0.048-0.587,0.063v0.557h1.301v3.958h0.746V114.272z M28.101,118.778c-0.187,0.396-0.482,0.595-0.883,0.595
	c-0.403,0-0.697-0.198-0.885-0.595c-0.187-0.396-0.282-0.943-0.282-1.642c0-0.699,0.095-1.245,0.282-1.643
	c0.188-0.396,0.482-0.595,0.885-0.595c0.401,0,0.696,0.198,0.883,0.595c0.188,0.397,0.282,0.943,0.282,1.643
	C28.383,117.835,28.289,118.383,28.101,118.778 M29.053,116.2c-0.05-0.333-0.144-0.643-0.282-0.928
	c-0.138-0.286-0.33-0.524-0.579-0.714c-0.249-0.191-0.575-0.286-0.976-0.286c-0.403,0-0.728,0.095-0.977,0.286
	c-0.249,0.189-0.443,0.428-0.583,0.714c-0.141,0.285-0.234,0.595-0.282,0.928c-0.046,0.334-0.071,0.645-0.071,0.937
	c0,0.291,0.024,0.603,0.071,0.936c0.048,0.334,0.142,0.643,0.282,0.928c0.14,0.286,0.334,0.525,0.583,0.715
	c0.249,0.19,0.574,0.285,0.977,0.285c0.401,0,0.727-0.095,0.976-0.285c0.249-0.189,0.441-0.429,0.579-0.715
	c0.138-0.285,0.231-0.594,0.282-0.928c0.051-0.333,0.075-0.645,0.075-0.936C29.128,116.845,29.104,116.534,29.053,116.2
	 M21.647,116.271c0.005-0.095,0.017-0.221,0.036-0.377s0.065-0.308,0.139-0.456s0.185-0.274,0.333-0.381
	c0.148-0.105,0.353-0.158,0.618-0.158c0.207,0,0.38,0.032,0.52,0.095c0.14,0.063,0.255,0.145,0.342,0.243
	c0.087,0.097,0.149,0.205,0.186,0.324s0.055,0.233,0.055,0.345c0,0.186-0.025,0.341-0.075,0.465
	c-0.05,0.125-0.122,0.233-0.214,0.329c-0.092,0.095-0.2,0.183-0.325,0.262c-0.124,0.079-0.261,0.161-0.408,0.246l-0.739,0.429
	c-0.185,0.11-0.355,0.233-0.511,0.368c-0.156,0.135-0.293,0.292-0.409,0.469c-0.117,0.178-0.208,0.378-0.274,0.603
	s-0.104,0.483-0.115,0.773h3.816v-0.658h-3.031c0.005-0.053,0.024-0.119,0.056-0.198c0.032-0.08,0.083-0.167,0.15-0.263
	c0.069-0.095,0.165-0.194,0.287-0.298c0.121-0.102,0.277-0.206,0.468-0.312l0.579-0.318c0.207-0.11,0.401-0.223,0.583-0.337
	c0.182-0.113,0.34-0.243,0.476-0.386c0.134-0.143,0.24-0.306,0.317-0.491c0.077-0.186,0.115-0.401,0.115-0.65
	c0-0.259-0.044-0.491-0.134-0.698c-0.091-0.207-0.216-0.381-0.373-0.522c-0.159-0.144-0.345-0.253-0.556-0.33
	c-0.212-0.076-0.438-0.115-0.682-0.115c-0.101,0-0.218,0.008-0.353,0.023c-0.134,0.017-0.273,0.047-0.417,0.092
	c-0.143,0.045-0.283,0.113-0.421,0.203c-0.137,0.089-0.261,0.208-0.373,0.356c-0.111,0.147-0.2,0.33-0.266,0.547
	c-0.065,0.218-0.098,0.476-0.098,0.777H21.647z"/>
<path fill="#B2B3B5" d="M62.199,104.88v3.604c0,0.312-0.046,0.568-0.136,0.769c-0.09,0.201-0.205,0.36-0.349,0.477
	c-0.143,0.116-0.304,0.198-0.483,0.245c-0.18,0.048-0.357,0.071-0.531,0.071c-0.175,0-0.349-0.023-0.52-0.071
	c-0.173-0.047-0.327-0.131-0.464-0.253c-0.139-0.122-0.249-0.283-0.334-0.484c-0.085-0.2-0.127-0.458-0.127-0.77v-3.587h-0.771
	v3.801c0,0.265,0.043,0.52,0.128,0.767c0.084,0.246,0.216,0.464,0.393,0.654c0.178,0.189,0.404,0.343,0.683,0.455
	c0.277,0.115,0.606,0.172,0.986,0.172c0.392,0,0.731-0.057,1.021-0.172c0.288-0.112,0.525-0.268,0.714-0.464
	c0.188-0.195,0.328-0.424,0.42-0.686c0.094-0.262,0.14-0.539,0.14-0.829v-3.698H62.199z M57.327,106.547
	c-0.01-0.158-0.038-0.342-0.082-0.552c-0.046-0.209-0.143-0.407-0.295-0.594c-0.149-0.188-0.371-0.348-0.662-0.477
	c-0.29-0.129-0.684-0.194-1.182-0.194c-0.344,0-0.64,0.05-0.889,0.149c-0.248,0.102-0.452,0.233-0.611,0.398
	c-0.157,0.163-0.274,0.351-0.348,0.563c-0.074,0.211-0.111,0.428-0.111,0.65c0,0.249,0.046,0.453,0.138,0.615
	c0.094,0.16,0.203,0.292,0.33,0.392c0.127,0.102,0.259,0.177,0.396,0.227c0.138,0.051,0.253,0.087,0.35,0.107l1.165,0.27
	c0.232,0.059,0.428,0.115,0.584,0.171s0.28,0.121,0.372,0.194c0.093,0.074,0.159,0.163,0.198,0.267
	c0.04,0.102,0.06,0.229,0.06,0.376c0,0.206-0.051,0.372-0.154,0.496s-0.229,0.221-0.381,0.289c-0.15,0.069-0.313,0.115-0.487,0.14
	c-0.175,0.023-0.331,0.035-0.468,0.035c-0.187,0-0.371-0.021-0.556-0.063c-0.186-0.042-0.353-0.114-0.505-0.218
	c-0.149-0.104-0.272-0.239-0.367-0.408c-0.097-0.17-0.143-0.385-0.143-0.644h-0.723c0,0.271,0.035,0.522,0.106,0.758
	s0.229,0.465,0.472,0.687c0.063,0.058,0.139,0.119,0.227,0.183c0.087,0.063,0.198,0.123,0.333,0.178
	c0.135,0.056,0.296,0.102,0.484,0.136s0.413,0.052,0.678,0.052c0.244,0,0.496-0.027,0.759-0.08c0.261-0.053,0.502-0.144,0.721-0.273
	c0.221-0.129,0.4-0.306,0.54-0.528c0.14-0.222,0.21-0.502,0.21-0.84c0-0.229-0.033-0.427-0.099-0.595
	c-0.066-0.17-0.156-0.316-0.27-0.441c-0.114-0.124-0.25-0.226-0.409-0.305c-0.158-0.08-0.331-0.141-0.516-0.184l-1.627-0.372
	c-0.084-0.021-0.166-0.048-0.245-0.079c-0.079-0.032-0.151-0.075-0.214-0.131c-0.063-0.056-0.116-0.124-0.155-0.206
	s-0.059-0.185-0.059-0.306c0-0.217,0.044-0.391,0.134-0.52c0.09-0.13,0.201-0.23,0.334-0.302c0.132-0.071,0.273-0.119,0.424-0.143
	s0.287-0.036,0.409-0.036c0.159,0,0.32,0.019,0.483,0.056c0.164,0.037,0.313,0.102,0.448,0.191c0.136,0.089,0.246,0.208,0.334,0.356
	c0.087,0.147,0.135,0.332,0.146,0.555H57.327z M50.307,108.285l2.15-3.405h-0.904l-1.635,2.738l-1.633-2.738h-0.898l2.15,3.405
	v2.292h0.77V108.285z M45.928,109.482h-0.017l-2.848-4.603h-0.913v5.697h0.746v-4.601h0.016l2.896,4.601h0.865v-5.697h-0.746
	V109.482z M41.366,109.895h-3.506l3.506-4.347v-0.668h-4.22v0.684h3.229l-3.491,4.371v0.643h4.483V109.895z M34.44,108.285
	l2.15-3.405h-0.905l-1.635,2.738l-1.633-2.738h-0.897l2.15,3.405v2.292h0.769V108.285z M27.475,105.539h1.396
	c0.429,0,0.734,0.071,0.914,0.214s0.27,0.35,0.27,0.619c0,0.35-0.105,0.59-0.317,0.723c-0.212,0.132-0.502,0.198-0.873,0.198h-1.389
	V105.539z M26.705,110.577h2.451c0.318,0,0.597-0.045,0.837-0.135c0.241-0.09,0.442-0.211,0.603-0.365
	c0.161-0.152,0.284-0.331,0.369-0.535c0.085-0.203,0.127-0.419,0.127-0.646c0-0.243-0.036-0.445-0.107-0.606
	c-0.072-0.162-0.161-0.295-0.266-0.397c-0.106-0.103-0.218-0.184-0.337-0.242c-0.118-0.058-0.225-0.105-0.321-0.143
	c0.159-0.074,0.287-0.159,0.385-0.258c0.098-0.098,0.175-0.199,0.23-0.306c0.055-0.105,0.093-0.213,0.114-0.321
	s0.032-0.21,0.032-0.306c0-0.195-0.035-0.379-0.104-0.551s-0.17-0.324-0.305-0.457c-0.134-0.132-0.303-0.236-0.503-0.313
	c-0.202-0.076-0.435-0.116-0.698-0.116h-2.507V110.577z M27.475,107.919h1.515c0.159,0,0.318,0.013,0.476,0.036
	c0.159,0.023,0.302,0.071,0.429,0.144c0.127,0.07,0.23,0.169,0.309,0.293c0.08,0.125,0.119,0.287,0.119,0.487
	c0,0.318-0.101,0.57-0.301,0.758c-0.201,0.188-0.502,0.281-0.905,0.281h-1.642V107.919z"/>
<path fill="#B2B3B5" d="M84.611,99.381c-0.091,0.283-0.222,0.528-0.393,0.734c-0.173,0.206-0.382,0.367-0.628,0.482
	c-0.246,0.117-0.521,0.176-0.828,0.176c-0.313,0-0.59-0.059-0.833-0.176c-0.244-0.115-0.451-0.276-0.623-0.482
	c-0.173-0.206-0.303-0.451-0.393-0.734c-0.09-0.282-0.136-0.591-0.136-0.924c0-0.334,0.046-0.642,0.136-0.925
	s0.22-0.528,0.393-0.733c0.172-0.207,0.379-0.368,0.623-0.483c0.243-0.117,0.521-0.175,0.833-0.175c0.307,0,0.582,0.058,0.828,0.175
	c0.246,0.115,0.455,0.276,0.628,0.483c0.171,0.205,0.302,0.45,0.393,0.733c0.09,0.283,0.134,0.591,0.134,0.925
	C84.745,98.79,84.701,99.099,84.611,99.381 M85.479,97.806c-0.04-0.227-0.103-0.451-0.19-0.673
	c-0.087-0.223-0.201-0.436-0.342-0.636c-0.14-0.2-0.313-0.379-0.52-0.535c-0.205-0.156-0.447-0.279-0.721-0.369
	c-0.276-0.09-0.59-0.135-0.944-0.135s-0.67,0.045-0.944,0.135c-0.275,0.09-0.516,0.213-0.723,0.369
	c-0.205,0.156-0.379,0.335-0.52,0.535c-0.14,0.2-0.253,0.413-0.341,0.636c-0.087,0.222-0.151,0.446-0.19,0.673
	c-0.04,0.228-0.06,0.444-0.06,0.651c0,0.206,0.02,0.423,0.06,0.651c0.039,0.226,0.104,0.451,0.19,0.673
	c0.088,0.223,0.201,0.435,0.341,0.635c0.141,0.201,0.314,0.379,0.52,0.535c0.207,0.157,0.447,0.28,0.723,0.37
	c0.274,0.09,0.59,0.134,0.944,0.134s0.668-0.044,0.944-0.134c0.273-0.09,0.516-0.213,0.721-0.37c0.207-0.156,0.38-0.334,0.52-0.535
	c0.141-0.2,0.255-0.412,0.342-0.635c0.088-0.222,0.15-0.447,0.19-0.673c0.04-0.229,0.06-0.445,0.06-0.651
	C85.539,98.25,85.52,98.033,85.479,97.806 M78.303,97.965h-2.975v-2.356h-0.77v5.696h0.77v-2.657h2.975v2.657h0.771v-5.696h-0.771
	V97.965z M72.512,93.935h-0.856l-0.706,1.118h0.531L72.512,93.935z M73.543,100.623h-3.435v-1.904h3.117v-0.684h-3.117V96.29h3.38
	v-0.682h-4.149v5.696h4.204V100.623z M64.738,99.306l0.896-0.856l1.992,2.855h0.999l-2.436-3.396l2.371-2.301h-1.062l-2.761,2.761
	v-2.761h-0.771v5.696h0.771V99.306z M62.834,97.275c-0.011-0.159-0.039-0.344-0.084-0.552c-0.045-0.209-0.143-0.407-0.294-0.596
	c-0.15-0.187-0.37-0.346-0.662-0.476c-0.291-0.13-0.685-0.194-1.182-0.194c-0.345,0-0.64,0.05-0.889,0.15
	c-0.249,0.102-0.452,0.233-0.61,0.396c-0.159,0.165-0.275,0.353-0.35,0.563c-0.074,0.212-0.11,0.429-0.11,0.65
	c0,0.25,0.045,0.454,0.139,0.615c0.092,0.161,0.202,0.292,0.329,0.393c0.126,0.101,0.259,0.176,0.396,0.227
	c0.139,0.051,0.255,0.086,0.35,0.107l1.166,0.269c0.233,0.059,0.427,0.115,0.583,0.172c0.156,0.056,0.281,0.119,0.373,0.192
	c0.093,0.075,0.159,0.164,0.198,0.267c0.041,0.104,0.061,0.229,0.061,0.378c0,0.205-0.052,0.37-0.155,0.494
	c-0.104,0.125-0.23,0.222-0.38,0.291c-0.151,0.069-0.314,0.114-0.489,0.138c-0.175,0.024-0.329,0.035-0.468,0.035
	c-0.186,0-0.37-0.02-0.555-0.062c-0.186-0.042-0.354-0.116-0.505-0.219c-0.15-0.103-0.273-0.24-0.368-0.408
	c-0.096-0.17-0.143-0.385-0.143-0.643h-0.723c0,0.27,0.036,0.521,0.107,0.757s0.229,0.464,0.473,0.688
	c0.063,0.058,0.138,0.117,0.225,0.182c0.088,0.063,0.198,0.123,0.334,0.179c0.136,0.055,0.297,0.101,0.483,0.135
	c0.188,0.033,0.414,0.051,0.679,0.051c0.243,0,0.496-0.025,0.758-0.079c0.263-0.053,0.502-0.144,0.722-0.273s0.4-0.307,0.54-0.527
	c0.141-0.223,0.211-0.502,0.211-0.841c0-0.228-0.033-0.426-0.1-0.596c-0.066-0.169-0.156-0.315-0.271-0.439
	s-0.249-0.227-0.408-0.307c-0.159-0.078-0.331-0.139-0.516-0.183l-1.626-0.372c-0.085-0.021-0.167-0.047-0.246-0.079
	c-0.08-0.031-0.151-0.075-0.214-0.132c-0.064-0.056-0.116-0.123-0.155-0.205c-0.039-0.083-0.06-0.184-0.06-0.306
	c0-0.216,0.045-0.39,0.135-0.52c0.09-0.131,0.201-0.23,0.333-0.301c0.132-0.072,0.273-0.12,0.425-0.144
	c0.15-0.024,0.287-0.035,0.409-0.035c0.158,0,0.319,0.018,0.483,0.056c0.164,0.036,0.313,0.1,0.448,0.189
	c0.135,0.089,0.246,0.209,0.333,0.356c0.088,0.149,0.136,0.333,0.146,0.557H62.834z M57.67,100.623h-3.436v-1.904h3.117v-0.684
	h-3.117V96.29h3.379v-0.682h-4.149v5.696h4.206V100.623z M49.545,93.935h-0.627l0.785,1.118h0.739l0.785-1.118h-0.636l-0.522,0.737
	L49.545,93.935z M52.401,97.322c-0.027-0.238-0.096-0.47-0.207-0.694c-0.11-0.224-0.263-0.422-0.455-0.595
	c-0.193-0.172-0.431-0.312-0.71-0.417c-0.281-0.104-0.604-0.158-0.969-0.158c-0.412,0-0.784,0.073-1.113,0.219
	c-0.332,0.145-0.611,0.348-0.838,0.61c-0.228,0.262-0.402,0.573-0.524,0.937c-0.122,0.362-0.183,0.763-0.183,1.201
	c0,0.551,0.073,1.017,0.219,1.401c0.145,0.382,0.338,0.694,0.58,0.935c0.239,0.241,0.514,0.417,0.82,0.528
	c0.307,0.11,0.621,0.166,0.944,0.166c0.069,0,0.172-0.005,0.309-0.015c0.138-0.011,0.291-0.041,0.457-0.088
	c0.166-0.048,0.34-0.119,0.52-0.214c0.18-0.096,0.351-0.227,0.512-0.393c0.161-0.167,0.304-0.374,0.429-0.623
	c0.124-0.248,0.213-0.553,0.266-0.913h-0.746c-0.063,0.334-0.161,0.602-0.293,0.807c-0.133,0.202-0.276,0.36-0.433,0.471
	s-0.313,0.188-0.472,0.227c-0.159,0.04-0.302,0.06-0.429,0.06c-0.354,0-0.652-0.061-0.892-0.183
	c-0.242-0.121-0.437-0.288-0.584-0.499c-0.148-0.213-0.254-0.463-0.318-0.755c-0.063-0.291-0.094-0.602-0.094-0.936
	c0-0.375,0.048-0.705,0.146-0.988c0.097-0.281,0.23-0.519,0.4-0.705c0.17-0.188,0.366-0.33,0.592-0.425
	c0.224-0.095,0.467-0.143,0.725-0.143c0.138,0,0.289,0.015,0.453,0.043c0.163,0.029,0.321,0.086,0.472,0.171s0.286,0.204,0.408,0.36
	s0.209,0.358,0.262,0.607H52.401z M42.588,99.012l2.149-3.403h-0.904l-1.634,2.738l-1.635-2.738h-0.896l2.149,3.403v2.293h0.771
	V99.012z M34.82,96.29h1.929v5.015h0.77V96.29h1.927v-0.682H34.82V96.29z M33.362,100.209h-0.016l-2.848-4.601h-0.914v5.696h0.746
	v-4.601h0.016l2.896,4.601h0.864v-5.696h-0.745V100.209z M27.475,99.646l0.564,1.658h0.84l-2.063-5.696h-0.873l-2.142,5.696h0.792
	l0.596-1.658H27.475z M25.428,98.965l0.912-2.507h0.016l0.841,2.507H25.428z M23.119,101.305v-5.696h-1.094l-1.618,4.816H20.39
	l-1.626-4.816h-1.103v5.696h0.746v-3.363c0-0.042-0.001-0.114-0.003-0.219c-0.004-0.103-0.005-0.221-0.005-0.353
	s-0.001-0.272-0.003-0.421c-0.002-0.147-0.004-0.288-0.004-0.42h0.016l1.603,4.775h0.762l1.603-4.784h0.015
	c0,0.133-0.001,0.273-0.003,0.421c-0.002,0.148-0.003,0.291-0.003,0.429c0,0.132-0.001,0.25-0.004,0.353
	c-0.003,0.104-0.004,0.177-0.004,0.219v3.363H23.119z M15.575,99.646l0.563,1.658h0.842l-2.063-5.696h-0.873l-2.143,5.696h0.794
	l0.595-1.658H15.575z M13.528,98.965l0.912-2.507h0.016l0.841,2.507H13.528z M11.076,95.608h-0.769v5.696h0.769V95.608z
	 M4.5,101.305h2.277c0.465,0,0.854-0.092,1.166-0.278c0.313-0.184,0.562-0.42,0.75-0.705c0.188-0.285,0.32-0.602,0.397-0.948
	c0.076-0.347,0.114-0.679,0.114-0.995c0-0.413-0.055-0.789-0.166-1.128c-0.112-0.338-0.271-0.629-0.477-0.872
	c-0.207-0.243-0.458-0.433-0.753-0.567c-0.297-0.134-0.63-0.202-1.001-0.202H4.5V101.305z M5.27,96.267h1.436
	c0.523,0,0.938,0.181,1.246,0.539c0.307,0.361,0.459,0.9,0.459,1.619c0,0.725-0.149,1.276-0.448,1.654
	c-0.299,0.378-0.699,0.567-1.201,0.567H5.27V96.267z"/>
<path fill="#B2B3B5" d="M75.841,92.032v-4.148h-0.699v2.284c0,0.153-0.019,0.312-0.056,0.473c-0.036,0.161-0.098,0.309-0.186,0.444
	c-0.087,0.134-0.204,0.245-0.35,0.332S74.223,91.549,74,91.549c-0.111,0-0.216-0.016-0.313-0.048
	c-0.099-0.032-0.183-0.084-0.255-0.155c-0.071-0.071-0.128-0.165-0.17-0.28c-0.043-0.117-0.063-0.26-0.063-0.429v-2.753H72.5v2.982
	c0,0.248,0.041,0.455,0.123,0.619c0.081,0.163,0.188,0.296,0.321,0.396c0.132,0.101,0.278,0.17,0.436,0.21
	c0.159,0.04,0.315,0.061,0.47,0.061c0.332,0,0.598-0.063,0.796-0.188c0.199-0.124,0.372-0.308,0.521-0.552l0.017,0.017v0.603H75.841
	z M71.43,86.336h-0.698v5.696h0.698V86.336z M69.668,92.032v-4.148h-0.697v2.284c0,0.153-0.019,0.312-0.056,0.473
	s-0.1,0.309-0.188,0.444c-0.087,0.134-0.203,0.245-0.348,0.332c-0.147,0.087-0.33,0.132-0.552,0.132
	c-0.112,0-0.217-0.016-0.314-0.048s-0.182-0.084-0.253-0.155s-0.128-0.165-0.171-0.28c-0.042-0.117-0.063-0.26-0.063-0.429v-2.753
	h-0.698v2.982c0,0.248,0.041,0.455,0.123,0.619c0.082,0.163,0.189,0.296,0.321,0.396c0.133,0.101,0.277,0.17,0.437,0.21
	s0.313,0.061,0.468,0.061c0.333,0,0.6-0.063,0.798-0.188s0.371-0.308,0.519-0.552l0.017,0.017v0.603H69.668z M65.622,88.462v-0.578
	h-0.667v-1.158h-0.697v1.158h-0.564v0.578h0.564v2.737c0,0.127,0.012,0.245,0.035,0.354s0.066,0.201,0.127,0.281
	c0.062,0.079,0.146,0.142,0.255,0.187c0.108,0.045,0.25,0.067,0.423,0.067c0.037,0,0.103-0.006,0.195-0.02
	c0.092-0.014,0.203-0.026,0.329-0.036v-0.547h-0.246c-0.037,0-0.08-0.002-0.127-0.005c-0.048-0.002-0.095-0.014-0.139-0.035
	c-0.046-0.021-0.082-0.054-0.11-0.1c-0.03-0.044-0.045-0.107-0.045-0.186v-2.698H65.622z M63.051,87.884h-0.697v4.148h0.697V87.884z
	 M63.051,86.336h-0.697v0.794h0.697V86.336z M61.655,88.462v-0.578h-0.666v-1.158H60.29v1.158h-0.563v0.578h0.563v2.737
	c0,0.127,0.013,0.245,0.036,0.354c0.024,0.108,0.066,0.201,0.128,0.281c0.061,0.079,0.146,0.142,0.254,0.187
	s0.249,0.067,0.425,0.067c0.036,0,0.101-0.006,0.194-0.02c0.092-0.014,0.201-0.026,0.328-0.036v-0.547h-0.246
	c-0.037,0-0.078-0.002-0.127-0.005c-0.048-0.002-0.094-0.014-0.139-0.035c-0.044-0.021-0.081-0.054-0.111-0.1
	c-0.029-0.044-0.043-0.107-0.043-0.186v-2.698H61.655z M56.88,87.884h-0.698v4.148h0.698V87.884z M56.88,86.336h-0.698v0.794h0.698
	V86.336z M55.118,86.336h-0.697v5.696h0.697V86.336z M52.818,90.731c-0.006,0.079-0.033,0.165-0.084,0.258s-0.122,0.182-0.214,0.266
	c-0.093,0.084-0.203,0.155-0.334,0.21c-0.129,0.056-0.275,0.084-0.439,0.084c-0.402,0-0.704-0.119-0.904-0.357
	c-0.201-0.238-0.302-0.574-0.302-1.008h3.03c0-0.364-0.037-0.696-0.11-0.995c-0.074-0.299-0.186-0.554-0.334-0.767
	c-0.147-0.211-0.332-0.373-0.555-0.487c-0.222-0.114-0.484-0.171-0.785-0.171c-0.344,0-0.642,0.061-0.893,0.179
	c-0.251,0.12-0.458,0.283-0.619,0.492c-0.162,0.209-0.282,0.453-0.361,0.733c-0.08,0.281-0.119,0.583-0.119,0.905
	c0,0.302,0.042,0.578,0.127,0.833c0.085,0.254,0.207,0.473,0.365,0.658c0.159,0.186,0.354,0.329,0.584,0.433
	c0.229,0.103,0.49,0.155,0.78,0.155c0.165,0,0.308-0.011,0.429-0.029c0.121-0.018,0.226-0.04,0.313-0.067
	c0.087-0.025,0.161-0.057,0.223-0.091c0.061-0.034,0.114-0.067,0.162-0.099c0.132-0.085,0.243-0.183,0.333-0.294
	s0.164-0.22,0.223-0.328c0.058-0.108,0.102-0.21,0.13-0.303c0.03-0.092,0.047-0.162,0.052-0.21H52.818z M50.541,89.629
	c0-0.159,0.031-0.314,0.091-0.464c0.061-0.151,0.143-0.283,0.246-0.396c0.104-0.115,0.226-0.206,0.364-0.274
	c0.141-0.069,0.291-0.104,0.449-0.104c0.211,0,0.389,0.034,0.531,0.104c0.144,0.068,0.259,0.159,0.35,0.274
	c0.09,0.113,0.156,0.245,0.198,0.396c0.042,0.149,0.068,0.305,0.079,0.464H50.541z M49.311,88.462v-0.578h-0.665v-1.158h-0.699
	v1.158h-0.563v0.578h0.563v2.737c0,0.127,0.013,0.245,0.036,0.354c0.024,0.108,0.066,0.201,0.127,0.281
	c0.061,0.079,0.146,0.142,0.254,0.187c0.108,0.045,0.25,0.067,0.426,0.067c0.036,0,0.1-0.006,0.192-0.02
	c0.094-0.014,0.203-0.026,0.329-0.036v-0.547h-0.245c-0.037,0-0.079-0.002-0.127-0.005c-0.048-0.002-0.094-0.014-0.14-0.035
	c-0.043-0.021-0.08-0.054-0.11-0.1c-0.029-0.044-0.043-0.107-0.043-0.186v-2.698H49.311z M46.741,87.884h-0.698v4.148h0.698V87.884z
	 M46.741,86.336h-0.698v0.794h0.698V86.336z M43.004,86.209h-0.626l0.785,1.119h0.722l0.785-1.119h-0.634l-0.516,0.738
	L43.004,86.209z M45.194,88.454v-0.57H41.98v0.578h2.309l-2.499,3.023v0.547h3.475v-0.579h-2.546L45.194,88.454z M40.212,89.62
	c0-0.148,0.024-0.289,0.075-0.424c0.051-0.135,0.122-0.255,0.214-0.356c0.092-0.104,0.205-0.185,0.334-0.242
	c0.129-0.059,0.275-0.088,0.44-0.088h0.261v-0.721c-0.026-0.012-0.053-0.018-0.079-0.021c-0.027-0.002-0.061-0.004-0.104-0.004
	c-0.265,0-0.49,0.074-0.678,0.224c-0.188,0.147-0.351,0.343-0.487,0.587h-0.016v-0.69h-0.659v4.148h0.698V89.62z M38.451,86.336
	h-0.698v2.135h-0.016c-0.042-0.059-0.095-0.128-0.159-0.211c-0.063-0.082-0.144-0.16-0.243-0.233
	c-0.097-0.074-0.214-0.137-0.348-0.188c-0.136-0.049-0.298-0.075-0.489-0.075c-0.274,0-0.52,0.054-0.734,0.159
	c-0.214,0.105-0.395,0.252-0.542,0.44c-0.149,0.188-0.261,0.407-0.337,0.659c-0.078,0.25-0.116,0.521-0.116,0.812
	c0,0.25,0.03,0.51,0.087,0.782c0.058,0.273,0.157,0.522,0.298,0.749c0.141,0.228,0.326,0.416,0.559,0.564
	c0.233,0.147,0.527,0.223,0.882,0.223c0.1,0,0.204-0.011,0.312-0.029c0.108-0.018,0.214-0.054,0.318-0.106s0.203-0.123,0.298-0.21
	c0.095-0.088,0.18-0.203,0.253-0.346h0.016v0.571h0.659V86.336z M35.515,89.478c0.016-0.18,0.063-0.35,0.139-0.511
	c0.077-0.161,0.191-0.298,0.341-0.408c0.151-0.111,0.36-0.168,0.631-0.168c0.254,0,0.454,0.061,0.602,0.179
	c0.149,0.119,0.261,0.27,0.337,0.448c0.078,0.181,0.125,0.372,0.148,0.575c0.021,0.203,0.031,0.391,0.031,0.56
	c0,0.275-0.038,0.503-0.115,0.683c-0.076,0.18-0.172,0.322-0.285,0.429c-0.115,0.105-0.236,0.18-0.369,0.222
	c-0.132,0.043-0.254,0.063-0.365,0.063c-0.191,0-0.355-0.04-0.496-0.123c-0.14-0.082-0.257-0.194-0.35-0.337
	s-0.161-0.313-0.205-0.509c-0.046-0.195-0.068-0.406-0.068-0.634C35.492,89.813,35.499,89.658,35.515,89.478 M31.216,90.731
	c-0.006,0.079-0.033,0.165-0.084,0.258c-0.05,0.093-0.122,0.182-0.214,0.266s-0.203,0.155-0.334,0.21
	c-0.129,0.056-0.275,0.084-0.439,0.084c-0.403,0-0.704-0.119-0.905-0.357c-0.202-0.238-0.302-0.574-0.302-1.008h3.03
	c0-0.364-0.037-0.696-0.111-0.995s-0.186-0.554-0.333-0.767c-0.148-0.211-0.334-0.373-0.556-0.487
	c-0.223-0.114-0.483-0.171-0.785-0.171c-0.344,0-0.641,0.061-0.893,0.179c-0.25,0.12-0.458,0.283-0.619,0.492
	s-0.282,0.453-0.361,0.733c-0.08,0.281-0.119,0.583-0.119,0.905c0,0.302,0.042,0.578,0.126,0.833
	c0.085,0.254,0.207,0.473,0.366,0.658c0.159,0.186,0.352,0.329,0.582,0.433c0.23,0.103,0.491,0.155,0.782,0.155
	c0.164,0,0.307-0.011,0.428-0.029c0.122-0.018,0.227-0.04,0.314-0.067c0.087-0.025,0.161-0.057,0.222-0.091
	c0.062-0.034,0.116-0.067,0.164-0.099c0.132-0.085,0.243-0.183,0.333-0.294s0.164-0.22,0.223-0.328
	c0.058-0.108,0.101-0.21,0.13-0.303c0.029-0.092,0.047-0.162,0.052-0.21H31.216z M28.938,89.629c0-0.159,0.031-0.314,0.091-0.464
	c0.06-0.151,0.143-0.283,0.246-0.396c0.104-0.115,0.224-0.206,0.364-0.274c0.141-0.069,0.291-0.104,0.448-0.104
	c0.212,0,0.389,0.034,0.532,0.104c0.143,0.068,0.26,0.159,0.349,0.274c0.09,0.113,0.156,0.245,0.198,0.396
	c0.042,0.149,0.069,0.305,0.08,0.464H28.938z M21.783,92.032h0.698v-2.261c0-0.28,0.038-0.511,0.116-0.69
	c0.076-0.18,0.17-0.321,0.281-0.425c0.112-0.103,0.23-0.172,0.358-0.209c0.127-0.037,0.24-0.057,0.341-0.057
	c0.126,0,0.232,0.024,0.317,0.071c0.083,0.048,0.151,0.109,0.202,0.184c0.05,0.073,0.085,0.157,0.104,0.25
	c0.019,0.092,0.027,0.181,0.027,0.266v2.871h0.698v-2.53c0-0.138,0.024-0.274,0.071-0.409c0.048-0.135,0.114-0.253,0.199-0.356
	c0.084-0.104,0.186-0.187,0.305-0.25c0.118-0.064,0.252-0.096,0.4-0.096c0.297,0,0.499,0.088,0.607,0.266s0.163,0.409,0.163,0.694
	v2.682h0.699v-2.871c0-0.292-0.047-0.528-0.139-0.71c-0.092-0.184-0.206-0.324-0.337-0.425c-0.133-0.102-0.272-0.17-0.421-0.207
	c-0.147-0.037-0.277-0.056-0.389-0.056c-0.158,0-0.298,0.018-0.419,0.052c-0.123,0.035-0.23,0.082-0.326,0.14
	c-0.096,0.058-0.186,0.129-0.271,0.214c-0.083,0.085-0.168,0.175-0.253,0.27c-0.032-0.053-0.072-0.119-0.118-0.198
	c-0.048-0.08-0.114-0.153-0.2-0.223c-0.083-0.067-0.189-0.128-0.316-0.179c-0.128-0.049-0.283-0.075-0.469-0.075
	c-0.185,0-0.347,0.027-0.487,0.08c-0.14,0.054-0.261,0.115-0.361,0.189c-0.101,0.075-0.185,0.153-0.25,0.234
	c-0.066,0.082-0.118,0.15-0.155,0.203h-0.016v-0.587h-0.658V92.032z M20.846,89.065c0-0.053-0.012-0.149-0.039-0.29
	c-0.026-0.14-0.092-0.285-0.198-0.437c-0.106-0.15-0.265-0.283-0.477-0.399c-0.211-0.116-0.502-0.176-0.873-0.176
	c-0.206,0-0.402,0.027-0.591,0.08c-0.187,0.054-0.354,0.133-0.5,0.241c-0.146,0.108-0.262,0.246-0.35,0.412
	c-0.086,0.168-0.13,0.364-0.13,0.593c0,0.285,0.087,0.506,0.262,0.662s0.407,0.271,0.698,0.345l0.809,0.198
	c0.297,0.075,0.508,0.151,0.635,0.23s0.191,0.201,0.191,0.365c0,0.115-0.027,0.215-0.08,0.297s-0.124,0.149-0.21,0.202
	c-0.086,0.054-0.188,0.093-0.301,0.12c-0.114,0.025-0.235,0.039-0.362,0.039c-0.249,0-0.444-0.029-0.587-0.088
	c-0.143-0.058-0.251-0.129-0.325-0.214c-0.074-0.085-0.123-0.177-0.147-0.278c-0.024-0.1-0.038-0.189-0.044-0.269h-0.675
	c0.006,0.084,0.015,0.178,0.028,0.281c0.014,0.104,0.04,0.209,0.079,0.317c0.041,0.108,0.1,0.213,0.18,0.313
	c0.079,0.101,0.183,0.192,0.313,0.274c0.129,0.081,0.291,0.146,0.484,0.195c0.193,0.046,0.427,0.071,0.703,0.071
	c0.232,0,0.449-0.032,0.65-0.097c0.202-0.063,0.374-0.152,0.52-0.27c0.146-0.116,0.261-0.258,0.346-0.428
	c0.085-0.169,0.127-0.362,0.127-0.579c0-0.28-0.086-0.507-0.257-0.68c-0.172-0.171-0.475-0.31-0.91-0.415l-0.698-0.175
	c-0.138-0.032-0.254-0.063-0.349-0.096c-0.096-0.031-0.172-0.067-0.23-0.106c-0.059-0.039-0.102-0.087-0.131-0.143
	c-0.029-0.056-0.043-0.126-0.043-0.211c0-0.127,0.033-0.229,0.099-0.309c0.066-0.08,0.145-0.14,0.235-0.179
	c0.09-0.04,0.181-0.066,0.273-0.08s0.165-0.02,0.218-0.02c0.223,0,0.397,0.023,0.524,0.071s0.224,0.107,0.293,0.179
	c0.069,0.071,0.114,0.147,0.135,0.23c0.021,0.082,0.032,0.154,0.032,0.218H20.846z M13.468,90.199v0.564
	c0,0.132,0.022,0.279,0.068,0.444c0.044,0.163,0.126,0.318,0.246,0.464c0.118,0.146,0.282,0.268,0.491,0.364
	c0.209,0.099,0.48,0.146,0.813,0.146c0.191,0,0.383-0.024,0.579-0.075c0.195-0.051,0.373-0.141,0.532-0.27s0.287-0.303,0.385-0.519
	c0.098-0.218,0.147-0.493,0.147-0.826v-4.157h-0.77v4.205c0,0.138-0.015,0.267-0.044,0.389c-0.028,0.122-0.077,0.227-0.146,0.314
	c-0.069,0.086-0.161,0.154-0.277,0.205c-0.117,0.051-0.265,0.075-0.444,0.075c-0.27,0-0.48-0.068-0.631-0.205
	c-0.15-0.139-0.225-0.379-0.225-0.724v-0.396H13.468z"/>
</svg>
