<?xml version="1.0" encoding="utf-8"?>
<!-- Generator: Adobe Illustrator 15.1.0, SVG Export Plug-In . SVG Version: 6.00 Build 0)  -->
<!DOCTYPE svg PUBLIC "-//W3C//DTD SVG 1.1//EN" "http://www.w3.org/Graphics/SVG/1.1/DTD/svg11.dtd">
<svg version="1.1" id="Vrstva_1" xmlns="http://www.w3.org/2000/svg" xmlns:xlink="http://www.w3.org/1999/xlink" x="0px" y="0px"
	 width="150px" height="120px" viewBox="0 0 150 120" enable-background="new 0 0 150 120" xml:space="preserve">
<path fill="#B2B2B2" d="M37.428,63.199c4.586-20.239,5.265-23.538,9.851-43.778c3.015-13.517,17.53-19.538,28.808-9.194
	c15.229,14.086,18.287,17.132,33.516,31.218c5.398,5.006,3.124,11.646-3.055,13.491C86.809,61.059,67.549,67,47.812,73.123
	C40.805,75.546,35.461,70.393,37.428,63.199"/>
<path fill="#FFFFFF" d="M72.029,18.292c-4.111,0.341-7.692,2.317-10.163,5.235c-2.47,2.917-3.826,6.776-3.484,10.887
	c0.341,4.11,2.316,7.692,5.234,10.163c2.917,2.469,6.776,3.826,10.887,3.484c4.109-0.341,7.692-2.316,10.161-5.233
	c2.471-2.918,3.827-6.777,3.486-10.888c-0.342-4.111-2.317-7.693-5.234-10.164C79.999,19.308,76.14,17.951,72.029,18.292
	 M74.071,42.864c-2.675,0.223-5.188-0.66-7.086-2.267c-1.898-1.608-3.184-3.94-3.407-6.616c-0.222-2.675,0.661-5.188,2.267-7.086
	c1.608-1.898,3.94-3.184,6.616-3.406c2.675-0.222,5.188,0.661,7.086,2.268c1.898,1.607,3.185,3.939,3.406,6.615
	c0.223,2.676-0.66,5.188-2.269,7.086C79.077,41.356,76.747,42.644,74.071,42.864 M52.469,25.69l-3.965,5.212l6.882,22.188
	l5.092-1.579L52.469,25.69z M79.616,30.671l-4.225,1.311l0.288,0.924l1.494-0.463l1.198,3.862l1.234-0.382l-1.197-3.862l1.496-0.464
	L79.616,30.671z M74.835,32.154l-3.462,1.073l1.484,4.787l3.462-1.074l-0.286-0.926l-2.235,0.693l-0.367-1.183l2.073-0.643
	l-0.287-0.927l-2.073,0.644l-0.256-0.827l2.233-0.693L74.835,32.154z M68.412,34.146l-1.234,0.382l1.485,4.788l3.453-1.072
	l-0.288-0.926l-2.218,0.688L68.412,34.146z"/>
<path fill="#FFFFFF" d="M102.557,45.273l-1.478,0.454l0.309,4.125l-0.013,0.004l-2.069-3.586l-1.493,0.458l1.501,4.894l0.955-0.292
	l-1.254-4.09l0.014-0.004l2.146,3.815l1.002-0.307l-0.342-4.371l0.015-0.003l1.255,4.09l0.953-0.292L102.557,45.273z M95.208,46.162
	c-0.07-0.072-0.151-0.128-0.241-0.168c-0.089-0.039-0.182-0.063-0.278-0.071c-0.099-0.007-0.189,0.001-0.274,0.028
	c-0.087,0.026-0.168,0.07-0.244,0.13c-0.077,0.061-0.14,0.132-0.19,0.215c-0.052,0.083-0.088,0.175-0.105,0.274
	c-0.021,0.101-0.013,0.206,0.021,0.314c0.034,0.109,0.086,0.2,0.157,0.272c0.072,0.072,0.153,0.128,0.243,0.168
	c0.088,0.04,0.181,0.063,0.278,0.07c0.097,0.008,0.188-0.001,0.274-0.028c0.086-0.026,0.167-0.07,0.244-0.131
	c0.075-0.061,0.14-0.132,0.191-0.215c0.051-0.083,0.086-0.173,0.105-0.274c0.019-0.1,0.012-0.205-0.021-0.314
	C95.334,46.325,95.281,46.234,95.208,46.162 M94.96,46.835c-0.047,0.088-0.121,0.149-0.22,0.179
	c-0.101,0.031-0.195,0.022-0.285-0.025c-0.089-0.047-0.148-0.121-0.18-0.22c-0.029-0.101-0.021-0.195,0.025-0.285
	c0.048-0.088,0.121-0.148,0.221-0.179c0.101-0.03,0.195-0.022,0.284,0.025c0.088,0.048,0.148,0.121,0.179,0.22
	C95.017,46.652,95.008,46.746,94.96,46.835 M96.859,47.021l-1.043,0.319l0.989,3.224c0.092,0.3,0.086,0.554-0.018,0.762
	c-0.102,0.208-0.331,0.367-0.686,0.476c-0.118,0.036-0.236,0.051-0.355,0.045c-0.118-0.007-0.229-0.037-0.333-0.092
	c-0.104-0.055-0.197-0.138-0.281-0.246c-0.082-0.108-0.15-0.249-0.203-0.421l-0.975-3.177l-1.042,0.32l0.994,3.245
	c0.085,0.242,0.185,0.454,0.303,0.634s0.265,0.326,0.443,0.435c0.146,0.09,0.298,0.151,0.456,0.185
	c0.156,0.034,0.311,0.053,0.463,0.055c0.154,0.003,0.299-0.008,0.438-0.033c0.14-0.025,0.266-0.056,0.379-0.09
	c0.309-0.095,0.576-0.215,0.803-0.362c0.226-0.146,0.403-0.321,0.533-0.525c0.128-0.203,0.204-0.435,0.226-0.696
	c0.022-0.26-0.016-0.552-0.114-0.874L96.859,47.021z M89.52,54.626l2.12-0.65c0.268-0.083,0.492-0.192,0.673-0.333
	c0.182-0.14,0.327-0.299,0.439-0.477c0.111-0.179,0.191-0.37,0.237-0.572c0.048-0.205,0.072-0.411,0.074-0.621
	c0.004-0.209-0.013-0.416-0.048-0.619c-0.034-0.203-0.078-0.392-0.132-0.564c-0.047-0.154-0.108-0.315-0.186-0.484
	c-0.076-0.167-0.167-0.33-0.275-0.485c-0.107-0.157-0.232-0.3-0.377-0.429c-0.144-0.129-0.31-0.232-0.494-0.308
	c-0.184-0.075-0.392-0.117-0.62-0.127c-0.229-0.008-0.48,0.028-0.753,0.111l-2.161,0.664L89.52,54.626z M89.279,50.271l0.981-0.302
	c0.109-0.033,0.234-0.057,0.374-0.07c0.141-0.013,0.282,0.016,0.426,0.086c0.144,0.07,0.285,0.198,0.426,0.383
	c0.143,0.185,0.268,0.457,0.379,0.816c0.06,0.2,0.103,0.404,0.124,0.614c0.022,0.21,0.014,0.405-0.025,0.585
	c-0.039,0.182-0.113,0.342-0.226,0.48c-0.111,0.139-0.271,0.239-0.481,0.304l-0.995,0.305L89.279,50.271z M82.79,55.586l1.806-0.554
	l0.623,0.913l1.111-0.34l-3.225-4.365l-1.18,0.361l-0.244,5.429l1.077-0.33L82.79,55.586z M82.837,52.529l0.014-0.004l1.199,1.75
	l-1.245,0.383L82.837,52.529z M79.672,56.021l-0.014,0.004l-2.988-2.813l-1.077,0.331l1.502,4.895l0.954-0.293l-1.071-3.49
	l0.015-0.004l3.067,2.878l1.022-0.313L79.58,52.32l-0.953,0.292L79.672,56.021z M70.412,59.382l1.806-0.554l0.624,0.913l1.112-0.341
	l-3.226-4.365l-1.179,0.361l-0.244,5.429l1.077-0.329L70.412,59.382z M70.459,56.325l0.014-0.004l1.2,1.75l-1.246,0.382
	L70.459,56.325z M65.355,60.225l0.326-0.637l2.171,1.684l1.316-0.404l-2.999-2.241l1.382-2.618l-1.323,0.407l-1.258,2.563
	l-0.61-1.991l-1.022,0.313l1.5,4.895l1.023-0.313L65.355,60.225z M62.262,57.631l-1.042,0.32l0.988,3.225
	c0.092,0.299,0.086,0.553-0.016,0.762c-0.104,0.207-0.333,0.365-0.687,0.475c-0.117,0.037-0.236,0.051-0.355,0.045
	c-0.118-0.004-0.23-0.035-0.333-0.091s-0.197-0.137-0.279-0.245c-0.083-0.109-0.151-0.25-0.205-0.424l-0.974-3.176l-1.042,0.321
	l0.995,3.244c0.083,0.242,0.185,0.453,0.302,0.635c0.117,0.18,0.265,0.325,0.443,0.435c0.146,0.089,0.298,0.149,0.456,0.185
	c0.157,0.034,0.311,0.052,0.464,0.057c0.153,0.002,0.298-0.01,0.437-0.034c0.139-0.026,0.266-0.055,0.38-0.091
	c0.309-0.095,0.575-0.215,0.803-0.363c0.226-0.145,0.403-0.32,0.532-0.523c0.128-0.204,0.205-0.436,0.226-0.695
	c0.023-0.262-0.016-0.553-0.114-0.875L62.262,57.631z M55.059,65.196l1.001-0.309l-0.587-1.916l1.057-0.323
	c0.19-0.059,0.345-0.087,0.461-0.086c0.118,0.001,0.214,0.031,0.289,0.091c0.075,0.058,0.137,0.144,0.184,0.255
	c0.047,0.114,0.096,0.254,0.148,0.422c0.078,0.256,0.147,0.451,0.211,0.588c0.061,0.139,0.127,0.261,0.201,0.367l1.131-0.347
	l-0.04-0.129c-0.059-0.002-0.109-0.019-0.152-0.046c-0.041-0.031-0.079-0.078-0.115-0.145c-0.036-0.066-0.072-0.158-0.111-0.275
	c-0.038-0.119-0.084-0.264-0.138-0.443c-0.071-0.227-0.14-0.405-0.211-0.538c-0.07-0.133-0.146-0.236-0.225-0.308
	c-0.081-0.073-0.166-0.122-0.258-0.146c-0.092-0.023-0.194-0.042-0.309-0.058c0.221-0.157,0.364-0.36,0.429-0.61
	c0.065-0.252,0.055-0.514-0.029-0.788c-0.032-0.103-0.092-0.229-0.178-0.374c-0.086-0.146-0.208-0.274-0.365-0.388
	c-0.156-0.114-0.351-0.192-0.583-0.235c-0.232-0.043-0.511-0.014-0.838,0.086l-2.475,0.758L55.059,65.196z M55.22,62.146
	l-0.401-1.308l1.274-0.392c0.149-0.045,0.277-0.062,0.385-0.046c0.105,0.014,0.195,0.045,0.267,0.093
	c0.071,0.047,0.127,0.105,0.169,0.176c0.041,0.07,0.071,0.135,0.09,0.198c0.076,0.245,0.064,0.438-0.035,0.578
	s-0.283,0.251-0.551,0.333L55.22,62.146z M51.418,59.332l-1.049,0.322l-0.335,1.192l0.688-0.212L51.418,59.332z M50.864,65.377
	l1.806-0.554l0.624,0.913l1.111-0.34l-3.226-4.365L50,61.392l-0.245,5.429l1.077-0.329L50.864,65.377z M50.911,62.32l0.014-0.004
	l1.201,1.75l-1.248,0.383L50.911,62.32z M49.184,66.05l-2.578,0.789l1.574-4.009l-0.246-0.805l-3.742,1.146l0.265,0.866l2.46-0.754
	l-1.558,3.939l0.266,0.864l3.823-1.173L49.184,66.05z"/>
<path fill="#B1B3B4" d="M102.681,111.866h-0.724v0.738h0.724V111.866z M100.884,112.604v-3.642h-0.613v2.007
	c0,0.133-0.016,0.271-0.048,0.413c-0.033,0.142-0.088,0.271-0.164,0.391c-0.077,0.118-0.178,0.215-0.306,0.292
	c-0.129,0.077-0.29,0.115-0.484,0.115c-0.098,0-0.189-0.015-0.275-0.042s-0.16-0.073-0.223-0.136s-0.114-0.146-0.149-0.247
	c-0.037-0.103-0.055-0.229-0.055-0.376v-2.417h-0.614v2.618c0,0.219,0.037,0.399,0.107,0.543c0.073,0.146,0.167,0.26,0.283,0.349
	c0.115,0.088,0.243,0.148,0.383,0.185c0.139,0.035,0.275,0.053,0.41,0.053c0.293,0,0.526-0.056,0.7-0.164
	c0.174-0.109,0.326-0.271,0.456-0.484l0.014,0.014v0.529H100.884z M97.083,107.605h-0.614v1.872h-0.013
	c-0.038-0.051-0.084-0.111-0.139-0.184c-0.058-0.071-0.128-0.141-0.214-0.205s-0.188-0.119-0.307-0.164
	c-0.118-0.044-0.261-0.067-0.429-0.067c-0.241,0-0.455,0.049-0.644,0.141c-0.188,0.093-0.348,0.223-0.477,0.387
	c-0.13,0.165-0.229,0.356-0.296,0.577c-0.068,0.221-0.101,0.459-0.101,0.714c0,0.219,0.024,0.446,0.076,0.687
	c0.052,0.238,0.138,0.457,0.261,0.658c0.123,0.2,0.287,0.363,0.491,0.493c0.205,0.131,0.461,0.196,0.772,0.196
	c0.088,0,0.18-0.01,0.275-0.025c0.096-0.017,0.188-0.048,0.279-0.095s0.177-0.107,0.26-0.184c0.084-0.076,0.158-0.177,0.224-0.303
	h0.015v0.501h0.578V107.605z M94.506,110.363c0.015-0.157,0.054-0.308,0.122-0.45c0.066-0.141,0.167-0.26,0.3-0.358
	c0.132-0.097,0.316-0.146,0.553-0.146c0.223,0,0.399,0.052,0.529,0.157c0.13,0.104,0.229,0.234,0.296,0.393
	c0.067,0.158,0.11,0.327,0.128,0.504c0.02,0.18,0.029,0.343,0.029,0.492c0,0.24-0.034,0.44-0.102,0.599
	c-0.067,0.157-0.151,0.283-0.251,0.376s-0.208,0.158-0.323,0.194c-0.117,0.037-0.224,0.057-0.32,0.057
	c-0.167,0-0.313-0.036-0.436-0.108c-0.124-0.071-0.225-0.17-0.307-0.297c-0.081-0.124-0.141-0.272-0.181-0.445
	c-0.039-0.171-0.06-0.356-0.06-0.557C94.484,110.657,94.492,110.521,94.506,110.363 M93.142,108.963h-0.613v3.642h0.613V108.963z
	 M93.142,107.605h-0.613v0.697h0.613V107.605z M91.596,107.605h-0.612v4.999h0.612V107.605z M89.048,110.32l1.392-1.357H89.66
	l-1.566,1.539v-2.896h-0.592v4.999h0.592v-1.378l0.508-0.46l1.135,1.838h0.787L89.048,110.32z M79.753,112.604h0.611v-1.984
	c0-0.245,0.034-0.447,0.101-0.606c0.068-0.157,0.15-0.281,0.248-0.371c0.098-0.091,0.201-0.152,0.313-0.185
	c0.111-0.033,0.212-0.049,0.3-0.049c0.112,0,0.205,0.021,0.278,0.063c0.074,0.041,0.135,0.095,0.179,0.16
	c0.043,0.065,0.072,0.139,0.091,0.22c0.015,0.08,0.023,0.158,0.023,0.232v2.521h0.612v-2.222c0-0.12,0.021-0.238,0.063-0.358
	c0.042-0.117,0.101-0.222,0.174-0.313c0.075-0.091,0.165-0.163,0.27-0.22c0.103-0.057,0.221-0.083,0.351-0.083
	c0.261,0,0.438,0.077,0.533,0.233s0.143,0.358,0.143,0.609v2.353h0.612v-2.521c0-0.254-0.04-0.463-0.121-0.623
	c-0.082-0.16-0.181-0.284-0.296-0.372c-0.116-0.088-0.24-0.149-0.37-0.181c-0.129-0.033-0.242-0.051-0.342-0.051
	c-0.139,0-0.261,0.016-0.368,0.047c-0.106,0.029-0.201,0.071-0.285,0.122s-0.163,0.114-0.236,0.188
	c-0.075,0.074-0.149,0.153-0.223,0.236c-0.028-0.046-0.063-0.104-0.105-0.174c-0.041-0.068-0.1-0.134-0.174-0.195
	c-0.074-0.059-0.167-0.111-0.279-0.156c-0.11-0.044-0.248-0.067-0.41-0.067c-0.161,0-0.306,0.024-0.427,0.072
	c-0.124,0.046-0.23,0.101-0.319,0.166c-0.086,0.065-0.16,0.133-0.218,0.205c-0.059,0.071-0.104,0.131-0.135,0.177h-0.016v-0.515
	h-0.576V112.604z M78.429,107.494h-0.752l-0.62,0.981h0.467L78.429,107.494z M78.36,111.463c-0.007,0.07-0.03,0.145-0.074,0.226
	c-0.044,0.083-0.106,0.16-0.188,0.234s-0.179,0.136-0.294,0.184c-0.112,0.049-0.241,0.074-0.385,0.074
	c-0.354,0-0.618-0.105-0.794-0.314c-0.178-0.208-0.265-0.502-0.265-0.884h2.659c0-0.32-0.032-0.612-0.098-0.874
	c-0.063-0.262-0.163-0.487-0.292-0.673c-0.13-0.184-0.293-0.327-0.487-0.427c-0.196-0.1-0.425-0.151-0.689-0.151
	c-0.302,0-0.563,0.054-0.783,0.158c-0.221,0.104-0.401,0.247-0.543,0.432c-0.142,0.184-0.247,0.397-0.317,0.644
	c-0.07,0.246-0.104,0.512-0.104,0.794c0,0.264,0.036,0.509,0.11,0.731c0.075,0.223,0.182,0.416,0.321,0.578
	c0.138,0.161,0.309,0.288,0.512,0.379c0.201,0.091,0.43,0.137,0.686,0.137c0.144,0,0.269-0.01,0.375-0.025
	c0.107-0.017,0.199-0.035,0.275-0.059c0.077-0.023,0.142-0.051,0.195-0.08c0.054-0.03,0.102-0.06,0.143-0.087
	c0.116-0.075,0.213-0.16,0.292-0.259c0.079-0.097,0.144-0.192,0.196-0.287c0.051-0.096,0.089-0.184,0.114-0.267
	c0.026-0.08,0.041-0.141,0.045-0.184H78.36z M76.361,110.495c0-0.14,0.026-0.274,0.08-0.407c0.053-0.132,0.125-0.249,0.216-0.349
	s0.196-0.179,0.319-0.24c0.124-0.06,0.255-0.09,0.394-0.09c0.186,0,0.341,0.03,0.467,0.09c0.125,0.062,0.228,0.141,0.307,0.24
	s0.138,0.217,0.174,0.349c0.036,0.133,0.061,0.268,0.069,0.407H76.361z M75.282,109.472v-0.509h-0.585v-1.017h-0.612v1.017h-0.495
	v0.509h0.495v2.4c0,0.113,0.01,0.216,0.03,0.311c0.021,0.095,0.059,0.18,0.112,0.248c0.054,0.07,0.128,0.124,0.223,0.164
	c0.095,0.039,0.221,0.059,0.373,0.059c0.033,0,0.09-0.006,0.171-0.017c0.081-0.013,0.178-0.022,0.289-0.032v-0.48h-0.216
	c-0.032,0-0.07-0.002-0.111-0.004c-0.042-0.002-0.083-0.013-0.123-0.03c-0.04-0.019-0.071-0.049-0.097-0.087
	c-0.026-0.04-0.039-0.095-0.039-0.164v-2.367H75.282z M73.123,110.001c0-0.046-0.011-0.132-0.036-0.255
	c-0.022-0.122-0.08-0.25-0.173-0.382c-0.093-0.133-0.233-0.249-0.419-0.353c-0.185-0.102-0.44-0.154-0.765-0.154
	c-0.182,0-0.354,0.024-0.519,0.072c-0.165,0.046-0.312,0.116-0.439,0.212c-0.127,0.095-0.229,0.215-0.306,0.361
	c-0.076,0.146-0.115,0.318-0.115,0.52c0,0.25,0.076,0.442,0.23,0.58c0.153,0.137,0.357,0.238,0.612,0.303l0.711,0.175
	c0.26,0.064,0.445,0.132,0.556,0.202c0.112,0.069,0.167,0.177,0.167,0.32c0,0.103-0.023,0.188-0.068,0.262
	c-0.046,0.07-0.109,0.131-0.185,0.177c-0.077,0.047-0.166,0.08-0.265,0.104c-0.101,0.022-0.206,0.035-0.317,0.035
	c-0.218,0-0.389-0.026-0.515-0.077c-0.125-0.052-0.222-0.113-0.286-0.188c-0.065-0.074-0.107-0.155-0.128-0.243
	c-0.02-0.089-0.034-0.166-0.038-0.237h-0.592c0.004,0.075,0.012,0.157,0.024,0.248c0.011,0.091,0.034,0.184,0.069,0.278
	c0.035,0.095,0.086,0.187,0.157,0.275c0.069,0.088,0.161,0.168,0.274,0.239c0.114,0.072,0.255,0.129,0.425,0.171
	c0.168,0.043,0.373,0.063,0.616,0.063c0.204,0,0.395-0.029,0.572-0.084c0.175-0.056,0.327-0.136,0.456-0.237
	c0.126-0.102,0.228-0.228,0.301-0.376c0.075-0.148,0.112-0.317,0.112-0.507c0-0.247-0.076-0.445-0.226-0.596
	c-0.152-0.151-0.417-0.274-0.797-0.367l-0.614-0.151c-0.119-0.028-0.221-0.058-0.305-0.085s-0.152-0.059-0.203-0.094
	c-0.051-0.034-0.089-0.077-0.114-0.125c-0.026-0.049-0.039-0.11-0.039-0.185c0-0.111,0.028-0.202,0.087-0.271
	c0.057-0.069,0.127-0.122,0.205-0.156c0.079-0.036,0.16-0.059,0.241-0.07c0.08-0.012,0.145-0.019,0.191-0.019
	c0.195,0,0.349,0.022,0.46,0.063c0.112,0.042,0.196,0.094,0.257,0.156c0.06,0.063,0.1,0.131,0.118,0.202
	c0.019,0.072,0.028,0.137,0.028,0.192H73.123z M66.485,111.48c0.066,0.229,0.169,0.435,0.31,0.615
	c0.138,0.182,0.314,0.328,0.524,0.439c0.212,0.111,0.464,0.167,0.757,0.167c0.292,0,0.543-0.056,0.755-0.167
	c0.211-0.111,0.386-0.258,0.527-0.439c0.138-0.181,0.241-0.386,0.308-0.615c0.069-0.229,0.103-0.463,0.103-0.701
	c0-0.236-0.034-0.469-0.103-0.698c-0.066-0.229-0.169-0.436-0.308-0.617c-0.141-0.18-0.315-0.327-0.527-0.438
	c-0.212-0.112-0.463-0.169-0.755-0.169c-0.292,0-0.544,0.057-0.757,0.169c-0.209,0.11-0.386,0.258-0.524,0.438
	c-0.141,0.182-0.244,0.388-0.31,0.617c-0.069,0.229-0.103,0.462-0.103,0.698C66.382,111.018,66.416,111.251,66.485,111.48
	 M67.058,110.359c0.028-0.16,0.081-0.312,0.158-0.456c0.076-0.144,0.184-0.267,0.323-0.365c0.139-0.101,0.318-0.151,0.537-0.151
	c0.217,0,0.396,0.051,0.536,0.151c0.139,0.099,0.248,0.222,0.324,0.365c0.076,0.145,0.129,0.296,0.157,0.456
	c0.026,0.161,0.042,0.301,0.042,0.42c0,0.122-0.015,0.262-0.042,0.422c-0.028,0.161-0.081,0.313-0.157,0.457
	c-0.076,0.144-0.185,0.266-0.324,0.365c-0.139,0.099-0.318,0.15-0.536,0.15c-0.219,0-0.398-0.052-0.537-0.15
	c-0.139-0.1-0.247-0.222-0.323-0.365c-0.077-0.145-0.13-0.296-0.158-0.457c-0.026-0.16-0.04-0.3-0.04-0.422
	C67.018,110.66,67.031,110.521,67.058,110.359 M64.97,110.488c0-0.13,0.022-0.255,0.066-0.373s0.106-0.222,0.188-0.313
	c0.08-0.091,0.179-0.161,0.292-0.213c0.114-0.051,0.243-0.077,0.387-0.077h0.229v-0.633c-0.023-0.01-0.046-0.015-0.07-0.017
	c-0.023-0.003-0.054-0.006-0.09-0.006c-0.232,0-0.431,0.066-0.595,0.196c-0.166,0.13-0.308,0.302-0.427,0.515h-0.015v-0.605h-0.578
	v3.642h0.613V110.488z M60.966,110.463c0.019-0.177,0.061-0.346,0.129-0.504c0.067-0.158,0.166-0.289,0.296-0.393
	c0.128-0.105,0.305-0.157,0.528-0.157c0.237,0,0.422,0.049,0.554,0.146c0.133,0.099,0.232,0.218,0.299,0.358
	c0.068,0.143,0.108,0.293,0.122,0.45s0.02,0.294,0.02,0.41c0,0.2-0.019,0.386-0.058,0.557c-0.04,0.173-0.101,0.321-0.182,0.445
	c-0.081,0.127-0.184,0.226-0.307,0.297c-0.121,0.072-0.268,0.108-0.434,0.108c-0.099,0-0.206-0.02-0.32-0.057
	c-0.116-0.036-0.224-0.102-0.325-0.194c-0.099-0.093-0.183-0.219-0.25-0.376c-0.067-0.158-0.1-0.358-0.1-0.599
	C60.939,110.806,60.947,110.643,60.966,110.463 M60.353,114.046h0.614v-1.823h0.014c0.079,0.129,0.198,0.243,0.359,0.341
	c0.16,0.097,0.364,0.146,0.608,0.146c0.312,0,0.57-0.065,0.773-0.196c0.205-0.13,0.368-0.293,0.491-0.493
	c0.123-0.201,0.211-0.42,0.261-0.658c0.051-0.24,0.076-0.468,0.076-0.687c0-0.255-0.033-0.493-0.1-0.714
	c-0.068-0.221-0.166-0.412-0.295-0.577c-0.131-0.164-0.29-0.294-0.478-0.387c-0.188-0.092-0.403-0.141-0.644-0.141
	c-0.167,0-0.31,0.023-0.429,0.067c-0.117,0.045-0.221,0.1-0.305,0.164c-0.086,0.064-0.157,0.134-0.213,0.205
	c-0.055,0.072-0.101,0.133-0.139,0.184h-0.015v-0.515h-0.578V114.046z M57.075,110.07c0.008-0.069,0.024-0.146,0.048-0.226
	c0.022-0.082,0.063-0.159,0.122-0.229c0.058-0.073,0.139-0.133,0.244-0.18c0.104-0.044,0.245-0.068,0.421-0.068
	c0.572,0,0.856,0.197,0.856,0.592c0,0.093-0.009,0.167-0.027,0.22c-0.019,0.053-0.044,0.095-0.077,0.125s-0.067,0.051-0.104,0.063
	c-0.037,0.013-0.074,0.019-0.112,0.025l-1.008,0.124c-0.256,0.034-0.456,0.095-0.604,0.189c-0.146,0.093-0.255,0.196-0.33,0.313
	c-0.075,0.115-0.123,0.233-0.143,0.351c-0.021,0.119-0.031,0.215-0.031,0.29c0,0.157,0.028,0.301,0.083,0.428
	c0.056,0.127,0.135,0.238,0.236,0.331c0.103,0.093,0.224,0.164,0.363,0.215c0.138,0.051,0.292,0.078,0.459,0.078
	c0.176,0,0.333-0.019,0.471-0.057c0.137-0.037,0.259-0.085,0.366-0.143c0.105-0.058,0.197-0.122,0.274-0.191
	c0.077-0.07,0.145-0.137,0.206-0.202c0.004,0.069,0.016,0.139,0.034,0.205c0.02,0.068,0.051,0.126,0.095,0.179
	c0.044,0.051,0.107,0.093,0.192,0.125c0.083,0.032,0.192,0.048,0.327,0.048c0.07,0,0.13-0.008,0.18-0.023
	c0.051-0.017,0.103-0.032,0.153-0.046v-0.445c-0.036,0.009-0.073,0.018-0.108,0.021c-0.035,0.004-0.065,0.006-0.094,0.006
	c-0.135,0-0.202-0.071-0.202-0.215v-2.095c0-0.154-0.027-0.287-0.08-0.399c-0.053-0.11-0.122-0.204-0.206-0.281
	s-0.176-0.138-0.278-0.181c-0.102-0.044-0.204-0.078-0.306-0.102c-0.103-0.022-0.196-0.037-0.283-0.045
	c-0.085-0.006-0.151-0.012-0.197-0.012c-0.223,0-0.427,0.023-0.61,0.067c-0.184,0.045-0.341,0.115-0.469,0.212
	c-0.131,0.099-0.233,0.224-0.307,0.376c-0.075,0.153-0.114,0.34-0.118,0.558H57.075z M58.752,111.345
	c0,0.12-0.033,0.232-0.097,0.338c-0.065,0.104-0.151,0.195-0.255,0.272c-0.104,0.074-0.224,0.135-0.358,0.179
	c-0.135,0.045-0.274,0.066-0.417,0.066c-0.232,0-0.401-0.055-0.504-0.165c-0.105-0.112-0.158-0.269-0.158-0.468
	c0-0.117,0.027-0.211,0.081-0.281c0.053-0.073,0.119-0.129,0.197-0.171c0.079-0.042,0.165-0.074,0.255-0.094
	c0.09-0.022,0.173-0.036,0.247-0.046c0.191-0.024,0.344-0.045,0.463-0.065c0.118-0.021,0.215-0.04,0.289-0.057
	s0.13-0.034,0.167-0.052c0.038-0.018,0.066-0.038,0.091-0.056V111.345z M55.626,110.127c0-0.261-0.04-0.474-0.12-0.638
	c-0.079-0.165-0.18-0.294-0.306-0.387s-0.264-0.156-0.415-0.191c-0.15-0.034-0.296-0.054-0.436-0.054
	c-0.157,0-0.297,0.024-0.417,0.072c-0.121,0.046-0.227,0.101-0.317,0.166c-0.09,0.065-0.166,0.133-0.226,0.205
	c-0.061,0.071-0.108,0.131-0.14,0.177h-0.015v-0.515H52.66v3.642h0.612v-1.984c0-0.245,0.034-0.447,0.102-0.606
	c0.067-0.157,0.15-0.281,0.248-0.371c0.097-0.091,0.2-0.152,0.313-0.185c0.111-0.033,0.211-0.049,0.3-0.049
	c0.296,0,0.501,0.08,0.612,0.239c0.112,0.16,0.167,0.399,0.167,0.715v2.241h0.613V110.127z M48.517,111.93h-0.015l-0.947-2.967
	h-0.71l1.33,3.642h0.655l1.385-3.642h-0.668L48.517,111.93z"/>
<path fill="#B1B3B4" d="M135.59,104.467h0.612v-1.984c0-0.246,0.034-0.448,0.102-0.606c0.066-0.157,0.149-0.281,0.247-0.372
	c0.097-0.09,0.202-0.151,0.313-0.184c0.111-0.033,0.211-0.05,0.3-0.05c0.11,0,0.203,0.021,0.278,0.063
	c0.073,0.041,0.133,0.095,0.177,0.16c0.045,0.065,0.075,0.139,0.091,0.22c0.016,0.08,0.023,0.158,0.023,0.232v2.521h0.614v-2.222
	c0-0.12,0.021-0.24,0.062-0.358s0.101-0.222,0.175-0.313s0.163-0.164,0.268-0.22c0.105-0.057,0.222-0.084,0.353-0.084
	c0.26,0,0.437,0.078,0.532,0.233s0.143,0.358,0.143,0.608v2.354h0.613v-2.521c0-0.256-0.041-0.463-0.123-0.623
	c-0.081-0.16-0.179-0.284-0.296-0.372c-0.115-0.089-0.238-0.149-0.368-0.182c-0.131-0.033-0.244-0.05-0.341-0.05
	c-0.14,0-0.263,0.016-0.37,0.047c-0.106,0.029-0.202,0.071-0.285,0.122s-0.163,0.113-0.236,0.188
	c-0.075,0.074-0.148,0.153-0.224,0.236c-0.027-0.046-0.063-0.105-0.104-0.174c-0.042-0.068-0.101-0.135-0.174-0.195
	c-0.075-0.059-0.168-0.112-0.278-0.157c-0.112-0.043-0.249-0.066-0.411-0.066c-0.163,0-0.306,0.024-0.429,0.07
	c-0.123,0.048-0.229,0.103-0.316,0.167c-0.089,0.066-0.161,0.134-0.22,0.206c-0.058,0.071-0.104,0.131-0.136,0.177h-0.014v-0.515
	h-0.578V104.467z M132.728,99.385c-0.121,0.12-0.181,0.272-0.181,0.458c0,0.188,0.06,0.34,0.181,0.459
	c0.121,0.122,0.274,0.182,0.46,0.182s0.339-0.06,0.46-0.182c0.12-0.119,0.182-0.271,0.182-0.459c0-0.186-0.062-0.338-0.182-0.458
	c-0.121-0.121-0.274-0.182-0.46-0.182S132.849,99.264,132.728,99.385 M132.931,99.587c0.069-0.07,0.154-0.105,0.257-0.105
	s0.189,0.035,0.258,0.105c0.069,0.068,0.104,0.155,0.104,0.256c0,0.103-0.035,0.189-0.104,0.259
	c-0.068,0.069-0.155,0.104-0.258,0.104s-0.188-0.034-0.257-0.104c-0.07-0.069-0.105-0.156-0.105-0.259
	C132.825,99.742,132.86,99.655,132.931,99.587 M134.67,104.467v-3.642h-0.612v2.005c0,0.135-0.017,0.273-0.048,0.415
	c-0.033,0.142-0.087,0.271-0.164,0.391c-0.077,0.117-0.179,0.215-0.307,0.291s-0.288,0.116-0.483,0.116
	c-0.098,0-0.189-0.015-0.276-0.042c-0.085-0.028-0.159-0.074-0.223-0.138c-0.063-0.063-0.111-0.144-0.148-0.245
	c-0.038-0.103-0.056-0.229-0.056-0.377v-2.416h-0.613v2.617c0,0.219,0.036,0.4,0.108,0.544c0.071,0.143,0.165,0.26,0.282,0.348
	c0.115,0.089,0.242,0.149,0.382,0.185c0.139,0.036,0.277,0.053,0.412,0.053c0.291,0,0.524-0.055,0.698-0.163
	c0.176-0.11,0.326-0.271,0.457-0.484l0.013,0.014v0.529H134.67z M130.869,99.468h-0.613v1.872h-0.014
	c-0.037-0.051-0.083-0.111-0.139-0.184c-0.056-0.071-0.127-0.141-0.213-0.205s-0.188-0.12-0.307-0.165
	c-0.118-0.043-0.261-0.066-0.427-0.066c-0.243,0-0.457,0.048-0.646,0.141s-0.347,0.221-0.477,0.387
	c-0.131,0.164-0.229,0.356-0.296,0.577c-0.066,0.221-0.102,0.459-0.102,0.714c0,0.219,0.026,0.446,0.077,0.687
	c0.052,0.238,0.138,0.457,0.262,0.658c0.122,0.198,0.285,0.363,0.49,0.493c0.204,0.13,0.462,0.195,0.773,0.195
	c0.088,0,0.18-0.009,0.275-0.024c0.095-0.017,0.188-0.048,0.277-0.095c0.091-0.047,0.178-0.107,0.262-0.184
	c0.083-0.077,0.157-0.177,0.223-0.303h0.014v0.501h0.578V99.468z M128.293,102.225c0.014-0.158,0.055-0.307,0.121-0.449
	c0.067-0.141,0.168-0.26,0.3-0.358c0.133-0.097,0.317-0.146,0.554-0.146c0.223,0,0.398,0.053,0.529,0.156
	c0.13,0.105,0.229,0.236,0.296,0.395s0.11,0.327,0.13,0.504c0.018,0.18,0.027,0.343,0.027,0.491c0,0.241-0.035,0.441-0.102,0.6
	c-0.067,0.157-0.151,0.283-0.251,0.376s-0.207,0.158-0.324,0.194c-0.115,0.037-0.223,0.057-0.319,0.057
	c-0.168,0-0.313-0.036-0.436-0.108c-0.123-0.073-0.226-0.17-0.307-0.297c-0.081-0.124-0.142-0.274-0.18-0.445
	c-0.04-0.172-0.061-0.356-0.061-0.557C128.271,102.52,128.278,102.383,128.293,102.225 M125.313,101.334v-0.509h-0.585v-1.017
	h-0.612v1.017h-0.495v0.509h0.495v2.4c0,0.112,0.011,0.216,0.031,0.311s0.059,0.178,0.111,0.248
	c0.053,0.068,0.128,0.124,0.223,0.163c0.095,0.04,0.219,0.06,0.372,0.06c0.033,0,0.09-0.006,0.171-0.017
	c0.081-0.013,0.178-0.022,0.289-0.032v-0.48h-0.215c-0.033,0-0.071-0.002-0.112-0.004c-0.042-0.002-0.083-0.013-0.122-0.03
	c-0.039-0.019-0.072-0.049-0.097-0.089c-0.025-0.038-0.039-0.093-0.039-0.162v-2.367H125.313z M120.647,101.933
	c0.01-0.07,0.025-0.146,0.049-0.228c0.023-0.08,0.063-0.157,0.122-0.228c0.059-0.073,0.14-0.133,0.244-0.18
	c0.104-0.046,0.243-0.068,0.421-0.068c0.57,0,0.855,0.197,0.855,0.592c0,0.093-0.009,0.165-0.026,0.22
	c-0.021,0.053-0.044,0.095-0.077,0.125c-0.032,0.03-0.067,0.051-0.104,0.063c-0.037,0.011-0.075,0.019-0.111,0.024l-1.01,0.125
	c-0.256,0.032-0.456,0.095-0.603,0.188c-0.146,0.093-0.257,0.197-0.33,0.312c-0.075,0.117-0.122,0.234-0.144,0.353
	c-0.021,0.118-0.031,0.215-0.031,0.289c0,0.158,0.028,0.302,0.084,0.429c0.055,0.127,0.134,0.238,0.236,0.331
	s0.223,0.164,0.361,0.215c0.14,0.051,0.294,0.077,0.46,0.077c0.178,0,0.334-0.019,0.471-0.056s0.259-0.085,0.365-0.143
	c0.107-0.058,0.199-0.122,0.275-0.191c0.076-0.07,0.146-0.137,0.206-0.202c0.004,0.069,0.016,0.139,0.034,0.205
	c0.019,0.067,0.05,0.126,0.094,0.177c0.045,0.053,0.108,0.093,0.191,0.127c0.083,0.031,0.192,0.048,0.327,0.048
	c0.07,0,0.13-0.008,0.182-0.023c0.05-0.017,0.102-0.032,0.153-0.046v-0.446c-0.038,0.01-0.073,0.019-0.108,0.022
	c-0.036,0.004-0.066,0.006-0.094,0.006c-0.135,0-0.201-0.071-0.201-0.216v-2.097c0-0.152-0.028-0.284-0.081-0.396
	c-0.054-0.11-0.122-0.204-0.206-0.281c-0.083-0.077-0.177-0.138-0.277-0.182c-0.103-0.044-0.205-0.077-0.308-0.101
	c-0.103-0.022-0.196-0.039-0.281-0.045c-0.087-0.008-0.152-0.012-0.198-0.012c-0.223,0-0.427,0.023-0.61,0.066
	c-0.184,0.045-0.339,0.116-0.469,0.213c-0.13,0.098-0.232,0.223-0.307,0.376s-0.114,0.34-0.119,0.558H120.647z M122.325,103.206
	c0,0.121-0.033,0.233-0.098,0.339c-0.064,0.104-0.148,0.194-0.254,0.271c-0.104,0.076-0.224,0.137-0.358,0.181
	c-0.135,0.045-0.274,0.066-0.418,0.066c-0.232,0-0.399-0.055-0.504-0.167c-0.104-0.111-0.157-0.267-0.157-0.466
	c0-0.117,0.027-0.211,0.08-0.281c0.053-0.073,0.12-0.13,0.199-0.171c0.078-0.042,0.162-0.074,0.253-0.094
	c0.091-0.022,0.173-0.037,0.248-0.046c0.19-0.024,0.344-0.045,0.462-0.067c0.119-0.02,0.216-0.038,0.289-0.055
	c0.075-0.017,0.13-0.034,0.168-0.052c0.037-0.021,0.067-0.038,0.09-0.056V103.206z M118.071,103.792h-0.015l-0.946-2.967h-0.711
	l1.33,3.642h0.655l1.386-3.642h-0.669L118.071,103.792z M116.449,99.356h-0.752l-0.619,0.981h0.465L116.449,99.356z
	 M115.684,100.825h-0.613v3.642h0.613V100.825z M112.208,99.356h-0.549l0.688,0.981h0.633l0.691-0.981h-0.559l-0.452,0.647
	L112.208,99.356z M114.131,101.326v-0.501h-2.821v0.509h2.026l-2.192,2.652v0.48h3.049v-0.509h-2.234L114.131,101.326z
	 M110.461,104.467v-3.642h-0.612v2.005c0,0.135-0.016,0.273-0.049,0.415c-0.032,0.142-0.088,0.271-0.164,0.391
	c-0.077,0.117-0.179,0.215-0.307,0.291c-0.126,0.076-0.289,0.116-0.482,0.116c-0.099,0-0.19-0.015-0.275-0.042
	c-0.086-0.028-0.161-0.074-0.223-0.138c-0.063-0.063-0.113-0.144-0.151-0.245c-0.037-0.103-0.055-0.229-0.055-0.377v-2.416h-0.613
	v2.617c0,0.219,0.036,0.4,0.108,0.544c0.071,0.143,0.165,0.26,0.281,0.348c0.117,0.089,0.244,0.149,0.384,0.185
	c0.14,0.036,0.276,0.053,0.41,0.053c0.293,0,0.525-0.055,0.7-0.163c0.174-0.11,0.325-0.271,0.455-0.484l0.015,0.014v0.529H110.461z
	 M105.225,99.356h-0.752l-0.619,0.981h0.466L105.225,99.356z M104.459,100.825h-0.612v3.642h0.612V100.825z M102.733,101.988
	c0-0.26-0.04-0.473-0.12-0.638c-0.079-0.164-0.181-0.293-0.307-0.386c-0.124-0.093-0.264-0.156-0.413-0.191
	c-0.151-0.036-0.296-0.054-0.435-0.054c-0.158,0-0.298,0.024-0.419,0.07c-0.119,0.048-0.226,0.103-0.316,0.167
	c-0.091,0.066-0.167,0.134-0.226,0.206c-0.061,0.071-0.107,0.131-0.14,0.177h-0.014v-0.515h-0.578v3.642h0.611v-1.984
	c0-0.246,0.034-0.448,0.102-0.606c0.067-0.157,0.15-0.281,0.247-0.372c0.097-0.09,0.202-0.151,0.313-0.184
	c0.111-0.033,0.212-0.05,0.3-0.05c0.296,0,0.502,0.08,0.612,0.24c0.112,0.16,0.167,0.398,0.167,0.714v2.242h0.614V101.988z
	 M97.113,99.356h-0.55l0.689,0.981h0.633l0.689-0.981h-0.557l-0.452,0.647L97.113,99.356z M99.035,101.326v-0.501h-2.82v0.509h2.026
	l-2.193,2.652v0.48h3.05v-0.509h-2.235L99.035,101.326z M92.305,103.343c0.069,0.229,0.171,0.435,0.311,0.615
	c0.14,0.182,0.314,0.327,0.526,0.439c0.21,0.111,0.462,0.167,0.755,0.167s0.545-0.056,0.755-0.167
	c0.212-0.112,0.387-0.258,0.526-0.439c0.139-0.181,0.242-0.386,0.31-0.615c0.066-0.23,0.101-0.465,0.101-0.701
	s-0.034-0.469-0.101-0.699c-0.067-0.229-0.171-0.435-0.31-0.616c-0.14-0.182-0.314-0.327-0.526-0.438
	c-0.21-0.112-0.462-0.169-0.755-0.169s-0.545,0.057-0.755,0.169c-0.212,0.11-0.387,0.256-0.526,0.438s-0.241,0.388-0.311,0.616
	c-0.066,0.23-0.1,0.463-0.1,0.699S92.238,103.112,92.305,103.343 M92.88,102.221c0.027-0.159,0.08-0.312,0.156-0.455
	c0.077-0.145,0.186-0.267,0.325-0.365c0.139-0.101,0.317-0.151,0.535-0.151s0.396,0.051,0.535,0.151
	c0.141,0.099,0.248,0.221,0.325,0.365c0.076,0.144,0.128,0.296,0.156,0.455c0.028,0.162,0.042,0.302,0.042,0.421
	c0,0.122-0.014,0.262-0.042,0.422c-0.028,0.161-0.08,0.313-0.156,0.456c-0.077,0.145-0.185,0.266-0.325,0.366
	c-0.139,0.099-0.317,0.148-0.535,0.148s-0.396-0.05-0.535-0.148c-0.14-0.101-0.248-0.222-0.325-0.366
	c-0.076-0.144-0.129-0.295-0.156-0.456c-0.028-0.16-0.042-0.3-0.042-0.422C92.838,102.522,92.852,102.383,92.88,102.221
	 M86.613,104.467h0.612v-1.984c0-0.246,0.034-0.448,0.103-0.606c0.066-0.157,0.148-0.281,0.247-0.372
	c0.097-0.09,0.201-0.151,0.313-0.184c0.111-0.033,0.211-0.05,0.3-0.05c0.111,0,0.204,0.021,0.278,0.063
	c0.073,0.041,0.133,0.095,0.178,0.16c0.044,0.065,0.073,0.139,0.091,0.22c0.016,0.08,0.022,0.158,0.022,0.232v2.521h0.614v-2.222
	c0-0.12,0.021-0.24,0.063-0.358c0.041-0.118,0.101-0.222,0.174-0.313c0.074-0.091,0.164-0.164,0.269-0.22
	c0.105-0.057,0.221-0.084,0.351-0.084c0.261,0,0.438,0.078,0.533,0.233s0.144,0.358,0.144,0.608v2.354h0.612v-2.521
	c0-0.256-0.041-0.463-0.122-0.623s-0.181-0.284-0.297-0.372c-0.114-0.089-0.238-0.149-0.369-0.182
	c-0.13-0.033-0.242-0.05-0.339-0.05c-0.141,0-0.263,0.016-0.371,0.047c-0.106,0.029-0.201,0.071-0.284,0.122
	c-0.085,0.051-0.164,0.113-0.236,0.188c-0.075,0.074-0.15,0.153-0.224,0.236c-0.027-0.046-0.063-0.105-0.104-0.174
	c-0.042-0.068-0.101-0.135-0.174-0.195c-0.074-0.059-0.167-0.112-0.279-0.157c-0.111-0.043-0.248-0.066-0.411-0.066
	c-0.161,0-0.305,0.024-0.427,0.07c-0.124,0.048-0.229,0.103-0.317,0.167c-0.088,0.066-0.162,0.134-0.219,0.206
	c-0.059,0.071-0.104,0.131-0.137,0.177h-0.014v-0.515h-0.578V104.467z M85.693,104.467v-3.642h-0.611v2.005
	c0,0.135-0.017,0.273-0.049,0.415s-0.087,0.271-0.164,0.391c-0.076,0.117-0.179,0.215-0.307,0.291
	c-0.127,0.076-0.289,0.116-0.483,0.116c-0.098,0-0.189-0.015-0.275-0.042c-0.086-0.028-0.159-0.074-0.223-0.138
	c-0.063-0.063-0.112-0.144-0.15-0.245c-0.036-0.103-0.055-0.229-0.055-0.377v-2.416h-0.612v2.617c0,0.219,0.035,0.4,0.108,0.544
	c0.07,0.143,0.164,0.26,0.281,0.348c0.115,0.089,0.243,0.149,0.382,0.185c0.14,0.036,0.276,0.053,0.41,0.053
	c0.294,0,0.527-0.055,0.701-0.163c0.174-0.11,0.326-0.271,0.455-0.484l0.014,0.014v0.529H85.693z M75.006,104.467h0.613v-1.984
	c0-0.246,0.034-0.448,0.102-0.606c0.066-0.157,0.149-0.281,0.247-0.372c0.097-0.09,0.203-0.151,0.313-0.184
	c0.112-0.033,0.211-0.05,0.3-0.05c0.111,0,0.204,0.021,0.278,0.063c0.075,0.041,0.134,0.095,0.178,0.16s0.075,0.139,0.091,0.22
	c0.016,0.08,0.024,0.158,0.024,0.232v2.521h0.612v-2.222c0-0.12,0.021-0.24,0.063-0.358c0.041-0.118,0.101-0.222,0.174-0.313
	c0.075-0.091,0.164-0.164,0.269-0.22c0.105-0.057,0.221-0.084,0.352-0.084c0.26,0,0.438,0.078,0.533,0.233s0.143,0.358,0.143,0.608
	v2.354h0.612v-2.521c0-0.256-0.041-0.463-0.122-0.623s-0.18-0.284-0.296-0.372c-0.115-0.089-0.239-0.149-0.368-0.182
	c-0.131-0.033-0.244-0.05-0.341-0.05c-0.14,0-0.263,0.016-0.371,0.047c-0.106,0.029-0.201,0.071-0.284,0.122
	c-0.084,0.051-0.163,0.113-0.236,0.188c-0.075,0.074-0.149,0.153-0.223,0.236c-0.028-0.046-0.063-0.105-0.104-0.174
	s-0.102-0.135-0.174-0.195c-0.075-0.059-0.168-0.112-0.28-0.157c-0.11-0.043-0.247-0.066-0.41-0.066
	c-0.162,0-0.305,0.024-0.428,0.07c-0.124,0.048-0.229,0.103-0.317,0.167c-0.088,0.066-0.161,0.134-0.219,0.206
	c-0.058,0.071-0.104,0.131-0.136,0.177h-0.014v-0.515h-0.578V104.467z M73.684,99.356h-0.751l-0.62,0.981h0.466L73.684,99.356z
	 M71.678,101.933c0.009-0.07,0.025-0.146,0.048-0.228c0.023-0.08,0.063-0.157,0.123-0.228c0.058-0.073,0.139-0.133,0.244-0.18
	c0.104-0.046,0.244-0.068,0.421-0.068c0.571,0,0.856,0.197,0.856,0.592c0,0.093-0.009,0.165-0.027,0.22
	c-0.019,0.053-0.044,0.095-0.077,0.125s-0.066,0.051-0.104,0.063c-0.037,0.011-0.074,0.019-0.112,0.024l-1.008,0.125
	c-0.256,0.032-0.457,0.095-0.604,0.188c-0.146,0.093-0.255,0.197-0.33,0.312c-0.075,0.117-0.123,0.234-0.143,0.353
	c-0.021,0.118-0.032,0.215-0.032,0.289c0,0.158,0.027,0.302,0.083,0.429c0.056,0.127,0.135,0.238,0.236,0.331
	c0.104,0.093,0.223,0.164,0.362,0.215c0.14,0.051,0.293,0.077,0.461,0.077c0.176,0,0.333-0.019,0.47-0.056
	c0.137-0.037,0.258-0.085,0.365-0.143c0.107-0.058,0.199-0.122,0.275-0.191c0.077-0.07,0.146-0.137,0.206-0.202
	c0.004,0.069,0.016,0.139,0.035,0.205c0.018,0.067,0.049,0.126,0.094,0.177c0.044,0.053,0.107,0.093,0.191,0.127
	c0.084,0.031,0.193,0.048,0.327,0.048c0.07,0,0.131-0.008,0.181-0.023c0.051-0.017,0.103-0.032,0.154-0.046v-0.446
	c-0.038,0.01-0.074,0.019-0.109,0.022c-0.034,0.004-0.065,0.006-0.094,0.006c-0.135,0-0.202-0.071-0.202-0.216v-2.097
	c0-0.152-0.027-0.284-0.08-0.396c-0.054-0.11-0.123-0.204-0.206-0.281c-0.083-0.077-0.176-0.138-0.279-0.182
	c-0.102-0.044-0.204-0.077-0.307-0.101c-0.102-0.022-0.195-0.039-0.282-0.045c-0.085-0.008-0.152-0.012-0.197-0.012
	c-0.224,0-0.427,0.023-0.61,0.066c-0.184,0.045-0.34,0.116-0.471,0.213c-0.129,0.098-0.231,0.223-0.306,0.376
	s-0.115,0.34-0.119,0.558H71.678z M73.356,103.206c0,0.121-0.033,0.233-0.098,0.339c-0.065,0.104-0.149,0.194-0.254,0.271
	c-0.103,0.076-0.224,0.137-0.358,0.181c-0.134,0.045-0.273,0.066-0.417,0.066c-0.232,0-0.401-0.055-0.505-0.167
	c-0.104-0.111-0.157-0.267-0.157-0.466c0-0.117,0.027-0.211,0.08-0.281c0.054-0.073,0.12-0.13,0.199-0.171
	c0.078-0.042,0.164-0.074,0.253-0.094c0.09-0.022,0.173-0.037,0.248-0.046c0.19-0.024,0.344-0.045,0.463-0.067
	c0.118-0.02,0.214-0.038,0.288-0.055c0.075-0.017,0.129-0.034,0.167-0.052c0.037-0.021,0.067-0.038,0.091-0.056V103.206z
	 M68.858,103.729h-0.014l-1.428-4.261h-0.752l1.824,4.999h0.718l1.824-4.999h-0.758L68.858,103.729z M62.063,101.933
	c0.008-0.07,0.025-0.146,0.048-0.228c0.024-0.08,0.064-0.157,0.123-0.228c0.058-0.073,0.139-0.133,0.243-0.18
	c0.105-0.046,0.246-0.068,0.422-0.068c0.571,0,0.856,0.197,0.856,0.592c0,0.093-0.008,0.165-0.028,0.22
	c-0.018,0.053-0.043,0.095-0.076,0.125s-0.067,0.051-0.104,0.063c-0.038,0.011-0.075,0.019-0.11,0.024l-1.011,0.125
	c-0.254,0.032-0.456,0.095-0.602,0.188c-0.146,0.093-0.257,0.197-0.331,0.312c-0.074,0.117-0.122,0.234-0.144,0.353
	c-0.02,0.118-0.031,0.215-0.031,0.289c0,0.158,0.028,0.302,0.084,0.429c0.055,0.127,0.134,0.238,0.236,0.331
	c0.102,0.093,0.223,0.164,0.362,0.215s0.292,0.077,0.459,0.077c0.177,0,0.333-0.019,0.47-0.056c0.137-0.037,0.259-0.085,0.367-0.143
	c0.107-0.058,0.199-0.122,0.274-0.191c0.076-0.07,0.146-0.137,0.206-0.202c0.004,0.069,0.017,0.139,0.035,0.205
	c0.018,0.067,0.049,0.126,0.094,0.177c0.044,0.053,0.108,0.093,0.191,0.127c0.083,0.031,0.193,0.048,0.328,0.048
	c0.068,0,0.13-0.008,0.182-0.023c0.05-0.017,0.101-0.032,0.152-0.046v-0.446c-0.037,0.01-0.073,0.019-0.108,0.022
	c-0.035,0.004-0.066,0.006-0.094,0.006c-0.134,0-0.202-0.071-0.202-0.216v-2.097c0-0.152-0.026-0.284-0.081-0.396
	c-0.053-0.11-0.12-0.204-0.205-0.281c-0.083-0.077-0.176-0.138-0.279-0.182c-0.102-0.044-0.205-0.077-0.306-0.101
	c-0.104-0.022-0.197-0.039-0.283-0.045c-0.085-0.008-0.152-0.012-0.198-0.012c-0.223,0-0.425,0.023-0.609,0.066
	c-0.185,0.045-0.341,0.116-0.47,0.213c-0.13,0.098-0.232,0.223-0.307,0.376c-0.073,0.153-0.113,0.34-0.117,0.558H62.063z
	 M63.741,103.206c0,0.121-0.033,0.233-0.098,0.339c-0.064,0.104-0.148,0.194-0.253,0.271c-0.105,0.076-0.225,0.137-0.359,0.181
	c-0.135,0.045-0.274,0.066-0.419,0.066c-0.232,0-0.399-0.055-0.504-0.167c-0.104-0.111-0.156-0.267-0.156-0.466
	c0-0.117,0.025-0.211,0.08-0.281c0.053-0.073,0.118-0.13,0.198-0.171c0.079-0.042,0.164-0.074,0.254-0.094
	c0.091-0.022,0.172-0.037,0.247-0.046c0.189-0.024,0.345-0.045,0.462-0.067c0.119-0.02,0.215-0.038,0.29-0.055
	c0.074-0.017,0.13-0.034,0.167-0.052c0.037-0.021,0.068-0.038,0.091-0.056V103.206z M59.597,102.183l1.393-1.357h-0.78l-1.566,1.538
	v-2.896h-0.592v4.999h0.592v-1.378l0.509-0.461l1.134,1.839h0.787L59.597,102.183z M57.119,104.467v-3.642h-0.613v2.005
	c0,0.135-0.017,0.273-0.048,0.415c-0.033,0.142-0.086,0.271-0.164,0.391c-0.077,0.117-0.179,0.215-0.307,0.291
	c-0.128,0.076-0.288,0.116-0.483,0.116c-0.098,0-0.19-0.015-0.275-0.042c-0.085-0.028-0.16-0.074-0.224-0.138
	c-0.062-0.063-0.112-0.144-0.149-0.245c-0.038-0.103-0.056-0.229-0.056-0.377v-2.416h-0.613v2.617c0,0.219,0.036,0.4,0.108,0.544
	c0.071,0.143,0.165,0.26,0.282,0.348c0.116,0.089,0.244,0.149,0.382,0.185c0.139,0.036,0.277,0.053,0.413,0.053
	c0.291,0,0.524-0.055,0.698-0.163c0.175-0.11,0.326-0.271,0.457-0.484l0.015,0.014v0.529H57.119z M52.439,102.35
	c0-0.13,0.023-0.254,0.066-0.372c0.044-0.118,0.106-0.224,0.188-0.313c0.083-0.091,0.18-0.162,0.293-0.213
	c0.113-0.051,0.243-0.077,0.386-0.077h0.23v-0.633c-0.023-0.01-0.046-0.015-0.07-0.019c-0.023-0.002-0.053-0.004-0.091-0.004
	c-0.232,0-0.43,0.065-0.595,0.196c-0.165,0.13-0.307,0.302-0.428,0.515h-0.014v-0.605h-0.578v3.642h0.612V102.35z M50.421,99.356
	h-0.752l-0.62,0.981h0.466L50.421,99.356z M48.416,101.933c0.008-0.07,0.025-0.146,0.048-0.228c0.023-0.08,0.064-0.157,0.123-0.228
	c0.057-0.073,0.138-0.133,0.243-0.18c0.105-0.046,0.246-0.068,0.422-0.068c0.571,0,0.856,0.197,0.856,0.592
	c0,0.093-0.011,0.165-0.028,0.22c-0.018,0.053-0.044,0.095-0.077,0.125c-0.032,0.03-0.066,0.051-0.104,0.063
	c-0.038,0.011-0.075,0.019-0.113,0.024l-1.008,0.125c-0.256,0.032-0.456,0.095-0.603,0.188c-0.146,0.093-0.256,0.197-0.331,0.312
	c-0.074,0.117-0.122,0.234-0.143,0.353c-0.02,0.118-0.032,0.215-0.032,0.289c0,0.158,0.029,0.302,0.083,0.429
	c0.057,0.127,0.135,0.238,0.237,0.331s0.224,0.164,0.363,0.215s0.291,0.077,0.459,0.077c0.176,0,0.333-0.019,0.469-0.056
	c0.137-0.037,0.26-0.085,0.366-0.143s0.198-0.122,0.275-0.191c0.076-0.07,0.145-0.137,0.205-0.202
	c0.004,0.069,0.016,0.139,0.035,0.205c0.019,0.067,0.051,0.126,0.095,0.177c0.043,0.053,0.106,0.093,0.191,0.127
	c0.083,0.031,0.192,0.048,0.327,0.048c0.069,0,0.129-0.008,0.181-0.023c0.052-0.017,0.103-0.032,0.153-0.046v-0.446
	c-0.037,0.01-0.074,0.019-0.109,0.022c-0.034,0.004-0.065,0.006-0.094,0.006c-0.135,0-0.202-0.071-0.202-0.216v-2.097
	c0-0.152-0.027-0.284-0.08-0.396c-0.053-0.11-0.123-0.204-0.205-0.281c-0.083-0.077-0.176-0.138-0.28-0.182
	c-0.101-0.044-0.204-0.077-0.305-0.101c-0.104-0.022-0.197-0.039-0.284-0.045c-0.085-0.008-0.151-0.012-0.197-0.012
	c-0.223,0-0.426,0.023-0.61,0.066c-0.184,0.045-0.34,0.116-0.47,0.213c-0.13,0.098-0.232,0.223-0.307,0.376
	c-0.075,0.153-0.113,0.34-0.118,0.558H48.416z M50.093,103.206c0,0.121-0.032,0.233-0.097,0.339
	c-0.064,0.104-0.15,0.194-0.254,0.271c-0.104,0.076-0.224,0.137-0.357,0.181c-0.135,0.045-0.275,0.066-0.419,0.066
	c-0.232,0-0.401-0.055-0.504-0.167c-0.104-0.111-0.157-0.267-0.157-0.466c0-0.117,0.026-0.211,0.08-0.281
	c0.054-0.073,0.119-0.13,0.198-0.171c0.079-0.042,0.164-0.074,0.254-0.094c0.089-0.022,0.173-0.037,0.247-0.046
	c0.191-0.024,0.344-0.045,0.463-0.067c0.119-0.02,0.215-0.038,0.29-0.055c0.073-0.017,0.128-0.034,0.166-0.052
	c0.038-0.021,0.067-0.038,0.091-0.056V103.206z M47.142,101.326v-0.501h-2.82v0.509h2.025l-2.193,2.652v0.48h3.05v-0.509h-2.235
	L47.142,101.326z M41.133,99.356H40.38l-0.619,0.981h0.466L41.133,99.356z M39.127,101.933c0.009-0.07,0.025-0.146,0.048-0.228
	c0.023-0.08,0.063-0.157,0.121-0.228c0.059-0.073,0.141-0.133,0.245-0.18c0.103-0.046,0.244-0.068,0.421-0.068
	c0.57,0,0.856,0.197,0.856,0.592c0,0.093-0.009,0.165-0.027,0.22c-0.02,0.053-0.044,0.095-0.077,0.125s-0.068,0.051-0.104,0.063
	c-0.037,0.011-0.075,0.019-0.112,0.024l-1.009,0.125c-0.255,0.032-0.456,0.095-0.603,0.188c-0.146,0.093-0.256,0.197-0.33,0.312
	c-0.075,0.117-0.123,0.234-0.143,0.353c-0.022,0.118-0.032,0.215-0.032,0.289c0,0.158,0.027,0.302,0.083,0.429
	c0.055,0.127,0.134,0.238,0.236,0.331c0.102,0.093,0.223,0.164,0.362,0.215s0.293,0.077,0.46,0.077c0.176,0,0.333-0.019,0.47-0.056
	c0.136-0.037,0.259-0.085,0.365-0.143s0.198-0.122,0.275-0.191c0.077-0.07,0.145-0.137,0.206-0.202
	c0.004,0.069,0.016,0.139,0.034,0.205c0.019,0.067,0.051,0.126,0.095,0.177c0.044,0.053,0.107,0.093,0.191,0.127
	c0.084,0.031,0.193,0.048,0.327,0.048c0.07,0,0.13-0.008,0.181-0.023c0.051-0.017,0.102-0.032,0.154-0.046v-0.446
	c-0.038,0.01-0.074,0.019-0.109,0.022s-0.065,0.006-0.094,0.006c-0.135,0-0.202-0.071-0.202-0.216v-2.097
	c0-0.152-0.027-0.284-0.08-0.396c-0.054-0.11-0.123-0.204-0.206-0.281c-0.084-0.077-0.177-0.138-0.279-0.182
	c-0.102-0.044-0.204-0.077-0.307-0.101c-0.102-0.022-0.195-0.039-0.282-0.045c-0.085-0.008-0.152-0.012-0.198-0.012
	c-0.223,0-0.426,0.023-0.61,0.066c-0.183,0.045-0.34,0.116-0.47,0.213c-0.129,0.098-0.233,0.223-0.306,0.376
	c-0.075,0.153-0.115,0.34-0.119,0.558H39.127z M40.806,103.206c0,0.121-0.034,0.233-0.098,0.339
	c-0.065,0.104-0.15,0.194-0.254,0.271s-0.224,0.137-0.358,0.181c-0.135,0.045-0.273,0.066-0.418,0.066
	c-0.232,0-0.4-0.055-0.504-0.167c-0.105-0.111-0.157-0.267-0.157-0.466c0-0.117,0.027-0.211,0.08-0.281
	c0.054-0.073,0.12-0.13,0.198-0.171c0.079-0.042,0.164-0.074,0.254-0.094c0.09-0.022,0.173-0.037,0.248-0.046
	c0.19-0.024,0.344-0.045,0.463-0.067c0.117-0.02,0.214-0.038,0.288-0.055c0.075-0.017,0.129-0.034,0.167-0.052
	c0.037-0.021,0.066-0.038,0.091-0.056V103.206z M37.985,101.334v-0.509H37.4v-1.017h-0.612v1.017h-0.495v0.509h0.495v2.4
	c0,0.112,0.009,0.216,0.03,0.311c0.021,0.095,0.058,0.178,0.112,0.248c0.053,0.068,0.128,0.124,0.223,0.163
	c0.095,0.04,0.22,0.06,0.373,0.06c0.033,0,0.088-0.006,0.171-0.017c0.081-0.013,0.177-0.022,0.288-0.032v-0.48h-0.216
	c-0.032,0-0.069-0.002-0.111-0.004c-0.041-0.002-0.083-0.013-0.123-0.03c-0.039-0.019-0.07-0.049-0.097-0.089
	c-0.024-0.038-0.038-0.093-0.038-0.162v-2.367H37.985z M35.257,103.325c-0.005,0.069-0.03,0.145-0.074,0.226
	c-0.044,0.083-0.106,0.16-0.188,0.233c-0.081,0.075-0.179,0.137-0.293,0.185c-0.113,0.049-0.241,0.074-0.386,0.074
	c-0.353,0-0.617-0.105-0.793-0.314c-0.177-0.209-0.265-0.502-0.265-0.884h2.659c0-0.32-0.032-0.612-0.097-0.874
	c-0.065-0.264-0.162-0.487-0.292-0.673s-0.293-0.328-0.487-0.427c-0.196-0.101-0.426-0.151-0.689-0.151
	c-0.303,0-0.564,0.054-0.785,0.157c-0.221,0.104-0.401,0.248-0.542,0.433c-0.141,0.184-0.247,0.397-0.317,0.644
	c-0.07,0.246-0.104,0.512-0.104,0.794c0,0.264,0.037,0.508,0.111,0.731c0.075,0.223,0.18,0.414,0.32,0.578
	c0.139,0.161,0.31,0.288,0.513,0.379c0.201,0.091,0.43,0.136,0.686,0.136c0.144,0,0.269-0.009,0.375-0.024
	c0.107-0.017,0.199-0.035,0.275-0.059c0.077-0.023,0.143-0.051,0.195-0.08c0.054-0.031,0.101-0.06,0.142-0.087
	c0.116-0.075,0.214-0.161,0.292-0.259c0.079-0.097,0.145-0.192,0.195-0.287c0.052-0.096,0.09-0.184,0.115-0.267
	c0.025-0.08,0.04-0.141,0.045-0.184H35.257z M33.258,102.357c0-0.14,0.026-0.275,0.08-0.407c0.053-0.133,0.125-0.249,0.216-0.349
	c0.089-0.1,0.196-0.179,0.319-0.24c0.124-0.062,0.254-0.091,0.394-0.091c0.186,0,0.341,0.029,0.466,0.091s0.228,0.141,0.307,0.24
	s0.136,0.216,0.174,0.349c0.037,0.132,0.06,0.268,0.069,0.407H33.258z M31.858,99.468h-0.612v4.999h0.612V99.468z M27.252,103.343
	c0.067,0.229,0.171,0.435,0.31,0.615c0.139,0.182,0.314,0.327,0.525,0.439c0.211,0.111,0.464,0.167,0.755,0.167
	c0.293,0,0.544-0.056,0.756-0.167c0.211-0.112,0.386-0.258,0.525-0.439c0.139-0.181,0.243-0.386,0.31-0.615
	c0.066-0.23,0.102-0.465,0.102-0.701s-0.035-0.469-0.102-0.699c-0.067-0.229-0.171-0.435-0.31-0.616s-0.314-0.327-0.525-0.438
	c-0.212-0.112-0.463-0.169-0.756-0.169c-0.291,0-0.544,0.057-0.755,0.169c-0.211,0.11-0.386,0.256-0.525,0.438
	s-0.243,0.388-0.31,0.616c-0.067,0.23-0.1,0.463-0.1,0.699S27.185,103.112,27.252,103.343 M27.827,102.221
	c0.028-0.159,0.079-0.312,0.156-0.455c0.077-0.145,0.185-0.267,0.324-0.365c0.14-0.101,0.318-0.151,0.536-0.151
	s0.397,0.051,0.537,0.151c0.138,0.099,0.247,0.221,0.323,0.365c0.077,0.144,0.129,0.296,0.157,0.455
	c0.027,0.162,0.042,0.302,0.042,0.421c0,0.122-0.015,0.262-0.042,0.422c-0.028,0.161-0.081,0.313-0.157,0.456
	c-0.076,0.145-0.185,0.266-0.323,0.366c-0.14,0.099-0.319,0.148-0.537,0.148s-0.396-0.05-0.536-0.148
	c-0.139-0.101-0.247-0.222-0.324-0.366c-0.077-0.144-0.128-0.295-0.156-0.456c-0.028-0.16-0.042-0.3-0.042-0.422
	C27.785,102.522,27.798,102.383,27.827,102.221 M26.455,101.988c0-0.26-0.039-0.473-0.117-0.638
	c-0.079-0.164-0.183-0.293-0.307-0.386c-0.125-0.093-0.264-0.156-0.415-0.191c-0.151-0.036-0.295-0.054-0.435-0.054
	c-0.15,0-0.278,0.021-0.39,0.061c-0.111,0.04-0.211,0.089-0.295,0.15c-0.087,0.06-0.161,0.125-0.223,0.194
	c-0.063,0.069-0.116,0.133-0.157,0.188h-0.014v-1.845h-0.613v4.999h0.613v-1.984c0-0.228,0.028-0.419,0.086-0.575
	c0.058-0.155,0.136-0.28,0.233-0.375c0.098-0.095,0.207-0.162,0.327-0.203c0.122-0.037,0.245-0.059,0.369-0.059
	c0.145,0,0.264,0.021,0.359,0.059c0.095,0.041,0.17,0.096,0.223,0.165c0.054,0.069,0.09,0.154,0.112,0.253
	c0.021,0.101,0.03,0.213,0.03,0.339v2.381h0.613V101.988z M22.57,104.467v-3.642h-0.613v2.005c0,0.135-0.017,0.273-0.049,0.415
	s-0.086,0.271-0.164,0.391c-0.076,0.117-0.179,0.215-0.306,0.291c-0.127,0.076-0.289,0.116-0.484,0.116
	c-0.097,0-0.189-0.015-0.274-0.042c-0.086-0.028-0.16-0.074-0.223-0.138c-0.063-0.063-0.114-0.144-0.15-0.245
	c-0.037-0.103-0.057-0.229-0.057-0.377v-2.416h-0.612v2.617c0,0.219,0.035,0.4,0.107,0.544c0.073,0.143,0.167,0.26,0.282,0.348
	c0.116,0.089,0.245,0.149,0.384,0.185c0.139,0.036,0.275,0.053,0.411,0.053c0.293,0,0.526-0.055,0.7-0.163
	c0.173-0.11,0.326-0.271,0.456-0.484l0.014,0.014v0.529H22.57z M15.638,103.343c0.066,0.229,0.171,0.435,0.31,0.615
	c0.139,0.182,0.314,0.327,0.525,0.439c0.211,0.111,0.463,0.167,0.755,0.167c0.293,0,0.544-0.056,0.755-0.167
	c0.212-0.112,0.386-0.258,0.526-0.439c0.139-0.181,0.242-0.386,0.309-0.615c0.067-0.23,0.102-0.465,0.102-0.701
	s-0.034-0.469-0.102-0.699c-0.067-0.229-0.17-0.435-0.309-0.616c-0.14-0.182-0.314-0.327-0.526-0.438
	c-0.211-0.112-0.462-0.169-0.755-0.169c-0.292,0-0.544,0.057-0.755,0.169c-0.211,0.11-0.386,0.256-0.525,0.438
	s-0.244,0.388-0.31,0.616c-0.067,0.23-0.1,0.463-0.1,0.699S15.571,103.112,15.638,103.343 M16.213,102.221
	c0.027-0.159,0.079-0.312,0.156-0.455c0.077-0.145,0.185-0.267,0.324-0.365c0.139-0.101,0.317-0.151,0.536-0.151
	s0.396,0.051,0.536,0.151c0.139,0.099,0.248,0.221,0.324,0.365c0.077,0.144,0.128,0.296,0.157,0.455
	c0.027,0.162,0.042,0.302,0.042,0.421c0,0.122-0.015,0.262-0.042,0.422c-0.029,0.161-0.08,0.313-0.157,0.456
	c-0.076,0.145-0.185,0.266-0.324,0.366c-0.14,0.099-0.318,0.148-0.536,0.148s-0.396-0.05-0.536-0.148
	c-0.14-0.101-0.247-0.222-0.324-0.366c-0.077-0.144-0.128-0.295-0.156-0.456c-0.029-0.16-0.042-0.3-0.042-0.422
	C16.171,102.522,16.185,102.383,16.213,102.221 M14.827,99.468h-0.613v4.999h0.613V99.468z M9.286,104.467h1.998
	c0.408,0,0.75-0.081,1.023-0.244c0.274-0.162,0.494-0.367,0.657-0.619c0.166-0.251,0.282-0.528,0.349-0.833
	c0.068-0.304,0.101-0.595,0.101-0.872c0-0.363-0.049-0.693-0.146-0.99c-0.098-0.296-0.236-0.551-0.417-0.766
	c-0.182-0.213-0.402-0.379-0.662-0.498c-0.26-0.118-0.553-0.177-0.877-0.177H9.286V104.467z M9.96,100.045h1.261
	c0.459,0,0.823,0.158,1.093,0.474c0.269,0.316,0.403,0.79,0.403,1.421c0,0.636-0.131,1.12-0.394,1.451s-0.613,0.498-1.054,0.498
	H9.96V100.045z"/>
<path fill="#B1B3B4" d="M150,95.591h-0.724v0.737H150V95.591z M148.523,93.196v-0.51h-0.585v-1.016h-0.614v1.016h-0.493v0.51h0.493
	v2.402c0,0.11,0.011,0.214,0.032,0.31c0.021,0.095,0.058,0.177,0.111,0.246c0.055,0.07,0.128,0.124,0.223,0.164
	c0.096,0.039,0.22,0.06,0.374,0.06c0.031,0,0.088-0.007,0.17-0.019c0.081-0.011,0.177-0.021,0.289-0.031v-0.479h-0.217
	c-0.032,0-0.069,0-0.11-0.003c-0.042-0.004-0.082-0.014-0.123-0.031c-0.038-0.019-0.071-0.049-0.097-0.088
	c-0.026-0.039-0.038-0.094-0.038-0.164v-2.366H148.523z M145.793,95.187c-0.004,0.071-0.027,0.146-0.071,0.227
	c-0.045,0.081-0.108,0.159-0.189,0.233c-0.081,0.075-0.179,0.137-0.292,0.185c-0.114,0.049-0.244,0.072-0.388,0.072
	c-0.352,0-0.615-0.104-0.793-0.313c-0.176-0.209-0.264-0.504-0.264-0.884h2.659c0-0.321-0.032-0.612-0.098-0.874
	c-0.065-0.263-0.162-0.486-0.292-0.672c-0.131-0.187-0.293-0.328-0.487-0.43c-0.195-0.099-0.426-0.148-0.69-0.148
	c-0.302,0-0.563,0.052-0.782,0.157c-0.221,0.104-0.401,0.248-0.543,0.431c-0.144,0.184-0.248,0.398-0.318,0.646
	c-0.068,0.245-0.104,0.509-0.104,0.792c0,0.265,0.037,0.509,0.112,0.731c0.072,0.223,0.18,0.415,0.319,0.578
	c0.14,0.162,0.311,0.289,0.512,0.38c0.202,0.091,0.432,0.135,0.686,0.135c0.145,0,0.27-0.006,0.377-0.023
	c0.106-0.017,0.198-0.037,0.275-0.059c0.076-0.024,0.141-0.051,0.194-0.08c0.053-0.031,0.1-0.06,0.142-0.088
	c0.117-0.075,0.215-0.159,0.294-0.258c0.079-0.098,0.144-0.193,0.193-0.289c0.052-0.096,0.09-0.185,0.116-0.265
	c0.024-0.081,0.04-0.144,0.046-0.185H145.793z M143.796,94.219c0-0.139,0.025-0.274,0.08-0.407c0.053-0.132,0.125-0.248,0.214-0.348
	c0.091-0.099,0.199-0.179,0.321-0.24c0.123-0.061,0.254-0.091,0.394-0.091c0.186,0,0.342,0.03,0.467,0.091
	c0.125,0.062,0.228,0.142,0.307,0.24c0.079,0.1,0.136,0.216,0.174,0.348c0.037,0.133,0.06,0.269,0.069,0.407H143.796z
	 M142.396,91.33h-0.613v4.999h0.613V91.33z M139.234,93.196v-0.51h-0.585v-1.016h-0.612v1.016h-0.495v0.51h0.495v2.402
	c0,0.11,0.011,0.214,0.031,0.31c0.021,0.095,0.059,0.177,0.111,0.246c0.054,0.07,0.128,0.124,0.224,0.164
	c0.095,0.039,0.22,0.06,0.371,0.06c0.033,0,0.09-0.007,0.171-0.019c0.081-0.011,0.179-0.021,0.289-0.031v-0.479h-0.215
	c-0.033,0-0.071,0-0.112-0.003c-0.042-0.004-0.083-0.014-0.122-0.031c-0.039-0.019-0.072-0.049-0.097-0.088
	c-0.025-0.039-0.039-0.094-0.039-0.164v-2.366H139.234z M136.506,95.187c-0.005,0.071-0.03,0.146-0.074,0.227
	c-0.043,0.081-0.106,0.159-0.188,0.233c-0.082,0.075-0.179,0.137-0.292,0.185c-0.114,0.049-0.243,0.072-0.387,0.072
	c-0.354,0-0.618-0.104-0.794-0.313c-0.177-0.209-0.266-0.504-0.266-0.884h2.66c0-0.321-0.032-0.612-0.098-0.874
	c-0.064-0.263-0.161-0.486-0.292-0.672c-0.13-0.187-0.292-0.328-0.487-0.43c-0.194-0.099-0.424-0.148-0.688-0.148
	c-0.302,0-0.563,0.052-0.784,0.157c-0.221,0.104-0.402,0.248-0.543,0.431c-0.142,0.184-0.247,0.398-0.316,0.646
	c-0.069,0.245-0.104,0.509-0.104,0.792c0,0.265,0.038,0.509,0.11,0.731c0.075,0.223,0.182,0.415,0.321,0.578
	c0.14,0.162,0.31,0.289,0.513,0.38c0.201,0.091,0.429,0.135,0.686,0.135c0.144,0,0.269-0.006,0.375-0.023
	c0.106-0.017,0.198-0.037,0.274-0.059c0.077-0.024,0.143-0.051,0.196-0.08c0.053-0.031,0.101-0.06,0.143-0.088
	c0.116-0.075,0.213-0.159,0.292-0.258c0.079-0.098,0.145-0.193,0.195-0.289s0.09-0.185,0.114-0.265
	c0.026-0.081,0.041-0.144,0.045-0.185H136.506z M134.506,94.219c0-0.139,0.028-0.274,0.081-0.407
	c0.054-0.132,0.125-0.248,0.216-0.348c0.091-0.099,0.197-0.179,0.32-0.24c0.123-0.061,0.255-0.091,0.394-0.091
	c0.186,0,0.341,0.03,0.467,0.091c0.125,0.062,0.227,0.142,0.306,0.24c0.079,0.1,0.137,0.216,0.174,0.348
	c0.038,0.133,0.061,0.269,0.07,0.407H134.506z M133.204,93.726c0-0.048-0.011-0.133-0.033-0.255
	c-0.024-0.123-0.082-0.25-0.174-0.383c-0.093-0.132-0.232-0.25-0.418-0.352c-0.187-0.103-0.442-0.153-0.766-0.153
	c-0.182,0-0.354,0.022-0.52,0.068c-0.165,0.047-0.312,0.118-0.438,0.214c-0.129,0.095-0.23,0.216-0.308,0.361
	c-0.075,0.146-0.113,0.319-0.113,0.52c0,0.25,0.075,0.443,0.229,0.581c0.153,0.137,0.357,0.238,0.613,0.304l0.71,0.173
	c0.259,0.065,0.445,0.132,0.558,0.202c0.111,0.07,0.166,0.176,0.166,0.32c0,0.103-0.022,0.188-0.068,0.261
	c-0.047,0.073-0.108,0.131-0.185,0.177c-0.077,0.047-0.166,0.082-0.266,0.105c-0.099,0.023-0.205,0.034-0.316,0.034
	c-0.218,0-0.39-0.024-0.516-0.076c-0.124-0.051-0.22-0.114-0.285-0.188c-0.065-0.074-0.107-0.156-0.129-0.243
	c-0.021-0.089-0.033-0.169-0.038-0.237h-0.592c0.004,0.074,0.014,0.157,0.025,0.246c0.01,0.091,0.034,0.184,0.068,0.279
	c0.034,0.095,0.087,0.187,0.157,0.275c0.068,0.089,0.16,0.169,0.275,0.24c0.112,0.072,0.255,0.128,0.424,0.17
	c0.17,0.042,0.375,0.063,0.616,0.063c0.204,0,0.395-0.027,0.571-0.082c0.177-0.058,0.328-0.136,0.456-0.236
	c0.128-0.104,0.229-0.229,0.303-0.377s0.11-0.318,0.11-0.51c0-0.245-0.074-0.442-0.226-0.595c-0.15-0.15-0.416-0.272-0.797-0.365
	l-0.612-0.152c-0.121-0.028-0.224-0.057-0.307-0.085c-0.084-0.026-0.151-0.058-0.203-0.094c-0.051-0.035-0.09-0.076-0.113-0.125
	c-0.026-0.049-0.039-0.11-0.039-0.184c0-0.113,0.029-0.202,0.087-0.272c0.059-0.068,0.127-0.121,0.206-0.157
	c0.078-0.034,0.158-0.057,0.24-0.068c0.081-0.012,0.145-0.019,0.191-0.019c0.194,0,0.348,0.021,0.459,0.063
	c0.111,0.041,0.198,0.094,0.258,0.156c0.06,0.063,0.1,0.131,0.118,0.202c0.019,0.072,0.027,0.136,0.027,0.192H133.204z
	 M129.152,95.187c-0.005,0.071-0.028,0.146-0.072,0.227c-0.045,0.081-0.108,0.159-0.188,0.233c-0.081,0.075-0.179,0.137-0.293,0.185
	c-0.112,0.049-0.241,0.072-0.386,0.072c-0.353,0-0.617-0.104-0.794-0.313s-0.265-0.504-0.265-0.884h2.66
	c0-0.321-0.033-0.612-0.098-0.874c-0.066-0.263-0.163-0.486-0.293-0.672c-0.129-0.187-0.292-0.328-0.486-0.43
	c-0.196-0.099-0.426-0.148-0.69-0.148c-0.302,0-0.562,0.052-0.783,0.157c-0.221,0.104-0.401,0.248-0.543,0.431
	c-0.141,0.184-0.247,0.398-0.317,0.646c-0.069,0.245-0.104,0.509-0.104,0.792c0,0.265,0.036,0.509,0.111,0.731
	s0.182,0.415,0.319,0.578c0.14,0.162,0.311,0.289,0.512,0.38c0.203,0.091,0.432,0.135,0.687,0.135c0.144,0,0.27-0.006,0.376-0.023
	c0.106-0.017,0.198-0.037,0.275-0.059c0.077-0.024,0.142-0.051,0.195-0.08c0.054-0.031,0.101-0.06,0.143-0.088
	c0.115-0.075,0.213-0.159,0.292-0.258c0.079-0.098,0.144-0.193,0.196-0.289c0.051-0.096,0.087-0.185,0.113-0.265
	c0.025-0.081,0.04-0.144,0.046-0.185H129.152z M127.154,94.219c0-0.139,0.026-0.274,0.08-0.407c0.053-0.132,0.126-0.248,0.217-0.348
	c0.09-0.099,0.196-0.179,0.319-0.24c0.122-0.061,0.253-0.091,0.393-0.091c0.187,0,0.342,0.03,0.467,0.091
	c0.126,0.062,0.229,0.142,0.308,0.24c0.078,0.1,0.136,0.216,0.173,0.348c0.037,0.133,0.062,0.269,0.069,0.407H127.154z
	 M125.825,91.33h-0.614v1.872h-0.014c-0.036-0.051-0.083-0.112-0.138-0.184c-0.057-0.072-0.128-0.141-0.213-0.206
	c-0.087-0.065-0.188-0.118-0.308-0.163c-0.118-0.044-0.261-0.066-0.428-0.066c-0.242,0-0.456,0.047-0.644,0.14
	c-0.188,0.093-0.349,0.222-0.479,0.385c-0.128,0.166-0.228,0.358-0.295,0.578c-0.067,0.222-0.101,0.46-0.101,0.715
	c0,0.218,0.024,0.446,0.076,0.687c0.052,0.238,0.139,0.457,0.261,0.657c0.123,0.199,0.288,0.363,0.491,0.494
	c0.205,0.13,0.461,0.194,0.772,0.194c0.089,0,0.181-0.006,0.275-0.023c0.096-0.017,0.188-0.047,0.279-0.094
	c0.091-0.046,0.178-0.108,0.26-0.185c0.084-0.077,0.159-0.179,0.224-0.304h0.015v0.501h0.578V91.33z M123.248,94.087
	c0.015-0.157,0.054-0.309,0.122-0.45c0.066-0.141,0.167-0.259,0.3-0.358c0.132-0.097,0.316-0.146,0.553-0.146
	c0.223,0,0.4,0.053,0.53,0.156c0.129,0.105,0.229,0.236,0.295,0.395c0.067,0.157,0.11,0.325,0.129,0.504
	c0.018,0.18,0.028,0.342,0.028,0.492c0,0.24-0.034,0.44-0.103,0.598c-0.066,0.157-0.149,0.283-0.25,0.376
	c-0.099,0.093-0.208,0.157-0.322,0.195c-0.117,0.037-0.224,0.055-0.321,0.055c-0.166,0-0.313-0.035-0.436-0.107
	s-0.225-0.171-0.306-0.296s-0.142-0.274-0.182-0.445c-0.039-0.172-0.06-0.357-0.06-0.557
	C123.227,94.382,123.234,94.245,123.248,94.087 M119.948,96.328v-3.642h-0.614v2.007c0,0.134-0.016,0.271-0.048,0.413
	c-0.033,0.142-0.087,0.272-0.163,0.39c-0.077,0.12-0.179,0.217-0.307,0.293c-0.128,0.077-0.289,0.114-0.484,0.114
	c-0.097,0-0.188-0.013-0.274-0.04c-0.086-0.029-0.161-0.074-0.224-0.137c-0.062-0.062-0.112-0.145-0.148-0.248
	c-0.038-0.101-0.057-0.227-0.057-0.375v-2.417h-0.612v2.619c0,0.218,0.036,0.399,0.107,0.543c0.072,0.143,0.166,0.259,0.282,0.348
	s0.243,0.149,0.383,0.186c0.139,0.034,0.276,0.051,0.411,0.051c0.292,0,0.525-0.054,0.699-0.162c0.175-0.11,0.326-0.271,0.457-0.484
	l0.014,0.014v0.528H119.948z M115.074,94.044l1.393-1.357h-0.78l-1.566,1.539V91.33h-0.592v4.998h0.592v-1.379l0.508-0.458
	l1.136,1.837h0.786L115.074,94.044z M112.596,96.328v-3.642h-0.613v2.007c0,0.134-0.016,0.271-0.049,0.413
	c-0.032,0.142-0.087,0.272-0.164,0.39c-0.076,0.12-0.179,0.217-0.306,0.293c-0.128,0.077-0.289,0.114-0.483,0.114
	c-0.1,0-0.191-0.013-0.275-0.04c-0.087-0.029-0.16-0.074-0.223-0.137c-0.063-0.062-0.113-0.145-0.15-0.248
	c-0.037-0.101-0.056-0.227-0.056-0.375v-2.417h-0.613v2.619c0,0.218,0.036,0.399,0.108,0.543c0.071,0.143,0.167,0.259,0.281,0.348
	c0.117,0.089,0.244,0.149,0.385,0.186c0.139,0.034,0.275,0.051,0.41,0.051c0.292,0,0.525-0.054,0.699-0.162
	c0.174-0.11,0.327-0.271,0.456-0.484l0.015,0.014v0.528H112.596z M107.917,94.212c0-0.13,0.021-0.254,0.065-0.372
	c0.044-0.118,0.106-0.223,0.188-0.313s0.179-0.161,0.293-0.212c0.113-0.052,0.242-0.076,0.386-0.076h0.229v-0.635
	c-0.023-0.009-0.046-0.015-0.068-0.018c-0.024-0.002-0.054-0.003-0.091-0.003c-0.232,0-0.432,0.064-0.595,0.194
	c-0.166,0.131-0.309,0.303-0.43,0.516h-0.014v-0.606h-0.578v3.642h0.614V94.212z M105.896,91.217h-0.752l-0.619,0.983h0.466
	L105.896,91.217z M103.892,93.794c0.009-0.068,0.026-0.145,0.048-0.226c0.024-0.081,0.064-0.157,0.123-0.23
	c0.058-0.071,0.139-0.13,0.243-0.177s0.245-0.07,0.422-0.07c0.57,0,0.855,0.198,0.855,0.593c0,0.093-0.008,0.165-0.027,0.218
	c-0.019,0.055-0.044,0.097-0.075,0.126c-0.033,0.029-0.069,0.052-0.106,0.063c-0.036,0.011-0.073,0.02-0.11,0.024l-1.011,0.125
	c-0.254,0.032-0.455,0.095-0.602,0.188c-0.146,0.093-0.257,0.198-0.33,0.313c-0.074,0.115-0.122,0.233-0.145,0.352
	c-0.02,0.118-0.03,0.215-0.03,0.289c0,0.158,0.027,0.301,0.084,0.429c0.056,0.128,0.134,0.238,0.236,0.33
	c0.102,0.093,0.223,0.165,0.362,0.216c0.14,0.052,0.292,0.076,0.459,0.076c0.177,0,0.333-0.018,0.471-0.055
	c0.137-0.038,0.258-0.085,0.365-0.144c0.107-0.057,0.199-0.12,0.275-0.191c0.075-0.069,0.145-0.136,0.205-0.201
	c0.004,0.069,0.017,0.137,0.035,0.205c0.018,0.067,0.049,0.126,0.094,0.178c0.044,0.051,0.107,0.093,0.19,0.126
	c0.084,0.031,0.193,0.048,0.328,0.048c0.07,0,0.129-0.008,0.182-0.025c0.051-0.016,0.102-0.031,0.153-0.045v-0.445
	c-0.038,0.01-0.074,0.016-0.107,0.021c-0.036,0.006-0.068,0.008-0.095,0.008c-0.135,0-0.202-0.072-0.202-0.216v-2.097
	c0-0.152-0.027-0.284-0.08-0.396c-0.054-0.111-0.121-0.205-0.206-0.282c-0.083-0.076-0.176-0.135-0.277-0.18
	c-0.104-0.044-0.206-0.078-0.307-0.103c-0.103-0.021-0.197-0.036-0.282-0.045c-0.086-0.007-0.152-0.01-0.199-0.01
	c-0.223,0-0.425,0.022-0.608,0.066c-0.185,0.045-0.341,0.114-0.471,0.212c-0.13,0.099-0.232,0.223-0.306,0.377
	c-0.074,0.152-0.114,0.338-0.118,0.556H103.892z M105.568,95.068c0,0.121-0.031,0.233-0.097,0.337
	c-0.064,0.105-0.148,0.196-0.253,0.272c-0.105,0.077-0.224,0.137-0.359,0.181c-0.135,0.045-0.274,0.066-0.419,0.066
	c-0.231,0-0.398-0.056-0.504-0.167c-0.104-0.111-0.156-0.267-0.156-0.467c0-0.116,0.026-0.209,0.079-0.281
	c0.054-0.073,0.12-0.129,0.199-0.171s0.164-0.073,0.255-0.094c0.091-0.021,0.172-0.036,0.247-0.046
	c0.189-0.022,0.345-0.045,0.462-0.066c0.119-0.02,0.215-0.038,0.29-0.056c0.073-0.016,0.13-0.033,0.168-0.052
	c0.035-0.02,0.066-0.037,0.088-0.055V95.068z M102.618,93.189v-0.503h-2.821v0.51h2.026l-2.194,2.652v0.479h3.05V95.82h-2.233
	L102.618,93.189z M96.539,95.187c-0.005,0.071-0.029,0.146-0.073,0.227c-0.045,0.081-0.106,0.159-0.188,0.233
	c-0.082,0.075-0.18,0.137-0.293,0.185c-0.113,0.049-0.242,0.072-0.387,0.072c-0.353,0-0.617-0.104-0.793-0.313
	c-0.178-0.209-0.266-0.504-0.266-0.884h2.661c0-0.321-0.033-0.612-0.099-0.874c-0.065-0.263-0.162-0.486-0.292-0.672
	c-0.13-0.187-0.293-0.328-0.487-0.43c-0.195-0.099-0.424-0.148-0.688-0.148c-0.303,0-0.564,0.052-0.785,0.157
	c-0.221,0.104-0.401,0.248-0.542,0.431c-0.142,0.184-0.247,0.398-0.318,0.646c-0.068,0.245-0.103,0.509-0.103,0.792
	c0,0.265,0.036,0.509,0.11,0.731c0.075,0.223,0.182,0.415,0.319,0.578c0.141,0.162,0.311,0.289,0.513,0.38s0.431,0.135,0.687,0.135
	c0.143,0,0.269-0.006,0.375-0.023c0.107-0.017,0.199-0.037,0.276-0.059c0.076-0.024,0.142-0.051,0.194-0.08
	c0.054-0.031,0.102-0.06,0.143-0.088c0.117-0.075,0.214-0.159,0.293-0.258c0.078-0.098,0.144-0.193,0.195-0.289
	c0.051-0.096,0.089-0.185,0.114-0.265c0.024-0.081,0.04-0.144,0.045-0.185H96.539z M94.54,94.219c0-0.139,0.026-0.274,0.08-0.407
	c0.053-0.132,0.126-0.248,0.217-0.348c0.09-0.099,0.196-0.179,0.319-0.24c0.124-0.061,0.255-0.091,0.394-0.091
	c0.186,0,0.341,0.03,0.467,0.091c0.125,0.062,0.228,0.142,0.307,0.24c0.079,0.1,0.136,0.216,0.174,0.348
	c0.037,0.133,0.061,0.269,0.068,0.407H94.54z M88.261,96.328h0.612v-1.984c0-0.245,0.033-0.447,0.101-0.605
	c0.067-0.157,0.149-0.28,0.247-0.371c0.097-0.091,0.202-0.153,0.313-0.186s0.212-0.049,0.299-0.049c0.112,0,0.204,0.021,0.279,0.063
	c0.074,0.042,0.134,0.095,0.178,0.159c0.043,0.064,0.074,0.138,0.09,0.22c0.016,0.081,0.025,0.159,0.025,0.232v2.521h0.611v-2.221
	c0-0.12,0.022-0.24,0.063-0.358c0.042-0.118,0.101-0.223,0.173-0.313c0.075-0.09,0.165-0.163,0.27-0.22
	c0.104-0.055,0.222-0.083,0.352-0.083c0.26,0,0.438,0.078,0.532,0.234c0.095,0.155,0.143,0.358,0.143,0.608v2.353h0.613v-2.521
	c0-0.255-0.041-0.462-0.122-0.622c-0.082-0.16-0.18-0.285-0.295-0.373c-0.117-0.088-0.24-0.148-0.37-0.181
	c-0.13-0.033-0.243-0.049-0.341-0.049c-0.14,0-0.263,0.015-0.368,0.046c-0.107,0.029-0.203,0.069-0.287,0.12
	c-0.083,0.053-0.161,0.115-0.236,0.188c-0.075,0.075-0.147,0.153-0.223,0.237c-0.028-0.046-0.063-0.104-0.104-0.174
	c-0.041-0.07-0.101-0.135-0.174-0.195c-0.075-0.062-0.168-0.111-0.278-0.156c-0.112-0.044-0.249-0.066-0.412-0.066
	c-0.161,0-0.305,0.022-0.427,0.068c-0.124,0.047-0.229,0.104-0.317,0.168s-0.162,0.133-0.22,0.206
	c-0.057,0.071-0.103,0.131-0.135,0.177h-0.014v-0.516h-0.578V96.328z M86.868,95.187c-0.006,0.071-0.029,0.146-0.074,0.227
	c-0.044,0.081-0.106,0.159-0.188,0.233c-0.081,0.075-0.18,0.137-0.292,0.185c-0.114,0.049-0.243,0.072-0.387,0.072
	c-0.354,0-0.618-0.104-0.794-0.313c-0.177-0.209-0.264-0.504-0.264-0.884h2.659c0-0.321-0.032-0.612-0.097-0.874
	c-0.065-0.263-0.164-0.486-0.294-0.672c-0.129-0.187-0.293-0.328-0.487-0.43c-0.195-0.099-0.424-0.148-0.688-0.148
	c-0.303,0-0.563,0.052-0.784,0.157c-0.22,0.104-0.4,0.248-0.543,0.431c-0.142,0.184-0.247,0.398-0.316,0.646
	c-0.069,0.245-0.104,0.509-0.104,0.792c0,0.265,0.037,0.509,0.111,0.731s0.182,0.415,0.321,0.578
	c0.138,0.162,0.308,0.289,0.511,0.38c0.202,0.091,0.432,0.135,0.686,0.135c0.144,0,0.269-0.006,0.376-0.023
	c0.107-0.017,0.199-0.037,0.275-0.059c0.076-0.024,0.142-0.051,0.194-0.08c0.054-0.031,0.102-0.06,0.143-0.088
	c0.117-0.075,0.214-0.159,0.293-0.258c0.078-0.098,0.144-0.193,0.195-0.289c0.051-0.096,0.089-0.185,0.115-0.265
	c0.025-0.081,0.041-0.144,0.045-0.185H86.868z M84.87,94.219c0-0.139,0.025-0.274,0.079-0.407c0.054-0.132,0.125-0.248,0.216-0.348
	c0.09-0.099,0.197-0.179,0.32-0.24c0.123-0.061,0.254-0.091,0.393-0.091c0.187,0,0.342,0.03,0.467,0.091
	c0.126,0.062,0.228,0.142,0.307,0.24c0.079,0.1,0.138,0.216,0.175,0.348c0.036,0.133,0.06,0.269,0.069,0.407H84.87z M83.47,92.687
	h-0.612v4.109c0,0.102-0.007,0.184-0.021,0.243c-0.014,0.061-0.037,0.106-0.069,0.136c-0.033,0.03-0.079,0.049-0.14,0.056
	c-0.061,0.008-0.134,0.01-0.223,0.01h-0.125v0.53c0.088,0.015,0.174,0.021,0.258,0.021c0.228,0,0.403-0.033,0.527-0.101
	c0.126-0.067,0.219-0.149,0.28-0.244c0.06-0.095,0.096-0.197,0.107-0.303c0.012-0.106,0.018-0.199,0.018-0.278V92.687z M83.47,91.33
	h-0.612v0.697h0.612V91.33z M81.924,96.328v-3.642h-0.612v2.007c0,0.134-0.017,0.271-0.05,0.413
	c-0.031,0.142-0.085,0.272-0.162,0.39c-0.077,0.12-0.18,0.217-0.307,0.293c-0.128,0.077-0.288,0.114-0.484,0.114
	c-0.098,0-0.189-0.013-0.275-0.04c-0.086-0.029-0.159-0.074-0.223-0.137c-0.063-0.062-0.112-0.145-0.148-0.248
	c-0.038-0.101-0.057-0.227-0.057-0.375v-2.417h-0.612v2.619c0,0.218,0.035,0.399,0.107,0.543c0.071,0.143,0.166,0.259,0.282,0.348
	c0.115,0.089,0.243,0.149,0.382,0.186c0.14,0.034,0.276,0.051,0.412,0.051c0.292,0,0.525-0.054,0.699-0.162
	c0.174-0.11,0.326-0.271,0.457-0.484l0.013,0.014v0.528H81.924z M78.373,93.196v-0.51h-0.585v-1.016h-0.611v1.016h-0.495v0.51h0.495
	v2.402c0,0.11,0.009,0.214,0.03,0.31c0.021,0.095,0.058,0.177,0.111,0.246c0.053,0.07,0.128,0.124,0.223,0.164
	c0.096,0.039,0.22,0.06,0.373,0.06c0.032,0,0.088-0.007,0.171-0.019c0.081-0.011,0.177-0.021,0.288-0.031v-0.479h-0.217
	c-0.031,0-0.068,0-0.11-0.003c-0.041-0.004-0.083-0.014-0.123-0.031c-0.039-0.019-0.07-0.049-0.097-0.088
	c-0.025-0.039-0.038-0.094-0.038-0.164v-2.366H78.373z M74.856,95.653h-0.014l-0.968-2.967h-0.695l1.35,3.74
	c-0.075,0.189-0.134,0.339-0.18,0.449c-0.046,0.107-0.091,0.193-0.133,0.254c-0.042,0.061-0.089,0.099-0.139,0.115
	c-0.051,0.016-0.116,0.024-0.194,0.024c-0.084,0-0.157-0.008-0.219-0.022c-0.063-0.014-0.114-0.026-0.151-0.04v0.556
	c0.05,0.014,0.095,0.026,0.133,0.039c0.037,0.011,0.079,0.017,0.125,0.017c0.194,0,0.353-0.011,0.473-0.033
	c0.121-0.024,0.228-0.089,0.321-0.193c0.093-0.104,0.186-0.258,0.278-0.465c0.093-0.208,0.211-0.496,0.355-0.867
	c0.236-0.6,0.46-1.194,0.672-1.786c0.21-0.592,0.423-1.187,0.638-1.787h-0.677L74.856,95.653z M71.634,94.044l1.392-1.357h-0.78
	l-1.566,1.539V91.33h-0.592v4.998h0.592v-1.379l0.508-0.458l1.135,1.837h0.786L71.634,94.044z M69.252,93.726
	c0-0.048-0.012-0.133-0.035-0.255c-0.023-0.123-0.081-0.25-0.174-0.383c-0.093-0.132-0.232-0.25-0.418-0.352
	c-0.186-0.103-0.441-0.153-0.766-0.153c-0.181,0-0.354,0.022-0.519,0.068c-0.165,0.047-0.312,0.118-0.439,0.214
	c-0.126,0.095-0.23,0.216-0.306,0.361c-0.076,0.146-0.115,0.319-0.115,0.52c0,0.25,0.077,0.443,0.23,0.581
	c0.154,0.137,0.357,0.238,0.613,0.304l0.709,0.173c0.261,0.065,0.446,0.132,0.558,0.202c0.111,0.07,0.167,0.176,0.167,0.32
	c0,0.103-0.024,0.188-0.07,0.261c-0.046,0.073-0.108,0.131-0.184,0.177c-0.077,0.047-0.166,0.082-0.265,0.105
	c-0.1,0.023-0.207,0.034-0.317,0.034c-0.218,0-0.39-0.024-0.515-0.076c-0.125-0.051-0.221-0.114-0.286-0.188
	c-0.064-0.074-0.107-0.156-0.128-0.243c-0.02-0.089-0.033-0.169-0.038-0.237h-0.592c0.005,0.074,0.013,0.157,0.024,0.246
	c0.011,0.091,0.035,0.184,0.069,0.279c0.035,0.095,0.086,0.187,0.157,0.275c0.069,0.089,0.162,0.169,0.274,0.24
	c0.114,0.072,0.255,0.128,0.425,0.17c0.168,0.042,0.374,0.063,0.616,0.063c0.205,0,0.395-0.027,0.571-0.082
	c0.177-0.058,0.328-0.136,0.457-0.236c0.127-0.104,0.228-0.229,0.303-0.377c0.074-0.148,0.11-0.318,0.11-0.51
	c0-0.245-0.075-0.442-0.226-0.595c-0.151-0.15-0.417-0.272-0.797-0.365l-0.613-0.152c-0.121-0.028-0.223-0.057-0.306-0.085
	c-0.084-0.026-0.151-0.058-0.202-0.094c-0.053-0.035-0.089-0.076-0.116-0.125c-0.025-0.049-0.038-0.11-0.038-0.184
	c0-0.113,0.029-0.202,0.087-0.272c0.057-0.068,0.126-0.121,0.206-0.157c0.078-0.034,0.158-0.057,0.239-0.068
	s0.145-0.019,0.191-0.019c0.196,0,0.349,0.021,0.46,0.063c0.112,0.041,0.197,0.094,0.257,0.156c0.061,0.063,0.1,0.131,0.119,0.202
	c0.018,0.072,0.027,0.136,0.027,0.192H69.252z M62.613,95.205c0.067,0.229,0.171,0.435,0.309,0.615
	c0.139,0.182,0.314,0.327,0.526,0.439c0.211,0.11,0.463,0.167,0.754,0.167c0.293,0,0.545-0.057,0.756-0.167
	c0.211-0.112,0.386-0.258,0.525-0.439c0.14-0.181,0.243-0.387,0.311-0.615c0.066-0.23,0.101-0.464,0.101-0.701
	c0-0.236-0.035-0.469-0.101-0.699c-0.068-0.229-0.171-0.436-0.311-0.615c-0.139-0.181-0.314-0.328-0.525-0.44
	c-0.211-0.111-0.463-0.166-0.756-0.166c-0.291,0-0.543,0.055-0.754,0.166c-0.212,0.112-0.387,0.26-0.526,0.44
	c-0.138,0.18-0.242,0.386-0.309,0.615c-0.068,0.23-0.102,0.463-0.102,0.699C62.512,94.741,62.545,94.975,62.613,95.205
	 M63.187,94.083c0.028-0.159,0.08-0.311,0.156-0.455c0.077-0.145,0.185-0.267,0.325-0.366c0.139-0.1,0.317-0.15,0.535-0.15
	c0.219,0,0.398,0.051,0.537,0.15s0.248,0.222,0.324,0.366c0.076,0.145,0.129,0.296,0.156,0.455c0.028,0.16,0.042,0.301,0.042,0.421
	c0,0.123-0.014,0.262-0.042,0.422c-0.027,0.161-0.08,0.313-0.156,0.456c-0.076,0.144-0.185,0.266-0.324,0.365
	c-0.139,0.102-0.318,0.149-0.537,0.149c-0.217,0-0.396-0.048-0.535-0.149c-0.14-0.1-0.248-0.222-0.325-0.365
	c-0.076-0.144-0.128-0.295-0.156-0.456c-0.027-0.16-0.041-0.299-0.041-0.422C63.146,94.384,63.16,94.243,63.187,94.083
	 M59.414,94.188c0.018-0.179,0.061-0.347,0.128-0.504c0.066-0.158,0.167-0.289,0.295-0.395c0.13-0.104,0.307-0.156,0.53-0.156
	c0.236,0,0.422,0.049,0.553,0.146c0.133,0.1,0.233,0.218,0.3,0.358c0.068,0.142,0.108,0.293,0.122,0.45
	c0.014,0.158,0.021,0.295,0.021,0.411c0,0.199-0.02,0.385-0.059,0.557c-0.04,0.171-0.1,0.32-0.181,0.445
	c-0.082,0.125-0.184,0.224-0.306,0.296c-0.124,0.072-0.269,0.107-0.435,0.107c-0.098,0-0.205-0.018-0.322-0.055
	c-0.115-0.038-0.224-0.103-0.323-0.195c-0.1-0.093-0.184-0.219-0.25-0.376c-0.068-0.157-0.103-0.357-0.103-0.598
	C59.385,94.529,59.396,94.367,59.414,94.188 M58.801,97.771h0.613v-1.825h0.014c0.079,0.131,0.198,0.245,0.358,0.342
	c0.161,0.097,0.363,0.146,0.61,0.146c0.31,0,0.568-0.064,0.772-0.194c0.205-0.131,0.368-0.295,0.491-0.494
	c0.123-0.2,0.21-0.419,0.261-0.657c0.051-0.24,0.076-0.469,0.076-0.687c0-0.255-0.033-0.493-0.101-0.715
	c-0.067-0.22-0.166-0.412-0.295-0.578c-0.13-0.163-0.29-0.292-0.478-0.385c-0.188-0.093-0.403-0.14-0.644-0.14
	c-0.168,0-0.31,0.022-0.428,0.066c-0.118,0.045-0.222,0.098-0.307,0.163c-0.086,0.065-0.156,0.134-0.212,0.206
	c-0.056,0.071-0.103,0.133-0.139,0.184h-0.014v-0.516h-0.578V97.771z M55.995,92.791c-0.01-0.14-0.034-0.3-0.074-0.483
	c-0.038-0.184-0.125-0.357-0.256-0.521c-0.132-0.166-0.327-0.306-0.581-0.418c-0.256-0.113-0.603-0.171-1.038-0.171
	c-0.302,0-0.563,0.044-0.781,0.133c-0.217,0.088-0.396,0.203-0.535,0.348c-0.14,0.144-0.242,0.31-0.306,0.494
	c-0.066,0.186-0.098,0.377-0.098,0.57c0,0.22,0.041,0.399,0.122,0.54c0.081,0.142,0.177,0.257,0.29,0.346
	c0.111,0.087,0.227,0.154,0.347,0.197c0.121,0.044,0.223,0.075,0.306,0.095l1.024,0.236c0.204,0.052,0.375,0.102,0.512,0.149
	c0.136,0.049,0.246,0.105,0.328,0.171c0.08,0.065,0.139,0.143,0.173,0.233c0.035,0.091,0.053,0.201,0.053,0.33
	c0,0.182-0.045,0.327-0.136,0.436c-0.09,0.108-0.202,0.193-0.334,0.255c-0.132,0.06-0.275,0.101-0.427,0.122
	c-0.154,0.02-0.292,0.03-0.412,0.03c-0.163,0-0.325-0.018-0.487-0.056c-0.163-0.037-0.31-0.101-0.442-0.191
	c-0.133-0.092-0.241-0.21-0.324-0.358c-0.083-0.148-0.125-0.336-0.125-0.564h-0.633c0,0.236,0.032,0.46,0.094,0.666
	c0.063,0.205,0.2,0.407,0.414,0.603c0.056,0.05,0.123,0.104,0.2,0.159c0.076,0.056,0.173,0.108,0.292,0.157
	c0.118,0.048,0.26,0.088,0.424,0.118s0.364,0.045,0.596,0.045c0.212,0,0.435-0.024,0.664-0.068c0.231-0.047,0.442-0.129,0.635-0.241
	c0.192-0.113,0.349-0.269,0.473-0.463c0.123-0.194,0.185-0.441,0.185-0.739c0-0.198-0.029-0.373-0.088-0.521
	c-0.057-0.15-0.136-0.278-0.236-0.387c-0.1-0.109-0.22-0.199-0.359-0.268c-0.139-0.07-0.289-0.125-0.453-0.16l-1.427-0.327
	c-0.074-0.02-0.146-0.043-0.216-0.071c-0.068-0.026-0.132-0.066-0.188-0.114c-0.055-0.049-0.101-0.109-0.136-0.182
	c-0.035-0.071-0.052-0.16-0.052-0.269c0-0.189,0.04-0.342,0.119-0.455c0.078-0.113,0.176-0.202,0.291-0.264
	c0.117-0.063,0.242-0.105,0.374-0.127c0.132-0.02,0.251-0.03,0.358-0.03c0.14,0,0.281,0.016,0.425,0.048
	c0.145,0.033,0.275,0.089,0.395,0.168c0.117,0.078,0.214,0.184,0.292,0.313c0.077,0.131,0.12,0.293,0.129,0.487H55.995z
	 M51.461,95.73h-3.015v-1.672h2.737V93.46h-2.737v-1.532h2.967V91.33h-3.642v4.998h3.69V95.73z M43.482,95.653h-0.013l-0.947-2.967
	h-0.711l1.331,3.642h0.653l1.386-3.642h-0.669L43.482,95.653z M38.093,95.653H38.08l-0.967-2.967h-0.697l1.352,3.74
	c-0.075,0.189-0.135,0.339-0.182,0.449c-0.046,0.107-0.091,0.193-0.132,0.254c-0.042,0.061-0.089,0.099-0.139,0.115
	c-0.052,0.016-0.117,0.024-0.195,0.024c-0.083,0-0.157-0.008-0.219-0.022c-0.063-0.014-0.113-0.026-0.15-0.04v0.556
	c0.052,0.014,0.096,0.026,0.132,0.039c0.037,0.011,0.079,0.017,0.125,0.017c0.195,0,0.354-0.011,0.474-0.033
	c0.12-0.024,0.228-0.089,0.321-0.193c0.093-0.104,0.186-0.258,0.278-0.465c0.093-0.208,0.211-0.496,0.354-0.867
	c0.237-0.6,0.461-1.194,0.672-1.786c0.212-0.592,0.423-1.187,0.637-1.787h-0.675L38.093,95.653z M31.096,96.328h0.613v-1.984
	c0-0.245,0.033-0.447,0.1-0.605c0.068-0.157,0.15-0.28,0.247-0.371c0.098-0.091,0.203-0.153,0.313-0.186
	c0.112-0.032,0.212-0.049,0.3-0.049c0.112,0,0.205,0.021,0.278,0.063c0.075,0.042,0.134,0.095,0.179,0.159
	c0.043,0.064,0.074,0.138,0.089,0.22c0.016,0.081,0.025,0.159,0.025,0.232v2.521h0.612v-2.221c0-0.12,0.022-0.24,0.063-0.358
	c0.041-0.118,0.1-0.223,0.173-0.313c0.075-0.09,0.165-0.163,0.269-0.22c0.104-0.055,0.222-0.083,0.351-0.083
	c0.261,0,0.438,0.078,0.533,0.234c0.095,0.155,0.143,0.358,0.143,0.608v2.353h0.613v-2.521c0-0.255-0.04-0.462-0.121-0.622
	c-0.083-0.16-0.181-0.285-0.295-0.373c-0.117-0.088-0.241-0.148-0.37-0.181c-0.13-0.033-0.243-0.049-0.341-0.049
	c-0.139,0-0.262,0.015-0.368,0.046c-0.108,0.029-0.203,0.069-0.287,0.12c-0.083,0.053-0.161,0.115-0.236,0.188
	c-0.074,0.075-0.147,0.153-0.223,0.237c-0.028-0.046-0.062-0.104-0.104-0.174c-0.041-0.07-0.1-0.135-0.174-0.195
	c-0.075-0.062-0.168-0.111-0.278-0.156c-0.112-0.044-0.249-0.066-0.412-0.066c-0.162,0-0.305,0.022-0.427,0.068
	c-0.124,0.047-0.229,0.104-0.317,0.168c-0.088,0.064-0.162,0.133-0.22,0.206c-0.057,0.071-0.102,0.131-0.135,0.177h-0.014v-0.516
	h-0.578V96.328z M27.116,95.205c0.067,0.229,0.171,0.435,0.31,0.615c0.14,0.182,0.314,0.327,0.526,0.439
	c0.211,0.11,0.462,0.167,0.755,0.167c0.292,0,0.544-0.057,0.755-0.167c0.211-0.112,0.386-0.258,0.525-0.439
	c0.139-0.181,0.243-0.387,0.31-0.615c0.068-0.23,0.101-0.464,0.101-0.701c0-0.236-0.033-0.469-0.101-0.699
	c-0.067-0.229-0.171-0.436-0.31-0.615c-0.139-0.181-0.314-0.328-0.525-0.44c-0.211-0.111-0.463-0.166-0.755-0.166
	c-0.293,0-0.544,0.055-0.755,0.166c-0.212,0.112-0.387,0.26-0.526,0.44c-0.139,0.18-0.243,0.386-0.31,0.615
	c-0.066,0.23-0.1,0.463-0.1,0.699C27.016,94.741,27.049,94.975,27.116,95.205 M27.691,94.083c0.028-0.159,0.08-0.311,0.157-0.455
	c0.076-0.145,0.185-0.267,0.324-0.366s0.317-0.15,0.536-0.15c0.219,0,0.397,0.051,0.536,0.15s0.247,0.222,0.324,0.366
	s0.129,0.296,0.156,0.455c0.028,0.16,0.042,0.301,0.042,0.421c0,0.123-0.014,0.262-0.042,0.422
	c-0.027,0.161-0.079,0.313-0.156,0.456s-0.185,0.266-0.324,0.365c-0.139,0.102-0.317,0.149-0.536,0.149
	c-0.218,0-0.396-0.048-0.536-0.149c-0.139-0.1-0.248-0.222-0.324-0.365c-0.077-0.144-0.129-0.295-0.157-0.456
	c-0.027-0.16-0.042-0.299-0.042-0.422C27.648,94.384,27.664,94.243,27.691,94.083 M26.375,91.33h-0.614v1.872h-0.013
	c-0.038-0.051-0.084-0.112-0.139-0.184c-0.056-0.072-0.126-0.141-0.213-0.206c-0.085-0.065-0.188-0.118-0.306-0.163
	c-0.118-0.044-0.261-0.066-0.428-0.066c-0.241,0-0.456,0.047-0.644,0.14c-0.189,0.093-0.347,0.222-0.478,0.385
	c-0.129,0.166-0.228,0.358-0.296,0.578c-0.066,0.222-0.1,0.46-0.1,0.715c0,0.218,0.025,0.446,0.077,0.687
	c0.05,0.238,0.138,0.457,0.261,0.657c0.122,0.199,0.286,0.363,0.491,0.494c0.204,0.13,0.462,0.194,0.772,0.194
	c0.088,0,0.18-0.006,0.275-0.023c0.095-0.017,0.188-0.047,0.279-0.094c0.091-0.046,0.177-0.108,0.262-0.185
	c0.083-0.077,0.157-0.179,0.223-0.304h0.014v0.501h0.578V91.33z M23.799,94.087c0.014-0.157,0.054-0.309,0.122-0.45
	c0.066-0.141,0.166-0.259,0.299-0.358c0.132-0.097,0.316-0.146,0.553-0.146c0.223,0,0.4,0.053,0.529,0.156
	c0.13,0.105,0.229,0.236,0.296,0.395c0.067,0.157,0.11,0.325,0.129,0.504c0.018,0.18,0.027,0.342,0.027,0.492
	c0,0.24-0.034,0.44-0.1,0.598c-0.068,0.157-0.151,0.283-0.251,0.376s-0.208,0.157-0.324,0.195c-0.116,0.037-0.222,0.055-0.32,0.055
	c-0.167,0-0.313-0.035-0.436-0.107c-0.121-0.072-0.225-0.171-0.305-0.296c-0.081-0.125-0.141-0.274-0.182-0.445
	c-0.039-0.172-0.06-0.357-0.06-0.557C23.777,94.382,23.784,94.245,23.799,94.087 M20.094,91.217h-0.751L18.723,92.2h0.466
	L20.094,91.217z M20.024,95.187c-0.004,0.071-0.029,0.146-0.073,0.227c-0.044,0.081-0.106,0.159-0.188,0.233
	c-0.083,0.075-0.18,0.137-0.292,0.185c-0.114,0.049-0.244,0.072-0.387,0.072c-0.352,0-0.617-0.104-0.794-0.313
	c-0.175-0.209-0.264-0.504-0.264-0.884h2.661c0-0.321-0.033-0.612-0.099-0.874c-0.064-0.263-0.161-0.486-0.291-0.672
	c-0.131-0.187-0.293-0.328-0.487-0.43c-0.195-0.099-0.425-0.148-0.69-0.148c-0.302,0-0.563,0.052-0.784,0.157
	c-0.22,0.104-0.399,0.248-0.542,0.431c-0.143,0.184-0.247,0.398-0.317,0.646c-0.069,0.245-0.104,0.509-0.104,0.792
	c0,0.265,0.037,0.509,0.111,0.731s0.18,0.415,0.321,0.578c0.139,0.162,0.309,0.289,0.511,0.38c0.202,0.091,0.431,0.135,0.686,0.135
	c0.144,0,0.269-0.006,0.376-0.023c0.106-0.017,0.198-0.037,0.275-0.059c0.075-0.024,0.14-0.051,0.194-0.08
	c0.053-0.031,0.101-0.06,0.143-0.088c0.116-0.075,0.214-0.159,0.293-0.258c0.078-0.098,0.144-0.193,0.194-0.289
	c0.052-0.096,0.09-0.185,0.116-0.265c0.024-0.081,0.039-0.144,0.045-0.185H20.024z M18.026,94.219c0-0.139,0.026-0.274,0.081-0.407
	c0.053-0.132,0.125-0.248,0.215-0.348c0.091-0.099,0.199-0.179,0.321-0.24c0.124-0.061,0.254-0.091,0.394-0.091
	c0.186,0,0.342,0.03,0.466,0.091c0.125,0.062,0.227,0.142,0.307,0.24c0.079,0.1,0.136,0.216,0.174,0.348
	c0.037,0.133,0.059,0.269,0.07,0.407H18.026z M15.514,95.653h-0.015l-0.947-2.967h-0.709l1.329,3.642h0.655l1.384-3.642h-0.667
	L15.514,95.653z M13.417,93.726c0-0.048-0.01-0.133-0.035-0.255c-0.022-0.123-0.08-0.25-0.174-0.383
	c-0.093-0.132-0.232-0.25-0.417-0.352c-0.186-0.103-0.441-0.153-0.766-0.153c-0.18,0-0.354,0.022-0.518,0.068
	c-0.165,0.047-0.311,0.118-0.438,0.214c-0.128,0.095-0.23,0.216-0.307,0.361c-0.076,0.146-0.114,0.319-0.114,0.52
	c0,0.25,0.076,0.443,0.23,0.581c0.153,0.137,0.357,0.238,0.612,0.304l0.71,0.173c0.26,0.065,0.446,0.132,0.557,0.202
	c0.112,0.07,0.168,0.176,0.168,0.32c0,0.103-0.023,0.188-0.07,0.261c-0.046,0.073-0.108,0.131-0.184,0.177
	c-0.077,0.047-0.166,0.082-0.265,0.105c-0.101,0.023-0.207,0.034-0.317,0.034c-0.218,0-0.39-0.024-0.516-0.076
	c-0.125-0.051-0.22-0.114-0.285-0.188c-0.065-0.074-0.108-0.156-0.129-0.243c-0.021-0.089-0.034-0.169-0.039-0.237h-0.592
	c0.005,0.074,0.012,0.157,0.024,0.246c0.013,0.091,0.035,0.184,0.071,0.279c0.035,0.095,0.086,0.187,0.157,0.275
	c0.068,0.089,0.16,0.169,0.274,0.24c0.113,0.072,0.254,0.128,0.424,0.17s0.375,0.063,0.617,0.063c0.204,0,0.394-0.027,0.57-0.082
	c0.177-0.058,0.329-0.136,0.457-0.236c0.128-0.104,0.229-0.229,0.303-0.377c0.075-0.148,0.112-0.318,0.112-0.51
	c0-0.245-0.076-0.442-0.226-0.595c-0.152-0.15-0.418-0.272-0.797-0.365l-0.614-0.152c-0.119-0.028-0.223-0.057-0.305-0.085
	c-0.084-0.026-0.152-0.058-0.203-0.094c-0.052-0.035-0.09-0.076-0.115-0.125c-0.025-0.049-0.038-0.11-0.038-0.184
	c0-0.113,0.028-0.202,0.087-0.272c0.057-0.068,0.125-0.121,0.205-0.157c0.079-0.034,0.159-0.057,0.241-0.068
	c0.08-0.012,0.145-0.019,0.191-0.019c0.195,0,0.349,0.021,0.46,0.063c0.111,0.041,0.196,0.094,0.257,0.156
	c0.06,0.063,0.1,0.131,0.118,0.202c0.019,0.072,0.028,0.136,0.028,0.192H13.417z M5.493,93.794c0.009-0.068,0.026-0.145,0.049-0.226
	c0.023-0.081,0.063-0.157,0.122-0.23c0.058-0.071,0.139-0.13,0.244-0.177c0.105-0.047,0.245-0.07,0.422-0.07
	c0.57,0,0.856,0.198,0.856,0.593c0,0.093-0.01,0.165-0.028,0.218c-0.018,0.055-0.044,0.097-0.077,0.126
	c-0.032,0.029-0.066,0.052-0.104,0.063c-0.037,0.011-0.075,0.02-0.111,0.024L5.856,94.24c-0.256,0.032-0.457,0.095-0.603,0.188
	c-0.146,0.093-0.257,0.198-0.331,0.313c-0.074,0.115-0.122,0.233-0.143,0.352s-0.03,0.215-0.03,0.289
	c0,0.158,0.026,0.301,0.082,0.429c0.057,0.128,0.135,0.238,0.237,0.33c0.103,0.093,0.223,0.165,0.362,0.216
	c0.139,0.052,0.292,0.076,0.46,0.076c0.176,0,0.333-0.018,0.47-0.055c0.137-0.038,0.258-0.085,0.365-0.144
	c0.107-0.057,0.199-0.12,0.276-0.191c0.076-0.069,0.145-0.136,0.205-0.201c0.004,0.069,0.016,0.137,0.035,0.205
	c0.018,0.067,0.049,0.126,0.094,0.178c0.044,0.051,0.107,0.093,0.191,0.126c0.084,0.031,0.194,0.048,0.327,0.048
	c0.07,0,0.131-0.008,0.182-0.025c0.051-0.016,0.102-0.031,0.153-0.045v-0.445c-0.038,0.01-0.074,0.016-0.108,0.021
	c-0.035,0.006-0.066,0.008-0.095,0.008c-0.135,0-0.202-0.072-0.202-0.216v-2.097c0-0.152-0.027-0.284-0.08-0.396
	C7.65,93.091,7.583,92.997,7.5,92.92c-0.084-0.076-0.177-0.135-0.28-0.18c-0.102-0.044-0.204-0.078-0.306-0.103
	c-0.103-0.021-0.196-0.036-0.283-0.045c-0.085-0.007-0.152-0.01-0.197-0.01c-0.224,0-0.427,0.022-0.61,0.066
	c-0.184,0.045-0.34,0.114-0.471,0.212c-0.129,0.099-0.231,0.223-0.306,0.377c-0.075,0.152-0.113,0.338-0.118,0.556H5.493z
	 M7.171,95.068c0,0.121-0.032,0.233-0.097,0.337c-0.065,0.105-0.15,0.196-0.254,0.272c-0.104,0.077-0.224,0.137-0.359,0.181
	c-0.134,0.045-0.273,0.066-0.418,0.066c-0.232,0-0.401-0.056-0.505-0.167c-0.104-0.111-0.156-0.267-0.156-0.467
	c0-0.116,0.026-0.209,0.079-0.281c0.055-0.073,0.12-0.129,0.199-0.171s0.164-0.073,0.253-0.094c0.091-0.021,0.173-0.036,0.248-0.046
	c0.19-0.022,0.345-0.045,0.463-0.066c0.118-0.02,0.214-0.038,0.289-0.056c0.074-0.016,0.131-0.033,0.167-0.052
	c0.037-0.02,0.067-0.037,0.091-0.055V95.068z M3.314,95.368H3.3L0.801,91.33H0v4.998h0.655v-4.037h0.014l2.54,4.037h0.76V91.33
	H3.314V95.368z"/>
<path fill="#B1B3B4" d="M102.043,88.19h0.612v-1.984c0-0.245,0.034-0.447,0.102-0.605c0.066-0.158,0.149-0.282,0.247-0.371
	c0.098-0.091,0.203-0.153,0.313-0.186c0.112-0.032,0.211-0.049,0.3-0.049c0.11,0,0.203,0.021,0.278,0.063
	c0.074,0.04,0.133,0.095,0.177,0.159c0.045,0.064,0.075,0.138,0.091,0.22c0.017,0.081,0.023,0.159,0.023,0.232v2.521h0.614V85.97
	c0-0.121,0.021-0.24,0.063-0.358c0.041-0.118,0.1-0.223,0.174-0.313c0.073-0.091,0.163-0.163,0.268-0.22
	c0.105-0.055,0.222-0.083,0.352-0.083c0.261,0,0.438,0.078,0.532,0.234c0.097,0.155,0.144,0.358,0.144,0.608v2.353h0.613V85.67
	c0-0.255-0.041-0.463-0.122-0.622c-0.082-0.16-0.181-0.285-0.297-0.373c-0.115-0.088-0.238-0.148-0.368-0.181
	c-0.131-0.033-0.243-0.049-0.341-0.049c-0.139,0-0.263,0.015-0.37,0.045c-0.106,0.03-0.201,0.07-0.285,0.121
	c-0.084,0.053-0.163,0.115-0.236,0.188c-0.074,0.075-0.148,0.153-0.224,0.236c-0.027-0.046-0.062-0.104-0.103-0.174
	c-0.043-0.069-0.102-0.134-0.175-0.194c-0.074-0.062-0.167-0.111-0.278-0.156c-0.111-0.044-0.249-0.066-0.412-0.066
	c-0.162,0-0.304,0.022-0.428,0.068c-0.123,0.047-0.229,0.104-0.316,0.168c-0.089,0.064-0.162,0.133-0.22,0.206
	c-0.058,0.071-0.103,0.131-0.136,0.177h-0.014v-0.516h-0.578V88.19z M99.181,83.107C99.06,83.229,99,83.383,99,83.566
	c0,0.186,0.06,0.34,0.181,0.46c0.122,0.123,0.274,0.182,0.459,0.182c0.187,0,0.34-0.059,0.461-0.182
	c0.12-0.12,0.181-0.274,0.181-0.46c0-0.184-0.061-0.337-0.181-0.459c-0.121-0.121-0.274-0.181-0.461-0.181
	C99.455,82.927,99.303,82.986,99.181,83.107 M99.384,83.31c0.068-0.07,0.155-0.104,0.256-0.104c0.104,0,0.189,0.033,0.259,0.104
	c0.069,0.069,0.104,0.156,0.104,0.257c0,0.104-0.035,0.188-0.104,0.259c-0.069,0.068-0.155,0.104-0.259,0.104
	c-0.101,0-0.188-0.036-0.256-0.104c-0.07-0.07-0.105-0.155-0.105-0.259C99.278,83.466,99.313,83.379,99.384,83.31 M101.123,88.19
	v-3.642h-0.611v2.007c0,0.134-0.018,0.271-0.049,0.413c-0.033,0.142-0.088,0.271-0.164,0.39c-0.076,0.12-0.179,0.217-0.307,0.293
	c-0.128,0.077-0.289,0.114-0.483,0.114c-0.098,0-0.189-0.013-0.276-0.041c-0.085-0.028-0.159-0.073-0.223-0.136
	c-0.062-0.062-0.111-0.146-0.148-0.248c-0.038-0.102-0.056-0.228-0.056-0.375v-2.417h-0.613v2.619c0,0.218,0.036,0.398,0.108,0.543
	c0.071,0.143,0.165,0.259,0.282,0.348c0.116,0.088,0.242,0.149,0.382,0.186c0.14,0.034,0.277,0.051,0.411,0.051
	c0.292,0,0.525-0.055,0.699-0.163c0.175-0.109,0.326-0.271,0.456-0.483l0.014,0.014v0.528H101.123z M97.322,83.191h-0.613v1.873
	h-0.014c-0.036-0.051-0.083-0.112-0.139-0.186c-0.055-0.07-0.127-0.139-0.213-0.204s-0.188-0.118-0.307-0.163
	c-0.118-0.044-0.261-0.066-0.428-0.066c-0.242,0-0.456,0.047-0.644,0.139c-0.189,0.093-0.348,0.223-0.478,0.386
	c-0.131,0.166-0.229,0.358-0.296,0.578c-0.067,0.222-0.102,0.46-0.102,0.715c0,0.218,0.026,0.445,0.077,0.687
	c0.051,0.238,0.139,0.457,0.262,0.657c0.122,0.199,0.286,0.363,0.49,0.493c0.204,0.131,0.462,0.195,0.773,0.195
	c0.088,0,0.18-0.009,0.274-0.024s0.188-0.047,0.278-0.094s0.179-0.107,0.262-0.184c0.083-0.077,0.157-0.179,0.223-0.304h0.014v0.501
	h0.578V83.191z M94.746,85.949c0.014-0.157,0.055-0.309,0.121-0.45c0.067-0.141,0.168-0.262,0.3-0.358
	c0.133-0.097,0.316-0.146,0.554-0.146c0.223,0,0.398,0.053,0.528,0.156c0.131,0.104,0.229,0.236,0.297,0.395
	c0.067,0.157,0.109,0.325,0.13,0.504c0.018,0.18,0.026,0.342,0.026,0.492c0,0.24-0.034,0.44-0.101,0.598
	c-0.067,0.157-0.15,0.283-0.251,0.376s-0.207,0.157-0.324,0.195c-0.114,0.037-0.222,0.055-0.319,0.055
	c-0.168,0-0.313-0.035-0.436-0.107c-0.122-0.072-0.226-0.171-0.306-0.296c-0.081-0.126-0.143-0.274-0.181-0.445
	c-0.04-0.172-0.061-0.357-0.061-0.557C94.725,86.244,94.731,86.107,94.746,85.949 M89.037,85.656
	c0.008-0.068,0.024-0.145,0.048-0.226c0.022-0.082,0.063-0.157,0.123-0.23c0.057-0.072,0.139-0.13,0.242-0.177
	c0.104-0.046,0.245-0.07,0.421-0.07c0.572,0,0.856,0.198,0.856,0.593c0,0.093-0.009,0.165-0.027,0.218
	c-0.019,0.055-0.044,0.097-0.077,0.126c-0.032,0.029-0.066,0.051-0.103,0.063c-0.038,0.011-0.075,0.019-0.112,0.024l-1.01,0.125
	c-0.255,0.032-0.455,0.095-0.604,0.188c-0.146,0.093-0.255,0.195-0.33,0.313c-0.074,0.115-0.122,0.233-0.143,0.352
	s-0.031,0.215-0.031,0.289c0,0.158,0.028,0.301,0.083,0.429c0.057,0.126,0.136,0.237,0.237,0.33
	c0.103,0.093,0.223,0.165,0.362,0.216c0.141,0.051,0.293,0.076,0.46,0.076c0.176,0,0.332-0.018,0.47-0.056
	c0.137-0.037,0.259-0.084,0.365-0.143c0.108-0.057,0.199-0.122,0.274-0.191c0.077-0.069,0.146-0.137,0.206-0.201
	c0.005,0.069,0.016,0.137,0.036,0.205c0.018,0.067,0.049,0.126,0.094,0.178c0.044,0.051,0.107,0.093,0.19,0.126
	c0.084,0.031,0.192,0.048,0.327,0.048c0.07,0,0.13-0.008,0.181-0.025c0.052-0.016,0.104-0.031,0.154-0.045v-0.445
	c-0.037,0.01-0.073,0.016-0.109,0.021c-0.033,0.005-0.065,0.008-0.094,0.008c-0.134,0-0.201-0.072-0.201-0.216v-2.097
	c0-0.152-0.026-0.285-0.08-0.396c-0.053-0.111-0.122-0.205-0.206-0.282c-0.083-0.076-0.176-0.138-0.278-0.18
	c-0.102-0.044-0.203-0.078-0.306-0.103c-0.103-0.021-0.196-0.036-0.282-0.045c-0.086-0.007-0.151-0.01-0.198-0.01
	c-0.223,0-0.426,0.022-0.609,0.066c-0.184,0.045-0.34,0.114-0.47,0.211c-0.13,0.1-0.232,0.224-0.307,0.376
	c-0.074,0.154-0.114,0.34-0.118,0.558H89.037z M90.714,86.931c0,0.12-0.032,0.233-0.097,0.337c-0.064,0.105-0.149,0.196-0.254,0.272
	c-0.104,0.075-0.225,0.137-0.359,0.181c-0.135,0.045-0.274,0.065-0.417,0.065c-0.232,0-0.401-0.055-0.505-0.166
	c-0.105-0.111-0.157-0.267-0.157-0.467c0-0.116,0.026-0.211,0.08-0.281c0.053-0.073,0.119-0.129,0.2-0.171
	c0.077-0.042,0.162-0.073,0.253-0.094c0.091-0.021,0.173-0.036,0.248-0.046c0.189-0.022,0.344-0.045,0.462-0.066
	c0.119-0.021,0.215-0.04,0.289-0.056c0.073-0.016,0.13-0.033,0.166-0.052c0.038-0.02,0.069-0.038,0.091-0.056V86.931z
	 M87.589,85.713c0-0.26-0.039-0.473-0.118-0.638c-0.081-0.166-0.182-0.293-0.308-0.386c-0.125-0.094-0.264-0.157-0.414-0.192
	c-0.15-0.033-0.296-0.052-0.435-0.052c-0.157,0-0.297,0.022-0.418,0.068c-0.121,0.047-0.227,0.104-0.316,0.168
	c-0.091,0.064-0.167,0.133-0.227,0.206c-0.061,0.071-0.107,0.131-0.14,0.177H85.2v-0.516h-0.578v3.642h0.613v-1.984
	c0-0.245,0.033-0.447,0.101-0.605c0.066-0.158,0.15-0.282,0.247-0.371c0.097-0.091,0.202-0.153,0.313-0.186s0.211-0.049,0.3-0.049
	c0.296,0,0.501,0.08,0.611,0.24c0.112,0.159,0.168,0.399,0.168,0.714v2.241h0.613V85.713z M79.357,85.656
	c0.01-0.068,0.025-0.145,0.05-0.226c0.022-0.082,0.063-0.157,0.121-0.23c0.059-0.072,0.14-0.13,0.244-0.177
	c0.104-0.046,0.245-0.07,0.421-0.07c0.57,0,0.856,0.198,0.856,0.593c0,0.093-0.01,0.165-0.027,0.218
	c-0.019,0.055-0.044,0.097-0.077,0.126c-0.032,0.029-0.066,0.051-0.104,0.063c-0.036,0.011-0.073,0.019-0.111,0.024l-1.009,0.125
	c-0.256,0.032-0.457,0.095-0.604,0.188c-0.146,0.093-0.255,0.195-0.33,0.313c-0.075,0.115-0.122,0.233-0.143,0.352
	c-0.021,0.118-0.031,0.215-0.031,0.289c0,0.158,0.028,0.301,0.083,0.429c0.056,0.126,0.135,0.237,0.236,0.33
	c0.104,0.093,0.224,0.165,0.362,0.216s0.293,0.076,0.461,0.076c0.176,0,0.332-0.018,0.469-0.056
	c0.138-0.037,0.259-0.084,0.365-0.143c0.107-0.057,0.199-0.122,0.275-0.191c0.077-0.069,0.145-0.137,0.206-0.201
	c0.004,0.069,0.016,0.137,0.034,0.205c0.019,0.067,0.05,0.126,0.095,0.178c0.044,0.051,0.107,0.093,0.191,0.126
	c0.084,0.031,0.192,0.048,0.327,0.048c0.069,0,0.13-0.008,0.181-0.025c0.051-0.016,0.104-0.031,0.154-0.045v-0.445
	c-0.037,0.01-0.074,0.016-0.109,0.021c-0.033,0.005-0.065,0.008-0.094,0.008c-0.135,0-0.201-0.072-0.201-0.216v-2.097
	c0-0.152-0.027-0.285-0.08-0.396c-0.054-0.111-0.123-0.205-0.206-0.282c-0.083-0.076-0.177-0.138-0.278-0.18
	c-0.103-0.044-0.204-0.078-0.308-0.103c-0.101-0.021-0.194-0.036-0.281-0.045c-0.085-0.007-0.15-0.01-0.197-0.01
	c-0.224,0-0.427,0.022-0.609,0.066c-0.184,0.045-0.34,0.114-0.47,0.211c-0.131,0.1-0.232,0.224-0.307,0.376
	c-0.075,0.154-0.114,0.34-0.119,0.558H79.357z M81.036,86.931c0,0.12-0.032,0.233-0.097,0.337c-0.066,0.105-0.15,0.196-0.256,0.272
	c-0.104,0.075-0.224,0.137-0.358,0.181c-0.134,0.045-0.273,0.065-0.417,0.065c-0.231,0-0.4-0.055-0.505-0.166
	s-0.157-0.267-0.157-0.467c0-0.116,0.027-0.211,0.08-0.281c0.054-0.073,0.12-0.129,0.198-0.171c0.079-0.042,0.165-0.073,0.255-0.094
	c0.09-0.021,0.173-0.036,0.247-0.046c0.19-0.022,0.345-0.045,0.464-0.066c0.118-0.021,0.215-0.04,0.287-0.056
	c0.075-0.016,0.131-0.033,0.168-0.052c0.037-0.02,0.067-0.038,0.091-0.056V86.931z M76.894,85.906l1.393-1.357h-0.779l-1.567,1.539
	v-2.896h-0.592v4.999h0.592v-1.379l0.507-0.458l1.135,1.837h0.787L76.894,85.906z M74.415,88.19v-3.642h-0.613v2.007
	c0,0.134-0.016,0.271-0.049,0.413c-0.032,0.142-0.087,0.271-0.164,0.39c-0.077,0.12-0.178,0.217-0.306,0.293
	c-0.129,0.077-0.29,0.114-0.484,0.114c-0.098,0-0.189-0.013-0.275-0.041c-0.085-0.028-0.16-0.073-0.223-0.136
	c-0.062-0.062-0.113-0.146-0.149-0.248c-0.037-0.102-0.056-0.228-0.056-0.375v-2.417h-0.612v2.619c0,0.218,0.036,0.398,0.106,0.543
	c0.073,0.143,0.167,0.259,0.282,0.348c0.117,0.088,0.245,0.149,0.384,0.186c0.139,0.034,0.276,0.051,0.41,0.051
	c0.293,0,0.526-0.055,0.701-0.163c0.174-0.109,0.326-0.271,0.456-0.483l0.014,0.014v0.528H74.415z M69.736,86.074
	c0-0.13,0.022-0.254,0.066-0.372c0.043-0.119,0.106-0.223,0.188-0.313c0.08-0.091,0.178-0.161,0.292-0.213
	c0.114-0.051,0.243-0.077,0.386-0.077h0.23v-0.633c-0.023-0.01-0.046-0.015-0.07-0.018c-0.023-0.002-0.054-0.003-0.09-0.003
	c-0.232,0-0.431,0.064-0.595,0.194c-0.166,0.13-0.308,0.302-0.428,0.516H69.7v-0.606h-0.577v3.642h0.613V86.074z M67.717,83.079
	h-0.753l-0.618,0.983h0.466L67.717,83.079z M65.711,85.656c0.009-0.068,0.025-0.145,0.048-0.226c0.023-0.082,0.063-0.157,0.122-0.23
	c0.059-0.072,0.14-0.13,0.245-0.177c0.104-0.046,0.244-0.07,0.421-0.07c0.571,0,0.855,0.198,0.855,0.593
	c0,0.093-0.008,0.165-0.026,0.218c-0.02,0.055-0.044,0.097-0.077,0.126s-0.068,0.051-0.104,0.063
	c-0.037,0.011-0.075,0.019-0.112,0.024l-1.01,0.125c-0.255,0.032-0.457,0.095-0.603,0.188c-0.146,0.093-0.256,0.195-0.33,0.313
	c-0.075,0.115-0.123,0.233-0.143,0.352c-0.022,0.118-0.031,0.215-0.031,0.289c0,0.158,0.027,0.301,0.083,0.429
	c0.055,0.126,0.134,0.237,0.236,0.33c0.102,0.093,0.223,0.165,0.362,0.216s0.293,0.076,0.46,0.076c0.176,0,0.333-0.018,0.471-0.056
	c0.136-0.037,0.258-0.084,0.365-0.143c0.107-0.057,0.199-0.122,0.275-0.191c0.077-0.069,0.145-0.137,0.206-0.201
	c0.004,0.069,0.016,0.137,0.034,0.205c0.019,0.067,0.05,0.126,0.095,0.178c0.044,0.051,0.107,0.093,0.191,0.126
	c0.084,0.031,0.193,0.048,0.327,0.048c0.071,0,0.13-0.008,0.182-0.025c0.05-0.016,0.101-0.031,0.153-0.045v-0.445
	c-0.037,0.01-0.073,0.016-0.108,0.021c-0.036,0.005-0.066,0.008-0.094,0.008c-0.135,0-0.202-0.072-0.202-0.216v-2.097
	c0-0.152-0.027-0.285-0.08-0.396c-0.055-0.111-0.122-0.205-0.206-0.282c-0.084-0.076-0.177-0.138-0.278-0.18
	c-0.103-0.044-0.205-0.078-0.307-0.103c-0.101-0.021-0.195-0.036-0.282-0.045c-0.086-0.007-0.153-0.01-0.199-0.01
	c-0.222,0-0.425,0.022-0.609,0.066c-0.183,0.045-0.34,0.114-0.469,0.211c-0.13,0.1-0.233,0.224-0.306,0.376
	c-0.075,0.154-0.115,0.34-0.119,0.558H65.711z M67.39,86.931c0,0.12-0.034,0.233-0.098,0.337c-0.065,0.105-0.149,0.196-0.254,0.272
	c-0.104,0.075-0.224,0.137-0.359,0.181c-0.135,0.045-0.273,0.065-0.417,0.065c-0.232,0-0.4-0.055-0.504-0.166
	c-0.105-0.111-0.157-0.267-0.157-0.467c0-0.116,0.027-0.211,0.08-0.281c0.054-0.073,0.12-0.129,0.198-0.171
	c0.079-0.042,0.164-0.073,0.254-0.094c0.091-0.021,0.173-0.036,0.247-0.046c0.191-0.022,0.345-0.045,0.464-0.066
	c0.117-0.021,0.214-0.04,0.288-0.056c0.075-0.016,0.13-0.033,0.167-0.052c0.037-0.02,0.067-0.038,0.091-0.056V86.931z M64.437,85.05
	v-0.501h-2.82v0.51h2.026l-2.194,2.652v0.479H64.5v-0.508h-2.235L64.437,85.05z M59.152,85.059v-0.51h-0.584v-1.016h-0.613v1.016
	H57.46v0.51h0.495v2.4c0,0.112,0.009,0.216,0.032,0.311c0.02,0.095,0.058,0.179,0.11,0.247c0.054,0.07,0.128,0.124,0.223,0.164
	c0.096,0.039,0.22,0.059,0.374,0.059c0.032,0,0.09-0.006,0.17-0.018c0.081-0.011,0.177-0.021,0.289-0.031v-0.479h-0.215
	c-0.033,0-0.069,0-0.112-0.005c-0.041-0.002-0.082-0.012-0.121-0.031c-0.04-0.017-0.073-0.047-0.098-0.086
	c-0.025-0.04-0.038-0.094-0.038-0.164v-2.366H59.152z M56.423,87.049c-0.005,0.071-0.029,0.146-0.073,0.227
	c-0.044,0.081-0.108,0.159-0.189,0.233c-0.08,0.073-0.178,0.135-0.292,0.184c-0.114,0.05-0.242,0.073-0.386,0.073
	c-0.353,0-0.617-0.104-0.793-0.313c-0.177-0.209-0.265-0.504-0.265-0.885h2.659c0-0.32-0.033-0.611-0.097-0.875
	c-0.065-0.261-0.164-0.485-0.293-0.67c-0.13-0.187-0.292-0.328-0.487-0.43c-0.195-0.099-0.424-0.148-0.689-0.148
	c-0.303,0-0.562,0.052-0.783,0.157c-0.221,0.104-0.402,0.247-0.543,0.431c-0.141,0.184-0.248,0.398-0.316,0.644
	c-0.071,0.247-0.105,0.511-0.105,0.794c0,0.265,0.037,0.509,0.112,0.731c0.074,0.223,0.182,0.415,0.321,0.578
	c0.139,0.162,0.31,0.289,0.511,0.38c0.202,0.091,0.431,0.135,0.686,0.135c0.145,0,0.269-0.009,0.376-0.024
	c0.106-0.016,0.198-0.036,0.275-0.058c0.077-0.024,0.142-0.051,0.194-0.081c0.055-0.03,0.102-0.059,0.143-0.087
	c0.116-0.075,0.213-0.159,0.292-0.259c0.079-0.097,0.144-0.192,0.195-0.288c0.05-0.096,0.088-0.185,0.115-0.265
	c0.025-0.081,0.041-0.144,0.045-0.185H56.423z M54.425,86.081c0-0.14,0.026-0.274,0.08-0.407c0.053-0.132,0.125-0.248,0.215-0.348
	c0.091-0.099,0.197-0.182,0.319-0.24c0.124-0.061,0.255-0.091,0.395-0.091c0.185,0,0.341,0.03,0.466,0.091
	c0.125,0.059,0.228,0.142,0.306,0.24c0.079,0.1,0.137,0.216,0.174,0.348c0.037,0.133,0.062,0.268,0.071,0.407H54.425z
	 M53.025,83.191h-0.613v4.999h0.613V83.191z M48.851,87.251c-0.165,0.348-0.423,0.522-0.775,0.522c-0.354,0-0.613-0.175-0.776-0.522
	c-0.166-0.349-0.248-0.828-0.248-1.441c0-0.612,0.083-1.093,0.248-1.441c0.164-0.348,0.423-0.522,0.776-0.522
	c0.352,0,0.611,0.175,0.775,0.522c0.166,0.349,0.248,0.829,0.248,1.441C49.099,86.423,49.016,86.902,48.851,87.251 M49.687,84.987
	c-0.044-0.292-0.126-0.564-0.248-0.814c-0.121-0.25-0.29-0.458-0.508-0.626s-0.503-0.25-0.855-0.25c-0.354,0-0.638,0.082-0.856,0.25
	c-0.219,0.168-0.39,0.376-0.513,0.626c-0.123,0.25-0.205,0.522-0.247,0.814c-0.041,0.293-0.063,0.567-0.063,0.822
	s0.022,0.529,0.063,0.82c0.042,0.294,0.125,0.565,0.247,0.816c0.123,0.25,0.294,0.459,0.513,0.627
	c0.218,0.166,0.503,0.25,0.856,0.25c0.352,0,0.637-0.084,0.855-0.25c0.218-0.168,0.387-0.377,0.508-0.627
	c0.122-0.251,0.204-0.522,0.248-0.816c0.044-0.291,0.065-0.565,0.065-0.82S49.731,85.28,49.687,84.987 M44.767,83.297h-0.48
	c-0.052,0.199-0.111,0.358-0.177,0.477c-0.068,0.118-0.153,0.209-0.254,0.271c-0.103,0.062-0.226,0.106-0.369,0.128
	c-0.144,0.024-0.315,0.043-0.516,0.057v0.487h1.143v3.474h0.654V83.297z"/>
</svg>
