<?xml version="1.0" encoding="utf-8"?>
<!-- Generator: Adobe Illustrator 15.1.0, SVG Export Plug-In . SVG Version: 6.00 Build 0)  -->
<!DOCTYPE svg PUBLIC "-//W3C//DTD SVG 1.1//EN" "http://www.w3.org/Graphics/SVG/1.1/DTD/svg11.dtd">
<svg version="1.1" id="Vrstva_1" xmlns="http://www.w3.org/2000/svg" xmlns:xlink="http://www.w3.org/1999/xlink" x="0px" y="0px"
	 width="129px" height="120px" viewBox="0 0 129 120" enable-background="new 0 0 129 120" xml:space="preserve">
<path fill="#B1B3B4" d="M114.725,108.326h-0.695l-0.573,0.908h0.432L114.725,108.326z M114.048,109.686h-0.623v4.623h0.623V109.686z
	 M108.711,114.309h1.848c0.378,0,0.693-0.075,0.945-0.225c0.255-0.151,0.457-0.342,0.609-0.574c0.153-0.231,0.26-0.487,0.322-0.769
	c0.062-0.281,0.094-0.551,0.094-0.809c0-0.334-0.045-0.64-0.135-0.915c-0.091-0.274-0.22-0.511-0.387-0.707
	c-0.167-0.198-0.372-0.351-0.612-0.462c-0.24-0.108-0.511-0.163-0.812-0.163h-1.873V114.309z M109.335,110.22h1.165
	c0.426,0,0.763,0.146,1.011,0.438c0.249,0.291,0.374,0.729,0.374,1.313c0,0.588-0.121,1.036-0.363,1.343
	c-0.243,0.308-0.568,0.46-0.977,0.46h-1.21V110.22z M107.859,113.756h-2.787v-1.545h2.53v-0.555h-2.53v-1.416h2.743v-0.555h-3.368
	v4.623h3.412V113.756z M101.15,108.326h-0.51l0.639,0.908h0.599l0.637-0.908h-0.514l-0.427,0.6L101.15,108.326z M100.436,112.326
	h1.513c0.185,0,0.331,0.025,0.441,0.074c0.109,0.05,0.193,0.113,0.251,0.192c0.059,0.08,0.094,0.168,0.109,0.268
	c0.015,0.1,0.022,0.196,0.022,0.29c0,0.043,0.001,0.114,0.004,0.215c0.002,0.101,0.006,0.21,0.015,0.326s0.021,0.23,0.037,0.345
	c0.014,0.113,0.032,0.204,0.054,0.272h0.768v-0.103c-0.05-0.025-0.087-0.053-0.117-0.08c-0.029-0.028-0.053-0.061-0.07-0.098
	c-0.018-0.035-0.029-0.077-0.035-0.122c-0.007-0.045-0.011-0.099-0.011-0.164l-0.038-0.836c-0.009-0.16-0.028-0.29-0.062-0.391
	c-0.032-0.101-0.073-0.184-0.125-0.245s-0.11-0.109-0.175-0.145c-0.063-0.034-0.129-0.063-0.192-0.09
	c0.072-0.043,0.147-0.094,0.226-0.15c0.078-0.06,0.146-0.13,0.21-0.214c0.062-0.084,0.111-0.186,0.151-0.305
	c0.037-0.121,0.057-0.268,0.057-0.439c0-0.244-0.044-0.447-0.132-0.608s-0.204-0.287-0.345-0.381
	c-0.141-0.092-0.304-0.156-0.485-0.195c-0.183-0.039-0.369-0.058-0.558-0.058h-2.138v4.623h0.625V112.326z M100.436,110.22h1.559
	c0.077,0,0.163,0.006,0.26,0.021c0.097,0.012,0.188,0.045,0.271,0.097c0.085,0.05,0.155,0.127,0.212,0.231
	c0.06,0.103,0.088,0.244,0.088,0.425c0,0.171-0.028,0.308-0.083,0.411c-0.057,0.104-0.128,0.184-0.217,0.243
	c-0.088,0.057-0.188,0.097-0.3,0.115c-0.111,0.02-0.224,0.029-0.341,0.029h-1.448V110.22z M95.398,110.24h1.565v4.068h0.625v-4.068
	h1.564v-0.555h-3.755V110.24z M94.878,111.038c-0.009-0.129-0.031-0.277-0.067-0.448c-0.038-0.17-0.117-0.33-0.238-0.482
	c-0.122-0.152-0.303-0.281-0.538-0.386c-0.236-0.106-0.558-0.158-0.96-0.158c-0.279,0-0.52,0.04-0.723,0.122
	c-0.199,0.082-0.365,0.188-0.495,0.322c-0.129,0.133-0.223,0.285-0.283,0.456c-0.06,0.173-0.09,0.349-0.09,0.529
	c0,0.201,0.038,0.368,0.112,0.498c0.075,0.132,0.165,0.237,0.269,0.319c0.104,0.081,0.21,0.143,0.32,0.184
	c0.112,0.041,0.207,0.07,0.283,0.087l0.947,0.22c0.189,0.047,0.348,0.093,0.475,0.139c0.125,0.045,0.227,0.098,0.302,0.156
	c0.076,0.061,0.129,0.133,0.162,0.217c0.031,0.082,0.048,0.185,0.048,0.306c0,0.168-0.042,0.301-0.127,0.402
	c-0.083,0.102-0.186,0.179-0.309,0.235c-0.122,0.055-0.254,0.094-0.396,0.112c-0.141,0.019-0.268,0.029-0.378,0.029
	c-0.152,0-0.303-0.018-0.452-0.052c-0.15-0.035-0.286-0.093-0.409-0.178c-0.123-0.083-0.222-0.193-0.299-0.33
	c-0.078-0.138-0.116-0.313-0.116-0.522h-0.586c0,0.219,0.029,0.424,0.087,0.615c0.059,0.191,0.185,0.377,0.383,0.557
	c0.052,0.048,0.113,0.097,0.184,0.148c0.07,0.051,0.161,0.1,0.271,0.145c0.11,0.045,0.239,0.082,0.394,0.109
	c0.151,0.028,0.335,0.042,0.549,0.042c0.199,0,0.404-0.021,0.616-0.063c0.212-0.044,0.407-0.118,0.586-0.224
	c0.178-0.104,0.323-0.247,0.437-0.428c0.114-0.181,0.172-0.408,0.172-0.683c0-0.186-0.026-0.346-0.079-0.483
	c-0.055-0.137-0.128-0.257-0.22-0.357c-0.093-0.101-0.202-0.184-0.332-0.248c-0.128-0.063-0.269-0.112-0.418-0.147l-1.32-0.304
	c-0.069-0.017-0.136-0.037-0.199-0.063c-0.065-0.026-0.123-0.061-0.175-0.106c-0.052-0.045-0.093-0.101-0.126-0.167
	c-0.031-0.067-0.049-0.149-0.049-0.248c0-0.176,0.038-0.316,0.11-0.422c0.073-0.104,0.163-0.187,0.27-0.244
	c0.108-0.06,0.224-0.097,0.346-0.116s0.232-0.028,0.331-0.028c0.13,0,0.26,0.014,0.394,0.045c0.133,0.029,0.255,0.08,0.363,0.153
	c0.11,0.072,0.2,0.169,0.271,0.29c0.07,0.121,0.11,0.271,0.119,0.451H94.878z M90.008,112.748c-0.072,0.229-0.178,0.428-0.317,0.595
	s-0.309,0.299-0.51,0.394c-0.199,0.095-0.423,0.142-0.674,0.142c-0.252,0-0.477-0.047-0.675-0.142s-0.366-0.227-0.505-0.394
	c-0.141-0.167-0.247-0.365-0.32-0.595c-0.072-0.23-0.107-0.48-0.107-0.751s0.035-0.521,0.107-0.75
	c0.073-0.229,0.18-0.429,0.32-0.597c0.139-0.167,0.307-0.298,0.505-0.392c0.198-0.095,0.423-0.142,0.675-0.142
	c0.251,0,0.475,0.047,0.674,0.142c0.201,0.094,0.37,0.225,0.51,0.392c0.14,0.168,0.245,0.367,0.317,0.597
	c0.073,0.229,0.111,0.479,0.111,0.75S90.081,112.518,90.008,112.748 M90.714,111.469c-0.031-0.185-0.083-0.366-0.154-0.547
	c-0.07-0.181-0.163-0.352-0.277-0.515s-0.255-0.308-0.422-0.436c-0.167-0.126-0.362-0.227-0.585-0.299
	c-0.224-0.073-0.479-0.109-0.769-0.109c-0.287,0-0.542,0.036-0.764,0.109c-0.225,0.072-0.42,0.173-0.587,0.299
	c-0.168,0.128-0.309,0.272-0.422,0.436c-0.114,0.163-0.206,0.334-0.276,0.515s-0.123,0.362-0.156,0.547
	c-0.031,0.185-0.049,0.361-0.049,0.528c0,0.168,0.018,0.343,0.049,0.527c0.033,0.185,0.086,0.368,0.156,0.549
	c0.07,0.18,0.162,0.353,0.276,0.515c0.113,0.164,0.254,0.309,0.422,0.434c0.167,0.128,0.362,0.228,0.587,0.302
	c0.222,0.071,0.477,0.108,0.764,0.108c0.289,0,0.545-0.037,0.769-0.108c0.223-0.074,0.418-0.174,0.585-0.302
	c0.167-0.125,0.308-0.27,0.422-0.434c0.114-0.162,0.207-0.335,0.277-0.515c0.071-0.181,0.123-0.364,0.154-0.549
	c0.032-0.185,0.049-0.359,0.049-0.527C90.763,111.83,90.746,111.653,90.714,111.469 M82.674,112.326h1.512
	c0.188,0,0.332,0.025,0.443,0.074c0.108,0.05,0.192,0.113,0.25,0.192c0.059,0.08,0.096,0.168,0.109,0.268
	c0.016,0.1,0.022,0.196,0.022,0.29c0,0.043,0.001,0.114,0.004,0.215c0.002,0.101,0.009,0.21,0.018,0.326
	c0.006,0.116,0.02,0.23,0.033,0.345c0.015,0.113,0.034,0.204,0.057,0.272h0.766v-0.103c-0.048-0.025-0.086-0.053-0.115-0.08
	c-0.031-0.028-0.056-0.061-0.071-0.098c-0.017-0.035-0.03-0.077-0.037-0.122c-0.005-0.045-0.009-0.099-0.009-0.164l-0.038-0.836
	c-0.009-0.16-0.029-0.29-0.063-0.391c-0.032-0.101-0.073-0.184-0.125-0.245c-0.051-0.062-0.11-0.109-0.174-0.145
	c-0.063-0.034-0.13-0.063-0.193-0.09c0.072-0.043,0.149-0.094,0.227-0.15c0.076-0.06,0.146-0.13,0.208-0.214
	c0.063-0.084,0.113-0.186,0.152-0.305c0.039-0.121,0.058-0.268,0.058-0.439c0-0.244-0.045-0.447-0.133-0.608
	s-0.202-0.287-0.344-0.381c-0.142-0.092-0.304-0.156-0.486-0.195s-0.369-0.058-0.559-0.058H82.05v4.623h0.624V112.326z
	 M82.674,110.22h1.559c0.076,0,0.164,0.006,0.26,0.021c0.097,0.012,0.187,0.045,0.271,0.097c0.084,0.05,0.154,0.127,0.213,0.231
	c0.058,0.103,0.086,0.244,0.086,0.425c0,0.171-0.028,0.308-0.083,0.411c-0.057,0.104-0.128,0.184-0.216,0.243
	c-0.088,0.057-0.188,0.097-0.299,0.115c-0.113,0.02-0.227,0.029-0.343,0.029h-1.448V110.22z M78.366,110.22h1.268
	c0.129,0,0.248,0.013,0.36,0.039s0.209,0.067,0.29,0.128s0.147,0.14,0.193,0.238c0.049,0.1,0.071,0.223,0.071,0.368
	c0,0.154-0.022,0.285-0.066,0.393c-0.047,0.106-0.111,0.193-0.193,0.258c-0.086,0.063-0.183,0.11-0.298,0.139
	c-0.113,0.027-0.241,0.04-0.383,0.04h-1.242V110.22z M78.366,112.357h1.454c0.249,0,0.462-0.04,0.639-0.122
	c0.175-0.082,0.317-0.188,0.424-0.322c0.108-0.132,0.186-0.28,0.235-0.44c0.049-0.162,0.073-0.323,0.073-0.485
	c0-0.185-0.03-0.357-0.092-0.516c-0.062-0.159-0.152-0.298-0.271-0.413c-0.118-0.116-0.263-0.208-0.433-0.273
	c-0.169-0.066-0.36-0.1-0.576-0.1h-2.08v4.623h0.626V112.357z M75.493,108.326h-0.695l-0.573,0.908h0.432L75.493,108.326z
	 M74.816,109.686h-0.624v4.623h0.624V109.686z M72.512,113.42h-0.014l-2.311-3.734h-0.741v4.623h0.604v-3.734h0.014l2.351,3.734
	h0.703v-4.623h-0.606V113.42z M65.112,110.24h1.564v4.068h0.625v-4.068h1.565v-0.555h-3.755V110.24z M64.275,112.748
	c-0.073,0.229-0.18,0.428-0.319,0.595c-0.14,0.167-0.31,0.299-0.509,0.394c-0.2,0.095-0.424,0.142-0.673,0.142
	c-0.254,0-0.479-0.047-0.676-0.142c-0.198-0.095-0.367-0.227-0.506-0.394c-0.14-0.167-0.246-0.365-0.319-0.595
	c-0.073-0.23-0.11-0.48-0.11-0.751s0.038-0.521,0.11-0.75c0.073-0.229,0.179-0.429,0.319-0.597c0.139-0.167,0.308-0.298,0.506-0.392
	c0.197-0.095,0.421-0.142,0.676-0.142c0.249,0,0.473,0.047,0.673,0.142c0.199,0.094,0.369,0.225,0.509,0.392
	c0.139,0.168,0.246,0.367,0.319,0.597c0.073,0.229,0.109,0.479,0.109,0.75S64.348,112.518,64.275,112.748 M64.98,111.469
	c-0.032-0.185-0.084-0.366-0.155-0.547s-0.163-0.352-0.277-0.515c-0.113-0.163-0.254-0.308-0.421-0.436
	c-0.168-0.126-0.364-0.227-0.586-0.299c-0.224-0.073-0.479-0.109-0.766-0.109c-0.288,0-0.543,0.036-0.767,0.109
	c-0.223,0.072-0.418,0.173-0.585,0.299c-0.168,0.128-0.309,0.272-0.422,0.436c-0.114,0.163-0.206,0.334-0.277,0.515
	s-0.123,0.362-0.154,0.547c-0.032,0.185-0.048,0.361-0.048,0.528c0,0.168,0.016,0.343,0.048,0.527
	c0.031,0.185,0.083,0.368,0.154,0.549c0.071,0.18,0.163,0.353,0.277,0.515c0.113,0.164,0.254,0.309,0.422,0.434
	c0.167,0.128,0.363,0.228,0.585,0.302c0.224,0.071,0.479,0.108,0.767,0.108c0.287,0,0.542-0.037,0.766-0.108
	c0.223-0.074,0.418-0.174,0.586-0.302c0.167-0.125,0.308-0.27,0.421-0.434c0.114-0.162,0.206-0.335,0.277-0.515
	c0.071-0.181,0.123-0.364,0.155-0.549c0.032-0.185,0.048-0.359,0.048-0.527C65.028,111.83,65.012,111.653,64.98,111.469
	 M58.389,113.626h-0.013l-1.32-3.94H56.36l1.687,4.623h0.664l1.687-4.623h-0.702L58.389,113.626z M55.651,109.686h-0.624v4.623
	h0.624V109.686z M52.206,108.326h-0.509l0.638,0.908h0.586l0.638-0.908h-0.515l-0.418,0.6L52.206,108.326z M54.292,113.756h-2.846
	l2.846-3.53v-0.54h-3.426v0.555h2.622l-2.834,3.547v0.521h3.639V113.756z M48.387,113.756h-2.789v-1.545h2.531v-0.555h-2.531v-1.416
	h2.743v-0.555h-3.367v4.623h3.413V113.756z M43.957,114.309v-4.623h-0.889l-1.314,3.909h-0.012l-1.321-3.909h-0.896v4.623h0.605
	v-2.729c0-0.035-0.001-0.094-0.003-0.178c-0.002-0.083-0.002-0.179-0.002-0.287c0-0.106-0.001-0.22-0.003-0.341
	c-0.003-0.12-0.004-0.233-0.004-0.342h0.013l1.301,3.877h0.618l1.301-3.882h0.013c0,0.106-0.001,0.22-0.002,0.341
	c-0.002,0.119-0.003,0.235-0.003,0.347c0,0.108-0.001,0.204-0.004,0.287c-0.002,0.084-0.003,0.143-0.003,0.178v2.729H43.957z
	 M39.152,108.326h-0.695l-0.574,0.908h0.432L39.152,108.326z M38.477,109.686h-0.624v4.623h0.624V109.686z M36.171,113.42h-0.013
	l-2.313-3.734h-0.74v4.623h0.605v-3.734h0.014l2.35,3.734h0.702v-4.623h-0.605V113.42z M31.451,108.326h-0.696l-0.573,0.908h0.431
	L31.451,108.326z M31.393,112.964l0.458,1.345h0.682l-1.674-4.623h-0.708l-1.739,4.623h0.645l0.482-1.345H31.393z M29.731,112.409
	l0.74-2.034h0.013l0.683,2.034H29.731z M24.863,112.326h1.513c0.185,0,0.332,0.025,0.441,0.074c0.11,0.05,0.193,0.113,0.252,0.192
	c0.057,0.08,0.094,0.168,0.109,0.268c0.015,0.1,0.022,0.196,0.022,0.29c0,0.043,0.001,0.114,0.003,0.215
	c0.002,0.101,0.007,0.21,0.016,0.326c0.008,0.116,0.02,0.23,0.036,0.345c0.015,0.113,0.033,0.204,0.054,0.272h0.767v-0.103
	c-0.047-0.025-0.086-0.053-0.116-0.08c-0.03-0.028-0.053-0.061-0.07-0.098c-0.018-0.035-0.03-0.077-0.036-0.122
	c-0.007-0.045-0.01-0.099-0.01-0.164l-0.038-0.836c-0.009-0.16-0.029-0.29-0.061-0.391c-0.033-0.101-0.074-0.184-0.126-0.245
	c-0.051-0.062-0.109-0.109-0.174-0.145c-0.064-0.034-0.129-0.063-0.193-0.09c0.073-0.043,0.147-0.094,0.225-0.15
	c0.078-0.06,0.147-0.13,0.209-0.214c0.062-0.084,0.112-0.186,0.151-0.305c0.039-0.121,0.058-0.268,0.058-0.439
	c0-0.244-0.044-0.447-0.132-0.608s-0.203-0.287-0.344-0.381c-0.142-0.092-0.305-0.156-0.487-0.195s-0.368-0.058-0.557-0.058h-2.138
	v4.623h0.625V112.326z M24.863,110.22h1.558c0.078,0,0.164,0.006,0.261,0.021c0.097,0.012,0.187,0.045,0.27,0.097
	c0.084,0.05,0.155,0.127,0.213,0.231c0.058,0.103,0.087,0.244,0.087,0.425c0,0.171-0.028,0.308-0.084,0.411
	c-0.056,0.104-0.127,0.184-0.216,0.243c-0.087,0.057-0.188,0.097-0.299,0.115c-0.112,0.02-0.225,0.029-0.341,0.029h-1.449V110.22z
	 M22.557,111.599h-2.415v-1.913h-0.625v4.623h0.625v-2.157h2.415v2.157h0.625v-4.623h-0.625V111.599z M18.712,111.076
	c-0.021-0.193-0.077-0.382-0.167-0.563c-0.09-0.182-0.213-0.343-0.37-0.482c-0.156-0.14-0.349-0.253-0.577-0.339
	c-0.227-0.085-0.489-0.128-0.785-0.128c-0.335,0-0.637,0.058-0.905,0.177c-0.269,0.117-0.495,0.283-0.679,0.496
	c-0.186,0.212-0.328,0.465-0.425,0.76c-0.099,0.294-0.148,0.619-0.148,0.976c0,0.446,0.059,0.825,0.176,1.137
	c0.118,0.311,0.276,0.564,0.47,0.76c0.196,0.195,0.418,0.338,0.667,0.429c0.248,0.09,0.503,0.135,0.766,0.135
	c0.057,0,0.14-0.005,0.252-0.014c0.112-0.007,0.235-0.031,0.37-0.07c0.135-0.039,0.276-0.097,0.422-0.173
	c0.146-0.078,0.285-0.184,0.416-0.319c0.13-0.136,0.247-0.304,0.348-0.506c0.101-0.201,0.173-0.449,0.216-0.74h-0.605
	c-0.052,0.271-0.132,0.488-0.238,0.653c-0.107,0.166-0.224,0.292-0.351,0.383c-0.127,0.091-0.254,0.152-0.383,0.185
	c-0.128,0.031-0.245,0.048-0.348,0.048c-0.289,0-0.529-0.05-0.725-0.148s-0.353-0.233-0.473-0.406
	c-0.121-0.17-0.206-0.376-0.258-0.612c-0.052-0.235-0.077-0.488-0.077-0.759c0-0.304,0.04-0.572,0.118-0.802
	c0.08-0.229,0.188-0.421,0.326-0.573c0.137-0.151,0.297-0.267,0.479-0.345c0.182-0.077,0.379-0.115,0.589-0.115
	c0.111,0,0.234,0.011,0.367,0.035c0.133,0.022,0.261,0.069,0.383,0.138c0.123,0.069,0.233,0.166,0.332,0.294
	c0.099,0.127,0.169,0.291,0.212,0.492H18.712z"/>
<path fill="#B1B3B4" d="M98.896,100.559c-0.153,0.325-0.366,0.599-0.637,0.82c-0.271,0.222-0.654,0.412-1.145,0.568v1.185
	c0.333-0.104,0.61-0.209,0.831-0.319c0.22-0.111,0.448-0.256,0.686-0.437v3.459h1.458v-5.276H98.896z M93.575,101.88
	c0.105-0.242,0.277-0.364,0.517-0.364c0.232,0,0.408,0.12,0.526,0.357c0.117,0.237,0.175,0.699,0.175,1.389
	c0,0.47-0.025,0.815-0.076,1.037s-0.131,0.385-0.237,0.487c-0.108,0.103-0.234,0.153-0.38,0.153c-0.224,0-0.393-0.12-0.509-0.363
	c-0.116-0.241-0.176-0.692-0.176-1.354C93.415,102.569,93.468,102.121,93.575,101.88 M92.091,104.319
	c0.067,0.33,0.167,0.593,0.291,0.784c0.172,0.268,0.394,0.473,0.662,0.612c0.269,0.139,0.622,0.208,1.059,0.208
	c0.778,0,1.327-0.219,1.646-0.654c0.318-0.438,0.478-1.126,0.478-2.067c0-0.421-0.048-0.825-0.145-1.212
	c-0.05-0.202-0.115-0.38-0.196-0.531c-0.082-0.152-0.192-0.298-0.334-0.437c-0.142-0.137-0.325-0.25-0.55-0.337
	c-0.224-0.085-0.511-0.127-0.861-0.127c-0.726,0-1.268,0.196-1.622,0.59c-0.354,0.396-0.532,1.084-0.532,2.07
	C91.985,103.621,92.021,103.987,92.091,104.319 M88.74,101.88c0.105-0.242,0.276-0.364,0.517-0.364c0.232,0,0.408,0.12,0.524,0.357
	s0.176,0.699,0.176,1.389c0,0.47-0.025,0.815-0.075,1.037c-0.052,0.222-0.131,0.385-0.237,0.487
	c-0.109,0.103-0.236,0.153-0.382,0.153c-0.222,0-0.391-0.12-0.507-0.363c-0.117-0.241-0.176-0.692-0.176-1.354
	C88.58,102.569,88.633,102.121,88.74,101.88 M87.254,104.319c0.069,0.33,0.168,0.593,0.292,0.784
	c0.173,0.268,0.393,0.473,0.662,0.612c0.27,0.139,0.622,0.208,1.06,0.208c0.777,0,1.327-0.219,1.646-0.654
	c0.318-0.438,0.478-1.126,0.478-2.067c0-0.421-0.048-0.825-0.145-1.212c-0.05-0.202-0.116-0.38-0.197-0.531
	c-0.081-0.152-0.193-0.298-0.334-0.437c-0.143-0.137-0.325-0.25-0.549-0.337c-0.225-0.085-0.511-0.127-0.861-0.127
	c-0.726,0-1.268,0.196-1.622,0.59c-0.355,0.396-0.533,1.084-0.533,2.07C87.149,103.621,87.184,103.987,87.254,104.319
	 M83.404,103.747l1.387-1.634v1.634H83.404z M84.791,105.835h1.258v-0.969H86.7v-1.119h-0.651v-3.188h-1.258l-2.626,3.12v1.188
	h2.626V105.835z M79.553,100.559c-0.153,0.325-0.367,0.599-0.637,0.82c-0.271,0.222-0.653,0.412-1.145,0.568v1.185
	c0.333-0.104,0.61-0.209,0.83-0.319c0.222-0.111,0.45-0.256,0.686-0.437v3.459h1.459v-5.276H79.553z M70.951,102.114
	c0.195-0.229,0.455-0.343,0.778-0.343c0.336,0,0.604,0.112,0.802,0.339c0.197,0.226,0.296,0.581,0.296,1.071
	c0,0.58-0.095,0.982-0.283,1.206c-0.189,0.224-0.456,0.337-0.8,0.337c-0.335,0-0.602-0.115-0.796-0.344
	c-0.194-0.229-0.293-0.606-0.293-1.129C70.655,102.724,70.754,102.345,70.951,102.114 M69.411,104.759
	c0.237,0.404,0.549,0.698,0.933,0.885c0.383,0.188,0.867,0.28,1.453,0.28c0.575,0,1.056-0.107,1.442-0.324
	c0.385-0.215,0.681-0.518,0.885-0.906c0.204-0.388,0.306-0.885,0.306-1.491c0-0.836-0.233-1.486-0.701-1.95
	c-0.467-0.462-1.132-0.693-1.997-0.693c-0.841,0-1.498,0.234-1.971,0.707c-0.472,0.473-0.707,1.131-0.707,1.979
	C69.054,103.852,69.173,104.356,69.411,104.759 M64.317,105.414c0.339,0.341,0.95,0.51,1.833,0.51c0.503,0,0.92-0.072,1.25-0.219
	c0.331-0.145,0.587-0.356,0.771-0.638c0.185-0.28,0.276-0.588,0.276-0.921c0-0.283-0.069-0.539-0.207-0.768
	c-0.138-0.229-0.359-0.421-0.662-0.575c-0.304-0.155-0.805-0.308-1.506-0.458c-0.283-0.059-0.463-0.123-0.538-0.191
	c-0.079-0.067-0.117-0.141-0.117-0.223c0-0.113,0.047-0.21,0.142-0.289s0.235-0.119,0.422-0.119c0.227,0,0.404,0.053,0.532,0.159
	c0.129,0.106,0.214,0.277,0.254,0.511l1.511-0.089c-0.065-0.538-0.272-0.93-0.621-1.177c-0.348-0.248-0.854-0.369-1.518-0.369
	c-0.541,0-0.965,0.066-1.275,0.203c-0.311,0.135-0.543,0.321-0.698,0.559c-0.155,0.237-0.231,0.489-0.231,0.756
	c0,0.406,0.151,0.74,0.454,1.001c0.299,0.263,0.801,0.472,1.504,0.632c0.43,0.094,0.703,0.194,0.82,0.3
	c0.118,0.107,0.178,0.227,0.178,0.361c0,0.142-0.062,0.267-0.187,0.373c-0.123,0.107-0.3,0.16-0.528,0.16
	c-0.307,0-0.544-0.104-0.709-0.313c-0.101-0.13-0.169-0.319-0.202-0.566l-1.524,0.096C63.783,104.644,63.976,105.074,64.317,105.414
	 M61.261,105.835h1.608v-5.188h-1.608V105.835z M52.75,105.835h1.508v-2.85l1.944,2.85h1.512v-5.188h-1.512v2.871l-1.954-2.871
	H52.75V105.835z M47.5,105.835h4.376v-1.175h-2.768v-1.023h2.496v-1.058h-2.496v-0.826h2.69v-1.106H47.5V105.835z M39.058,105.835
	h1.508v-2.85l1.943,2.85h1.512v-5.188h-1.512v2.871l-1.954-2.871h-1.497V105.835z M34.109,105.414c0.339,0.341,0.95,0.51,1.833,0.51
	c0.502,0,0.919-0.072,1.25-0.219c0.331-0.145,0.588-0.356,0.771-0.638c0.185-0.28,0.277-0.588,0.277-0.921
	c0-0.283-0.07-0.539-0.207-0.768c-0.139-0.229-0.359-0.421-0.663-0.575c-0.302-0.155-0.806-0.308-1.506-0.458
	c-0.283-0.059-0.462-0.123-0.537-0.191c-0.079-0.067-0.117-0.141-0.117-0.223c0-0.113,0.047-0.21,0.142-0.289
	c0.094-0.079,0.234-0.119,0.42-0.119c0.227,0,0.404,0.053,0.533,0.159c0.128,0.106,0.213,0.277,0.253,0.511l1.512-0.089
	c-0.066-0.538-0.273-0.93-0.622-1.177c-0.348-0.248-0.854-0.369-1.517-0.369c-0.541,0-0.966,0.066-1.276,0.203
	c-0.31,0.135-0.542,0.321-0.697,0.559c-0.154,0.237-0.232,0.489-0.232,0.756c0,0.406,0.151,0.74,0.454,1.001
	c0.299,0.263,0.801,0.472,1.504,0.632c0.43,0.094,0.704,0.194,0.822,0.3c0.118,0.107,0.176,0.227,0.176,0.361
	c0,0.142-0.062,0.267-0.185,0.373c-0.124,0.107-0.301,0.16-0.53,0.16c-0.307,0-0.542-0.104-0.707-0.313
	c-0.102-0.13-0.169-0.319-0.203-0.566l-1.525,0.096C33.577,104.644,33.769,105.074,34.109,105.414 M31.927,99.318h-0.88
	l-0.432,0.542l-0.432-0.542h-0.875l0.786,1.013h1.019L31.927,99.318z M31.285,104.462c-0.157,0.173-0.389,0.258-0.695,0.258
	c-0.317,0-0.562-0.106-0.736-0.319c-0.174-0.213-0.262-0.607-0.262-1.183c0-0.465,0.073-0.806,0.219-1.021
	c0.193-0.294,0.473-0.439,0.836-0.439c0.161,0,0.306,0.034,0.435,0.1c0.13,0.066,0.24,0.16,0.33,0.282
	c0.054,0.074,0.106,0.189,0.155,0.349l1.417-0.315c-0.181-0.548-0.46-0.953-0.833-1.218c-0.375-0.266-0.889-0.396-1.542-0.396
	c-0.834,0-1.481,0.23-1.938,0.689c-0.457,0.461-0.685,1.121-0.685,1.98c0,0.644,0.131,1.172,0.39,1.584
	c0.26,0.413,0.569,0.702,0.925,0.865c0.358,0.164,0.819,0.246,1.382,0.246c0.466,0,0.849-0.066,1.149-0.202
	c0.301-0.134,0.553-0.333,0.756-0.598c0.202-0.265,0.351-0.594,0.445-0.988l-1.405-0.424
	C31.557,104.039,31.443,104.29,31.285,104.462"/>
<path fill="#B1B3B4" d="M112.459,93.186h-0.385c0-0.08,0.007-0.163,0.019-0.245s0.032-0.159,0.062-0.228
	c0.029-0.069,0.067-0.125,0.115-0.17c0.049-0.045,0.111-0.07,0.189-0.075V92.12c-0.038,0.004-0.099,0.021-0.182,0.047
	c-0.081,0.026-0.166,0.079-0.25,0.156c-0.085,0.077-0.16,0.188-0.226,0.334c-0.064,0.145-0.098,0.341-0.098,0.586v0.711h0.755
	V93.186z M113.655,93.186h-0.385c0-0.08,0.007-0.163,0.019-0.245c0.011-0.082,0.032-0.159,0.063-0.228
	c0.027-0.069,0.066-0.125,0.115-0.17s0.111-0.07,0.188-0.075V92.12c-0.039,0.004-0.099,0.021-0.182,0.047
	c-0.082,0.026-0.166,0.079-0.249,0.156c-0.085,0.077-0.16,0.188-0.226,0.334c-0.064,0.145-0.098,0.341-0.098,0.586v0.711h0.754
	V93.186z M110.125,95.847l0.514,1.515h0.769l-1.885-5.205h-0.797l-1.958,5.205h0.726l0.543-1.515H110.125z M108.253,95.223
	l0.835-2.29h0.016l0.768,2.29H108.253z M103.962,92.156h-0.704v5.205h3.343v-0.622h-2.639V92.156z M101.511,92.156v3.291
	c0,0.285-0.04,0.52-0.122,0.704c-0.082,0.184-0.188,0.328-0.319,0.434c-0.13,0.107-0.277,0.182-0.441,0.226
	c-0.165,0.044-0.327,0.065-0.486,0.065c-0.16,0-0.318-0.021-0.475-0.065c-0.157-0.044-0.3-0.12-0.425-0.232
	c-0.126-0.11-0.228-0.258-0.304-0.441c-0.078-0.185-0.117-0.418-0.117-0.704v-3.276h-0.702v3.474c0,0.24,0.038,0.474,0.116,0.699
	c0.076,0.225,0.196,0.424,0.357,0.598c0.163,0.174,0.369,0.313,0.624,0.417c0.254,0.104,0.554,0.155,0.903,0.155
	c0.355,0,0.668-0.052,0.932-0.155s0.479-0.246,0.652-0.424c0.171-0.179,0.299-0.389,0.385-0.628
	c0.084-0.238,0.125-0.491,0.125-0.757v-3.379H101.511z M92.972,97.361h2.08c0.425,0,0.78-0.084,1.065-0.253
	c0.286-0.17,0.515-0.385,0.686-0.646s0.292-0.55,0.362-0.866s0.105-0.621,0.105-0.91c0-0.377-0.052-0.72-0.152-1.03
	c-0.102-0.31-0.247-0.574-0.437-0.797c-0.187-0.222-0.417-0.395-0.688-0.519c-0.271-0.123-0.575-0.185-0.914-0.185h-2.108V97.361z
	 M93.675,92.758h1.312c0.479,0,0.858,0.164,1.138,0.492c0.281,0.33,0.422,0.823,0.422,1.479c0,0.663-0.138,1.167-0.41,1.512
	c-0.273,0.346-0.641,0.519-1.1,0.519h-1.361V92.758z M91.224,96.362h-0.015l-2.603-4.206h-0.833v5.205h0.681v-4.204h0.016
	l2.646,4.204h0.791v-5.205h-0.683V96.362z M86.926,96.739h-3.14v-1.74h2.849v-0.625h-2.849v-1.595h3.089v-0.623h-3.792v5.205h3.843
	V96.739z M79.022,92.758h1.429c0.146,0,0.279,0.015,0.405,0.044s0.234,0.077,0.326,0.146c0.093,0.066,0.165,0.156,0.218,0.268
	s0.079,0.25,0.079,0.413c0,0.174-0.024,0.321-0.075,0.442c-0.053,0.12-0.124,0.217-0.218,0.29c-0.095,0.073-0.206,0.125-0.333,0.155
	c-0.129,0.032-0.272,0.047-0.433,0.047h-1.398V92.758z M79.022,95.165h1.639c0.28,0,0.52-0.046,0.717-0.138
	c0.198-0.092,0.358-0.213,0.479-0.362c0.121-0.15,0.209-0.315,0.265-0.496c0.055-0.182,0.082-0.365,0.082-0.549
	c0-0.207-0.034-0.4-0.105-0.58c-0.069-0.178-0.17-0.332-0.303-0.463c-0.134-0.131-0.297-0.233-0.485-0.309
	c-0.191-0.075-0.408-0.112-0.649-0.112h-2.342v5.205h0.703V95.165z M76.738,97.376l0.384-0.015c0,0.083-0.006,0.166-0.018,0.25
	c-0.013,0.085-0.033,0.162-0.061,0.232c-0.029,0.07-0.069,0.128-0.117,0.174c-0.049,0.046-0.11,0.072-0.188,0.077v0.334
	c0.034-0.006,0.094-0.022,0.178-0.048c0.084-0.027,0.17-0.079,0.253-0.157c0.085-0.076,0.16-0.188,0.226-0.332
	c0.064-0.146,0.098-0.341,0.098-0.588v-0.71h-0.754V97.376z M75.541,97.376l0.386-0.015c0,0.083-0.008,0.166-0.019,0.25
	c-0.012,0.085-0.033,0.162-0.062,0.232s-0.068,0.128-0.116,0.174c-0.049,0.046-0.111,0.072-0.189,0.077v0.334
	c0.034-0.006,0.095-0.022,0.178-0.048c0.085-0.027,0.171-0.079,0.255-0.157c0.084-0.076,0.159-0.188,0.225-0.332
	c0.065-0.146,0.099-0.341,0.099-0.588v-0.71h-0.756V97.376z M70.489,94.724c0.009-0.074,0.025-0.151,0.051-0.236
	c0.023-0.085,0.065-0.165,0.126-0.238c0.061-0.076,0.146-0.138,0.254-0.186c0.108-0.049,0.256-0.073,0.438-0.073
	c0.596,0,0.892,0.207,0.892,0.616c0,0.097-0.01,0.173-0.028,0.229c-0.02,0.056-0.046,0.1-0.08,0.131
	c-0.034,0.032-0.069,0.053-0.108,0.065s-0.077,0.021-0.116,0.024l-1.051,0.131c-0.266,0.033-0.475,0.099-0.628,0.195
	c-0.152,0.097-0.267,0.206-0.344,0.327c-0.078,0.12-0.127,0.242-0.148,0.366c-0.022,0.123-0.033,0.224-0.033,0.3
	c0,0.166,0.029,0.314,0.087,0.447c0.058,0.132,0.141,0.247,0.247,0.344c0.105,0.097,0.231,0.173,0.378,0.226
	c0.145,0.053,0.303,0.079,0.477,0.079c0.185,0,0.347-0.021,0.49-0.059c0.143-0.038,0.27-0.088,0.381-0.148s0.205-0.127,0.285-0.198
	c0.081-0.074,0.151-0.144,0.215-0.211c0.005,0.072,0.017,0.144,0.037,0.214c0.019,0.069,0.051,0.132,0.097,0.185
	c0.046,0.054,0.113,0.097,0.2,0.13c0.087,0.034,0.199,0.052,0.34,0.052c0.073,0,0.136-0.009,0.188-0.025
	c0.054-0.017,0.106-0.033,0.159-0.048v-0.464c-0.037,0.01-0.075,0.019-0.112,0.022c-0.035,0.005-0.068,0.007-0.098,0.007
	c-0.14,0-0.21-0.075-0.21-0.226v-2.183c0-0.158-0.027-0.296-0.083-0.411c-0.056-0.117-0.128-0.215-0.214-0.295
	c-0.088-0.079-0.185-0.143-0.291-0.188c-0.105-0.045-0.212-0.08-0.317-0.104c-0.107-0.024-0.205-0.041-0.294-0.048
	c-0.09-0.006-0.158-0.011-0.207-0.011c-0.232,0-0.443,0.023-0.635,0.069c-0.19,0.045-0.354,0.12-0.489,0.221
	c-0.136,0.102-0.242,0.231-0.319,0.392s-0.118,0.354-0.123,0.581H70.489z M72.236,96.049c0,0.127-0.034,0.243-0.102,0.353
	c-0.066,0.109-0.157,0.202-0.265,0.282c-0.108,0.079-0.233,0.144-0.373,0.189c-0.141,0.046-0.286,0.068-0.436,0.068
	c-0.241,0-0.417-0.058-0.524-0.175c-0.11-0.115-0.164-0.278-0.164-0.484c0-0.122,0.027-0.22,0.083-0.294
	c0.056-0.075,0.125-0.135,0.206-0.178c0.082-0.044,0.171-0.077,0.266-0.098c0.094-0.023,0.18-0.038,0.257-0.047
	c0.199-0.025,0.359-0.048,0.482-0.069c0.124-0.022,0.223-0.042,0.302-0.059c0.076-0.017,0.135-0.035,0.173-0.054
	c0.039-0.02,0.071-0.039,0.095-0.059V96.049z M69.039,92.156h-0.638v5.205h0.638V92.156z M67.502,92.156h-0.639v5.205h0.639V92.156z
	 M65.473,96.173c-0.007,0.071-0.03,0.15-0.077,0.235c-0.046,0.086-0.111,0.166-0.195,0.243s-0.187,0.142-0.305,0.191
	c-0.118,0.051-0.252,0.077-0.402,0.077c-0.367,0-0.643-0.109-0.826-0.326c-0.185-0.219-0.275-0.525-0.275-0.922h2.769
	c0-0.332-0.032-0.637-0.101-0.909s-0.169-0.506-0.306-0.699c-0.134-0.193-0.304-0.343-0.506-0.446
	c-0.204-0.104-0.442-0.156-0.718-0.156c-0.314,0-0.586,0.055-0.815,0.163c-0.231,0.109-0.418,0.259-0.566,0.45
	c-0.147,0.191-0.257,0.414-0.331,0.67c-0.072,0.257-0.107,0.532-0.107,0.827c0,0.275,0.038,0.528,0.115,0.761
	c0.078,0.232,0.189,0.432,0.333,0.603c0.145,0.169,0.322,0.3,0.533,0.395c0.21,0.094,0.449,0.142,0.714,0.142
	c0.149,0,0.28-0.009,0.392-0.025c0.111-0.018,0.206-0.037,0.287-0.063c0.079-0.023,0.146-0.052,0.202-0.083s0.105-0.063,0.148-0.09
	c0.121-0.078,0.222-0.168,0.306-0.269c0.081-0.102,0.149-0.201,0.203-0.3c0.053-0.1,0.091-0.191,0.119-0.276
	c0.025-0.084,0.041-0.148,0.047-0.192H65.473z M63.392,95.165c0-0.146,0.027-0.287,0.083-0.424c0.055-0.139,0.131-0.259,0.226-0.363
	c0.093-0.104,0.204-0.188,0.333-0.25c0.128-0.063,0.264-0.095,0.409-0.095c0.194,0,0.356,0.032,0.486,0.095s0.237,0.146,0.32,0.25
	c0.082,0.104,0.142,0.225,0.181,0.363c0.037,0.137,0.063,0.278,0.072,0.424H63.392z M62.34,94.099V93.57h-0.608v-1.059h-0.639v1.059
	h-0.514v0.528h0.514v2.502c0,0.115,0.012,0.224,0.033,0.323c0.023,0.099,0.061,0.185,0.117,0.257c0.055,0.072,0.132,0.13,0.232,0.17
	c0.099,0.042,0.228,0.062,0.388,0.062c0.034,0,0.092-0.006,0.178-0.018c0.084-0.013,0.185-0.022,0.3-0.033V96.86h-0.225
	c-0.033,0-0.072-0.001-0.116-0.003s-0.085-0.013-0.127-0.032c-0.041-0.02-0.074-0.049-0.102-0.091
	c-0.027-0.041-0.039-0.098-0.039-0.17v-2.466H62.34z M59.041,95.158c0-0.136,0.023-0.266,0.07-0.388
	c0.045-0.124,0.11-0.233,0.195-0.326c0.084-0.095,0.186-0.169,0.304-0.222c0.119-0.053,0.253-0.08,0.403-0.08h0.24v-0.659
	c-0.025-0.01-0.048-0.016-0.073-0.018c-0.024-0.004-0.056-0.005-0.094-0.005c-0.242,0-0.449,0.068-0.62,0.203
	c-0.172,0.136-0.321,0.314-0.446,0.537h-0.015V93.57h-0.602v3.791h0.638V95.158z M57.432,93.57h-0.638v3.791h0.638V93.57z
	 M57.432,92.156h-0.638v0.725h0.638V92.156z M55.909,94.78c0-0.271-0.041-0.492-0.124-0.662c-0.083-0.173-0.188-0.307-0.318-0.403
	s-0.274-0.162-0.432-0.199c-0.157-0.037-0.308-0.055-0.452-0.055c-0.156,0-0.291,0.021-0.407,0.062
	c-0.117,0.042-0.219,0.094-0.308,0.156c-0.09,0.063-0.167,0.131-0.232,0.203s-0.12,0.139-0.164,0.195h-0.014v-1.921h-0.638v5.205
	h0.638v-2.065c0-0.236,0.03-0.437,0.091-0.599c0.061-0.162,0.142-0.293,0.243-0.392s0.215-0.169,0.341-0.211
	c0.125-0.04,0.252-0.062,0.384-0.062c0.149,0,0.273,0.021,0.373,0.062c0.099,0.042,0.176,0.098,0.233,0.172
	c0.055,0.072,0.094,0.16,0.116,0.265c0.021,0.103,0.032,0.221,0.032,0.352v2.479h0.638V94.78z M49.414,97.361v-0.471h0.015
	c0.034,0.053,0.075,0.113,0.126,0.181c0.052,0.067,0.118,0.131,0.201,0.189c0.082,0.057,0.182,0.106,0.3,0.148
	c0.118,0.04,0.257,0.062,0.417,0.062c0.324,0,0.591-0.068,0.804-0.203c0.213-0.136,0.383-0.308,0.512-0.515s0.218-0.436,0.271-0.687
	c0.054-0.248,0.08-0.485,0.08-0.713c0-0.266-0.035-0.514-0.104-0.743c-0.07-0.229-0.173-0.431-0.308-0.603
	c-0.135-0.171-0.302-0.305-0.497-0.401c-0.196-0.097-0.418-0.146-0.671-0.146c-0.223,0.006-0.425,0.054-0.608,0.146
	c-0.185,0.092-0.347,0.239-0.486,0.441H49.45v-1.892h-0.638v5.205H49.414z M51.418,96.035c-0.042,0.179-0.104,0.334-0.189,0.464
	s-0.191,0.233-0.319,0.308c-0.128,0.076-0.279,0.113-0.453,0.113c-0.102,0-0.212-0.02-0.334-0.06
	c-0.12-0.037-0.233-0.105-0.336-0.201c-0.104-0.097-0.191-0.228-0.261-0.392c-0.071-0.165-0.106-0.372-0.106-0.625
	c0-0.153,0.011-0.325,0.03-0.511c0.019-0.185,0.064-0.36,0.134-0.525c0.071-0.163,0.173-0.301,0.308-0.408
	c0.135-0.11,0.319-0.165,0.551-0.165c0.246,0,0.439,0.052,0.576,0.153c0.138,0.101,0.242,0.226,0.313,0.373
	c0.07,0.147,0.112,0.305,0.125,0.468c0.015,0.165,0.023,0.307,0.023,0.428C51.48,95.663,51.458,95.856,51.418,96.035 M47.979,97.361
	V93.57H47.34v2.088c0,0.141-0.017,0.284-0.051,0.432c-0.033,0.147-0.089,0.282-0.169,0.406c-0.08,0.122-0.187,0.224-0.319,0.303
	c-0.133,0.081-0.3,0.121-0.504,0.121c-0.101,0-0.196-0.016-0.285-0.044c-0.09-0.029-0.167-0.077-0.233-0.142
	c-0.065-0.065-0.117-0.151-0.156-0.257c-0.039-0.106-0.058-0.237-0.058-0.392V93.57h-0.638v2.726c0,0.228,0.037,0.415,0.112,0.564
	c0.075,0.152,0.172,0.271,0.293,0.364c0.121,0.091,0.254,0.154,0.398,0.191c0.145,0.037,0.288,0.055,0.428,0.055
	c0.304,0,0.546-0.058,0.729-0.171c0.181-0.114,0.339-0.281,0.475-0.504l0.014,0.015v0.551H47.979z M44.019,93.679
	c-0.009-0.146-0.035-0.313-0.075-0.503c-0.042-0.191-0.131-0.373-0.269-0.545c-0.137-0.172-0.339-0.316-0.605-0.434
	c-0.265-0.12-0.626-0.179-1.08-0.179c-0.315,0-0.585,0.045-0.812,0.138c-0.227,0.092-0.414,0.213-0.559,0.362
	c-0.145,0.15-0.251,0.322-0.318,0.516c-0.069,0.193-0.102,0.391-0.102,0.594c0,0.228,0.043,0.414,0.127,0.562
	c0.084,0.148,0.186,0.268,0.301,0.359c0.116,0.092,0.236,0.16,0.363,0.206c0.125,0.046,0.231,0.079,0.319,0.099l1.065,0.246
	c0.213,0.053,0.39,0.104,0.533,0.156c0.143,0.051,0.257,0.108,0.341,0.177s0.145,0.149,0.181,0.243
	c0.036,0.095,0.054,0.21,0.054,0.345c0,0.188-0.047,0.341-0.141,0.452c-0.094,0.114-0.21,0.202-0.349,0.267
	c-0.137,0.063-0.286,0.104-0.445,0.126c-0.16,0.021-0.303,0.032-0.427,0.032c-0.17,0-0.339-0.02-0.509-0.058
	c-0.168-0.038-0.322-0.105-0.459-0.198c-0.138-0.095-0.25-0.22-0.338-0.374c-0.087-0.156-0.13-0.352-0.13-0.588h-0.66
	c0,0.246,0.033,0.477,0.099,0.692c0.064,0.215,0.209,0.424,0.431,0.627c0.058,0.053,0.126,0.109,0.207,0.167
	c0.08,0.059,0.181,0.112,0.305,0.163c0.123,0.05,0.27,0.092,0.442,0.124c0.171,0.03,0.378,0.046,0.62,0.046
	c0.223,0,0.453-0.024,0.693-0.072c0.238-0.049,0.458-0.131,0.659-0.25c0.2-0.118,0.365-0.279,0.493-0.481
	c0.128-0.202,0.192-0.46,0.192-0.77c0-0.207-0.03-0.389-0.09-0.544c-0.061-0.153-0.143-0.287-0.246-0.401
	c-0.105-0.113-0.229-0.207-0.374-0.28c-0.145-0.071-0.303-0.126-0.471-0.166l-1.487-0.342c-0.078-0.019-0.152-0.041-0.225-0.071
	c-0.072-0.029-0.137-0.069-0.196-0.121c-0.057-0.05-0.104-0.111-0.141-0.188c-0.036-0.074-0.055-0.167-0.055-0.279
	c0-0.197,0.042-0.355,0.124-0.474c0.083-0.119,0.183-0.21,0.305-0.276c0.12-0.064,0.25-0.108,0.388-0.13
	c0.138-0.022,0.262-0.032,0.373-0.032c0.145,0,0.292,0.017,0.443,0.05c0.149,0.034,0.286,0.092,0.409,0.174
	c0.122,0.083,0.225,0.191,0.305,0.326c0.079,0.137,0.124,0.305,0.134,0.508H44.019z M37.414,94.649c0-0.048-0.011-0.136-0.036-0.264
	c-0.023-0.128-0.084-0.261-0.181-0.398c-0.097-0.139-0.242-0.261-0.436-0.367c-0.193-0.105-0.458-0.159-0.797-0.159
	c-0.188,0-0.368,0.024-0.54,0.072c-0.172,0.049-0.324,0.122-0.457,0.222c-0.133,0.099-0.24,0.225-0.319,0.376
	c-0.08,0.153-0.119,0.333-0.119,0.542c0,0.26,0.08,0.462,0.239,0.605c0.16,0.143,0.373,0.247,0.638,0.313l0.739,0.182
	c0.271,0.069,0.464,0.139,0.581,0.211c0.116,0.072,0.174,0.185,0.174,0.334c0,0.105-0.024,0.196-0.073,0.272
	c-0.048,0.073-0.113,0.135-0.192,0.185c-0.079,0.048-0.171,0.083-0.274,0.108c-0.104,0.023-0.215,0.036-0.331,0.036
	c-0.228,0-0.406-0.027-0.537-0.08c-0.131-0.053-0.23-0.118-0.297-0.195c-0.067-0.078-0.112-0.163-0.133-0.255
	c-0.022-0.091-0.035-0.173-0.041-0.246h-0.617c0.006,0.078,0.013,0.164,0.026,0.258c0.012,0.095,0.036,0.191,0.072,0.29
	s0.091,0.194,0.163,0.286c0.073,0.092,0.168,0.176,0.287,0.25c0.118,0.075,0.265,0.134,0.442,0.178
	c0.176,0.043,0.39,0.065,0.642,0.065c0.213,0,0.411-0.029,0.594-0.088c0.184-0.058,0.342-0.139,0.475-0.246
	c0.134-0.105,0.238-0.236,0.316-0.392c0.078-0.153,0.116-0.33,0.116-0.528c0-0.257-0.079-0.463-0.236-0.62
	c-0.156-0.157-0.433-0.285-0.83-0.381l-0.638-0.16c-0.126-0.028-0.232-0.057-0.318-0.086c-0.088-0.03-0.158-0.062-0.21-0.099
	c-0.054-0.036-0.093-0.08-0.12-0.13c-0.026-0.051-0.04-0.114-0.04-0.192c0-0.115,0.03-0.21,0.09-0.282
	c0.061-0.074,0.133-0.128,0.215-0.163c0.083-0.037,0.165-0.062,0.25-0.073c0.084-0.011,0.15-0.018,0.199-0.018
	c0.204,0,0.363,0.021,0.479,0.064c0.116,0.044,0.205,0.098,0.268,0.163s0.104,0.136,0.124,0.211
	c0.019,0.075,0.029,0.142,0.029,0.198H37.414z M33.761,97.361V93.57h-0.638v2.088c0,0.141-0.018,0.284-0.052,0.432
	s-0.09,0.282-0.17,0.406c-0.08,0.122-0.185,0.224-0.319,0.303c-0.133,0.081-0.3,0.121-0.504,0.121c-0.101,0-0.197-0.016-0.286-0.044
	c-0.09-0.029-0.167-0.077-0.232-0.142c-0.065-0.065-0.118-0.151-0.156-0.257c-0.039-0.106-0.059-0.237-0.059-0.392V93.57h-0.638
	v2.726c0,0.228,0.037,0.415,0.113,0.564c0.075,0.152,0.173,0.271,0.293,0.364c0.121,0.091,0.254,0.154,0.399,0.191
	s0.287,0.055,0.427,0.055c0.305,0,0.548-0.058,0.729-0.171c0.181-0.114,0.339-0.281,0.475-0.504l0.014,0.015v0.551H33.761z
	 M29.889,94.78c0-0.271-0.042-0.492-0.124-0.662c-0.083-0.173-0.188-0.307-0.318-0.403c-0.131-0.097-0.275-0.162-0.432-0.199
	c-0.158-0.037-0.309-0.055-0.454-0.055c-0.165,0-0.31,0.024-0.434,0.072c-0.126,0.049-0.236,0.107-0.331,0.174
	c-0.095,0.069-0.172,0.14-0.235,0.216c-0.063,0.073-0.111,0.136-0.146,0.185h-0.014V93.57H26.8v3.791h0.638v-2.065
	c0-0.258,0.035-0.467,0.106-0.631c0.07-0.165,0.155-0.294,0.257-0.389c0.102-0.094,0.21-0.157,0.327-0.191
	c0.116-0.034,0.219-0.052,0.312-0.052c0.309,0,0.521,0.085,0.638,0.251c0.116,0.167,0.174,0.414,0.174,0.743v2.334h0.638V94.78z
	 M25.916,97.361V93.57h-0.639v2.088c0,0.141-0.017,0.284-0.05,0.432c-0.034,0.147-0.09,0.282-0.17,0.406
	c-0.08,0.122-0.187,0.224-0.32,0.303c-0.133,0.081-0.3,0.121-0.503,0.121c-0.102,0-0.197-0.016-0.286-0.044
	c-0.089-0.029-0.167-0.077-0.233-0.142c-0.065-0.065-0.117-0.151-0.155-0.257c-0.04-0.106-0.059-0.237-0.059-0.392V93.57h-0.638
	v2.726c0,0.228,0.037,0.415,0.112,0.564c0.075,0.152,0.173,0.271,0.293,0.364c0.121,0.091,0.254,0.154,0.398,0.191
	c0.146,0.037,0.289,0.055,0.429,0.055c0.304,0,0.546-0.058,0.729-0.171c0.182-0.114,0.338-0.281,0.475-0.504l0.015,0.015v0.551
	H25.916z M21.117,95.158c0-0.136,0.022-0.266,0.068-0.388c0.046-0.124,0.111-0.233,0.196-0.326c0.084-0.095,0.186-0.169,0.305-0.222
	c0.118-0.053,0.252-0.08,0.401-0.08h0.24v-0.659c-0.024-0.01-0.048-0.016-0.072-0.018c-0.024-0.004-0.056-0.005-0.094-0.005
	c-0.242,0-0.449,0.068-0.62,0.203c-0.172,0.136-0.321,0.314-0.446,0.537H21.08V93.57h-0.602v3.791h0.64V95.158z M16.484,92.758
	h1.428c0.145,0,0.28,0.015,0.406,0.044c0.125,0.029,0.234,0.077,0.326,0.146c0.091,0.066,0.164,0.156,0.217,0.268
	c0.053,0.111,0.08,0.25,0.08,0.413c0,0.174-0.024,0.321-0.077,0.442c-0.051,0.12-0.123,0.217-0.217,0.29
	c-0.095,0.073-0.206,0.125-0.333,0.155c-0.128,0.032-0.272,0.047-0.432,0.047h-1.399V92.758z M16.484,95.165h1.639
	c0.28,0,0.52-0.046,0.717-0.138c0.198-0.092,0.358-0.213,0.479-0.362c0.122-0.15,0.209-0.315,0.264-0.496
	c0.057-0.182,0.084-0.365,0.084-0.549c0-0.207-0.036-0.4-0.106-0.58c-0.07-0.178-0.171-0.332-0.305-0.463
	c-0.132-0.131-0.294-0.233-0.485-0.309c-0.191-0.075-0.407-0.112-0.649-0.112h-2.342v5.205h0.703V95.165z"/>
<path fill="#B1B3B4" d="M40.554,28.896c-9.8,3.657-12.997,6.382-15.38,10.284c-2.563,4.195-4.255,9.874-13.362,21.067
	c17.143-0.619,25.307-1.439,28.713-6.422C43.671,49.221,42.551,41.404,40.554,28.896"/>
<path fill="#B1B3B4" d="M29.339,21.425c2.578,0.807,5.587,2.17,9.624,4.442l1.021,0.577l-1.093,0.423
	c-6.478,2.51-11.682,4.516-15.961,5.809c-4.341,1.311-7.759,1.896-10.622,1.544c-2.984-0.366-5.119-1.713-6.957-4.058
	c-1.783-2.272-3.266-5.481-4.994-9.652L0,19.646l0.93,0.104c8.085,0.901,13.213,0.749,17.191,0.631
	c1.507-0.044,2.853-0.082,4.14-0.06C24.585,20.363,26.742,20.611,29.339,21.425 M37.391,26.263
	c-3.454-1.894-6.099-3.066-8.381-3.781c-2.486-0.777-4.547-1.015-6.766-1.055c-1.259-0.024-2.595,0.017-4.092,0.059
	c-3.861,0.114-8.797,0.259-16.413-0.536c1.541,3.668,2.902,6.513,4.483,8.531c1.649,2.103,3.559,3.311,6.222,3.637
	c2.693,0.33,5.973-0.239,10.17-1.506C26.629,30.4,31.456,28.561,37.391,26.263"/>
<path fill="#B1B3B4" d="M39.885,24.016c1.076-5.832,0.191-8.068-1.737-10.258C36.291,11.65,33.41,9.565,30.606,5
	c-6.019,3.588-9.085,5.746-8.069,8.201C23.604,15.783,29.092,18.583,39.885,24.016"/>
<path fill="#B1B3B4" d="M43.112,23.502c7.493-1.164,9.677-2.398,11.128-4.219c1.382-1.732,2.09-3.965,5.774-6.897
	c-7.776-1.744-11.77-2.448-13.878-1.231C43.929,12.431,43.631,15.928,43.112,23.502"/>
<path fill="#B1B3B4" d="M43.359,26.856c7.423,6.219,11.327,7.917,15.807,8.751c4.421,0.824,9.269,0.785,19.145,3.793
	c-5.624-8.874-8.552-12.869-12.722-14.29C61.424,23.689,55.496,24.682,43.359,26.856"/>
<path fill="#B1B3B4" d="M61.927,62.306c-0.012-0.165,0.014-0.329,0.08-0.502c0.063-0.169,0.154-0.327,0.268-0.469
	c0.116-0.142,0.249-0.259,0.401-0.354c0.152-0.095,0.31-0.15,0.476-0.16c0.01-0.003,0.026-0.003,0.046,0
	c0.021,0.002,0.032,0.002,0.032,0.002c0.017,0.008,0.062,0.038,0.132,0.086c0.073,0.048,0.151,0.098,0.236,0.155
	c0.082,0.054,0.161,0.105,0.231,0.156c0.072,0.045,0.118,0.073,0.134,0.085c0,0.005,0.01,0.008,0.026,0.008
	c0.025-0.005,0.041-0.005,0.053-0.008c0.011,0,0.027,0,0.05-0.002c0.029-0.002,0.044-0.008,0.044-0.012
	c0.015-0.002,0.05-0.016,0.098-0.041c0.05-0.023,0.102-0.047,0.157-0.074c0.055-0.025,0.108-0.047,0.157-0.068
	c0.048-0.021,0.083-0.034,0.1-0.035c0.053,0.006,0.111,0.043,0.179,0.102c0.065,0.059,0.129,0.131,0.187,0.211
	c0.056,0.081,0.105,0.163,0.145,0.25c0.041,0.084,0.064,0.154,0.067,0.205c0.016,0.203-0.04,0.361-0.166,0.483
	c-0.124,0.123-0.277,0.218-0.457,0.286c-0.18,0.065-0.368,0.111-0.564,0.136c-0.193,0.023-0.355,0.041-0.486,0.052
	c-0.115,0.008-0.261,0.017-0.44,0.025c-0.178,0.01-0.354,0.004-0.526-0.02c-0.172-0.021-0.323-0.07-0.45-0.146
	C62.01,62.58,61.939,62.464,61.927,62.306 M60.887,62.096c0.016,0.228,0.079,0.426,0.187,0.584c0.109,0.159,0.245,0.293,0.409,0.4
	c0.167,0.107,0.35,0.195,0.554,0.253c0.204,0.062,0.411,0.106,0.617,0.134c0.206,0.026,0.411,0.044,0.609,0.044
	c0.2,0.003,0.374-0.002,0.52-0.015c0.132-0.012,0.281-0.038,0.453-0.085c0.17-0.043,0.344-0.105,0.521-0.182
	c0.177-0.075,0.347-0.169,0.513-0.278c0.166-0.105,0.313-0.226,0.44-0.355c0.128-0.132,0.227-0.274,0.297-0.43
	c0.071-0.158,0.101-0.321,0.088-0.492c-0.023-0.334-0.139-0.619-0.339-0.852c-0.204-0.236-0.449-0.422-0.735-0.563
	c-0.286-0.143-0.591-0.238-0.912-0.296c-0.319-0.058-0.607-0.077-0.862-0.056c-0.222,0.018-0.473,0.096-0.753,0.234
	c-0.279,0.136-0.543,0.307-0.786,0.512c-0.244,0.206-0.447,0.434-0.607,0.686C60.939,61.591,60.867,61.845,60.887,62.096
	 M56.987,63.301c0.29-0.023,0.599,0,0.929,0.072c0.331,0.07,0.669,0.15,1.02,0.236c0.347,0.09,0.698,0.166,1.055,0.236
	c0.356,0.068,0.705,0.092,1.052,0.062c0.089-0.007,0.201-0.017,0.331-0.029c0.131-0.015,0.255-0.043,0.375-0.088
	c0.12-0.044,0.218-0.11,0.298-0.191c0.08-0.083,0.112-0.195,0.104-0.336c-0.014-0.175-0.079-0.298-0.199-0.36
	c-0.117-0.066-0.255-0.1-0.413-0.109c-0.158-0.01-0.314-0.002-0.469,0.018c-0.156,0.023-0.275,0.033-0.362,0.025
	c-0.047-0.002-0.125-0.01-0.243-0.029c-0.115-0.016-0.246-0.038-0.393-0.062c-0.146-0.024-0.303-0.047-0.467-0.072
	c-0.164-0.027-0.325-0.052-0.481-0.077c-0.156-0.026-0.295-0.053-0.42-0.074c-0.123-0.021-0.22-0.039-0.29-0.05
	c-0.068-0.017-0.153-0.034-0.251-0.063c-0.099-0.026-0.198-0.058-0.295-0.093c-0.095-0.03-0.178-0.061-0.245-0.086
	c-0.066-0.022-0.102-0.043-0.103-0.052l-0.026-0.354c0-0.004,0.048-0.07,0.143-0.191c0.098-0.123,0.213-0.266,0.35-0.43
	c0.136-0.166,0.277-0.336,0.424-0.508c0.147-0.176,0.269-0.316,0.361-0.424c0.144-0.16,0.282-0.305,0.417-0.437
	c0.137-0.132,0.274-0.254,0.418-0.365c0.142-0.111,0.295-0.217,0.456-0.32c0.16-0.099,0.337-0.198,0.528-0.291
	c-0.001-0.015-0.003-0.058-0.004-0.13c-0.002-0.07-0.003-0.114-0.005-0.134c-0.014-0.172-0.052-0.292-0.116-0.357
	c-0.065-0.063-0.186-0.086-0.361-0.071c-0.215,0.015-0.411,0.091-0.585,0.222c-0.177,0.132-0.344,0.272-0.504,0.419
	c-0.091,0.086-0.215,0.2-0.374,0.345c-0.157,0.145-0.313,0.292-0.467,0.44c-0.154,0.147-0.292,0.279-0.416,0.396
	c-0.123,0.113-0.194,0.184-0.216,0.202c-0.052,0.057-0.127,0.143-0.229,0.26c-0.098,0.119-0.213,0.254-0.342,0.404
	c-0.128,0.152-0.261,0.313-0.4,0.484c-0.138,0.17-0.269,0.33-0.396,0.482c-0.125,0.154-0.237,0.291-0.336,0.412
	c-0.1,0.123-0.172,0.217-0.219,0.279c-0.142-0.059-0.255-0.165-0.34-0.313c-0.086-0.151-0.163-0.313-0.235-0.488
	c-0.074-0.174-0.155-0.346-0.244-0.518c-0.09-0.167-0.206-0.301-0.35-0.396c-0.087,0.044-0.155,0.087-0.2,0.132
	c-0.045,0.046-0.078,0.093-0.096,0.146c-0.019,0.053-0.03,0.104-0.027,0.161c0.001,0.054,0.004,0.12,0.01,0.19
	c0.007,0.111,0.028,0.25,0.061,0.419c0.032,0.168,0.075,0.351,0.129,0.542c0.054,0.193,0.119,0.389,0.197,0.584
	c0.079,0.194,0.163,0.369,0.256,0.523c0.096,0.155,0.2,0.279,0.315,0.369c0.114,0.092,0.236,0.133,0.367,0.121
	c0.142-0.011,0.274-0.049,0.398-0.119c0.123-0.068,0.242-0.145,0.358-0.226c0.117-0.079,0.239-0.153,0.36-0.222
	C56.705,63.351,56.84,63.311,56.987,63.301 M48.548,59.814c0.011,0.152,0.058,0.252,0.14,0.295c0.083,0.046,0.196,0.059,0.338,0.048
	c0.209-0.015,0.426-0.065,0.647-0.147c0.223-0.082,0.444-0.178,0.667-0.279c0.222-0.102,0.445-0.204,0.666-0.302
	c0.222-0.097,0.438-0.17,0.65-0.222c0.023-0.002,0.085-0.006,0.187-0.018c0.108-0.009,0.22-0.015,0.338-0.022
	c0.115-0.004,0.224-0.013,0.326-0.02c0.103-0.008,0.167-0.017,0.195-0.025c0.022-0.006,0.052-0.027,0.085-0.058
	c0.035-0.033,0.07-0.069,0.105-0.112c0.032-0.041,0.062-0.081,0.088-0.122c0.025-0.039,0.039-0.074,0.044-0.096
	c-0.083-0.119-0.176-0.208-0.276-0.27c-0.103-0.063-0.211-0.111-0.328-0.139c-0.116-0.03-0.235-0.043-0.358-0.047
	c-0.123-0.002-0.247,0.004-0.373,0.011c-0.106,0.009-0.26,0.036-0.459,0.077c-0.199,0.044-0.417,0.098-0.654,0.169
	c-0.237,0.067-0.478,0.149-0.721,0.243c-0.244,0.092-0.465,0.194-0.662,0.303c-0.196,0.107-0.357,0.226-0.478,0.352
	C48.595,59.558,48.537,59.687,48.548,59.814 M47.57,63.24c0.023,0.329,0.059,0.609,0.107,0.846c0.051,0.234,0.132,0.427,0.245,0.574
	c0.114,0.146,0.27,0.25,0.468,0.309c0.199,0.059,0.458,0.072,0.782,0.049c0.034-0.003,0.119-0.012,0.259-0.025
	c0.138-0.015,0.308-0.035,0.507-0.063c0.2-0.027,0.422-0.063,0.665-0.105c0.242-0.043,0.482-0.091,0.725-0.146
	c0.239-0.056,0.471-0.116,0.695-0.188c0.222-0.07,0.417-0.15,0.581-0.241c0.162-0.09,0.286-0.186,0.367-0.29
	s0.101-0.215,0.064-0.338c-0.051-0.154-0.125-0.251-0.222-0.293c-0.097-0.038-0.202-0.053-0.317-0.045
	c-0.02,0.002-0.055,0.007-0.101,0.014c-0.044,0.004-0.073,0.011-0.084,0.021c-0.022,0.007-0.073,0.03-0.152,0.073
	c-0.08,0.04-0.169,0.088-0.263,0.141c-0.098,0.051-0.186,0.096-0.268,0.141c-0.083,0.043-0.135,0.065-0.156,0.074
	c-0.141,0.041-0.293,0.079-0.462,0.115c-0.169,0.037-0.342,0.071-0.519,0.1c-0.178,0.027-0.354,0.055-0.533,0.078
	c-0.178,0.021-0.345,0.041-0.505,0.052c-0.119,0.011-0.216,0.013-0.294,0.011c-0.078-0.002-0.138-0.02-0.183-0.051
	c-0.045-0.032-0.081-0.085-0.102-0.158c-0.021-0.072-0.039-0.172-0.048-0.301c-0.01-0.136-0.004-0.244,0.015-0.324
	c0.02-0.082,0.055-0.148,0.109-0.201c0.053-0.051,0.125-0.094,0.212-0.131c0.088-0.035,0.197-0.076,0.325-0.125
	c0.055-0.014,0.146-0.042,0.271-0.08c0.125-0.041,0.267-0.085,0.423-0.135c0.156-0.053,0.32-0.104,0.493-0.154
	c0.171-0.053,0.335-0.102,0.494-0.148c0.155-0.049,0.295-0.092,0.42-0.127c0.125-0.038,0.219-0.064,0.28-0.081l0.323-0.388
	l-0.183-0.166c-0.011-0.002-0.038-0.006-0.079-0.004c-0.04,0-0.087,0-0.14,0.002c-0.054,0-0.107,0-0.162,0.002
	c-0.054,0.002-0.095,0.006-0.124,0.008c-0.221,0.016-0.435,0.057-0.646,0.115c-0.209,0.061-0.416,0.125-0.622,0.192
	c-0.206,0.067-0.414,0.13-0.619,0.191c-0.207,0.062-0.42,0.099-0.641,0.118c-0.114,0.01-0.215-0.008-0.303-0.039
	c-0.088-0.034-0.172-0.074-0.252-0.119s-0.16-0.08-0.235-0.116c-0.076-0.037-0.163-0.05-0.26-0.044
	c-0.01,0.002-0.028,0.004-0.05,0.009s-0.033,0.011-0.033,0.017c-0.014,0.014-0.039,0.036-0.073,0.068
	c-0.03,0.031-0.063,0.066-0.099,0.111c-0.031,0.037-0.063,0.078-0.092,0.115c-0.03,0.039-0.048,0.065-0.058,0.086
	c0.002,0.034,0.007,0.103,0.01,0.197c0.004,0.098,0.01,0.197,0.016,0.307c0.002,0.105,0.009,0.201,0.012,0.297
	C47.564,63.141,47.567,63.205,47.57,63.24 M79.964,50.995c0.027,0.076,0.08,0.203,0.16,0.386c0.079,0.184,0.162,0.375,0.253,0.582
	c0.089,0.207,0.172,0.4,0.252,0.583c0.079,0.182,0.137,0.309,0.17,0.375c0.065,0.138,0.138,0.288,0.217,0.45
	c0.077,0.169,0.165,0.321,0.264,0.461c0.099,0.138,0.215,0.252,0.347,0.337c0.131,0.089,0.286,0.123,0.469,0.11
	c0.238-0.019,0.437-0.077,0.593-0.175c0.159-0.1,0.305-0.251,0.438-0.463c-0.066-0.097-0.146-0.165-0.24-0.208
	c-0.099-0.042-0.199-0.08-0.307-0.112c-0.103-0.033-0.205-0.073-0.303-0.115c-0.097-0.041-0.179-0.11-0.251-0.205
	c-0.168-0.229-0.313-0.46-0.427-0.699c-0.114-0.235-0.216-0.469-0.308-0.706c-0.092-0.236-0.181-0.466-0.265-0.693
	c-0.086-0.231-0.188-0.454-0.306-0.672c-0.119-0.216-0.264-0.429-0.436-0.631c-0.171-0.201-0.388-0.389-0.646-0.564
	c-0.018-0.004-0.06-0.006-0.128-0.002c-0.067,0.002-0.111,0.002-0.128,0.004c-0.182,0.013-0.322,0.08-0.422,0.198
	c-0.1,0.119-0.177,0.266-0.23,0.442c-0.058,0.18-0.096,0.379-0.12,0.595c-0.024,0.217-0.046,0.435-0.068,0.649
	c-0.02,0.221-0.047,0.424-0.081,0.62c-0.035,0.194-0.088,0.358-0.164,0.488c-0.014,0.006-0.027,0.012-0.048,0.016
	c-0.019,0.004-0.031,0.007-0.037,0.007c-0.18,0.014-0.341-0.057-0.479-0.218c-0.136-0.161-0.263-0.363-0.375-0.608
	c-0.116-0.245-0.229-0.512-0.338-0.806c-0.112-0.292-0.229-0.56-0.355-0.804c-0.125-0.243-0.269-0.445-0.426-0.604
	c-0.156-0.156-0.34-0.232-0.55-0.213c-0.01,0.002-0.026,0.002-0.04,0.004c-0.019,0-0.029,0.004-0.035,0.012l-0.955,1.155
	c-0.007,0.006-0.017,0.059-0.026,0.151c-0.009,0.096-0.02,0.219-0.033,0.368c-0.01,0.147-0.021,0.315-0.033,0.502
	c-0.013,0.188-0.022,0.372-0.032,0.557c-0.009,0.184-0.018,0.361-0.026,0.534c-0.007,0.169-0.012,0.315-0.013,0.435
	c0,0.009,0.001,0.041,0.001,0.091c0.001,0.049,0.004,0.111,0.009,0.181c0.005,0.064,0.008,0.13,0.012,0.198
	c0.002,0.07,0.004,0.12,0.009,0.157c0,0.022,0.004,0.065,0.013,0.124c0.008,0.064,0.012,0.125,0.018,0.19
	c0.005,0.064,0.011,0.127,0.018,0.188c0.009,0.063,0.011,0.104,0.014,0.127c0.013,0.019,0.041,0.048,0.088,0.087
	c0.046,0.042,0.079,0.064,0.094,0.077c0.008,0,0.021,0,0.042,0.002h0.046c0.271-0.023,0.488-0.118,0.648-0.287
	c0.162-0.169,0.288-0.368,0.376-0.605c0.086-0.234,0.149-0.477,0.188-0.727c0.038-0.251,0.075-0.47,0.105-0.663
	c0.084,0.067,0.181,0.163,0.281,0.284c0.104,0.117,0.212,0.247,0.327,0.388c0.118,0.143,0.237,0.286,0.362,0.428
	c0.123,0.143,0.251,0.272,0.383,0.387c0.132,0.113,0.264,0.203,0.396,0.273c0.134,0.068,0.265,0.097,0.395,0.088
	c0.226-0.02,0.407-0.09,0.54-0.219c0.134-0.129,0.237-0.287,0.316-0.47c0.079-0.182,0.134-0.378,0.174-0.59
	c0.039-0.21,0.079-0.402,0.119-0.583c0.042-0.182,0.092-0.335,0.15-0.457c0.06-0.121,0.146-0.188,0.258-0.196
	c0.008,0,0.02,0,0.041,0.002C79.937,50.998,79.951,50.998,79.964,50.995 M67.918,52.977c-0.015-0.166,0.016-0.333,0.078-0.501
	c0.064-0.173,0.154-0.33,0.269-0.47c0.117-0.141,0.249-0.26,0.402-0.353c0.151-0.096,0.31-0.15,0.475-0.165h0.046
	c0.021,0.002,0.031,0.002,0.031,0.002c0.018,0.012,0.063,0.042,0.134,0.089c0.072,0.045,0.151,0.098,0.232,0.154
	c0.086,0.056,0.163,0.107,0.235,0.153c0.072,0.05,0.116,0.077,0.136,0.089c0.001,0.006,0.01,0.006,0.024,0.006
	c0.022-0.002,0.04-0.004,0.051-0.004c0.011-0.002,0.027-0.002,0.053-0.002c0.028-0.005,0.042-0.01,0.042-0.014
	c0.016,0,0.051-0.016,0.099-0.039c0.05-0.025,0.103-0.051,0.157-0.075c0.055-0.025,0.108-0.047,0.157-0.07
	c0.051-0.021,0.083-0.034,0.101-0.034c0.053,0.007,0.111,0.041,0.179,0.1c0.067,0.058,0.129,0.132,0.187,0.211
	c0.057,0.081,0.105,0.166,0.146,0.249c0.04,0.086,0.063,0.157,0.066,0.209c0.013,0.198-0.04,0.359-0.167,0.481
	c-0.125,0.124-0.276,0.218-0.457,0.286c-0.179,0.066-0.367,0.114-0.563,0.139c-0.193,0.023-0.356,0.041-0.488,0.049
	c-0.111,0.01-0.259,0.019-0.438,0.027c-0.178,0.009-0.354,0.002-0.528-0.02c-0.172-0.023-0.321-0.073-0.449-0.146
	C67.999,53.252,67.929,53.134,67.918,52.977 M66.876,52.766c0.016,0.229,0.079,0.424,0.188,0.583
	c0.109,0.161,0.246,0.292,0.412,0.403c0.166,0.107,0.348,0.192,0.552,0.252c0.205,0.06,0.409,0.102,0.618,0.132
	c0.206,0.029,0.408,0.043,0.608,0.045c0.202,0,0.373-0.004,0.521-0.016c0.13-0.009,0.282-0.035,0.452-0.083
	c0.172-0.048,0.344-0.107,0.521-0.184c0.176-0.075,0.347-0.168,0.513-0.274c0.166-0.108,0.313-0.227,0.439-0.358
	c0.128-0.132,0.226-0.274,0.298-0.432c0.07-0.154,0.101-0.32,0.088-0.488c-0.025-0.336-0.139-0.62-0.341-0.855
	c-0.202-0.235-0.448-0.422-0.736-0.561c-0.285-0.14-0.589-0.238-0.908-0.296c-0.322-0.056-0.609-0.075-0.864-0.054
	c-0.221,0.018-0.471,0.094-0.752,0.23s-0.543,0.309-0.787,0.515c-0.245,0.205-0.446,0.433-0.607,0.685
	C66.93,52.263,66.859,52.514,66.876,52.766 M62.383,49.288c0.187-0.015,0.331-0.022,0.431-0.024
	c0.098-0.002,0.189,0.015,0.264,0.058c0.079,0.042,0.159,0.111,0.246,0.204c0.089,0.098,0.211,0.234,0.375,0.411
	c0,0.004,0.001,0.018,0.007,0.034c0.003,0.018,0.004,0.031,0.006,0.044v0.058c-0.002,0.027-0.002,0.042-0.002,0.049
	c-0.003,0.027-0.01,0.078-0.021,0.145c-0.012,0.071-0.025,0.141-0.037,0.219c-0.01,0.075-0.022,0.147-0.035,0.22
	c-0.011,0.07-0.018,0.117-0.022,0.144c-0.048,0.061-0.13,0.167-0.246,0.314c-0.118,0.147-0.247,0.306-0.384,0.474
	c-0.138,0.168-0.268,0.322-0.393,0.465c-0.123,0.141-0.211,0.243-0.263,0.3c-0.017,0.018-0.061,0.055-0.135,0.106
	c-0.072,0.054-0.152,0.113-0.238,0.179c-0.087,0.066-0.173,0.13-0.26,0.189c-0.085,0.061-0.151,0.104-0.194,0.132
	c0,0-0.011,0.002-0.033,0.006c-0.023,0.004-0.041,0.007-0.053,0.007c-0.01,0.002-0.028,0.002-0.05,0h-0.034
	c-0.029-0.009-0.067-0.036-0.118-0.08c-0.048-0.045-0.072-0.071-0.074-0.082l-0.173-2.344c-0.015-0.217,0.021-0.401,0.108-0.553
	c0.089-0.153,0.207-0.274,0.353-0.368c0.146-0.094,0.309-0.166,0.485-0.215C62.067,49.331,62.23,49.301,62.383,49.288
	 M59.776,53.686c0.012,0.156,0.021,0.331,0.026,0.524c0.005,0.19,0.03,0.367,0.073,0.529c0.044,0.163,0.112,0.296,0.209,0.397
	c0.097,0.106,0.241,0.15,0.433,0.136c0.087-0.006,0.16-0.018,0.225-0.032c0.063-0.013,0.125-0.036,0.184-0.067
	c0.056-0.03,0.112-0.076,0.166-0.13c0.051-0.053,0.108-0.125,0.17-0.211c0.063-0.005,0.165-0.019,0.302-0.034
	c0.138-0.017,0.292-0.037,0.461-0.064c0.17-0.023,0.348-0.05,0.539-0.077c0.188-0.028,0.367-0.052,0.536-0.078
	c0.171-0.026,0.322-0.052,0.461-0.077c0.138-0.024,0.237-0.042,0.298-0.055c0.103-0.018,0.23-0.049,0.382-0.092
	c0.154-0.042,0.317-0.089,0.487-0.138c0.168-0.053,0.34-0.104,0.515-0.157c0.171-0.052,0.332-0.101,0.475-0.149
	c0.145-0.045,0.264-0.088,0.359-0.121c0.094-0.033,0.15-0.058,0.163-0.069l0.503-0.404l-4.462,0.355
	c-0.012-0.176,0.034-0.344,0.143-0.504c0.108-0.158,0.245-0.321,0.409-0.488c0.164-0.166,0.344-0.343,0.542-0.532
	c0.197-0.186,0.376-0.388,0.536-0.607c0.161-0.22,0.29-0.463,0.392-0.735c0.098-0.27,0.136-0.577,0.112-0.916
	c-0.024-0.325-0.105-0.585-0.242-0.788c-0.138-0.202-0.31-0.356-0.517-0.468c-0.21-0.111-0.438-0.181-0.687-0.21
	c-0.251-0.033-0.503-0.037-0.759-0.017c-0.447,0.034-0.822,0.139-1.124,0.311c-0.299,0.17-0.544,0.392-0.736,0.665
	c-0.19,0.272-0.333,0.581-0.422,0.921c-0.091,0.344-0.154,0.708-0.187,1.084c-0.031,0.375-0.04,0.761-0.024,1.157
	C59.728,52.94,59.749,53.319,59.776,53.686 M53.439,51.928c0.006,0.076,0.036,0.141,0.091,0.197
	c0.055,0.054,0.123,0.098,0.203,0.128c0.079,0.034,0.158,0.056,0.241,0.071c0.081,0.013,0.152,0.018,0.214,0.013
	c0.108-0.006,0.225-0.05,0.35-0.124c0.126-0.076,0.254-0.162,0.385-0.252c0.129-0.094,0.258-0.186,0.389-0.279
	c0.129-0.093,0.253-0.158,0.37-0.198c0.738-0.26,1.483-0.439,2.237-0.539c0.753-0.1,1.52-0.184,2.294-0.245
	c-0.012-0.182-0.085-0.323-0.215-0.425c-0.129-0.101-0.281-0.175-0.457-0.221c-0.174-0.042-0.354-0.069-0.54-0.073
	c-0.184-0.002-0.336,0.002-0.457,0.011c-0.102,0.009-0.299,0.038-0.59,0.083c-0.296,0.047-0.634,0.108-1.019,0.19
	c-0.383,0.083-0.782,0.18-1.2,0.29c-0.417,0.114-0.798,0.238-1.144,0.376c-0.345,0.141-0.627,0.296-0.846,0.464
	S53.424,51.741,53.439,51.928 M55.279,53.226c0.006,0.098,0.029,0.225,0.065,0.383c0.038,0.157,0.091,0.325,0.158,0.502
	c0.067,0.177,0.147,0.354,0.237,0.536c0.09,0.176,0.192,0.337,0.307,0.478c0.117,0.141,0.242,0.253,0.376,0.338
	c0.135,0.083,0.279,0.121,0.433,0.108c0.073-0.006,0.145-0.013,0.216-0.022c0.07-0.009,0.133-0.028,0.192-0.059
	c0.057-0.032,0.109-0.076,0.152-0.13c0.045-0.051,0.08-0.132,0.107-0.234c-0.076-0.092-0.155-0.222-0.241-0.382
	c-0.088-0.163-0.178-0.329-0.275-0.511c-0.095-0.178-0.193-0.359-0.295-0.542c-0.102-0.185-0.206-0.349-0.309-0.494
	c-0.106-0.145-0.213-0.262-0.322-0.351c-0.109-0.088-0.215-0.132-0.317-0.121c-0.119,0.011-0.232,0.06-0.338,0.151
	C55.317,52.968,55.269,53.083,55.279,53.226 M47.754,54.397c0.014,0.188,0.076,0.357,0.182,0.504
	c0.109,0.147,0.246,0.279,0.41,0.392c0.167,0.113,0.349,0.211,0.551,0.293c0.204,0.08,0.408,0.145,0.617,0.19
	c0.208,0.046,0.411,0.077,0.607,0.093c0.194,0.015,0.365,0.02,0.512,0.009c0.126-0.011,0.264-0.045,0.417-0.104
	c0.152-0.059,0.291-0.138,0.413-0.238c0.125-0.094,0.227-0.211,0.308-0.338c0.083-0.126,0.118-0.265,0.105-0.419
	c-0.025-0.336-0.131-0.613-0.321-0.832c-0.19-0.223-0.423-0.406-0.697-0.558c-0.273-0.148-0.563-0.271-0.87-0.364
	c-0.311-0.093-0.599-0.182-0.868-0.263c-0.268-0.082-0.492-0.167-0.672-0.256c-0.18-0.091-0.276-0.202-0.286-0.336
	c0-0.006,0-0.023,0.002-0.045v-0.043c0.191-0.034,0.4-0.106,0.629-0.216c0.229-0.109,0.454-0.232,0.675-0.362
	c0.222-0.133,0.424-0.263,0.608-0.395c0.185-0.13,0.331-0.229,0.439-0.304c0.088-0.112,0.136-0.22,0.143-0.322
	c0.007-0.1,0.006-0.214-0.004-0.344c-0.011-0.153-0.052-0.26-0.122-0.324c-0.071-0.063-0.187-0.086-0.351-0.073
	c-0.109,0.01-0.269,0.055-0.483,0.142c-0.212,0.083-0.446,0.194-0.702,0.333c-0.254,0.139-0.514,0.294-0.779,0.474
	c-0.267,0.178-0.507,0.361-0.726,0.555c-0.216,0.188-0.39,0.382-0.525,0.578c-0.133,0.19-0.195,0.375-0.183,0.545
	c0.02,0.251,0.115,0.452,0.288,0.601c0.174,0.149,0.387,0.269,0.644,0.366c0.254,0.095,0.533,0.176,0.833,0.247
	c0.303,0.069,0.593,0.154,0.875,0.245c0.279,0.092,0.528,0.213,0.748,0.356c0.219,0.145,0.375,0.345,0.468,0.597
	c-0.028,0.002-0.086,0.012-0.173,0.023c-0.089,0.013-0.145,0.02-0.174,0.022c-0.222,0.019-0.437,0.002-0.644-0.045
	c-0.21-0.048-0.417-0.104-0.625-0.167c-0.206-0.065-0.415-0.119-0.622-0.169C48.19,54.395,47.976,54.379,47.754,54.397"/>
<path fill="#B1B3B4" d="M115.004,60.051c0.019,0.247,0.077,0.458,0.176,0.637c0.099,0.181,0.227,0.33,0.38,0.457
	c0.154,0.127,0.332,0.229,0.532,0.309c0.198,0.076,0.406,0.138,0.619,0.178c0.057-0.002,0.158-0.008,0.308-0.018
	c0.145-0.01,0.306-0.021,0.47-0.029c0.168-0.011,0.325-0.02,0.473-0.033c0.148-0.01,0.249-0.018,0.308-0.022
	c0.101-0.008,0.239-0.022,0.407-0.033c0.171-0.013,0.339-0.028,0.507-0.045c0.165-0.013,0.312-0.028,0.436-0.043
	s0.193-0.021,0.21-0.021c0.081-0.007,0.218-0.032,0.411-0.077c0.195-0.046,0.411-0.103,0.65-0.165
	c0.239-0.068,0.489-0.145,0.748-0.234c0.258-0.086,0.493-0.183,0.706-0.285c0.211-0.104,0.385-0.212,0.519-0.324
	c0.133-0.113,0.197-0.227,0.188-0.339c-0.001-0.011-0.003-0.029-0.008-0.053c-0.004-0.022-0.006-0.038-0.006-0.043
	c-0.014-0.018-0.043-0.045-0.093-0.084c-0.048-0.042-0.083-0.067-0.1-0.078c0-0.004-0.013-0.006-0.035-0.004
	c-0.023,0.002-0.041,0.002-0.051,0.002c-0.011,0-0.029,0.002-0.051,0.004c-0.022,0.002-0.034,0.004-0.034,0.011
	c-0.028,0.014-0.09,0.052-0.188,0.114c-0.099,0.058-0.202,0.124-0.315,0.196c-0.11,0.07-0.216,0.139-0.313,0.203
	c-0.098,0.063-0.162,0.1-0.19,0.105c-0.221,0.095-0.465,0.178-0.733,0.246c-0.269,0.067-0.543,0.125-0.822,0.176
	c-0.276,0.048-0.55,0.086-0.814,0.119c-0.266,0.027-0.508,0.051-0.729,0.068c-0.08,0.008-0.195,0.008-0.348,0
	c-0.151-0.006-0.315-0.02-0.498-0.041c-0.183-0.025-0.367-0.061-0.559-0.104c-0.193-0.043-0.366-0.1-0.526-0.166
	c-0.158-0.068-0.292-0.148-0.398-0.244c-0.105-0.093-0.164-0.207-0.175-0.336c-0.009-0.128,0.017-0.282,0.075-0.453
	c0.059-0.172,0.14-0.352,0.241-0.534c0.104-0.18,0.226-0.359,0.364-0.537c0.136-0.177,0.281-0.335,0.435-0.48
	c0.151-0.145,0.304-0.266,0.459-0.357c0.156-0.091,0.299-0.141,0.429-0.151c0.012-0.002,0.028-0.002,0.05,0
	c0.019,0.002,0.031,0.002,0.038,0.002c0.028,0.02,0.079,0.061,0.149,0.125c0.07,0.061,0.144,0.128,0.224,0.197
	c0.079,0.07,0.154,0.138,0.225,0.204c0.071,0.065,0.117,0.114,0.141,0.141c0.152-0.141,0.306-0.299,0.461-0.47
	c0.154-0.175,0.292-0.353,0.415-0.545c0.125-0.188,0.222-0.387,0.293-0.6c0.073-0.214,0.103-0.436,0.085-0.663
	c-0.018-0.216-0.079-0.391-0.185-0.518c-0.106-0.126-0.27-0.18-0.489-0.165c-0.232,0.02-0.51,0.113-0.824,0.284
	c-0.32,0.168-0.646,0.385-0.984,0.649c-0.337,0.263-0.67,0.56-0.998,0.893c-0.33,0.334-0.619,0.673-0.871,1.026
	c-0.248,0.35-0.448,0.696-0.598,1.035C115.048,59.476,114.984,59.782,115.004,60.051 M111.526,60.904
	c0.018,0.256,0.051,0.461,0.095,0.619c0.048,0.156,0.12,0.271,0.218,0.349c0.102,0.08,0.236,0.125,0.406,0.141
	c0.168,0.019,0.384,0.013,0.646-0.007c-0.011-0.145-0.033-0.285-0.067-0.415c-0.031-0.13-0.069-0.259-0.108-0.386
	c-0.042-0.127-0.078-0.252-0.107-0.375c-0.033-0.125-0.057-0.259-0.066-0.399c-0.024-0.339-0.018-0.673,0.024-1.001
	c0.044-0.326,0.101-0.654,0.178-0.98c0.074-0.325,0.156-0.647,0.248-0.967c0.091-0.319,0.174-0.639,0.249-0.958
	c0.076-0.32,0.136-0.642,0.178-0.971c0.042-0.329,0.051-0.66,0.024-0.995c-0.295,0.025-0.533,0.127-0.717,0.307
	c-0.185,0.181-0.34,0.398-0.472,0.662c-0.135,0.26-0.258,0.54-0.372,0.839c-0.111,0.296-0.25,0.579-0.41,0.844
	c-0.161,0.26-0.36,0.487-0.598,0.669c-0.237,0.184-0.544,0.293-0.925,0.323c-0.196,0.015-0.361-0.021-0.49-0.106
	c-0.13-0.089-0.232-0.202-0.312-0.342c-0.079-0.136-0.137-0.292-0.172-0.467c-0.035-0.173-0.06-0.34-0.072-0.501
	c-0.293,0.024-0.498,0.118-0.615,0.277c-0.115,0.162-0.165,0.379-0.143,0.663c0.018,0.247,0.082,0.461,0.19,0.639
	c0.112,0.179,0.251,0.329,0.422,0.445c0.173,0.115,0.365,0.2,0.578,0.247c0.216,0.047,0.44,0.062,0.671,0.043
	c0.023-0.002,0.057-0.004,0.098-0.011c0.044-0.006,0.066-0.009,0.073-0.011c0.027-0.008,0.09-0.032,0.188-0.075
	c0.102-0.044,0.209-0.091,0.325-0.143c0.115-0.05,0.221-0.098,0.318-0.14c0.097-0.044,0.158-0.072,0.187-0.085
	c0.005-0.002,0.021-0.004,0.041-0.009c0.023-0.002,0.04-0.006,0.051-0.009c0.012,0,0.027,0,0.046,0.002
	c0.021,0.002,0.032,0.002,0.032,0.002c0.018,0.009,0.05,0.037,0.1,0.082c0.05,0.044,0.08,0.072,0.093,0.088
	c-0.023,0.227-0.042,0.427-0.053,0.598c-0.015,0.174-0.023,0.339-0.021,0.499c0,0.158,0.005,0.318,0.009,0.476
	C111.501,60.524,111.512,60.701,111.526,60.904 M104.454,61.516c0.29-0.022,0.599,0,0.93,0.073c0.332,0.069,0.67,0.149,1.019,0.238
	c0.348,0.085,0.699,0.163,1.056,0.235c0.354,0.068,0.705,0.088,1.052,0.063c0.09-0.008,0.201-0.02,0.331-0.032
	c0.132-0.013,0.256-0.042,0.373-0.087c0.122-0.045,0.219-0.108,0.3-0.191c0.078-0.083,0.114-0.196,0.102-0.334
	c-0.012-0.178-0.078-0.301-0.198-0.364c-0.116-0.063-0.255-0.099-0.413-0.107c-0.156-0.007-0.313-0.003-0.468,0.018
	c-0.157,0.022-0.274,0.029-0.361,0.024c-0.045-0.002-0.126-0.012-0.242-0.029c-0.114-0.016-0.246-0.039-0.394-0.061
	c-0.147-0.023-0.302-0.048-0.466-0.073c-0.165-0.027-0.327-0.053-0.482-0.079c-0.154-0.025-0.295-0.051-0.421-0.072
	c-0.123-0.021-0.22-0.039-0.287-0.051c-0.07-0.014-0.154-0.031-0.253-0.061c-0.099-0.027-0.195-0.059-0.295-0.094
	c-0.095-0.031-0.178-0.061-0.244-0.086c-0.069-0.023-0.102-0.041-0.103-0.052l-0.026-0.353c0-0.007,0.049-0.069,0.143-0.194
	c0.1-0.123,0.215-0.266,0.351-0.429c0.135-0.166,0.275-0.336,0.424-0.508c0.147-0.175,0.268-0.315,0.361-0.424
	c0.144-0.156,0.281-0.301,0.418-0.435c0.136-0.131,0.274-0.252,0.417-0.366c0.143-0.108,0.295-0.218,0.455-0.317
	c0.16-0.102,0.338-0.2,0.529-0.291c-0.002-0.018-0.002-0.061-0.006-0.131c-0.001-0.07-0.003-0.115-0.004-0.135
	c-0.014-0.177-0.052-0.294-0.117-0.355c-0.064-0.065-0.183-0.091-0.36-0.076c-0.214,0.015-0.41,0.091-0.587,0.225
	c-0.174,0.132-0.342,0.27-0.501,0.419c-0.091,0.085-0.217,0.2-0.373,0.345c-0.158,0.145-0.314,0.29-0.467,0.437
	c-0.155,0.15-0.294,0.281-0.416,0.397c-0.124,0.116-0.193,0.184-0.216,0.201c-0.053,0.057-0.13,0.145-0.229,0.264
	c-0.102,0.115-0.214,0.251-0.343,0.403c-0.128,0.152-0.262,0.314-0.4,0.484c-0.138,0.169-0.27,0.331-0.396,0.48
	c-0.126,0.152-0.237,0.291-0.336,0.412c-0.099,0.122-0.175,0.216-0.221,0.28c-0.139-0.06-0.254-0.167-0.338-0.316
	c-0.085-0.147-0.165-0.311-0.237-0.484c-0.073-0.176-0.151-0.346-0.242-0.517c-0.09-0.171-0.206-0.3-0.352-0.396
	c-0.088,0.041-0.154,0.087-0.198,0.132c-0.045,0.043-0.078,0.091-0.097,0.143c-0.019,0.052-0.027,0.104-0.025,0.162
	c0,0.056,0.004,0.12,0.009,0.19c0.008,0.111,0.028,0.251,0.062,0.42c0.033,0.17,0.074,0.349,0.13,0.542
	c0.054,0.194,0.12,0.387,0.196,0.583c0.078,0.195,0.164,0.371,0.256,0.523c0.097,0.154,0.198,0.277,0.313,0.371
	c0.115,0.09,0.239,0.131,0.369,0.119c0.142-0.01,0.273-0.051,0.398-0.117c0.122-0.071,0.241-0.145,0.359-0.225
	c0.115-0.083,0.235-0.154,0.357-0.224C104.173,61.566,104.308,61.528,104.454,61.516 M94.588,61.669
	c0.021,0.246,0.079,0.458,0.176,0.636c0.101,0.178,0.227,0.333,0.381,0.457c0.154,0.127,0.331,0.229,0.53,0.309
	c0.201,0.076,0.406,0.139,0.62,0.18c0.058-0.003,0.161-0.01,0.307-0.02c0.148-0.008,0.307-0.018,0.473-0.028
	c0.168-0.013,0.325-0.021,0.472-0.034c0.147-0.009,0.25-0.019,0.307-0.023c0.103-0.008,0.237-0.021,0.409-0.031
	c0.169-0.014,0.336-0.029,0.504-0.045c0.166-0.017,0.313-0.032,0.438-0.043c0.122-0.016,0.193-0.021,0.211-0.023
	c0.079-0.005,0.215-0.031,0.408-0.074c0.193-0.045,0.411-0.1,0.652-0.166c0.237-0.066,0.487-0.145,0.745-0.234
	c0.259-0.088,0.494-0.182,0.707-0.285c0.211-0.102,0.385-0.209,0.519-0.325c0.134-0.113,0.198-0.226,0.189-0.337
	c-0.003-0.014-0.003-0.029-0.009-0.052c-0.003-0.024-0.007-0.04-0.007-0.044c-0.012-0.018-0.044-0.047-0.093-0.087
	c-0.048-0.04-0.083-0.065-0.101-0.077c0-0.004-0.011-0.008-0.033-0.004c-0.022,0.002-0.039,0.002-0.053,0.002
	c-0.011,0-0.027,0.002-0.05,0.004c-0.022,0.004-0.033,0.006-0.033,0.013c-0.026,0.013-0.09,0.052-0.187,0.113
	c-0.1,0.058-0.205,0.125-0.316,0.196c-0.11,0.071-0.216,0.139-0.313,0.203c-0.099,0.063-0.161,0.098-0.19,0.107
	c-0.22,0.094-0.465,0.176-0.733,0.243c-0.268,0.069-0.541,0.128-0.819,0.176c-0.279,0.05-0.552,0.088-0.817,0.118
	c-0.266,0.029-0.508,0.055-0.729,0.072c-0.081,0.006-0.196,0.006-0.346,0c-0.151-0.007-0.318-0.02-0.501-0.043
	c-0.181-0.024-0.365-0.06-0.559-0.104c-0.191-0.043-0.367-0.101-0.525-0.166c-0.157-0.065-0.291-0.147-0.398-0.243
	c-0.104-0.096-0.164-0.206-0.174-0.334c-0.009-0.131,0.016-0.283,0.074-0.455c0.06-0.172,0.139-0.349,0.242-0.533
	c0.104-0.182,0.224-0.36,0.362-0.538c0.138-0.176,0.282-0.335,0.435-0.48c0.149-0.145,0.304-0.263,0.461-0.356
	c0.154-0.091,0.3-0.143,0.43-0.153c0.011-0.002,0.026-0.002,0.048,0c0.018,0.002,0.032,0.002,0.036,0.002
	c0.031,0.021,0.08,0.062,0.153,0.125c0.067,0.061,0.143,0.13,0.221,0.199c0.081,0.072,0.154,0.136,0.226,0.204
	c0.069,0.064,0.118,0.113,0.142,0.141c0.151-0.141,0.304-0.3,0.457-0.47c0.157-0.172,0.296-0.354,0.418-0.545
	c0.123-0.188,0.22-0.39,0.293-0.601c0.071-0.213,0.1-0.433,0.085-0.662c-0.018-0.219-0.077-0.39-0.185-0.518
	c-0.105-0.127-0.27-0.181-0.491-0.166c-0.234,0.021-0.509,0.114-0.825,0.283c-0.317,0.168-0.645,0.387-0.981,0.649
	c-0.339,0.261-0.67,0.56-0.998,0.893c-0.329,0.335-0.619,0.674-0.87,1.026c-0.25,0.35-0.45,0.694-0.6,1.035
	C94.633,61.092,94.57,61.397,94.588,61.669 M91.189,61.033c0.007,0.088,0.025,0.211,0.058,0.364
	c0.029,0.153,0.073,0.321,0.125,0.497c0.055,0.184,0.118,0.359,0.195,0.537c0.075,0.182,0.161,0.347,0.26,0.492
	c0.094,0.145,0.197,0.262,0.31,0.35c0.113,0.09,0.235,0.127,0.364,0.119c0.011-0.002,0.028-0.005,0.051-0.012
	c0.021-0.01,0.035-0.014,0.039-0.016c0.018-0.012,0.043-0.037,0.074-0.07c0.031-0.035,0.063-0.072,0.099-0.113
	c0.034-0.045,0.064-0.08,0.093-0.117c0.029-0.039,0.049-0.067,0.059-0.088c0,0,0-0.008,0.004-0.029c0-0.02,0-0.038,0-0.049
	c-0.007-0.075-0.031-0.189-0.069-0.341c-0.04-0.149-0.092-0.313-0.155-0.491c-0.065-0.182-0.143-0.359-0.229-0.543
	c-0.088-0.187-0.185-0.352-0.29-0.502c-0.105-0.146-0.213-0.268-0.325-0.359c-0.111-0.093-0.229-0.131-0.347-0.123
	c-0.125,0.01-0.211,0.063-0.257,0.158C91.198,60.793,91.181,60.904,91.189,61.033 M88.681,61.137
	c0.031,0.072,0.084,0.203,0.16,0.384c0.08,0.185,0.166,0.377,0.253,0.583c0.09,0.203,0.174,0.4,0.253,0.584
	c0.081,0.18,0.135,0.305,0.169,0.374c0.068,0.136,0.141,0.288,0.218,0.45c0.078,0.166,0.166,0.32,0.265,0.459
	s0.214,0.253,0.346,0.34c0.131,0.089,0.288,0.125,0.471,0.109c0.236-0.021,0.433-0.08,0.593-0.174
	c0.158-0.1,0.303-0.256,0.438-0.467c-0.066-0.095-0.146-0.163-0.244-0.205c-0.097-0.043-0.199-0.08-0.304-0.113
	c-0.105-0.032-0.204-0.07-0.304-0.113c-0.096-0.041-0.179-0.112-0.247-0.208c-0.174-0.226-0.315-0.457-0.429-0.696
	c-0.114-0.235-0.218-0.469-0.31-0.705c-0.093-0.234-0.181-0.467-0.266-0.697c-0.083-0.229-0.185-0.451-0.305-0.67
	c-0.119-0.216-0.265-0.427-0.436-0.629c-0.173-0.202-0.387-0.391-0.645-0.564c-0.018-0.004-0.062-0.007-0.13-0.002
	c-0.067,0-0.108,0.002-0.127,0.004c-0.18,0.013-0.32,0.079-0.422,0.198c-0.099,0.116-0.175,0.265-0.23,0.444
	c-0.055,0.179-0.097,0.376-0.121,0.592c-0.021,0.219-0.044,0.435-0.065,0.651c-0.021,0.219-0.051,0.424-0.084,0.617
	c-0.032,0.197-0.088,0.358-0.164,0.488c-0.01,0.009-0.025,0.014-0.044,0.018s-0.035,0.006-0.04,0.006
	c-0.18,0.015-0.34-0.058-0.477-0.219c-0.139-0.158-0.264-0.361-0.379-0.607c-0.116-0.244-0.228-0.512-0.337-0.807
	c-0.11-0.293-0.229-0.561-0.354-0.803c-0.127-0.244-0.269-0.443-0.426-0.603c-0.156-0.158-0.34-0.229-0.549-0.213
	c-0.012,0.002-0.026,0.002-0.043,0.002c-0.017,0.002-0.027,0.007-0.033,0.013l-0.959,1.156c-0.004,0.007-0.011,0.056-0.021,0.151
	s-0.021,0.219-0.031,0.368c-0.015,0.147-0.026,0.313-0.039,0.5c-0.012,0.187-0.021,0.374-0.03,0.557
	c-0.008,0.184-0.017,0.362-0.022,0.534c-0.009,0.171-0.014,0.316-0.017,0.438c0.001,0.008,0.001,0.04,0.003,0.091
	c0,0.05,0.005,0.11,0.009,0.181c0.005,0.063,0.009,0.13,0.011,0.197c0,0.068,0.003,0.121,0.007,0.156
	c0.002,0.023,0.005,0.066,0.014,0.125c0.006,0.063,0.013,0.125,0.018,0.188c0.004,0.065,0.011,0.13,0.019,0.19
	c0.006,0.061,0.012,0.104,0.013,0.127c0.013,0.018,0.043,0.047,0.087,0.087c0.046,0.04,0.079,0.065,0.098,0.075h0.037
	c0.02,0.003,0.037,0.003,0.048,0c0.27-0.02,0.489-0.115,0.65-0.285c0.16-0.166,0.285-0.369,0.373-0.604
	c0.088-0.233,0.151-0.479,0.19-0.728c0.038-0.251,0.073-0.472,0.104-0.665c0.086,0.07,0.179,0.166,0.281,0.285
	s0.213,0.248,0.329,0.389c0.116,0.143,0.236,0.285,0.361,0.428c0.124,0.145,0.25,0.273,0.382,0.387
	c0.131,0.113,0.263,0.205,0.397,0.275c0.131,0.068,0.265,0.097,0.395,0.088c0.227-0.02,0.407-0.092,0.541-0.22
	c0.132-0.129,0.237-0.287,0.313-0.47c0.078-0.181,0.138-0.379,0.178-0.588c0.037-0.211,0.078-0.403,0.118-0.588
	c0.041-0.18,0.092-0.33,0.151-0.453c0.059-0.123,0.146-0.188,0.259-0.198c0.005,0,0.016,0,0.038,0.005H88.681z M76.637,63.117
	c-0.013-0.166,0.013-0.332,0.077-0.5c0.064-0.174,0.155-0.33,0.268-0.471c0.115-0.143,0.249-0.262,0.401-0.357
	c0.155-0.094,0.312-0.146,0.477-0.16c0.012,0,0.028,0,0.047,0.002h0.032c0.016,0.012,0.062,0.043,0.134,0.088
	c0.071,0.047,0.149,0.1,0.232,0.153c0.084,0.056,0.162,0.11,0.235,0.153c0.07,0.053,0.115,0.078,0.134,0.088
	c0,0.007,0.009,0.01,0.026,0.007c0.022,0,0.041-0.003,0.051-0.003c0.012-0.002,0.028-0.002,0.052-0.004
	c0.027-0.003,0.04-0.008,0.04-0.014c0.018,0,0.051-0.014,0.101-0.037c0.048-0.024,0.101-0.05,0.157-0.074
	c0.055-0.027,0.105-0.049,0.156-0.073c0.051-0.021,0.083-0.032,0.101-0.032c0.053,0.008,0.112,0.039,0.178,0.102
	c0.068,0.059,0.13,0.129,0.187,0.209c0.058,0.083,0.106,0.165,0.148,0.25c0.038,0.086,0.062,0.156,0.063,0.209
	c0.017,0.197-0.038,0.357-0.163,0.48c-0.124,0.123-0.278,0.219-0.457,0.283c-0.182,0.07-0.37,0.117-0.563,0.141
	c-0.196,0.024-0.358,0.04-0.488,0.051c-0.115,0.009-0.26,0.02-0.44,0.025c-0.179,0.009-0.354,0.002-0.524-0.021
	c-0.173-0.021-0.324-0.07-0.452-0.145C76.719,63.393,76.648,63.273,76.637,63.117 M75.594,62.906
	c0.019,0.229,0.081,0.422,0.189,0.584c0.108,0.158,0.246,0.292,0.41,0.4c0.164,0.11,0.348,0.192,0.552,0.256
	c0.204,0.058,0.41,0.102,0.617,0.131c0.209,0.027,0.41,0.04,0.611,0.042c0.197,0.003,0.373-0.002,0.521-0.013
	c0.132-0.01,0.281-0.039,0.449-0.085c0.171-0.048,0.346-0.108,0.521-0.184c0.177-0.075,0.35-0.167,0.514-0.273
	c0.165-0.11,0.313-0.228,0.439-0.359c0.128-0.132,0.227-0.274,0.299-0.431c0.07-0.154,0.101-0.319,0.087-0.49
	c-0.022-0.334-0.139-0.619-0.342-0.854c-0.202-0.235-0.445-0.424-0.732-0.563c-0.286-0.138-0.59-0.238-0.913-0.293
	c-0.318-0.058-0.606-0.076-0.862-0.056c-0.221,0.017-0.471,0.096-0.752,0.231c-0.28,0.135-0.54,0.309-0.786,0.512
	c-0.244,0.207-0.448,0.437-0.609,0.688C75.647,62.404,75.576,62.655,75.594,62.906 M70.04,63.348
	c0.271,0.337,0.565,0.66,0.888,0.963c0.322,0.309,0.65,0.598,0.984,0.872c0.021-0.002,0.065-0.002,0.132-0.007
	c0.065-0.003,0.108-0.003,0.132-0.005c0.203-0.017,0.379-0.079,0.524-0.188c0.146-0.109,0.276-0.254,0.387-0.434
	c-0.002-0.023-0.003-0.07-0.005-0.143c-0.004-0.068-0.007-0.143-0.013-0.218c-0.006-0.077-0.011-0.147-0.015-0.211
	c-0.005-0.072-0.01-0.122-0.014-0.151c-0.03-0.438-0.095-0.875-0.188-1.299c-0.096-0.428-0.159-0.858-0.191-1.303
	c-0.013-0.176-0.007-0.346,0.019-0.515c0.024-0.165,0.055-0.331,0.09-0.497c0.038-0.166,0.069-0.33,0.093-0.489
	c0.024-0.161,0.032-0.326,0.02-0.49c-0.007-0.11-0.028-0.215-0.057-0.313c-0.031-0.1-0.074-0.184-0.13-0.256
	c-0.058-0.072-0.129-0.127-0.213-0.166c-0.086-0.036-0.185-0.049-0.299-0.042c-0.072,0.006-0.132,0.014-0.18,0.021
	c-0.045,0.007-0.08,0.02-0.106,0.047c-0.026,0.024-0.047,0.066-0.063,0.12c-0.017,0.054-0.028,0.13-0.039,0.225
	c-0.007,0.073-0.016,0.173-0.029,0.305c-0.013,0.128-0.023,0.273-0.036,0.433c-0.011,0.154-0.022,0.321-0.036,0.492
	c-0.012,0.173-0.026,0.333-0.037,0.486c-0.011,0.152-0.02,0.286-0.025,0.4c-0.005,0.117-0.01,0.195-0.011,0.246
	c0,0.07,0.003,0.191,0.013,0.36c0.01,0.171,0.023,0.354,0.036,0.547c0.014,0.186,0.026,0.368,0.043,0.535
	c0.017,0.171,0.03,0.288,0.041,0.353c-0.011,0.018-0.035,0.054-0.075,0.104c-0.037,0.051-0.065,0.082-0.083,0.096
	c0,0-0.011,0.002-0.033,0.006c-0.022,0.005-0.039,0.007-0.053,0.01c-0.009,0-0.025,0-0.046-0.003
	c-0.02-0.002-0.033-0.002-0.04-0.002c-0.103-0.108-0.204-0.254-0.299-0.435c-0.098-0.182-0.193-0.377-0.293-0.582
	c-0.097-0.209-0.196-0.422-0.302-0.633c-0.104-0.213-0.215-0.404-0.332-0.572c-0.118-0.168-0.244-0.302-0.378-0.402
	c-0.132-0.103-0.279-0.147-0.436-0.135c-0.208,0.018-0.379,0.086-0.507,0.213c-0.127,0.126-0.227,0.284-0.298,0.475
	c-0.069,0.19-0.119,0.404-0.145,0.635c-0.025,0.234-0.039,0.467-0.035,0.695c0.003,0.23,0.012,0.449,0.028,0.652
	c0.014,0.201,0.025,0.365,0.036,0.502c0.002,0.049,0.009,0.129,0.022,0.247c0.012,0.118,0.023,0.241,0.037,0.376
	c0.012,0.135,0.024,0.264,0.035,0.385c0.012,0.12,0.021,0.201,0.023,0.25c0.016,0.063,0.047,0.105,0.091,0.129
	c0.043,0.024,0.095,0.039,0.148,0.043c0.054,0.005,0.108,0.002,0.161-0.004c0.055-0.008,0.099-0.012,0.132-0.017
	c0.212-0.016,0.363-0.073,0.458-0.168c0.095-0.097,0.164-0.22,0.199-0.369c0.037-0.149,0.057-0.325,0.059-0.522
	c0.004-0.201,0.015-0.41,0.031-0.638L70.04,63.348z"/>
<path fill="#B1B3B4" d="M81.604,66.511c0-0.018-0.001-0.047-0.004-0.085c-0.004-0.051-0.006-0.095-0.008-0.145
	c0-0.044-0.003-0.089-0.003-0.131c0-0.041,0-0.072,0-0.088c0.005-0.019,0.022-0.038,0.051-0.063
	c0.031-0.024,0.063-0.044,0.104-0.064c0.037-0.02,0.072-0.041,0.105-0.057c0.031-0.02,0.057-0.03,0.074-0.03
	c0.074-0.005,0.145,0.009,0.214,0.044c0.067,0.038,0.127,0.083,0.177,0.143c0.049,0.059,0.092,0.123,0.126,0.194
	c0.033,0.071,0.052,0.141,0.056,0.212c0.003,0.011,0.003,0.026,0,0.05c-0.001,0.02-0.001,0.031-0.001,0.038
	c-0.011,0.02-0.033,0.07-0.068,0.151c-0.037,0.083-0.083,0.172-0.129,0.264c-0.053,0.094-0.107,0.175-0.173,0.247
	c-0.063,0.073-0.124,0.111-0.187,0.115c-0.078,0.008-0.142-0.021-0.187-0.091c-0.044-0.064-0.078-0.145-0.099-0.235
	c-0.021-0.088-0.033-0.179-0.037-0.269C81.611,66.62,81.608,66.552,81.604,66.511 M82.255,70.339
	c-0.007-0.031-0.018-0.089-0.027-0.18c-0.009-0.088-0.016-0.149-0.017-0.18c-0.016-0.211,0.019-0.374,0.105-0.485
	c0.086-0.115,0.2-0.194,0.341-0.245c0.143-0.049,0.3-0.079,0.472-0.09c0.173-0.011,0.341-0.023,0.506-0.036
	c0.092-0.007,0.208-0.01,0.354-0.01c0.147,0,0.3,0.01,0.464,0.025s0.331,0.04,0.497,0.079c0.169,0.037,0.321,0.086,0.457,0.151
	c0.135,0.063,0.249,0.143,0.339,0.241c0.089,0.101,0.138,0.218,0.147,0.352c0.003,0.005,0,0.02,0,0.045s0,0.039,0,0.043
	c-0.22,0.066-0.413,0.115-0.584,0.155c-0.171,0.036-0.333,0.067-0.487,0.094c-0.155,0.028-0.313,0.049-0.471,0.065
	c-0.159,0.016-0.339,0.03-0.544,0.047c-0.146,0.011-0.283,0.022-0.408,0.031c-0.124,0.012-0.245,0.014-0.361,0.012
	c-0.117-0.003-0.239-0.012-0.367-0.029C82.545,70.409,82.406,70.382,82.255,70.339 M79.612,67.662
	c0.011,0.141,0.036,0.309,0.08,0.498c0.042,0.191,0.098,0.393,0.168,0.606c0.069,0.214,0.151,0.427,0.249,0.645
	c0.095,0.217,0.201,0.417,0.318,0.603c0.116,0.187,0.242,0.349,0.377,0.483c0.135,0.139,0.28,0.232,0.432,0.287
	c0.019,0.004,0.059,0.004,0.127,0c0.069-0.008,0.142-0.017,0.222-0.023c0.079-0.009,0.151-0.016,0.221-0.022
	c0.069-0.006,0.108-0.011,0.126-0.011c0.306,0.024,0.607,0.057,0.909,0.092c0.302,0.038,0.605,0.075,0.916,0.109
	c0.306,0.035,0.615,0.061,0.924,0.076c0.309,0.02,0.619,0.015,0.931-0.012c0.215-0.015,0.42-0.043,0.609-0.074
	c0.19-0.033,0.356-0.094,0.497-0.178c0.139-0.089,0.242-0.212,0.313-0.368c0.072-0.157,0.098-0.368,0.079-0.632
	c-0.019-0.234-0.108-0.441-0.269-0.618c-0.163-0.181-0.364-0.334-0.612-0.462c-0.246-0.132-0.517-0.235-0.815-0.321
	c-0.296-0.084-0.589-0.156-0.881-0.213c-0.293-0.057-0.564-0.101-0.814-0.132c-0.251-0.03-0.449-0.054-0.601-0.069
	c0-0.015-0.003-0.042-0.01-0.089c-0.007-0.048-0.01-0.08-0.011-0.098c-0.01-0.123,0.001-0.244,0.027-0.358
	c0.028-0.119,0.063-0.236,0.104-0.357c0.039-0.115,0.073-0.238,0.101-0.36c0.028-0.123,0.037-0.252,0.026-0.389
	c-0.011-0.181-0.063-0.363-0.155-0.548c-0.09-0.186-0.205-0.352-0.344-0.501c-0.141-0.147-0.296-0.264-0.47-0.351
	c-0.176-0.088-0.357-0.124-0.544-0.111c-0.307,0.025-0.562,0.103-0.766,0.229c-0.204,0.125-0.362,0.289-0.477,0.494
	c-0.112,0.201-0.18,0.438-0.204,0.706c-0.022,0.267-0.009,0.555,0.043,0.863c-0.086-0.018-0.182-0.018-0.282-0.005
	c-0.103,0.016-0.194,0.047-0.279,0.099c-0.086,0.049-0.152,0.118-0.204,0.2C79.625,67.435,79.603,67.539,79.612,67.662
	 M74.055,66.649c0.013,0.152,0.059,0.252,0.142,0.295c0.084,0.044,0.196,0.06,0.337,0.049c0.211-0.017,0.426-0.067,0.647-0.15
	c0.222-0.082,0.444-0.175,0.668-0.278c0.223-0.104,0.444-0.203,0.666-0.301c0.22-0.097,0.437-0.173,0.65-0.225
	c0.021,0,0.084-0.006,0.187-0.013c0.107-0.009,0.22-0.017,0.336-0.023s0.225-0.015,0.327-0.021c0.102-0.009,0.167-0.016,0.195-0.024
	c0.022-0.01,0.049-0.027,0.084-0.062c0.034-0.031,0.07-0.068,0.105-0.108c0.033-0.04,0.063-0.083,0.09-0.123
	c0.023-0.038,0.039-0.073,0.042-0.098c-0.084-0.116-0.174-0.206-0.277-0.271c-0.102-0.061-0.208-0.109-0.324-0.137
	c-0.117-0.027-0.237-0.043-0.359-0.045c-0.123-0.003-0.245,0.002-0.37,0.01c-0.108,0.01-0.262,0.035-0.461,0.076
	c-0.198,0.044-0.417,0.1-0.653,0.17c-0.239,0.064-0.479,0.146-0.725,0.238c-0.242,0.096-0.462,0.196-0.659,0.307
	c-0.198,0.11-0.357,0.228-0.477,0.352C74.103,66.394,74.047,66.521,74.055,66.649 M73.076,70.075
	c0.026,0.328,0.062,0.609,0.11,0.846c0.048,0.234,0.129,0.428,0.243,0.574c0.113,0.147,0.269,0.247,0.468,0.306
	c0.196,0.061,0.459,0.076,0.779,0.051c0.036-0.002,0.122-0.011,0.261-0.024c0.138-0.015,0.307-0.035,0.507-0.063
	c0.202-0.028,0.422-0.064,0.666-0.106c0.24-0.043,0.483-0.09,0.723-0.147c0.241-0.052,0.474-0.115,0.694-0.186
	c0.224-0.07,0.418-0.151,0.582-0.243c0.165-0.091,0.288-0.183,0.367-0.289c0.081-0.103,0.101-0.215,0.065-0.339
	c-0.053-0.152-0.125-0.249-0.224-0.291c-0.097-0.037-0.2-0.054-0.314-0.045c-0.021,0.002-0.056,0.008-0.103,0.012
	c-0.045,0.007-0.071,0.014-0.082,0.021c-0.021,0.006-0.074,0.033-0.153,0.075c-0.081,0.041-0.169,0.088-0.264,0.141
	c-0.096,0.052-0.186,0.097-0.267,0.141c-0.083,0.041-0.136,0.064-0.159,0.071c-0.14,0.044-0.293,0.08-0.46,0.119
	c-0.168,0.035-0.341,0.07-0.52,0.1c-0.177,0.026-0.354,0.052-0.533,0.075c-0.178,0.022-0.345,0.04-0.504,0.055
	c-0.117,0.006-0.216,0.013-0.293,0.009c-0.078-0.003-0.139-0.021-0.184-0.05c-0.046-0.033-0.08-0.087-0.101-0.158
	c-0.023-0.071-0.039-0.171-0.049-0.301c-0.01-0.137-0.006-0.243,0.016-0.324c0.019-0.082,0.054-0.147,0.108-0.2
	c0.053-0.051,0.124-0.094,0.212-0.132c0.089-0.038,0.197-0.076,0.324-0.125c0.056-0.016,0.147-0.043,0.272-0.08
	c0.125-0.041,0.266-0.087,0.422-0.136c0.155-0.051,0.318-0.104,0.493-0.155c0.173-0.053,0.337-0.103,0.491-0.149
	c0.155-0.048,0.299-0.091,0.422-0.127c0.127-0.037,0.222-0.062,0.283-0.079l0.32-0.39l-0.182-0.162
	c-0.014-0.002-0.039-0.007-0.078-0.007c-0.04,0-0.087,0.002-0.142,0.005c-0.054,0-0.108,0-0.161,0.002
	c-0.057,0.002-0.097,0.002-0.125,0.004c-0.22,0.018-0.437,0.057-0.646,0.119c-0.209,0.061-0.416,0.124-0.621,0.19
	c-0.207,0.067-0.413,0.13-0.618,0.192c-0.206,0.061-0.42,0.097-0.643,0.116c-0.113,0.009-0.212-0.005-0.3-0.04
	c-0.09-0.033-0.174-0.071-0.254-0.117c-0.08-0.043-0.158-0.082-0.235-0.118c-0.077-0.033-0.163-0.048-0.26-0.04
	c-0.011,0.002-0.028,0.004-0.051,0.009c-0.021,0.004-0.033,0.009-0.033,0.016c-0.015,0.013-0.04,0.037-0.071,0.065
	c-0.031,0.034-0.064,0.07-0.099,0.112c-0.034,0.04-0.064,0.079-0.094,0.117c-0.028,0.038-0.048,0.066-0.058,0.084
	c0.002,0.036,0.007,0.102,0.01,0.197c0.003,0.097,0.009,0.2,0.013,0.307c0.007,0.106,0.009,0.203,0.014,0.299
	C73.069,69.973,73.075,70.039,73.076,70.075 M66.371,69.72c0.009,0.117,0.068,0.266,0.179,0.443c0.11,0.176,0.248,0.361,0.415,0.554
	c0.17,0.195,0.357,0.386,0.566,0.582c0.208,0.19,0.413,0.363,0.618,0.512c0.205,0.15,0.399,0.271,0.583,0.36
	c0.183,0.094,0.332,0.134,0.445,0.125c0.186-0.013,0.346-0.056,0.481-0.123c0.135-0.064,0.258-0.153,0.371-0.262
	c0.111-0.11,0.219-0.236,0.317-0.377c0.1-0.139,0.211-0.294,0.331-0.454c0.01-0.087,0.025-0.213,0.048-0.386
	c0.02-0.174,0.046-0.367,0.076-0.581c0.029-0.215,0.063-0.441,0.094-0.68c0.034-0.24,0.067-0.468,0.097-0.686
	c0.029-0.219,0.056-0.413,0.081-0.583c0.024-0.17,0.041-0.298,0.054-0.38c0.004-0.014,0.013-0.046,0.026-0.099
	c0.013-0.056,0.028-0.113,0.047-0.172c0.019-0.063,0.034-0.118,0.046-0.174c0.014-0.054,0.021-0.09,0.019-0.107
	c-0.003-0.042-0.021-0.091-0.049-0.15c-0.03-0.06-0.068-0.117-0.116-0.173c-0.048-0.054-0.099-0.102-0.151-0.138
	c-0.053-0.039-0.107-0.054-0.156-0.05c-0.188,0.016-0.341,0.088-0.458,0.222c-0.119,0.133-0.215,0.305-0.288,0.516
	c-0.075,0.209-0.128,0.444-0.16,0.713c-0.035,0.264-0.064,0.534-0.086,0.808c-0.024,0.272-0.044,0.542-0.066,0.804
	c-0.02,0.266-0.05,0.502-0.088,0.706c-0.039,0.209-0.093,0.377-0.164,0.506c-0.069,0.129-0.167,0.199-0.291,0.209
	c-0.01,0.003-0.025,0-0.048,0c-0.021,0-0.028-0.003-0.028-0.003l-2.243-1.991c-0.007-0.005-0.027-0.009-0.063-0.009
	c-0.037,0-0.068,0.002-0.09,0.004c-0.159,0.012-0.26,0.062-0.301,0.152C66.376,69.447,66.36,69.567,66.371,69.72 M61.73,69.973
	c-0.006-0.072-0.015-0.153-0.029-0.249c-0.011-0.098-0.016-0.194-0.016-0.297c0.002-0.101,0.012-0.198,0.033-0.295
	c0.021-0.096,0.064-0.177,0.127-0.25c0.017,0.012,0.051,0.037,0.095,0.079c0.047,0.04,0.075,0.068,0.088,0.084
	c0.019,0.038,0.06,0.118,0.12,0.229c0.061,0.113,0.12,0.232,0.184,0.362c0.064,0.128,0.125,0.25,0.186,0.37
	c0.061,0.121,0.101,0.207,0.12,0.256c0.008,0.006,0.012,0.021,0.013,0.043c0.002,0.024,0.003,0.042,0.003,0.057
	c0.005,0.068-0.013,0.141-0.059,0.209c-0.047,0.074-0.105,0.139-0.175,0.202c-0.069,0.062-0.143,0.117-0.219,0.162
	c-0.075,0.047-0.142,0.082-0.197,0.104c-0.072-0.06-0.125-0.135-0.161-0.228c-0.036-0.092-0.062-0.188-0.078-0.29
	c-0.016-0.103-0.025-0.2-0.026-0.299C61.738,70.128,61.735,70.043,61.73,69.973 M62.937,71.852c0.176-0.014,0.33,0.025,0.457,0.116
	c0.13,0.09,0.247,0.203,0.351,0.344c0.104,0.139,0.202,0.292,0.293,0.464c0.095,0.17,0.189,0.324,0.288,0.462
	c0.099,0.141,0.207,0.254,0.328,0.348c0.121,0.088,0.262,0.13,0.419,0.118c0.204-0.02,0.354-0.104,0.445-0.261
	c0.095-0.162,0.135-0.343,0.12-0.546c-0.002-0.024-0.006-0.057-0.012-0.094c-0.006-0.036-0.009-0.061-0.009-0.067l-0.932-0.827
	c-0.007-0.005-0.014-0.027-0.022-0.063c-0.01-0.039-0.015-0.07-0.016-0.094c-0.012-0.153,0.029-0.262,0.12-0.332
	c0.092-0.068,0.193-0.128,0.304-0.179c0.11-0.049,0.212-0.108,0.304-0.171c0.093-0.062,0.132-0.164,0.122-0.298
	c-0.008-0.11-0.046-0.193-0.112-0.247s-0.15-0.094-0.251-0.117c-0.102-0.025-0.213-0.039-0.336-0.041
	c-0.123,0-0.244-0.004-0.366-0.015c-0.119-0.006-0.232-0.024-0.332-0.05c-0.103-0.022-0.184-0.067-0.246-0.134
	c-0.142-0.154-0.272-0.362-0.388-0.621c-0.116-0.258-0.227-0.539-0.332-0.84c-0.104-0.304-0.209-0.612-0.312-0.928
	c-0.104-0.317-0.215-0.61-0.334-0.878s-0.249-0.497-0.389-0.691c-0.139-0.192-0.301-0.319-0.48-0.382
	c-0.024-0.004-0.054,0-0.09,0.012c-0.035,0.011-0.071,0.027-0.108,0.048c-0.034,0.021-0.065,0.043-0.093,0.07
	c-0.026,0.024-0.042,0.05-0.045,0.075c-0.319,0.941-0.55,1.893-0.695,2.855c-0.145,0.967-0.181,1.946-0.107,2.937
	c0.011,0.147,0.03,0.279,0.058,0.394c0.029,0.116,0.076,0.214,0.139,0.295c0.062,0.079,0.147,0.139,0.252,0.175
	c0.104,0.036,0.242,0.047,0.412,0.032c0.154-0.012,0.292-0.059,0.414-0.146c0.12-0.089,0.242-0.184,0.363-0.285
	c0.122-0.105,0.246-0.2,0.375-0.288C62.625,71.915,62.773,71.865,62.937,71.852 M54.739,69.536c0.006,0.074,0.037,0.141,0.092,0.196
	c0.053,0.052,0.121,0.096,0.201,0.13c0.08,0.031,0.159,0.054,0.24,0.068c0.082,0.016,0.152,0.021,0.215,0.016
	c0.108-0.01,0.224-0.053,0.349-0.125c0.126-0.075,0.254-0.16,0.383-0.254c0.129-0.091,0.26-0.185,0.389-0.278
	c0.131-0.094,0.255-0.159,0.371-0.199c0.739-0.258,1.486-0.438,2.238-0.539c0.754-0.099,1.519-0.182,2.295-0.245
	c-0.013-0.182-0.086-0.322-0.216-0.424c-0.129-0.103-0.281-0.175-0.456-0.22c-0.174-0.046-0.354-0.069-0.54-0.074
	c-0.186-0.004-0.338,0-0.457,0.013c-0.101,0.007-0.299,0.034-0.591,0.079c-0.293,0.047-0.631,0.112-1.016,0.192
	c-0.385,0.08-0.784,0.178-1.203,0.288c-0.416,0.113-0.796,0.241-1.142,0.38c-0.345,0.141-0.629,0.292-0.847,0.461
	S54.725,69.347,54.739,69.536 M56.579,70.833c0.007,0.1,0.029,0.227,0.068,0.384c0.036,0.155,0.09,0.325,0.155,0.501
	c0.067,0.179,0.147,0.355,0.237,0.536c0.09,0.177,0.194,0.337,0.31,0.479c0.116,0.139,0.241,0.255,0.374,0.336
	c0.135,0.086,0.278,0.121,0.433,0.11c0.072-0.007,0.145-0.015,0.216-0.022c0.071-0.009,0.135-0.028,0.192-0.061
	c0.058-0.031,0.109-0.072,0.152-0.127c0.045-0.054,0.082-0.132,0.108-0.234c-0.076-0.094-0.156-0.222-0.243-0.382
	c-0.086-0.164-0.176-0.332-0.272-0.511c-0.097-0.181-0.196-0.361-0.297-0.542c-0.103-0.185-0.206-0.351-0.31-0.495
	c-0.106-0.145-0.212-0.264-0.322-0.352s-0.215-0.13-0.317-0.12c-0.116,0.009-0.231,0.059-0.338,0.149
	C56.616,70.576,56.567,70.692,56.579,70.833 M49.054,72.004c0.013,0.188,0.077,0.356,0.183,0.506
	c0.107,0.145,0.244,0.276,0.41,0.393c0.164,0.11,0.348,0.21,0.55,0.292c0.202,0.079,0.409,0.146,0.619,0.188
	c0.207,0.046,0.409,0.078,0.605,0.093c0.195,0.018,0.366,0.021,0.514,0.009c0.125-0.009,0.262-0.042,0.415-0.102
	c0.152-0.061,0.291-0.139,0.413-0.238c0.125-0.097,0.226-0.211,0.309-0.338c0.083-0.129,0.116-0.268,0.106-0.422
	c-0.023-0.333-0.133-0.612-0.323-0.832c-0.189-0.221-0.421-0.406-0.694-0.557c-0.273-0.149-0.565-0.272-0.874-0.365
	c-0.31-0.093-0.596-0.183-0.866-0.263c-0.269-0.082-0.492-0.168-0.673-0.257c-0.18-0.089-0.275-0.202-0.286-0.336
	c0-0.007,0-0.022,0.001-0.043c0-0.024,0.002-0.041,0-0.045c0.192-0.034,0.401-0.104,0.632-0.215c0.226-0.11,0.453-0.23,0.673-0.364
	c0.221-0.132,0.424-0.264,0.609-0.392c0.183-0.129,0.33-0.231,0.439-0.305c0.087-0.113,0.135-0.222,0.142-0.322
	c0.007-0.1,0.005-0.216-0.004-0.345c-0.012-0.152-0.051-0.261-0.122-0.321c-0.07-0.063-0.187-0.087-0.351-0.076
	c-0.106,0.009-0.269,0.055-0.481,0.141c-0.213,0.085-0.449,0.198-0.702,0.336c-0.254,0.139-0.516,0.296-0.782,0.472
	c-0.266,0.178-0.507,0.363-0.725,0.555c-0.216,0.189-0.39,0.382-0.525,0.576c-0.133,0.194-0.193,0.377-0.182,0.546
	c0.019,0.253,0.115,0.452,0.289,0.602c0.173,0.149,0.388,0.272,0.641,0.365c0.256,0.096,0.533,0.177,0.836,0.25
	c0.301,0.07,0.593,0.151,0.873,0.244c0.28,0.091,0.531,0.211,0.75,0.356c0.219,0.145,0.375,0.345,0.467,0.595
	c-0.028,0.005-0.087,0.012-0.174,0.024c-0.088,0.011-0.145,0.019-0.173,0.023c-0.221,0.018-0.436,0.002-0.645-0.048
	c-0.21-0.048-0.417-0.102-0.625-0.168c-0.206-0.063-0.413-0.117-0.622-0.168C49.49,72.002,49.275,71.985,49.054,72.004
	 M128.138,58.399c0.103,0.073,0.189,0.119,0.261,0.134c0.072,0.013,0.162,0.019,0.271,0.009c0.238-0.018,0.347-0.154,0.329-0.405
	c-0.001-0.019-0.006-0.047-0.012-0.093c-0.005-0.043-0.008-0.068-0.008-0.073l-1-1.729c-0.008-0.004-0.014-0.02-0.021-0.047
	c-0.007-0.025-0.015-0.053-0.019-0.082c-0.007-0.03-0.011-0.059-0.017-0.089c-0.006-0.027-0.007-0.049-0.009-0.062
	c-0.015-0.204,0.027-0.36,0.129-0.465c0.101-0.106,0.286-0.174,0.556-0.208c0.004-0.013,0.011-0.03,0.011-0.049
	c0.001-0.022,0.001-0.035,0.001-0.04c-0.004-0.059-0.05-0.111-0.136-0.158c-0.086-0.045-0.182-0.084-0.29-0.114
	c-0.106-0.031-0.211-0.054-0.308-0.067c-0.101-0.017-0.159-0.031-0.184-0.04c-0.187-0.063-0.346-0.188-0.48-0.374
	c-0.135-0.187-0.245-0.381-0.333-0.581c-0.09-0.2-0.162-0.377-0.221-0.532c-0.056-0.156-0.102-0.231-0.135-0.229
	c-0.007,0-0.021,0.01-0.048,0.027c-0.029,0.016-0.061,0.034-0.097,0.056c-0.033,0.02-0.07,0.042-0.105,0.067
	c-0.033,0.022-0.064,0.04-0.086,0.054c-0.022,0.011-0.055,0.038-0.097,0.07c-0.044,0.032-0.079,0.059-0.105,0.082
	c-0.026,0.026-0.042,0.04-0.047,0.046l0.105,1.442c0.001,0.007-0.015,0.019-0.044,0.034c-0.03,0.019-0.069,0.039-0.116,0.063
	c-0.046,0.022-0.092,0.048-0.141,0.068c-0.046,0.021-0.085,0.036-0.12,0.045c-0.066,0.023-0.188,0.058-0.367,0.11
	c-0.18,0.047-0.367,0.102-0.568,0.156c-0.196,0.052-0.384,0.104-0.564,0.149c-0.179,0.047-0.304,0.078-0.378,0.098
	c-0.117,0.032-0.214-0.004-0.287-0.107c-0.076-0.104-0.145-0.24-0.203-0.411c-0.058-0.167-0.112-0.356-0.166-0.564
	c-0.052-0.209-0.115-0.399-0.191-0.575c-0.073-0.175-0.168-0.317-0.279-0.433c-0.113-0.119-0.253-0.168-0.422-0.155
	c-0.108,0.009-0.187,0.036-0.239,0.078c-0.049,0.043-0.082,0.099-0.099,0.168c-0.015,0.067-0.017,0.145-0.01,0.228
	c0.01,0.086,0.019,0.173,0.026,0.262c0.013,0.192,0.049,0.441,0.109,0.748c0.06,0.303,0.137,0.628,0.231,0.973
	c0.094,0.343,0.203,0.688,0.329,1.037c0.123,0.347,0.259,0.658,0.405,0.933c0.146,0.274,0.3,0.496,0.464,0.662
	c0.163,0.167,0.327,0.245,0.491,0.232c0.085-0.007,0.164-0.022,0.239-0.042c0.078-0.021,0.145-0.054,0.207-0.1
	c0.061-0.047,0.115-0.109,0.162-0.186c0.046-0.077,0.083-0.177,0.115-0.297c0.017-0.07,0.003-0.156-0.04-0.251
	c-0.046-0.098-0.096-0.199-0.157-0.306c-0.057-0.11-0.115-0.216-0.167-0.319c-0.053-0.104-0.083-0.2-0.089-0.283
	c-0.011-0.129,0.031-0.242,0.12-0.337c0.09-0.096,0.208-0.177,0.354-0.249c0.146-0.071,0.306-0.132,0.483-0.173
	c0.176-0.048,0.345-0.089,0.508-0.117c0.162-0.032,0.307-0.055,0.428-0.068c0.121-0.012,0.201-0.021,0.241-0.023
	c0.013,0,0.027,0,0.047,0.002h0.028c0.014,0.011,0.044,0.038,0.093,0.08c0.048,0.039,0.079,0.067,0.092,0.083
	c0.039,0.055,0.102,0.144,0.188,0.256c0.083,0.114,0.177,0.245,0.28,0.395c0.102,0.145,0.21,0.299,0.324,0.46
	c0.113,0.159,0.222,0.313,0.324,0.46c0.102,0.147,0.193,0.281,0.274,0.399C128.04,58.254,128.1,58.343,128.138,58.399"/>
<path fill="#B1B3B4" d="M112.946,52.467c0.007,0.086,0.005,0.211-0.002,0.368c-0.008,0.156-0.025,0.326-0.051,0.513
	c-0.029,0.182-0.064,0.37-0.113,0.563c-0.048,0.19-0.11,0.361-0.187,0.524c-0.071,0.158-0.158,0.292-0.255,0.396
	c-0.098,0.103-0.213,0.164-0.343,0.172c-0.009,0-0.027-0.002-0.05-0.004c-0.024-0.004-0.038-0.004-0.044-0.004
	c-0.018-0.012-0.047-0.033-0.082-0.063c-0.037-0.029-0.074-0.061-0.114-0.098c-0.039-0.037-0.076-0.067-0.109-0.101
	c-0.033-0.032-0.056-0.057-0.07-0.073c0,0-0.002-0.012-0.007-0.03c-0.004-0.023-0.007-0.038-0.007-0.049
	c-0.006-0.078,0-0.191,0.018-0.348c0.017-0.154,0.044-0.323,0.082-0.51c0.036-0.186,0.085-0.38,0.145-0.574
	c0.061-0.197,0.132-0.377,0.212-0.54c0.084-0.164,0.174-0.298,0.271-0.406c0.098-0.109,0.205-0.167,0.325-0.177
	c0.124-0.011,0.216,0.029,0.275,0.116C112.901,52.229,112.937,52.335,112.946,52.467"/>
</svg>
