<?xml version="1.0" encoding="utf-8"?>
<!-- Generator: Adobe Illustrator 15.1.0, SVG Export Plug-In . SVG Version: 6.00 Build 0)  -->
<!DOCTYPE svg PUBLIC "-//W3C//DTD SVG 1.1//EN" "http://www.w3.org/Graphics/SVG/1.1/DTD/svg11.dtd">
<svg version="1.1" id="Vrstva_1" xmlns="http://www.w3.org/2000/svg" xmlns:xlink="http://www.w3.org/1999/xlink" x="0px" y="0px"
	 width="150px" height="110px" viewBox="0 0 150 110" enable-background="new 0 0 150 110" xml:space="preserve">
<path fill-rule="evenodd" clip-rule="evenodd" fill="#0070BA" d="M63.429,43.635V40.61c0-2.272-2.867-3.408-8.599-3.408H41.929
	c-6.009,0-9.021,1.11-9.021,3.329v3.104H63.429z M61.633,58.817c6.985,0.066,12.649,5.14,12.649,12.124l-9.402-1.006
	c-0.521-1.227-1.715-2.098-3.118-2.148v0.002l-16.505-0.154c-8.702-0.082-14.648-1.241-17.844-3.712
	c-3.329-2.562-4.993-5.627-4.993-9.219V41.046c0-4.675,2.444-8.136,7.317-10.381c3.66-1.704,8.137-2.549,13.42-2.549h12.915
	c4.438,0,8.269,0.819,11.492,2.443c4.107,2.035,6.155,5.033,6.155,9.008V53.04H33.251c0,3.646,5.127,5.284,15.361,5.468
	C52.66,58.581,56.817,58.592,61.633,58.817z"/>
<path fill-rule="evenodd" clip-rule="evenodd" fill="#0070BA" d="M88.967,58.48h-0.022C81.971,58.403,76.4,63.966,76.4,70.943
	l9.312-1.03c0.529-1.265,1.777-2.276,3.232-2.267v0.001h21.283c11.557,0,17.329-3.923,17.329-11.769v-1.704
	c0-7.463-5.431-11.138-16.286-11.188l-14.728-0.068c-2.732-0.013-4.451-0.04-5.151-0.119c-2.576-0.25-3.87-0.938-3.87-2.047v-1.664
	c0-1.162,2.813-1.774,8.44-1.744l12.353,0.068l1.663-9.206l-14.372-0.068c-5.361-0.025-9.403,0.521-12.112,1.545
	c-4.304,1.629-6.459,4.677-6.459,9.127v2.021c0,7.58,6.485,11.312,19.469,11.373l14.463,0.068c3.87,0.018,5.8,0.741,5.8,2.206v1.4
	c0,1.729-2.168,2.602-6.5,2.602H88.967z"/>
<path fill="#0070BA" d="M117.483,28.753L117.483,28.753l-0.002,0.001h-0.006v-0.001c-1.078,0.001-2.056,0.44-2.764,1.147
	c-0.708,0.708-1.146,1.687-1.147,2.767h0.001v0.003v0.005h-0.001c0.001,1.078,0.44,2.056,1.147,2.764
	c0.708,0.708,1.687,1.147,2.767,1.148v-0.001h0.003h0.005v0.001c1.078-0.001,2.057-0.44,2.764-1.148
	c0.709-0.708,1.147-1.687,1.148-2.767h-0.002V32.67v-0.006h0.002c-0.002-1.077-0.44-2.055-1.147-2.763
	C119.543,29.192,118.563,28.753,117.483,28.753 M117.481,28.127h0.002v0.001c1.254,0.001,2.39,0.509,3.211,1.331
	c0.818,0.82,1.327,1.953,1.328,3.204h0.001v0.006v0.002h-0.001c-0.001,1.253-0.51,2.389-1.331,3.21
	c-0.819,0.818-1.953,1.326-3.205,1.329v0.001h-0.005h-0.003v-0.001c-1.254-0.001-2.389-0.51-3.21-1.332
	c-0.819-0.82-1.327-1.954-1.328-3.205h-0.002V32.67v-0.003h0.002c0-1.253,0.51-2.389,1.331-3.21
	c0.819-0.819,1.952-1.327,3.204-1.329v-0.001H117.481z"/>
<path fill="#0070BA" d="M116.29,32.4h1.31c0.277,0,0.496-0.029,0.653-0.087c0.156-0.058,0.276-0.149,0.356-0.276
	c0.083-0.126,0.122-0.264,0.122-0.413c0-0.218-0.078-0.396-0.236-0.537c-0.156-0.14-0.407-0.21-0.749-0.21h-1.456V32.4z
	 M115.682,34.97v-4.602h2.039c0.412,0,0.724,0.042,0.937,0.125c0.213,0.082,0.384,0.228,0.512,0.437
	c0.128,0.21,0.191,0.441,0.191,0.694c0,0.327-0.105,0.601-0.317,0.826c-0.211,0.224-0.538,0.366-0.979,0.427
	c0.162,0.076,0.284,0.153,0.368,0.229c0.177,0.164,0.346,0.367,0.505,0.612l0.801,1.252h-0.766l-0.609-0.958
	c-0.178-0.275-0.324-0.486-0.44-0.632c-0.115-0.147-0.218-0.25-0.309-0.308c-0.091-0.059-0.183-0.1-0.277-0.124
	c-0.07-0.014-0.182-0.021-0.34-0.021h-0.706v2.043H115.682z"/>
<path fill="#0070BA" d="M121.465,79.888l1.454,3.969v2.998h0.939v-2.998l1.212-3.969h-0.981l-0.387,1.577
	c-0.063,0.293-0.126,0.563-0.198,0.867c-0.031,0.156-0.084,0.418-0.136,0.772c-0.073-0.47-0.126-0.669-0.346-1.378
	c-0.042-0.104-0.072-0.209-0.104-0.324l-0.46-1.515H121.465z M116.67,83.701c0.752,0,1.014,0.313,1.014,1.201
	c0,0.459-0.084,0.751-0.262,0.939c-0.146,0.156-0.303,0.198-0.752,0.209V83.701z M116.67,82.959V80.65
	c0.063-0.011,0.115-0.011,0.156-0.011c0.543,0,0.815,0.376,0.815,1.129c0,0.866-0.24,1.19-0.909,1.19H116.67z M115.782,79.888v6.967
	h1.232c1.107,0,1.64-0.615,1.64-1.922c0-0.554-0.125-0.992-0.365-1.253c-0.125-0.146-0.271-0.23-0.616-0.366
	c0.646-0.229,0.877-0.636,0.877-1.578c0-1.252-0.48-1.848-1.493-1.848H115.782z M109.333,79.888l1.35,6.967h0.741l1.368-6.967
	h-0.877l-0.45,2.569c-0.124,0.805-0.26,1.703-0.396,2.674c-0.052-0.438-0.188-1.326-0.386-2.674l-0.419-2.569H109.333z
	 M105.697,84.776h-1.118l0.178-0.898c0.177-0.919,0.304-1.755,0.398-2.633c0.051,0.565,0.208,1.714,0.332,2.414L105.697,84.776z
	 M104.799,79.888l-1.514,6.967h0.897l0.271-1.357h1.379l0.262,1.357h0.929l-1.494-6.967H104.799z M97.88,79.888v0.825h1.088v6.142
	h0.919v-6.142h1.056v-0.825H97.88z M94.725,80.034c-0.345-0.188-0.564-0.24-0.95-0.24c-0.972,0-1.577,0.689-1.577,1.775
	c0,0.397,0.084,0.742,0.239,1.034c0.179,0.313,0.303,0.47,0.908,1.065c0.616,0.596,0.795,0.93,0.795,1.431
	c0,0.585-0.313,0.951-0.815,0.951c-0.303,0-0.543-0.094-0.908-0.366v0.931c0.313,0.239,0.605,0.335,1.023,0.335
	c0.951,0,1.619-0.765,1.619-1.851c0-0.783-0.22-1.232-0.982-2.016c-0.825-0.836-0.96-1.045-0.96-1.515
	c0-0.543,0.344-0.93,0.836-0.93c0.261,0,0.448,0.073,0.772,0.313V80.034z M84.401,77.935l-0.972,0.95l0.335,0.377l1.128-0.784
	L84.401,77.935z M82.667,79.888v6.967h2.497v-0.793h-1.556v-2.372h1.379v-0.793h-1.379v-2.216h1.556v-0.793H82.667z M76.305,79.888
	v6.967h0.939v-3.593l1.306,3.593h1.055l-1.482-3.593l1.368-3.374h-0.94l-1.306,3.374v-3.374H76.305z M73.042,80.003
	c-0.303-0.167-0.47-0.209-0.784-0.209c-1.41,0-2.088,1.201-2.088,3.697c0,2.309,0.7,3.459,2.11,3.459
	c0.334,0,0.491-0.041,0.762-0.199v-0.857c-0.23,0.115-0.355,0.146-0.554,0.146c-0.888,0-1.326-0.847-1.326-2.58
	c0-0.878,0.083-1.588,0.25-1.995c0.188-0.501,0.575-0.793,1.024-0.793c0.188,0,0.334,0.041,0.605,0.177V80.003z M65.811,79.888
	v6.967h0.94v-6.967H65.811z M58.403,79.888l-0.575,6.967h0.878l0.271-4.794c0.084,0.648,0.271,1.733,0.366,2.162l0.554,2.632h0.626
	l0.585-3.04c0.146-0.763,0.241-1.357,0.303-1.754l0.01,0.114c0.021,0.564,0.042,1.16,0.063,1.786l0.02,0.533l0.157,2.36h0.909
	l-0.647-6.967h-0.815l-0.543,2.79c-0.063,0.292-0.178,0.981-0.355,2.067l-0.021,0.178c-0.136-1.014-0.24-1.63-0.376-2.194
	l-0.605-2.841H58.403z M52.843,80.64c0.679,0,0.835,0.574,0.835,2.998c0,0.679-0.042,1.285-0.104,1.671
	c-0.094,0.533-0.324,0.773-0.721,0.773c-0.648,0-0.835-0.596-0.835-2.685c0-1.254,0.042-1.859,0.157-2.205
	C52.3,80.818,52.52,80.64,52.843,80.64z M52.833,79.794c-0.679,0-1.148,0.281-1.42,0.856c-0.272,0.563-0.376,1.274-0.376,2.559
	c0,1.474,0.125,2.36,0.428,2.957c0.251,0.489,0.773,0.784,1.41,0.784c1.286,0,1.787-0.952,1.787-3.407
	c0-1.588-0.125-2.401-0.449-3.008C53.96,80.065,53.459,79.794,52.833,79.794z M44.38,79.888v6.967h0.93l-0.053-3.04
	c-0.01-0.406-0.01-0.417-0.031-0.698c-0.021-0.377-0.042-0.732-0.063-1.046c-0.01-0.24-0.01-0.25-0.052-0.574
	c0.021,0.115,0.052,0.239,0.084,0.354c0.167,0.815,0.177,0.847,0.501,1.87l1.055,3.134h0.877v-6.967h-0.939v2.601
	c0,0.805,0.063,1.557,0.219,2.695c-0.135-0.616-0.48-1.817-0.71-2.518l-0.94-2.778H44.38z M39.154,80.64
	c0.679,0,0.836,0.574,0.836,2.998c0,0.679-0.042,1.285-0.104,1.671c-0.094,0.533-0.324,0.773-0.721,0.773
	c-0.647,0-0.835-0.596-0.835-2.685c0-1.254,0.042-1.859,0.156-2.205C38.611,80.818,38.831,80.64,39.154,80.64z M39.145,79.794
	c-0.679,0-1.149,0.281-1.421,0.856c-0.272,0.563-0.376,1.274-0.376,2.559c0,1.474,0.125,2.36,0.428,2.957
	c0.251,0.489,0.773,0.784,1.411,0.784c1.285,0,1.786-0.952,1.786-3.407c0-1.588-0.125-2.401-0.448-3.008
	C40.272,80.065,39.771,79.794,39.145,79.794z M31.266,79.888v6.967h0.939v-3.593l1.306,3.593h1.055l-1.483-3.593l1.368-3.374h-0.94
	l-1.306,3.374v-3.374H31.266z M25.435,79.888v6.967h2.496v-0.793h-1.556v-2.372h1.379v-0.793h-1.379v-2.216h1.556v-0.793H25.435z"/>
</svg>
