<?xml version="1.0" encoding="utf-8"?>
<!-- Generator: Adobe Illustrator 15.1.0, SVG Export Plug-In . SVG Version: 6.00 Build 0)  -->
<!DOCTYPE svg PUBLIC "-//W3C//DTD SVG 1.1//EN" "http://www.w3.org/Graphics/SVG/1.1/DTD/svg11.dtd">
<svg version="1.1" id="Vrstva_1" xmlns="http://www.w3.org/2000/svg" xmlns:xlink="http://www.w3.org/1999/xlink" x="0px" y="0px"
	 width="28px" height="28px" viewBox="0 0 28 28" enable-background="new 0 0 28 28" xml:space="preserve">
<path fill-rule="evenodd" clip-rule="evenodd" fill="#B0DFF8" d="M4.241,0.171h19.623c2.213,0,4.025,1.811,4.025,4.025v19.625
	c0,2.212-1.813,4.024-4.025,4.024H4.241c-2.215,0-4.026-1.813-4.026-4.024V4.197C0.215,1.982,2.026,0.171,4.241,0.171"/>
<path fill="#1D1D1B" d="M2.767,16.275l3.027-4.187l0.137-0.189l0.209-0.084l3.749-1.485l0.579,1.465l-3.54,1.402l-2.889,3.995
	L2.767,16.275z M8.03,20.076l-0.571-3.505l-1.164-1.337l1.181-1.031l1.312,1.505l0.147,0.173L8.973,16.1l0.606,3.726L8.03,20.076z
	 M15.051,14.439l0.084-3.72l-0.76-1.612l-2.579,1.89l-0.928-1.265l3.346-2.454l0.768-0.562l0.407,0.859l1.246,2.639l0.076,0.167
	l-0.004,0.183l-0.089,3.906L15.051,14.439z M10.46,14.489l1.68,0.704l0.612-0.428l0.898,1.291l-0.965,0.672l-0.354,0.247
	l-0.396-0.166L9.86,15.94L10.46,14.489z M18.524,9.951l1.64,1.315l0.706-0.236l0.497,1.489l-1.114,0.374l-0.408,0.137l-0.333-0.27
	l-1.973-1.584L18.524,9.951z M4.875,9.789C4.807,9.715,4.719,9.662,4.63,9.64C4.539,9.617,4.438,9.62,4.342,9.651
	C4.215,9.694,4.112,9.791,4.058,9.903C4,10.015,3.988,10.156,4.032,10.287c0.042,0.129,0.138,0.23,0.25,0.286
	c0.114,0.058,0.253,0.07,0.386,0.026l0.498,1.489c-0.54,0.182-1.108,0.128-1.579-0.107c-0.472-0.235-0.863-0.655-1.044-1.196
	c-0.181-0.54-0.127-1.106,0.107-1.578c0.234-0.472,0.656-0.861,1.195-1.042c0.388-0.132,0.796-0.14,1.179-0.042
	c0.382,0.099,0.739,0.308,1.013,0.609L4.875,9.789z M14.714,4.033c-0.043-0.086-0.112-0.162-0.192-0.209
	c-0.083-0.048-0.181-0.074-0.275-0.07h-0.001c-0.14,0.004-0.263,0.065-0.347,0.157l-0.003,0.006
	c-0.085,0.092-0.136,0.222-0.13,0.355c0.005,0.137,0.066,0.264,0.158,0.347l0.005,0.004c0.092,0.084,0.221,0.135,0.356,0.13
	l0.063,1.568c-0.569,0.022-1.101-0.191-1.489-0.549l0.001-0.001c-0.389-0.36-0.641-0.869-0.662-1.434
	c-0.022-0.57,0.19-1.103,0.548-1.489l0.002,0.001c0.359-0.389,0.865-0.641,1.433-0.663h0.001c0.411-0.017,0.81,0.09,1.146,0.292
	c0.338,0.201,0.62,0.505,0.799,0.873L14.714,4.033z M7.359,24.801c1.844-3.344,4.656-6.092,7.856-8.028
	c3.355-2.029,7.152-3.182,10.73-3.22l0.009,1.195c-3.364,0.036-6.945,1.127-10.122,3.05c-3.031,1.833-5.688,4.428-7.425,7.579
	L7.359,24.801z"/>
</svg>
