<?xml version="1.0" encoding="utf-8"?>
<!-- Generator: Adobe Illustrator 15.1.0, SVG Export Plug-In . SVG Version: 6.00 Build 0)  -->
<!DOCTYPE svg PUBLIC "-//W3C//DTD SVG 1.1//EN" "http://www.w3.org/Graphics/SVG/1.1/DTD/svg11.dtd">
<svg version="1.1" id="Vrstva_1" xmlns="http://www.w3.org/2000/svg" xmlns:xlink="http://www.w3.org/1999/xlink" x="0px" y="0px"
	 width="28px" height="28px" viewBox="0 0 28 28" enable-background="new 0 0 28 28" xml:space="preserve">
<path fill-rule="evenodd" clip-rule="evenodd" fill="#A04E98" d="M4.073,0h19.854C26.167,0,28,1.832,28,4.073v19.854
	c0,2.24-1.833,4.071-4.072,4.071H4.073C1.833,27.998,0,26.167,0,23.927V4.073C0,1.832,1.833,0,4.073,0"/>
<path fill="#FFFFFF" d="M16.969,11.031c-0.761-0.758-1.81-1.229-2.969-1.229c-1.158,0-2.208,0.471-2.967,1.229
	c-0.758,0.76-1.23,1.81-1.23,2.968c0,1.159,0.472,2.209,1.23,2.968c0.759,0.759,1.81,1.23,2.967,1.23
	c1.159,0,2.208-0.472,2.969-1.23c0.759-0.759,1.229-1.809,1.229-2.968C18.197,12.841,17.728,11.791,16.969,11.031 M14,8.447
	c1.533,0,2.923,0.621,3.928,1.625c1.005,1.005,1.626,2.395,1.626,3.927c0,1.533-0.621,2.923-1.626,3.927
	c-1.005,1.005-2.395,1.627-3.928,1.627c-1.532,0-2.921-0.622-3.926-1.627c-1.004-1.004-1.626-2.394-1.626-3.927
	c0-1.532,0.622-2.922,1.626-3.927C11.079,9.068,12.468,8.447,14,8.447z"/>
<path fill="#FFFFFF" d="M14.003,4.668c-2.011,0-4.015,0.076-6.011,0.227C7.01,4.97,6.173,5.38,5.557,6.012
	C4.915,6.673,4.502,7.58,4.405,8.606c-0.171,1.807-0.235,3.615-0.227,5.42c0.01,1.793,0.097,3.611,0.229,5.44
	c0.072,0.992,0.466,1.839,1.084,2.459l-0.001,0.002c0.63,0.629,1.501,1.031,2.512,1.122c1.99,0.182,3.981,0.28,5.97,0.286
	c1.986,0.003,3.974-0.087,5.966-0.286c1.012-0.1,1.895-0.519,2.538-1.164c0.633-0.632,1.039-1.487,1.117-2.482
	c0.142-1.792,0.224-3.585,0.229-5.375c0.006-1.79-0.064-3.617-0.229-5.485c-0.089-1.008-0.503-1.886-1.144-2.529l-0.001,0.001
	c-0.637-0.636-1.5-1.044-2.496-1.121C17.978,4.744,15.993,4.668,14.003,4.668 M7.894,3.579c2.042-0.154,4.081-0.232,6.109-0.232
	c2.01,0,4.026,0.077,6.048,0.232c1.327,0.102,2.48,0.649,3.334,1.502v0.003c0.857,0.857,1.409,2.021,1.526,3.347
	c0.164,1.87,0.235,3.737,0.229,5.598c-0.006,1.865-0.09,3.687-0.229,5.478c-0.105,1.321-0.65,2.465-1.499,3.314
	c-0.854,0.854-2.018,1.407-3.346,1.54c-2.028,0.203-4.06,0.295-6.094,0.29c-2.03-0.005-4.062-0.106-6.089-0.29
	c-1.328-0.119-2.479-0.659-3.324-1.5H4.558c-0.84-0.84-1.37-1.976-1.467-3.302c-0.133-1.825-0.22-3.666-0.23-5.528
	c-0.01-1.849,0.058-3.7,0.233-5.55c0.125-1.331,0.669-2.516,1.519-3.389C5.448,4.234,6.577,3.678,7.894,3.579z"/>
<path fill-rule="evenodd" clip-rule="evenodd" fill="#FFFFFF" d="M20.534,6.965c0.653,0,1.183,0.529,1.183,1.182
	c0,0.653-0.529,1.182-1.183,1.182S19.353,8.8,19.353,8.147C19.353,7.494,19.881,6.965,20.534,6.965"/>
</svg>
