<?xml version="1.0" encoding="utf-8"?>
<!-- Generator: Adobe Illustrator 15.1.0, SVG Export Plug-In . SVG Version: 6.00 Build 0)  -->
<!DOCTYPE svg PUBLIC "-//W3C//DTD SVG 1.1//EN" "http://www.w3.org/Graphics/SVG/1.1/DTD/svg11.dtd">
<svg version="1.1" id="Vrstva_1" xmlns="http://www.w3.org/2000/svg" xmlns:xlink="http://www.w3.org/1999/xlink" x="0px" y="0px"
	 width="28px" height="28px" viewBox="0 0 28 28" enable-background="new 0 0 28 28" xml:space="preserve">
<path fill="#CACACA" d="M4.071,0.002h19.856C26.165,0.002,28,1.835,28,4.074v19.852c0,2.242-1.835,4.072-4.072,4.072H4.071
	C1.832,27.998,0,26.168,0,23.926V4.074C-0.001,1.834,1.832,0.002,4.071,0.002"/>
<path fill="#323232" d="M18.433,12.482l-0.773-3.333l-3.029,1.695l-0.064,0.036l-0.074-0.004l-5.162-0.258l-1.625,3.547
	l-0.197,2.809l0.312,2.688l0.017,0.147l-0.119,0.088l-0.83,0.617l-0.414,0.305l0.004-0.512l0.018-2.387l-0.465-1.89l-0.002-0.018
	l-0.403-2.356l-0.015-0.09l0.045-0.08l0.145-0.254L5.57,12.17l-0.012-0.055l0.013-0.056l1.107-4.795L6.7,7.172l0.078-0.057
	l4.012-2.96l0.06-0.044l0.075-0.005l4.947-0.344l0.11-0.008l0.082,0.077l1.819,1.704l1.317-0.2l0.151-0.023l0.093,0.124l2.658,3.592
	l0.06,0.078l-0.01,0.098l-0.301,3.221l0.106-0.036l0.11,0.155l0.31,0.436l0.063,0.087l-0.018,0.105l-0.486,2.797l-0.012,0.064
	l-0.041,0.055l-0.542,0.666l-0.326,2.622l-0.173,1.389l-0.332-1.359l-0.401-1.646l-0.007-0.027l-0.001-0.029l-0.066-3.898
	l-1.512-1.175l-0.071-0.055L18.433,12.482z"/>
<polygon fill-rule="evenodd" clip-rule="evenodd" fill="#323232" points="10.234,13.03 8.242,13.725 8.568,16.028 10.08,16.46 
	12.563,16.423 13.452,14.668 14.006,14.702 14.751,16.391 17.207,16.559 18.73,16.048 19.094,14.203 19.969,13.678 19.442,13.299 
	18.699,13.387 16.926,13.062 13.789,13.565 "/>
<polygon fill="#CACACA" points="12.828,17.15 12.742,17.495 13.358,17.97 13.821,17.947 14.334,17.566 14.358,17.549 14.383,17.538 
	14.528,17.471 14.335,16.795 14.83,16.654 15.083,17.544 15.146,17.756 14.943,17.849 14.617,17.995 14.065,18.405 14.001,18.451 
	13.925,18.455 13.289,18.488 13.196,18.493 13.119,18.436 12.295,17.801 12.162,17.696 12.203,17.533 12.329,17.025 "/>
<polygon fill="#323232" points="14.961,19.989 13.934,20.434 13.873,20.463 13.809,20.458 13.324,20.427 13.282,20.423 
	13.24,20.405 12.218,19.974 12.417,19.502 13.398,19.915 13.777,19.94 14.743,19.524 "/>
<path fill-rule="evenodd" clip-rule="evenodd" fill="#323232" d="M15.313,19.263l-1.144,0.058l-0.633-0.12l-0.985,0.158
	l-0.698-0.096l-0.507,0.891l0.731,0.822l0.706,1.54l1.605,0.007l0.584-1.321l0.849-0.923L15.313,19.263z M13.151,18.686
	l-0.658-0.557l-0.829,0.398l-0.572,0.452l-0.19,1.553l-1.216,0.15L8.88,20.002l-0.863-1.656l0.265,1.544l2.221,3.01l1.731,1.281
	l2.539,0.066l2.03-0.932l2.832-3.619l0.216-1.534l-0.793,1.429l-1.428,0.901l-1.462-0.127l-0.221-1.369l-1.158-0.859l-0.874,0.582
	L13.151,18.686z"/>
<path fill="none" d="M15.313,19.263l-1.144,0.058l-0.633-0.12l-0.985,0.158l-0.698-0.096l-0.507,0.891l0.731,0.822l0.706,1.54
	l1.605,0.007l0.584-1.321l0.849-0.923L15.313,19.263z M13.151,18.686l-0.658-0.557l-0.829,0.398l-0.572,0.452l-0.19,1.553
	l-1.216,0.15L8.88,20.002l-0.863-1.656l0.265,1.544l2.221,3.01l1.731,1.281l2.539,0.066l2.03-0.932l2.832-3.619l0.216-1.534
	l-0.793,1.429l-1.428,0.901l-1.462-0.127l-0.221-1.369l-1.158-0.859l-0.874,0.582L13.151,18.686z"/>
<polygon fill-rule="evenodd" clip-rule="evenodd" fill="#323232" points="16.635,16.266 17.964,13.549 15.698,16.218 "/>
</svg>
