<?xml version="1.0" encoding="utf-8"?>
<!-- Generator: Adobe Illustrator 15.1.0, SVG Export Plug-In . SVG Version: 6.00 Build 0)  -->
<!DOCTYPE svg PUBLIC "-//W3C//DTD SVG 1.1//EN" "http://www.w3.org/Graphics/SVG/1.1/DTD/svg11.dtd">
<svg version="1.1" id="Vrstva_1" xmlns="http://www.w3.org/2000/svg" xmlns:xlink="http://www.w3.org/1999/xlink" x="0px" y="0px"
	 width="28px" height="28px" viewBox="0 0 28 28" enable-background="new 0 0 28 28" xml:space="preserve">
<path fill-rule="evenodd" clip-rule="evenodd" fill="#E52620" d="M4.073,0h19.854C26.168,0,28,1.833,28,4.073v19.854
	C28,26.167,26.168,28,23.927,28H4.073C1.834,28,0,26.167,0,23.927V4.073C0,1.833,1.834,0,4.073,0"/>
<path fill-rule="evenodd" clip-rule="evenodd" fill="#FFFFFF" d="M8.23,15.132c-0.721-0.776-4.1-3.337-3.659-6.007
	C4.937,6.918,7.639,6.79,8.214,8.414c0.574-1.624,3.22-1.483,3.622,0.717C12.309,11.708,8.967,14.355,8.23,15.132"/>
<path fill-rule="evenodd" clip-rule="evenodd" fill="#FFFFFF" d="M20.21,15.272c-0.722-0.776-4.1-3.336-3.659-6.006
	c0.365-2.207,3.067-2.335,3.642-0.712c0.575-1.623,3.221-1.483,3.624,0.717C24.288,11.85,20.947,14.496,20.21,15.272"/>
<path fill-rule="evenodd" clip-rule="evenodd" fill="#FFFFFF" d="M5.717,19.909c5.284,3.055,10.692,3.428,16.318,0.05
	C17.755,24.916,9.618,24.205,5.717,19.909"/>
</svg>
