<?xml version="1.0" encoding="utf-8"?>
<!-- Generator: Adobe Illustrator 15.1.0, SVG Export Plug-In . SVG Version: 6.00 Build 0)  -->
<!DOCTYPE svg PUBLIC "-//W3C//DTD SVG 1.1//EN" "http://www.w3.org/Graphics/SVG/1.1/DTD/svg11.dtd">
<svg version="1.1" id="Vrstva_1" xmlns="http://www.w3.org/2000/svg" xmlns:xlink="http://www.w3.org/1999/xlink" x="0px" y="0px"
	 width="28px" height="28px" viewBox="0 0 28 28" enable-background="new 0 0 28 28" xml:space="preserve">
<path fill-rule="evenodd" clip-rule="evenodd" fill="#3A5BA6" d="M4.193,0.142h19.653c2.217,0,4.031,1.813,4.031,4.032v19.652
	c0,2.217-1.814,4.031-4.031,4.031H4.193c-2.218,0-4.032-1.814-4.032-4.031V4.174C0.161,1.956,1.975,0.142,4.193,0.142"/>
<path fill-rule="evenodd" clip-rule="evenodd" fill="#FFFFFF" d="M22.653,6.944c0.006-1.319,0.023-2.665,0.032-3.983
	c-1.171-0.048-2.337-0.034-3.37,0.021c-3.258,0.174-5.575,1.249-5.582,5.867v1.22h-3.31v3.991h3.309l-0.001,12.093h5.172
	c0-4.027,0.006-8.063,0.012-12.093h3.856v-3.991h-3.854V9.953c0.02-1.261,0.175-2.973,2.04-3.022
	C21.675,6.931,21.935,6.944,22.653,6.944"/>
</svg>
